<svg version="1.1" xmlns="http://www.w3.org/2000/svg" xmlns:xlink="http://www.w3.org/1999/xlink" width="123" height="108" viewBox="0,0,123,108"><g transform="translate(-258.5,-126)"><g data-paper-data="{&quot;isPaintingLayer&quot;:true}" fill-rule="nonzero" stroke-linecap="butt" stroke-linejoin="miter" stroke-miterlimit="10" stroke-dasharray="" stroke-dashoffset="0" style="mix-blend-mode: normal"><path d="M259,233.5v-107h122v107z" fill="#ff0000" stroke="#000000" stroke-width="1"/><text transform="translate(265.78751,150.52501) scale(0.59751,0.59751)" font-size="40" xml:space="preserve" fill="#000000" fill-rule="nonzero" stroke="none" stroke-width="1" stroke-linecap="butt" stroke-linejoin="miter" stroke-miterlimit="10" stroke-dasharray="" stroke-dashoffset="0" font-family="&quot;Gord&quot;, Serif" font-weight="normal" text-anchor="start" style="mix-blend-mode: normal"><tspan x="0" dy="0">$50</tspan></text><text transform="translate(263.20821,209.0772) scale(0.27559,0.27559)" font-size="40" xml:space="preserve" fill="#00e2ff" fill-rule="nonzero" stroke="#000000" stroke-width="2" stroke-linecap="butt" stroke-linejoin="miter" stroke-miterlimit="10" stroke-dasharray="" stroke-dashoffset="0" font-family="&quot;Crystal Universe Regular&quot;, Sans Serif" font-weight="normal" text-anchor="start" style="mix-blend-mode: normal"><tspan x="0" dy="0">Subtracter</tspan></text><path d="M289.98227,165.58984c0,-1.5 1.5,-1.5 1.5,-1.5l0.88309,0.02913c5.07588,1.03136 10.43441,1.14871 15.60662,1.14871c3.5327,0.00803 6.96955,-0.9017 10.47681,-1.17273c5.33352,-0.41216 10.61684,-0.00392 15.96911,-0.00511c4.64487,-0.00103 9.02882,-0.55077 13.32636,1.30712c0,0 1.37072,0.60921 0.76151,1.97993c-0.60921,1.37072 -1.97993,0.76151 -1.97993,0.76151c-3.74615,-1.7219 -8.00952,-1.04766 -12.10795,-1.04855c-5.27398,-0.00115 -10.4672,-0.40719 -15.72167,-0.00511c-3.59479,0.27508 -7.10028,1.17565 -10.72425,1.18295c-5.38105,0 -10.90873,-0.1642 -16.19497,-1.20697l-0.29474,0.02913c0,0 -1.5,0 -1.5,-1.5z" fill="#ffffff" stroke="none" stroke-width="0.5"/></g></g></svg>