<svg version="1.1" xmlns="http://www.w3.org/2000/svg" xmlns:xlink="http://www.w3.org/1999/xlink" width="1112.7092" height="887.89946" viewBox="0,0,1112.7092,887.89946"><g transform="translate(233.56688,-13.35322)"><g data-paper-data="{&quot;isPaintingLayer&quot;:true}" stroke-linejoin="miter" stroke-miterlimit="10" stroke-dasharray="" stroke-dashoffset="0" style="mix-blend-mode: normal"><path d="M245.63959,245.43309c2.04779,8.4729 2.66716,17.73644 3.03749,26.84832c0.06898,1.69812 -0.73923,3.50685 -1.18807,5.25562c-0.43075,1.67843 0.11697,2.61126 -0.01556,4.24454c-0.2479,3.05551 -1.10693,5.04562 -0.91943,8.01968c-0.3659,4.59283 -1.47569,9.07029 -2.40178,13.55057c-0.28708,1.38881 0.41512,2.62465 0.26652,4.00756c-0.48543,4.51678 -2.59238,9.61056 -2.63278,14.18273c-0.00803,0.90836 0.56565,1.65112 0.45917,2.57447c-0.18753,1.62581 -1.54147,3.17018 -1.79768,4.80059c-0.19981,1.27157 0.54975,2.64116 -0.19825,3.77311c-2.40362,3.63741 -8.96419,2.49592 -11.90962,2.5641c-3.76022,0.49999 -7.75901,2.12034 -11.46963,2.11495c-1.29734,-0.00187 -1.41552,-1.13626 -2.73016,-0.26719c-0.69285,0.45804 -1.17126,1.39994 -1.91522,1.67144c-2.80438,1.02349 -5.93685,-0.19099 -8.92483,1.40033c-2.24517,1.19568 -3.50917,2.84856 -6.1364,3.59309c-2.77923,0.7876 -8.1296,0.91945 -8.84579,-2.72685c-0.21454,-1.09201 2.04372,-6.86907 2.45331,-8.1513c1.2783,-3.41297 2.21756,-7.23342 3.66414,-10.55675c0.2973,-0.68299 1.8426,-2.26993 1.99937,-3.25548c0.12776,-0.8033 -0.33213,-1.55258 -0.05831,-2.34535c0.75429,-2.18377 2.02041,-2.24588 2.48543,-4.18425c0.72176,-3.00869 -1.27128,-3.33463 -1.45804,-5.73818c-0.05747,-0.73931 0.89212,-1.4925 0.91743,-2.25216c0.02754,-0.82601 -0.96442,-1.3149 -0.77055,-2.15272c0.51718,-2.23455 4.69333,-7.01267 6.01294,-8.85725c3.30002,-4.61286 6.44833,-10.19363 9.21467,-15.19009c2.13474,-2.95915 4.60014,-7.86641 5.54965,-11.26578c0.21661,-0.77545 -0.34166,-1.5002 -0.07485,-2.26821c2.41828,-6.96029 9.94507,-14.92172 14.35745,-21.10974c0.91723,-1.28635 3.44412,-5.65532 4.73137,-6.14647c2.95272,-1.12659 5.05353,1.14094 6.93594,2.48319c0.47784,0.34075 2.03082,1.4481 2.50868,1.78884c0,0 1.34395,0.95832 0.14724,2.63658c-0.43579,0.61119 -0.89108,0.87271 -1.29397,0.95812z" data-paper-data="{&quot;index&quot;:null}" fill="#059764" fill-rule="nonzero" stroke="#000000" stroke-width="1" stroke-linecap="butt"/><path d="M-14.37915,229.0062l-138.66693,282.63105l10.55771,39.6046l-89.2136,-54.70878l27.4275,-7.56149l177.61623,-294.75717z" data-paper-data="{&quot;index&quot;:null}" fill="#99d9ff" fill-rule="nonzero" stroke="#080000" stroke-width="1.5" stroke-linecap="round"/><path d="M34.50015,141.25853c-0.15998,-0.37949 -0.20534,-0.9026 0.04748,-1.60938c0.69416,-1.94082 2.24836,-1.38495 2.24836,-1.38495c0.55262,0.19766 2.34855,0.84 2.90116,1.03763c2.1769,0.7786 5.23804,1.20806 5.99962,4.27526c0.332,1.33717 -1.81116,5.90661 -2.34323,7.3942c-2.5595,7.15609 -4.79605,17.88151 -9.12836,23.84178c-0.47804,0.65766 -1.3918,0.6133 -1.90463,1.234c-2.24814,2.72089 -4.8683,7.54729 -6.07814,10.98967c-2.52151,5.12439 -5.30449,10.89604 -7.20629,16.23941c-0.76049,2.13671 -2.29758,8.29365 -3.83648,9.99438c-0.57701,0.63766 -1.54486,0.10259 -2.20717,0.59695c-0.60912,0.45466 -0.68505,1.6643 -1.32475,2.03935c-2.07964,1.21943 -3.48547,-0.23044 -5.54298,2.08036c-1.32558,1.48877 -0.65344,2.56356 -2.01522,4.42993c-0.49437,0.67754 -1.3721,0.72796 -1.95852,1.29161c-0.71948,0.69154 -1.13958,2.86637 -1.53041,3.50049c-1.90182,3.08548 -4.50146,6.03843 -6.57298,9.03697c-0.81861,1.06853 -4.27105,6.22166 -5.28998,6.66923c-3.40215,1.49461 -6.34963,-2.97264 -7.2904,-5.70381c-0.8893,-2.5818 -0.25441,-4.56338 -0.55519,-7.08925c-0.40024,-3.36156 -3.18619,-5.23928 -3.94769,-8.12584c-0.20203,-0.76576 0.2979,-1.69641 0.2782,-2.52673c-0.03742,-1.57549 -1.03609,-1.02462 -1.77858,-2.08849c-2.12365,-3.04284 -3.07735,-7.25072 -4.81448,-10.62291c-1.62624,-2.45672 -6.31012,-7.19015 -4.69707,-11.24061c0.50197,-1.26049 2.05429,-1.42741 2.98398,-2.31764c1.19204,-1.14147 1.68648,-3.1349 2.91395,-4.21739c0.69713,-0.61475 1.63449,-0.56805 2.37553,-1.09341c3.73006,-2.64442 6.70803,-7.28313 10.13845,-10.26123c1.0503,-0.91179 2.4658,-1.0412 3.44188,-2.07005c3.14878,-3.31899 6.19036,-6.78715 9.75146,-9.71058c2.54838,-1.54465 3.69138,-3.3864 6.05796,-5.33495c1.265,-1.0416 2.34354,-1.12476 3.4753,-2.43693c1.17915,-1.3672 2.20229,-3.06365 3.63561,-3.97686c7.69112,-4.9 15.64897,-9.68222 23.77362,-12.84032z" data-paper-data="{&quot;index&quot;:null}" fill="#059764" fill-rule="nonzero" stroke="#000000" stroke-width="1" stroke-linecap="butt"/><path d="M144.50366,770.85989l30.96066,-80.10706l53.95818,31.98928l-22.57843,84.07487z" data-paper-data="{&quot;index&quot;:null}" fill="#2a2543" fill-rule="nonzero" stroke="#000000" stroke-width="1" stroke-linecap="round"/><path d="M-84.32483,820.69016l22.44839,-84.10966l62.72349,-0.75097l-13.20495,84.86067z" data-paper-data="{&quot;index&quot;:null}" fill="#2a2543" fill-rule="nonzero" stroke="#000000" stroke-width="1" stroke-linecap="round"/><path d="M202.75493,788.69725c-1.54884,-0.03393 -2.9187,-0.33228 -4.21762,-0.72691c-0.04939,0.10352 -0.10497,0.20922 -0.16714,0.317c-1.51452,2.62579 -3.91057,1.24378 -3.91057,1.24378c-10.58257,-6.10389 -21.16511,-12.20775 -31.74767,-18.31164c-2.7232,-1.57071 -8.8121,-6.6703 -11.72649,-6.25824c-1.67871,0.23732 -2.45532,-0.3299 -4.00612,-1.06644c-0.17506,-0.08313 -0.4959,-0.23004 -0.77497,-0.36753c0.78661,1.94829 -5.88407,11.9126 -7.55495,14.80947c-7.06782,12.25378 -14.13562,24.50754 -21.20344,36.76133c-1.2621,2.18816 -2.52425,4.3764 -3.78632,6.56451c-0.50485,0.87529 -2.3648,3.12627 -1.51452,2.62579c3.23486,-1.90393 5.48663,1.42172 9.14344,3.52415c7.20836,4.14438 15.40641,7.74802 21.66142,13.24823c11.28469,10.28206 27.78245,13.76934 38.77766,24.31511c9.08735,9.18213 21.85329,16.90047 32.97291,23.31413c2.79541,1.61236 5.5908,3.2247 8.38619,4.83704c0.4206,0.2426 1.11678,0.56142 1.83977,0.88773c0.08914,-1.74372 2.68811,-4.58577 3.74363,-6.41579c3.94316,-6.83642 12.83614,-17.42305 13.81173,-25.04585c2.0333,-8.76685 4.74007,-16.77546 5.32979,-26.34808c0.43512,-7.06306 -1.00931,-14.37943 -0.12396,-21.13407c0.77883,-3.88085 -1.541,-2.12423 -4.67391,-4.93338c-6.93236,-6.21595 -15.0502,-10.43043 -23.20326,-15.133c-2.97185,-1.71412 -7.08563,-3.20566 -9.58422,-5.52805c-0.52743,-0.49023 -1.37068,-1.66813 -1.98195,-2.58702c0.80146,2.22966 -3.51276,1.45097 -5.48931,1.40766zM165.74094,765.96769c7.99798,4.61313 15.99598,9.22627 23.99393,13.83938c0.30365,0.0067 0.60722,0.01329 0.91085,0.01993c3.99944,0.08763 6.4886,2.11146 9.52211,2.86766c4.13405,1.03062 8.22975,-1.16656 12.36031,0.13053c2.37284,0.74517 7.33026,5.60826 10.31131,7.32769c8.08329,4.66233 16.44988,8.81303 23.20324,15.13303c3.79378,3.5503 8.64745,3.69439 7.18971,10.95803c-1.03023,2.48438 0.55558,5.32327 0.79563,7.82996c0.36681,3.83086 -0.33722,8.78494 -0.5756,12.65467c-0.59097,9.59314 -3.38254,18.20059 -5.46651,27.18596c-2.56967,9.25617 -9.6888,18.46599 -14.52366,26.84841c-2.67301,4.63432 -3.89049,8.28502 -9.21146,10.43415c-1.85552,0.74943 -10.9341,-6.30665 -12.57928,-7.25556c-11.46941,-6.6154 -24.67877,-14.6777 -34.04474,-24.14134c-9.96263,-10.96314 -27.55222,-14.0778 -38.58685,-24.13198c-8.72973,-8.38366 -28.30188,-10.75257 -31.68688,-24.14396c-0.33512,-1.32582 4.4938,-7.7911 5.30086,-9.19033c7.06782,-12.25378 14.13561,-24.50753 21.20343,-36.7613c2.36303,-4.09689 6.35694,-14.82894 10.61651,-16.43779c7.43335,-2.80762 14.87892,3.14823 21.26713,6.83287z" data-paper-data="{&quot;index&quot;:null}" fill="#000000" fill-rule="nonzero" stroke="none" stroke-width="1" stroke-linecap="butt"/><path d="M198.57669,787.82484c1.29885,0.39462 2.68468,0.69755 4.2336,0.73151c1.97656,0.04334 6.30588,0.82866 5.50438,-1.40105c0.61128,0.91888 1.46408,2.1022 1.99147,2.59246c2.49858,2.32239 6.64201,3.83978 9.61379,5.55386c8.153,4.70254 16.30099,8.98348 23.23335,15.19939c3.13292,2.80917 5.45447,1.06682 4.67558,4.94763c-0.8853,6.75468 0.5545,14.1205 0.1194,21.18357c-0.58969,9.57264 -3.3203,17.63393 -5.35364,26.40077c-0.97552,7.62285 -9.90599,18.24842 -13.84914,25.08483c-1.05551,1.82999 -3.6643,4.67876 -3.75344,6.42251c-0.72298,-0.3263 -1.42101,-0.64397 -1.84164,-0.88659c-2.79541,-1.61236 -5.60043,-3.2193 -8.39582,-4.83164c-11.11974,-6.41372 -23.96446,-14.11658 -33.05181,-23.29874c-10.99523,-10.54574 -27.60522,-14.1317 -38.88994,-24.41379c-6.25499,-5.50028 -14.45756,-9.14641 -21.66595,-13.29079c-3.65676,-2.1024 -5.90816,-5.43535 -9.14302,-3.53141c-0.85025,0.50042 1.01017,-1.75551 1.51503,-2.6308c1.2621,-2.18816 2.52626,-4.38936 3.78835,-6.57752c7.06782,-12.25378 14.17267,-24.58332 21.24048,-36.83709c1.67087,-2.89685 8.36336,-12.88211 7.5767,-14.83042c0.27908,0.13751 0.60057,0.28389 0.77562,0.36701c1.55073,0.73651 2.33178,1.30045 4.01045,1.06314c2.91432,-0.41203 9.01646,4.67891 11.73964,6.24961c10.58261,6.10391 21.25169,12.18812 31.83424,18.29199c0,0 2.4104,1.38431 3.92493,-1.24149c0.06218,-0.10781 0.11807,-0.21333 0.16746,-0.3169z" data-paper-data="{&quot;noHover&quot;:false,&quot;origItem&quot;:[&quot;Path&quot;,{&quot;applyMatrix&quot;:true,&quot;segments&quot;:[[[579.60736,595.76373],[0.95609,-0.20262],[0.00646,0.07548]],[[579.61718,596],[0,-0.08208],[0,2]],[[577.61718,598],[0,0],[-8.83333,0]],[[551.11718,598],[8.83333,0],[-2.27308,0]],[[541.51161,598.28885],[1.67648,-1.19621],[-0.96568,0.68904]],[[538.61718,599],[1.23739,-0.09027],[-0.13966,0.01019]],[[537.99901,599.04541],[0.22447,-0.0134],[1.19653,0.85421]],[[538.61718,610],[0,-2.20646],[0,9.33333]],[[538.61718,638],[0,-9.33333],[0,1.66667]],[[538.61718,643],[0,-1.66667],[0,0.66667]],[[538.61718,645],[-0.35177,0.56631],[1.33831,-2.15456]],[[545.61718,644],[-3.04994,0.00386],[6.01206,-0.00761]],[[563.97058,644.43107],[-5.90478,-1.08158],[10.78253,2.15651]],[[597.04254,645.54479],[-10.6965,-2.40266],[9.00888,2.25222]],[[626.11718,648],[-9.28168,0],[2.33333,0]],[[633.11718,648],[-2.33333,0],[0.35109,0]],[[634.59021,647.90091],[-0.5707,0.05184],[-0.57412,-1.02596]],[[634.61718,643],[0,1.39387],[0,-5.20707]],[[634.21982,624.13246],[2.14282,4.67827],[-1.8936,-5.6808]],[[628.03948,607.31672],[3.08887,5.66543],[-2.2791,-4.1802]],[[620.32688,595.27881],[1.8857,4.15235],[-0.91417,-2.47477]],[[615.61718,594],[2.9771,0.57275],[-6.58756,-1.26734]],[[595.61718,593],[6.8054,0],[-2.48058,0]],[[587.61718,593],[2.40395,0.50364],[-0.50743,-0.10631]],[[585.44122,592.1748],[0.71481,0.32365],[1.30749,1.01011]],[[582.51161,594.78885],[1.25365,-0.62682],[-0.98239,0.4912]]],&quot;closed&quot;:true}],&quot;index&quot;:null}" fill="#403d40" fill-rule="nonzero" stroke="none" stroke-width="1" stroke-linecap="butt"/><path d="M225.11066,629.17345c0,-0.35153 -0.03832,-0.94015 -0.07493,-1.51841c-0.14245,0.23466 -0.355,0.43474 -0.6283,0.60492c-0.81955,0.91348 -2.06283,0.91351 -2.06283,0.91351c-10.5359,0 -16.62126,8.04706 -20.34584,16.51208c-0.43818,0.96038 -0.39945,2.11752 -0.39945,3.19127c0,0.30549 -0.02664,0.79099 -0.05579,1.29321c0.02787,-0.16169 0.09738,-0.29455 0.23897,-0.37981c0.62561,-0.37683 6.06449,1.92924 6.73187,0.60229c0.20057,-0.39881 -0.98378,-0.47392 -0.91846,-0.92362c0.80338,-5.52865 9.32345,-13.89126 13.51171,-16.18621c1.08626,-0.59524 2.3091,-0.89474 3.52473,-1.0319c-0.47529,-0.81118 0.47828,-2.05276 0.47828,-3.07721zM201.52887,650.42086c-0.0627,1.07765 -0.11839,2.10779 0.07036,1.48716c0.12905,-0.42408 -0.05724,-1.01949 -0.07036,-1.48716zM197.05075,642.97428c3.95325,-8.16729 9.21098,-15.61413 17.40449,-18.5452c0.76966,-1.31812 2.35731,-1.31812 2.35731,-1.31812h1.38299c3.13159,0 4.78839,-1.19563 8.15214,-1.19563c4.67143,0 5.75429,10.17962 3.31149,13.16074c-1.54149,1.88115 -4.01408,2.49841 -6.07758,3.62911c-6.10802,3.34687 -8.3744,12.96448 -15.06724,17.74989c-7.09357,5.07186 -14.90306,-5.94236 -11.46364,-13.48077z" data-paper-data="{&quot;index&quot;:null}" fill="#000000" fill-rule="nonzero" stroke="none" stroke-width="1" stroke-linecap="butt"/><path d="M225.13845,627.55341c0.03671,0.57826 0.08141,1.17535 0.08141,1.52684c0,1.02443 -0.94222,2.28474 -0.46694,3.09597c-1.21567,0.13717 -2.44549,0.4243 -3.53182,1.01957c-4.18831,2.29492 -12.74946,10.61508 -13.55282,16.14377c-0.0654,0.44974 0.98761,0.79109 0.787,1.18987c-0.66741,1.32695 -6.15339,-1.01899 -6.77904,-0.64219c-0.14162,0.08534 -0.21051,0.21897 -0.23833,0.38072c0.02914,-0.50224 0.05069,-0.99475 0.05069,-1.30022c0,-1.07368 -0.05078,-2.2519 0.3874,-3.21231c3.72455,-8.46502 10.02959,-16.69009 20.56544,-16.69009c0,0 1.24896,0.00649 2.06849,-0.90701c0.27332,-0.17018 0.48595,-0.37019 0.62837,-0.60486z" data-paper-data="{&quot;noHover&quot;:false,&quot;origItem&quot;:[&quot;Path&quot;,{&quot;applyMatrix&quot;:true,&quot;segments&quot;:[[[607.563,601.99816],[0.02649,0.38155],[-0.10299,0.15484]],[[607.10872,602.39727],[0.1976,-0.11227],[-0.59254,0.60273]],[[605.61718,603],[0,0],[-7.618,0]],[[590.90604,613.89443],[2.69308,-5.58508],[-0.31682,0.63364]],[[590.61718,616],[0,-0.70843],[0,0.20156]],[[590.57685,616.85325],[0.02106,-0.33136],[0.02013,-0.10671]],[[590.74964,616.60263],[-0.10238,0.05628],[0.45234,-0.24865]],[[595.61718,617],[-0.48256,0.87548],[0.14503,-0.26312]],[[594.95308,616.3906],[-0.04725,0.29671],[0.58086,-3.64773]],[[604.72276,605.71115],[-3.02833,1.51416],[0.78545,-0.39273]],[[607.27135,605.03032],[-0.87898,0.0905],[-0.34365,-0.53523]],[[607.61718,603],[0,0.6759],[0,-0.23192]]],&quot;closed&quot;:true}],&quot;index&quot;:null}" fill="#ffffff" fill-rule="nonzero" stroke="none" stroke-width="1" stroke-linecap="butt"/><path d="M-66.53211,630.47545l17.96627,-67.31602l50.19988,-0.60103l-10.56839,67.91707z" data-paper-data="{&quot;index&quot;:null}" fill="#2a2543" fill-rule="nonzero" stroke="#000000" stroke-width="1" stroke-linecap="round"/><path d="M-67.14592,807.26223c-1.73382,-0.95002 -5.86,-2.43101 -4.05173,-3.96201c-0.98862,0.49059 -2.30763,1.08959 -3.0094,1.2507c-3.32471,0.76337 -7.63346,0 -11.06421,0c-9.41202,0 -18.54967,-0.40521 -27.66047,1.51563c-4.11741,0.86809 -5.24928,-1.81263 -6.51364,1.93822c-2.60796,6.29348 -7.51469,11.90948 -10.66667,18.24517c-4.272,8.5868 -5.92864,16.87655 -8.54753,25.48661c-2.96353,7.09055 -0.54953,20.70434 -0.54953,28.59641c0,2.11257 0.83132,5.87302 0.03733,7.42803c0.78931,0.07856 1.55169,0.15023 2.03722,0.15023c3.22707,0 6.45412,0 9.68118,0c12.83676,0 27.75142,-0.30764 40.21087,-3.72117c14.79348,-3.64158 30.82679,1.58049 45.73928,-1.68803c8.16642,-1.63929 17.06836,-0.66487 25.38316,-0.65334c4.21812,0.00586 7.83026,-1.7499 9.68117,1.51566c0.48649,0.85832 0,-2.02086 0,-3.03126c0,-2.52605 0,-5.05215 0,-7.5782c0,-14.14599 0,-28.29197 0,-42.43797c0,-3.34418 -0.7999,-15.30857 0.85493,-16.60322c-0.31046,-0.02032 -0.66177,-0.05337 -0.85493,-0.06883c-1.71137,-0.13683 -2.66751,-0.03348 -4.00308,-1.0778c-2.31863,-1.81301 -10.14105,-0.43783 -13.28474,-0.43783c-12.21669,0 -24.43337,0 -36.65011,0c0,0 -2.76605,0 -2.76605,-3.03126c0,-0.12445 0.00463,-0.24374 0.0136,-0.3581c-1.32231,-0.30712 -2.658,-0.73311 -4.01664,-1.47759zM-23.72666,806.06661c7.37464,0 16.80004,-1.43911 21.8363,4.70689c2.886,3.52189 0.98354,14.81386 0.98354,19.54339c0,14.14599 0,28.29197 0,42.43797c0,1.61531 0.95272,9.62843 0,10.60949c-9.62298,9.90887 -27.7607,2.18192 -39.51148,5.08255c-14.58198,3.19603 -31.37494,-2.8943 -45.48249,1.62472c-12.84152,3.51822 -28.31212,3.90222 -41.55264,3.90222c-1.89923,0 -13.2889,1.57626 -14.52175,0c-3.53545,-4.5202 -2.76605,-8.29085 -2.76605,-13.6408c0,-9.67683 -1.56531,-21.21163 0.83348,-30.51355c2.68421,-8.82467 4.56657,-17.67552 8.84774,-26.28074c1.72697,-3.4712 3.59236,-8.11438 5.8241,-11.24953c1.46037,-2.05147 4.25247,-3.71829 4.60131,-6.38511c2.36641,-7.02037 6.64282,-4.72009 11.703,-5.90003c9.0077,-2.10037 18.329,-1.51566 27.66047,-1.51566c3.4414,0 10.16548,-1.73569 12.5932,-1.19563c4.22614,0.94015 6.67617,4.8898 10.77217,6.06256c3.00558,0.86059 6.17295,0.35114 9.68118,2.2735c0.26633,0.14591 0.53264,0.29188 0.79901,0.43783c9.23299,0 18.46601,0 27.69902,0z" data-paper-data="{&quot;index&quot;:null}" fill="#000000" fill-rule="nonzero" stroke="none" stroke-width="1" stroke-linecap="butt"/><path d="M-63.09082,808.59412c-0.00895,0.11444 -0.01327,0.23377 -0.01327,0.35818c0,3.03126 2.77962,3.03645 2.77962,3.03645c12.21669,0 24.49849,0.06027 36.71528,0.06027c3.14369,0 10.9732,-1.36111 13.29183,0.45188c1.33555,1.04431 2.29387,0.94604 4.00518,1.08283c0.19318,0.01546 0.54478,0.04928 0.85524,0.06962c-1.65486,1.29467 -0.84656,13.28805 -0.84656,16.63222c0,14.14599 -0.00577,28.37612 -0.00577,42.5221c0,2.52605 -0.00474,5.06443 -0.00474,7.59048c0,1.01044 0.48441,3.89414 -0.00207,3.03585c-1.85089,-3.2655 -5.46631,-1.50325 -9.68443,-1.50913c-8.31482,-0.01152 -17.24193,-0.95139 -25.40837,0.68792c-14.9125,3.26849 -31.09237,-1.92415 -45.88585,1.7174c-12.4595,3.41357 -27.43467,3.66842 -40.27153,3.66842c-3.22707,0 -6.45973,-0.00949 -9.68682,-0.00949c-0.48558,0 -1.24901,-0.07359 -2.03827,-0.15215c0.794,-1.55502 -0.04246,-5.32616 -0.04246,-7.43876c0,-7.89209 -2.42702,-21.55832 0.53659,-28.6489c2.6189,-8.61007 4.28124,-16.95735 8.5532,-25.54414c3.15205,-6.33568 8.0795,-11.9969 10.68746,-18.29033c1.26435,-3.75087 2.40481,-1.08163 6.52221,-1.94971c9.11075,-1.92084 18.30774,-1.55812 27.71971,-1.55812c3.43068,0 7.778,0.75579 11.10272,-0.00757c0.70176,-0.16117 2.03172,-0.76012 3.02036,-1.25068c-1.80832,1.53098 2.33427,3.01379 4.06809,3.96381c1.35871,0.74446 2.71052,1.17446 4.03279,1.48159z" data-paper-data="{&quot;noHover&quot;:false,&quot;origItem&quot;:[&quot;Path&quot;,{&quot;applyMatrix&quot;:true,&quot;segments&quot;:[[[579.60736,595.76373],[0.95609,-0.20262],[0.00646,0.07548]],[[579.61718,596],[0,-0.08208],[0,2]],[[577.61718,598],[0,0],[-8.83333,0]],[[551.11718,598],[8.83333,0],[-2.27308,0]],[[541.51161,598.28885],[1.67648,-1.19621],[-0.96568,0.68904]],[[538.61718,599],[1.23739,-0.09027],[-0.13966,0.01019]],[[537.99901,599.04541],[0.22447,-0.0134],[1.19653,0.85421]],[[538.61718,610],[0,-2.20646],[0,9.33333]],[[538.61718,638],[0,-9.33333],[0,1.66667]],[[538.61718,643],[0,-1.66667],[0,0.66667]],[[538.61718,645],[-0.35177,0.56631],[1.33831,-2.15456]],[[545.61718,644],[-3.04994,0.00386],[6.01206,-0.00761]],[[563.97058,644.43107],[-5.90478,-1.08158],[10.78253,2.15651]],[[597.04254,645.54479],[-10.6965,-2.40266],[9.00888,2.25222]],[[626.11718,648],[-9.28168,0],[2.33333,0]],[[633.11718,648],[-2.33333,0],[0.35109,0]],[[634.59021,647.90091],[-0.5707,0.05184],[-0.57412,-1.02596]],[[634.61718,643],[0,1.39387],[0,-5.20707]],[[634.21982,624.13246],[2.14282,4.67827],[-1.8936,-5.6808]],[[628.03948,607.31672],[3.08887,5.66543],[-2.2791,-4.1802]],[[620.32688,595.27881],[1.8857,4.15235],[-0.91417,-2.47477]],[[615.61718,594],[2.9771,0.57275],[-6.58756,-1.26734]],[[595.61718,593],[6.8054,0],[-2.48058,0]],[[587.61718,593],[2.40395,0.50364],[-0.50743,-0.10631]],[[585.44122,592.1748],[0.71481,0.32365],[1.30749,1.01011]],[[582.51161,594.78885],[1.25365,-0.62682],[-0.98239,0.4912]]],&quot;closed&quot;:true}],&quot;index&quot;:null}" fill="#403d40" fill-rule="nonzero" stroke="none" stroke-width="1" stroke-linecap="butt"/><path d="M-101.86746,819.70743c0,1.02443 0.95356,2.26606 0.47828,3.07721c1.21564,0.13717 2.43846,0.43663 3.52477,1.0319c4.18826,2.29496 12.70833,10.65754 13.51169,16.18621c0.06533,0.4497 -1.11903,0.52486 -0.91846,0.92366c0.66741,1.32695 6.10629,-0.97912 6.73187,-0.60229c0.14159,0.08531 0.21114,0.21817 0.23899,0.37981c-0.02914,-0.50223 -0.0558,-0.98775 -0.0558,-1.29323c0,-1.07374 0.0387,-2.23088 -0.39945,-3.19127c-3.72458,-8.46497 -9.80995,-16.51208 -20.34586,-16.51208c0,0 -1.24331,-0.00001 -2.06283,-0.91351c-0.27332,-0.17018 -0.48584,-0.37025 -0.6283,-0.6049c-0.03661,0.57826 -0.07493,1.16689 -0.07493,1.51841zM-78.35607,842.44198c0.1888,0.62063 0.1331,-0.40951 0.07036,-1.48716c-0.01313,0.46769 -0.19941,1.06307 -0.07036,1.48716zM-73.80752,833.50815c3.43941,7.53841 -4.3701,18.55266 -11.46367,13.48077c-6.69285,-4.7854 -8.95923,-14.40301 -15.06724,-17.74987c-2.06349,-1.1307 -4.53607,-1.74795 -6.07758,-3.62911c-2.44279,-2.98112 -1.35995,-13.16076 3.31149,-13.16076c3.36377,0 5.02056,1.19563 8.15214,1.19563h1.38299c0,0 1.58762,0 2.35731,1.31812c8.19353,2.93106 13.45126,10.3779 17.40449,18.5452z" data-paper-data="{&quot;index&quot;:null}" fill="#000000" fill-rule="nonzero" stroke="none" stroke-width="1" stroke-linecap="butt"/><path d="M-101.89523,818.08733c0.14238,0.23466 0.35506,0.43469 0.62837,0.60487c0.81955,0.91348 2.06849,0.90701 2.06849,0.90701c10.5359,0 16.84094,8.22508 20.56544,16.69007c0.4382,0.96038 0.3874,2.13863 0.3874,3.21232c0,0.30549 0.02156,0.79797 0.05069,1.30021c-0.0278,-0.16174 -0.09669,-0.29539 -0.23833,-0.38071c-0.62561,-0.37683 -6.11164,1.9691 -6.77904,0.64219c-0.20059,-0.39881 0.85242,-0.74014 0.787,-1.18987c-0.80333,-5.52865 -9.36452,-13.84882 -13.55282,-16.14378c-1.08631,-0.59524 -2.31614,-0.88238 -3.53182,-1.01955c0.47529,-0.81123 -0.46694,-2.07155 -0.46694,-3.09597c0,-0.35151 0.04469,-0.94855 0.08141,-1.52684z" data-paper-data="{&quot;noHover&quot;:false,&quot;origItem&quot;:[&quot;Path&quot;,{&quot;applyMatrix&quot;:true,&quot;segments&quot;:[[[607.563,601.99816],[0.02649,0.38155],[-0.10299,0.15484]],[[607.10872,602.39727],[0.1976,-0.11227],[-0.59254,0.60273]],[[605.61718,603],[0,0],[-7.618,0]],[[590.90604,613.89443],[2.69308,-5.58508],[-0.31682,0.63364]],[[590.61718,616],[0,-0.70843],[0,0.20156]],[[590.57685,616.85325],[0.02106,-0.33136],[0.02013,-0.10671]],[[590.74964,616.60263],[-0.10238,0.05628],[0.45234,-0.24865]],[[595.61718,617],[-0.48256,0.87548],[0.14503,-0.26312]],[[594.95308,616.3906],[-0.04725,0.29671],[0.58086,-3.64773]],[[604.72276,605.71115],[-3.02833,1.51416],[0.78545,-0.39273]],[[607.27135,605.03032],[-0.87898,0.0905],[-0.34365,-0.53523]],[[607.61718,603],[0,0.6759],[0,-0.23192]]],&quot;closed&quot;:true}],&quot;index&quot;:null}" fill="#ffffff" fill-rule="nonzero" stroke="none" stroke-width="1" stroke-linecap="butt"/><path d="M-21.94543,246.11006l17.15346,-29.60002l212.62661,118.6595l112.48207,206.66673l-74.18772,220.56675l-122.80601,1.41468l75.82271,-210.24146l-98.77694,-104.01246l-19.75021,-0.65423l-13.38994,9.87244l-9.56025,20.16071l-30.74144,287.70432l-129.40849,4.24405z" data-paper-data="{&quot;index&quot;:null}" fill="#059764" fill-rule="nonzero" stroke="#080000" stroke-width="1" stroke-linecap="round"/><path d="M-53.12816,429.59393l52.81978,7.50976l-7.92298,46.5607l-36.97384,51.06661l-25.08936,3.00392" data-paper-data="{&quot;index&quot;:null}" fill="none" fill-rule="nonzero" stroke="#000000" stroke-width="1" stroke-linecap="round"/><path d="M232.09866,533.22909l-25.08936,-3.00392l-36.97385,-51.06661l-7.92298,-46.5607l52.81978,-7.50976" data-paper-data="{&quot;index&quot;:null}" fill="none" fill-rule="nonzero" stroke="#000000" stroke-width="1" stroke-linecap="round"/><path d="" fill="#000000" fill-rule="nonzero" stroke="none" stroke-width="0.5" stroke-linecap="butt"/><path d="M95.61561,309.15986c-0.48767,0.96007 -0.97535,1.92014 -1.46302,2.88021c-1.92014,-0.97535 -3.84027,-1.95069 -5.76043,-2.92605c-37.21695,-19.99163 -74.43926,-39.97268 -111.66774,-59.94319c3.6304,-7.14708 7.26098,-14.29447 10.89139,-21.44156c38.75548,21.17612 77.63067,42.13083 116.62556,62.86414c-2.82504,6.21149 -5.69924,12.40086 -8.62577,18.56644z" fill="#059764" fill-rule="evenodd" stroke="none" stroke-width="1" stroke-linecap="butt"/><path d="M106.68483,284.99046c-0.46427,1.69864 -1.17145,3.35241 -2.11835,4.96292c-1.39562,-0.58131 -2.62143,-1.33842 -3.67772,-2.27073c1.17448,0.59659 2.34577,1.19155 3.52025,1.78814c0.75865,-1.49355 1.51715,-2.98678 2.27582,-4.48033z" fill="#868686" fill-rule="evenodd" stroke="none" stroke-width="1" stroke-linecap="butt"/><path d="M190.30726,337.53196c4.66244,2.94765 9.46014,5.6528 14.39595,8.11771c-4.00982,7.89402 -8.01947,15.78771 -12.02929,23.68172c-5.4404,-2.76349 -10.8808,-5.52698 -16.3212,-8.29046c3.47452,-7.49802 6.89332,-15.02112 10.25643,-22.56928c0.37925,-0.74662 0.75865,-1.49355 1.1379,-2.24015c0.85445,0.43402 1.70571,0.86643 2.56019,1.30047z" fill="#059764" fill-rule="evenodd" stroke="none" stroke-width="1" stroke-linecap="butt"/><path d="M190.30726,337.53196c-0.85445,-0.43402 -1.70571,-0.86643 -2.56019,-1.30047c-0.37925,0.74662 -0.75865,1.49355 -1.1379,2.24015c0.08753,-0.94109 0.41225,-1.84986 0.98043,-2.72275c1.07767,0.42261 1.98361,1.01685 2.71765,1.78305z" fill="#6d6d6d" fill-rule="evenodd" stroke="none" stroke-width="1" stroke-linecap="butt"/><path d="M95.61561,309.15986c-0.19437,1.15938 -0.63056,2.27966 -1.30555,3.36279c-2.13906,-0.95651 -4.11387,-2.09369 -5.91789,-3.40863c1.92014,0.97535 3.84027,1.95069 5.76043,2.92605c0.48767,-0.96007 0.97535,-1.92014 1.46302,-2.88021z" fill="#7f7f7f" fill-rule="evenodd" stroke="none" stroke-width="1" stroke-linecap="butt"/><path d="M162.99288,49.5775l20.09957,59.79226l2.23563,7.65442l128.76171,40.31783l-2.24082,5.57811l-20.94713,24.12679l-24.99249,28.59074l-17.53362,19.93451l-14.95417,35.46764l-4.00058,9.82027l-8.79752,21.0139l-0.00624,0.98453l-0.15953,0.31405l-0.55334,0.31156l-13.19941,32.01309l2.74793,1.39584l0.07726,0.23678l-3.1207,7.6992l-0.16202,0.70785l-0.51595,0.62685l-7.80175,19.24799l-0.39381,-0.0025l-21.02879,-12.65712l-5.51604,12.80374l-28.79274,-17.98366l-0.03239,-1.10292l-60.33467,-37.16624l-1.30108,0.22804l-1.2562,-0.63809l-19.45603,-12.25331l5.10975,-10.83719l-80.86,-48.48114l-1.05679,-1.03066l-0.15452,-0.47357l23.05601,-39.94524l0.36393,-1.49422l0.15952,-0.31405l0.47107,0.23928l3.1082,-5.73013l0.15953,-0.31405l5.97213,-10.20159l8.36248,-14.51851l19.7534,-34.61015l19.91168,-34.72729l-12.76241,-18.23638l-0.46107,-1.81453l2.98231,-4.51008l16.83556,-9.22685l32.48466,-17.67359l48.37059,-26.19759l0.31405,0.15953l11.05483,32.87589z" fill="#5cc2ff" fill-rule="evenodd" stroke="none" stroke-width="1" stroke-linecap="butt" opacity="0.978"/><path d="M151.62025,17.1328l31.07838,92.23444l0.29655,2.91619l-2.47512,5.26157l-0.29906,-2.52239l-30.67208,-94.201l-0.7091,0.03488l-97.21976,53.33733l1.99154,-3.5318l0.71287,-0.6256l97.29576,-52.90363z" fill="#5cc2ff" fill-rule="evenodd" stroke="none" stroke-width="1" stroke-linecap="butt" opacity="0.999"/><path d="M149.38942,21.13568l28.98935,90.75815l-1.06329,1.17352l-1.57932,-1.53602l-22.56095,-72.57067l-0.27417,-0.23804l-1.57899,0.58072l-80.14366,43.44248l-1.27119,1.72477l-5.49356,9.25945l-13.07395,-18.78972l98.04976,-53.80466z" fill="#5cc2ff" fill-rule="evenodd" stroke="none" stroke-width="1" stroke-linecap="butt"/><path d="M152.89853,39.11644l23.36442,73.92106l-14.10912,35.54802l-55.40939,26.69891l-3.59052,7.263l0.27168,0.63185l8.95779,9.58744l-5.90237,11.61982l-82.9339,-38.17606l47.46923,-82.75679l81.88219,-44.33726z" fill="#7af4ff" fill-rule="evenodd" stroke="none" stroke-width="1" stroke-linecap="butt"/><path d="M163.62347,49.50273l-0.23803,0.27417l-0.39255,-0.1994l-11.05482,-32.87589l-0.31405,-0.15953l-48.37059,26.1976l-0.27416,-0.23804l0.35643,-0.3128l0.55583,-0.70537l4.11013,-2.25812l0.6306,-0.07477l2.37286,-1.56025l1.10418,-0.22929l1.74101,-1.28857l1.26244,-0.34643l1.58274,-1.17144l0.55084,0.08225l2.13732,-1.67989l3.24025,-1.71229l2.6084,-1.4406l3.47704,-1.78953l0.55083,0.08225l3.32,-1.86929l1.50423,-1.21133l0.62935,0.12214l2.3741,-1.75716l0.9459,-0.11214l0.71409,-0.82251l2.52739,-1.08669l0.47606,-0.54834l4.81923,-2.293l2.52864,-1.28358l1.34595,-1.09418l2.47627,0.76398l0.80626,3.27388l0.77139,2.56477l1.36084,2.76542l2.04371,6.86556l0.50846,0.55458l1.27359,4.10389l-0.16202,0.70785l0.85239,2.21084l0.69536,2.13107l2.55218,7.42013z" fill="#549bff" fill-rule="evenodd" stroke="none" stroke-width="1" stroke-linecap="butt" opacity="0.254"/><path d="M170.89366,70.57921l-0.15453,-0.47357z" fill="#00fffe" fill-rule="evenodd" stroke="none" stroke-width="1" stroke-linecap="butt" opacity="0.004"/><path d="M171.43452,72.2367l0.07475,0.6306z" fill="#00fffe" fill-rule="evenodd" stroke="none" stroke-width="1" stroke-linecap="butt" opacity="0.004"/><path d="M103.33567,42.18884l-0.35644,0.3128l0.27416,0.23804l-32.48467,17.67359l0.11964,-0.23554l-0.19441,-0.39505l2.13608,-1.48299l1.18144,0.0075l2.0588,-1.71977l0.94465,0.08476l1.50548,-1.40823l3.47704,-1.78953l0.78761,0.005l0.47732,-0.74524l1.18519,-0.58322l0.55333,-0.31155l1.26495,-0.74024l4.2684,-2.37526l0.78762,0.00499l2.45262,-1.71726l0.55083,0.08225l3.00471,-1.83191l2.68691,-1.40072l1.89929,-1.40572l1.41947,-0.26668z" fill="#5cc2ff" fill-rule="evenodd" stroke="none" stroke-width="1" stroke-linecap="butt" opacity="0.371"/><path d="M85.00089,51.8394l-0.55333,0.31156z" fill="#32e2ff" fill-rule="evenodd" stroke="none" stroke-width="1" stroke-linecap="butt" opacity="0.016"/><path d="M174.18578,97.93165l5.64143,17.08849l1.11396,10.64039l-5.09685,-16.0217l-1.65855,-11.70716z" fill="#5cc2ff" fill-rule="evenodd" stroke="none" stroke-width="1" stroke-linecap="butt"/><path d="M172.3823,101.37718l3.06824,8.25915l6.29942,18.90426l0.28041,-0.74648l0.58198,1.38207l2.93599,8.99788l-40.40951,19.08048l26.59964,-55.88144z" fill="#7af4ff" fill-rule="evenodd" stroke="none" stroke-width="1" stroke-linecap="butt"/><path d="M278.15577,160.02831l0.6281,0.31905l-42.95446,103.61886l-17.90579,-8.30521l5.03374,-11.27089l1.62502,4.5787l10.207,-19.70533l-36.14055,-95.10211l79.50697,25.86693z" fill="#7af4ff" fill-rule="evenodd" stroke="none" stroke-width="1" stroke-linecap="butt"/><path d="M183.14847,112.95393l8.0877,22.5782l-3.1206,1.47674l-6.9649,-19.5386z" fill="#5cc2ff" fill-rule="evenodd" stroke="none" stroke-width="1" stroke-linecap="butt" opacity="0.999"/><path d="M163.62347,49.50273l1.47049,4.10514l0.54834,0.47607l0.4212,1.89303l1.12031,3.4334l-0.16077,0.51094l0.58572,0.79137l2.04371,6.86556l0.39131,0.39631l0.54334,1.26369l-0.31905,0.6281l0.47108,0.23928l0.15452,0.47357l0.54084,1.6575l0.07476,0.63059l0.65549,2.20958l1.24371,2.60714l2.85372,9.54872l1.20381,2.68566l1.38699,4.85287l0.69412,2.32798l0.69536,2.13107l0.92965,2.44762l0.69536,2.13108l0.46608,1.02691l0.22928,1.10417l1.4555,6.46799l0.77262,2.36787l0.58322,1.18519l0.98078,0.59697l8.76223,3.16683l0.47358,-0.15453l8.09552,2.72939l2.20333,0.32904l7.15086,2.64462l2.59715,0.33154l6.48288,2.40409l2.40025,0.3303l7.66181,2.8054l1.41572,0.32404l0.27667,-0.15577l8.60396,3.28398l0.31905,-0.6281l8.72111,3.44225l0.31904,-0.62809l2.23822,1.03814l2.12358,0.48606l4.67585,1.68374l0.27667,-0.15577l2.27811,0.95963l2.12357,0.48607l4.5961,1.84076l0.23928,-0.47108l2.39525,1.11792l6.48538,2.01028l0.27667,-0.15578l8.68372,3.12694l0.23928,-0.47106l2.23822,1.03815l4.91264,1.60647l2.87131,0.56958l6.16885,2.24457l1.88679,0.56333l0.82751,-0.07352l3.06573,0.96463l3.88572,2.07255l0.23304,0.51345l-3.35249,6.98884l-0.55209,0.11465l-4.60494,5.76003l-0.55209,0.11465l-4.52516,5.603l-0.55209,0.11465l-3.89208,5.13443l-0.3153,0.03738l-0.63309,0.46857l-3.335,4.23216l-1.0294,0.85989l-0.31405,-0.15953l20.94713,-24.12678l2.24083,-5.57812l-128.76171,-40.31783l-2.23563,-7.65442l-20.09957,-59.79225l0.39255,0.1994l0.23803,-0.27417z" fill="#5cc2ff" fill-rule="evenodd" stroke="none" stroke-width="1" stroke-linecap="butt" opacity="0.324"/><path d="M232.18258,131.14479l1.41572,0.32404z" fill="#00fffe" fill-rule="evenodd" stroke="none" stroke-width="1" stroke-linecap="butt" opacity="0.004"/><path d="M182.33356,104.83593l0.22929,1.10417z" fill="#33e1ff" fill-rule="evenodd" stroke="none" stroke-width="1" stroke-linecap="butt" opacity="0.016"/><path d="M181.45349,119.40193l6.18976,17.56455l-1.38458,0.97578l-0.31405,-0.15953l-3.67498,-10.45971z" fill="#5cc2ff" fill-rule="evenodd" stroke="none" stroke-width="1" stroke-linecap="butt"/><path d="M296.21337,181.64582l-0.63309,0.46857z" fill="#00fffe" fill-rule="evenodd" stroke="none" stroke-width="1" stroke-linecap="butt" opacity="0.004"/><path d="M195.30891,132.95871l0.58821,0.39755l-4.30577,2.05996l-1.43186,-3.98674z" fill="#7af4ff" fill-rule="evenodd" stroke="none" stroke-width="1" stroke-linecap="butt"/><path d="M195.14169,146.8991l31.50467,87.1174l-1.92052,4.75312l-110.67246,-48.51278l3.34874,-6.39812l77.73957,-36.9596z" fill="#059764" fill-rule="evenodd" stroke="none" stroke-width="1" stroke-linecap="butt"/><path d="M290.90183,187.04692l0.31405,0.15953l-3.96935,4.89764l-1.9803,1.75966l-4.20863,5.36872l-0.62934,-0.12214l-1.51172,2.39275l-2.06381,2.50739l-3.25274,3.68134l-2.45887,2.7018l-0.63309,0.46857l-3.89083,4.93752l-0.70786,-0.16203z" fill="#68afff" fill-rule="evenodd" stroke="none" stroke-width="1" stroke-linecap="butt" opacity="0.167"/><path d="M271.14112,210.39358l-0.63309,0.46857z" fill="#00fffe" fill-rule="evenodd" stroke="none" stroke-width="1" stroke-linecap="butt" opacity="0.004"/><path d="M265.90934,215.63766l-1.59148,2.54979l-2.06382,2.50739l-2.29809,2.19085l-3.89084,4.93752l-0.47357,0.15452l-1.82702,2.43014l-4.28215,4.54122l-5.74658,11.89648l0.47106,0.23928l-7.51633,17.71389l-2.63464,5.57561l-0.32529,1.61262l0.12213,-0.62935l-0.43119,-0.31779l14.95417,-35.46764l17.53362,-19.93451z" fill="#67b5fb" fill-rule="evenodd" stroke="none" stroke-width="1" stroke-linecap="butt" opacity="0.11"/><path d="M182.32904,229.67889l-8.01565,-9.10888l-0.7415,-1.06803l-0.23677,0.07727l-25.42182,-9.25871l-9.73562,1.27724l-28.51118,-12.7046l4.1476,-8.16527l110.75223,48.35577l-4.1576,9.74051l-35.81408,-16.21661l-1.21632,-0.71661l-1.04929,-2.21208z" fill="#059764" fill-rule="evenodd" stroke="none" stroke-width="1" stroke-linecap="butt"/><path d="M224.31954,240.73619l1.7808,4.85537l-1.51298,2.58966l-1.46799,-4.49893l1.20017,-2.94607z" fill="#5cc2ff" fill-rule="evenodd" stroke="none" stroke-width="1" stroke-linecap="butt"/><path d="M182.32904,229.67889l-8.01565,-9.10888l-0.74149,-1.06803l-0.23678,0.07726l-25.42182,-9.25871l-9.73562,1.27724l0.8225,0.7141l2.76167,-0.77012l19.52101,2.01424l6.24485,2.67825l5.01979,3.34l1.09792,0.75525l4.97239,4.59995l3.71122,4.74946z" fill="#b22e10" fill-rule="evenodd" stroke="none" stroke-width="1" stroke-linecap="butt"/><path d="M165.32562,215.7083l2.94358,1.59398l-20.60269,-5.32924l-5.59561,0.51586l-1.65749,0.54084l-1.02191,-0.32155l2.52489,-0.69286l18.65613,1.77245z" fill="#4c4533" fill-rule="evenodd" stroke="none" stroke-width="1" stroke-linecap="butt"/><path d="M218.3649,248.18109l1.8843,0.95714l-49.48992,115.70724l-28.32418,-17.35056l42.58418,-94.91764l-1.09512,-19.81642l34.44074,15.42023z" fill="#059764" fill-rule="evenodd" stroke="none" stroke-width="1" stroke-linecap="butt"/><path d="M44.26266,128.92842l-19.7534,34.61015l-0.07352,-0.82751l-0.7141,0.8225l5.41754,-9.69313l0.55333,-0.31155l3.34499,-5.80741l2.39285,-4.71073l0.04363,-0.66922l1.70737,-2.19459l2.94744,-5.21919l2.94243,-4.43156l1.91053,-3.17786l-0.7191,1.61013z" fill="#68b5f9" fill-rule="evenodd" stroke="none" stroke-width="1" stroke-linecap="butt" opacity="0.165"/><path d="M137.46732,211.82957l-10.99067,6.6647l-2.78165,3.92061l-42.84577,86.4881l-0.55209,0.11465l-20.31967,-12.692l49.5295,-97.11839l27.96034,12.62235z" fill="#059764" fill-rule="evenodd" stroke="none" stroke-width="1" stroke-linecap="butt"/><path d="M234.25665,263.56241l1.33221,1.07178l-29.27648,70.66362l-18.20984,-10.03998l29.50203,-68.96872l0.27666,-0.15577z" fill="#7af4ff" fill-rule="evenodd" stroke="none" stroke-width="1" stroke-linecap="butt"/><path d="M102.63016,203.02309l3.61156,1.83452l-29.66884,58.01929l-81.54797,-45.5712l-10.99211,19.30652l-0.78512,-0.39881l39.90312,-69.61161l79.47937,36.4213z" fill="#7af4ff" fill-rule="evenodd" stroke="none" stroke-width="1" stroke-linecap="butt"/><path d="M137.46732,211.82957l0.82251,0.7141l-2.88007,0.80876l-5.29656,3.03825l-3.24773,2.8937l-2.7019,3.76359l-39.29638,79.5005l-3.30885,6.31961l-0.70911,0.03489l42.84577,-86.4881l2.78165,-3.92061l10.99067,-6.6647z" fill="#c23112" fill-rule="evenodd" stroke="none" stroke-width="1" stroke-linecap="butt"/><path d="M24.50926,163.53857l-8.36248,14.51851l-0.47107,-0.23928l8.04593,-14.28423l0.7141,-0.8225z" fill="#8ec5ee" fill-rule="evenodd" stroke="none" stroke-width="1" stroke-linecap="butt" opacity="0.398"/><path d="M233.42156,271.03982l0.43119,0.31779l-0.12213,0.62935l-3.67904,8.79837l-0.6306,0.07476z" fill="#8cc1ed" fill-rule="evenodd" stroke="none" stroke-width="1" stroke-linecap="butt" opacity="0.295"/><path d="M15.67571,177.81779l0.47107,0.23928l-5.97213,10.20158z" fill="#a4c7e2" fill-rule="evenodd" stroke="none" stroke-width="1" stroke-linecap="butt" opacity="0.341"/><path d="M10.01512,188.57272l-3.1082,5.73014l-0.47107,-0.23928l2.87017,-5.45597z" fill="#b8cbe2" fill-rule="evenodd" stroke="none" stroke-width="1" stroke-linecap="butt" opacity="0.149"/><path d="M230.05158,280.78532l-5.27551,12.13576l0.15453,0.47357l-4.31337,9.46385l0.00625,-0.98453l8.79752,-21.0139z" fill="#a9c5de" fill-rule="evenodd" stroke="none" stroke-width="1" stroke-linecap="butt" opacity="0.349"/><path d="M-6.02379,217.16807l82.43698,46.02278l-11.40611,22.25686l-82.28035,-49.3014l10.17193,-17.64896z" fill="#059764" fill-rule="evenodd" stroke="none" stroke-width="1" stroke-linecap="butt"/><path d="M220.45769,303.17254l0.07601,0.43369l-5.35403,12.09589l-1.92677,5.73764l-3.99559,9.03266l-1.28118,3.30001l-0.32529,1.61262l0.42869,0.7116l1.37334,0.79637l-2.74793,-1.39584l13.19941,-32.0131l0.55334,-0.31155z" fill="#2f746e" fill-rule="evenodd" stroke="none" stroke-width="1" stroke-linecap="butt" opacity="0.285"/><path d="M188.10005,325.65163l20.79824,11.74985l-11.28013,27.45689l-21.02879,-12.65712z" fill="#059764" fill-rule="evenodd" stroke="none" stroke-width="1" stroke-linecap="butt" opacity="0.999"/><path d="M209.53013,337.12982l0.23304,0.51346l-3.35374,7.18574z" fill="#2f7771" fill-rule="evenodd" stroke="none" stroke-width="1" stroke-linecap="butt" opacity="0.236"/><path d="M6.27633,194.37762l-0.36393,1.49423l-23.05602,39.94524l0.15452,0.47358l1.05679,1.03066l80.86001,48.48115l-5.10975,10.83719l19.45604,12.25331l-13.3022,-7.64587l-3.57167,-1.91303l0.16203,-0.70786l-1.17893,-0.4013l-1.76464,-1.19269l-0.50471,-1.1453l2.63214,-5.18181l1.27245,-1.92167l0.87863,-1.92418l-0.11089,-1.14279l-8.08301,-4.69845l-0.03738,-0.3153l-12.12576,-6.85076l-7.37515,-4.53641l-0.15453,-0.47358l-21.73915,-12.42533l-0.07475,-0.6306l-10.04707,-5.49855l-8.12039,-5.01375l0.0025,-0.39381l-12.28279,-6.93051l-1.56774,-1.19143l-0.03613,-0.51221l1.43696,-3.02334l4.13887,-6.78693l3.98558,-7.45742l0.55208,-0.11465l0.99453,-1.56899l5.77898,-10.79357l7.24456,-12.12327z" fill="#2f756f" fill-rule="evenodd" stroke="none" stroke-width="1" stroke-linecap="butt" opacity="0.544"/><path d="M206.2474,345.53686l0.23304,0.51346l-2.0763,4.47643l-2.96367,7.77896l-3.51076,7.10598l7.80175,-19.24799l0.51594,-0.62685z" fill="#2f736e" fill-rule="evenodd" stroke="none" stroke-width="1" stroke-linecap="butt" opacity="0.25"/><path d="M101.05775,320.63429l42.7143,-87.7091l40.41588,16.33092l-43.66962,95.62108z" fill="#662d00" fill-rule="nonzero" stroke="#000000" stroke-width="1" stroke-linecap="round"/><path d="M76.64658,263.34163l-70.70225,-40.11231l26.68446,-44.90303l70.62085,32.64267z" fill="#000000" fill-rule="nonzero" stroke="#000000" stroke-width="1" stroke-linecap="round"/><path d="M262.48371,165.32945l-17.37684,39.29587l-23.63132,-10.06587l-6.9722,-17.42929l11.44732,-23.17183l33.67234,10.64469z" fill="#000000" fill-rule="nonzero" stroke="#000000" stroke-width="1" stroke-linecap="round"/><path d="M80.63173,58.11465c0.86379,-1.32247 2.28701,-0.43599 2.28701,-0.43599l2.35503,1.5587c0.68204,1.48538 0.81578,2.27257 1.97257,3.35858c1.84345,1.73065 4.79563,2.52986 6.40628,4.52246c0.40329,0.49892 0.39138,1.20843 0.74381,1.74031c0.22565,0.34055 2.17977,2.19282 2.5262,2.52626c2.3532,1.72135 5.96816,4.60659 7.58445,6.9969c0.63865,0.94449 0.60142,2.32328 1.5135,3.03629c0.54067,0.42265 1.34931,0.46649 1.84135,0.94082c0.52178,0.50301 0.60341,1.30242 1.06213,1.85825c0.44581,0.54019 1.16686,0.83514 1.60885,1.3781c3.29672,4.05003 4.29847,8.97773 9.35837,11.51284c0,0 1.48757,0.77819 0.74,2.16712c-0.74756,1.38895 -2.23514,0.61076 -2.23514,0.61076c-1.8671,-1.00624 -4.3721,-2.88022 -5.73995,-4.44317c-0.4358,-0.49795 -0.43176,-1.22931 -0.77354,-1.78838c-1.15754,-1.89334 -2.52417,-4.46127 -3.949,-6.18293c-0.44659,-0.53963 -1.16656,-0.83535 -1.60885,-1.37811c-0.36654,-0.44981 -0.34399,-1.13444 -0.76683,-1.53712c-0.45249,-0.43093 -1.23662,-0.4016 -1.7049,-0.81676c-1.09754,-0.97306 -1.36626,-2.53614 -2.14446,-3.75446c-0.77181,-1.20831 -1.5591,-1.3981 -2.61728,-2.29039c-1.52954,-1.28975 -2.66424,-2.77118 -4.29645,-3.95459c-0.81953,-0.783 -2.63791,-2.45943 -3.21482,-3.30577c-0.3004,-0.44067 -0.23427,-1.04753 -0.55508,-1.47531c-0.81985,-1.0932 -3.32948,-2.19716 -4.41188,-2.92833c-1.99613,-1.34843 -3.03086,-2.67524 -3.865,-4.8292l-1.557,-0.87795c0,0 -1.42321,-0.88646 -0.55941,-2.20892z" data-paper-data="{&quot;index&quot;:null}" fill="#000000" fill-rule="nonzero" stroke="none" stroke-width="0.5" stroke-linecap="butt"/><path d="M81.95796,115.75268c-0.35891,1.68965 -0.09073,3.41004 -0.04388,5.49954c0.10987,4.90145 1.45568,9.67532 2.48506,14.50873c0.56494,2.65266 1.00689,5.90173 2.31962,8.25863c2.48371,5.15396 5.90159,7.78378 10.80464,11.23292c2.25163,1.58396 4.69559,3.36219 7.3499,4.14927c2.82583,0.83795 5.99571,0.52115 8.71306,1.57393c2.30544,-0.03079 5.47089,0.67701 7.60658,-0.15917c7.2905,-2.85439 13.44608,-7.50043 18.24107,-13.78893c-0.49812,0.15706 -0.95587,0.26736 -1.00044,0.28595c-2.69613,1.12383 -4.77098,2.49911 -7.92809,2.48519c-4.63742,-0.02045 -9.74333,-1.05333 -14.05458,-2.79712c-2.53862,-1.0268 -4.70176,-2.70385 -7.3336,-3.61254c-5.46603,-3.80561 -10.54841,-7.35656 -14.53998,-12.56308c-0.67559,-0.88122 -1.89288,-1.28712 -2.54796,-2.1823c-1.58105,-2.16055 -2.69218,-4.7159 -4.04492,-7.08996c-1.65907,-2.91163 -3.47202,-5.42192 -4.14548,-8.79375c-0.33187,0.71643 -1.07117,1.9999 -1.21312,2.19783l-0.36324,0.50651c0,0 -0.1089,0.15186 -0.30469,0.28836zM82.23621,111.13485c0.58034,-0.75187 1.18738,-1.37373 1.64332,-1.37454c0.88948,-0.00157 1.39182,1.155 2.08773,1.73251c0.7762,3.48099 2.39322,5.91919 4.09632,8.91909c1.325,2.33387 2.42969,4.73147 3.90173,6.88267c0.61627,0.90062 1.8388,1.28353 2.51712,2.14286c3.85746,4.88686 8.51786,8.18592 13.67915,11.86039c2.56836,0.88679 4.6781,2.53592 7.14731,3.52617c4.02056,1.61239 8.78229,2.59693 13.11136,2.59655c3.57447,-0.00031 6.09254,-3.17617 9.44076,-3.14018c1.09628,0.01178 2.5288,0.02802 3.20553,0.90266c0.50403,0.65143 -0.53522,1.46846 -0.80281,2.20267c-5.03328,7.0185 -11.89401,12.59618 -19.97055,15.61277c-2.68108,1.00139 -6.20916,0.34452 -9.06191,0.3077c-2.67665,-1.12535 -6.03186,-0.75397 -8.85932,-1.6071c-4.33452,-1.30786 -8.08034,-4.45544 -11.73912,-7.02927c-1.71672,-1.20765 -4.34922,-2.87567 -5.40273,-4.67144c-0.31798,-0.54203 -0.074,-1.26072 -0.37978,-1.80884c-0.63675,-1.14142 -1.71186,-2.03897 -2.30795,-3.19925c-1.38186,-2.65866 -1.91929,-5.95099 -2.54149,-8.87772c-1.55182,-7.29963 -5.39331,-18.17202 -0.86377,-24.4881c0,0 0.42246,-0.58907 1.09913,-0.48958z" data-paper-data="{&quot;index&quot;:null}" fill="#000000" fill-rule="nonzero" stroke="none" stroke-width="0.5" stroke-linecap="butt"/><path d="M81.92853,115.72003c0.19578,-0.13648 0.30508,-0.2887 0.30508,-0.2887l0.36381,-0.50701c0.14195,-0.19793 0.88348,-1.48318 1.21535,-2.19961c0.67347,3.37183 2.54124,5.95071 4.20031,8.86234c1.35274,2.37405 2.46653,4.92692 4.04759,7.08747c0.65507,0.89517 1.81021,1.23895 2.48581,2.12017c3.99157,5.20652 9.14523,8.80593 14.61127,12.61155c2.63184,0.90869 4.71477,2.54989 7.25338,3.57669c4.31125,1.74379 9.41506,2.78204 14.05249,2.80249c3.15711,0.01392 5.23048,-1.35527 7.92661,-2.47909c0.04456,-0.01859 0.58909,-0.11502 1.08722,-0.27207c-4.79499,6.28851 -10.96592,10.96168 -18.25642,13.81607c-2.13568,0.83617 -5.31196,0.13499 -7.61739,0.16578c-2.71734,-1.05278 -5.9058,-0.73247 -8.73164,-1.57041c-2.65431,-0.78708 -5.11917,-2.57132 -7.3708,-4.15528c-4.90305,-3.44914 -8.34236,-6.11171 -10.82606,-11.26567c-1.31275,-2.3569 -1.75326,-5.62327 -2.31821,-8.27594c-1.02938,-4.83341 -2.36604,-9.62407 -2.47591,-14.52551c-0.04685,-2.0895 -0.31136,-3.81361 0.04755,-5.50326z" data-paper-data="{&quot;noHover&quot;:false,&quot;origItem&quot;:[&quot;Path&quot;,{&quot;applyMatrix&quot;:true,&quot;segments&quot;:[[[273.87235,-142.12026],[0,0],[1.01324,3.7984]],[[279.45167,-130.91592],[-2.2487,-4.19152],[5.27484,9.83228]],[[299.44821,-104.03758],[-7.0705,-8.7465],[3.88042,4.80024]],[[312.66709,-89.67082],[-5.09294,-3.42936],[10.35186,7.89796]],[[346.16853,-78.0144],[-13.5038,-1.9451],[6.20136,0.89326]],[[365.35885,-77.17062],[-6.1971,1.13872],[6.59756,-1.2123]],[[384.66077,-82.95748],[-6.59886,0.66456],[4.64624,-2.43868]],[[399.93121,-91.12052],[-3.47166,3.89792],[11.85116,-13.30614]],[[422.73197,-137.90064],[-3.24798,17.70218],[-0.84886,0.8321]],[[420.99671,-136.28928],[0.07128,-0.08364],[-4.3124,5.05924]],[[407.47129,-123.07512],[6.42046,-3.22578],[-9.43086,4.73828]],[[376.07015,-114.26476],[10.54528,-0.90526],[-6.20942,0.53306]],[[357.46611,-114.03626],[6.27686,-0.8688],[-15.01356,-2.08816]],[[315.01431,-124.54172],[13.46564,6.45046],[-2.27912,-1.09174]],[[307.59497,-126.34364],[2.25186,1.14122],[-5.43498,-2.7544]],[[292.07983,-136.5608],[5.19176,3.42292],[-6.36742,-4.198]],[[274.60455,-150.13146],[4.84186,6.14764],[0.06502,1.79576]],[[274.40831,-144.42148],[0.08402,-0.54792],[0,0]],[274.19331,-143.01934],[[273.87227,-142.1202],[0.2566,-0.47874],[0,0]]],&quot;closed&quot;:true,&quot;fillColor&quot;:[0,0,0,1]}]}" fill="#ff7979" fill-rule="nonzero" stroke="none" stroke-width="0.5" stroke-linecap="butt"/><path d="M106.58771,100.25901c1.15633,0.97309 2.36877,1.59258 3.33706,2.53626c-0.14213,0.52371 0.22485,1.02463 0.22485,1.02463l0.72158,0.9641c1.36905,3.84504 0.24303,6.34006 -1.82048,8.81423c-0.17514,0.09931 -0.33654,0.26376 -0.4477,0.5222c-0.6428,0.72939 -1.36387,1.47625 -2.1107,2.25894c-0.96416,1.01048 -2.17747,3.1414 -3.71971,3.54373c-1.28609,0.3355 -3.10956,0.45805 -4.46475,0.60974c-2.5409,0.5153 -4.76498,0.32411 -6.92562,-1.06729c-1.34473,-0.86598 -3.31458,-1.0374 -4.51231,-2.04872c-1.77101,-1.49536 -1.81915,-3.53611 -2.25028,-5.49798c-0.76547,-3.48348 0.41085,-7.82293 2.00759,-11.03093c0.41725,-0.83826 1.10123,-1.56571 1.37184,-2.46247c0.7628,-0.58499 1.27319,-1.43721 2.00499,-2.05687c0.81434,-0.68953 2.68431,-0.93634 3.70694,-1.08768c1.176,-0.17406 2.30926,-0.66941 3.50784,-0.65743c3.87131,0.03874 6.77964,3.45666 9.36884,5.63553z" data-paper-data="{&quot;noHover&quot;:false,&quot;origItem&quot;:[&quot;Path&quot;,{&quot;applyMatrix&quot;:true,&quot;segments&quot;:[[[446.73305,268.10536],[2.89371,-1.47823],[-0.06831,1.37387]],[445.46667,270.37778],[[443.12132,272.0991],[0,0],[-5.96067,8.12157]],[[440.69597,294.68594],[-2.82752,-7.62457],[0.32241,0.38124]],[[441.31938,296.29942],[-0.05915,-0.71144],[0.91159,2.27586]],[[444.40538,303.41994],[-1.10727,-2.48862],[1.4295,3.21285]],[[450.15819,314.92997],[-3.19039,-2.22284],[2.66051,1.85365]],[[459.77696,320.01463],[-2.95371,-1.46839],[5.36618,3.30775]],[[476.19163,323.08874],[-5.92522,1.58242],[3.68773,-0.98486]],[[487.89679,321.85466],[-3.4633,1.45376],[5.1209,-2.14955]],[[497.05137,310.50801],[-2.43617,4.36173],[4.32565,-7.74467]],[[500.7054,282.45833],[1.22494,9.00724],[-0.32008,-2.35365]],[[499.44219,275.44525],[-0.05526,2.37467],[-1.29063,-2.02668]],[[496.44805,268.88831],[1.19467,2.08469],[-1.32943,-2.31984]],[[488.88971,263.27427],[2.20145,1.19666],[-2.53159,-1.37612]],[[481.46398,258.84906],[2.72117,0.94756],[-8.78927,-3.06057]],[[456.14805,264.74942],[7.48131,-3.12499],[-3.34116,1.39562]]],&quot;closed&quot;:true}],&quot;index&quot;:null}" fill="#ffffff" fill-rule="nonzero" stroke="#000000" stroke-width="1.5" stroke-linecap="butt"/><path d="M150.0848,117.03189c1.24097,1.82176 1.57885,4.0088 3.15305,5.62025c0.16767,0.24179 2.43546,2.52586 2.27143,2.91477c-0.17621,0.41775 -0.68927,0.62742 -0.91506,1.0211c-0.7745,1.35031 -0.7415,3.14543 -1.48081,4.50604c-1.03818,1.91064 -2.83312,3.46738 -3.8484,5.40028c-1.01947,1.94089 -2.13767,3.98568 -4.55692,4.81872c-2.05721,0.70836 -6.28489,-1.50141 -8.28726,-2.18042c-3.63567,-1.23287 -6.87349,-2.52384 -9.87418,-4.91226c-1.03897,-0.82696 -3.47528,-2.25769 -3.92697,-3.68906c-0.47594,-1.50822 0.18753,-3.93586 0.19085,-5.44568c0.00833,-3.80748 0.6197,-8.97752 3.78022,-11.53328c1.76887,-3.24806 3.53395,-2.49901 7.02935,-2.41982c1.75413,0.03972 2.15112,-0.27122 3.77968,-0.08786c3.30701,0.37232 5.78022,1.97645 8.49359,3.70781c1.42578,0.90978 2.83266,1.52747 4.19142,2.27937z" data-paper-data="{&quot;noHover&quot;:false,&quot;origItem&quot;:[&quot;Path&quot;,{&quot;applyMatrix&quot;:true,&quot;segments&quot;:[[[345.23972,269.60323],[3.63452,-0.69939],[-4.16451,3.36541]],[[333.95019,280.50479],[4.76198,-2.58874],[-0.55942,0.44426]],[[326.64875,285.63847],[-0.08169,-1.0679],[0.08775,1.14712]],[[327.96126,288.83057],[-0.21788,-1.12965],[0.74732,3.87473]],[[327.96126,300.83057],[-0.66004,-3.87081],[0.92686,5.43561]],[[332.63767,316.89501],[-0.85844,-5.47042],[0.86199,5.49305]],[[339.33599,332.15179],[-4.85435,-3.97194],[4.12789,3.37753]],[[359.66667,333.64445],[-5.03672,0],[9.14506,0]],[[385.59642,329.90313],[-8.56845,3.29316],[2.96677,-1.14023]],[[397.20584,324.26188],[-2.08779,3.07058],[2.19988,-3.23544]],[[400.81219,311.05478],[-1.11658,3.62972],[2.81576,-9.15335]],[[400.85142,280.34765],[5.24921,8.71427],[-1.58464,-9.24366]],[[386.77683,268.84278],[7.96873,2.65724],[-3.99903,-1.33351]],[[378.31074,265.5642],[3.8218,0.88619],[-7.76068,-1.79954]],[[356.39267,267.55528],[7.42913,-1.94884],[-3.90375,1.02405]]],&quot;closed&quot;:true}],&quot;index&quot;:null}" fill="#ffffff" fill-rule="nonzero" stroke="#000000" stroke-width="1.5" stroke-linecap="butt"/><path d="M137.41431,128.54389c-1.75651,-0.59565 -2.73914,-2.41983 -2.19477,-4.07443c0.54437,-1.65461 2.40959,-2.51308 4.1661,-1.91743c1.75651,0.59565 2.73915,2.41983 2.19477,4.07443c-0.54437,1.65461 -2.4096,2.51307 -4.16611,1.91743z" data-paper-data="{&quot;index&quot;:null}" fill="#000000" fill-rule="nonzero" stroke="none" stroke-width="0.5" stroke-linecap="butt"/><path d="M96.87586,111.20625c-1.75651,-0.59565 -2.73915,-2.41984 -2.19477,-4.07444c0.54437,-1.65461 2.4096,-2.51307 4.16611,-1.91744c1.75651,0.59565 2.73913,2.41983 2.19477,4.07443c-0.54437,1.65461 -2.40959,2.51308 -4.1661,1.91743z" data-paper-data="{&quot;index&quot;:null}" fill="#000000" fill-rule="nonzero" stroke="none" stroke-width="0.5" stroke-linecap="butt"/><path d="M184.26206,91.76721c0,0 1.66227,0.15982 1.56983,1.74387c-0.09243,1.58403 -1.7547,1.42419 -1.7547,1.42419l-1.76416,-0.24828c-1.94176,1.21264 -3.5542,1.64179 -5.94784,1.50162c-1.29797,-0.07601 -3.9573,-0.7249 -5.25971,-0.35136c-0.50964,0.14616 -0.81604,0.67155 -1.31699,0.84048c-0.96211,0.32443 -3.40785,0.55487 -4.52637,0.68071c-2.00509,-0.05002 -3.78895,0.44172 -5.77495,0.53933c-1.37394,0.06753 -2.11556,-0.26113 -3.44772,0.23371c-1.34318,0.49893 -2.48324,1.58431 -3.93649,1.69237c-0.62004,0.04612 -1.22939,-0.45576 -1.84614,-0.38741c-0.57634,0.06387 -0.96359,0.62483 -1.52282,0.76069c-0.67482,0.16394 -1.42532,-0.03898 -2.10168,0.11985c-2.15797,0.50675 -4.77039,1.72533 -6.81631,2.53234c-0.60414,0.23829 -1.03386,0.82533 -1.67691,0.95743c-2.01847,0.41464 -5.12994,0.38403 -7.21792,0.0491c0,0 -1.64961,-0.28565 -1.42491,-1.85191c0.2247,-1.56626 1.8743,-1.28059 1.8743,-1.28059c5.54488,1.06106 9.26253,-2.26629 14.29493,-3.49188c0.67468,-0.16432 1.42557,0.0399 2.10168,-0.11986c0.69566,-0.16437 1.23411,-0.7535 1.94894,-0.83717c0.67405,-0.07891 1.34633,0.37946 2.02867,0.37152c1.15106,-0.01338 1.93748,-1.13811 3.00702,-1.50336c2.7068,-0.92433 7.30407,-1.02477 10.20386,-0.96479c0.47425,-0.05513 3.13259,-0.34331 3.51453,-0.4778c0.59654,-0.21008 1.007,-0.78442 1.6247,-0.93712c2.46685,-0.60989 5.29956,0.55257 7.79742,0.29409c1.56745,-0.1622 2.14032,-0.70975 3.56475,-1.48085l2.805,0.19108z" data-paper-data="{&quot;index&quot;:null}" fill="#000000" fill-rule="nonzero" stroke="none" stroke-width="0.5" stroke-linecap="butt"/><path d="M194.62098,138.69902l1.13771,2.47309l35.21945,96.98962l-4.42272,7.52868l-1.71912,-4.86313l2.42662,-6.34817l-30.75927,-85.34779l-1.29376,-2.95136l-1.51406,0.42789l-76.99224,36.49974l-5.15021,9.35359l-8.84631,-9.87991l91.91395,-43.88225z" fill="#5cc2ff" fill-rule="evenodd" stroke="none" stroke-width="1" stroke-linecap="butt"/><path d="M197.59201,133.13072l0.58573,0.79138l36.14054,95.10211l-3.43724,7.93348l-35.68811,-98.13171l-0.31405,-0.15953l-91.17037,43.37252l3.42725,-6.35823l90.45625,-42.55001z" fill="#5cc2ff" fill-rule="evenodd" stroke="none" stroke-width="1" stroke-linecap="butt"/><path d="M233.10387,334.67021l-32.98483,181.36245l-8.32026,10.55854l-173.48802,-159.09185l-22.3235,-12.32504l-3.75541,-27.5347l15.09846,-25.84301l38.51616,-0.14861l28.18105,18.25739l6.852,35.02159l-11.83977,7.78512l106.20682,109.14536l37.026,-136.92639z" fill="#99d9ff" fill-rule="nonzero" stroke="#080000" stroke-width="1.5" stroke-linecap="round"/><path d="M352.89713,744.60981l-13.42075,-86.05754l64.26038,-32.23123l23.26502,82.07357z" data-paper-data="{&quot;index&quot;:null}" fill="#575757" fill-rule="nonzero" stroke="#000000" stroke-width="0.5" stroke-linecap="round"/><path d="M344.83807,743.6922c-2.74634,0.03505 -8.85885,0.98463 -7.3633,-1.85261c-1.00571,1.16646 -2.37756,2.66101 -3.19308,3.28122c-3.86322,2.93824 -9.82111,4.79962 -14.2351,6.95674c-12.10944,5.91792 -24.08573,11.21332 -34.76504,19.07507c-4.82627,3.55297 -7.73749,1.28744 -7.3284,6.24809c0.06043,8.62929 -3.20444,17.95161 -3.82101,26.96987c-0.83576,12.22254 1.5321,22.47077 2.83579,33.67974c0.03557,9.73812 10.53031,23.3397 14.81376,32.10464c1.14662,2.34623 4.25717,5.99987 4.07962,8.22606c1.05817,-0.40904 2.0779,-0.80882 2.7026,-1.1141c4.15191,-2.02905 8.30375,-4.05808 12.45572,-6.08716c16.51564,-8.07125 35.53766,-17.79063 49.7152,-29.41574c17.05668,-13.34588 40.51921,-17.62742 57.93149,-30.63379c9.61712,-6.95533 21.59909,-11.47034 32.30312,-16.68552c5.43016,-2.64569 9.12457,-6.86679 13.27833,-4.40387c1.09176,0.64737 -1.09682,-2.24435 -1.64522,-3.36651c-1.37101,-2.80541 -2.74207,-5.61092 -4.1131,-8.41635c-7.67778,-15.71051 -15.35556,-31.42102 -23.03334,-47.13152c-1.81507,-3.71405 -9.33792,-16.49871 -7.91147,-18.97705c-0.41044,0.17262 -0.88039,0.35683 -1.13732,0.46112c-2.27608,0.92408 -3.45017,1.64003 -5.73531,1.31996c-3.96714,-0.55567 -13.28496,5.89003 -17.3296,7.86666c-15.71787,7.68137 -31.43572,15.36275 -47.15362,23.04414c0,0 -3.55877,1.73919 -5.204,-1.62732c-0.06753,-0.13821 -0.12633,-0.2736 -0.17688,-0.40624c-1.86798,0.49035 -3.81765,0.85704 -5.96975,0.88452zM400.05181,715.06402c9.48818,-4.63691 20.83366,-12.16145 30.64902,-8.50232c5.62461,2.09679 9.30573,15.83382 11.87269,21.08643c7.67778,15.71051 15.35556,31.42102 23.03334,47.13152c0.87671,1.79396 6.45163,10.0943 5.75833,11.78289c-7.00276,17.05532 -34.53238,19.8781 -48.07649,30.48792c-17.02638,12.71811 -41.93755,16.51292 -57.63543,30.40201c-14.61221,11.98154 -34.30809,22.13534 -51.34322,30.46048c-2.44352,1.19415 -16.24179,10.10611 -18.68354,9.13072c-7.00198,-2.79715 -8.05866,-7.46862 -10.96237,-13.41027c-5.25214,-10.74707 -13.52657,-22.57341 -15.489,-34.41236c-1.33616,-11.4884 -3.71811,-22.50169 -2.88056,-34.75043c0.3379,-4.94097 0.21775,-11.27054 1.38752,-16.15567c0.76545,-3.19656 3.45306,-6.80332 2.45445,-9.98442c-0.76577,-9.28472 5.98474,-9.41887 11.85469,-13.91095c10.44923,-7.99635 22.75924,-13.20782 34.76503,-19.07509c4.42766,-2.16381 12.13674,-8.31932 15.55334,-9.24599c5.94761,-1.61309 11.24345,1.23288 17.14984,-0.04006c4.33404,-0.93403 8.13259,-3.49132 13.68966,-3.56225c0.42186,-0.0054 0.84368,-0.01076 1.2656,-0.01613c11.87908,-5.80535 23.75813,-11.61069 35.63724,-17.41605z" data-paper-data="{&quot;index&quot;:null}" fill="#000000" fill-rule="nonzero" stroke="none" stroke-width="0.5" stroke-linecap="butt"/><path d="M350.77821,742.62181c0.05057,0.13271 0.10982,0.26797 0.17735,0.40614c1.64522,3.36651 5.22426,1.62456 5.22426,1.62456c15.71787,-7.68137 31.55222,-15.33676 47.2702,-23.01819c4.04464,-1.97663 13.37924,-8.41118 17.34637,-7.85552c2.2851,0.32007 3.46474,-0.39162 5.74073,-1.3157c0.25694,-0.10431 0.72767,-0.28779 1.13814,-0.46044c-1.42644,2.47838 6.12297,15.28996 7.93804,19.00399c7.67778,15.71051 15.39383,31.51808 23.07163,47.22861c1.37101,2.80541 2.74265,5.62754 4.11366,8.43292c0.54841,1.12218 2.73678,4.02025 1.64503,3.37291c-4.15373,-2.46289 -7.84882,1.76748 -13.27898,4.41317c-10.70401,5.21522 -22.69964,9.78444 -32.31672,16.73979c-17.41229,13.00637 -41.04745,17.41269 -58.10413,30.75858c-14.17753,11.62512 -33.3061,21.32396 -49.82186,29.39527c-4.15191,2.02905 -8.3162,4.05108 -12.46815,6.08015c-0.62474,0.30532 -1.64689,0.70358 -2.70501,1.11259c0.17758,-2.22626 -2.94545,-5.88851 -4.09207,-8.23475c-4.28346,-8.76494 -14.82339,-22.41662 -14.85895,-32.15478c-1.30369,-11.20897 -3.69547,-21.5247 -2.85971,-33.74721c0.61665,-9.0183 3.88364,-18.40378 3.82324,-27.03309c-0.40912,-4.96069 2.50694,-2.71331 7.3332,-6.26626c10.67927,-7.86174 22.70884,-13.24163 34.81823,-19.15953c4.41386,-2.15707 10.41729,-4.05115 14.28054,-6.98934c0.81542,-0.62025 2.20139,-2.12163 3.20714,-3.28809c-1.4956,2.8373 4.63901,1.87942 7.38533,1.84438c2.15214,-0.02751 4.12473,-0.3999 5.99266,-0.89022z" data-paper-data="{&quot;noHover&quot;:false,&quot;origItem&quot;:[&quot;Path&quot;,{&quot;applyMatrix&quot;:true,&quot;segments&quot;:[[[579.60736,595.76373],[0.95609,-0.20262],[0.00646,0.07548]],[[579.61718,596],[0,-0.08208],[0,2]],[[577.61718,598],[0,0],[-8.83333,0]],[[551.11718,598],[8.83333,0],[-2.27308,0]],[[541.51161,598.28885],[1.67648,-1.19621],[-0.96568,0.68904]],[[538.61718,599],[1.23739,-0.09027],[-0.13966,0.01019]],[[537.99901,599.04541],[0.22447,-0.0134],[1.19653,0.85421]],[[538.61718,610],[0,-2.20646],[0,9.33333]],[[538.61718,638],[0,-9.33333],[0,1.66667]],[[538.61718,643],[0,-1.66667],[0,0.66667]],[[538.61718,645],[-0.35177,0.56631],[1.33831,-2.15456]],[[545.61718,644],[-3.04994,0.00386],[6.01206,-0.00761]],[[563.97058,644.43107],[-5.90478,-1.08158],[10.78253,2.15651]],[[597.04254,645.54479],[-10.6965,-2.40266],[9.00888,2.25222]],[[626.11718,648],[-9.28168,0],[2.33333,0]],[[633.11718,648],[-2.33333,0],[0.35109,0]],[[634.59021,647.90091],[-0.5707,0.05184],[-0.57412,-1.02596]],[[634.61718,643],[0,1.39387],[0,-5.20707]],[[634.21982,624.13246],[2.14282,4.67827],[-1.8936,-5.6808]],[[628.03948,607.31672],[3.08887,5.66543],[-2.2791,-4.1802]],[[620.32688,595.27881],[1.8857,4.15235],[-0.91417,-2.47477]],[[615.61718,594],[2.9771,0.57275],[-6.58756,-1.26734]],[[595.61718,593],[6.8054,0],[-2.48058,0]],[[587.61718,593],[2.40395,0.50364],[-0.50743,-0.10631]],[[585.44122,592.1748],[0.71481,0.32365],[1.30749,1.01011]],[[582.51161,594.78885],[1.25365,-0.62682],[-0.98239,0.4912]]],&quot;closed&quot;:true}],&quot;index&quot;:null}" fill="#600505" fill-rule="nonzero" stroke="none" stroke-width="0.5" stroke-linecap="butt"/><path d="M306.92032,779.34534c0.55602,1.13774 2.45676,1.9171 2.28553,3.11683c1.63846,-0.61203 3.37428,-1.04828 5.09497,-1.07022c6.63416,-0.08465 22.13484,3.84576 26.16912,9.48075c0.32809,0.45837 -1.15485,1.28651 -0.68038,1.60329c1.57884,1.05405 7.32486,-4.92682 8.3343,-4.90167c0.22845,0.00572 0.39006,0.10953 0.51365,0.27156c-0.31006,-0.53948 -0.60791,-1.0619 -0.77372,-1.40119c-0.58277,-1.19249 -1.16102,-2.50193 -2.24602,-3.29305c-9.38638,-7.05932 -21.58336,-12.17016 -35.13874,-5.5456c0,0 -1.59963,0.78172 -3.14985,0.2825c-0.44401,-0.01715 -0.82599,-0.10574 -1.13666,-0.27674c0.26676,0.66523 0.53692,1.34308 0.7277,1.73346zM349.50909,789.81125c0.57973,0.57057 -0.05105,-0.5385 -0.71665,-1.6959c0.23696,0.52765 0.32041,1.30603 0.71665,1.6959zM350.51233,777.02947c8.51659,6.20959 4.44703,23.35227 -7.43231,22.17961c-11.20825,-1.10643 -19.34413,-10.36276 -29.01915,-10.23927c-3.26855,0.0417 -6.78481,0.91085 -9.78906,-0.20911c-4.76088,-1.77489 -8.89274,-13.76126 -2.88249,-16.69849c4.32777,-2.115 7.10832,-1.82891 11.13738,-3.79791l1.77937,-0.86958c0,0 2.0426,-0.99822 3.74827,-0.01826c12.13253,-1.89653 22.93888,3.06808 32.45788,9.653z" data-paper-data="{&quot;index&quot;:null}" fill="#000000" fill-rule="nonzero" stroke="none" stroke-width="0.5" stroke-linecap="butt"/><path d="M306.00531,777.56356c0.31055,0.17107 0.69272,0.25953 1.13672,0.2767c1.55019,0.49923 3.15357,-0.29327 3.15357,-0.29327c13.55534,-6.62454 26.13155,-1.45417 35.51791,5.60519c1.08501,0.79109 1.65919,2.13158 2.24194,3.32401c0.16579,0.33925 0.46081,0.87267 0.7709,1.41215c-0.12356,-0.16211 -0.2847,-0.26725 -0.51325,-0.27297c-1.00945,-0.02514 -6.79444,6.02963 -8.37327,4.9756c-0.47454,-0.31678 0.695,-1.35795 0.36677,-1.81632c-4.03427,-5.63501 -19.56482,-9.49243 -26.19903,-9.40775c-1.72071,0.02193 -3.45884,0.47634 -5.09735,1.08835c0.17117,-1.19979 -1.72511,-2.00706 -2.28111,-3.14478c-0.19078,-0.39037 -0.45733,-1.08156 -0.72393,-1.74689z" data-paper-data="{&quot;noHover&quot;:false,&quot;origItem&quot;:[&quot;Path&quot;,{&quot;applyMatrix&quot;:true,&quot;segments&quot;:[[[607.563,601.99816],[0.02649,0.38155],[-0.10299,0.15484]],[[607.10872,602.39727],[0.1976,-0.11227],[-0.59254,0.60273]],[[605.61718,603],[0,0],[-7.618,0]],[[590.90604,613.89443],[2.69308,-5.58508],[-0.31682,0.63364]],[[590.61718,616],[0,-0.70843],[0,0.20156]],[[590.57685,616.85325],[0.02106,-0.33136],[0.02013,-0.10671]],[[590.74964,616.60263],[-0.10238,0.05628],[0.45234,-0.24865]],[[595.61718,617],[-0.48256,0.87548],[0.14503,-0.26312]],[[594.95308,616.3906],[-0.04725,0.29671],[0.58086,-3.64773]],[[604.72276,605.71115],[-3.02833,1.51416],[0.78545,-0.39273]],[[607.27135,605.03032],[-0.87898,0.0905],[-0.34365,-0.53523]],[[607.61718,603],[0,0.6759],[0,-0.23192]]],&quot;closed&quot;:true}],&quot;index&quot;:null}" fill="#ffffff" fill-rule="nonzero" stroke="none" stroke-width="0.5" stroke-linecap="butt"/><path d="M599.67506,782.84058l-15.13405,-83.95415l71.88673,0.74298l25.72788,83.21117z" data-paper-data="{&quot;index&quot;:null}" fill="#575757" fill-rule="nonzero" stroke="#000000" stroke-width="0.5" stroke-linecap="round"/><path d="M688.99341,778.47769c-1.94558,0.92025 -3.8583,1.44682 -5.75189,1.82647c0.0128,0.14137 0.01946,0.28886 0.01946,0.44266c0,3.74702 -3.96102,3.74702 -3.96102,3.74702c-17.49444,0 -34.98887,0 -52.48329,0c-4.50182,0 -15.70355,-1.69996 -19.02384,0.54121c-1.91254,1.29089 -3.28176,1.16319 -5.73245,1.33232c-0.27664,0.0191 -0.77975,0.05996 -1.2243,0.08508c2.36974,1.60038 1.2243,16.38984 1.2243,20.52368c0,17.48625 0,34.97247 0,52.45869c0,3.12249 0,6.24514 0,9.36763c0,1.24903 -0.69665,4.80806 0,3.74702c2.65052,-4.03659 7.82314,-1.86627 13.86355,-1.87351c11.90689,-0.01425 24.65456,-1.21875 36.34896,0.80758c21.35484,4.04026 44.31466,-2.41486 65.49911,2.08657c17.84212,4.21957 39.2,4.59984 57.58236,4.59984c4.62123,0 9.24236,0 13.86357,0c0.69529,0 1.78702,-0.08857 2.91732,-0.18568c-1.13699,-1.92221 0.05347,-6.57053 0.05347,-9.18197c0,-9.75562 3.45685,-26.58394 -0.78694,-35.34881c-3.75028,-10.64311 -6.12263,-20.89034 -12.24013,-31.50469c-4.5137,-7.83173 -11.54019,-14.77384 -15.2748,-22.55336c-1.81054,-4.63657 -3.4314,-1.32284 -9.32758,-2.39588c-13.04671,-2.37438 -26.13193,-1.87351 -39.61005,-1.87351c-4.91288,0 -11.08303,0.94361 -15.84407,0c-1.00501,-0.19919 -2.89379,-0.93962 -4.30953,-1.54605c2.58944,1.89249 -3.31928,3.72317 -5.80212,4.89752zM626.81645,776.99967c13.22177,0 26.44354,0 39.66528,0c0.38144,-0.18037 0.76272,-0.36078 1.14415,-0.54121c5.02384,-2.37622 9.55953,-1.7465 13.86357,-2.81029c5.86552,-1.44966 9.37402,-6.33195 15.42586,-7.49409c3.47653,-0.66758 13.10548,1.47797 18.0336,1.47797c13.36279,0 26.71094,-0.72283 39.61005,1.87353c7.2462,1.45854 13.3701,-1.38489 16.75882,7.29318c0.49955,3.29652 4.49786,5.35691 6.58912,7.89276c3.19592,3.87544 5.86714,9.615 8.34019,13.90583c6.13064,10.63713 8.82627,21.57789 12.67003,32.48631c3.43504,11.49839 1.1935,25.75689 1.1935,37.71866c0,6.6132 1.10175,11.27421 -3.96102,16.86175c-1.76547,1.94846 -18.07558,0 -20.79529,0c-18.96054,0 -41.1146,-0.47468 -59.50378,-4.82365c-20.20216,-5.58607 -44.24984,1.94234 -65.13138,-2.00835c-16.82722,-3.58549 -42.80061,5.96596 -56.58083,-6.28265c-1.3643,-1.2127 0,-11.11793 0,-13.11469c0,-17.48625 0,-34.97242 0,-52.45868c0,-5.8463 -2.72431,-19.80461 1.40847,-24.15811c7.21196,-7.59725 20.70921,-5.81832 31.26977,-5.81832z" data-paper-data="{&quot;index&quot;:null}" fill="#000000" fill-rule="nonzero" stroke="none" stroke-width="0.5" stroke-linecap="butt"/><path d="M683.18633,780.1241c1.89352,-0.37963 3.82932,-0.91116 5.77499,-1.83141c2.48287,-1.17436 8.41504,-3.00726 5.82554,-4.8998c1.41574,0.60639 3.32023,1.34676 4.32518,1.546c4.76102,0.94361 10.98643,0.00935 15.89921,0.00935c13.47803,0 26.64825,-0.44837 39.69492,1.92602c5.89618,1.07308 7.52929,-2.22641 9.33983,2.41011c3.73466,7.77951 10.7908,14.77745 15.30457,22.60919c6.1175,10.61437 8.49801,20.93269 12.24827,31.57584c4.24392,8.76487 0.76841,25.65806 0.76841,35.41367c0,2.61143 -1.19785,7.27303 -0.06084,9.19524c-1.13025,0.09711 -2.22343,0.1881 -2.91882,0.1881c-4.6212,0 -9.25041,0.01176 -13.87165,0.01176c-18.3825,0 -39.82712,-0.31503 -57.66921,-4.53461c-21.18443,-4.5014 -44.35413,1.91733 -65.70901,-2.12293c-11.69441,-2.02643 -24.47809,-0.86463 -36.385,-0.85037c-6.0403,0.00723 -11.21769,-2.17112 -13.86821,1.86548c-0.69665,1.06097 -0.00299,-2.50368 -0.00299,-3.75268c0,-3.12249 -0.00678,-6.26029 -0.00678,-9.38278c0,-17.48625 -0.00823,-35.07649 -0.00823,-52.56274c0,-4.13385 1.15752,-18.95918 -1.21227,-20.55954c0.44459,-0.02512 0.94812,-0.06695 1.22473,-0.08602c2.45061,-0.1691 3.82294,-0.04763 5.73545,-1.33852c3.3203,-2.2411 14.53223,-0.55858 19.03402,-0.55858c17.49454,0 35.08221,-0.07449 52.57663,-0.07449c0,0 3.98044,-0.00642 3.98044,-3.75343c0,-0.15383 -0.00617,-0.30134 -0.01899,-0.44278z" data-paper-data="{&quot;noHover&quot;:false,&quot;origItem&quot;:[&quot;Path&quot;,{&quot;applyMatrix&quot;:true,&quot;segments&quot;:[[[579.60736,595.76373],[0.95609,-0.20262],[0.00646,0.07548]],[[579.61718,596],[0,-0.08208],[0,2]],[[577.61718,598],[0,0],[-8.83333,0]],[[551.11718,598],[8.83333,0],[-2.27308,0]],[[541.51161,598.28885],[1.67648,-1.19621],[-0.96568,0.68904]],[[538.61718,599],[1.23739,-0.09027],[-0.13966,0.01019]],[[537.99901,599.04541],[0.22447,-0.0134],[1.19653,0.85421]],[[538.61718,610],[0,-2.20646],[0,9.33333]],[[538.61718,638],[0,-9.33333],[0,1.66667]],[[538.61718,643],[0,-1.66667],[0,0.66667]],[[538.61718,645],[-0.35177,0.56631],[1.33831,-2.15456]],[[545.61718,644],[-3.04994,0.00386],[6.01206,-0.00761]],[[563.97058,644.43107],[-5.90478,-1.08158],[10.78253,2.15651]],[[597.04254,645.54479],[-10.6965,-2.40266],[9.00888,2.25222]],[[626.11718,648],[-9.28168,0],[2.33333,0]],[[633.11718,648],[-2.33333,0],[0.35109,0]],[[634.59021,647.90091],[-0.5707,0.05184],[-0.57412,-1.02596]],[[634.61718,643],[0,1.39387],[0,-5.20707]],[[634.21982,624.13246],[2.14282,4.67827],[-1.8936,-5.6808]],[[628.03948,607.31672],[3.08887,5.66543],[-2.2791,-4.1802]],[[620.32688,595.27881],[1.8857,4.15235],[-0.91417,-2.47477]],[[615.61718,594],[2.9771,0.57275],[-6.58756,-1.26734]],[[595.61718,593],[6.8054,0],[-2.48058,0]],[[587.61718,593],[2.40395,0.50364],[-0.50743,-0.10631]],[[585.44122,592.1748],[0.71481,0.32365],[1.30749,1.01011]],[[582.51161,594.78885],[1.25365,-0.62682],[-0.98239,0.4912]]],&quot;closed&quot;:true}],&quot;index&quot;:null}" fill="#600505" fill-rule="nonzero" stroke="none" stroke-width="0.5" stroke-linecap="butt"/><path d="M738.71504,793.86135c0,-0.43453 -0.05487,-1.16217 -0.10733,-1.87695c-0.20402,0.29006 -0.50838,0.53741 -0.89973,0.74775c-1.17356,1.12918 -2.95403,1.12921 -2.95403,1.12921c-15.08751,0 -23.80181,9.94724 -29.13543,20.41102c-0.62745,1.18716 -0.57203,2.61753 -0.57203,3.94481c0,0.3776 -0.03817,0.97778 -0.07989,1.59857c0.03988,-0.19988 0.13947,-0.36407 0.34222,-0.46952c0.8959,-0.46582 8.68441,2.38477 9.64016,0.74452c0.28721,-0.49296 -1.40877,-0.5858 -1.31525,-1.1417c1.15044,-6.83412 13.35127,-17.17136 19.3489,-20.00822c1.55554,-0.73582 3.30663,-1.10602 5.04747,-1.27554c-0.68058,-1.00271 0.68491,-2.53749 0.68491,-3.80383zM704.94569,820.1259c-0.08983,1.33211 -0.16954,2.6055 0.10075,1.83834c0.18477,-0.52425 -0.08196,-1.2602 -0.10075,-1.83834zM698.53293,810.92094c5.66108,-10.09579 13.19023,-19.30105 24.92339,-22.92422c1.10215,-1.62937 3.37565,-1.62937 3.37565,-1.62937h1.98049c4.48448,0 6.85703,-1.47791 11.67395,-1.47791c6.68957,0 8.24022,12.58332 4.74213,16.26835c-2.20744,2.32533 -5.74818,3.08834 -8.70317,4.486c-8.74676,4.13717 -11.99222,16.02573 -21.57644,21.9411c-10.15809,6.26948 -21.34132,-7.34552 -16.41603,-16.66393z" data-paper-data="{&quot;index&quot;:null}" fill="#000000" fill-rule="nonzero" stroke="none" stroke-width="0.5" stroke-linecap="butt"/><path d="M738.75487,791.85882c0.05259,0.71481 0.11661,1.45286 0.11661,1.88735c0,1.26632 -1.34928,2.82421 -0.66867,3.827c-1.74083,0.16954 -3.50201,0.52451 -5.05758,1.26033c-5.99767,2.83683 -18.25738,13.12158 -19.40781,19.95574c-0.09365,0.55593 1.41428,0.97786 1.12702,1.47087c-0.9557,1.64024 -8.81173,-1.25959 -9.70764,-0.79382c-0.20281,0.10549 -0.30144,0.27066 -0.34128,0.47062c0.0417,-0.62084 0.07257,-1.22964 0.07257,-1.60725c0,-1.32724 -0.07271,-2.78365 0.55478,-3.97082c5.33362,-10.46385 14.36248,-20.63106 29.44997,-20.63106c0,0 1.78851,0.00804 2.96209,-1.12117c0.39139,-0.21035 0.69586,-0.45758 0.89979,-0.74764z" data-paper-data="{&quot;noHover&quot;:false,&quot;origItem&quot;:[&quot;Path&quot;,{&quot;applyMatrix&quot;:true,&quot;segments&quot;:[[[607.563,601.99816],[0.02649,0.38155],[-0.10299,0.15484]],[[607.10872,602.39727],[0.1976,-0.11227],[-0.59254,0.60273]],[[605.61718,603],[0,0],[-7.618,0]],[[590.90604,613.89443],[2.69308,-5.58508],[-0.31682,0.63364]],[[590.61718,616],[0,-0.70843],[0,0.20156]],[[590.57685,616.85325],[0.02106,-0.33136],[0.02013,-0.10671]],[[590.74964,616.60263],[-0.10238,0.05628],[0.45234,-0.24865]],[[595.61718,617],[-0.48256,0.87548],[0.14503,-0.26312]],[[594.95308,616.3906],[-0.04725,0.29671],[0.58086,-3.64773]],[[604.72276,605.71115],[-3.02833,1.51416],[0.78545,-0.39273]],[[607.27135,605.03032],[-0.87898,0.0905],[-0.34365,-0.53523]],[[607.61718,603],[0,0.6759],[0,-0.23192]]],&quot;closed&quot;:true}],&quot;index&quot;:null}" fill="#ffffff" fill-rule="nonzero" stroke="none" stroke-width="0.5" stroke-linecap="butt"/><path d="M363.64846,224.40695c-0.38512,-0.19937 -0.73875,-0.57218 -0.8985,-1.25173c-0.43868,-1.86598 1.46182,-2.31278 1.46182,-2.31278c0.67574,-0.15887 2.87182,-0.67516 3.54758,-0.83403c2.66192,-0.6258 6.01379,-2.01239 8.58886,-0.1038c1.12257,0.83205 1.64025,5.51019 1.97649,6.94042c1.61749,6.88016 5.66134,16.2967 4.7806,23.25893c-0.09718,0.76821 -1.04841,1.24592 -1.20257,2.0055c-0.67582,3.32957 -0.4899,8.47035 0.30979,11.76801c0.46102,5.31226 1.03796,11.2637 2.25516,16.39584c0.48674,2.05226 2.55175,7.59954 1.99396,9.75563c-0.20912,0.80839 -1.50379,0.94284 -1.88354,1.68989c-0.34933,0.68707 0.28524,1.65038 -0.14182,2.29398c-1.38834,2.09238 -3.66441,1.77558 -4.38841,4.68635c-0.4665,1.87528 0.8462,2.31724 0.56516,4.50026c-0.102,0.7925 -0.96101,1.32223 -1.22323,2.07952c-0.32173,0.92916 0.53209,2.81992 0.50928,3.52139c-0.1108,3.41335 -1.00601,7.11642 -1.33973,10.55855c-0.20038,1.27166 -0.66492,7.12691 -1.4333,8.03797c-2.5655,3.04207 -8.17707,1.29127 -10.73591,-0.26121c-2.41893,-1.46755 -2.94154,-3.33143 -4.73161,-5.08585c-2.38234,-2.33492 -6.30736,-2.20487 -8.77609,-3.976c-0.65497,-0.46986 -0.69611,-1.45816 -1.20445,-2.07915c-0.96455,-1.17836 -1.65165,-0.20002 -3.0291,-0.59428c-3.93972,-1.12765 -7.38021,-3.79701 -11.12231,-5.39172c-3.09142,-0.95991 -10.61761,-1.94134 -11.36672,-5.92763c-0.23314,-1.24052 1.24034,-2.23651 1.658,-3.43457c0.53551,-1.53617 -0.13634,-3.33042 0.46974,-4.84153c0.34424,-0.85817 1.32073,-1.34731 1.762,-2.16203c2.22114,-4.10098 2.50796,-9.29906 4.22955,-13.48631c0.52712,-1.28201 1.88414,-2.17287 2.26724,-3.5024c1.2359,-4.28909 2.2756,-8.63173 4.16157,-12.85047c1.67164,-2.60232 1.74563,-4.64409 2.99566,-7.45214c0.66815,-1.50103 1.71124,-2.16804 2.08532,-3.80038c0.38973,-1.70077 0.42777,-3.56489 1.34185,-5.06236c4.90496,-8.03521 10.14922,-16.13003 16.51759,-23.08187z" data-paper-data="{&quot;index&quot;:null}" fill="#ffffff" fill-rule="nonzero" stroke="#000000" stroke-width="1" stroke-linecap="butt"/><path d="M369.18313,285.97808v-9.13083l264.47897,-75.96035l8.89709,26.0685l55.03278,507.95476l-140.74665,1.52177l-32.35666,-322.4365l-16.5864,-16.31731l-15.34611,10.62004l-10.95691,21.68734l-82.67752,80.65334l66.05473,165.85023l-166.92332,67.55187l-43.35237,-229.90579z" data-paper-data="{&quot;index&quot;:null}" fill="#6e3232" fill-rule="nonzero" stroke="#000000" stroke-width="1" stroke-linecap="round"/><path d="M356.83399,408.55261l60.5362,7.42956l-9.08044,46.06332l-42.37532,50.52106l-28.75469,2.97181" data-paper-data="{&quot;index&quot;:null}" fill="none" fill-rule="nonzero" stroke="#000000" stroke-width="1" stroke-linecap="round"/><path d="M683.72941,511.08063l-28.75469,-2.97181l-42.37532,-50.52106l-9.08044,-46.06332l60.5362,-7.42956" data-paper-data="{&quot;index&quot;:null}" fill="none" fill-rule="nonzero" stroke="#000000" stroke-width="1" stroke-linecap="round"/><path d="M566.62637,133.18791c9.4253,0.21963 18.89675,2.04177 28.09022,4.0674c1.71332,0.37751 3.08448,1.64095 4.58137,2.53754c1.43667,0.8605 2.64019,0.56986 4.18578,1.12726c2.89147,1.0427 4.4157,2.40321 7.45067,2.99929c4.34955,1.56081 8.20245,3.81792 12.15259,5.89642c1.22445,0.64428 2.80687,0.2822 4.09676,0.78968c4.21297,1.65758 8.16168,5.05024 12.65838,6.28769c0.89337,0.24584 1.92243,-0.11994 2.77992,0.226c1.50986,0.60918 2.33908,2.33635 3.81814,3.01378c1.15353,0.52832 2.89244,0.15502 3.62594,1.18225c2.3571,3.30087 -2.14661,9.41014 -3.59485,12.30511c-1.44086,3.804 -1.89753,8.13456 -3.81222,11.75771c-0.66943,1.26677 -1.85105,1.08497 -1.66887,2.59684c0.096,0.79679 0.78049,1.51084 0.66592,2.30871c-0.43179,3.00751 -3.2436,5.74912 -3.20886,9.08469c0.02613,2.50635 1.00888,4.17407 0.39255,6.93542c-0.65195,2.9211 -3.27477,8.18189 -7.246,7.92613c-1.18936,-0.07659 -5.73524,-3.79609 -6.79141,-4.53212c-2.71439,-2.14285 -6.00583,-4.06131 -8.54507,-6.34506c-0.52186,-0.46932 -1.29464,-2.39461 -2.18778,-2.80591c-0.72792,-0.33525 -1.70494,-0.08236 -2.34731,-0.55755c-1.7695,-1.30895 -1.17934,-2.56203 -2.85527,-3.52409c-2.60133,-1.49332 -3.94891,0.36807 -6.41982,-0.07925c-0.76002,-0.13759 -1.01556,-1.26246 -1.75314,-1.48624c-0.80194,-0.24335 -1.79547,0.59756 -2.52348,0.18865c-1.94175,-1.09064 -4.51376,-6.4218 -5.65727,-8.19411c-2.85962,-4.43205 -6.75364,-8.96951 -10.26686,-12.98076c-1.82527,-2.86051 -5.40525,-6.55452 -8.27533,-8.37264c-0.65474,-0.41476 -1.6581,-0.05934 -2.27961,-0.5212c-5.63268,-4.18582 -9.62582,-13.62399 -13.46934,-19.55528c-0.79896,-1.23298 -3.81549,-4.84599 -3.63838,-6.23203c0.40629,-3.17939 3.7277,-4.63737 6.02251,-6.12442c0.58256,-0.37749 2.47577,-1.6043 3.05833,-1.98179c0,0 1.6384,-1.0617 2.68082,0.54694c0.37963,0.58583 0.4037,1.09911 0.28085,1.51501z" data-paper-data="{&quot;index&quot;:null}" fill="#ffffff" fill-rule="nonzero" stroke="#000000" stroke-width="1" stroke-linecap="butt"/><path d="M366.26294,306.66496c0.24912,-0.10619 0.49824,-0.21238 0.74736,-0.31858c0.77303,1.59047 1.36258,3.20351 1.76848,4.83949c-0.56357,-1.70889 -1.40235,-3.21601 -2.51586,-4.52091z" fill="#4b4b4b" fill-rule="evenodd" stroke="none" stroke-width="1" stroke-linecap="butt"/><path d="M485.76082,308.01441l-32.19742,-80.64257l52.40697,-20.70605l32.66745,79.8299z" data-paper-data="{&quot;index&quot;:null}" fill="#342323" fill-rule="nonzero" stroke="#000000" stroke-width="1" stroke-linecap="round"/><path d="M500.11584,14.11525c30.19403,13.10277 60.38031,26.24817 90.55719,39.43708c0.97461,1.57005 1.75028,3.23526 2.32871,4.99493c-30.23674,-13.51666 -60.51432,-26.95586 -90.83271,-40.31756c-0.0172,0.27337 -0.12867,0.32089 -0.3378,0.14399c-9.44182,28.80658 -18.88539,57.61371 -28.32722,86.42028c-1.29467,0.71791 -2.65786,1.26566 -4.08953,1.6434c10.28496,-30.77103 20.51877,-61.54502 30.70136,-92.32211z" data-paper-data="{&quot;index&quot;:null}" fill="#c4c4c4" fill-rule="evenodd" stroke="#000000" stroke-width="1" stroke-linecap="butt" opacity="0.999"/><path d="M321.83228,90.30976c28.3788,13.81864 56.70625,27.75658 84.98357,41.81288c0.55445,0.27061 1.13269,0.45663 1.73469,0.55787c-0.23975,0.20078 -0.50984,0.34905 -0.80848,0.44441c0.60593,1.34659 1.09744,2.73376 1.47451,4.16152c-28.52345,-14.32001 -57.04803,-28.63935 -85.57199,-42.95917c-0.0167,0.27315 -0.12917,0.3211 -0.3378,0.14399c-10.37864,30.90239 -20.75739,61.80461 -31.13604,92.70699c-0.74425,-1.54887 -1.35993,-3.14918 -1.84693,-4.80112c10.46321,-30.70591 20.96588,-61.3951 31.50849,-92.0674z" data-paper-data="{&quot;index&quot;:null}" fill="#c4c4c4" fill-rule="evenodd" stroke="#000000" stroke-width="1" stroke-linecap="butt"/><path d="M323.6072,94.94199c2.95142,1.39801 5.89371,2.83825 8.82716,4.32055c-8.4898,25.32156 -16.95301,50.65076 -25.38975,75.98722c0.99148,3.0274 2.09849,6.01495 3.32146,8.96265c-5.93883,1.23198 -11.89189,2.40575 -17.85891,3.52102c10.4134,-30.92858 20.78004,-61.85917 31.10005,-92.79144z" data-paper-data="{&quot;index&quot;:null}" fill="#c4c4c4" fill-rule="evenodd" stroke="#000000" stroke-width="1" stroke-linecap="butt"/><path d="M502.13167,18.84438c1.07392,0.22043 2.12194,0.57204 3.14404,1.05486c29.31392,13.14502 58.66859,26.21239 88.06247,39.20316c-6.64247,5.10769 -13.3514,10.12973 -20.12354,15.06436c-2.14475,-4.82087 -4.40445,-9.57897 -6.78262,-14.27319c-22.38424,-10.07797 -44.80931,-20.07844 -67.27519,-30.00146c-0.30556,0.01828 -0.48215,0.22668 -0.53159,0.62577c-0.16118,-0.06442 -0.20913,-0.17691 -0.14399,-0.3378c1.32086,-3.76078 2.53817,-7.5397 3.65043,-11.33571z" data-paper-data="{&quot;index&quot;:null}" fill="#c4c4c4" fill-rule="evenodd" stroke="#000000" stroke-width="1" stroke-linecap="butt"/><path d="M335.61017,96.41194c22.59817,9.95385 45.18798,19.95078 67.76943,29.99037c3.16997,1.42002 6.30111,2.91286 9.39339,4.47836c-1.19,0.64037 -2.42972,1.16881 -3.71575,1.58387c-0.68186,-0.13407 -1.33982,-0.35257 -1.97558,-0.65477c-23.85768,-11.76009 -47.68142,-23.55942 -71.4715,-35.39781z" data-paper-data="{&quot;index&quot;:null}" fill="#c4c4c4" fill-rule="evenodd" stroke="#000000" stroke-width="1" stroke-linecap="butt" opacity="0.998"/><path d="M332.78325,99.61279c0.65991,0.19451 1.3304,0.44101 2.01157,0.73923c22.67144,11.35902 45.34364,22.71792 68.01457,34.07718c2.10465,4.56292 4.04375,9.19164 5.81905,13.88557c-31.98015,13.62584 -63.93424,27.3124 -95.86167,41.06147c-1.75035,-4.6415 -3.49726,-9.28569 -5.24037,-13.93266c8.54744,-25.24673 16.96642,-50.52375 25.25686,-75.83077z" data-paper-data="{&quot;index&quot;:null}" fill="#365c43" fill-rule="evenodd" stroke="#000000" stroke-width="1" stroke-linecap="butt"/><path d="M499.11946,30.50678c0.91252,0.15551 1.79936,0.44271 2.66226,0.86105c21.42068,9.69035 42.88218,19.30322 64.3845,28.83863c14.44735,30.8967 28.85487,61.81239 43.22524,92.74392c-28.99676,12.35415 -58.01343,24.65688 -87.05411,36.90799c-0.75953,-1.53838 -1.51569,-3.07819 -2.26917,-4.62113c-2.56915,-1.49949 -5.13662,-2.99968 -7.70579,-4.49917c-3.71,-1.35248 -7.44474,-2.62258 -11.20281,-3.80687c-9.62606,-21.84288 -19.09845,-43.75132 -28.41545,-65.72595c8.75266,-26.91633 17.54444,-53.8158 26.37533,-80.69842z" data-paper-data="{&quot;index&quot;:null}" fill="#365c43" fill-rule="evenodd" stroke="#000000" stroke-width="1" stroke-linecap="butt"/><path d="M532.68325,27.77589c0.22463,-0.09575 0.45096,-0.19223 0.67559,-0.28797c0.31496,0.08809 0.64031,0.149 0.97602,0.18273c0.58268,0.53819 1.24487,0.92114 1.98667,1.14902c0.68877,-0.07445 1.19452,0.17562 1.51735,0.75032c0.74003,0.13481 1.48415,0.31659 2.22893,0.54679c0.44738,0.06159 0.74823,0.29917 0.90267,0.71295c0.60097,-0.15398 1.05575,0.05134 1.3609,0.61743c0.65571,-0.03961 1.1885,0.19893 1.6018,0.71434c0.26787,0.07123 0.51647,0.03172 0.74758,-0.11908c0.32091,0.57493 0.82667,0.82499 1.51735,0.75032c0.24268,0.13387 0.39437,0.33525 0.45686,0.60358c0.16662,-0.10075 0.34746,-0.14473 0.54269,-0.13154c0.6982,0.4674 1.4616,0.77407 2.28846,0.92058c0.19945,0.5756 0.58482,0.77738 1.15599,0.60497c0.65937,0.33885 1.30962,0.69376 1.95067,1.06457c0.56837,-0.05725 1.02143,0.14879 1.36089,0.61743c1.76422,0.38364 3.39471,1.08573 4.88982,2.10697c0.20228,0.09061 0.39516,0.07485 0.57869,-0.04708c0.04743,0.21429 0.17517,0.35942 0.38488,0.4347c0.37804,0.1049 0.75444,0.21072 1.13247,0.31562c0.24268,0.13387 0.39438,0.33526 0.45686,0.6036c0.23111,-0.1508 0.47971,-0.19032 0.74759,-0.11908c0.34465,0.1858 0.69091,0.37072 1.03556,0.55651c0.20228,0.09061 0.39515,0.07486 0.57869,-0.04708c0.06249,0.26835 0.2142,0.46974 0.45687,0.60358c1.32285,0.64522 2.6868,1.19487 4.09515,1.64736c0.20912,0.1769 0.41664,0.3547 0.62577,0.53159c0.65616,-0.20246 1.13794,-0.00864 1.44536,0.58142c0.59571,-0.13357 1.07749,0.06022 1.44535,0.58141c0.66071,-0.06069 1.16646,0.18936 1.51735,0.75032c1.32121,0.38386 2.61011,0.83238 3.86672,1.34555c0.87803,0.47258 1.78418,0.88466 2.7218,1.23483c0.37275,0.59355 0.90722,0.83136 1.6018,0.71431c0.24268,0.13387 0.39439,0.33525 0.45688,0.6036c0.32599,-0.1623 0.65607,-0.1699 0.98848,-0.02219c1.43059,0.84178 2.95091,1.52416 4.56448,2.04605c0.17585,0.18312 0.30061,0.39617 0.37242,0.63959c0.57042,-0.27248 1.02824,-0.13492 1.37336,0.41253c1.13922,0.07862 2.07102,0.54624 2.79379,1.40374c1.12293,1.93673 1.93111,3.98724 2.42288,6.15228c-2.0838,1.89135 -4.40127,3.47796 -6.95244,4.7598c2.08231,-1.61388 4.18287,-3.24116 6.30176,-4.88162c-0.71164,-2.09089 -1.60259,-4.10612 -2.67623,-6.04431c-19.52323,-8.48374 -39.02201,-17.00384 -58.49647,-25.56046z" data-paper-data="{&quot;index&quot;:null}" fill="#66b6fc" fill-rule="evenodd" stroke="#000000" stroke-width="1" stroke-linecap="butt" opacity="0.206"/><path d="M403.76051,135.02169c1.04822,0.44574 2.0885,0.93378 3.11912,1.46465c9.4918,22.69849 18.91436,45.42646 28.26598,68.18468c-0.46711,0.93159 -0.93662,1.86221 -1.40373,2.79381c-10.04592,-24.12483 -20.03946,-48.27198 -29.98139,-72.44313z" data-paper-data="{&quot;index&quot;:null}" fill="#365c43" fill-rule="evenodd" stroke="#000000" stroke-width="1" stroke-linecap="butt"/><path d="M452.23404,114.35942c6.9685,-3.00372 13.96274,-5.95173 20.97926,-8.8428c-0.55233,1.86945 -1.15867,3.72457 -1.819,5.5654c-20.39806,8.95611 -40.85437,17.77559 -61.37062,26.45915c-0.59993,-1.40743 -1.19992,-2.815 -1.79985,-4.22243c14.74676,-6.21947 29.41679,-12.53936 44.0102,-18.95933z" data-paper-data="{&quot;index&quot;:null}" fill="#c4c4c4" fill-rule="evenodd" stroke="#000000" stroke-width="1" stroke-linecap="butt"/><path d="M410.74636,137.83188c20.03159,-8.80448 40.18613,-17.39553 60.46524,-25.77384c-0.10819,1.34283 -0.27211,2.67668 -0.48998,4.001c-18.05786,7.8911 -36.15127,15.70339 -54.27694,23.43539c-1.89392,-0.59897 -3.79277,-1.15335 -5.69831,-1.66256z" data-paper-data="{&quot;index&quot;:null}" fill="#c4c4c4" fill-rule="evenodd" stroke="#000000" stroke-width="1" stroke-linecap="butt"/><path d="M587.5542,64.26226c0.0869,0.16174 0.08944,0.32691 0.0111,0.49424c-1.30437,1.22422 -2.71222,2.28996 -4.22516,3.19812c-1.60729,1.51559 -3.37436,2.83425 -5.29946,3.9554c-1.03983,0.73981 -2.04474,1.50067 -3.01798,2.28436c-0.15264,0.26466 -0.30697,0.53002 -0.4596,0.79468c0.57336,1.81332 1.26204,3.58348 2.06292,5.30781c1.41209,3.15826 2.7005,6.33534 3.86277,9.53024c-2.29988,-5.07707 -4.65234,-10.12774 -7.05814,-15.15367c4.69144,-3.49486 9.39925,-6.96535 14.12358,-10.41119z" data-paper-data="{&quot;index&quot;:null}" fill="#7dbdee" fill-rule="evenodd" stroke="#000000" stroke-width="1" stroke-linecap="butt" opacity="0.243"/><path d="M387.32249,157.79578c7.14942,-3.04751 14.30054,-6.09573 21.44995,-9.14323c8.29324,19.81642 16.51892,39.66164 24.67874,59.53494c-2.66743,5.35425 -5.25754,10.74939 -7.77035,16.18542c-6.60143,3.04544 -13.26559,5.9859 -19.9908,8.82063c-21.83871,9.16724 -43.65022,18.39872 -65.43525,27.69277c-9.05286,-23.74579 -18.16729,-47.46932 -27.34404,-71.17229c24.88005,-10.53946 49.68417,-21.17832 74.41171,-31.91823z" data-paper-data="{&quot;index&quot;:null}" fill="#365c43" fill-rule="evenodd" stroke="#000000" stroke-width="1" stroke-linecap="butt"/><path d="M576.62599,80.29688c1.47207,3.06484 2.89994,6.18048 4.285,9.35025c0.5771,0.88566 1.15349,1.76963 1.7306,2.65527c2.00381,4.4668 3.9526,8.95904 5.84397,13.47579c0.26352,-0.14027 0.50938,-0.11136 0.73514,0.08581c0.9239,1.93335 1.79277,3.89214 2.60423,5.87541c-0.35749,0.22423 -0.71479,0.24281 -1.07291,0.05817c-3.40154,-7.33383 -6.82262,-14.65731 -10.26325,-21.97046c-1.16228,-3.1949 -2.45066,-6.37197 -3.86277,-9.53024z" data-paper-data="{&quot;index&quot;:null}" fill="#b5cadf" fill-rule="evenodd" stroke="#000000" stroke-width="1" stroke-linecap="butt" opacity="0.466"/><path d="M448.73276,166.54655c1.29469,-0.78338 2.69008,-1.41012 4.18643,-1.8843c-0.37308,0.92743 -0.82541,1.81879 -1.35528,2.67335c-0.52797,-0.48947 -0.91897,-0.39065 -1.16983,0.29906c-0.12605,0.5986 -0.13469,1.20104 -0.02764,1.80805c-0.62511,-0.98894 -1.16856,-1.9548 -1.6337,-2.89617z" data-paper-data="{&quot;index&quot;:null}" fill="#fefffe" fill-rule="evenodd" stroke="#000000" stroke-width="1" stroke-linecap="butt" opacity="0.004"/><path d="M488.52053,149.38709c4.00103,8.97434 7.94939,18.00305 11.84436,27.08447c-4.11004,-8.95381 -8.05767,-17.98085 -11.84436,-27.08447z" data-paper-data="{&quot;index&quot;:null}" fill="#689427" fill-rule="evenodd" stroke="#000000" stroke-width="1" stroke-linecap="butt" opacity="0.986"/><path d="M454.95705,164.29257c21.66886,7.0137 43.30851,14.1556 64.9173,21.42643c0.92886,1.86537 1.74527,3.78067 2.44779,5.7425c-21.69026,-7.40574 -43.36403,-14.86641 -65.02393,-22.3789c-0.27493,0.04334 -0.49227,0.23577 -0.65205,0.57732c-9.604,20.62545 -19.20561,41.25187 -28.80961,61.87731c-0.9051,-1.80963 -1.69704,-3.66751 -2.3758,-5.5736c9.87411,-20.54898 19.70677,-41.10624 29.49629,-61.67105z" data-paper-data="{&quot;index&quot;:null}" fill="#c4c4c4" fill-rule="evenodd" stroke="#000000" stroke-width="1" stroke-linecap="butt"/><path d="M538.68694,286.2744c-9.15906,-21.24362 -18.37217,-42.46421 -27.63596,-63.6632c-1.6636,-2.63393 -3.90203,-4.60768 -6.71458,-5.9196c-3.80846,-1.66777 -7.80852,-2.38968 -12.00157,-2.16909c-9.69905,0.80723 -18.20135,4.4314 -25.5035,10.87109c-3.28111,3.20285 -5.63394,6.96803 -7.06164,11.29288c-0.59121,2.51332 -0.52354,5.01321 0.20231,7.49801c7.45425,18.11032 14.96494,36.1986 22.53138,54.26311c1.31554,3.10962 2.52201,6.25375 3.62188,9.43334c-6.41874,2.93562 -12.89752,5.76313 -19.43564,8.48421c-12.16938,-29.41082 -24.25457,-58.85354 -36.25458,-88.33057c0.95765,-0.4082 1.91362,-0.8157 2.87125,-1.2239c-0.4614,-1.00283 -0.86465,-2.02846 -1.21145,-3.07614c8.48295,-18.01602 16.92927,-36.05235 25.33492,-54.10924c19.49082,6.69868 38.99329,13.3545 58.50741,19.96741c13.17553,29.84215 26.27579,59.71839 39.30171,89.6263c-5.51786,2.35204 -11.03407,4.70337 -16.55195,7.05541z" data-paper-data="{&quot;index&quot;:null}" fill="#6e3232" fill-rule="evenodd" stroke="#000000" stroke-width="1" stroke-linecap="butt"/><path d="M456.86473,162.68106c0.16654,-0.10093 0.34768,-0.14422 0.54268,-0.13154c13.4437,4.52219 26.91144,8.96032 40.40321,13.31435c3.96473,1.7768 8.04361,3.23151 12.23837,4.36339c0.68172,0.27424 1.36586,0.54945 2.04758,0.82369c1.72877,1.11525 3.50328,2.15511 5.32179,3.12035c0.1614,0.06492 0.20891,0.17641 0.14399,0.3378c-20.71211,-6.83874 -41.42251,-13.67819 -62.13461,-20.51694c0.53623,-0.40421 1.01683,-0.84058 1.43699,-1.31108z" data-paper-data="{&quot;index&quot;:null}" fill="#c4c4c4" fill-rule="evenodd" stroke="#000000" stroke-width="1" stroke-linecap="butt" opacity="0.999"/><path d="M592.25688,112.75279c3.55124,8.20007 7.16666,16.37279 10.84892,24.51501c0.13692,0.0075 0.27288,0.01741 0.40979,0.02492c1.86731,3.99209 3.67962,8.00962 5.4369,12.05262c0.42988,0.47939 0.7663,1.03453 1.00928,1.66543c0.4225,1.4126 0.88698,2.81129 1.39005,4.19752c2.23631,4.53933 4.38504,9.11202 6.44619,13.71805c0.46633,0.8271 0.93776,1.62406 1.41771,2.38947c5.76055,12.8587 11.50423,25.71062 17.23418,38.55841c-15.19294,-32.4071 -30.30089,-64.88634 -45.32551,-97.43704c0.22463,-0.09575 0.45096,-0.19223 0.6756,-0.28798c0.06958,0.28967 0.22275,0.48982 0.45686,0.60358z" data-paper-data="{&quot;index&quot;:null}" fill="#30756f" fill-rule="evenodd" stroke="#000000" stroke-width="1" stroke-linecap="butt" opacity="0.33"/><path d="M340.3988,261.2241c28.25104,-11.91651 56.4929,-23.85505 84.72554,-35.81562c-0.04845,0.12043 -0.09691,0.2409 -0.14535,0.36132c0.8147,2.05175 1.59418,4.1145 2.33845,6.1883c-28.138,11.87032 -56.27943,23.73215 -84.42374,35.58719c-0.80459,-2.11792 -1.63603,-4.22442 -2.49488,-6.3212z" data-paper-data="{&quot;index&quot;:null}" fill="#365c43" fill-rule="evenodd" stroke="#000000" stroke-width="1" stroke-linecap="butt"/><path d="M516.81628,190.01631c0.95675,0.17496 1.88431,0.47813 2.78271,0.9095c-0.63791,0.3717 -1.30126,0.68838 -1.99076,0.94836c-0.26422,-0.61985 -0.52772,-1.23802 -0.79193,-1.85787z" data-paper-data="{&quot;index&quot;:null}" fill="#3f581b" fill-rule="evenodd" stroke="#000000" stroke-width="1" stroke-linecap="butt"/><path d="M431.76677,225.0719c0.39015,0.45641 0.68633,0.99677 0.88886,1.61697c-0.66505,0.31741 -1.35287,0.57668 -2.06276,0.77949c0.43381,-0.78966 0.82544,-1.58928 1.17394,-2.39646z" data-paper-data="{&quot;index&quot;:null}" fill="#d7d6d3" fill-rule="evenodd" stroke="#000000" stroke-width="1" stroke-linecap="butt"/><path d="M429.83143,228.49145c0.4391,0.57127 0.7845,1.22236 1.03284,1.95478c-0.7782,0.36565 -1.57919,0.67315 -2.40056,0.92347c0.49874,-0.95106 0.95432,-1.90966 1.36774,-2.87824z" data-paper-data="{&quot;index&quot;:null}" fill="#3f581b" fill-rule="evenodd" stroke="#000000" stroke-width="1" stroke-linecap="butt"/><path d="M517.7522,192.21197c0.88967,-0.41316 1.80383,-0.76888 2.73836,-1.06745c0.81239,0.39815 1.65975,0.66767 2.54181,0.81259c-0.06821,-0.62357 -0.25222,-1.20976 -0.55106,-1.76097c29.05077,-12.22746 58.0919,-24.47278 87.1261,-36.73909c10.93133,23.55182 21.89498,47.08587 32.89001,70.60454c-31.20626,13.09836 -62.41279,26.20083 -93.61618,39.30596c-10.4308,-23.69332 -20.80828,-47.41137 -31.12904,-71.15559z" data-paper-data="{&quot;index&quot;:null}" fill="#365c43" fill-rule="evenodd" stroke="#000000" stroke-width="1" stroke-linecap="butt"/><path d="M351.38562,264.5243c25.48513,-10.86924 51.0081,-21.61691 76.57002,-32.23947c0.95632,-0.60323 1.97299,-1.10244 3.0526,-1.50078c9.02646,22.09847 18.10364,44.17535 27.23316,66.22992c-27.03356,11.33968 -54.07287,22.66583 -81.11778,33.97841c-8.58641,-22.15235 -17.16611,-44.30955 -25.738,-66.46808z" data-paper-data="{&quot;index&quot;:null}" fill="#365c43" fill-rule="evenodd" stroke="#000000" stroke-width="1" stroke-linecap="butt"/><path d="M617.79803,168.92635c0.11264,-0.02606 0.22084,-0.00632 0.32533,0.0609c0.41922,0.74938 0.78415,1.52589 1.09236,2.32856c-0.47993,-0.7654 -0.95138,-1.56237 -1.41771,-2.38947z" data-paper-data="{&quot;index&quot;:null}" fill="#090909" fill-rule="evenodd" stroke="#000000" stroke-width="1" stroke-linecap="butt" opacity="0.004"/><path d="M558.58986,310.62939c-0.91801,0 -1.83602,0 -2.75402,0c0.0202,-0.11384 0.08079,-0.20564 0.1836,-0.27539c0.42779,-0.03121 0.85743,-0.06058 1.28521,-0.0918c0.50857,0.00551 0.93638,0.12852 1.28521,0.3672z" data-paper-data="{&quot;index&quot;:null}" fill="#000000" fill-rule="evenodd" stroke="#000000" stroke-width="1" stroke-linecap="butt" opacity="0.004"/><path d="M458.43928,297.54851l-81.32684,33.30555l-6.93598,-16.91022l80.93791,-36.13337z" data-paper-data="{&quot;index&quot;:null}" fill="#6e3232" fill-rule="nonzero" stroke="#000000" stroke-width="1" stroke-linecap="round"/><path d="M541.1786,243.77414l91.69791,-41.53636l10.40957,22.5054l-94.6504,38.44054z" data-paper-data="{&quot;index&quot;:null}" fill="#6e3232" fill-rule="nonzero" stroke="#000000" stroke-width="1" stroke-linecap="round"/><path d="M498.17258,302.65574l-19.68962,-53.7247l-1.11128,-10.14004l2.51989,-8.14995l5.14007,-3.00744l7.96364,-0.40095l6.68851,3.1362l4.71102,4.52341l22.22451,56.65835z" data-paper-data="{&quot;index&quot;:null}" fill="#6e3426" fill-rule="nonzero" stroke="#000000" stroke-width="1" stroke-linecap="round"/><path d="M385.44059,308.25381l-20.7777,-49.3828l49.61311,-20.87588l19.76206,47.63856z" data-paper-data="{&quot;index&quot;:null}" fill="#363c5c" fill-rule="nonzero" stroke="#000000" stroke-width="1" stroke-linecap="round"/><path d="M563.69062,234.17819l-24.02844,-51.26291l50.89674,-21.69519l23.57157,49.55263z" data-paper-data="{&quot;index&quot;:null}" fill="#363c5c" fill-rule="nonzero" stroke="#000000" stroke-width="1" stroke-linecap="round"/><path d="M581.39707,135.25727l-62.74032,26.47146l-26.64129,-59.94646l61.6907,-27.65694l24.97243,56.03133z" data-paper-data="{&quot;index&quot;:null}" fill="#363c5c" fill-rule="nonzero" stroke="#000000" stroke-width="1" stroke-linecap="round"/><path d="M356.82734,239.69081l-21.38204,-59.73893l58.49672,-24.93474l21.64259,60.98861z" data-paper-data="{&quot;index&quot;:null}" fill="#363c5c" fill-rule="nonzero" stroke="#000000" stroke-width="1" stroke-linecap="round"/><path d="M407.59567,136.88189l8.57419,2.8767l53.23373,-23.23562l2.1481,-5.8143l1.41205,0.75884l27.71368,66.29302l-43.92057,-15.56899l-1.77821,1.57442l-20.13363,41.51192z" data-paper-data="{&quot;index&quot;:null}" fill="#365c43" fill-rule="nonzero" stroke="#000000" stroke-width="1" stroke-linecap="round"/><path d="M468.22281,107.81183c0.99761,1.61057 1.84099,3.34594 2.53275,5.20469c-1.68315,0.71746 -3.36817,1.43571 -5.05213,2.15351c1.43268,-0.92177 2.99036,-1.69036 4.67289,-2.30607c-0.7178,-1.68395 -1.43571,-3.36817 -2.15351,-5.05213z" fill="#878787" fill-rule="evenodd" stroke="none" stroke-width="1" stroke-linecap="butt"/><path d="M467.90477,115.17435c0.89848,-0.69186 1.92476,-1.23428 3.07748,-1.62601c0.49112,1.15216 0.98234,2.30457 1.47346,3.45672c-0.69106,-0.89881 -1.23482,-1.9239 -1.62601,-3.07747c-0.97586,0.41597 -1.94987,0.83115 -2.92492,1.24677z" fill="#b0b0b0" fill-rule="evenodd" stroke="none" stroke-width="1" stroke-linecap="butt"/><path d="M425.02617,187.81101c0.42911,1.24112 1.00889,2.35578 1.73937,3.34337c0.01418,0.24186 -0.04317,0.47589 -0.17216,0.70182c-0.80455,-1.28594 -1.32713,-2.63426 -1.5672,-4.0452z" fill="#8b8b8b" fill-rule="evenodd" stroke="none" stroke-width="1" stroke-linecap="butt"/><path d="M451.7296,124.66779c4.56527,-1.9845 10.35565,0.72963 12.9332,6.06211c2.57756,5.3325 0.96622,11.26411 -3.59907,13.24859c-4.56527,1.9845 -10.35564,-0.72962 -12.9332,-6.0621c-2.57756,-5.3325 -0.96622,-11.26412 3.59907,-13.24859z" data-paper-data="{&quot;index&quot;:null}" fill="#ffffff" fill-rule="nonzero" stroke="#000000" stroke-width="1" stroke-linecap="butt"/><path d="M428.44951,134.78756c4.56527,-1.9845 10.35564,0.72962 12.9332,6.0621c2.57754,5.33251 0.96622,11.26411 -3.59905,13.24861c-4.56527,1.9845 -10.35565,-0.72963 -12.93322,-6.06211c-2.57754,-5.33251 -0.96622,-11.26411 3.59907,-13.24859z" data-paper-data="{&quot;index&quot;:null}" fill="#ffffff" fill-rule="nonzero" stroke="#000000" stroke-width="1" stroke-linecap="butt"/><path d="M431.32981,144.9146c-0.5801,-1.36094 0.05288,-2.93444 1.41381,-3.51454c1.36094,-0.5801 2.93444,0.05288 3.51454,1.41379c0.5801,1.36094 -0.05288,2.93444 -1.4138,3.51454c-1.36094,0.5801 -2.93444,-0.05288 -3.51454,-1.4138z" data-paper-data="{&quot;index&quot;:null}" fill="#000000" fill-rule="nonzero" stroke="none" stroke-width="1" stroke-linecap="butt"/><path d="M452.85665,135.38146c-0.5801,-1.36094 0.05288,-2.93444 1.4138,-3.51454c1.36094,-0.5801 2.93444,0.05288 3.51454,1.4138c0.5801,1.36094 -0.05288,2.93444 -1.4138,3.51454c-1.36094,0.5801 -2.93444,-0.05288 -3.51454,-1.4138z" data-paper-data="{&quot;index&quot;:null}" fill="#000000" fill-rule="nonzero" stroke="none" stroke-width="1" stroke-linecap="butt"/><path d="M366.93533,110.82173c0.28393,-1.15741 1.44135,-0.87349 1.44135,-0.87349l1.87735,0.46084c8.68797,2.54144 17.32632,5.181 25.94756,7.94017c9.50784,3.04292 19.2248,5.24213 28.94916,7.48739c3.51354,0.81124 6.93185,2.23283 10.44956,2.88192c0,0 1.17138,0.2193 0.95209,1.39068c-0.2193,1.17138 -1.39068,0.95209 -1.39068,0.95209c-3.55733,-0.67437 -6.99455,-2.08204 -10.54718,-2.90232c-9.78865,-2.26012 -19.56866,-4.47664 -29.13946,-7.53972c-8.58566,-2.74779 -17.1886,-5.3749 -25.83989,-7.90849l-1.82637,-0.44774c0,0 -1.15741,-0.28393 -0.87349,-1.44135z" fill="#000000" fill-rule="nonzero" stroke="none" stroke-width="0.5" stroke-linecap="butt"/><path d="M465.08205,71.87837c0.90824,0.77156 0.13668,1.67981 0.13668,1.67981l-0.41841,0.45678c-2.36122,4.24989 -4.03233,8.56163 -5.65347,13.15943c-3.16966,8.98878 -5.3677,18.32966 -8.30758,27.41362c-1.14968,3.55237 -1.76468,7.92765 -4.1493,10.81098c0,0 -0.77156,0.90824 -1.67981,0.13668c-0.90824,-0.77156 -0.13668,-1.67981 -0.13668,-1.67981c2.1648,-2.45889 2.68849,-6.88212 3.69812,-10.00174c2.9463,-9.10377 5.15068,-18.46346 8.32744,-27.47235c1.66483,-4.72079 3.39445,-9.15616 5.81742,-13.52373l0.68577,-0.84299c0,0 0.77156,-0.90824 1.67981,-0.13668z" fill="#000000" fill-rule="nonzero" stroke="none" stroke-width="0.5" stroke-linecap="butt"/><path d="M469.36374,135.05865c0.35581,-0.88451 1.24031,-0.52869 1.24031,-0.52869l0.57416,0.2837c4.47899,3.80496 5.79469,11.1276 5.02187,16.73376c-1.29397,9.33933 -7.72092,18.07575 -16.63162,21.82164c-2.99913,1.26078 -6.30568,1.25232 -9.49553,1.3914c-10.56356,-0.64858 -19.66631,-5.7329 -26.07541,-14.19793c0,0 -0.57539,-0.76018 0.18478,-1.33557c0.76018,-0.57539 1.33557,0.18478 1.33557,0.18478c6.03446,7.97466 14.60907,12.84246 24.57084,13.44201c2.92085,-0.13095 5.99011,-0.08807 8.73725,-1.24096c8.29996,-3.48321 14.28599,-11.64549 15.48533,-20.32671c0.6898,-4.96675 -0.39721,-11.64635 -4.36759,-15.01924l-0.05128,0.03211c0,0 -0.88451,-0.35581 -0.52869,-1.24031z" fill="#000000" fill-rule="nonzero" stroke="none" stroke-width="0.5" stroke-linecap="butt"/><path d="M363.35086,324.83086l-20.91631,133.28215l233.6204,-140.00181l12.4646,-36.40474l26.19584,-16.34814l24.88816,12.19171l21.96998,32.09056l-8.30973,24.26982l-34.96615,20.08657l-21.39423,-6.42632l-264.31654,153.08631l-12.8826,-5.90893l-7.73556,-13.28484l23.3739,-173.7124z" fill="#6e3232" fill-rule="nonzero" stroke="#000000" stroke-width="1" stroke-linecap="round"/><path d="M646.23888,172.77718l190.91555,163.09216l22.88126,-10.01055l13.34741,13.34741l5.24362,24.78803l-6.00634,20.02111l-14.30079,6.6737l-1.71609,2.38347l-13.34741,-1.90677l-12.39402,-19.06772l2.38347,-9.53386l-194.21808,-164.45909z" fill="#6e3232" fill-rule="nonzero" stroke="#000000" stroke-width="1" stroke-linecap="round"/></g></g></svg>