<svg version="1.1" xmlns="http://www.w3.org/2000/svg" xmlns:xlink="http://www.w3.org/1999/xlink" width="123" height="108" viewBox="0,0,123,108"><g transform="translate(-258.5,-126)"><g data-paper-data="{&quot;isPaintingLayer&quot;:true}" fill-rule="nonzero" stroke-linecap="butt" stroke-linejoin="miter" stroke-miterlimit="10" stroke-dasharray="" stroke-dashoffset="0" style="mix-blend-mode: normal"><path d="M259,233.5v-107h122v107z" fill="#ff0000" stroke="#000000" stroke-width="1"/><text transform="translate(265.78751,150.52501) scale(0.59751,0.59751)" font-size="40" xml:space="preserve" fill="#000000" fill-rule="nonzero" stroke="none" stroke-width="1" stroke-linecap="butt" stroke-linejoin="miter" stroke-miterlimit="10" stroke-dasharray="" stroke-dashoffset="0" font-family="&quot;Gord&quot;, Serif" font-weight="normal" text-anchor="start" style="mix-blend-mode: normal"><tspan x="0" dy="0">$75</tspan></text><text transform="translate(263.04914,215.40268) scale(0.45133,0.45133)" font-size="40" xml:space="preserve" fill="#00e2ff" fill-rule="nonzero" stroke="#000000" stroke-width="2" stroke-linecap="butt" stroke-linejoin="miter" stroke-miterlimit="10" stroke-dasharray="" stroke-dashoffset="0" font-family="&quot;Crystal Universe Regular&quot;, Sans Serif" font-weight="normal" text-anchor="start" style="mix-blend-mode: normal"><tspan x="0" dy="0">Freeze</tspan></text><path d="M277.12516,172.97565c-0.79057,-2.37171 1.58114,-3.16228 1.58114,-3.16228l1.80228,-0.53604c2.68272,-0.26634 5.38049,-0.42897 8.0764,-0.42773c5.07782,-0.6352 9.99862,-1.76206 15.14275,-2.10179c2.88378,-0.19045 5.6403,0.15524 8.51328,-0.38347c2.32327,-0.43563 4.53919,-1.15994 6.7507,-1.90665c-3.2969,-3.29642 -6.56833,-6.63887 -10.05772,-9.72564c-2.60198,-2.30176 -5.60212,-4.0615 -8.31037,-6.22438l-1.82529,-1.06891c0,0 -2.14373,-1.28624 -0.85749,-3.42997c1.28624,-2.14373 3.42997,-0.85749 3.42997,-0.85749l2.37628,1.45203c2.77351,2.22295 5.81675,4.02206 8.49591,6.38033c4.22435,3.71839 8.12468,7.81835 12.12853,11.76772c0.34945,-0.09395 0.70076,-0.18337 1.0543,-0.26727c2.74894,-2.50222 5.42568,-5.08927 8.2807,-7.49629c4.16482,-3.51129 8.69685,-9.34867 13.87505,-11.21381c1.36746,-0.49255 2.88425,-0.36236 4.32638,-0.54354c0,0 2.48471,-0.27608 2.76079,2.20863c0.27608,2.48471 -2.20863,2.76079 -2.20863,2.76079c-6.47223,0.5935 -10.7386,6.56964 -15.53052,10.61047c-0.98082,0.82709 -1.94021,1.67581 -2.88866,2.53509c7.47087,-0.43151 15.45766,0.24162 22.53641,0.78416c0,0 2.49264,0.19174 2.30089,2.68438c-0.19174,2.49264 -2.68438,2.30089 -2.68438,2.30089c-5.27534,-0.40732 -10.48707,-0.41279 -15.77423,-0.41279c-3.85178,0 -7.8262,-0.33287 -11.65858,0.22721c4.46505,4.00547 9.45076,7.51687 13.6458,11.82749c4.13911,4.25316 7.15979,11.19858 13.49199,11.96126c0,0 2.47487,0.35355 2.12132,2.82843c-0.35355,2.47487 -2.82843,2.12132 -2.82843,2.12132c-8.08338,-1.28291 -11.08752,-7.99103 -16.36918,-13.42491c-4.38565,-4.51205 -9.65845,-8.13526 -14.2697,-12.38536c-5.80168,4.70352 -12.24226,8.66664 -17.46931,14.08144c-2.32289,2.40633 -4.15353,5.25859 -6.48644,7.65521c-1.47763,1.51798 -3.15496,2.89333 -4.31462,4.66613l-1.57283,1.64149c0,0 -1.76777,1.76777 -3.53553,0c-1.76777,-1.76777 0,-3.53553 0,-3.53553l0.94811,-0.87945c1.36835,-2.0219 3.22462,-3.66947 4.92884,-5.41764c2.31817,-2.37796 4.12815,-5.21706 6.43666,-7.60441c3.50424,-3.62393 7.52664,-6.61421 11.54756,-9.60066c-0.62552,0.1576 -1.25737,0.29914 -1.89775,0.41921c-3.09272,0.57986 -6.03679,0.24832 -9.13332,0.45685c-5.13088,0.34553 -10.03634,1.46615 -15.10856,2.09978c-2.63345,0.00119 -5.26939,0.14856 -7.88957,0.41258l-0.71866,0.30427c0,0 -2.37171,0.79057 -3.16228,-1.58114z" fill="#00e2ff" stroke="none" stroke-width="0.5"/></g></g></svg>