<svg version="1.1" xmlns="http://www.w3.org/2000/svg" xmlns:xlink="http://www.w3.org/1999/xlink" width="852.30025" height="363.8015" viewBox="0,0,852.30025,363.8015"><g transform="translate(123.88816,-41.68322)"><g data-paper-data="{&quot;isPaintingLayer&quot;:true}" stroke-linejoin="miter" stroke-miterlimit="10" stroke-dasharray="" stroke-dashoffset="0" style="mix-blend-mode: normal"><path d="M562.95142,365.44036l-12.44861,-27.31735l59.13092,0.24175l21.16263,27.0756z" data-paper-data="{&quot;index&quot;:null}" fill="#cedce9" fill-rule="nonzero" stroke="#000000" stroke-width="1" stroke-linecap="round"/><path d="M636.42085,364.02075c-1.60035,0.29944 -3.17365,0.47077 -4.73125,0.5943c0.01054,0.04599 0.016,0.09399 0.016,0.14403c0,1.21922 -3.25814,1.21922 -3.25814,1.21922c-14.39019,0 -28.78035,0 -43.17051,0c-3.703,0 -12.91706,-0.55313 -15.64819,0.1761c-1.57319,0.42004 -2.69944,0.37847 -4.71528,0.43351c-0.22755,0.00622 -0.64138,0.01951 -1.00703,0.02769c1.94924,0.52074 1.00703,5.333 1.00703,6.67808c0,5.68975 0,11.37949 0,17.06924c0,1.01601 0,2.03207 0,3.04808c0,0.40641 -0.57304,1.56447 0,1.21922c2.1802,-1.31344 6.43497,-0.60725 11.40354,-0.60961c9.79411,-0.00463 20.27977,-0.39657 29.8991,0.26277c17.56555,1.31464 36.45134,-0.78575 53.87673,0.67894c14.67614,1.37298 32.24425,1.49671 47.36477,1.49671c3.80122,0 7.60236,0 11.40356,0c0.57192,0 1.46991,-0.02882 2.39965,-0.06042c-0.93526,-0.62546 0.04397,-2.13795 0.04397,-2.98766c0,-3.17432 2.84347,-8.64999 -0.64731,-11.50195c-3.08482,-3.4631 -5.03621,-6.79739 -10.06821,-10.25113c-3.71277,-2.54831 -9.49247,-4.80716 -12.56439,-7.33851c-1.48929,-1.50866 -2.82252,-0.43043 -7.67244,-0.77959c-10.73166,-0.77259 -21.49499,-0.60961 -32.58152,-0.60961c-4.04112,0 -9.11642,0.30704 -13.03264,0c-0.82667,-0.0648 -2.3803,-0.30574 -3.54482,-0.50307c2.12997,0.61578 -2.73028,1.21146 -4.77257,1.59358zM585.27679,363.53983c10.87565,0 21.75132,0 32.62694,0c0.31374,-0.0587 0.6274,-0.11739 0.94112,-0.1761c4.13239,-0.7732 7.86325,-0.56829 11.40356,-0.91442c4.82473,-0.4717 7.71066,-2.06032 12.68866,-2.43846c2.85966,-0.21723 10.78,0.48091 14.83366,0.48091c10.99167,0 21.97127,-0.23519 32.58151,0.60962c5.96041,0.47457 10.99767,-0.45062 13.78506,2.37308c0.41092,1.07263 3.69976,1.74305 5.41992,2.56818c2.62882,1.261 4.82605,3.12857 6.86026,4.52474c5.04279,3.46116 7.26009,7.02111 10.42183,10.57054c2.82551,3.74138 0.98174,8.38088 0.98174,12.27305c0,2.15183 0.90627,3.66845 -3.25814,5.48655c-1.45222,0.63399 -14.8682,0 -17.1053,0c-15.59612,0 -33.81908,-0.15446 -48.94523,-1.56954c-16.61742,-1.81762 -36.39799,0.63201 -53.57426,-0.65348c-13.84133,-1.16666 -35.20592,1.94123 -46.54094,-2.04428c-1.12222,-0.3946 0,-3.61761 0,-4.26731c0,-5.68975 0,-11.37948 0,-17.06922c0,-1.90229 -2.24087,-6.44411 1.15855,-7.86066c5.93224,-2.47202 17.0345,-1.89319 25.72116,-1.89319z" data-paper-data="{&quot;index&quot;:null}" fill="#000000" fill-rule="nonzero" stroke="none" stroke-width="1" stroke-linecap="butt"/><path d="M631.64418,364.55647c1.55752,-0.12354 3.14983,-0.29648 4.75026,-0.59592c2.04229,-0.38211 6.92185,-0.97852 4.79184,-1.59431c1.16452,0.19731 2.73109,0.43822 3.5577,0.50304c3.91622,0.30704 9.03696,0.00305 13.078,0.00305c11.08645,0 21.91969,-0.14588 32.65133,0.62671c4.84992,0.34916 6.19328,-0.72445 7.68254,0.78421c3.07197,2.53134 8.87604,4.80835 12.58888,7.35667c5.032,3.45375 6.99008,6.81116 10.0749,10.27428c3.49085,2.85194 0.63205,8.34873 0.63205,11.52304c0,0.84971 -0.98532,2.36653 -0.05003,2.99199c-0.9297,0.0316 -1.82891,0.0612 -2.40088,0.0612c-3.80119,0 -7.60902,0.00383 -11.4102,0.00383c-15.12064,0 -32.76005,-0.1025 -47.4362,-1.47549c-17.42538,-1.46469 -36.48379,0.62387 -54.04937,-0.69077c-9.6193,-0.65936 -20.13462,-0.28134 -29.92873,-0.2767c-4.96851,0.00236 -9.22718,-0.70645 -11.40738,0.60699c-0.57304,0.34522 -0.00246,-0.81465 -0.00246,-1.22106c0,-1.01601 -0.00558,-2.03699 -0.00558,-3.05301c0,-5.68975 -0.00679,-11.41332 -0.00679,-17.10309c0,-1.34509 0.95212,-6.16901 -0.99714,-6.68976c0.3657,-0.00818 0.77987,-0.02178 1.0074,-0.02798c2.01576,-0.05502 3.14457,-0.0155 4.71772,-0.43553c2.73114,-0.72922 11.95357,-0.18176 15.65655,-0.18176c14.39026,0 28.8571,-0.02424 43.24726,-0.02424c0,0 3.27414,-0.00208 3.27414,-1.22131c0,-0.05005 -0.00508,-0.09806 -0.01563,-0.14406z" data-paper-data="{&quot;noHover&quot;:false,&quot;origItem&quot;:[&quot;Path&quot;,{&quot;applyMatrix&quot;:true,&quot;segments&quot;:[[[579.60736,595.76373],[0.95609,-0.20262],[0.00646,0.07548]],[[579.61718,596],[0,-0.08208],[0,2]],[[577.61718,598],[0,0],[-8.83333,0]],[[551.11718,598],[8.83333,0],[-2.27308,0]],[[541.51161,598.28885],[1.67648,-1.19621],[-0.96568,0.68904]],[[538.61718,599],[1.23739,-0.09027],[-0.13966,0.01019]],[[537.99901,599.04541],[0.22447,-0.0134],[1.19653,0.85421]],[[538.61718,610],[0,-2.20646],[0,9.33333]],[[538.61718,638],[0,-9.33333],[0,1.66667]],[[538.61718,643],[0,-1.66667],[0,0.66667]],[[538.61718,645],[-0.35177,0.56631],[1.33831,-2.15456]],[[545.61718,644],[-3.04994,0.00386],[6.01206,-0.00761]],[[563.97058,644.43107],[-5.90478,-1.08158],[10.78253,2.15651]],[[597.04254,645.54479],[-10.6965,-2.40266],[9.00888,2.25222]],[[626.11718,648],[-9.28168,0],[2.33333,0]],[[633.11718,648],[-2.33333,0],[0.35109,0]],[[634.59021,647.90091],[-0.5707,0.05184],[-0.57412,-1.02596]],[[634.61718,643],[0,1.39387],[0,-5.20707]],[[634.21982,624.13246],[2.14282,4.67827],[-1.8936,-5.6808]],[[628.03948,607.31672],[3.08887,5.66543],[-2.2791,-4.1802]],[[620.32688,595.27881],[1.8857,4.15235],[-0.91417,-2.47477]],[[615.61718,594],[2.9771,0.57275],[-6.58756,-1.26734]],[[595.61718,593],[6.8054,0],[-2.48058,0]],[[587.61718,593],[2.40395,0.50364],[-0.50743,-0.10631]],[[585.44122,592.1748],[0.71481,0.32365],[1.30749,1.01011]],[[582.51161,594.78885],[1.25365,-0.62682],[-0.98239,0.4912]]],&quot;closed&quot;:true}],&quot;index&quot;:null}" fill="#686868" fill-rule="nonzero" stroke="none" stroke-width="1" stroke-linecap="butt"/><path d="M677.31972,369.02635c0,-0.14138 -0.04512,-0.37814 -0.08826,-0.61074c-0.16782,0.09438 -0.41816,0.17487 -0.74008,0.2433c-0.96534,0.36742 -2.42985,0.36744 -2.42985,0.36744c-12.41033,0 -19.57833,3.23666 -23.96554,6.64142c-0.51612,0.38629 -0.47053,0.8517 -0.47053,1.28357c0,0.12288 -0.03139,0.31815 -0.06571,0.52016c0.03281,-0.06504 0.11472,-0.11847 0.28148,-0.15277c0.73694,-0.15157 7.14344,0.77598 7.92956,0.24225c0.23624,-0.1604 -1.1588,-0.19061 -1.08186,-0.37149c0.94631,-2.22372 10.98217,-5.58729 15.91556,-6.51036c1.27952,-0.23943 2.71992,-0.35988 4.15182,-0.41504c-0.55984,-0.32627 0.56338,-0.82567 0.56338,-1.23771zM649.54251,377.5724c-0.07388,0.43344 -0.13947,0.84779 0.08289,0.59817c0.152,-0.17058 -0.06742,-0.41005 -0.08289,-0.59817zM644.26769,374.57725c4.65657,-3.285 10.84972,-6.28026 20.50092,-7.45917c0.90659,-0.53017 2.77668,-0.53017 2.77668,-0.53017h1.62906c3.68874,0 5.6403,-0.4809 9.60249,-0.4809c5.50253,0 6.77805,4.09441 3.90065,5.29347c-1.81574,0.75663 -4.72821,1.00489 -7.15884,1.45967c-7.19471,1.34617 -9.86427,5.21452 -17.74784,7.13929c-8.35559,2.03999 -17.55445,-2.39011 -13.50313,-5.42218z" data-paper-data="{&quot;index&quot;:null}" fill="#000000" fill-rule="nonzero" stroke="none" stroke-width="1" stroke-linecap="butt"/><path d="M677.35249,368.37475c0.04325,0.23259 0.0959,0.47274 0.0959,0.61411c0,0.41204 -1.10986,0.91895 -0.55002,1.24524c-1.43193,0.05517 -2.88059,0.17066 -4.16015,0.41009c-4.93344,0.92305 -15.01772,4.26956 -15.96401,6.49328c-0.07702,0.18089 1.16331,0.31819 0.92704,0.47859c-0.78614,0.53371 -7.24815,-0.40986 -7.98508,-0.2583c-0.16683,0.03432 -0.24798,0.08807 -0.28073,0.15313c0.03432,-0.20202 0.05969,-0.4001 0.05969,-0.52298c0,-0.43186 -0.0598,-0.90576 0.45632,-1.29203c4.38719,-3.40477 11.81394,-6.71302 24.22425,-6.71302c0,0 1.47115,0.00262 2.43649,-0.36482c0.32194,-0.06845 0.57241,-0.14889 0.74014,-0.24327z" data-paper-data="{&quot;noHover&quot;:false,&quot;origItem&quot;:[&quot;Path&quot;,{&quot;applyMatrix&quot;:true,&quot;segments&quot;:[[[607.563,601.99816],[0.02649,0.38155],[-0.10299,0.15484]],[[607.10872,602.39727],[0.1976,-0.11227],[-0.59254,0.60273]],[[605.61718,603],[0,0],[-7.618,0]],[[590.90604,613.89443],[2.69308,-5.58508],[-0.31682,0.63364]],[[590.61718,616],[0,-0.70843],[0,0.20156]],[[590.57685,616.85325],[0.02106,-0.33136],[0.02013,-0.10671]],[[590.74964,616.60263],[-0.10238,0.05628],[0.45234,-0.24865]],[[595.61718,617],[-0.48256,0.87548],[0.14503,-0.26312]],[[594.95308,616.3906],[-0.04725,0.29671],[0.58086,-3.64773]],[[604.72276,605.71115],[-3.02833,1.51416],[0.78545,-0.39273]],[[607.27135,605.03032],[-0.87898,0.0905],[-0.34365,-0.53523]],[[607.61718,603],[0,0.6759],[0,-0.23192]]],&quot;closed&quot;:true}],&quot;index&quot;:null}" fill="#ffffff" fill-rule="nonzero" stroke="none" stroke-width="1" stroke-linecap="butt"/><path d="M223.36887,370.52722l21.16265,-27.07558l59.1309,-0.24175l-12.44861,27.31733z" fill="#cedce9" fill-rule="nonzero" stroke="#000000" stroke-width="1" stroke-linecap="round"/><path d="M227.51628,365.19885c-2.04227,-0.38212 -6.90253,-0.97779 -4.77257,-1.59358c-1.16452,0.19732 -2.71814,0.43825 -3.54482,0.50305c-3.91622,0.30704 -8.99151,0 -13.03264,0c-11.08652,0 -21.84987,-0.16297 -32.58152,0.60961c-4.84995,0.34916 -6.18318,-0.72907 -7.67247,0.77959c-3.07193,2.53134 -8.85165,4.79019 -12.56439,7.33851c-5.032,3.45375 -6.98339,6.78802 -10.06821,10.25113c-3.49081,2.85194 -0.64731,8.32762 -0.64731,11.50193c0,0.84971 0.97923,2.36221 0.04397,2.98766c0.92975,0.0316 1.82774,0.06042 2.39965,0.06042c3.80119,0 7.60234,0 11.40355,0c15.12055,0 32.68862,-0.12373 47.36477,-1.49671c17.42538,-1.4647 36.31117,0.63568 53.87673,-0.67895c9.6193,-0.65936 20.10496,-0.26742 29.89908,-0.26278c4.96856,0.00236 9.22334,-0.70383 11.40354,0.60962c0.57304,0.34524 0,-0.81282 0,-1.21922c0,-1.01601 0,-2.03206 0,-3.04808c0,-5.68975 0,-11.37949 0,-17.06924c0,-1.34509 -0.94221,-6.15736 1.00703,-6.67808c-0.36568,-0.00818 -0.77951,-0.02146 -1.00703,-0.02768c-2.01583,-0.05504 -3.14207,-0.01347 -4.71528,-0.43351c-2.73114,-0.72923 -11.94521,-0.1761 -15.64822,-0.1761c-14.39016,0 -28.78031,0 -43.17051,0c0,0 -3.25814,0 -3.25814,-1.21922c0,-0.05005 0.00547,-0.09803 0.016,-0.14403c-1.55756,-0.12354 -3.13089,-0.29486 -4.73125,-0.5943zM278.66021,364.71794c8.68667,0 19.78893,-0.57883 25.72116,1.89319c3.39944,1.41657 1.15855,5.95837 1.15855,7.86066c0,5.68975 0,11.37949 0,17.06924c0,0.64971 1.12222,3.87271 0,4.26731c-11.33501,3.98551 -32.6996,0.87761 -46.54094,2.04428c-17.17626,1.28551 -36.95684,-1.16414 -53.57423,0.65349c-15.12612,1.41508 -33.3491,1.56954 -48.94523,1.56954c-2.2371,0 -15.6531,0.63399 -17.1053,0c-4.16441,-1.81809 -3.25814,-3.33471 -3.25814,-5.48655c0,-3.89217 -1.84377,-8.53166 0.98175,-12.27305c3.16173,-3.54943 5.37904,-7.10938 10.42183,-10.57053c2.03421,-1.39618 4.23145,-3.26374 6.86027,-4.52475c1.72017,-0.82513 5.00901,-1.49555 5.41992,-2.56819c2.78739,-2.8237 7.82463,-1.8985 13.78506,-2.37308c10.61024,-0.8448 21.58988,-0.60962 32.58152,-0.60962c4.05365,0 11.97402,-0.69813 14.83365,-0.48091c4.97801,0.37814 7.86393,1.96675 12.68866,2.43846c3.5403,0.34614 7.27116,0.14124 11.40355,0.91442c0.31373,0.0587 0.6274,0.11739 0.94114,0.1761c10.87562,0 21.75127,0 32.62692,0z" data-paper-data="{&quot;index&quot;:null}" fill="#000000" fill-rule="nonzero" stroke="none" stroke-width="1" stroke-linecap="butt"/><path d="M232.29279,365.73459c-0.01056,0.04603 -0.01563,0.09403 -0.01563,0.14406c0,1.21922 3.27414,1.22131 3.27414,1.22131c14.39016,0 28.85701,0.02424 43.24726,0.02424c3.70299,0 12.92542,-0.54746 15.65655,0.18176c1.57314,0.42004 2.70197,0.38051 4.71772,0.43553c0.22755,0.00622 0.64171,0.01983 1.0074,0.02801c-1.94926,0.52074 -0.99714,5.34466 -0.99714,6.68975c0,5.68975 -0.00678,11.41333 -0.00678,17.10309c0,1.01601 -0.00558,2.03699 -0.00558,3.05301c0,0.40641 0.57058,1.56629 -0.00246,1.22106c-2.1802,-1.31344 -6.43884,-0.60464 -11.40738,-0.60699c-9.79411,-0.00463 -20.30942,-0.38266 -29.92873,0.27669c-17.56558,1.31464 -36.62399,-0.77393 -54.04937,0.69077c-14.67614,1.37299 -32.31556,1.4755 -47.4362,1.4755c-3.80119,0 -7.609,-0.00383 -11.4102,-0.00383c-0.57197,0 -1.47119,-0.0296 -2.40088,-0.0612c0.93529,-0.62546 -0.05003,-2.14227 -0.05003,-2.99199c0,-3.17432 -2.8588,-8.6711 0.63202,-11.52305c3.08482,-3.4631 5.0429,-6.82052 10.07492,-10.27426c3.71282,-2.54831 9.51693,-4.82535 12.58886,-7.35667c1.48929,-1.50866 2.83263,-0.43505 7.68257,-0.7842c10.73163,-0.77259 21.56485,-0.62671 32.65133,-0.62671c4.04101,0 9.16177,0.30399 13.078,-0.00305c0.82661,-0.06483 2.39318,-0.30573 3.5577,-0.50304c-2.13002,0.61578 2.74957,1.21219 4.79184,1.59431c1.60042,0.29944 3.19271,0.47239 4.75026,0.59592z" data-paper-data="{&quot;noHover&quot;:false,&quot;origItem&quot;:[&quot;Path&quot;,{&quot;applyMatrix&quot;:true,&quot;segments&quot;:[[[579.60736,595.76373],[0.95609,-0.20262],[0.00646,0.07548]],[[579.61718,596],[0,-0.08208],[0,2]],[[577.61718,598],[0,0],[-8.83333,0]],[[551.11718,598],[8.83333,0],[-2.27308,0]],[[541.51161,598.28885],[1.67648,-1.19621],[-0.96568,0.68904]],[[538.61718,599],[1.23739,-0.09027],[-0.13966,0.01019]],[[537.99901,599.04541],[0.22447,-0.0134],[1.19653,0.85421]],[[538.61718,610],[0,-2.20646],[0,9.33333]],[[538.61718,638],[0,-9.33333],[0,1.66667]],[[538.61718,643],[0,-1.66667],[0,0.66667]],[[538.61718,645],[-0.35177,0.56631],[1.33831,-2.15456]],[[545.61718,644],[-3.04994,0.00386],[6.01206,-0.00761]],[[563.97058,644.43107],[-5.90478,-1.08158],[10.78253,2.15651]],[[597.04254,645.54479],[-10.6965,-2.40266],[9.00888,2.25222]],[[626.11718,648],[-9.28168,0],[2.33333,0]],[[633.11718,648],[-2.33333,0],[0.35109,0]],[[634.59021,647.90091],[-0.5707,0.05184],[-0.57412,-1.02596]],[[634.61718,643],[0,1.39387],[0,-5.20707]],[[634.21982,624.13246],[2.14282,4.67827],[-1.8936,-5.6808]],[[628.03948,607.31672],[3.08887,5.66543],[-2.2791,-4.1802]],[[620.32688,595.27881],[1.8857,4.15235],[-0.91417,-2.47477]],[[615.61718,594],[2.9771,0.57275],[-6.58756,-1.26734]],[[595.61718,593],[6.8054,0],[-2.48058,0]],[[587.61718,593],[2.40395,0.50364],[-0.50743,-0.10631]],[[585.44122,592.1748],[0.71481,0.32365],[1.30749,1.01011]],[[582.51161,594.78885],[1.25365,-0.62682],[-0.98239,0.4912]]],&quot;closed&quot;:true}],&quot;index&quot;:null}" fill="#686868" fill-rule="nonzero" stroke="none" stroke-width="1" stroke-linecap="butt"/><path d="M186.61742,370.2045c0,0.41205 1.12322,0.91145 0.56338,1.23771c1.43191,0.05517 2.8723,0.17561 4.15185,0.41504c4.93339,0.92307 14.96926,4.28664 15.91555,6.51035c0.07693,0.18088 -1.31812,0.2111 -1.08187,0.3715c0.78614,0.53371 7.19266,-0.39382 7.92956,-0.24225c0.16676,0.03432 0.24871,0.08775 0.28151,0.15277c-0.03432,-0.202 -0.06573,-0.39728 -0.06573,-0.52016c0,-0.43188 0.04559,-0.8973 -0.47053,-1.28358c-4.38722,-3.40475 -11.55523,-6.64142 -23.96557,-6.64142c0,0 -1.46451,-0.00001 -2.42985,-0.36742c-0.32194,-0.06845 -0.57225,-0.14891 -0.74008,-0.2433c-0.04314,0.23259 -0.08826,0.46936 -0.08826,0.61074zM214.31171,379.3487c0.22236,0.24962 0.15677,-0.16471 0.08289,-0.59817c-0.01546,0.18812 -0.23488,0.42759 -0.08289,0.59817zM219.66947,375.75537c4.05131,3.03207 -5.14755,7.46218 -13.50316,5.42218c-7.88358,-1.92477 -10.55315,-5.79312 -17.74784,-7.13928c-2.43061,-0.45478 -5.34311,-0.70304 -7.15884,-1.45967c-2.8774,-1.19905 -1.60188,-5.29347 3.90065,-5.29347c3.96219,0 5.91376,0.48089 9.60249,0.48089h1.62906c0,0 1.87005,0 2.77668,0.53017c9.65123,1.17892 15.84435,4.17417 20.50092,7.45918z" data-paper-data="{&quot;index&quot;:null}" fill="#000000" fill-rule="nonzero" stroke="none" stroke-width="1" stroke-linecap="butt"/><path d="M186.58473,369.55287c0.16771,0.09438 0.4182,0.17483 0.74014,0.24328c0.96534,0.36742 2.43649,0.36482 2.43649,0.36482c12.41031,0 19.83709,3.30825 24.22425,6.71302c0.51614,0.38629 0.45632,0.86019 0.45632,1.29205c0,0.12288 0.02538,0.32096 0.05969,0.52296c-0.03276,-0.06506 -0.11389,-0.1188 -0.28073,-0.15312c-0.73694,-0.15157 -7.19894,0.792 -7.98508,0.2583c-0.23628,-0.1604 1.00406,-0.2977 0.92704,-0.47858c-0.94626,-2.22372 -11.03056,-5.57021 -15.96399,-6.49329c-1.27958,-0.23943 -2.72822,-0.35491 -4.16015,-0.41008c0.55984,-0.32629 -0.55002,-0.8332 -0.55002,-1.24524c0,-0.14138 0.05264,-0.38152 0.0959,-0.61411z" data-paper-data="{&quot;noHover&quot;:false,&quot;origItem&quot;:[&quot;Path&quot;,{&quot;applyMatrix&quot;:true,&quot;segments&quot;:[[[607.563,601.99816],[0.02649,0.38155],[-0.10299,0.15484]],[[607.10872,602.39727],[0.1976,-0.11227],[-0.59254,0.60273]],[[605.61718,603],[0,0],[-7.618,0]],[[590.90604,613.89443],[2.69308,-5.58508],[-0.31682,0.63364]],[[590.61718,616],[0,-0.70843],[0,0.20156]],[[590.57685,616.85325],[0.02106,-0.33136],[0.02013,-0.10671]],[[590.74964,616.60263],[-0.10238,0.05628],[0.45234,-0.24865]],[[595.61718,617],[-0.48256,0.87548],[0.14503,-0.26312]],[[594.95308,616.3906],[-0.04725,0.29671],[0.58086,-3.64773]],[[604.72276,605.71115],[-3.02833,1.51416],[0.78545,-0.39273]],[[607.27135,605.03032],[-0.87898,0.0905],[-0.34365,-0.53523]],[[607.61718,603],[0,0.6759],[0,-0.23192]]],&quot;closed&quot;:true}],&quot;index&quot;:null}" fill="#ffffff" fill-rule="nonzero" stroke="none" stroke-width="1" stroke-linecap="butt"/><path d="M375.18267,190.67308v-3.49104l234.03398,-0.58184l36.10099,175.71599l-115.77212,0.58183l-26.61518,-123.27923l-13.64327,-6.23871l-12.62304,4.06043l-9.01268,8.29186l-161.87812,118.32932l-104.40705,-1.18604z" fill="#8d5653" fill-rule="nonzero" stroke="#000000" stroke-width="1" stroke-linecap="round"/><path d="M612.09212,195.22662c-3.12387,0.1715 -6.27698,0.22878 -9.46106,0.17201c0,0.22931 0,0.45878 0,0.68808c-0.16342,-0.2441 -0.22018,-0.53068 -0.17201,-0.86009c3.2116,0 6.42148,0 9.63308,0z" fill="#a7a7a7" fill-rule="evenodd" stroke="none" stroke-width="1" stroke-linecap="butt"/><path d="M546.20872,192.81834c0.1703,1.40196 0.22878,2.83539 0.17202,4.30048c-1.40712,0.05607 -2.78327,-0.00137 -4.12846,-0.17201c1.31939,0 2.63706,0 3.95645,0c0,-1.37615 0,-2.75231 0,-4.12846z" fill="#8e8e8e" fill-rule="evenodd" stroke="none" stroke-width="1" stroke-linecap="butt"/><path d="M500.10755,196.08671c-1.29359,0.0559 -2.55449,-0.00138 -3.78443,-0.17202c1.22994,0.17064 2.49084,0.22793 3.78443,0.17202c0,-1.0894 0,-2.17897 0,-3.26837c0,1.0894 0,2.17897 0,3.26837z" fill="#7f7f7f" fill-rule="evenodd" stroke="none" stroke-width="1" stroke-linecap="butt"/><path d="M619.67083,101.74464c-15.11055,0.16364 -30.21996,0.35255 -45.32938,0.56662c0,-0.49103 0,-0.98217 0,-1.4732c0.29918,-0.37465 0.63914,-0.71462 1.01991,-1.01991c3.17419,0.01677 6.34724,-0.03989 9.51917,-0.16998c-2.07722,-1.77544 -4.15557,-3.55076 -6.23279,-5.3262c-0.09406,-0.07797 -0.16998,-0.05904 -0.22665,0.05667c0.10879,0.67303 0.14619,1.35297 0.11332,2.03982c-20.17044,-17.29939 -40.30349,-34.63788 -60.4014,-52.01546c-0.04533,-0.11616 -0.12012,-0.13505 -0.22664,-0.05667c-19.35904,17.92403 -38.71923,35.84795 -58.07827,53.77197c-0.05553,-0.14653 -0.07479,-0.2977 -0.05666,-0.45329c-0.01926,-0.86965 0,-1.73849 0.05666,-2.60644c19.37831,-17.79178 38.75662,-35.58356 58.13493,-53.37535c3.90513,3.26281 7.77739,6.56812 11.61565,9.9158c0.11332,0.07558 0.22665,0.07558 0.33997,0c0.17565,-0.21441 0.38416,-0.38439 0.62328,-0.50995c19.08933,16.10451 38.14694,32.2531 57.17168,48.44577c10.69094,-0.0485 21.38073,-0.18064 32.07054,-0.39663c0.04193,0.5656 0.08046,1.13221 0.11332,1.69985c-0.00226,0.35017 -0.07819,0.6524 -0.22664,0.90659z" fill="#e3e3e3" fill-rule="evenodd" stroke="none" stroke-width="1" stroke-linecap="butt"/><path d="M518.13301,44.40298c-0.17225,0.69753 -0.28557,1.41525 -0.33997,2.15314c-17.29769,16.06927 -34.61691,32.12346 -51.9588,48.16247c-0.13939,3.96507 -0.23345,7.93139 -0.28331,11.89896c-0.93378,-1.30152 -1.84037,-2.62355 -2.71976,-3.96632c-0.50429,-0.78794 -1.03237,-1.56228 -1.58653,-2.32313c-0.3377,-0.05644 -0.67767,-0.07536 -1.01991,-0.05666c0.24138,-0.09225 0.50542,-0.14891 0.79326,-0.16998c-0.39663,-0.54769 -0.79326,-1.0955 -1.1899,-1.64319c-0.18131,-0.27141 -0.19945,-0.53579 -0.05666,-0.79326c-0.01813,0.15559 0.00113,0.30676 0.05666,0.45329c19.35904,-17.92403 38.71923,-35.84795 58.07827,-53.77197c0.10652,-0.07838 0.18131,-0.0595 0.22664,0.05667z" fill="#cacaca" fill-rule="evenodd" stroke="none" stroke-width="1" stroke-linecap="butt"/><path d="M518.13301,44.40298c20.09792,17.37758 40.23096,34.71607 60.4014,52.01546c-1.09924,1.09913 -2.15655,2.23236 -3.17306,3.3997c-0.38077,0.30529 -0.72074,0.64527 -1.01991,1.01991c-0.10086,-1.96163 -0.19492,-3.92587 -0.28331,-5.89282c-18.7267,-16.17081 -37.48173,-32.30047 -56.2651,-48.38911c0.05439,-0.73789 0.16772,-1.45561 0.33997,-2.15314z" fill="#c7c6c6" fill-rule="evenodd" stroke="none" stroke-width="1" stroke-linecap="butt"/><path d="M517.79304,46.55612c18.78336,16.08865 37.53839,32.21831 56.2651,48.38911c0.08839,1.96695 0.18245,3.93119 0.28331,5.89282c0,0.49103 0,0.98217 0,1.4732c0.0476,1.1329 0.085,2.26613 0.11332,3.3997c9.74695,-0.13724 19.49277,-0.28829 29.23745,-0.45329c0.25838,4.52942 0.48502,9.06236 0.67994,13.59882c0.49069,10.27458 0.98251,20.54928 1.4732,30.82398c-9.96453,0.09406 -19.93699,0.16998 -29.91739,0.22665c0.09179,0.86579 0.13032,1.73385 0.11332,2.60644c0,0.30257 0,0.60401 0,0.90659c10.00986,-0.10199 20.01972,-0.14052 30.03071,-0.11332c0,0.52922 0,1.05731 0,1.58653c0.05439,0.60288 0.09179,1.20803 0.11332,1.81318c0,0.18925 0,0.37736 0,0.56662c0.48842,9.81948 0.96098,19.64122 1.41655,29.4641c0.02493,0.16319 0.08159,0.3139 0.16998,0.45329c0.0374,-0.20739 0.07593,-0.41589 0.11332,-0.62328c-0.50882,-9.72429 -0.96211,-19.45197 -1.35988,-29.18079c0.11332,0 0.22665,0 0.33997,0c0.57228,-0.01813 1.1389,0.01926 1.69985,0.11332c0,0.15072 0,0.30257 0,0.45329c0.23911,5.40326 0.50429,10.80539 0.79326,16.20525c0.21531,4.87291 0.44196,9.74582 0.67994,14.61872c-0.723,0.08613 -1.44034,0.19945 -2.15315,0.33997c-0.0374,0.39663 -0.07593,0.79326 -0.11332,1.1899c0.07366,1.5684 0.14959,3.13566 0.22665,4.70292c-1.73725,0 -3.47563,0 -5.21288,0c-0.69014,-13.39937 -1.29415,-26.80893 -1.81318,-40.22982c-5.08142,-0.00454 -10.14358,0.07139 -15.18534,0.22665c-1.24883,-0.0374 -2.49538,0 -3.73968,0.11332c-0.32184,0.11446 -0.47256,0.3411 -0.45329,0.67994c-0.10539,-0.12126 -0.14392,-0.27197 -0.11332,-0.45329c-1.77578,0 -3.55042,0 -5.32621,0c0.4295,13.07186 0.88279,26.14145 1.35988,39.20991c1.81318,0 3.62635,0 5.43953,0c0.21531,0.034 0.40457,0.10879 0.56662,0.22664c-1.98202,0.11332 -3.98445,0.15072 -6.00614,0.11332c0.03287,1.08678 0.03287,2.16335 0,3.22972c-7.85671,-0.02153 -15.71343,-0.07819 -23.57128,-0.16998c-0.37057,-15.63863 -0.74793,-31.27728 -1.13323,-46.91591c2.98494,0.01926 5.96874,0 8.95255,-0.05666c1.73271,-0.57115 3.43257,-1.19443 5.09956,-1.86984c0.11332,0 0.22665,0 0.33997,0c-0.09179,-1.01719 -0.12919,-2.0371 -0.11332,-3.05973c-30.71066,0.17168 -61.42131,0.32286 -92.13196,0.45329c-0.0374,1.0028 0.00114,1.98498 0.11332,2.94641c1.03918,0.72754 2.13388,1.37008 3.28638,1.9265c2.90901,0 5.81689,0 8.7259,0c-0.12126,15.3746 -0.23458,30.74805 -0.33997,46.12265c-2.30386,0 -4.60886,0 -6.91273,0c-4.00372,0 -8.00857,0 -12.01229,0c-1.18876,-0.11219 -2.39679,-0.15072 -3.62635,-0.11332c0,-0.52922 0,-1.05731 0,-1.58652c0,-0.52922 0,-1.05731 0,-1.58653c0.19831,-13.37217 0.38757,-26.74434 0.56662,-40.1165c-0.02493,-0.31504 0.01246,-0.61762 0.11332,-0.90659c0,-0.83066 0,-1.66245 0,-2.49312c-16.35767,0.02267 -32.71399,0.09859 -49.06905,0.22665c-0.17509,-0.00113 -0.32615,-0.03853 -0.45329,-0.11332c0.34609,-10.81298 0.76165,-21.61645 1.24655,-32.41051c0.05122,-3.54295 0.20239,-7.07478 0.45329,-10.59574c16.16684,-0.26767 32.33424,-0.47539 48.50243,-0.62328c0,-0.18891 0,-0.37771 0,-0.56662c0.04986,-3.96757 0.14392,-7.93389 0.28331,-11.89896c17.34189,-16.03901 34.66111,-32.0932 51.9588,-48.16247z" fill="#dbb73e" fill-rule="evenodd" stroke="none" stroke-width="1" stroke-linecap="butt"/><path d="M575.36135,99.81815c1.01651,-1.16735 2.07382,-2.30058 3.17306,-3.3997c0.03287,-0.68685 -0.00454,-1.36679 -0.11332,-2.03982c0.05667,-0.1157 0.13259,-0.13463 0.22665,-0.05667c2.07722,1.77544 4.15557,3.55076 6.23279,5.3262c-3.17193,0.1301 -6.34498,0.18676 -9.51917,0.16998z" fill="#bfa138" fill-rule="evenodd" stroke="none" stroke-width="1" stroke-linecap="butt"/><path d="M460.22473,100.27144c0.34224,-0.0187 0.68221,0.00022 1.01991,0.05666c0.55415,0.76085 1.08224,1.53519 1.58653,2.32313c-24.25076,0.36547 -48.50198,0.70544 -72.75366,1.01991c-0.01972,-0.79723 0.01801,-1.59049 0.11332,-2.37979c23.34248,-0.40887 46.68711,-0.74884 70.03389,-1.01991z" fill="#e3e3e3" fill-rule="evenodd" stroke="none" stroke-width="1" stroke-linecap="butt"/><path d="M619.67083,101.74464c-3.87226,2.44597 -7.76266,4.8635 -11.67231,7.25271c-1.22503,0.70691 -2.43305,1.44351 -3.62635,2.20981c4.90691,-0.05247 9.81721,-0.10913 14.73205,-0.16998c-4.87404,2.66378 -9.78434,5.27022 -14.73205,7.81932c-0.19492,-4.53645 -0.42156,-9.06939 -0.67994,-13.59882c-9.74468,0.165 -19.4905,0.31606 -29.23745,0.45329c-0.02833,-1.13357 -0.06572,-2.2668 -0.11332,-3.3997c15.10942,-0.21407 30.21883,-0.40298 45.32938,-0.56662z" fill="#c5c5c5" fill-rule="evenodd" stroke="none" stroke-width="1" stroke-linecap="butt"/><path d="M462.83117,102.65123c0.87939,1.34277 1.78598,2.6648 2.71976,3.96632c0,0.18891 0,0.37771 0,0.56662c-16.1682,0.14789 -32.3356,0.35561 -48.50243,0.62328c-0.2509,3.52096 -0.40207,7.0528 -0.45329,10.59574c-8.87062,-4.86939 -17.70985,-9.78004 -26.51769,-14.73205c24.25168,-0.31447 48.50289,-0.65444 72.75366,-1.01991z" fill="#c6c6c6" fill-rule="evenodd" stroke="none" stroke-width="1" stroke-linecap="butt"/><path d="M619.10421,111.03717c-4.91484,0.06086 -9.82514,0.11752 -14.73205,0.16998c1.1933,-0.76629 2.40132,-1.50289 3.62635,-2.20981c3.73967,-0.08046 7.47935,-0.1182 11.21902,-0.11332c-0.0238,0.62747 0.0136,1.25075 0.11332,1.86984c-0.0204,0.15593 -0.09633,0.25033 -0.22665,0.28331z" fill="#e3e3e3" fill-rule="evenodd" stroke="none" stroke-width="1" stroke-linecap="butt"/><path d="M464.30438,112.85034c0.3921,-0.11128 0.808,-0.14902 1.24655,-0.11332c0.03626,0.58871 -0.00113,1.15533 -0.11332,1.69985c0,-0.52888 0,-1.05765 0,-1.58653c-0.37737,0 -0.75587,0 -1.13323,0z" fill="#ac682b" fill-rule="evenodd" stroke="none" stroke-width="1" stroke-linecap="butt"/><path d="M464.30438,112.85034c0.37737,0 0.75587,0 1.13323,0c0,0.52888 0,1.05765 0,1.58653c-0.13826,9.02848 -0.28897,18.0565 -0.45329,27.0843c-3.58896,0.01893 -7.17734,0 -10.76573,-0.05666c-0.063,-0.0434 -0.10074,-0.10006 -0.11332,-0.16998c0.17486,-9.44426 0.36377,-18.88784 0.56662,-28.33087c3.21045,-0.06765 6.42091,-0.10551 9.6325,-0.11332z" fill="#821f2d" fill-rule="evenodd" stroke="none" stroke-width="1" stroke-linecap="butt"/><path d="M431.89387,113.64361c0,0.22665 0,0.45329 0,0.67994c-0.1659,9.18271 -0.43029,18.36191 -0.79326,27.5376c-3.81968,0.10211 -7.63483,0.10211 -11.44567,0c-0.03773,-0.30223 -0.07559,-0.60435 -0.11332,-0.90659c0.32898,-9.14067 0.63121,-18.28213 0.90659,-27.42427c3.04149,0.01518 6.0823,-0.02255 9.12254,-0.11332c0.69887,0.01893 1.39762,0.03773 2.09648,0.05667c0.06165,0.08125 0.13723,0.13791 0.22664,0.16998z" fill="#82202d" fill-rule="evenodd" stroke="none" stroke-width="1" stroke-linecap="butt"/><path d="M431.89387,113.64361c0.10244,0.08035 0.14018,0.19367 0.11332,0.33997c7.51788,-0.01893 15.03496,-0.0944 22.55136,-0.22665c0,0.11332 0,0.22665 0,0.33997c-7.44127,0.09984 -14.88289,0.17542 -22.32472,0.22665c-0.0961,-0.12749 -0.20942,-0.12749 -0.33997,0c0,-0.22665 0,-0.45329 0,-0.67994z" fill="#c09f35" fill-rule="evenodd" stroke="none" stroke-width="1" stroke-linecap="butt"/><path d="M454.67188,112.96366c-0.20285,9.44302 -0.39176,18.8866 -0.56662,28.33087c-7.55516,-0.00986 -15.11009,0.02799 -22.66469,0.11332c0.25736,-9.02837 0.52174,-18.05639 0.79326,-27.0843c7.44184,-0.05122 14.88345,-0.12681 22.32472,-0.22665c0,-0.11332 0,-0.22665 0,-0.33997c-0.03423,-0.28999 0.00362,-0.55449 0.11332,-0.79326z" fill="#d99f36" fill-rule="evenodd" stroke="none" stroke-width="1" stroke-linecap="butt"/><path d="M604.03219,133.58853c-3.24898,0.04125 -6.49683,0.07899 -9.74582,0.11332c-0.23798,-6.19449 -0.46462,-12.38954 -0.67994,-18.58504c3.24898,0.00499 6.49797,-0.03275 9.74582,-0.11332c0.27311,6.22815 0.49975,12.4232 0.67994,18.58504z" fill="#811f2d" fill-rule="evenodd" stroke="none" stroke-width="1" stroke-linecap="butt"/><path d="M593.60644,115.11681c0.21531,6.19551 0.44196,12.39056 0.67994,18.58504c3.24898,-0.03434 6.49683,-0.07207 9.74582,-0.11332c-0.0476,0.08182 -0.12239,0.13849 -0.22665,0.16998c-3.28638,0.05667 -6.57276,0.07559 -9.85914,0.05667c-0.22665,-6.15879 -0.43403,-12.31611 -0.62328,-18.47173c0.08046,-0.09984 0.17452,-0.17531 0.28331,-0.22665z" fill="#751b28" fill-rule="evenodd" stroke="none" stroke-width="1" stroke-linecap="butt"/><path d="M579.21436,115.5701c0.18472,6.1197 0.37283,12.23916 0.56662,18.3584c-0.0476,0.08182 -0.12239,0.13849 -0.22664,0.16998c-1.35988,0.05667 -2.71977,0.07559 -4.07965,0.05667c-0.25724,-6.19177 -0.48389,-12.38682 -0.67994,-18.58504c1.49134,-0.11026 2.96454,-0.11026 4.41961,0z" fill="#811f2d" fill-rule="evenodd" stroke="none" stroke-width="1" stroke-linecap="butt"/><path d="M593.03982,133.81518c-0.22665,-5.8978 -0.49182,-11.79063 -0.79326,-17.67846c-4.30516,-0.08069 -8.61145,-0.08069 -12.91887,0c0,-0.11332 0,-0.22665 0,-0.33997c4.49554,0.0009 8.99108,-0.03683 13.48549,-0.11332c0.23344,6.04366 0.46009,12.08764 0.67994,18.13175c-0.15072,0 -0.30257,0 -0.45329,0z" fill="#c6a536" fill-rule="evenodd" stroke="none" stroke-width="1" stroke-linecap="butt"/><path d="M579.21436,115.5701c0.09519,0.03876 0.13259,0.11423 0.11332,0.22664c0,0.11332 0,0.22665 0,0.33997c4.30742,-0.08069 8.61372,-0.08069 12.91887,0c0.30144,5.88783 0.56662,11.78065 0.79326,17.67846c-4.42075,-0.01824 -8.84036,0.01949 -13.25884,0.11332c-0.19378,-6.11924 -0.3819,-12.2387 -0.56662,-18.3584z" fill="#d99f36" fill-rule="evenodd" stroke="none" stroke-width="1" stroke-linecap="butt"/><path d="M566.8621,149.11385c-30.59733,0.12466 -61.19466,0.23798 -91.792,0.33997c-0.11219,-0.96144 -0.15072,-1.94361 -0.11332,-2.94641c30.71066,-0.13043 61.42131,-0.28161 92.13196,-0.45329c-0.01587,1.02263 0.02154,2.04254 0.11332,3.05973c-0.11332,0 -0.22665,0 -0.33997,0z" fill="#e4e4e4" fill-rule="evenodd" stroke="none" stroke-width="1" stroke-linecap="butt"/><path d="M566.8621,149.11385c-1.66699,0.67541 -3.36684,1.29869 -5.09956,1.86984c-2.9838,0.05667 -5.96761,0.07592 -8.95255,0.05666c-4.75845,-0.3989 -9.51804,-0.79553 -14.27875,-1.1899c-2.22794,-0.05667 -4.45702,-0.07592 -6.68609,-0.05666c-10.82239,0.0408 -21.62551,0.11559 -32.41051,0.22664c-3.85639,0.35923 -7.7094,0.75587 -11.55899,1.1899c-3.19232,0.01926 -6.36538,0.07593 -9.51917,0.16998c-1.1525,-0.55642 -2.2472,-1.19896 -3.28638,-1.9265c30.59733,-0.10199 61.19466,-0.21532 91.792,-0.33997z" fill="#c5c6c5" fill-rule="evenodd" stroke="none" stroke-width="1" stroke-linecap="butt"/><path d="M605.84536,149.68046c5.77949,0 11.55899,0 17.33849,0c0.00226,0.87032 0.0408,1.73951 0.11332,2.60644c-0.15072,0 -0.30257,0 -0.45329,0c-15.60237,0.0442 -31.20361,0.12013 -46.80258,0.22665c0.017,-0.87259 -0.02153,-1.74065 -0.11332,-2.60644c9.9804,-0.05667 19.95286,-0.13259 29.91739,-0.22665z" fill="#e4e4e4" fill-rule="evenodd" stroke="none" stroke-width="1" stroke-linecap="butt"/><path d="M531.84515,149.79379c2.22907,-0.01926 4.45814,0 6.68609,0.05666c4.76072,0.39436 9.5203,0.791 14.27875,1.1899c0.3853,15.63863 0.76267,31.27728 1.13323,46.91591c-5.05309,0.68674 -10.11412,1.34742 -15.18534,1.98316c-11.25642,-0.04646 -22.51284,-0.10312 -33.77039,-0.16998c-1.75538,-0.11332 -3.53116,-0.15072 -5.3262,-0.11332c0,-16.54523 0,-33.09045 0,-49.63567c1.36555,-0.07366 2.6869,0.00226 3.96632,0.22665c0,3.66375 0,7.32863 0,10.99238c-0.0374,10.36909 0,20.71893 0.11332,31.05063c5.87356,0.16659 11.76637,0.24251 17.67846,0.22664c3.72154,0 7.42268,-0.0374 11.1057,-0.11332c0.07593,-1.0947 0.11332,-2.20867 0.11332,-3.34304c-0.17679,-11.72898 -0.34677,-23.45796 -0.50995,-35.18693c0.0136,-1.38822 -0.08159,-2.74809 -0.28331,-4.07965z" fill="#e2d57f" fill-rule="evenodd" stroke="none" stroke-width="1" stroke-linecap="butt"/><path d="M499.43464,150.02043c0.07593,0 0.15072,0 0.22665,0c0,16.54523 0,33.09045 0,49.63567c1.79504,-0.0374 3.57082,0 5.3262,0.11332c-1.81318,0.01926 -3.62635,0 -5.43953,-0.05667c-4.11931,-0.66974 -8.23635,-1.34968 -12.35226,-2.03982c-2.47498,-0.01926 -4.92957,-0.07593 -7.36602,-0.16998c2.30386,0 4.60886,0 6.91273,0c0.10539,-15.3746 0.21871,-30.74805 0.33997,-46.12265c-2.90901,0 -5.81689,0 -8.7259,0c3.1538,-0.09406 6.32685,-0.15072 9.51917,-0.16998c3.8496,-0.43403 7.70259,-0.83066 11.55899,-1.1899z" fill="#d6c978" fill-rule="evenodd" stroke="none" stroke-width="1" stroke-linecap="butt"/><path d="M531.84515,149.79379c0.20172,1.33155 0.29691,2.69143 0.28331,4.07965c0.16319,11.72898 0.33317,23.45796 0.50995,35.18693c0,1.13437 -0.0374,2.24834 -0.11332,3.34304c0,-0.0374 0,-0.07593 0,-0.11332c-0.22778,-14.0521 -0.45443,-28.10422 -0.67994,-42.15632c-9.40698,-0.034 -18.81283,0.0034 -28.21754,0.11332c-1.27942,-0.22438 -2.60077,-0.30031 -3.96632,-0.22665c-0.07593,0 -0.15072,0 -0.22665,0c10.78499,-0.11106 21.58811,-0.18585 32.41051,-0.22664z" fill="#d0c479" fill-rule="evenodd" stroke="none" stroke-width="1" stroke-linecap="butt"/><path d="M532.52509,192.29008c-7.09291,0.03287 -14.1949,0.03287 -21.30481,0c-2.47385,-0.11332 -4.96697,-0.15072 -7.47935,-0.11332c0.0374,-10.3317 0,-20.64413 -0.11332,-30.9373c0,-3.66375 0,-7.32863 0,-10.99238c9.40471,-0.10993 18.81055,-0.14732 28.21754,-0.11332c0.22551,14.0521 0.45216,28.10422 0.67994,42.15632z" fill="#d9a037" fill-rule="evenodd" stroke="none" stroke-width="1" stroke-linecap="butt"/><path d="M496.71488,191.72347c-2.30953,-0.22325 -4.6134,-0.48729 -6.91273,-0.79326c0.02267,-13.22938 0.09859,-26.4497 0.22664,-39.66321c2.3424,-0.22665 4.68366,-0.45329 7.02606,-0.67994c0.01926,9.1792 0,18.3584 -0.05667,27.5376c0.01813,4.5726 -0.07592,9.10554 -0.28331,13.59882z" fill="#cf9834" fill-rule="evenodd" stroke="none" stroke-width="1" stroke-linecap="butt"/><path d="M464.87099,153.19349c-35.77236,0.14732 -71.54472,0.26064 -107.31731,0.33997c-0.14029,-0.80686 -0.10255,-1.61826 0.11332,-2.43646c19.22725,-0.10426 38.45439,-0.19945 57.68164,-0.28331c0.12715,0.07479 0.27821,0.11219 0.45329,0.11332c16.35507,-0.12805 32.71138,-0.20398 49.06905,-0.22665c0,0.83066 0,1.66245 0,2.49312z" fill="#e3e3e3" fill-rule="evenodd" stroke="none" stroke-width="1" stroke-linecap="butt"/><path d="M540.57106,150.70038c2.49198,0.20172 4.9851,0.38983 7.47935,0.56662c0.2969,13.4481 0.59948,26.89619 0.90659,40.34315c-2.55884,0.30824 -5.12789,0.57342 -7.706,0.79326c-0.23231,-13.90138 -0.45896,-27.80164 -0.67994,-41.70303z" fill="#dca238" fill-rule="evenodd" stroke="none" stroke-width="1" stroke-linecap="butt"/><path d="M490.0288,151.26699c-0.12805,13.21351 -0.20398,26.43383 -0.22664,39.66321c2.29933,0.30597 4.6032,0.57002 6.91273,0.79326c0.30257,0.16998 0.28444,0.28331 -0.05667,0.33997c-2.62571,-0.3445 -5.25141,-0.68447 -7.87598,-1.01991c0.02606,-13.25884 0.06346,-26.51769 0.11332,-39.77653c0.37737,0 0.75587,0 1.13323,0z" fill="#e4d680" fill-rule="evenodd" stroke="none" stroke-width="1" stroke-linecap="butt"/><path d="M540.57106,150.70038c0.22325,-0.07479 0.46916,-0.11332 0.7366,-0.11332c2.59284,0.19492 5.18115,0.42156 7.76266,0.67994c0.37963,13.48323 0.68108,26.96871 0.90659,40.45647c-0.35244,0.0272 -0.69241,-0.01133 -1.01991,-0.11332c-0.30711,-13.44696 -0.60968,-26.89506 -0.90659,-40.34315c-2.49425,-0.17679 -4.98736,-0.3649 -7.47935,-0.56662z" fill="#d4c878" fill-rule="evenodd" stroke="none" stroke-width="1" stroke-linecap="butt"/><path d="M622.84388,152.2869c-4.98623,0.79326 -9.97247,1.58653 -14.9587,2.37979c-0.61875,0.00226 -1.22276,0.07706 -1.81317,0.22665c0,-0.52922 0,-1.05731 0,-1.58653c-10.01099,-0.0272 -20.02085,0.01134 -30.03071,0.11332c0,-0.30257 0,-0.60401 0,-0.90659c15.59897,-0.10652 31.20021,-0.18245 46.80258,-0.22665z" fill="#c5c5c5" fill-rule="evenodd" stroke="none" stroke-width="1" stroke-linecap="butt"/><path d="M464.87099,153.19349c-0.10086,0.28898 -0.13826,0.59155 -0.11332,0.90659c-29.50217,0.08839 -59.004,0.22098 -88.50562,0.39663c-0.10698,0.30824 -0.14471,0.62895 -0.11332,0.96325c-0.11332,0 -0.22665,0 -0.33997,0c-6.10621,-0.56095 -12.18782,-1.2035 -18.24508,-1.9265c35.77258,-0.07933 71.54495,-0.19265 107.31731,-0.33997z" fill="#c5c4c4" fill-rule="evenodd" stroke="none" stroke-width="1" stroke-linecap="butt"/><path d="M464.75767,154.10008c-0.17905,13.37217 -0.3683,26.74434 -0.56662,40.1165c-0.07593,0 -0.15072,0 -0.22665,0c0.20398,-11.25642 0.3921,-22.51284 0.56662,-33.77039c0,-0.60401 0,-1.20916 0,-1.81317c-5.19361,-0.15072 -10.42519,-0.22665 -15.69529,-0.22665c-8.29664,-0.01587 -16.58806,0.06006 -24.8745,0.22665c-0.11219,0.69581 -0.14993,1.41427 -0.11332,2.15314c-0.0136,0.40116 0.02425,0.7978 0.11332,1.1899c-0.42066,10.66827 -0.79836,21.33994 -1.13324,32.01388c-1.16882,0.14505 -2.33979,0.14505 -3.51303,0c0.11593,-2.60531 0.19151,-5.21174 0.22664,-7.81932c0.30427,-6.81754 0.56866,-13.65548 0.79327,-20.51154c0.07286,-2.07722 0.14846,-4.15557 0.22665,-6.23279c0,-0.22665 0,-0.45329 0,-0.67994c-5.8357,-0.15072 -11.7096,-0.22665 -17.6218,-0.22665c-7.3097,0.00907 -14.61907,0.04646 -21.92809,0.11332c-0.24104,0.10199 -0.37328,0.2901 -0.39663,0.56662c-0.05655,0.52695 -0.07547,1.05617 -0.05667,1.58653c0.00442,0.53036 0.04215,1.05958 0.11332,1.58653c-0.59438,10.46202 -1.161,20.92631 -1.69985,31.39059c-1.65713,0.07593 -3.31913,0.07593 -4.98623,0c0.1429,-3.4405 0.33181,-6.8776 0.56662,-10.31243c0.47018,-8.95369 0.96121,-17.90624 1.4732,-26.85766c-0.01032,-0.40796 -0.08579,-0.78533 -0.22665,-1.13323c0.11332,0 0.22665,0 0.33997,0c-0.03139,-0.33431 0.00635,-0.65501 0.11332,-0.96325c29.50161,-0.17565 59.00344,-0.30824 88.50562,-0.39663z" fill="#8d5653" fill-rule="evenodd" stroke="none" stroke-width="1" stroke-linecap="butt"/><path d="M620.0108,156.59319c-4.60773,0.08159 -9.2166,0.11899 -13.82546,0.11332c-0.02153,-0.60515 -0.05892,-1.2103 -0.11332,-1.81318c0.59041,-0.14959 1.19443,-0.22438 1.81317,-0.22665c4.04225,-0.01133 8.08449,-0.04873 12.12561,-0.11332c0.06459,0.70034 0.06459,1.38028 0,2.03982z" fill="#e2e2e2" fill-rule="evenodd" stroke="none" stroke-width="1" stroke-linecap="butt"/><path d="M602.21902,194.89652c-6.21579,-0.08386 -12.44858,-0.12126 -18.69837,-0.11332c-0.16205,-0.11785 -0.35131,-0.19265 -0.56662,-0.22664c-0.41703,-12.92001 -0.87032,-25.83888 -1.35988,-38.75662c-0.01926,-0.33884 0.13146,-0.56549 0.45329,-0.67994c1.24429,-0.11332 2.49085,-0.15072 3.73968,-0.11332c4.87518,0.03513 9.74809,-0.0034 14.61872,-0.11332c0.59154,13.33477 1.19556,26.66954 1.81317,40.00318z" fill="#858585" fill-rule="evenodd" stroke="none" stroke-width="1" stroke-linecap="butt"/><path d="M602.78563,195.00984c-0.18359,-0.0612 -0.3717,-0.09859 -0.56662,-0.11332c-0.61762,-13.33364 -1.22163,-26.66841 -1.81317,-40.00318c-4.87064,0.10993 -9.74355,0.14846 -14.61872,0.11332c5.04176,-0.15525 10.10392,-0.23118 15.18534,-0.22665c0.51902,13.42089 1.12304,26.83046 1.81318,40.22982z" fill="#c1a43c" fill-rule="evenodd" stroke="none" stroke-width="1" stroke-linecap="butt"/><path d="M581.59415,155.79993c0.48956,12.91774 0.94285,25.83662 1.35988,38.75662c-1.81318,0 -3.62635,0 -5.43953,0c-0.47709,-13.06846 -0.93039,-26.13806 -1.35988,-39.20991c1.77578,0 3.55042,0 5.32621,0c-0.03059,0.18131 0.00793,0.33203 0.11332,0.45329z" fill="#d99f37" fill-rule="evenodd" stroke="none" stroke-width="1" stroke-linecap="butt"/><path d="M620.0108,156.59319c-3.79407,0.50089 -7.60853,0.95419 -11.44567,1.35989c0,-0.15072 0,-0.30257 0,-0.45329c-0.56095,-0.09406 -1.12757,-0.13146 -1.69985,-0.11332c-0.19945,-0.10879 -0.4261,-0.14619 -0.67994,-0.11332c0,-0.18925 0,-0.37736 0,-0.56662c4.60886,0.00566 9.21773,-0.03173 13.82546,-0.11332z" fill="#c2c2c2" fill-rule="evenodd" stroke="none" stroke-width="1" stroke-linecap="butt"/><path d="M606.18534,157.27313c0.25385,-0.03287 0.48049,0.00454 0.67994,0.11332c-0.11332,0 -0.22665,0 -0.33997,0c0.39777,9.72882 0.85106,19.45651 1.35988,29.18079c-0.0374,0.20739 -0.07593,0.41589 -0.11332,0.62328c-0.08839,-0.13939 -0.14505,-0.2901 -0.16998,-0.45329c-0.45556,-9.82288 -0.92812,-19.64462 -1.41655,-29.4641z" fill="#d0ae3a" fill-rule="evenodd" stroke="none" stroke-width="1" stroke-linecap="butt"/><path d="M464.53102,158.63302c-13.54295,0.00566 -27.06617,0.00566 -40.5698,0c8.28644,-0.16659 16.57786,-0.24252 24.8745,-0.22665c5.27011,0 10.50168,0.07593 15.69529,0.22665z" fill="#eddc86" fill-rule="evenodd" stroke="none" stroke-width="1" stroke-linecap="butt"/><path d="M420.56152,158.74634c-13.20229,0.0374 -26.38567,0 -39.54989,-0.11332c7.30902,-0.06686 14.61838,-0.10426 21.92809,-0.11332c5.9122,0 11.78609,0.07593 17.6218,0.22665z" fill="#eddc86" fill-rule="evenodd" stroke="none" stroke-width="1" stroke-linecap="butt"/><path d="M423.96122,158.63302c13.50362,0.00566 27.02685,0.00566 40.5698,0c0,0.60401 0,1.20916 0,1.81317c-13.53728,0.21305 -27.09824,0.32637 -40.68312,0.33997c-0.0366,-0.73887 0.00113,-1.45734 0.11332,-2.15314z" fill="#e1d47e" fill-rule="evenodd" stroke="none" stroke-width="1" stroke-linecap="butt"/><path d="M381.01164,158.63302c13.16422,0.11332 26.34759,0.15072 39.54989,0.11332c0,0.22665 0,0.45329 0,0.67994c-0.1114,0.43063 -0.14925,0.88393 -0.11332,1.35988c-13.29658,0 -26.59327,0 -39.88985,0c-0.01881,-0.53036 0.00011,-1.05958 0.05667,-1.58653c0.02334,-0.27651 0.15559,-0.46462 0.39663,-0.56662z" fill="#e1d47e" fill-rule="evenodd" stroke="none" stroke-width="1" stroke-linecap="butt"/><path d="M464.53102,160.44619c-0.17452,11.25755 -0.36264,22.51397 -0.56662,33.77039c-0.62668,0.03626 -1.23069,-0.00114 -1.81317,-0.11332c0.24251,-10.64787 0.43176,-21.30027 0.56662,-31.95721c-12.23893,0 -24.47787,0 -36.7168,0c-0.36502,10.57307 -0.74272,21.14956 -1.13323,31.73057c2.05954,-0.0374 4.09936,0 6.11946,0.11332c-2.71976,0 -5.43953,0 -8.15929,0c0.33487,-10.67394 0.71258,-21.34561 1.13324,-32.01388c-0.08907,-0.3921 -0.12692,-0.78873 -0.11332,-1.1899c13.58488,-0.0136 27.14584,-0.12692 40.68312,-0.33997z" fill="#ded07d" fill-rule="evenodd" stroke="none" stroke-width="1" stroke-linecap="butt"/><path d="M420.56152,159.42628c-0.07819,2.07722 -0.15378,4.15557 -0.22665,6.23279c-0.39505,6.81414 -0.65955,13.65094 -0.79327,20.51154c-0.03513,2.60757 -0.11072,5.21401 -0.22664,7.81932c-0.58871,0.03626 -1.15534,-0.00113 -1.69985,-0.11332c0.4652,-10.55721 0.88075,-21.13369 1.24656,-31.73057c-12.01194,0.09972 -24.02423,0.13712 -36.03686,0.11332c-0.53307,10.46315 -1.06184,20.92631 -1.58653,31.39059c2.09739,-0.0374 4.17495,0 6.23279,0.11332c-2.83308,0 -5.66617,0 -8.49926,0c0.53885,-10.46429 1.10547,-20.92857 1.69985,-31.39059c-0.07117,-0.52695 -0.1089,-1.05617 -0.11332,-1.58653c13.29658,0 26.59327,0 39.88985,0c-0.03592,-0.47596 0.00193,-0.92925 0.11332,-1.35988z" fill="#ded17d" fill-rule="evenodd" stroke="none" stroke-width="1" stroke-linecap="butt"/><path d="M503.62761,161.23945c0.11332,10.29317 0.15072,20.6056 0.11332,30.9373c2.51238,-0.0374 5.0055,0 7.47935,0.11332c-2.49312,0 -4.98623,0 -7.47935,0c-0.11332,-10.3317 -0.15072,-20.68153 -0.11332,-31.05063z" fill="#ddb952" fill-rule="evenodd" stroke="none" stroke-width="1" stroke-linecap="butt"/><path d="M417.61511,193.87661c-10.04805,-0.0238 -20.0961,-0.06233 -30.14404,-0.11332c-2.05784,-0.11332 -4.1354,-0.15072 -6.23279,-0.11332c0.52469,-10.46429 1.05345,-20.92744 1.58653,-31.39059c12.01263,0.0238 24.02491,-0.0136 36.03686,-0.11332c-0.36581,10.59687 -0.78136,21.17335 -1.24656,31.73057z" fill="#e1d47f" fill-rule="evenodd" stroke="none" stroke-width="1" stroke-linecap="butt"/><path d="M462.15123,194.10326c-10.38802,-0.0204 -20.77604,-0.05892 -31.16395,-0.11332c-2.0201,-0.11332 -4.05993,-0.15072 -6.11946,-0.11332c0.39052,-10.58101 0.76822,-21.15749 1.13323,-31.73057c12.23893,0 24.47787,0 36.7168,0c-0.13485,10.65694 -0.32411,21.30934 -0.56662,31.95721z" fill="#e1d47f" fill-rule="evenodd" stroke="none" stroke-width="1" stroke-linecap="butt"/><path d="M420.33488,165.65907c-0.22461,6.85607 -0.48899,13.694 -0.79327,20.51154c0.13372,-6.8606 0.39822,-13.69741 0.79327,-20.51154z" fill="#d1bd76" fill-rule="evenodd" stroke="none" stroke-width="1" stroke-linecap="butt"/><path d="M591.67993,184.69741c0.53828,-0.10879 0.91678,0.08046 1.13323,0.56662c-0.26518,0.44876 -0.64254,0.56208 -1.13323,0.33997c-0.30031,-0.30597 -0.30031,-0.60855 0,-0.90659z" fill="#696969" fill-rule="evenodd" stroke="none" stroke-width="1" stroke-linecap="butt"/><path d="M503.74093,192.29008c2.49312,0 4.98623,0 7.47935,0c7.10991,0.03287 14.2119,0.03287 21.30481,0c0,0.0374 0,0.07593 0,0.11332c-3.68301,0.07593 -7.38416,0.11332 -11.1057,0.11332c-5.91208,0.01587 -11.80491,-0.06006 -17.67846,-0.22664z" fill="#f6e88b" fill-rule="evenodd" stroke="none" stroke-width="1" stroke-linecap="butt"/><path d="M464.19105,195.80311c0,0.52922 0,1.05731 0,1.58652c1.22956,-0.0374 2.43759,0.00114 3.62635,0.11332c-1.24656,0 -2.49312,0 -3.73967,0c-0.03626,-0.58815 0.00113,-1.15477 0.11332,-1.69985z" fill="#957830" fill-rule="evenodd" stroke="none" stroke-width="1" stroke-linecap="butt"/><path d="M549.80987,104.06694c-0.01548,-0.04634 -0.02974,-0.09542 -0.04302,-0.14689c-0.0218,0.05231 -0.04384,0.10449 -0.06613,0.15655c0.03628,-0.00405 0.07266,-0.0073 0.10916,-0.00966zM549.6067,102.95455c-0.09554,-0.71629 -0.2088,-1.48135 -0.61031,-1.8297c-0.18189,-0.15781 -2.13409,1.97681 -2.32139,2.13014c-2.95589,2.41996 -5.62775,5.35509 -8.34126,8.06588c-5.38701,4.49679 -12.07168,3.467 -18.6749,3.41939c-4.45987,1.11497 -11.28973,0.18167 -14.81793,-2.84555c-1.20028,-1.02985 -1.80137,-2.62768 -2.90741,-3.75764c-0.44851,-1.04652 -1.34726,-1.97716 -2.15261,-2.78681c-0.59726,-0.60045 -1.11186,-1.37771 -1.51868,-2.13526c-0.04737,0.82981 -0.22109,1.90857 -0.2719,2.11183c-0.46211,1.84845 -0.16608,4.04239 -0.16737,5.94483c0.14035,1.34736 0.10813,3.04785 0.59625,4.32635c0.76077,1.99261 2.50103,2.71585 4.21507,3.6182c3.90815,2.05743 7.8535,3.77698 12.131,4.89058c5.33497,1.39752 11.40069,0.51535 16.53962,-1.26066c2.14095,-0.73991 4.2375,-1.4418 6.02285,-2.88968c3.27446,-2.48028 5.47227,-6.01642 7.38768,-9.59942c1.26976,-2.37522 2.92191,-4.59352 3.91785,-7.10324c0,0 0.24171,-0.60426 0.84596,-0.36256c0.04756,0.01902 0.08987,0.0403 0.12748,0.06334zM548.69911,106.10329c-0.90485,1.64306 -1.95448,3.21674 -2.83567,4.86708c-1.99675,3.73965 -4.31787,7.42205 -7.73388,10.01136c-1.90946,1.53391 -4.11584,2.30521 -6.39949,3.09459c-5.38712,1.86213 -11.70315,2.74254 -17.29338,1.28992c-4.36747,-1.14178 -8.40163,-2.88655 -12.3924,-4.9898c-1.97019,-1.03835 -3.94364,-1.98558 -4.81589,-4.25284c-0.55036,-1.43056 -0.55032,-3.27412 -0.70536,-4.78494c-0.00163,-2.53395 0.37292,-5.09402 0.37103,-7.56427c-0.00037,-0.484 0.08649,-2.54981 0.64379,-2.72299c0.48667,-0.15122 1.03086,0.22074 1.43231,0.53467c0.484,0.37849 0.93309,1.89192 1.32561,2.44721c0.83338,1.179 2.13248,2.01358 2.71554,3.37406c1.04152,1.01593 1.55964,2.5702 2.67092,3.49421c3.32953,2.76843 9.66331,3.58541 13.81757,2.54685c6.28119,-0.03853 12.81445,1.1881 17.95621,-3.08868c2.57867,-2.58139 5.13039,-5.31297 7.92085,-7.63974c0.90568,-0.75518 1.76103,-2.25252 2.87422,-2.61756c2.56683,-0.84172 2.79482,2.96785 2.64541,4.68104c-0.49422,0.26927 -1.00867,0.54131 -1.56301,0.63858l-0.20528,0.38686c0,0 -0.16094,0.24142 -0.4291,0.2944z" data-paper-data="{&quot;index&quot;:null}" fill="#000000" fill-rule="nonzero" stroke="none" stroke-width="0.5" stroke-linecap="butt"/><path d="M549.57633,102.96627c-0.03761,-0.02304 -0.07987,-0.0442 -0.12743,-0.06322c-0.60425,-0.2417 -0.78532,0.33895 -0.78532,0.33895c-0.99594,2.50972 -2.64613,4.73582 -3.91588,7.11104c-1.91541,3.583 -4.11657,7.13797 -7.39102,9.61825c-1.78535,1.44788 -3.89098,2.16068 -6.03192,2.90059c-5.13893,1.77601 -11.24485,2.65785 -16.57982,1.26034c-4.2775,-1.11361 -8.23373,-2.8493 -12.14188,-4.90673c-1.71404,-0.90234 -3.45547,-1.63149 -4.21624,-3.62409c-0.48812,-1.2785 -0.45601,-2.98448 -0.59636,-4.33185c0.0013,-1.90244 -0.29346,-4.10354 0.16865,-5.95198c0.05081,-0.20325 0.22534,-1.2844 0.27271,-2.11421c0.40682,0.75755 0.98281,1.55633 1.58007,2.15678c0.80535,0.80965 1.70487,1.73746 2.15338,2.78398c1.10605,1.12996 1.70786,2.72258 2.90814,3.75243c3.5282,3.02721 10.3553,3.94546 14.81517,2.83049c6.60322,0.04761 13.22582,1.09424 18.61283,-3.40255c2.71351,-2.71079 5.38773,-5.63688 8.34361,-8.05684c0.1873,-0.15334 2.19896,-2.31437 2.38085,-2.15656c0.40151,0.34836 0.51564,1.11548 0.61119,1.83177z" data-paper-data="{&quot;noHover&quot;:false,&quot;origItem&quot;:[&quot;Path&quot;,{&quot;applyMatrix&quot;:true,&quot;segments&quot;:[[[465.02772,-45.85598],[0,0],[-0.14681,-1.10062]],[[464.08995,-48.66742],[0.61694,0.53527],[-0.27948,-0.24249]],[[460.52301,-45.39434],[0.28779,-0.23561],[-4.54188,3.7184]],[[447.70621,-33.00068],[4.16946,-4.16527],[-8.27743,6.90957]],[[419.0112,-27.7466],[10.14621,0.07315],[-6.85284,1.71321]],[[396.24264,-32.11894],[5.42127,4.65148],[-1.84429,-1.58242]],[[391.77524,-37.89276],[1.6995,1.73625],[-0.68916,-1.60804]],[[388.46763,-42.17485],[1.23747,1.24407],[-0.91773,-0.92262]],[[386.13409,-45.45579],[0.6251,1.16402],[-0.07278,1.27505]],[[385.7163,-42.21085],[0.07808,-0.31231],[-0.71006,2.84024]],[[385.45912,-33.07629],[0.00199,-2.92321],[0.21566,2.0703]],[[386.37529,-26.42862],[-0.75003,-1.96448],[1.16897,3.06175]],[[392.85197,-20.86906],[-2.63371,-1.3865],[6.00509,3.16136]],[[411.49192,-13.35441],[-6.57262,-1.71112],[8.19747,2.14736]],[[436.90596,-15.29149],[-7.89625,2.72894],[3.28968,-1.13691]],[[446.1604,-19.73164],[-2.74329,2.22475],[5.03138,-3.81109]],[[457.51198,-34.48168],[-2.94314,5.50548],[1.95105,-3.64966]],[[463.53197,-45.3962],[-1.53032,3.85633],[0,0]],[[464.83184,-45.95329],[-0.92847,-0.37139],[0.07308,0.02923]],[[465.02772,-45.85597],[-0.05779,-0.0354],[0,0]]],&quot;closed&quot;:true,&quot;fillColor&quot;:[0,0,0,1]}]}" fill="#ff8a8a" fill-rule="nonzero" stroke="none" stroke-width="0.5" stroke-linecap="butt"/><path d="M499.60758,92.23883c-0.09944,0.04792 -0.22644,0.07126 -0.38827,0.04814c-0.64427,-0.09204 -0.55223,-0.7363 -0.55223,-0.7363c0.34089,-2.05077 2.35403,-2.66214 4.15691,-3.19415c3.99324,-1.17836 8.49113,-1.3041 11.06769,2.5533c1.89719,2.90903 2.11002,9.24635 0.49448,12.29459c-0.92859,1.75209 -2.67935,2.86265 -4.40476,3.72579c-1.63779,0.59732 -3.52759,1.18227 -5.30776,0.785c-5.10167,-1.13855 -5.82716,-7.91606 -5.82716,-12.07466c0.00724,-1.22234 0.42869,-2.29963 0.76109,-3.40169zM501.55469,90.11613c0.29348,0.48395 -0.17935,0.83858 -0.17935,0.83858l-0.11659,-0.161c-0.22172,1.67041 -1.12342,3.10719 -1.11064,4.84681c0,3.03201 0.09284,5.55404 1.82957,8.07995c0.80273,1.16749 1.39154,2.37408 2.94211,2.71658c1.52904,0.33774 3.14362,-0.19374 4.54731,-0.70257c1.46241,-0.73076 2.99412,-1.67369 3.77681,-3.15417c1.36103,-2.5744 1.24545,-8.50059 -0.43524,-10.94851c-2.23995,-3.36688 -6.18924,-3.02756 -9.6194,-2.026c-0.47118,0.13758 -1.07556,0.28642 -1.63459,0.51031z" fill="#000000" fill-rule="nonzero" stroke="none" stroke-width="0.5" stroke-linecap="butt"/><path d="M503.17498,89.57658c3.43016,-1.00157 7.41585,-1.33553 9.6558,2.03135c1.68069,2.44792 1.7996,8.41827 0.43857,10.99267c-0.7827,1.48048 -2.33084,2.43439 -3.79325,3.16515c-1.40369,0.50883 -3.03539,1.04055 -4.56443,0.70281c-1.55057,-0.3425 -2.15256,-1.556 -2.95529,-2.7235c-1.73674,-2.52592 -1.83947,-5.08184 -1.83947,-8.11385c-0.01277,-1.73963 0.89902,-3.19189 1.12074,-4.86231l0.11655,0.16104c0,0 0.47467,-0.35608 0.18118,-0.84004c0.55902,-0.22389 1.16841,-0.37576 1.63959,-0.51334z" data-paper-data="{&quot;noHover&quot;:false,&quot;origItem&quot;:[&quot;Path&quot;,{&quot;applyMatrix&quot;:true,&quot;segments&quot;:[[[251.46859,64.51417],[0.85897,-0.34402],[0.45095,0.74362]],[251.19301,65.80268],[[251.01386,65.55529],[0,0],[-0.34068,2.56668]],[[249.30729,73.00268],[-0.01962,-2.67303],[0,4.65885]],[[252.11854,85.41797],[-2.66859,-3.88121],[1.23344,1.79392]],[[256.63926,89.59215],[-2.38254,-0.52627],[2.34946,0.51896]],[[263.62645,88.51263],[-2.15684,0.78184],[2.24707,-1.12285]],[[269.42973,83.66608],[-1.20266,2.27484],[2.09129,-3.9557]],[[268.76096,66.8431],[2.58247,3.76136],[-3.44181,-5.1734]],[[253.98022,63.73004],[5.27063,-1.53896],[-0.724,0.2114]]],&quot;closed&quot;:true}]}" fill="#ffffff" fill-rule="nonzero" stroke="none" stroke-width="0.5" stroke-linecap="butt"/><path d="M525.37858,84.76821c4.39531,-1.3581 10.36622,1.11693 12.86909,4.46398c3.88907,6.34743 -3.27664,16.17042 -10.20786,16.17042c-7.16672,0 -8.98081,-8.97773 -9.01832,-14.59666c0,-3.17975 3.15167,-5.83703 6.35708,-6.03774zM521.43284,88.13206c-0.45541,0.30476 -1.0011,0.56451 -1.12714,1.14992c-0.10693,0.49664 0.01741,1.01595 0.01741,1.52398c-0.04122,4.82847 1.46201,13.29505 7.7167,13.29505c4.98614,0 7.86453,-4.42465 9.43252,-8.59833c0.78388,-2.08654 0.89427,-3.60587 -0.30212,-5.54023c-2.20111,-2.9778 -5.49579,-4.08213 -9.13039,-4.08401c-0.12315,-0.00007 -0.24799,0.00254 -0.37407,0.00795c-0.01081,0.05141 -0.02834,0.10585 -0.05391,0.16339c-0.26432,0.59471 -0.85903,0.33039 -0.85903,0.33039l-0.62938,-0.2874c-1.42143,0.32725 -2.77716,1.05321 -3.46878,2.33988c0,0 -0.32289,0.56506 -0.88795,0.24217c-0.27106,-0.15489 -0.33779,-0.36551 -0.33385,-0.54275z" fill="#000000" fill-rule="nonzero" stroke="none" stroke-width="0.5" stroke-linecap="butt"/><path d="M521.74194,88.65368c0.56506,0.32289 0.88977,-0.24413 0.88977,-0.24413c0.69162,-1.28668 2.05976,-2.02034 3.48118,-2.34758l0.63113,0.28686c0,0 0.59792,0.26359 0.86224,-0.33112c0.02557,-0.05754 0.04338,-0.11203 0.05419,-0.16344c0.12608,-0.00541 0.25222,-0.00821 0.37537,-0.00814c3.6346,0.00189 6.96083,1.12121 9.16193,4.09901c1.1964,1.93437 1.09093,3.473 0.30705,5.55954c-1.56799,4.17369 -4.48284,8.62863 -9.46898,8.62863c-6.2547,0 -7.78335,-8.51279 -7.74214,-13.34126c0,-0.50803 -0.12228,-1.03104 -0.01535,-1.52768c0.12605,-0.58541 0.67474,-0.84912 1.13015,-1.15389c-0.00394,0.17724 0.06238,0.38832 0.33345,0.54322z" data-paper-data="{&quot;noHover&quot;:false,&quot;origItem&quot;:[&quot;Path&quot;,{&quot;applyMatrix&quot;:true,&quot;segments&quot;:[[[282.01246,61.46553],[-0.00606,0.27234],[-0.69977,0.46828]],[[280.28054,63.23244],[0.19368,-0.89951],[-0.16431,0.76312]],[[280.30729,65.57411],[0,-0.78061],[-0.06333,7.41921]],[[292.16444,86.00268],[-9.61069,0],[7.66148,0]],[[306.65802,72.79087],[-2.4093,6.4131],[1.20447,-3.20608]],[[306.19378,64.278],[1.83834,2.97227],[-3.38213,-4.57555]],[[292.16444,58.00268],[5.58476,0.0029],[-0.18923,-0.0001]],[[291.58966,58.0149],[0.19373,-0.00831],[-0.01661,0.079]],[[291.50682,58.26596],[0.03929,-0.08841],[-0.40614,0.91381]],[290.18687,58.77364],[[289.21979,58.33203],[0,0],[-2.1841,0.50284]],[[283.88982,61.92739],[1.06271,-1.97706],[0,0]],[[282.52544,62.2995],[0.86824,0.49614],[-0.4165,-0.238]]],&quot;closed&quot;:true}]}" fill="#ffffff" fill-rule="nonzero" stroke="none" stroke-width="0.5" stroke-linecap="butt"/><path d="M499.76227,96.92353c0,-0.80872 0.6556,-1.46431 1.46431,-1.46431c0.80872,0 1.46431,0.6556 1.46431,1.46431c0,0.80872 -0.6556,1.46431 -1.46431,1.46431c-0.80872,0 -1.46431,-0.6556 -1.46431,-1.46431z" fill="#000000" fill-rule="nonzero" stroke="none" stroke-width="0.5" stroke-linecap="butt"/><path d="M520.1604,94.87813c0,-0.80872 0.6556,-1.46431 1.46431,-1.46431c0.80872,0 1.46431,0.6556 1.46431,1.46431c0,0.80872 -0.6556,1.46431 -1.46431,1.46431c-0.80872,0 -1.46431,-0.6556 -1.46431,-1.46431z" fill="#000000" fill-rule="nonzero" stroke="none" stroke-width="0.5" stroke-linecap="butt"/><path d="M485.08658,67.30719l27.70577,18.5015" fill="none" fill-rule="nonzero" stroke="#000000" stroke-width="3.5" stroke-linecap="round"/><path d="M520.23014,84.41411l31.9825,-23.52201" fill="none" fill-rule="nonzero" stroke="#000000" stroke-width="3.5" stroke-linecap="round"/><path d="M462.18798,368.29471l-15.05548,-27.89779l71.67141,0.33232l25.61791,27.66368z" data-paper-data="{&quot;index&quot;:null}" fill="#cedce9" fill-rule="nonzero" stroke="#000000" stroke-width="1" stroke-linecap="round"/><path d="M545.38912,366.72952c-1.94741,0.2522 -3.85851,0.3746 -5.74918,0.44876c0.01148,0.04727 0.01674,0.09642 0.01536,0.14747c-0.03418,1.24387 -3.98186,1.13538 -3.98186,1.13538c-17.43554,-0.47916 -34.87109,-0.95832 -52.3066,-1.43749c-4.48665,-0.12331 -15.63515,-0.99443 -18.96474,-0.34139c-1.9179,0.37616 -3.28132,0.29623 -5.72531,0.28527c-0.27588,-0.00123 -0.77765,-0.00146 -1.22092,-0.00528c2.34715,0.59616 1.07062,5.47428 1.0329,6.84654c-0.15954,5.80472 -0.31904,11.60941 -0.47858,17.4141c-0.02849,1.03655 -0.05698,2.07313 -0.08545,3.10966c-0.0114,0.41465 -0.73814,1.57699 -0.03418,1.24387c2.67839,-1.26739 7.81383,-0.40526 13.83394,-0.2422c11.86694,0.32139 24.58266,0.27069 36.21921,1.26366c21.24606,1.92609 44.1875,0.41211 65.25952,2.48665c17.74354,1.8894 39.02608,2.60062 57.34654,3.1041c4.60566,0.12656 9.21122,0.25314 13.81685,0.37971c0.69295,0.01906 1.78178,0.01954 2.90918,0.01826c-1.11565,-0.66924 0.11323,-2.17969 0.13703,-3.04658c0.089,-3.23845 3.68776,-8.73008 -0.46181,-11.75589c-3.64057,-3.63578 -5.91145,-7.10241 -11.91152,-10.79349c-4.42705,-2.72343 -11.36656,-5.22037 -15.01763,-7.90515c-1.76216,-1.58872 -3.40776,-0.5331 -9.2743,-1.05081c-12.98112,-1.14552 -26.02685,-1.33767 -39.4596,-1.70682c-4.89632,-0.13457 -11.05431,0.0097 -15.7907,-0.43396c-0.99982,-0.09363 -2.87547,-0.39119 -4.2809,-0.63127c2.56346,0.69916 -3.34206,1.14502 -5.82727,1.46687zM483.43502,364.53593c13.17724,0.36212 26.35451,0.72428 39.53173,1.0864c0.38181,-0.04945 0.76347,-0.09887 1.14523,-0.14831c5.0286,-0.65122 9.54327,-0.31795 13.84253,-0.55318c5.85902,-0.32058 9.40022,-1.84518 15.44231,-2.06522c3.47091,-0.12639 13.04788,0.84956 17.95939,0.98454c13.31781,0.36599 26.62761,0.49165 39.45957,1.70681c7.20851,0.68264 13.33771,-0.09353 16.63585,2.88005c0.46781,1.108 4.43387,1.90146 6.49494,2.80054c3.14979,1.37402 5.75966,3.35247 8.18524,4.84459c6.01294,3.69901 8.59969,7.40469 12.33101,11.13114c3.31858,3.91107 0.95452,8.5829 0.84538,12.5537c-0.06034,2.19531 0.99523,3.77275 -4.10149,5.4889c-1.77734,0.59846 -18.01472,-0.49508 -20.72527,-0.56957c-18.89672,-0.51931 -40.97182,-1.2837 -59.25941,-3.23103c-20.08318,-2.40767 -44.11856,-0.56718 -64.89377,-2.45059c-16.73784,-1.65112 -42.7109,0.80817 -56.33302,-3.63528c-1.34865,-0.43995 0.10143,-3.69069 0.11965,-4.35354c0.15954,-5.80472 0.31905,-11.60939 0.47858,-17.41409c0.05334,-1.94072 -2.53442,-6.64893 1.62413,-7.98091c7.25699,-2.32443 20.69256,-1.36423 31.21756,-1.07498z" data-paper-data="{&quot;index&quot;:null}" fill="#000000" fill-rule="nonzero" stroke="none" stroke-width="1" stroke-linecap="butt"/><path d="M539.58656,367.11703c1.89059,-0.07416 3.82473,-0.19759 5.77224,-0.44978c2.48521,-0.32184 8.41415,-0.76782 5.85063,-1.46698c1.40544,0.24007 3.29677,0.53802 4.29651,0.63167c4.73639,0.44364 10.94935,0.30402 15.8456,0.43858c13.43266,0.36916 26.5626,0.58103 39.54368,1.72658c5.86652,0.51772 7.52427,-0.53285 9.2864,1.05586c3.65114,2.68477 10.61967,5.20106 15.04677,7.92449c6.00008,3.69109 8.27842,7.18154 11.91898,10.81734c4.14964,3.02581 0.53174,8.53845 0.44274,11.77689c-0.02383,0.86689 -1.2602,2.38152 -0.14451,3.05077c-1.12733,0.00129 -2.21767,0.00152 -2.91068,-0.01751c-4.60563,-0.12656 -9.21941,-0.24945 -13.82502,-0.37603c-18.3206,-0.50348 -39.69013,-1.19542 -57.43367,-3.08483c-21.07203,-2.0745 -44.22229,-0.57837 -65.46839,-2.50445c-11.63656,-0.99299 -24.38776,-0.95746 -36.25473,-1.27886c-6.02006,-0.16304 -11.16011,-1.02798 -13.83851,0.23941c-0.70398,0.33311 0.01986,-0.83119 0.03125,-1.24581c0.02849,-1.03655 0.05036,-2.07834 0.07885,-3.11486c0.15954,-5.80472 0.31178,-11.64415 0.47129,-17.44887c0.03772,-1.37225 1.32657,-6.26194 -1.02061,-6.85811c0.44333,0.00384 0.94554,0.00376 1.22139,0.00499c2.4439,0.01098 3.8105,0.0889 5.72834,-0.28723c3.32958,-0.65302 14.48839,0.2126 18.97503,0.33591c17.43563,0.47916 34.96475,0.93615 52.40028,1.41532c0,0 3.96709,0.1069 4.00128,-1.13695c0.0014,-0.05108 -0.0034,-0.10022 -0.01488,-0.14751z" data-paper-data="{&quot;noHover&quot;:false,&quot;origItem&quot;:[&quot;Path&quot;,{&quot;applyMatrix&quot;:true,&quot;segments&quot;:[[[579.60736,595.76373],[0.95609,-0.20262],[0.00646,0.07548]],[[579.61718,596],[0,-0.08208],[0,2]],[[577.61718,598],[0,0],[-8.83333,0]],[[551.11718,598],[8.83333,0],[-2.27308,0]],[[541.51161,598.28885],[1.67648,-1.19621],[-0.96568,0.68904]],[[538.61718,599],[1.23739,-0.09027],[-0.13966,0.01019]],[[537.99901,599.04541],[0.22447,-0.0134],[1.19653,0.85421]],[[538.61718,610],[0,-2.20646],[0,9.33333]],[[538.61718,638],[0,-9.33333],[0,1.66667]],[[538.61718,643],[0,-1.66667],[0,0.66667]],[[538.61718,645],[-0.35177,0.56631],[1.33831,-2.15456]],[[545.61718,644],[-3.04994,0.00386],[6.01206,-0.00761]],[[563.97058,644.43107],[-5.90478,-1.08158],[10.78253,2.15651]],[[597.04254,645.54479],[-10.6965,-2.40266],[9.00888,2.25222]],[[626.11718,648],[-9.28168,0],[2.33333,0]],[[633.11718,648],[-2.33333,0],[0.35109,0]],[[634.59021,647.90091],[-0.5707,0.05184],[-0.57412,-1.02596]],[[634.61718,643],[0,1.39387],[0,-5.20707]],[[634.21982,624.13246],[2.14282,4.67827],[-1.8936,-5.6808]],[[628.03948,607.31672],[3.08887,5.66543],[-2.2791,-4.1802]],[[620.32688,595.27881],[1.8857,4.15235],[-0.91417,-2.47477]],[[615.61718,594],[2.9771,0.57275],[-6.58756,-1.26734]],[[595.61718,593],[6.8054,0],[-2.48058,0]],[[587.61718,593],[2.40395,0.50364],[-0.50743,-0.10631]],[[585.44122,592.1748],[0.71481,0.32365],[1.30749,1.01011]],[[582.51161,594.78885],[1.25365,-0.62682],[-0.98239,0.4912]]],&quot;closed&quot;:true}],&quot;index&quot;:null}" fill="#c9c9c9" fill-rule="nonzero" stroke="none" stroke-width="1" stroke-linecap="butt"/><path d="M594.80299,373.19812c0.00396,-0.14423 -0.04408,-0.38728 -0.08983,-0.626c-0.20598,0.09072 -0.51155,0.16447 -0.90353,0.22357c-1.17994,0.34271 -2.95438,0.29395 -2.95438,0.29395c-15.0367,-0.41324 -23.8124,2.65012 -29.22351,5.9776c-0.63618,0.37691 -0.59398,0.85325 -0.60609,1.29386c-0.00344,0.12536 -0.04696,0.32354 -0.0942,0.52847c0.04157,-0.06526 0.14232,-0.11704 0.34535,-0.14648c0.89714,-0.13008 8.6334,1.02952 9.60089,0.51118c0.29074,-0.15577 -1.39869,-0.23305 -1.3004,-0.41502c1.20891,-2.23713 13.46294,-5.33449 19.46627,-6.11195c1.55701,-0.20165 3.30561,-0.27658 5.04211,-0.28518c-0.66916,-0.3515 0.70575,-0.82359 0.7173,-1.24396zM560.90774,380.99193c-0.10166,0.43974 -0.19276,0.86028 0.08365,0.61301c0.18894,-0.16896 -0.07019,-0.42057 -0.08365,-0.61301zM554.60061,377.76063c5.73415,-3.19633 13.3219,-6.04586 25.04863,-6.92724c1.11333,-0.51071 3.37916,-0.44843 3.37916,-0.44843l1.9738,0.05423c4.46938,0.12283 6.84743,-0.30281 11.64813,-0.17088c6.66703,0.18323 8.09768,4.40283 4.57775,5.53031c-2.22122,0.71146 -5.75701,0.86775 -8.71479,1.25081c-8.75505,1.1338 -12.09802,4.99139 -21.70394,6.69257c-10.18106,1.80298 -21.20245,-3.02292 -16.20876,-5.98134z" data-paper-data="{&quot;index&quot;:null}" fill="#000000" fill-rule="nonzero" stroke="none" stroke-width="1" stroke-linecap="butt"/><path d="M594.86094,372.53446c0.04588,0.23872 0.10293,0.4855 0.09896,0.62971c-0.01155,0.42037 -1.37051,0.90057 -0.70132,1.25207c-1.7365,0.00862 -3.49498,0.07821 -5.05206,0.27985c-6.00338,0.77745 -18.3156,3.85576 -19.52448,6.0929c-0.09841,0.18199 1.40058,0.36335 1.10981,0.51912c-0.96748,0.51832 -8.77056,-0.65948 -9.66772,-0.5294c-0.20312,0.02946 -0.3029,0.08159 -0.34443,0.14689c0.04725,-0.20495 0.08353,-0.4062 0.08697,-0.53155c0.01211,-0.44059 -0.04705,-0.92605 0.58911,-1.30295c5.41109,-3.32748 14.50233,-6.45529 29.53902,-6.04204c0,0 1.78242,0.05165 2.96236,-0.29106c0.39199,-0.05911 0.69771,-0.13284 0.9036,-0.22355z" data-paper-data="{&quot;noHover&quot;:false,&quot;origItem&quot;:[&quot;Path&quot;,{&quot;applyMatrix&quot;:true,&quot;segments&quot;:[[[607.563,601.99816],[0.02649,0.38155],[-0.10299,0.15484]],[[607.10872,602.39727],[0.1976,-0.11227],[-0.59254,0.60273]],[[605.61718,603],[0,0],[-7.618,0]],[[590.90604,613.89443],[2.69308,-5.58508],[-0.31682,0.63364]],[[590.61718,616],[0,-0.70843],[0,0.20156]],[[590.57685,616.85325],[0.02106,-0.33136],[0.02013,-0.10671]],[[590.74964,616.60263],[-0.10238,0.05628],[0.45234,-0.24865]],[[595.61718,617],[-0.48256,0.87548],[0.14503,-0.26312]],[[594.95308,616.3906],[-0.04725,0.29671],[0.58086,-3.64773]],[[604.72276,605.71115],[-3.02833,1.51416],[0.78545,-0.39273]],[[607.27135,605.03032],[-0.87898,0.0905],[-0.34365,-0.53523]],[[607.61718,603],[0,0.6759],[0,-0.23192]]],&quot;closed&quot;:true}],&quot;index&quot;:null}" fill="#ffffff" fill-rule="nonzero" stroke="none" stroke-width="1" stroke-linecap="butt"/><path d="M-5.54406,371.18008l25.68393,-27.60239l71.67197,-0.16114l-15.12206,27.86174z" data-paper-data="{&quot;index&quot;:null}" fill="#cedce9" fill-rule="nonzero" stroke="#000000" stroke-width="1" stroke-linecap="round"/><path d="M44.83987,192.26977l283.66972,-0.23177l279.12706,166.48687l-187.30457,-2.52863l-220.7126,-112.12488l-16.52951,-6.13708l-15.30495,3.96316l-10.93384,8.11751l-63.8365,114.55693l-119.30119,2.9635z" data-paper-data="{&quot;index&quot;:null}" fill="#af9c6f" fill-rule="nonzero" stroke="#000000" stroke-width="1" stroke-linecap="round"/><path d="M-12.35966,369.72306c-2.47494,-0.39294 -8.36525,-1.0079 -5.78282,-1.63331c-1.41175,0.19969 -3.29515,0.44334 -4.29724,0.50827c-4.74717,0.30769 -10.89848,-0.01302 -15.79665,-0.01887c-13.4378,-0.01605 -26.48369,-0.19797 -39.49231,0.575c-5.87896,0.34933 -7.49364,-0.75304 -9.30064,0.78453c-3.72652,2.57901 -10.73478,4.876 -15.23806,7.47142c-6.10343,3.5176 -8.47273,6.91767 -12.21602,10.44761c-4.23461,2.90561 -0.79473,8.49813 -0.7986,11.73781c-0.00103,0.86721 1.18403,2.41227 0.04965,3.04926c1.1269,0.03361 2.2153,0.06431 2.90853,0.06513c4.60737,0.00549 9.21467,0.01101 13.82206,0.01649c18.3274,0.02189 39.62154,-0.07896 57.41194,-1.45897c21.12282,-1.46963 44.01146,0.70133 65.30399,-0.61495c11.66023,-0.659 24.36926,-0.24383 36.24053,-0.22489c6.02232,0.00959 11.18033,-0.70498 13.8213,0.63868c0.69414,0.35318 0.00098,-0.82956 0.00148,-1.24434c0.00124,-1.03694 0.00249,-2.0739 0.00371,-3.11084c0.00694,-5.80691 0.01386,-11.61379 0.02081,-17.42067c0.00165,-1.37277 -1.13454,-6.28549 1.22875,-6.81411c-0.44321,-0.00886 -0.9448,-0.02305 -1.22057,-0.02971c-2.44328,-0.05911 -3.80844,-0.01829 -5.71478,-0.44928c-3.30949,-0.74819 -14.4784,-0.19701 -18.96675,-0.20237c-17.4421,-0.02083 -34.88417,-0.04166 -52.32631,-0.06249c0,0 -3.94915,-0.00471 -3.94766,-1.24903c0.00006,-0.05109 0.00673,-0.10004 0.01957,-0.14697c-1.88775,-0.12833 -3.79455,-0.30546 -5.73394,-0.61339zM49.63168,369.30632c10.52899,0.01257 23.98656,-0.5621 31.17392,1.9694c4.11869,1.45066 1.39698,6.08273 1.39468,8.02418c-0.00694,5.80691 -0.01386,11.61379 -0.02081,17.42067c-0.00079,0.66309 1.3555,3.95407 -0.00521,4.35517c-13.74384,4.05115 -39.63577,0.84837 -56.41408,2.019c-20.82066,1.28711 -44.79339,-1.24159 -64.93732,0.5894c-18.33589,1.42231 -40.42385,1.55359 -59.32768,1.53101c-2.71155,-0.00324 -18.97367,0.62439 -20.73307,-0.02476c-5.0454,-1.86155 -3.94508,-3.40809 -3.94246,-5.60422c0.00474,-3.9723 -2.2244,-8.70998 1.20492,-12.52432c3.83662,-3.61793 6.52851,-7.24796 12.64503,-10.77308c2.46734,-1.42197 5.13285,-3.32481 8.32075,-4.60798c2.086,-0.83964 6.07318,-1.51909 6.57254,-2.61322c3.38201,-2.87781 9.48645,-1.92626 16.71156,-2.40198c12.86156,-0.84684 26.16949,-0.59091 39.49231,-0.575c4.91337,0.00587 14.51439,-0.69517 17.98024,-0.46933c6.0333,0.39314 9.52934,2.01863 15.37676,2.50704c4.29075,0.35837 8.81309,0.15466 13.82098,0.94975c0.38019,0.06037 0.76032,0.12071 1.14052,0.18107c13.18218,0.01574 26.36438,0.03149 39.54659,0.04724z" data-paper-data="{&quot;index&quot;:null}" fill="#000000" fill-rule="nonzero" stroke="none" stroke-width="1" stroke-linecap="butt"/><path d="M-6.57077,370.27676c-0.01285,0.04696 -0.01906,0.09594 -0.01912,0.147c-0.00148,1.24434 3.96705,1.2512 3.96705,1.2512c17.4421,0.02083 34.97712,0.06651 52.41931,0.08734c4.48834,0.00536 15.66735,-0.54001 18.97685,0.20816c1.90627,0.43097 3.27455,0.39225 5.71775,0.45132c0.27582,0.00668 0.77777,0.02115 1.22104,0.03005c-2.3633,0.52865 -1.21513,5.45325 -1.21679,6.82604c-0.00694,5.80691 -0.02215,11.6483 -0.02907,17.45519c-0.00124,1.03694 -0.00925,2.07894 -0.01048,3.11585c-0.0005,0.4148 0.68969,1.59934 -0.00446,1.24619c-2.64098,-1.34364 -7.80367,-0.6264 -13.82598,-0.63601c-11.87128,-0.0189 -24.61628,-0.41993 -36.2765,0.23907c-21.29257,1.31627 -44.39044,-0.84289 -65.51327,0.62676c-17.79042,1.38001 -39.17099,1.4591 -57.49849,1.43722c-4.60737,-0.00549 -9.22275,-0.01492 -13.83013,-0.02042c-0.69327,-0.00083 -1.78318,-0.03235 -2.91,-0.06593c1.13441,-0.63697 -0.05803,-2.18645 -0.057,-3.05366c0.00387,-3.23967 -3.45455,-8.85375 0.78011,-11.75937c3.74328,-3.52992 6.12073,-6.95366 12.22417,-10.4712c4.50333,-2.59542 11.54121,-4.91093 15.26777,-7.48991c1.80698,-1.53756 3.43392,-0.4399 9.31287,-0.78923c13.00859,-0.77296 26.1392,-0.60838 39.57693,-0.59234c4.89804,0.00585 11.1045,0.3235 15.85166,0.01581c1.00199,-0.06496 2.90111,-0.30855 4.31284,-0.50825c-2.58252,0.62538 3.33124,1.24114 5.80617,1.63407c1.93948,0.30792 3.86927,0.48673 5.75699,0.61505z" data-paper-data="{&quot;noHover&quot;:false,&quot;origItem&quot;:[&quot;Path&quot;,{&quot;applyMatrix&quot;:true,&quot;segments&quot;:[[[579.60736,595.76373],[0.95609,-0.20262],[0.00646,0.07548]],[[579.61718,596],[0,-0.08208],[0,2]],[[577.61718,598],[0,0],[-8.83333,0]],[[551.11718,598],[8.83333,0],[-2.27308,0]],[[541.51161,598.28885],[1.67648,-1.19621],[-0.96568,0.68904]],[[538.61718,599],[1.23739,-0.09027],[-0.13966,0.01019]],[[537.99901,599.04541],[0.22447,-0.0134],[1.19653,0.85421]],[[538.61718,610],[0,-2.20646],[0,9.33333]],[[538.61718,638],[0,-9.33333],[0,1.66667]],[[538.61718,643],[0,-1.66667],[0,0.66667]],[[538.61718,645],[-0.35177,0.56631],[1.33831,-2.15456]],[[545.61718,644],[-3.04994,0.00386],[6.01206,-0.00761]],[[563.97058,644.43107],[-5.90478,-1.08158],[10.78253,2.15651]],[[597.04254,645.54479],[-10.6965,-2.40266],[9.00888,2.25222]],[[626.11718,648],[-9.28168,0],[2.33333,0]],[[633.11718,648],[-2.33333,0],[0.35109,0]],[[634.59021,647.90091],[-0.5707,0.05184],[-0.57412,-1.02596]],[[634.61718,643],[0,1.39387],[0,-5.20707]],[[634.21982,624.13246],[2.14282,4.67827],[-1.8936,-5.6808]],[[628.03948,607.31672],[3.08887,5.66543],[-2.2791,-4.1802]],[[620.32688,595.27881],[1.8857,4.15235],[-0.91417,-2.47477]],[[615.61718,594],[2.9771,0.57275],[-6.58756,-1.26734]],[[595.61718,593],[6.8054,0],[-2.48058,0]],[[587.61718,593],[2.40395,0.50364],[-0.50743,-0.10631]],[[585.44122,592.1748],[0.71481,0.32365],[1.30749,1.01011]],[[582.51161,594.78885],[1.25365,-0.62682],[-0.98239,0.4912]]],&quot;closed&quot;:true}],&quot;index&quot;:null}" fill="#c9c9c9" fill-rule="nonzero" stroke="none" stroke-width="1" stroke-linecap="butt"/><path d="M-61.93866,374.77259c-0.00051,0.42054 1.36033,0.93184 0.68137,1.264c1.73553,0.05838 3.48127,0.1834 5.03187,0.42959c5.97856,0.94923 18.13879,4.39656 19.28307,6.66743c0.09305,0.18471 -1.59794,0.21355 -1.31177,0.37758c0.9522,0.54584 8.71858,-0.39152 9.6116,-0.23576c0.2021,0.03525 0.30135,0.08993 0.34103,0.15632c-0.04135,-0.2062 -0.07918,-0.40555 -0.07904,-0.53097c0.00053,-0.44077 0.05635,-0.9157 -0.56877,-1.31068c-5.31353,-3.4812 -13.99782,-6.79489 -29.04019,-6.81285c0,0 -1.77511,-0.00212 -2.94473,-0.37852c-0.39012,-0.07032 -0.69343,-0.15279 -0.89675,-0.24937c-0.05257,0.23732 -0.10754,0.47889 -0.10772,0.62317zM-28.38196,384.14514c0.26921,0.25509 0.1902,-0.16786 0.1012,-0.61035c-0.01897,0.19196 -0.2852,0.43605 -0.1012,0.61035zM-21.88353,380.48558c4.90685,3.10036 -6.24837,7.60835 -16.37357,5.51426c-9.55322,-1.9758 -12.78426,-5.92767 -21.50318,-7.31196c-2.94556,-0.46765 -6.47545,-0.72525 -8.67534,-1.50009c-3.48619,-1.2279 -1.93515,-5.40477 4.73438,-5.39681c4.80252,0.00573 7.16739,0.49936 11.63846,0.50469l1.97454,0.00235c0,0 2.26667,0.00271 3.36493,0.54512c11.69666,1.21716 19.19963,4.28306 24.83977,7.64243z" data-paper-data="{&quot;index&quot;:null}" fill="#000000" fill-rule="nonzero" stroke="none" stroke-width="1" stroke-linecap="butt"/><path d="M-61.97751,374.10751c0.20318,0.09657 0.50669,0.17902 0.89683,0.24937c1.16962,0.37639 2.95278,0.37587 2.95278,0.37587c15.04235,0.01796 24.0402,3.40509 29.35367,6.88629c0.62515,0.39499 0.55205,0.87857 0.55153,1.31932c-0.00014,0.12541 0.03037,0.3276 0.07171,0.53382c-0.03962,-0.06645 -0.13791,-0.12141 -0.34008,-0.15668c-0.89304,-0.15575 -8.72669,0.79788 -9.67891,0.25206c-0.28619,-0.16404 1.21739,-0.30237 1.12424,-0.4871c-1.14424,-2.27087 -13.36318,-5.70086 -19.34181,-6.6501c-1.55065,-0.2462 -3.30641,-0.36616 -5.04196,-0.42455c0.67897,-0.33221 -0.66565,-0.85114 -0.66515,-1.27168c0.00016,-0.14429 0.06428,-0.3893 0.11698,-0.62662z" data-paper-data="{&quot;noHover&quot;:false,&quot;origItem&quot;:[&quot;Path&quot;,{&quot;applyMatrix&quot;:true,&quot;segments&quot;:[[[607.563,601.99816],[0.02649,0.38155],[-0.10299,0.15484]],[[607.10872,602.39727],[0.1976,-0.11227],[-0.59254,0.60273]],[[605.61718,603],[0,0],[-7.618,0]],[[590.90604,613.89443],[2.69308,-5.58508],[-0.31682,0.63364]],[[590.61718,616],[0,-0.70843],[0,0.20156]],[[590.57685,616.85325],[0.02106,-0.33136],[0.02013,-0.10671]],[[590.74964,616.60263],[-0.10238,0.05628],[0.45234,-0.24865]],[[595.61718,617],[-0.48256,0.87548],[0.14503,-0.26312]],[[594.95308,616.3906],[-0.04725,0.29671],[0.58086,-3.64773]],[[604.72276,605.71115],[-3.02833,1.51416],[0.78545,-0.39273]],[[607.27135,605.03032],[-0.87898,0.0905],[-0.34365,-0.53523]],[[607.61718,603],[0,0.6759],[0,-0.23192]]],&quot;closed&quot;:true}],&quot;index&quot;:null}" fill="#ffffff" fill-rule="nonzero" stroke="none" stroke-width="1" stroke-linecap="butt"/><path d="M40.60981,206.26722v0.49847l-3.3231,-0.16616z" data-paper-data="{&quot;index&quot;:null}" fill="#909090" fill-rule="evenodd" stroke="#000000" stroke-width="0.5" stroke-linecap="butt"/><path d="M89.79177,205.6026v1.32925l3.65541,0.16615h-3.82157z" data-paper-data="{&quot;index&quot;:null}" fill="#acacac" fill-rule="evenodd" stroke="#000000" stroke-width="0.5" stroke-linecap="butt"/><path d="M51.02868,197.51113c1.2285,0 2.45539,0 3.68388,0c-1.25252,0.15889 -2.53387,0.21238 -3.84405,0.16017c-0.04965,-0.51463 0.0032,-0.99513 0.16017,-1.44152c0,0.42717 0,0.85418 0,1.28135z" data-paper-data="{&quot;index&quot;:null}" fill="#6b6b6b" fill-rule="evenodd" stroke="none" stroke-width="1" stroke-linecap="butt"/><path d="M45.58294,197.51113c1.54883,0 3.09606,0 4.64489,0c-1.57286,0.15921 -3.17454,0.21255 -4.80506,0.16017c-0.04325,-0.25611 0.01121,-0.46962 0.16017,-0.64067c0,0.16017 0,0.32034 0,0.4805z" data-paper-data="{&quot;index&quot;:null}" fill="#9e9e9e" fill-rule="evenodd" stroke="none" stroke-width="1" stroke-linecap="butt"/><path d="M92.67255,197.67129c1.33901,0.00032 2.62036,0.10716 3.84405,0.32034c-2.54989,-0.15761 -5.11259,-0.21094 -7.6881,-0.16017c1.25412,-0.10667 2.53547,-0.16017 3.84405,-0.16017z" data-paper-data="{&quot;index&quot;:null}" fill="#484848" fill-rule="evenodd" stroke="none" stroke-width="1" stroke-linecap="butt"/><path d="M308.09947,198.79248c0,0.16017 0,0.32034 0,0.4805c-1.88182,-0.31185 -3.80385,-0.41868 -5.76607,-0.32034c1.89352,-0.15937 3.81554,-0.2127 5.76607,-0.16017z" data-paper-data="{&quot;index&quot;:null}" fill="#838383" fill-rule="evenodd" stroke="none" stroke-width="1" stroke-linecap="butt"/><path d="M315.53086,152.12616c0,0.21698 0,0.43413 0,0.65111c-0.1548,-0.23098 -0.20901,-0.50216 -0.16278,-0.81389c0.6301,-0.05127 1.22701,0.00293 1.79054,0.16278c-0.54254,0 -1.08523,0 -1.62776,0z" data-paper-data="{&quot;index&quot;:null}" fill="#535353" fill-rule="evenodd" stroke="none" stroke-width="1" stroke-linecap="butt"/><path d="M324.21454,86.00005l41.8998,1.05741l0.26436,2.84179l-0.13218,0.66088l-28.41785,12.02802l0.5287,6.14619l3.43658,35.291l0.79306,7.40186l0.13218,1.6522l-13.74631,1.58611l-0.13218,0.5287l0.26436,3.23832l3.96529,43.88244l-16.78636,0.13218l-0.26436,1.25567l-7.00533,1.71829l-24.98127,0.26436l-19.16553,-1.58611l-3.04005,-1.05741h-21.54469l-9.3845,-4.36181l-187.16127,1.38784l-1.98264,-0.13218l-0.26436,-0.46261l2.37917,-24.78301l-0.5287,-0.13218v-0.26436h0.5287l1.18958,-13.74631l0.66088,-7.00533l-18.10812,-2.64352l-0.26436,-0.26436l0.39652,-2.70961l5.28704,-0.06609l25.24562,0.06609l12.1602,0.46261l-42.42851,-0.26436l-0.26436,2.51134l168.7888,0.92523v-2.37917l-124.90636,-0.79306h43.88244h0.79306l0.72697,-18.50464l-14.47327,-10.83843l-0.06609,-1.98264l1.45393,-0.26436l15.66286,0.26436h2.37917l0.79306,-0.06609l-8.52535,-9.18623l0.06609,-2.64352l49.69819,0.92523l17.97594,0.26436l0.92523,-8.06274l14.93589,0.26436l24.18821,0.39652l10.17755,-15.13416z" data-paper-data="{&quot;index&quot;:null}" fill="#000001" fill-rule="evenodd" stroke="none" stroke-width="0.5" stroke-linecap="butt" opacity="0.913"/><path d="M232.48438,87.05746l-0.13218,-2.7757l2.24699,-0.13218l130.32558,3.23832l0.85914,0.33044l0.33044,2.37917l-0.72697,0.13218z" data-paper-data="{&quot;index&quot;:null}" fill="#e4e4e4" fill-rule="evenodd" stroke="none" stroke-width="0.5" stroke-linecap="butt" opacity="0.999"/><path d="M232.3522,84.28177l0.13218,2.7757l-0.85914,0.79306l-9.25232,13.34978l0.13218,-2.24699z" data-paper-data="{&quot;index&quot;:null}" fill="#cfcfcf" fill-rule="evenodd" stroke="none" stroke-width="0.5" stroke-linecap="butt"/><path d="M324.21454,85.7357l36.74494,0.72697l2.04873,0.19827l3.76702,0.26436l0.06609,1.32176l0.39652,2.24699l-0.99132,0.92523l-6.47663,2.70961l-3.17223,1.05741l-1.58611,0.66088l-2.37917,1.32176l-1.58611,0.39652l-2.37917,0.92523l-3.17223,1.58611l-0.79306,0.13218l-0.39652,0.39652l-5.68357,2.84179l-0.26436,0.59479l0.26436,1.52002l0.26436,1.58611l-0.26436,0.33044l0.06609,0.85914h-0.33044v0.39652l-0.5287,-6.14619l28.41785,-12.02802l0.13218,-0.66088l-0.26436,-2.84179l-41.8998,-1.05741z" data-paper-data="{&quot;index&quot;:null}" fill="#69acfe" fill-rule="evenodd" stroke="none" stroke-width="0.5" stroke-linecap="butt" opacity="0.326"/><path d="M232.48438,87.32181l132.83692,3.23832l-27.5587,11.69758l-0.72697,-6.87315l-94.63804,-1.91655l-14.14283,15.9933l-10.97061,-0.19827z" data-paper-data="{&quot;index&quot;:null}" fill="#bab9b4" fill-rule="evenodd" stroke="none" stroke-width="0.5" stroke-linecap="butt"/><path d="M242.7941,93.66626l93.05194,2.04873l0.79306,0.19827l5.68357,56.96787l-97.41375,-0.5287z" data-paper-data="{&quot;index&quot;:null}" fill="#af9c6f" fill-rule="evenodd" stroke="none" stroke-width="0.5" stroke-linecap="butt"/><path d="M242.39758,93.93062l2.24699,58.35572l-5.81574,1.58611l-0.26436,0.72697l1.45393,47.97991l-8.98797,-4.16354l-0.19827,-0.33044l-2.24699,-88.29359z" data-paper-data="{&quot;index&quot;:null}" fill="#88774e" fill-rule="evenodd" stroke="none" stroke-width="0.5" stroke-linecap="butt"/><path d="M183.31488,98.55677l38.59541,0.79306v2.37917l-38.6615,-0.66088l-0.19827,-0.59479z" data-paper-data="{&quot;index&quot;:null}" fill="#e4e4e4" fill-rule="evenodd" stroke="none" stroke-width="0.5" stroke-linecap="butt" opacity="0.998"/><path d="M183.31488,101.33247l38.46323,0.85914l-5.15487,7.2036l-18.50464,-0.39652l-3.3044,0.13218l-3.70093,10.83843l-7.40186,0.13218l1.98264,-11.23496l-3.43658,-0.13218z" data-paper-data="{&quot;index&quot;:null}" fill="#b9b9b4" fill-rule="evenodd" stroke="none" stroke-width="0.5" stroke-linecap="butt"/><path d="M338.62173,103.44729v2.11482l-0.26436,-1.52002z" data-paper-data="{&quot;index&quot;:null}" fill="#8080ff" fill-rule="evenodd" stroke="none" stroke-width="0.5" stroke-linecap="butt" opacity="0.008"/><path d="M163.75282,105.69428l0.26436,0.39652l-49.69819,-0.92523l-0.06609,2.64352l8.52535,9.18623l-0.79306,0.06609v-0.79306l-1.58611,-0.99132l-0.13218,-0.46261h-0.39652l-0.13218,-0.66088l-1.05741,-0.5287l-0.26436,-0.92523l-0.5287,-0.5287l-0.66088,-0.66088l-0.5287,-0.79306l-0.79306,-0.59479l-0.79306,-0.46261l-0.92523,-1.25567l-0.39652,-0.06609l-0.33044,-1.18958l-0.06609,-1.85046h0.39652l0.13218,-0.46261l2.64352,-0.06609l16.52201,0.46261l14.80372,0.13218l0.79306,0.26436z" data-paper-data="{&quot;index&quot;:null}" fill="#68b0fe" fill-rule="evenodd" stroke="none" stroke-width="0.5" stroke-linecap="butt" opacity="0.376"/><path d="M114.58334,105.42993l67.40978,1.32176l-0.13218,1.98264l-67.40978,-1.05741z" data-paper-data="{&quot;index&quot;:null}" fill="#e5e5e5" fill-rule="evenodd" stroke="none" stroke-width="0.5" stroke-linecap="butt" opacity="0.998"/><path d="M114.8477,108.07345l70.58201,1.12349l-2.24699,11.43323h-4.09745v-5.81574l-41.63545,-0.66088l-0.26436,7.79839l-7.79839,-0.06609l-1.85046,-0.19827z" data-paper-data="{&quot;index&quot;:null}" fill="#b9b8b5" fill-rule="evenodd" stroke="none" stroke-width="0.5" stroke-linecap="butt" opacity="0.999"/><path d="M195.3429,156.31771v-3.56875l1.38784,-0.79306l0.06609,-3.04005h-1.45393l-0.13218,-39.65281l33.04401,0.5287l2.24699,88.55795l-33.44054,0.13218l-0.13218,-42.16416z" data-paper-data="{&quot;index&quot;:null}" fill="#af9c6f" fill-rule="evenodd" stroke="none" stroke-width="0.5" stroke-linecap="butt"/><path d="M194.68202,110.45262l0.19827,7.26968l0.06609,31.19355h-3.83311l0.06609,-27.88915z" data-paper-data="{&quot;index&quot;:null}" fill="#af9c6f" fill-rule="evenodd" stroke="none" stroke-width="0.5" stroke-linecap="butt"/><path d="M137.71415,114.4179l41.10674,0.66088l-0.26436,33.70489l-42.03198,-0.26436z" data-paper-data="{&quot;index&quot;:null}" fill="#88774e" fill-rule="evenodd" stroke="none" stroke-width="0.5" stroke-linecap="butt"/><path d="M102.81968,117.1936l20.48729,0.33044l1.45393,1.58611l-22.07339,-0.19827z" data-paper-data="{&quot;index&quot;:null}" fill="#e5e5e5" fill-rule="evenodd" stroke="none" stroke-width="0.5" stroke-linecap="butt" opacity="0.994"/><path d="M103.2162,119.30842l1.52002,-0.13218l19.89249,0.33044l0.66088,0.13218l1.98264,2.11482h-9.64885l-0.59479,7.7323z" data-paper-data="{&quot;index&quot;:null}" fill="#bab8b4" fill-rule="evenodd" stroke="none" stroke-width="0.5" stroke-linecap="butt" opacity="0.999"/><path d="M183.57924,120.36582l7.40186,0.19827l-0.13218,0.19827l-0.79306,0.13218l-6.47663,-0.13218z" data-paper-data="{&quot;index&quot;:null}" fill="#b9b9b4" fill-rule="evenodd" stroke="none" stroke-width="0.5" stroke-linecap="butt"/><path d="M179.08525,121.0267l11.76367,0.13218v27.75697l-12.02802,-0.13218z" data-paper-data="{&quot;index&quot;:null}" fill="#af9c6f" fill-rule="evenodd" stroke="none" stroke-width="0.5" stroke-linecap="butt"/><path d="M119.60603,117.06142l-15.66286,-0.26436l-1.45393,0.26436l0.06609,1.98264l14.47327,10.83843l-0.72697,18.50464h-0.79306l0.26436,-0.26436l0.26436,-10.44191l0.26436,-5.94792h0.39652v-1.71829l-1.18958,-0.5287v-0.39652l-0.39652,-0.06609l-2.90788,-2.04873l-0.26436,-0.5287l-0.5287,-0.13218l-2.7757,-1.91655l-3.3044,-2.70961l-1.85046,-1.45393l-1.05741,-0.5287v-3.17223l1.52002,-0.26436l12.62282,0.33044z" data-paper-data="{&quot;index&quot;:null}" fill="#66b5fc" fill-rule="evenodd" stroke="none" stroke-width="0.5" stroke-linecap="butt" opacity="0.311"/><path d="M117.88775,122.08411l19.2977,0.33044l-0.92523,26.10477l-19.69423,-0.13218z" data-paper-data="{&quot;index&quot;:null}" fill="#af9c6f" fill-rule="evenodd" stroke="none" stroke-width="0.5" stroke-linecap="butt"/><path d="M340.4722,123.14152l0.26436,2.37917z" data-paper-data="{&quot;index&quot;:null}" fill="#6b98ff" fill-rule="evenodd" stroke="none" stroke-width="0.5" stroke-linecap="butt" opacity="0.021"/><path d="M338.88609,107.14821v3.17223l0.46261,0.13218l0.13218,4.09745l0.26436,0.79306l0.72697,7.79839l0.26436,2.37917l0.46261,3.83311l0.06609,3.43658l0.26436,1.58611l0.59479,7.40186l0.33044,2.7757l-0.19827,0.13218l-0.46261,-0.66088l-3.43658,-35.291v-0.39652h0.33044l-0.06609,-0.85914z" data-paper-data="{&quot;index&quot;:null}" fill="#69b3fb" fill-rule="evenodd" stroke="none" stroke-width="0.5" stroke-linecap="butt" opacity="0.307"/><path d="M341.5296,134.37648l-0.26436,-1.58611z" data-paper-data="{&quot;index&quot;:null}" fill="#8080ff" fill-rule="evenodd" stroke="none" stroke-width="0.5" stroke-linecap="butt" opacity="0.008"/><path d="M115.77292,148.12279l0.26436,-10.44191z" data-paper-data="{&quot;index&quot;:null}" fill="#00fffe" fill-rule="evenodd" stroke="none" stroke-width="0.5" stroke-linecap="butt" opacity="0.004"/><path d="M342.45484,146.00798l0.5287,1.32176l-0.26436,-0.46261z" data-paper-data="{&quot;index&quot;:null}" fill="#7f8aff" fill-rule="evenodd" stroke="none" stroke-width="0.5" stroke-linecap="butt" opacity="0.008"/><path d="M341.79396,144.02534l0.46261,0.66088l0.19827,-0.13218v1.45393l0.26436,0.85914l0.26436,0.46261v0.66088l0.13218,3.43658h-0.5287z" data-paper-data="{&quot;index&quot;:null}" fill="#80bdec" fill-rule="evenodd" stroke="none" stroke-width="0.5" stroke-linecap="butt" opacity="0.364"/><path d="M70.43654,148.38715h1.18958l124.90636,0.79306v2.37917l-168.7888,-0.92523l0.26436,-2.51134z" data-paper-data="{&quot;index&quot;:null}" fill="#e5e5e5" fill-rule="evenodd" stroke="none" stroke-width="0.5" stroke-linecap="butt" opacity="0.994"/><path d="M30.78373,151.16284l9.45059,-0.13218l155.90164,0.99132l-0.5287,0.39652l-149.62327,-0.72697l-0.26436,1.58611z" data-paper-data="{&quot;index&quot;:null}" fill="#b9b9b4" fill-rule="evenodd" stroke="none" stroke-width="0.5" stroke-linecap="butt"/><path d="M195.3429,156.31771l1.18958,0.26436l0.26436,42.03198l-154.91032,1.05741l4.36181,-47.71555l148.69805,0.92523z" data-paper-data="{&quot;index&quot;:null}" fill="#88774e" fill-rule="evenodd" stroke="none" stroke-width="0.5" stroke-linecap="butt"/><path d="M33.03073,147.85843l-5.28704,0.06609l-0.39652,2.70961l0.26436,0.26436l18.10812,2.64352l-0.66088,7.00533l-0.5287,-0.39652v-0.92523h0.39652v-5.41922l-7.7323,-1.18958l-3.23832,-0.19827l-1.05741,-0.33044l-5.68357,-0.79306l-0.26436,-1.52002l0.39652,-2.11482h5.55139z" data-paper-data="{&quot;index&quot;:null}" fill="#92c4ec" fill-rule="evenodd" stroke="none" stroke-width="0.5" stroke-linecap="butt" opacity="0.287"/><path d="M244.64457,152.61678l29.87179,0.19827l-11.36714,0.5287l-3.83311,0.66088l-19.16553,-0.13218z" data-paper-data="{&quot;index&quot;:null}" fill="#af9c6f" fill-rule="evenodd" stroke="none" stroke-width="0.5" stroke-linecap="butt"/><path d="M281.52168,152.74895l22.99863,0.13218l3.96529,52.27563l-23.79169,0.19827z" data-paper-data="{&quot;index&quot;:null}" fill="#af9c6f" fill-rule="evenodd" stroke="none" stroke-width="0.5" stroke-linecap="butt"/><path d="M278.61381,152.88112h2.64352l3.04005,52.47389l-19.16553,-1.58611l-2.51134,-50.09472z" data-paper-data="{&quot;index&quot;:null}" fill="#af9c6f" fill-rule="evenodd" stroke="none" stroke-width="0.5" stroke-linecap="butt"/><path d="M304.91684,153.0133l6.87315,0.85914l0.26436,0.5287l3.96529,48.90513l-7.26968,1.78438z" data-paper-data="{&quot;index&quot;:null}" fill="#af9c6f" fill-rule="evenodd" stroke="none" stroke-width="0.5" stroke-linecap="butt"/><path d="M308.22124,153.14548l30.79701,0.06609l-9.51667,1.05741l-17.05072,-0.06609l-0.26436,-0.59479z" data-paper-data="{&quot;index&quot;:null}" fill="#af9c6f" fill-rule="evenodd" stroke="none" stroke-width="0.5" stroke-linecap="butt"/><path d="M342.58702,151.42719h0.5287l0.33044,0.26436l-0.59479,2.04873l-5.28704,0.39652l-0.66088,0.33044l-5.81574,0.46261l-1.18958,0.39652l0.13218,3.50267l-0.66088,-0.13218l-0.26436,-0.26436l-0.26436,-3.23832l0.13218,-0.5287l13.74631,-1.58611z" data-paper-data="{&quot;index&quot;:null}" fill="#92c7ee" fill-rule="evenodd" stroke="none" stroke-width="0.5" stroke-linecap="butt" opacity="0.416"/><path d="M261.69527,153.80636h0.66088l2.37917,49.83036l-3.04005,-0.92523l-2.24699,-48.04599l0.26436,-0.39652z" data-paper-data="{&quot;index&quot;:null}" fill="#af9c6f" fill-rule="evenodd" stroke="none" stroke-width="0.5" stroke-linecap="butt"/><path d="M238.961,154.20289l20.22294,0.13218l2.11482,48.24425l-20.88382,0.26436z" data-paper-data="{&quot;index&quot;:null}" fill="#88774e" fill-rule="evenodd" stroke="none" stroke-width="0.5" stroke-linecap="butt"/><path d="M312.45087,154.59942l11.23496,0.06609l4.82442,0.33044l4.16354,47.05467l-16.52201,0.13218z" data-paper-data="{&quot;index&quot;:null}" fill="#88774e" fill-rule="evenodd" stroke="none" stroke-width="0.5" stroke-linecap="butt"/><path d="M44.53004,160.15081l0.5287,0.39652l-1.18958,13.74631h-0.5287v-3.04005h0.39652z" data-paper-data="{&quot;index&quot;:null}" fill="#aecce2" fill-rule="evenodd" stroke="none" stroke-width="0.5" stroke-linecap="butt" opacity="0.399"/><path d="M322.7989,133.49775l-54.40004,0.4772l-1.90878,-37.63862l51.53688,1.43158z" data-paper-data="{&quot;index&quot;:null}" fill="#0061a3" fill-rule="nonzero" stroke="#000000" stroke-width="0.5" stroke-linecap="round"/><path d="M286.83045,196.12938l-1.43158,-37.22108h17.41756l2.38597,36.50529z" data-paper-data="{&quot;index&quot;:null}" fill="#0061a3" fill-rule="nonzero" stroke="#000000" stroke-width="0.5" stroke-linecap="round"/><path d="M308.78134,195.65218l-2.38597,-35.7895l4.77193,2.86316l2.14737,29.10879z" data-paper-data="{&quot;index&quot;:null}" fill="#0061a3" fill-rule="nonzero" stroke="#000000" stroke-width="0.5" stroke-linecap="round"/><path d="M268.21991,193.98202l-1.19299,-29.10879l12.16843,-4.05615l0.95438,35.3123z" data-paper-data="{&quot;index&quot;:null}" fill="#0061a3" fill-rule="nonzero" stroke="#000000" stroke-width="0.5" stroke-linecap="round"/><path d="M197.83389,198.51534l-0.4772,-38.41407l28.6316,0.4772l0.23859,38.41407z" data-paper-data="{&quot;index&quot;:null}" fill="#0061a3" fill-rule="nonzero" stroke="#000000" stroke-width="0.5" stroke-linecap="round"/><path d="M203.79881,198.75394l-1.43158,-38.17547h18.61054l0.23859,38.65266z" data-paper-data="{&quot;index&quot;:null}" fill="#6e3222" fill-rule="nonzero" stroke="#000000" stroke-width="0.5" stroke-linecap="round"/><path d="M172.54265,142.98197h-31.25616l0.95438,-20.9965l31.01756,-0.23859z" data-paper-data="{&quot;index&quot;:null}" fill="#0061a3" fill-rule="nonzero" stroke="#000000" stroke-width="0.5" stroke-linecap="round"/><path d="M50.59556,199.58903l4.29474,-44.85618l45.57197,0.23859l-0.71579,44.37898z" data-paper-data="{&quot;index&quot;:null}" fill="#982900" fill-rule="nonzero" stroke="#000000" stroke-width="0.5" stroke-linecap="round"/><path d="M63.95698,200.06623l2.62457,-36.50529l33.40354,-0.71579l-0.4772,36.74389z" data-paper-data="{&quot;index&quot;:null}" fill="#756a66" fill-rule="nonzero" stroke="#000000" stroke-width="0.5" stroke-linecap="round"/><path d="M109.4693,199.11183l2.38597,-36.98249l75.39655,-0.71579l0.95438,36.98249z" data-paper-data="{&quot;index&quot;:null}" fill="#756a66" fill-rule="nonzero" stroke="#000000" stroke-width="0.5" stroke-linecap="round"/><path d="M189.85509,105.36188c-0.09881,-0.02019 -0.15301,-0.07439 -0.16278,-0.16278c0.16034,-0.67292 0.21454,-1.37839 0.16278,-2.11609c0.21356,0.73494 0.21356,1.49461 0,2.27887z" data-paper-data="{&quot;index&quot;:null}" fill="#9e9e9e" fill-rule="evenodd" stroke="none" stroke-width="1" stroke-linecap="butt"/><path d="M190.34342,112.36127c0,1.03086 0,2.06189 0,3.09275c-0.16115,-0.94573 -0.21535,-1.92239 -0.16278,-2.92998c-4.04321,0.05388 -8.05842,-0.00033 -12.04546,-0.16278c4.06942,0 8.13882,0 12.20824,0z" data-paper-data="{&quot;index&quot;:null}" fill="#afafaf" fill-rule="evenodd" stroke="none" stroke-width="1" stroke-linecap="butt"/><path d="M214.84556,115.83109c1.05513,0.40099 1.49033,-0.60293 1.49033,-0.60293c0.22687,-0.55287 0.53941,-0.98468 0.89701,-1.29825c0.088,-0.0456 0.24091,-0.13666 0.37285,-0.27478c3.06225,-1.89072 9.24346,2.72155 9.50097,5.88848c0.16675,2.0507 -2.02305,3.26892 -3.00035,4.76508c-0.35978,0.55081 -0.74838,1.20154 -1.37543,1.46413c-1.36008,0.1832 -3.81679,1.05261 -5.11773,0.80118c-2.31632,-0.44766 -2.94106,-2.8718 -3.4742,-4.59156c-0.73186,-2.36071 -1.49911,-4.85964 0.18628,-6.50799c0.10913,0.1377 0.27456,0.26317 0.52016,0.35653z" data-paper-data="{&quot;noHover&quot;:false,&quot;origItem&quot;:[&quot;Path&quot;,{&quot;applyMatrix&quot;:true,&quot;segments&quot;:[[[303.75951,159.12161],[0.07472,0.14181],[-1.70229,1.28574]],[[302.66612,165.04188],[-0.29217,-2.27454],[0.21284,1.65697]],[[304.98984,169.71538],[-1.94531,-0.73116],[1.09249,0.41062]],[[309.51343,169.67697],[-1.20703,-0.01856],[0.58234,-0.15551]],[[310.90585,168.52331],[-0.39227,0.45765],[1.06552,-1.24311]],[[314.17667,164.58584],[-0.15326,1.91125],[0.23667,-2.95156]],[[306.84804,157.91071],[2.93246,-1.3193],[-0.13459,0.10897]],[[306.48773,158.11144],[0.08301,-0.02987],[-0.35593,0.2395]],[[305.5311,159.17855],[0.27722,-0.47785],[0,0]],[[304.15911,159.52155],[0.85749,0.5145],[-0.19963,-0.11978]]],&quot;closed&quot;:true}],&quot;index&quot;:null}" fill="#ffffff" fill-rule="nonzero" stroke="#000000" stroke-width="2" stroke-linecap="butt"/><path d="M198.97172,117.40526c1.80082,-0.57157 3.71909,-0.92571 5.53255,-1.40024c0.60681,-0.1588 1.35191,-0.83305 1.83889,-0.45729c1.31252,1.01276 4.54985,5.80851 3.20662,7.59204c-1.34854,1.79066 -4.05969,3.25718 -5.96429,4.59165c-0.84795,0.09848 -1.69223,0.50413 -2.54284,0.42989c-2.84448,-0.24818 -4.71818,-7.98457 -3.58695,-9.80829c0.21031,-0.33904 0.49973,-0.63592 0.79406,-0.9177c0.37345,0.08172 0.72197,-0.03016 0.72197,-0.03016z" data-paper-data="{&quot;noHover&quot;:false,&quot;origItem&quot;:[&quot;Path&quot;,{&quot;applyMatrix&quot;:true,&quot;segments&quot;:[[[287.24196,159.08011],[0.29648,0.12027],[-0.2814,0.20784]],[[286.46732,159.77235],[0.22005,-0.26889],[-1.1837,1.44643]],[[288.05629,168.74018],[-2.30956,-0.58883],[0.69062,0.17608]],[[290.19385,168.69081],[-0.71228,-0.02474],[1.75342,-0.91761]],[[295.68772,165.48695],[-1.35818,1.38911],[1.35284,-1.38365]],[[294.11298,158.49213],[0.94175,1.05695],[-0.34943,-0.39217]],[[292.54579,158.65657],[0.52189,-0.05948],[-1.55968,0.17776]],[[287.83801,159.15045],[1.56269,-0.26425],[0,0]]],&quot;closed&quot;:true}],&quot;index&quot;:null}" fill="#ffffff" fill-rule="nonzero" stroke="#000000" stroke-width="2" stroke-linecap="butt"/><path d="M206.68603,121.13867c-0.1104,-0.65942 0.36727,-1.2788 1.06688,-1.38343c0.69962,-0.10462 1.35627,0.34514 1.46667,1.00455c0.1104,0.65942 -0.36727,1.2788 -1.06689,1.38343c-0.69962,0.10462 -1.35627,-0.34514 -1.46667,-1.00456z" data-paper-data="{&quot;index&quot;:null}" fill="#000000" fill-rule="nonzero" stroke="none" stroke-width="0.5" stroke-linecap="butt"/><path d="M223.56715,119.60467c-0.1104,-0.65942 0.36727,-1.2788 1.06688,-1.38343c0.69962,-0.10462 1.35627,0.34514 1.46668,1.00455c0.1104,0.65942 -0.36727,1.2788 -1.06689,1.38343c-0.69962,0.10462 -1.35627,-0.34514 -1.46667,-1.00456z" data-paper-data="{&quot;index&quot;:null}" fill="#000000" fill-rule="nonzero" stroke="none" stroke-width="0.5" stroke-linecap="butt"/><path d="M231.15972,98.97933c0.64218,0.84716 -0.25706,1.45324 -0.25706,1.45324l-0.62135,0.4168c-4.96005,3.73313 -9.23134,8.19283 -14.21909,11.96857c0,0 -0.86223,0.65212 -1.5533,-0.16012c-0.69107,-0.81225 0.17116,-1.46437 0.17116,-1.46437c4.99361,-3.77335 9.27374,-8.21192 14.21909,-11.96857l0.71914,-0.48667c0,0 0.89923,-0.60608 1.54141,0.24111z" data-paper-data="{&quot;index&quot;:null}" fill="#000000" fill-rule="nonzero" stroke="none" stroke-width="1" stroke-linecap="butt"/><path d="M190.78019,107.06366c-0.17223,-1.02878 0.91926,-1.19199 0.91926,-1.19199l0.9982,0.02783c3.36622,1.4584 12.16029,6.69752 15.66051,5.9173c0,0 1.09149,-0.16322 1.26372,0.86555c0.17223,1.02878 -0.91926,1.19198 -0.91926,1.19198c-4.73615,0.53092 -12.5534,-4.18595 -16.92925,-6.08177l0.27053,0.13664c0,0 -1.09149,0.16322 -1.26372,-0.86555z" data-paper-data="{&quot;index&quot;:null}" fill="#000000" fill-rule="nonzero" stroke="none" stroke-width="1" stroke-linecap="butt"/><path d="M225.42907,125.8788c0.72387,-0.10824 0.83809,0.57403 0.83809,0.57403c0.10153,0.60647 0.2221,1.32665 0.32363,1.93312c0.97771,5.84006 0.7221,13.68941 -6.20838,16.07057c-2.11181,0.72556 -4.31208,0.18279 -6.44673,-0.00153c-5.11275,-1.51678 -9.09524,-3.80784 -12.04711,-8.13154c-1.26936,-1.85927 -1.87906,-4.03156 -3.48325,-5.66596c0,0 -0.49657,-0.50765 0.04236,-0.97617c0.53893,-0.46852 1.03551,0.03913 1.03551,0.03913c1.67356,1.71616 2.3156,3.91864 3.63987,5.85731c2.73967,4.0108 6.37106,6.08186 11.10207,7.52258c1.85335,0.14628 3.84793,0.70135 5.68109,0.04986c6.14873,-2.18521 6.10572,-9.35762 5.23681,-14.54777c-0.10153,-0.60647 -0.20306,-1.21295 -0.3046,-1.81941l-0.01904,-0.11372c0,0 -0.11422,-0.68227 0.60965,-0.79052z" data-paper-data="{&quot;index&quot;:null}" fill="#000000" fill-rule="nonzero" stroke="none" stroke-width="0.5" stroke-linecap="butt"/></g></g></svg>