<svg version="1.1" xmlns="http://www.w3.org/2000/svg" xmlns:xlink="http://www.w3.org/1999/xlink" width="897.96349" height="441.15726" viewBox="0,0,897.96349,441.15726"><g transform="translate(129.05036,-58.02006)"><g data-paper-data="{&quot;isPaintingLayer&quot;:true}" stroke-linejoin="miter" stroke-miterlimit="10" stroke-dasharray="" stroke-dashoffset="0" style="mix-blend-mode: normal"><g fill-rule="nonzero" stroke-width="1"><g stroke="none" stroke-linecap="butt"><path d="M267.4598,406.8997c-2.61622,0.35063 -8.76881,1.45747 -6.27814,0.21102c-1.39442,0.56047 -3.25996,1.2888 -4.2675,1.62132c-4.77296,1.57522 -11.12386,3.00453 -16.12337,4.35489c-13.71571,3.70459 -27.06981,7.15966 -40.16534,11.41652c-5.91823,1.9238 -7.82053,1.43306 -9.30916,3.2407c-3.20677,3.22448 -9.82738,7.11719 -13.82298,10.57055c-5.41536,4.6804 -7.04752,8.22764 -10.05173,12.26553c-3.64978,3.64285 1.15226,7.44729 1.89673,10.2036c0.19928,0.73782 1.76546,1.72394 0.75509,2.57955c1.15765,-0.28324 2.27536,-0.55829 2.98291,-0.74939c4.70264,-1.27018 9.40525,-2.54034 14.10795,-3.81052c18.70641,-5.05256 40.41179,-11.03041 58.24642,-17.12664c21.21436,-7.09456 45.07153,-11.58148 66.49449,-18.59257c11.74593,-3.78683 24.81019,-6.95032 36.92808,-10.21902c6.14745,-1.65821 11.2456,-3.69314 14.25088,-3.28117c0.7899,0.10828 -0.19063,-0.70579 -0.28594,-1.05867c-0.23828,-0.8822 -0.47658,-1.76446 -0.71487,-2.64669c-1.33441,-4.94049 -2.66883,-9.88097 -4.00324,-14.82147c-0.31546,-1.16796 -2.60971,-5.03168 -0.32036,-6.13517c-0.4543,0.11508 -0.96941,0.24183 -1.25234,0.31247c-2.50679,0.6258 -3.8904,1.03823 -5.93517,1.19919c-3.54987,0.27941 -14.81937,3.83862 -19.40053,5.07598c-17.80283,4.80851 -35.60563,9.617 -53.40851,14.42552c0,0 -4.03081,1.08872 -4.31676,0.03005c-0.01174,-0.04346 -0.01624,-0.08695 -0.01398,-0.13042c-1.9559,0.4132 -3.94255,0.79016 -5.99265,1.06491zM330.61985,389.39227c10.74674,-2.90267 24.34617,-7.11511 32.26499,-6.95088c4.53785,0.09409 2.83071,4.78661 3.27686,6.4384c1.33441,4.94049 2.66883,9.88097 4.00324,14.82147c0.15238,0.56415 2.29662,2.98774 1.00081,3.70537c-13.0884,7.24829 -40.24855,11.68869 -57.09879,17.32684c-20.94819,6.8557 -45.99425,11.33836 -66.12623,18.46939c-18.38144,6.28316 -40.88981,12.50653 -60.18461,17.71801c-2.76762,0.74753 -19.21662,5.78104 -21.16187,5.71578c-5.57842,-0.18713 -4.81291,-1.80686 -5.31757,-3.67534c-0.91283,-3.37964 -4.28196,-6.79204 -1.66379,-10.98492c3.07912,-4.13852 4.98732,-7.9706 10.41428,-12.66103c2.1892,-1.89206 4.4695,-4.2479 7.42598,-6.22126c1.93458,-1.29128 5.84613,-2.97238 6.10296,-4.04107c2.78618,-3.38327 9.23501,-4.26312 16.49766,-6.6669c12.92836,-4.279 26.567,-7.74365 40.16535,-11.41653c5.01498,-1.35453 14.64995,-4.60733 18.23869,-5.37427c6.24722,-1.33507 10.19014,-0.92 16.26969,-2.12259c4.46109,-0.88245 9.02868,-2.30705 14.3224,-3.01652c0.4019,-0.05386 0.80371,-0.10771 1.20565,-0.16158c13.45481,-3.63411 26.90963,-7.26823 40.36447,-10.90236z" data-paper-data="{&quot;index&quot;:null}" fill="#000000"/><path d="M273.49472,405.76881c-0.00227,0.04349 0.00271,0.08686 0.01445,0.13031c0.28594,1.05867 4.33704,-0.03358 4.33704,-0.03358c17.80283,-4.80851 35.70621,-9.62158 53.50912,-14.4301c4.58117,-1.23736 15.86235,-4.79444 19.41218,-5.07385c2.04472,-0.16094 3.43199,-0.57248 5.93869,-1.19826c0.28298,-0.07065 0.79854,-0.19721 1.25289,-0.31231c-2.28941,1.10351 0.01986,4.97406 0.33532,6.14201c1.33441,4.94049 2.66838,9.91262 4.00279,14.85312c0.23828,0.8822 0.47083,1.77062 0.7091,2.65283c0.09531,0.35289 1.07323,1.16937 0.28333,1.06107c-3.00529,-0.41196 -8.10762,1.62652 -14.25502,3.28474c-12.1179,3.26869 -25.2156,6.45417 -36.96151,10.24101c-21.42298,7.01109 -45.49096,11.56597 -66.70531,18.66052c-17.83462,6.09626 -39.63323,12.07952 -58.33976,17.13211c-4.70264,1.27018 -9.41439,2.53924 -14.11707,3.80943c-0.70761,0.19112 -1.82702,0.4659 -2.9846,0.74913c1.0104,-0.85561 -0.56433,-1.84344 -0.76361,-2.58125c-0.74448,-2.75631 -5.57041,-6.57397 -1.92059,-10.21682c3.00417,-4.03785 4.63923,-7.60746 10.05459,-12.28784c3.99567,-3.45338 10.64221,-7.37002 13.849,-10.5945c1.48865,-1.80765 3.40237,-1.32431 9.3206,-3.24808c13.09547,-4.25686 26.53202,-7.75012 40.24767,-11.45468c4.99933,-1.35031 11.40581,-2.79747 16.17878,-4.37269c1.00741,-0.33249 2.88901,-1.06515 4.28342,-1.62561c-2.49074,1.24644 3.68593,0.13379 6.30213,-0.21683c2.05018,-0.27477 4.06066,-0.65667 6.01654,-1.06987z" data-paper-data="{&quot;noHover&quot;:false,&quot;origItem&quot;:[&quot;Path&quot;,{&quot;applyMatrix&quot;:true,&quot;segments&quot;:[[[579.60736,595.76373],[0.95609,-0.20262],[0.00646,0.07548]],[[579.61718,596],[0,-0.08208],[0,2]],[[577.61718,598],[0,0],[-8.83333,0]],[[551.11718,598],[8.83333,0],[-2.27308,0]],[[541.51161,598.28885],[1.67648,-1.19621],[-0.96568,0.68904]],[[538.61718,599],[1.23739,-0.09027],[-0.13966,0.01019]],[[537.99901,599.04541],[0.22447,-0.0134],[1.19653,0.85421]],[[538.61718,610],[0,-2.20646],[0,9.33333]],[[538.61718,638],[0,-9.33333],[0,1.66667]],[[538.61718,643],[0,-1.66667],[0,0.66667]],[[538.61718,645],[-0.35177,0.56631],[1.33831,-2.15456]],[[545.61718,644],[-3.04994,0.00386],[6.01206,-0.00761]],[[563.97058,644.43107],[-5.90478,-1.08158],[10.78253,2.15651]],[[597.04254,645.54479],[-10.6965,-2.40266],[9.00888,2.25222]],[[626.11718,648],[-9.28168,0],[2.33333,0]],[[633.11718,648],[-2.33333,0],[0.35109,0]],[[634.59021,647.90091],[-0.5707,0.05184],[-0.57412,-1.02596]],[[634.61718,643],[0,1.39387],[0,-5.20707]],[[634.21982,624.13246],[2.14282,4.67827],[-1.8936,-5.6808]],[[628.03948,607.31672],[3.08887,5.66543],[-2.2791,-4.1802]],[[620.32688,595.27881],[1.8857,4.15235],[-0.91417,-2.47477]],[[615.61718,594],[2.9771,0.57275],[-6.58756,-1.26734]],[[595.61718,593],[6.8054,0],[-2.48058,0]],[[587.61718,593],[2.40395,0.50364],[-0.50743,-0.10631]],[[585.44122,592.1748],[0.71481,0.32365],[1.30749,1.01011]],[[582.51161,594.78885],[1.25365,-0.62682],[-0.98239,0.4912]]],&quot;closed&quot;:true}],&quot;index&quot;:null}" fill="#484848"/><path d="M218.03563,424.91261c0.09663,0.35779 1.60336,0.4161 0.98726,0.88647c1.78445,-0.43058 3.59464,-0.8073 5.23379,-1.02697c6.31985,-0.84699 19.52459,-1.27987 21.21682,0.33483c0.1376,0.13136 -1.5812,0.62377 -1.25128,0.68408c1.09776,0.20074 8.80604,-2.74539 9.75325,-2.86003c0.21438,-0.02593 0.32828,-0.00691 0.38411,0.03858c-0.08981,-0.16393 -0.17451,-0.323 -0.20333,-0.42969c-0.10128,-0.375 -0.15402,-0.79436 -0.88316,-0.95733c-6.22616,-1.4904 -15.85321,-1.90565 -31.20669,2.2413c0,0 -1.81183,0.48936 -3.09228,0.4929c-0.41434,0.04814 -0.74288,0.06193 -0.97265,0.03604c0.00118,0.21638 0.00091,0.43704 0.03407,0.55979zM254.44231,423.59855c0.33365,0.14245 0.15533,-0.1954 -0.03774,-0.54709c0.025,0.16851 -0.19031,0.44977 0.03774,0.54709zM260.22795,418.68812c5.7232,1.27903 -4.61821,8.19959 -15.43381,9.22027c-10.20459,0.96301 -14.41451,-1.50389 -23.63114,-0.26867c-3.11371,0.4173 -6.77511,1.17494 -9.19891,1.12467c-3.84099,-0.07966 -3.22326,-4.06112 3.58421,-5.89981c4.90184,-1.32398 7.429,-1.55854 11.99252,-2.79114l2.0154,-0.54436c0,0 2.31355,-0.62488 3.55952,-0.46747c12.21653,-2.20131 20.58085,-1.66992 27.11216,-0.37353z" data-paper-data="{&quot;index&quot;:null}" fill="#000000"/><path d="M217.84241,424.35774c0.22964,0.0259 0.5584,0.01207 0.97273,-0.03606c1.28044,-0.00352 3.09987,-0.49739 3.09987,-0.49739c15.35345,-4.14693 25.31739,-3.756 31.5435,-2.26559c0.72915,0.16294 0.76629,0.59443 0.86757,0.96943c0.02882,0.1067 0.10667,0.2702 0.19649,0.43414c-0.05579,-0.04554 -0.16877,-0.0651 -0.38321,-0.03915c-0.94727,0.11463 -8.72043,3.09325 -9.81817,2.89251c-0.32994,-0.06034 1.17236,-0.59401 1.03465,-0.72533c-1.69218,-1.6147 -14.95286,-1.15081 -21.27279,-0.30381c-1.63918,0.21967 -3.45846,0.60345 -5.24293,1.03406c0.61607,-0.47039 -0.87586,-0.53969 -0.9725,-0.89748c-0.03316,-0.12276 -0.02436,-0.34887 -0.02541,-0.56528z" data-paper-data="{&quot;noHover&quot;:false,&quot;origItem&quot;:[&quot;Path&quot;,{&quot;applyMatrix&quot;:true,&quot;segments&quot;:[[[607.563,601.99816],[0.02649,0.38155],[-0.10299,0.15484]],[[607.10872,602.39727],[0.1976,-0.11227],[-0.59254,0.60273]],[[605.61718,603],[0,0],[-7.618,0]],[[590.90604,613.89443],[2.69308,-5.58508],[-0.31682,0.63364]],[[590.61718,616],[0,-0.70843],[0,0.20156]],[[590.57685,616.85325],[0.02106,-0.33136],[0.02013,-0.10671]],[[590.74964,616.60263],[-0.10238,0.05628],[0.45234,-0.24865]],[[595.61718,617],[-0.48256,0.87548],[0.14503,-0.26312]],[[594.95308,616.3906],[-0.04725,0.29671],[0.58086,-3.64773]],[[604.72276,605.71115],[-3.02833,1.51416],[0.78545,-0.39273]],[[607.27135,605.03032],[-0.87898,0.0905],[-0.34365,-0.53523]],[[607.61718,603],[0,0.6759],[0,-0.23192]]],&quot;closed&quot;:true}],&quot;index&quot;:null}" fill="#ffffff"/></g><path d="M274.75106,406.25297l19.8314,-30.58167l73.09723,-19.96863l-8.99408,27.87976z" fill="#cedce9" stroke="#000000" stroke-linecap="round"/></g><path d="M556.8778,401.12551l-15.95269,-24.57004l75.77539,0.21744l27.1196,24.3526z" data-paper-data="{&quot;index&quot;:null}" fill="#cedce9" fill-rule="nonzero" stroke="#000000" stroke-width="1" stroke-linecap="round"/><path d="M651.02777,399.84866c-2.05084,0.26932 -4.067,0.42342 -6.06303,0.53454c0.01351,0.04137 0.02051,0.08453 0.02051,0.12954c0,1.0966 -4.17525,1.0966 -4.17525,1.0966c-18.44081,0 -36.88157,0 -55.3224,0c-4.74536,0 -16.55302,-0.49751 -20.05291,0.15839c-2.016,0.37779 -3.45929,0.3404 -6.04254,0.38991c-0.29161,0.00558 -0.82193,0.01755 -1.29049,0.0249c2.49792,0.46836 1.29049,4.79665 1.29049,6.00647c0,5.11753 0,10.23505 0,15.35258c0,0.91381 0,1.82771 0,2.74153c0,0.36553 -0.73434,1.40712 0,1.0966c2.79388,-1.18135 8.24634,-0.54618 14.61346,-0.5483c12.551,-0.00417 25.98821,-0.3567 38.31524,0.23634c22.50999,1.18242 46.71185,-0.70673 69.04221,0.61066c18.80726,1.23491 41.32053,1.34618 60.69725,1.34618c4.87119,0 9.74231,0 14.6135,0c0.73291,0 1.88369,-0.02593 3.07512,-0.05435c-1.19852,-0.56255 0.05636,-1.92294 0.05636,-2.6872c0,-2.85509 3.64385,-7.78007 -0.82952,-10.34519c-3.95313,-3.11482 -6.45384,-6.11378 -12.90228,-9.22019c-4.75784,-2.29202 -12.16444,-4.32369 -16.1011,-6.60047c-1.90847,-1.35694 -3.617,-0.38714 -9.83212,-0.70118c-13.75246,-0.6949 -27.5455,-0.5483 -41.75273,-0.5483c-5.17865,0 -11.68257,0.27616 -16.70116,0c-1.05937,-0.05829 -3.05032,-0.27498 -4.54263,-0.45246c2.72954,0.55385 -3.49883,1.08963 -6.11597,1.43332zM585.48743,399.41611c13.93697,0 27.87399,0 41.81093,0c0.40208,-0.0528 0.804,-0.10558 1.20603,-0.15839c5.29562,-0.69543 10.07663,-0.51114 14.6135,-0.82246c6.18284,-0.42425 9.88108,-1.8531 16.26031,-2.19323c3.66462,-0.19537 13.8144,0.43254 19.0091,0.43254c14.08565,0 28.15586,-0.21154 41.75273,0.54831c7.63817,0.42686 14.09335,-0.4053 17.66535,2.13443c0.52659,0.96476 4.74119,1.56775 6.94556,2.3099c3.36881,1.13418 6.18451,2.81393 8.7913,4.06969c6.46228,3.11307 9.30368,6.31498 13.35541,9.50745c3.62084,3.36512 1.25807,7.53801 1.25807,11.03876c0,1.93543 1.16137,3.29951 -4.17525,4.93476c-1.861,0.57024 -19.05336,0 -21.92017,0c-19.9862,0 -43.33865,-0.13892 -62.72258,-1.4117c-21.29497,-1.63482 -46.64348,0.56846 -68.65462,-0.58776c-17.73744,-1.04932 -45.11585,1.746 -59.64152,-1.83868c-1.4381,-0.35491 0,-3.25378 0,-3.83815c0,-5.11753 0,-10.23504 0,-15.35257c0,-1.71096 -2.87162,-5.79603 1.48467,-7.07012c7.60209,-2.22341 21.82945,-1.7028 32.96126,-1.7028z" data-paper-data="{&quot;index&quot;:null}" fill="#000000" fill-rule="nonzero" stroke="none" stroke-width="1" stroke-linecap="butt"/><path d="M644.90653,400.33052c1.99595,-0.11111 4.03645,-0.26666 6.08736,-0.53599c2.61718,-0.34369 8.87026,-0.88011 6.14067,-1.43396c1.49231,0.17747 3.49985,0.39415 4.55912,0.45246c5.01858,0.27616 11.58072,0.00274 16.75927,0.00274c14.20714,0 28.08975,-0.1312 41.84217,0.56367c6.2151,0.31404 7.93657,-0.65159 9.84504,0.70535c3.93669,2.27676 11.37451,4.32477 16.13245,6.6168c6.44844,3.10641 8.95769,6.12618 12.91085,9.24101c4.47348,2.56513 0.80997,7.50908 0.80997,10.36417c0,0.76426 -1.26267,2.12852 -0.06412,2.69107c-1.19138,0.02842 -2.34374,0.05503 -3.07671,0.05503c-4.87118,0 -9.75082,0.00344 -14.62201,0.00344c-19.37687,0 -41.98152,-0.09219 -60.78878,-1.3271c-22.33039,-1.31739 -46.75345,0.56114 -69.26346,-0.62129c-12.327,-0.59305 -25.80221,-0.25304 -38.35323,-0.24887c-6.36708,0.00212 -11.8245,-0.63539 -14.61838,0.54595c-0.73434,0.3105 -0.00315,-0.73273 -0.00315,-1.09825c0,-0.91381 -0.00713,-1.83212 -0.00713,-2.74596c0,-5.11753 -0.00871,-10.26549 -0.00871,-15.38303c0,-1.20981 1.22012,-5.5486 -1.27782,-6.01698c0.46864,-0.00736 0.9994,-0.01958 1.29099,-0.02518c2.58317,-0.04948 4.02973,-0.01393 6.04569,-0.39174c3.49992,-0.65587 15.31832,-0.16349 20.06365,-0.16349c18.44089,0 36.97993,-0.0218 55.42069,-0.0218c0,0 4.19575,-0.00188 4.19575,-1.09849c0,-0.04501 -0.00649,-0.08819 -0.02003,-0.12957z" data-paper-data="{&quot;noHover&quot;:false,&quot;origItem&quot;:[&quot;Path&quot;,{&quot;applyMatrix&quot;:true,&quot;segments&quot;:[[[579.60736,595.76373],[0.95609,-0.20262],[0.00646,0.07548]],[[579.61718,596],[0,-0.08208],[0,2]],[[577.61718,598],[0,0],[-8.83333,0]],[[551.11718,598],[8.83333,0],[-2.27308,0]],[[541.51161,598.28885],[1.67648,-1.19621],[-0.96568,0.68904]],[[538.61718,599],[1.23739,-0.09027],[-0.13966,0.01019]],[[537.99901,599.04541],[0.22447,-0.0134],[1.19653,0.85421]],[[538.61718,610],[0,-2.20646],[0,9.33333]],[[538.61718,638],[0,-9.33333],[0,1.66667]],[[538.61718,643],[0,-1.66667],[0,0.66667]],[[538.61718,645],[-0.35177,0.56631],[1.33831,-2.15456]],[[545.61718,644],[-3.04994,0.00386],[6.01206,-0.00761]],[[563.97058,644.43107],[-5.90478,-1.08158],[10.78253,2.15651]],[[597.04254,645.54479],[-10.6965,-2.40266],[9.00888,2.25222]],[[626.11718,648],[-9.28168,0],[2.33333,0]],[[633.11718,648],[-2.33333,0],[0.35109,0]],[[634.59021,647.90091],[-0.5707,0.05184],[-0.57412,-1.02596]],[[634.61718,643],[0,1.39387],[0,-5.20707]],[[634.21982,624.13246],[2.14282,4.67827],[-1.8936,-5.6808]],[[628.03948,607.31672],[3.08887,5.66543],[-2.2791,-4.1802]],[[620.32688,595.27881],[1.8857,4.15235],[-0.91417,-2.47477]],[[615.61718,594],[2.9771,0.57275],[-6.58756,-1.26734]],[[595.61718,593],[6.8054,0],[-2.48058,0]],[[587.61718,593],[2.40395,0.50364],[-0.50743,-0.10631]],[[585.44122,592.1748],[0.71481,0.32365],[1.30749,1.01011]],[[582.51161,594.78885],[1.25365,-0.62682],[-0.98239,0.4912]]],&quot;closed&quot;:true}],&quot;index&quot;:null}" fill="#484848" fill-rule="nonzero" stroke="none" stroke-width="1" stroke-linecap="butt"/><path d="M703.43907,404.35087c0,-0.12715 -0.05784,-0.34011 -0.11311,-0.54931c-0.21504,0.08489 -0.53587,0.15729 -0.9484,0.21884c-1.23706,0.33047 -3.11382,0.33047 -3.11382,0.33047c-15.90365,0 -25.08933,2.91115 -30.7115,5.9735c-0.66142,0.34744 -0.60297,0.76604 -0.60297,1.15449c0,0.11052 -0.04023,0.28616 -0.0842,0.46784c0.04206,-0.0585 0.14701,-0.10655 0.36073,-0.1374c0.94438,-0.13634 9.15418,0.69793 10.16161,0.21788c0.30276,-0.14428 -1.48498,-0.17146 -1.38638,-0.33412c1.21268,-2.00008 14.07349,-5.02537 20.39555,-5.85562c1.63967,-0.21535 3.48551,-0.32369 5.32051,-0.37329c-0.71741,-0.29346 0.72196,-0.74262 0.72196,-1.11324zM667.843,412.03743c-0.09469,0.38986 -0.17872,0.76251 0.10622,0.53801c0.19477,-0.15342 -0.08642,-0.36883 -0.10622,-0.53801zM661.08339,409.34351c5.96734,-2.95462 13.90375,-5.64865 26.27163,-6.709c1.16177,-0.47685 3.55826,-0.47686 3.55826,-0.47686h2.08762c4.72707,0 7.22794,-0.43253 12.30544,-0.43253c7.05142,0 8.68596,3.68263 4.99863,4.7611c-2.32683,0.68053 -6.05915,0.90382 -9.17394,1.31289c-9.21991,1.21077 -12.6409,4.69009 -22.74358,6.42129c-10.70757,1.83483 -22.49578,-2.14975 -17.30404,-4.87686z" data-paper-data="{&quot;index&quot;:null}" fill="#000000" fill-rule="nonzero" stroke="none" stroke-width="1" stroke-linecap="butt"/><path d="M703.48106,403.7648c0.05541,0.2092 0.12288,0.42519 0.12288,0.55235c0,0.3706 -1.42227,0.82654 -0.70484,1.12c-1.83502,0.04962 -3.69143,0.1535 -5.33117,0.36884c-6.32214,0.83024 -19.24499,3.84018 -20.45764,5.84025c-0.0987,0.1627 1.49077,0.28618 1.18799,0.43046c-1.00743,0.48004 -9.28838,-0.36863 -10.23276,-0.23232c-0.21379,0.03087 -0.31776,0.0792 -0.35975,0.13773c0.04396,-0.18169 0.07649,-0.35986 0.07649,-0.47038c0,-0.38843 -0.07664,-0.81468 0.58477,-1.1621c5.62212,-3.06235 15.13938,-6.03789 31.04301,-6.03789c0,0 1.88528,0.00236 3.12233,-0.32812c0.41256,-0.06157 0.73352,-0.13391 0.94847,-0.21881z" data-paper-data="{&quot;noHover&quot;:false,&quot;origItem&quot;:[&quot;Path&quot;,{&quot;applyMatrix&quot;:true,&quot;segments&quot;:[[[607.563,601.99816],[0.02649,0.38155],[-0.10299,0.15484]],[[607.10872,602.39727],[0.1976,-0.11227],[-0.59254,0.60273]],[[605.61718,603],[0,0],[-7.618,0]],[[590.90604,613.89443],[2.69308,-5.58508],[-0.31682,0.63364]],[[590.61718,616],[0,-0.70843],[0,0.20156]],[[590.57685,616.85325],[0.02106,-0.33136],[0.02013,-0.10671]],[[590.74964,616.60263],[-0.10238,0.05628],[0.45234,-0.24865]],[[595.61718,617],[-0.48256,0.87548],[0.14503,-0.26312]],[[594.95308,616.3906],[-0.04725,0.29671],[0.58086,-3.64773]],[[604.72276,605.71115],[-3.02833,1.51416],[0.78545,-0.39273]],[[607.27135,605.03032],[-0.87898,0.0905],[-0.34365,-0.53523]],[[607.61718,603],[0,0.6759],[0,-0.23192]]],&quot;closed&quot;:true}],&quot;index&quot;:null}" fill="#ffffff" fill-rule="nonzero" stroke="none" stroke-width="1" stroke-linecap="butt"/><path d="M316.25496,250.11478v-3.01676l296.74206,-55.43167l49.43184,206.77238l-148.36024,0.50278l-34.10696,-106.53069l-17.48365,-5.39114l-16.17624,3.50877l-15.06717,1.53724l-88.70702,43.05622l54.73451,42.66453l-144.02512,24.72428l-26.95438,-123.72154z" fill="#a3a3a1" fill-rule="nonzero" stroke="#000000" stroke-width="1" stroke-linecap="round"/><path d="M611.06446,180.50776c2.96439,8.92238 5.91159,17.85145 8.83963,26.78997c0.01233,0.1337 -0.00612,0.25931 -0.05655,0.37705c-29.26206,4.62167 -58.53562,9.16334 -87.82351,13.62308c-1.5866,-0.90646 -3.17181,-1.81194 -4.75841,-2.71839c-31.21412,4.87444 -62.4147,9.83341 -93.60174,14.87691c-2.20262,1.40417 -4.40504,2.80951 -6.60765,4.21368c-35.00968,5.57764 -70.03163,11.08154 -105.06583,16.51171c-0.99561,0.15306 -1.99581,0.26653 -3.00035,0.34036c-0.13759,-0.09469 -0.24086,-0.21864 -0.31014,-0.37421c-0.20553,-6.40181 -0.41479,-12.80214 -0.62789,-19.20167c0.23146,-0.9255 0.27735,-1.91335 0.10265,-2.91369c0.09241,-0.61565 -0.01516,-1.2186 -0.26688,-1.78929c-0.23873,-7.86901 -0.53309,-15.71376 -0.88318,-23.53546c-4.32871,0.27492 -8.65807,0.48019 -12.98834,0.61586c-0.15542,-0.12952 -0.26571,-0.29385 -0.33088,-0.49298c-0.03513,-0.94362 -0.03565,-1.88105 -0.00196,-2.81466c18.43276,-16.39679 36.86566,-32.79274 55.29847,-49.18918c0.14448,-0.10686 0.30292,-0.13453 0.47508,-0.08296c16.94346,5.44543 33.88671,10.89041 50.83024,16.3362c4.08461,1.60725 8.1772,3.19719 12.27679,4.77123c-0.9596,-7.17713 -1.9665,-14.3448 -3.0207,-21.50297c-4.97168,-3.00757 -9.94455,-6.01481 -14.91624,-9.02238c-0.14375,-0.78953 -0.26218,-1.58472 -0.35543,-2.38576c32.42485,-7.06653 64.84452,-14.15577 97.25895,-21.26797c0.33255,-2.34288 0.67702,-4.68771 1.03576,-7.03479c11.67743,-15.57988 23.31045,-31.1968 34.90024,-46.85096c0.10722,0.14442 0.18561,0.13073 0.23754,-0.04148c19.37836,8.7195 38.78188,17.38665 58.2093,26.00162c0.41141,0.821 0.74511,1.68066 1.00113,2.57898c0.16073,0.34571 0.20277,0.70555 0.12728,1.0793c-3.26358,3.03818 -6.52718,6.07625 -9.79075,9.11444c-0.14884,0.18497 -0.19384,0.39686 -0.13383,0.63533c7.92159,24.21727 15.8418,48.43358 23.7634,72.65085c0.04551,-0.00566 0.09102,-0.01134 0.13653,-0.01702c0.07619,0.23155 0.16374,0.45707 0.26192,0.67606c-0.07155,0.01439 -0.14308,0.02879 -0.21463,0.04322z" fill="#000000" fill-rule="evenodd" stroke="none" stroke-width="1" stroke-linecap="butt"/><path d="M503.4798,117.41531c-0.23139,-0.8134 -0.41578,-1.63793 -0.55432,-2.47342c0.58557,-0.90808 1.20374,-1.81157 1.85218,-2.71008c10.95522,-14.72541 21.93086,-29.43199 32.92929,-44.12015c19.2438,8.57263 38.48759,17.14528 57.73139,25.71791c0.21921,0.05681 0.36562,0.1944 0.43927,0.41287c0.3573,0.81247 0.58551,1.64978 0.68346,2.51206c-19.38123,-8.87603 -38.78872,-17.68518 -58.22251,-26.42768c-0.16648,0.05588 -0.31408,0.14285 -0.44397,0.26112c-11.45194,15.63059 -22.92353,31.23975 -34.41479,46.8274z" fill="#e4e4e4" fill-rule="evenodd" stroke="none" stroke-width="1" stroke-linecap="butt"/><path d="M537.09628,73.72593c0.3368,-0.8748 0.67362,-1.74948 1.01042,-2.62428c0.08369,-0.19356 0.19382,-0.37593 0.33273,-0.54768c19.43807,8.86514 38.87494,17.73034 58.313,26.59547c-3.2636,3.09413 -6.54047,6.17539 -9.82941,9.24357c-1.28888,-3.88337 -2.59654,-7.75512 -3.92536,-11.61487c-15.30424,-7.01802 -30.6047,-14.03535 -45.9014,-21.05224z" fill="#c6c7c6" fill-rule="evenodd" stroke="none" stroke-width="1" stroke-linecap="butt"/><path d="M538.1067,71.10165c-0.3368,0.8748 -0.67362,1.74948 -1.01042,2.62428c-0.12779,0.00408 -0.24313,0.04454 -0.34594,0.12161c-10.06518,13.7316 -20.13152,27.46353 -30.19671,41.19513c-0.5988,2.87881 -1.19762,5.75751 -1.79641,8.63632c-0.84598,1.25306 -1.73517,2.46898 -2.66752,3.64802c0.48369,-3.1385 0.9949,-6.28756 1.53246,-9.44697c11.41913,-15.55913 22.83824,-31.11838 34.25737,-46.67751c0.06045,-0.06735 0.13656,-0.10108 0.22717,-0.10087z" fill="#cacaca" fill-rule="evenodd" stroke="none" stroke-width="1" stroke-linecap="butt"/><path d="M537.01898,73.98421c15.17753,6.93024 30.34541,13.88922 45.5036,20.87693c0.16125,0.08236 0.28402,0.20363 0.36951,0.36385c12.24892,37.39097 24.47093,74.78909 36.66604,112.19436c-28.03341,4.40344 -56.07092,8.79047 -84.11055,13.15828c-1.1173,0.21102 -2.22265,0.30125 -3.31802,0.27344c-8.43983,-35.24482 -16.83907,-70.49551 -25.1989,-105.75185c10.05594,-13.6934 20.08539,-27.39831 30.08831,-41.115z" fill="#858585" fill-rule="evenodd" stroke="none" stroke-width="1" stroke-linecap="butt"/><path d="M502.92547,114.9419c0.13855,0.83548 0.32293,1.66002 0.55432,2.47342c-0.43675,1.92144 -0.81113,3.86357 -1.1244,5.82636c-0.13093,-0.59558 -0.29403,-1.17905 -0.48926,-1.75042c0.32934,-2.2001 0.68246,-4.38318 1.05933,-6.54935z" fill="#cecfce" fill-rule="evenodd" stroke="none" stroke-width="1" stroke-linecap="butt"/><path d="M506.66016,116.00319c8.41104,34.77864 16.77102,69.56621 25.07916,104.36527c-0.01493,0.1458 -0.03124,0.29064 -0.04618,0.43644c-1.40672,-0.81548 -2.8144,-1.62957 -4.22111,-2.44506c-0.10733,-0.08897 -0.18745,-0.19736 -0.24038,-0.3252c-3.74052,-15.77785 -7.41408,-31.5576 -11.02043,-47.33807c0.43657,-0.42261 0.87175,-0.84619 1.30832,-1.2688c-0.15496,-0.91535 -0.37342,-1.81595 -0.65519,-2.70059c-0.56924,-0.02177 -1.13096,0.03472 -1.68351,0.1716c-3.29625,-14.25699 -6.64072,-28.50277 -10.03339,-42.73717c0.46638,-2.72595 0.97062,-5.44542 1.5127,-8.15841z" fill="#c0c1bc" fill-rule="evenodd" stroke="none" stroke-width="1" stroke-linecap="butt"/><path d="M499.2174,122.44336c0.83139,-0.14519 1.66277,-0.29037 2.49416,-0.43555c0.23047,0.68198 0.35148,1.37489 0.36296,2.07847c-32.38945,7.03096 -64.77908,14.05389 -97.17129,21.06907c-0.11754,-0.67306 -0.23505,-1.34602 -0.3526,-2.01908c31.58932,-6.83299 63.1441,-13.73056 94.66676,-20.6929z" fill="#e4e5e4" fill-rule="evenodd" stroke="none" stroke-width="1" stroke-linecap="butt"/><path d="M500.58237,124.65282c0.51345,-0.12957 1.03584,-0.17991 1.56475,-0.15086c-0.18984,1.13467 -0.37848,2.26914 -0.56832,3.40381c-0.18994,0.12484 -0.3981,0.22239 -0.62212,0.29222c-27.48717,5.89841 -54.97381,11.79991 -82.45991,17.7045c0.31114,2.69286 0.61984,5.39277 0.92491,8.09991c-4.72947,-2.88904 -9.47289,-5.75289 -14.22906,-8.59161c31.82285,-6.89042 63.61862,-13.80964 95.38975,-20.75796z" fill="#c5c6c5" fill-rule="evenodd" stroke="none" stroke-width="1" stroke-linecap="butt"/><path d="M504.78079,124.16444c3.42636,14.2311 6.81471,28.48988 10.16253,42.77582c-27.2106,5.14831 -54.42286,10.28713 -81.63517,15.41862c-3.30407,-1.27969 -6.60673,-2.5584 -9.9108,-3.83809c-1.64036,-10.77406 -3.17653,-21.5613 -4.61117,-32.36284c27.67982,-5.95873 55.36133,-11.9147 83.04339,-17.86758c1.05457,-1.32717 2.03832,-2.70244 2.95124,-4.12593z" fill="#b6b6b1" fill-rule="evenodd" stroke="none" stroke-width="1" stroke-linecap="butt"/><path d="M359.25053,154.96352c22.08334,8.61578 44.15561,17.26556 66.21685,25.94958c2.21736,0.55152 4.4357,1.10166 6.65305,1.65319c-0.18344,0.092 -0.37825,0.14683 -0.58347,0.16309c0.13834,0.79219 0.27647,1.5832 0.41481,2.37539c-2.12869,-0.33814 -4.2422,-0.7646 -6.34293,-1.27897c-21.64807,-8.67294 -43.28137,-17.37906 -64.90002,-26.11834c-0.40589,-0.19924 -0.83297,-0.30824 -1.28103,-0.32706c-18.49364,16.38172 -36.91271,32.85689 -55.25699,49.42672c-0.06033,-0.11186 -0.12066,-0.22371 -0.18099,-0.33556c0.00149,-0.65138 -0.01007,-1.30172 -0.03492,-1.95217c0.01903,-0.25055 0.12649,-0.45291 0.32236,-0.60705c18.3817,-16.26793 36.70612,-32.58423 54.97327,-48.9488z" fill="#e4e4e4" fill-rule="evenodd" stroke="none" stroke-width="1" stroke-linecap="butt"/><path d="M359.35052,157.63867c1.44316,0.39482 2.8413,0.92576 4.19469,1.59292c-15.48562,13.97282 -31.00059,27.92141 -46.54455,41.8469c-0.02771,1.76728 -0.00418,3.53784 0.07083,5.31166c-4.24109,0.26084 -8.48451,0.4915 -12.73006,0.69315c18.36877,-16.45905 36.70509,-32.94059 55.00909,-49.44462z" fill="#c8c9c8" fill-rule="evenodd" stroke="none" stroke-width="1" stroke-linecap="butt"/><path d="M365.76975,157.25202c-0.00413,-0.06573 0.02851,-0.1122 0.09803,-0.13952c15.08546,4.85196 30.17096,9.70341 45.25648,14.55573c3.76456,1.46365 7.52814,2.92868 11.29269,4.39232c0.185,0.08519 0.29217,0.22925 0.32051,0.43359c-0.00421,0.71183 0.09652,1.40778 0.30358,2.08884c2.85093,1.20095 5.72485,2.35135 8.6194,3.45166c-0.10488,0.10031 -0.22364,0.12105 -0.35631,0.06222c-1.91124,-0.51564 -3.83111,-0.99672 -5.75944,-1.44206c-19.91599,-7.82983 -39.84105,-15.63103 -59.77492,-23.40278z" fill="#3d3e3d" fill-rule="evenodd" stroke="none" stroke-width="1" stroke-linecap="butt"/><path d="M363.82423,159.42764c0.57349,0.09654 1.13306,0.26404 1.67882,0.50237c17.78513,7.17019 35.57743,14.32321 53.37732,21.4602c2.60452,18.72024 5.16153,37.44879 7.66964,56.18464c-35.82472,5.57678 -71.64523,11.17974 -107.46198,16.80776c-0.66756,-17.68159 -1.26674,-35.36411 -1.79798,-53.04869c15.51861,-13.97246 31.03005,-27.94124 46.53418,-41.90629z" fill="#858585" fill-rule="evenodd" stroke="none" stroke-width="1" stroke-linecap="butt"/><path d="M419.21877,181.57591c2.39138,0.9593 4.79776,1.88538 7.21677,2.77866c0.11863,0.44805 0.23865,0.89706 0.35728,1.34512c2.23128,15.826 4.50434,31.64592 6.81917,47.45978c-2.24934,1.36092 -4.47215,2.76861 -6.66704,4.22405c-2.60019,-18.59738 -5.17566,-37.20031 -7.72618,-55.8076z" fill="#dddedd" fill-rule="evenodd" stroke="none" stroke-width="1" stroke-linecap="butt"/><path d="M512.01555,167.69631c1.54401,-0.26963 3.08801,-0.53926 4.63201,-0.80888c0.20325,0.77841 0.38197,1.56356 0.53359,2.35465c-28.32453,5.30857 -56.64823,10.62189 -84.97109,15.93997c-0.12457,-0.75544 -0.21667,-1.51409 -0.2753,-2.27736c26.72751,-4.99909 53.42079,-10.06807 80.0808,-15.20837z" fill="#e4e5e4" fill-rule="evenodd" stroke="none" stroke-width="1" stroke-linecap="butt"/><path d="M426.95211,184.50915c2.62086,0.46515 5.23702,0.96661 7.85111,1.50516c27.04046,-4.95216 54.06806,-9.97794 81.08281,-15.07737c3.683,15.79891 7.38006,31.59414 11.09018,47.38709c-31.04739,4.90407 -62.09685,9.79626 -93.14741,14.67518c-2.30227,-16.16241 -4.59364,-32.32551 -6.8767,-48.49006z" fill="#b6b5b1" fill-rule="evenodd" stroke="none" stroke-width="1" stroke-linecap="butt"/><path d="M514.13462,170.01887c0.90744,-0.17927 1.82193,-0.31816 2.74207,-0.41765c-0.34718,0.34581 -0.69533,0.69299 -1.04251,1.03879c-26.97617,5.08901 -53.96007,10.12676 -80.95367,15.11602c-0.61082,-0.0916 -1.20696,-0.23228 -1.78721,-0.42225c27.04054,-5.07089 54.05424,-10.17626 81.04133,-15.31491z" fill="#c5c6c5" fill-rule="evenodd" stroke="none" stroke-width="1" stroke-linecap="butt"/><path d="M327.57155,253.24116l0.83117,-47.04157l79.07445,-14.76093l5.34745,48.34312z" fill="#e5e5e5" fill-rule="nonzero" stroke="#000000" stroke-width="0.5" stroke-linecap="round"/><path d="M491.90086,224.00882l-5.69566,-43.52126l21.40308,-4.21371l8.20746,44.27289z" fill="#e5e5e5" fill-rule="nonzero" stroke="#000000" stroke-width="0.5" stroke-linecap="round"/><path d="M607.81988,190.19695l-68.70838,14.14098l-10.98592,-42.12132l63.8279,-12.09844z" fill="#f3f3f3" fill-rule="nonzero" stroke="#000000" stroke-width="0.5" stroke-linecap="round"/><path d="M582.26855,151.57138l15.508,41.09358l-47.80766,9.77694l-11.81187,-41.73903z" fill="#000000" fill-rule="nonzero" stroke="#000000" stroke-width="0.5" stroke-linecap="round"/><path d="M523.25652,144.55827l-8.08986,-34.05715l59.80904,-13.30104l12.03535,34.4989z" fill="#f3f3f3" fill-rule="nonzero" stroke="#000000" stroke-width="0.5" stroke-linecap="round"/><path d="M533.42088,142.78327l-9.51624,-34.04611l40.94706,-9.53109l11.52568,34.64743z" fill="#000000" fill-rule="nonzero" stroke="#000000" stroke-width="0.5" stroke-linecap="round"/><path d="M463.81444,169.16226l-34.14888,6.20145l-3.0404,-24.22655l34.68053,-7.24651z" fill="#f3f3f3" fill-rule="nonzero" stroke="#000000" stroke-width="0.5" stroke-linecap="round"/><path d="M453.91344,145.18156l2.93042,24.95993l-20.28839,3.781l-1.88536,-24.42825z" fill="#000000" fill-rule="nonzero" stroke="#000000" stroke-width="0.5" stroke-linecap="round"/><path d="M482.30823,213.72182l-45.90099,7.06346l-2.85354,-29.97246l46.43264,-8.1085z" fill="#f3f3f3" fill-rule="nonzero" stroke="#000000" stroke-width="0.5" stroke-linecap="round"/><path d="M442.41345,219.7364l-1.4675,-30.2145l28.83569,-5.2736l2.20009,0.32995l1.54818,30.67652z" fill="#000000" fill-rule="nonzero" stroke="#000000" stroke-width="0.5" stroke-linecap="round"/><path d="M380.00655,185.99498l-26.26836,4.77035l-2.33877,-18.63581l26.67733,-5.57423z" fill="#f3f3f3" fill-rule="nonzero" stroke="#000000" stroke-width="0.5" stroke-linecap="round"/><path d="M372.39038,167.54829l2.25417,19.19994l-15.60644,2.90846l-1.45028,-18.79098z" fill="#000000" fill-rule="nonzero" stroke="#000000" stroke-width="0.5" stroke-linecap="round"/><path d="M505.26889,151.57834c-0.38595,0.48158 -0.90103,0.17001 -0.90103,0.17001l-0.90067,-0.80167c0.58891,-0.76203 1.36661,-1.71757 1.6563,-2.65841c-0.04229,-0.12608 -0.26507,-0.79034 -0.30736,-0.91642c-0.00375,-0.01116 -0.00708,-0.02235 -0.01,-0.0336c-0.38014,0.47285 -0.67982,1.12288 -0.9583,1.80258c-0.79395,1.03831 -1.69891,2.01058 -2.63569,2.90284c-0.62372,0.59409 -0.89615,1.50833 -1.48596,2.10096c-0.31366,0.31514 -0.92221,0.27721 -1.24877,0.58189c-0.95855,0.89431 -1.94771,2.31302 -3.31389,2.8931c-1.52712,0.64843 -3.27636,1.0562 -4.86214,1.56524c-3.25486,1.04483 -6.50983,0.63006 -9.46208,-0.37985c-0.55383,-0.18945 -1.22598,-0.18635 -1.69021,-0.5072c-1.14198,-0.78924 -3.34447,-2.50389 -4.85093,-2.68598c0.1451,0.45559 0.23455,0.93537 0.35469,1.29358c0.86384,2.57564 1.75502,4.8717 3.87691,6.78017c1.36857,0.76473 3.31251,2.22361 4.97838,2.36613c5.41754,0.46352 10.18496,-0.86258 15.46363,-2.48043c1.83224,-1.7018 3.694,-2.59393 4.95873,-4.73727c0.5757,-0.97565 0.52723,-1.67016 0.63829,-2.68099c0.1439,-1.30964 0.61459,-2.6758 0.78083,-4.00481c0.07346,-0.5871 0.09196,-1.17111 0.10835,-1.75342c-0.21326,0.2158 -0.4504,0.36294 -0.70528,0.41321l0.38706,-0.02275c0,0 0.5151,0.31157 0.12915,0.79314zM505.72909,145.26762c0.65812,0.28128 0.89507,1.20369 0.83061,2.21846l0.1612,0.1814l-0.03602,0.0262c0.04988,0.04956 0.09696,0.1015 0.14074,0.15629c0.36535,0.45721 -0.07644,2.61794 -0.12315,3.17906c-0.29731,3.57152 -0.58688,7.81491 -3.37025,10.73947c-1.01284,1.06423 -2.59036,1.78877 -3.72522,2.75925c-5.41869,1.8024 -10.7441,3.28468 -16.34327,2.66256c-1.9581,-0.21756 -3.9805,-1.68578 -5.58021,-2.59048c-2.61659,-2.34222 -3.56536,-5.20784 -4.6273,-8.37415c-0.18999,-0.56646 -1.86336,-2.00968 -1.20037,-2.50634c1.52052,-1.13907 2.01713,0.3292 2.77654,0.79753c1.71048,0.24953 4.13096,1.90131 5.39893,2.89353c0.5347,0.41842 0.67228,0.09375 1.32254,0.31411c2.69748,0.9141 5.59891,1.34303 8.58651,0.384c1.55174,-0.49811 3.20075,-0.9134 4.71388,-1.50872c1.26316,-0.49698 2.10183,-1.93228 3.01678,-2.71591c0.30383,-0.26024 0.87516,-0.18341 1.1322,-0.48047c1.32919,-1.53611 2.74383,-3.14489 3.9061,-4.72686c0.3905,-0.94378 0.83703,-2.29662 1.74766,-2.90041c0.37573,-0.24914 0.87447,-0.67846 1.27208,-0.50851z" data-paper-data="{&quot;index&quot;:null}" fill="#000000" fill-rule="nonzero" stroke="none" stroke-width="0.5" stroke-linecap="butt"/><path d="M504.51585,151.73407c0,0 0.45687,0.33953 0.84282,-0.14204c0.38593,-0.48157 -0.12834,-0.79172 -0.12834,-0.79172l-0.38687,0.02305c0.25488,-0.05027 0.54845,-0.22841 0.76171,-0.44421c-0.01638,0.58231 -0.03333,1.16914 -0.10678,1.75625c-0.16625,1.32901 -0.63465,2.70332 -0.77855,4.01298c-0.11105,1.01082 -0.06281,1.71211 -0.63851,2.68776c-1.26473,2.14335 -3.13481,3.05131 -4.96705,4.75313c-5.27867,1.61785 -10.09189,2.94788 -15.50942,2.48435c-1.66586,-0.14255 -3.61719,-1.61052 -4.98577,-2.37525c-2.1219,-1.90845 -3.01528,-4.21942 -3.87912,-6.79505c-0.12014,-0.3582 -0.14629,-0.83174 -0.2914,-1.28732c1.50646,0.18208 3.70969,1.89163 4.85167,2.68088c0.46424,0.32085 1.13641,0.31612 1.69024,0.50558c2.95224,1.00993 6.19877,1.40638 9.45362,0.36156c1.58577,-0.50904 3.27913,-0.89279 4.80626,-1.54122c1.36617,-0.58009 2.35836,-1.98809 3.3169,-2.88242c0.32656,-0.30469 0.93509,-0.2668 1.24874,-0.58195c0.58982,-0.59264 0.86419,-1.50381 1.48792,-2.09789c0.93677,-0.89227 1.84319,-1.86277 2.63714,-2.90107c0.27847,-0.67968 0.57933,-1.32848 0.95946,-1.80134c0.00292,0.01124 0.0555,-0.01741 0.05924,-0.00625c0.04229,0.12608 0.26627,0.79162 0.30856,0.91771c-0.28969,0.94086 -1.06567,1.89856 -1.65457,2.6606l0.90208,0.80389z" data-paper-data="{&quot;noHover&quot;:false,&quot;origItem&quot;:[&quot;Path&quot;,{&quot;applyMatrix&quot;:true,&quot;segments&quot;:[[[335.05452,196.05278],[-0.8,-0.6],[0.8,0.6]],[335.25452,197.45278],[[334.67777,197.62303],[0,0],[0.39709,-0.05292]],[[335.91092,197.9364],[-0.4174,-0.24717],[-0.30935,-0.96798]],[[334.89322,195.05344],[0.39507,0.9453],[-0.8943,-2.13983]],[[331.78941,188.756],[0.85214,2.11941],[-0.6577,-1.6358]],[[329.54272,184.60246],[1.31945,1.32661],[-2.89861,-2.91434]],[[319.97477,179.32603],[3.51152,1.86809],[-8.50665,0.12855]],[[296.1621,183.49195],[7.68946,-3.69474],[-2.36447,1.13611]],[[290.04685,190.14173],[1.62509,-2.01973],[-2.16539,4.34394]],[[287.70452,203.60278],[0,-4.78566],[0,0.66556]],[[287.82019,205.96369],[-0.01125,-0.84235],[2.11215,-1.11663]],[[293.59245,198.84598],[-1.28196,1.93885],[0.52114,-0.78817]],[[295.81377,197.08503],[-0.71646,0.61603],[3.81915,-3.28379]],[[309.45452,191.35278],[-5.26839,0],[2.56678,0]],[[317.3267,191.36027],[-2.54939,-0.2654],[2.28068,0.23742]],[[323.5872,194.4289],[-1.83903,-0.98403],[0.62653,0.33525]],[[325.69722,194.73258],[-0.61279,-0.35975],[1.15235,0.67651]],[[328.89834,197.45666],[-1.2026,-0.66068],[1.80621,0.99229]],[[334.17258,200.9068],[-1.66909,-1.31419],[0.74004,0.99021]],[[336.45639,203.41452],[-0.78723,-0.5885],[-0.00124,-0.02042]],[[336.45452,203.35278],[0,0.02073],[0,-0.23425]],[[336.45452,201.65002],[0,0.23425],[-0.88443,-1.42225]],[[332.73127,198.08253],[1.23405,0.96116],[0,0]],[333.65452,196.25278]],&quot;closed&quot;:true}],&quot;index&quot;:null}" fill="#ff9090" fill-rule="nonzero" stroke="none" stroke-width="0.5" stroke-linecap="butt"/><path d="M506.71738,145.46237l-0.20092,0.22164c-0.07194,1.62599 -0.88947,1.94973 -2.31506,2.90471l-0.20622,-0.0448l0.0018,0.08115l-0.64846,0.02281c-0.05494,0.00193 -0.10842,-0.00218 -0.15961,-0.01164c-0.54573,0.17173 -1.53975,0.07141 -2.11,0.09146c-4.14149,0.14566 -8.35114,-1.40584 -10.34967,-4.65773c-0.92978,-1.5507 -3.14762,-5.24193 -1.39953,-6.97392c0.67098,-0.66481 1.98672,-1.26029 2.76372,-1.92421l0.89565,-0.07473c0,0 0.48219,-0.01696 0.62304,0.34229c1.0522,-0.3853 2.10704,-0.85247 3.13379,-1.02925c3.11826,-0.53685 7.67654,0.7464 9.23051,3.27862c0.3086,0.50286 0.36933,1.11181 0.70677,1.59988c0.07425,1.7836 0.66314,3.77621 0.07261,5.54369c0.23107,0.29749 -0.03842,0.63005 -0.03842,0.63005zM505.09814,145.5669l0.03993,-0.05278l0.123,-0.4052c0.91675,-1.6848 0.19157,-3.71283 0.1758,-5.48277c-0.3081,-0.44615 -0.37426,-0.99792 -0.649,-1.46089c-1.23634,-2.08316 -5.36264,-3.05347 -7.85119,-2.63523c-1.87472,0.31508 -3.64505,1.39061 -5.53196,1.59587c-0.38467,0.23091 -0.77354,0.44754 -1.14015,0.74049c-0.30452,0.24332 -0.11167,1.02536 -0.10545,1.30599c0.03186,1.43686 0.94951,3.09377 1.71886,4.34918c1.72138,2.89189 5.54792,4.19867 9.17578,4.07108c0.41502,-0.0146 1.36638,0.11274 1.74096,-0.03208c0.55591,-0.21492 0.95079,-0.66808 1.44594,-0.97855c0,0 0.19453,-0.12192 0.43017,-0.11694c0.12583,-0.14601 0.23183,-0.28888 0.30746,-0.42458l0.12551,-0.41351c-0.00057,-0.0204 -0.00243,-0.04044 -0.00565,-0.06009z" data-paper-data="{&quot;index&quot;:null}" fill="#000000" fill-rule="nonzero" stroke="none" stroke-width="0.5" stroke-linecap="butt"/><path d="M505.13086,145.64215l-0.12649,0.41474c-0.07564,0.13571 -0.18293,0.28003 -0.30876,0.42604c-0.23565,-0.00499 -0.43111,0.11789 -0.43111,0.11789c-0.49516,0.31048 -0.89522,0.76769 -1.45111,0.98262c-0.37459,0.14482 -1.33124,0.02024 -1.74626,0.03484c-3.62785,0.1276 -7.49848,-1.19511 -9.21985,-4.087c-0.76934,-1.25543 -1.68662,-2.93153 -1.71848,-4.3684c-0.00622,-0.28064 -0.19682,-1.06686 0.1077,-1.31018c0.36662,-0.29294 0.75829,-0.51324 1.14296,-0.74413c1.88691,-0.20526 3.67791,-1.29145 5.55263,-1.60653c2.48856,-0.41824 6.6478,0.56582 7.88413,2.64899c0.27477,0.46295 0.34374,1.02073 0.65185,1.46688c0.01577,1.76994 0.73796,3.81968 -0.1788,5.50447l-0.1239,0.40654l-0.04008,0.05298c0.00324,0.01966 0.00499,0.03984 0.00555,0.06026z" data-paper-data="{&quot;noHover&quot;:false,&quot;origItem&quot;:[&quot;Path&quot;,{&quot;applyMatrix&quot;:true,&quot;segments&quot;:[[[335.50583,170.03655],[0.00432,0.03481],[0,0]],[335.56916,169.94609],[[335.77254,169.24026],[0,0],[1.47021,-2.9096]],[[336.23079,159.59779],[-0.03618,3.11725],[-0.45952,-0.80461]],[[335.28064,156.98546],[0.40756,0.83214],[-1.83391,-3.74434]],[[323.27264,151.8595],[3.84895,-0.58229],[-2.89956,0.43866]],[[314.6938,154.32672],[2.91459,-0.24455],[-0.60064,0.38274]],[[312.91163,155.55989],[0.57493,-0.49309],[-0.47754,0.40956]],[[312.70452,157.85278],[0,-0.49449],[0,2.53181]],[[315.20452,165.61671],[-1.14259,-2.25803],[2.55369,5.19827]],[[329.20452,173.35278],[-5.59458,0],[0.64002,0]],[[331.88829,173.4041],[-0.58215,0.23178],[0.86394,-0.34398]],[[334.14982,171.77073],[-0.77361,0.51598],[0,0]],[[334.81669,171.59148],[-0.36294,-0.02337],[0.19888,-0.24928]],[[335.30497,170.86298],[-0.12119,0.23424],[0,0]],[[335.51251,170.14271],[0,0],[-0.00016,-0.03595]]],&quot;closed&quot;:true}],&quot;index&quot;:null}" fill="#ffffff" fill-rule="nonzero" stroke="none" stroke-width="0.5" stroke-linecap="butt"/><path d="M472.9176,141.63714c0.26844,-0.42904 0.55165,-0.84965 0.78225,-1.27801c0.07411,-0.13768 0.1509,-0.39744 0.23114,-0.69123c-0.30733,0.33102 -0.62945,0.61717 -0.76804,0.75017c-0.24683,0.23689 -0.27713,0.72244 -0.24537,1.21908zM472.05309,143.5644c-0.29525,-0.14549 -0.30265,-0.47875 -0.30265,-0.47875l-0.00315,-0.14189c-0.02304,-1.03889 0.12284,-2.26253 0.57446,-3.3112c-0.07947,-0.28428 0.17951,-0.52473 0.17951,-0.52473c0.05818,-0.05316 0.1175,-0.10641 0.17787,-0.15969c0.48911,-0.77756 1.20372,-1.38323 2.21874,-1.62c2.04884,-1.22471 4.55731,-2.03502 6.86404,-1.35466c1.25752,0.3709 2.68405,1.88075 3.40718,2.7698c0.6145,0.75551 1.2925,1.52908 1.56446,2.43534c0.79833,0.92454 0.77207,2.31715 0.78918,3.48212c0.07307,4.97911 -5.8621,8.30768 -11.0567,6.27577c-2.98236,-1.61979 -5.11259,-4.13388 -4.41295,-7.37215zM475.5302,138.28726c0.09303,0.45816 0.1361,0.93645 0.00303,1.29517c-0.99042,2.66988 -4.08213,5.99412 -0.88414,8.58602c0.83017,0.67284 1.48468,1.24519 2.44613,1.76349c4.28586,1.75497 9.25706,-1.18484 9.1306,-5.22557c-0.03078,-0.98342 0.06589,-2.25094 -0.65248,-2.99875c-0.46946,-1.46303 -1.86671,-3.05255 -3.22408,-3.75419c-0.44741,-0.23128 -0.62935,-0.80887 -1.12929,-0.93823c-1.88833,-0.48867 -3.98569,0.23479 -5.68977,1.27208z" data-paper-data="{&quot;index&quot;:null}" fill="#000000" fill-rule="nonzero" stroke="none" stroke-width="0.5" stroke-linecap="butt"/><path d="M481.22635,136.98724c0.49992,0.12937 0.68779,0.70843 1.13519,0.9397c1.35737,0.70166 2.77284,2.30753 3.24231,3.77054c0.71835,0.74781 0.62295,2.03056 0.65373,3.014c0.12646,4.04071 -4.88767,7.0023 -9.17354,5.24733c-0.96145,-0.5183 -1.62776,-1.09704 -2.45793,-1.76987c-3.19797,-2.59192 -0.10473,-5.95757 0.88569,-8.62745c0.13307,-0.35872 0.09335,-0.83932 0.00031,-1.29747c1.70409,-1.03728 3.82589,-1.76543 5.71422,-1.27675z" data-paper-data="{&quot;noHover&quot;:false,&quot;origItem&quot;:[&quot;Path&quot;,{&quot;applyMatrix&quot;:true,&quot;segments&quot;:[[[290.19278,155.38846],[2.6613,-1.72077],[0.1277,0.81243]],[[290.1532,157.66901],[0.21731,-0.62334],[-1.61739,4.63945]],[[288.49741,172.73146],[-4.83926,-4.76156],[1.25623,1.23606]],[[292.20645,175.98787],[-1.46381,-0.9721],[6.5442,3.35534]],[[306.45452,167.35278],[0.05679,7.12221],[-0.01382,-1.7334]],[[305.55158,162.03255],[1.08137,1.36114],[-0.67341,-2.60498]],[[300.71182,155.22298],[2.06763,1.31943],[-0.68152,-0.4349]],[[299.00373,153.50111],[0.76593,0.25874],[-2.89306,-0.97732]]],&quot;closed&quot;:true}],&quot;index&quot;:null}" fill="#ffffff" fill-rule="nonzero" stroke="none" stroke-width="0.5" stroke-linecap="butt"/><path d="M478.89606,143.40227c-0.01564,-0.70522 0.62491,-1.2999 1.43071,-1.32824c0.8058,-0.02834 1.4717,0.52038 1.48735,1.22561c0.01564,0.70522 -0.62491,1.2999 -1.43071,1.32824c-0.8058,0.02834 -1.4717,-0.52038 -1.48735,-1.22561z" data-paper-data="{&quot;index&quot;:null}" fill="#000000" fill-rule="nonzero" stroke="none" stroke-width="0.5" stroke-linecap="butt"/><path d="M496.36981,141.22579c-0.01564,-0.70522 0.62491,-1.2999 1.43071,-1.32824c0.8058,-0.02834 1.4717,0.52038 1.48735,1.22561c0.01564,0.70522 -0.62491,1.2999 -1.43071,1.32824c-0.8058,0.02834 -1.4717,-0.52038 -1.48735,-1.22561z" data-paper-data="{&quot;index&quot;:null}" fill="#000000" fill-rule="nonzero" stroke="none" stroke-width="0.5" stroke-linecap="butt"/><path d="M521.98049,111.26312c0.37017,0.45956 -0.16239,0.79333 -0.16239,0.79333l-0.54897,0.33871c-2.08439,0.96393 -3.90888,2.66242 -5.85996,3.86904c-1.64279,1.01596 -3.39609,2.09206 -4.88854,3.25235c-1.65287,1.28501 -3.10439,2.94907 -5.11891,3.88125c-1.97748,2.24703 -5.06085,4.331 -7.6796,5.96581c-2.52636,1.57713 -4.519,3.81436 -7.27544,5.13028c0,0 -0.57437,0.27421 -0.87562,-0.22321c-0.30126,-0.4974 0.27312,-0.77161 0.27312,-0.77161c2.68925,-1.28384 4.63994,-3.47835 7.10091,-5.03075c2.64587,-1.66904 5.57386,-3.6881 7.6317,-5.932c1.99923,-0.98005 3.4271,-2.56771 5.09281,-3.86144c3.23758,-2.51459 7.22567,-5.43138 10.99703,-7.27457l0.41114,-0.26301c0,0 0.53257,-0.33378 0.90274,0.12576z" data-paper-data="{&quot;index&quot;:null}" fill="#000000" fill-rule="nonzero" stroke="none" stroke-width="0.5" stroke-linecap="butt"/><path d="M458.97378,121.41283c0.57437,-0.27421 0.87562,0.22321 0.87562,0.22321l0.21207,0.41289c2.06502,0.69832 3.98943,2.0145 5.87875,3.01607c6.59624,3.49681 13.19248,6.99362 19.78874,10.49043c0,0 0.54968,0.2914 0.20544,0.77894c-0.34424,0.48753 -0.89393,0.19613 -0.89393,0.19613c-6.59624,-3.49681 -13.19248,-6.99362 -19.78874,-10.49043c-2.01023,-1.06567 -3.98568,-2.23487 -6.08954,-3.15629l-0.46155,-0.69934c0,0 -0.30126,-0.4974 0.27312,-0.77161z" data-paper-data="{&quot;index&quot;:null}" fill="#000000" fill-rule="nonzero" stroke="none" stroke-width="0.5" stroke-linecap="butt"/><path d="M-6.35477,390.04003l26.59983,-25.78669l74.32311,-0.23023l-15.64696,26.01693z" data-paper-data="{&quot;index&quot;:null}" fill="#cedce9" fill-rule="nonzero" stroke="#000000" stroke-width="1" stroke-linecap="round"/><path d="M-13.42431,388.68791c-2.56698,-0.36394 -8.67598,-0.93126 -5.99875,-1.51773c-1.46371,0.18794 -3.4165,0.4174 -4.45556,0.47912c-4.92238,0.29242 -11.30166,0 -16.38104,0c-13.93495,0 -27.46364,-0.15522 -40.95252,0.58059c-6.09601,0.33253 -7.77178,-0.69436 -9.64369,0.74248c-3.8612,2.41085 -11.12583,4.56216 -15.7925,6.98917c-6.32486,3.28933 -8.77763,6.4649 -12.65499,9.76315c-4.38764,2.71618 -0.81363,7.93118 -0.81363,10.9544c0,0.80926 1.23083,2.24977 0.05528,2.84544c1.1686,0.03009 2.2973,0.05754 3.01617,0.05754c4.77782,0 9.55557,0 14.33342,0c19.00536,0 41.08714,-0.11784 59.53394,-1.42546c21.90238,-1.39496 45.64037,0.60543 67.71896,-0.64662c12.09077,-0.62795 25.27044,-0.25468 37.58089,-0.25026c6.24509,0.00224 11.59305,-0.67032 14.33337,0.58059c0.72027,0.32882 0,-0.77412 0,-1.16118c0,-0.96764 0,-1.93534 0,-2.90297c0,-5.41889 0,-10.83778 0,-16.25668c0,-1.28106 -1.1843,-5.86424 1.26576,-6.36018c-0.45958,-0.00778 -0.97974,-0.02044 -1.26576,-0.02636c-2.53374,-0.05241 -3.94934,-0.01283 -5.92673,-0.41287c-3.43285,-0.69451 -15.01421,-0.16771 -19.66861,-0.16771c-18.08739,0 -36.1747,0 -54.26208,0c0,0 -4.09524,0 -4.09524,-1.16118c0,-0.04767 0.00685,-0.09337 0.02012,-0.13719c-1.95776,-0.11767 -3.93529,-0.28084 -5.94681,-0.56602zM50.85978,388.22998c10.91847,0 24.87315,-0.55127 32.32954,1.80307c4.27279,1.34911 1.4562,5.67473 1.4562,7.48646c0,5.41888 0,10.83776 0,16.25665c0,0.61878 1.41055,3.68835 0,4.06416c-14.24725,3.79578 -41.10096,0.83585 -58.49845,1.94696c-21.58927,1.22431 -46.45195,-1.10871 -67.33879,0.62238c-19.01242,1.34773 -41.9173,1.49483 -61.52045,1.49483c-2.81185,0 -19.67473,0.60382 -21.50005,0c-5.23434,-1.73155 -4.09524,-3.17598 -4.09524,-5.22537c0,-3.7069 -2.3175,-8.12554 1.23396,-11.68881c3.97407,-3.38047 6.76104,-6.77095 13.09945,-10.06734c2.55683,-1.32971 5.31858,-3.10837 8.62283,-4.30935c2.16211,-0.78584 6.29594,-1.42435 6.81243,-2.44592c3.50356,-2.68929 9.83501,-1.80813 17.32679,-2.26012c13.33627,-0.8046 27.13681,-0.5806 40.9525,-0.5806c5.09514,0 15.05041,-0.66487 18.64478,-0.458c6.25698,0.36015 9.88435,1.87313 15.94869,2.32238c4.44992,0.32966 9.13931,0.13451 14.33342,0.8709c0.39433,0.0559 0.78856,0.11181 1.18292,0.16771c13.66982,0 27.33972,0 41.00959,0z" data-paper-data="{&quot;index&quot;:null}" fill="#000000" fill-rule="nonzero" stroke="none" stroke-width="1" stroke-linecap="butt"/><path d="M-7.42053,389.19825c-0.01328,0.04382 -0.01966,0.08954 -0.01966,0.1372c0,1.16118 4.11535,1.16317 4.11535,1.16317c18.08732,0 36.27108,0.02308 54.35853,0.02308c4.65437,0 16.24628,-0.5214 19.67911,0.17311c1.97734,0.40006 3.39616,0.36241 5.92983,0.41481c0.28599,0.00591 0.80657,0.01886 1.26623,0.02666c-2.45006,0.49595 -1.25333,5.09025 -1.25333,6.3713c0,5.4189 -0.00853,10.87002 -0.00853,16.28891c0,0.96766 -0.007,1.94004 -0.007,2.90768c0,0.38706 0.7172,1.49172 -0.00308,1.16293c-2.74033,-1.25093 -8.09315,-0.57586 -14.3382,-0.57811c-12.31048,-0.00441 -25.52742,-0.36444 -37.61816,0.26353c-22.07861,1.25206 -46.03358,-0.73707 -67.93599,0.65788c-18.4468,1.30763 -40.61821,1.40525 -59.62371,1.40525c-4.77783,0 -9.56395,-0.00365 -14.34177,-0.00365c-0.71891,0 -1.84916,-0.02819 -3.01773,-0.05829c1.17556,-0.59568 -0.06291,-2.04029 -0.06291,-2.84955c0,-3.0232 -3.5933,-8.25831 0.79444,-10.97449c3.87739,-3.29825 6.33854,-6.49585 12.6634,-9.78519c4.66673,-2.42701 11.96201,-4.59563 15.82325,-7.00646c1.8719,-1.43685 3.56036,-0.41435 9.65637,-0.74688c13.48884,-0.73581 27.10539,-0.59687 41.04024,-0.59687c5.0793,0 11.51565,0.2895 16.43806,-0.00292c1.03896,-0.06175 3.00803,-0.29119 4.47173,-0.47911c-2.67728,0.58647 3.45595,1.15448 6.02297,1.51841c2.0116,0.28518 4.013,0.44989 5.97069,0.56754z" data-paper-data="{&quot;noHover&quot;:false,&quot;origItem&quot;:[&quot;Path&quot;,{&quot;applyMatrix&quot;:true,&quot;segments&quot;:[[[579.60736,595.76373],[0.95609,-0.20262],[0.00646,0.07548]],[[579.61718,596],[0,-0.08208],[0,2]],[[577.61718,598],[0,0],[-8.83333,0]],[[551.11718,598],[8.83333,0],[-2.27308,0]],[[541.51161,598.28885],[1.67648,-1.19621],[-0.96568,0.68904]],[[538.61718,599],[1.23739,-0.09027],[-0.13966,0.01019]],[[537.99901,599.04541],[0.22447,-0.0134],[1.19653,0.85421]],[[538.61718,610],[0,-2.20646],[0,9.33333]],[[538.61718,638],[0,-9.33333],[0,1.66667]],[[538.61718,643],[0,-1.66667],[0,0.66667]],[[538.61718,645],[-0.35177,0.56631],[1.33831,-2.15456]],[[545.61718,644],[-3.04994,0.00386],[6.01206,-0.00761]],[[563.97058,644.43107],[-5.90478,-1.08158],[10.78253,2.15651]],[[597.04254,645.54479],[-10.6965,-2.40266],[9.00888,2.25222]],[[626.11718,648],[-9.28168,0],[2.33333,0]],[[633.11718,648],[-2.33333,0],[0.35109,0]],[[634.59021,647.90091],[-0.5707,0.05184],[-0.57412,-1.02596]],[[634.61718,643],[0,1.39387],[0,-5.20707]],[[634.21982,624.13246],[2.14282,4.67827],[-1.8936,-5.6808]],[[628.03948,607.31672],[3.08887,5.66543],[-2.2791,-4.1802]],[[620.32688,595.27881],[1.8857,4.15235],[-0.91417,-2.47477]],[[615.61718,594],[2.9771,0.57275],[-6.58756,-1.26734]],[[595.61718,593],[6.8054,0],[-2.48058,0]],[[587.61718,593],[2.40395,0.50364],[-0.50743,-0.10631]],[[585.44122,592.1748],[0.71481,0.32365],[1.30749,1.01011]],[[582.51161,594.78885],[1.25365,-0.62682],[-0.98239,0.4912]]],&quot;closed&quot;:true}],&quot;index&quot;:null}" fill="#484848" fill-rule="nonzero" stroke="none" stroke-width="1" stroke-linecap="butt"/><path d="M-64.83107,393.45536c0,0.39243 1.41179,0.86805 0.70812,1.17879c1.79982,0.05253 3.61029,0.16724 5.21854,0.39528c6.20089,0.87914 18.81521,4.08259 20.00465,6.20045c0.09671,0.17225 -1.65677,0.20103 -1.35982,0.3538c0.9881,0.50831 9.04057,-0.37507 9.96685,-0.23072c0.20961,0.03266 0.31257,0.08356 0.35381,0.14549c-0.04312,-0.19238 -0.08259,-0.37838 -0.08259,-0.4954c0,-0.41132 0.05732,-0.85459 -0.59142,-1.22248c-5.5144,-3.24268 -14.52403,-6.32526 -30.12288,-6.32526c0,0 -1.84078,-0.00001 -3.05413,-0.34994c-0.40463,-0.06517 -0.7193,-0.14185 -0.93022,-0.23172c-0.0542,0.22153 -0.11094,0.44701 -0.11094,0.58166zM-30.02142,402.16423c0.27948,0.23774 0.19705,-0.15687 0.10418,-0.56969c-0.01942,0.17916 -0.29523,0.40723 -0.10418,0.56969zM-23.2872,398.742c5.09221,2.88773 -6.47007,7.10694 -16.97242,5.16406c-9.90903,-1.83314 -13.26447,-5.51735 -22.30768,-6.79943c-3.05511,-0.43313 -6.71588,-0.66958 -8.99813,-1.39018c-3.61666,-1.14198 -2.01342,-5.04147 4.90282,-5.04147c4.98019,0 7.43313,0.458 12.06961,0.458h2.04761c0,0 2.35058,0 3.49009,0.50494c12.13082,1.1228 19.91515,3.97546 25.76811,7.10409z" data-paper-data="{&quot;index&quot;:null}" fill="#000000" fill-rule="nonzero" stroke="none" stroke-width="1" stroke-linecap="butt"/><path d="M-64.8721,392.83474c0.21085,0.0899 0.52566,0.16652 0.93031,0.2317c1.21334,0.34994 3.06249,0.34744 3.06249,0.34744c15.59883,0 24.9337,3.15077 30.44806,6.39346c0.64872,0.36789 0.57356,0.81923 0.57356,1.23053c0,0.11703 0.03189,0.3057 0.07503,0.49808c-0.04116,-0.06197 -0.14315,-0.11316 -0.35285,-0.14584c-0.92627,-0.14434 -9.04853,0.75431 -10.03663,0.246c-0.29698,-0.15277 1.26203,-0.28353 1.16522,-0.45581c-1.18941,-2.11785 -13.86458,-5.30506 -20.06555,-6.18417c-1.60832,-0.22801 -3.42915,-0.33802 -5.229,-0.39056c0.70366,-0.31075 -0.69133,-0.79353 -0.69133,-1.18596c0,-0.13464 0.06617,-0.36337 0.12053,-0.58489z" data-paper-data="{&quot;noHover&quot;:false,&quot;origItem&quot;:[&quot;Path&quot;,{&quot;applyMatrix&quot;:true,&quot;segments&quot;:[[[607.563,601.99816],[0.02649,0.38155],[-0.10299,0.15484]],[[607.10872,602.39727],[0.1976,-0.11227],[-0.59254,0.60273]],[[605.61718,603],[0,0],[-7.618,0]],[[590.90604,613.89443],[2.69308,-5.58508],[-0.31682,0.63364]],[[590.61718,616],[0,-0.70843],[0,0.20156]],[[590.57685,616.85325],[0.02106,-0.33136],[0.02013,-0.10671]],[[590.74964,616.60263],[-0.10238,0.05628],[0.45234,-0.24865]],[[595.61718,617],[-0.48256,0.87548],[0.14503,-0.26312]],[[594.95308,616.3906],[-0.04725,0.29671],[0.58086,-3.64773]],[[604.72276,605.71115],[-3.02833,1.51416],[0.78545,-0.39273]],[[607.27135,605.03032],[-0.87898,0.0905],[-0.34365,-0.53523]],[[607.61718,603],[0,0.6759],[0,-0.23192]]],&quot;closed&quot;:true}],&quot;index&quot;:null}" fill="#ffffff" fill-rule="nonzero" stroke="none" stroke-width="1" stroke-linecap="butt"/><path d="M354.70843,425.11873l-103.17573,-51.76175l13.19528,-65.80449l-66.02174,-27.0351l-11.32827,-7.5873l-15.86621,-3.7154l-17.14857,5.70861l-33.45327,112.80413l-145.51681,-0.53241l51.10534,-211.61378c0,0 6.11801,-21.22082 7.83298,-26.89894c0.83864,-2.77667 1.87313,-5.23704 1.87313,-5.23704l280.14971,84.79533l88.29599,63.79724z" fill="#ff0000" fill-rule="nonzero" stroke="#000000" stroke-width="1" stroke-linecap="round"/><path d="M21.24913,230.39705c0,0.23182 0,0.46382 0,0.69564c2.31873,0 4.63764,0 6.95637,0c-2.28865,0.14452 -4.60756,0.23148 -6.95637,0.26087c0.70503,0.33756 0.64694,0.4826 -0.17391,0.43478c-0.05321,-0.50173 0.00469,-0.96554 0.17391,-1.39127z" data-paper-data="{&quot;index&quot;:null}" fill="#666666" fill-rule="evenodd" stroke="none" stroke-width="1" stroke-linecap="butt"/><path d="M29.07504,230.74486c0.73302,0.33669 1.54449,0.45269 2.43473,0.34782c-0.83563,0.17165 -1.70518,0.22974 -2.60864,0.17391c-0.04121,-0.22452 0.01669,-0.39843 0.17391,-0.52173z" data-paper-data="{&quot;index&quot;:null}" fill="#7d7d7d" fill-rule="evenodd" stroke="none" stroke-width="1" stroke-linecap="butt"/><path d="M196.19239,230.6791c0,0.9849 0,1.96981 0,2.95471c9.981,0 19.96003,0 29.94103,0c-10.01252,0.19679 -20.05852,0.26238 -30.138,0.19698c-0.06303,-1.08852 0.00196,-2.1392 0.19698,-3.15169z" data-paper-data="{&quot;index&quot;:null}" fill="#787878" fill-rule="evenodd" stroke="none" stroke-width="1" stroke-linecap="butt"/><path d="M110.70286,234.61872c6.66365,-0.19658 13.36098,-0.26238 20.092,-0.19698c0,0.26257 0,0.52535 0,0.78792c-0.17807,-0.13966 -0.24367,-0.33663 -0.19698,-0.59094c-6.63174,0 -13.26328,0 -19.89502,0z" data-paper-data="{&quot;index&quot;:null}" fill="#6a6a6a" fill-rule="evenodd" stroke="none" stroke-width="1" stroke-linecap="butt"/><path d="" fill="#000000" fill-rule="nonzero" stroke="none" stroke-width="1" stroke-linecap="butt" opacity="0.936"/><path d="M215.0242,90.35541c0.01619,-0.33814 0.06008,-0.67211 0.13237,-1.00182c0.15286,0.17351 0.31454,0.33963 0.48455,0.49757c-0.20675,0.16834 -0.41239,0.3364 -0.61693,0.50425z" fill="#000000" fill-rule="nonzero" stroke="none" stroke-width="1" stroke-linecap="butt" opacity="0.936"/><path d="M69.48283,88.80162c-1.21067,3.82469 -2.4391,7.64351 -3.68554,11.45757c-0.13704,-0.03671 -0.2149,-0.12827 -0.23323,-0.27694c0.00741,-0.22865 0.01472,-0.45731 0.02213,-0.68596c-0.07704,0.27681 -0.18429,0.5234 -0.32195,0.74087c0.04871,-0.33773 0.13385,-0.66585 0.2553,-0.98438c0.08894,-0.05925 0.17756,-0.11741 0.2665,-0.17665c0.21456,-0.87749 0.42923,-1.75495 0.64379,-2.63244c0.45023,-0.59315 0.72035,-1.26732 0.81043,-2.02366c0.03707,-0.18472 0.07392,-0.36834 0.11099,-0.55306c0.0895,-0.03037 0.15968,-0.09224 0.21097,-0.1878c0.15131,-0.46673 0.26597,-0.94196 0.34409,-1.42684c-0.12016,-0.00685 -0.22744,-0.04795 -0.32206,-0.12216c0.18512,0.00954 0.31459,-0.06 0.38865,-0.20968c0.45233,-0.71469 0.72609,-1.50321 0.82149,-2.36663c0.1469,-0.17188 0.32833,-0.30808 0.54409,-0.40862c-0.10995,-0.14979 -0.06188,-0.19768 0.14435,-0.14363z" fill="#8dc3ed" fill-rule="evenodd" stroke="none" stroke-width="1" stroke-linecap="butt" opacity="0.381"/><path d="M65.7973,100.2592c-1.26265,3.77764 -2.51662,7.56062 -3.76185,11.34815c-0.01711,-0.32889 -0.06794,-0.66733 -0.152,-1.01764c0.72884,-1.92164 1.33391,-3.8942 1.81553,-5.91875c0.25123,-0.64344 0.51401,-1.28112 0.78823,-1.91305c0.01488,-0.07411 0.02952,-0.14711 0.04439,-0.22123c0.36748,-0.79041 0.6118,-1.62395 0.73264,-2.49954c0.13767,-0.21747 0.24492,-0.46406 0.32195,-0.74087c-0.00741,0.22865 -0.01472,0.45731 -0.02213,0.68596c0.01834,0.14866 0.0962,0.24023 0.23323,0.27694z" fill="#a6c6df" fill-rule="evenodd" stroke="none" stroke-width="1" stroke-linecap="butt" opacity="0.309"/><path d="M289.24017,73.49162c0.88797,-1.85749 1.7987,-3.70419 2.73345,-5.53999c0.0202,-0.06342 0.06776,-0.09526 0.14389,-0.09538c15.37939,16.17166 30.71427,32.37875 46.00461,48.62114c-3.39903,2.23629 -6.81717,4.44973 -10.25199,6.64057c0.18967,-2.56758 0.30889,-5.13228 0.35891,-7.69396c-13.01873,-13.96096 -26.01542,-27.9385 -38.98887,-41.93237z" fill="#c6c7c6" fill-rule="evenodd" stroke="none" stroke-width="1" stroke-linecap="butt"/><path d="M291.97362,67.95163c-0.93476,1.8358 -1.8455,3.6825 -2.73345,5.53999c-0.43735,0.02854 -0.82466,0.19933 -1.16311,0.51212c-15.29941,12.00609 -30.60004,24.01207 -45.89946,36.01816c-0.03159,-0.04772 -0.06436,-0.0958 -0.09595,-0.14351c0.10156,-1.09668 0.27653,-2.17987 0.52727,-3.2491c16.44311,-12.91874 32.8984,-25.81118 49.3647,-38.67768z" fill="#cbcbcb" fill-rule="evenodd" stroke="none" stroke-width="1" stroke-linecap="butt"/><path d="M289.07231,73.70644c12.9593,13.9463 25.91922,27.89571 38.88094,41.84859c-1.28487,21.94344 -2.56955,43.88591 -3.85408,65.82768c-30.40809,-5.32808 -60.81067,-10.68363 -91.20894,-16.06689c2.65128,-17.94231 5.25555,-35.89279 7.81257,-53.85029c0.09549,-0.27073 0.19221,-0.54133 0.28771,-0.81206c0.42107,0.03393 0.82518,-0.00923 1.21112,-0.12973c15.60835,-12.29611 31.23192,-24.56855 46.87068,-36.8173z" fill="#606060" fill-rule="evenodd" stroke="none" stroke-width="1" stroke-linecap="butt"/><path d="M162.60846,58.02006c9.23576,13.21822 18.44985,26.45741 27.6447,39.71798c0.18683,0.47388 0.4067,0.93227 0.65968,1.37494c-0.3635,0.72974 -0.62404,1.50588 -0.77919,2.32875c-8.0229,-11.89577 -16.05051,-23.79921 -24.08279,-35.71042c-1.31638,-1.81363 -2.58806,-3.66354 -3.8139,-5.5492c-0.1123,0.1431 -0.19144,0.12722 -0.23983,-0.04813c-13.6371,11.03289 -27.25053,22.09337 -40.83936,33.18168c0.15637,-0.79604 0.35612,-1.58437 0.59932,-2.36485c13.64274,-10.95844 27.25925,-21.93544 40.85138,-32.93075z" fill="#e4e4e4" fill-rule="evenodd" stroke="none" stroke-width="1" stroke-linecap="butt" opacity="0.993"/><path d="M162.10509,60.52842c9.21938,13.50506 18.41831,27.03111 27.59682,40.57817c0.17772,0.30791 0.28129,0.61858 0.31188,0.93238c-8.15592,-11.99131 -16.31062,-23.98249 -24.46654,-35.9738c-0.1123,0.1431 -0.19144,0.12722 -0.23983,-0.04813c-12.75822,10.32095 -25.51556,20.64195 -38.27343,30.96297c-0.12783,0.42999 -0.25575,0.85984 -0.38359,1.28984c-1.85143,-1.49469 -3.69032,-3.00276 -5.51658,-4.52408c13.67951,-11.05221 27.33713,-22.12459 40.97126,-33.21733z" fill="#cbcbcb" fill-rule="evenodd" stroke="none" stroke-width="1" stroke-linecap="butt"/><path d="M165.41538,66.41146c8.82039,12.90722 17.61914,25.83531 26.39748,38.7843c0.10235,0.08055 0.21828,0.12445 0.34776,0.13192c-3.23942,16.99412 -6.48369,33.98752 -9.73153,50.98007c-22.52954,-3.97691 -45.05788,-7.9598 -67.58528,-11.94746c-0.08797,0.43836 -0.1757,0.87554 -0.26367,1.3139c-3.011,-0.54459 -6.02476,-1.06738 -9.04174,-1.56596c0.2866,-1.06202 0.58218,-2.12102 0.88702,-3.1769c3.0905,0.55806 6.18425,1.09689 9.28158,1.61409c3.83563,-15.13751 7.72327,-30.26258 11.66276,-45.37377c12.66596,-10.27708 25.34811,-20.53042 38.04561,-30.76017z" fill="#606060" fill-rule="evenodd" stroke="none" stroke-width="1" stroke-linecap="butt"/><path d="M241.34959,104.51275c0.35975,0.07219 0.7195,0.14439 1.07926,0.21659c-0.07967,0.85082 -0.2079,1.69487 -0.38345,2.53242c-17.22749,-1.81524 -34.45545,-3.61579 -51.68386,-5.40151c0.15981,-0.79634 0.31959,-1.59256 0.47939,-2.38891c16.84841,1.7337 33.68504,3.41421 50.50867,5.04142z" fill="#e5e5e5" fill-rule="evenodd" stroke="none" stroke-width="1" stroke-linecap="butt" opacity="0.997"/><path d="M270.91793,80.25227c0.03241,0.25501 0.0636,0.50979 0.09601,0.7648c-9.4231,7.42099 -18.88756,14.79937 -28.39341,22.1354c0.03224,0.41129 -0.00809,0.81735 -0.11978,1.21852c-13.8586,-1.36507 -27.71371,-2.77867 -41.56293,-4.24027c0.03956,-0.14738 0.13867,-0.23099 0.29976,-0.25048c4.04454,0.30953 8.08571,0.6856 12.1235,1.12822c3.82789,0.40696 7.64483,0.86229 11.45201,1.36623c0.07633,-0.03226 0.12789,-0.08405 0.15588,-0.15511c0.32018,0.06426 0.63917,0.12827 0.95934,0.19252c0.78275,0.17733 1.55782,0.24999 2.32637,0.21834c0.03957,0.00794 0.08034,0.01612 0.11992,0.02406c0.10152,-0.01479 0.19385,-0.05839 0.27579,-0.13104c3.08252,0.34795 6.16798,0.71863 9.25754,1.11224c1.27506,0.08006 2.55777,0.10958 3.84927,0.08905c0.26452,-0.60945 0.6242,-1.15856 1.07905,-1.64729c0.7394,-0.5764 1.46242,-1.17685 2.17026,-1.80109c0.14118,-0.07567 0.28946,-0.0873 0.44368,-0.03522c0.03195,-0.15922 0.06393,-0.31856 0.09588,-0.47778c0.30129,-0.05299 0.5935,-0.1601 0.87534,-0.32136c0.94827,-1.02666 2.0554,-1.88142 3.32136,-2.56414c0.45687,-0.35577 0.85254,-0.77338 1.18702,-1.25286c1.51521,-0.7685 2.84217,-1.78628 3.98084,-3.05307c0.3146,-0.23744 0.65436,-0.37639 1.01923,-0.41674c0.00724,-0.12927 0.05158,-0.24461 0.13186,-0.3463c0.3393,-0.15532 0.5955,-0.39392 0.76737,-0.7158c0.14118,-0.07567 0.28947,-0.0873 0.44368,-0.03522c0.06792,-0.27005 0.21538,-0.48897 0.44361,-0.65651c0.51119,-0.47732 1.08675,-0.85884 1.72665,-1.14457c0.76908,-0.66214 1.50927,-1.3419 2.21821,-2.03998c0.12234,0.04306 0.24624,0.04731 0.37173,0.01247c0.22856,-0.26863 0.48473,-0.5071 0.76738,-0.7158c0.1255,-0.03483 0.24939,-0.0306 0.37174,0.01247c0.39278,-0.50269 0.78406,-1.00407 1.175,-1.50379c0.12234,0.04306 0.24624,0.0473 0.37174,0.01247c0.42935,-0.40514 0.91257,-0.74308 1.45085,-1.01353c1.07967,-1.07845 2.28311,-1.99663 3.60913,-2.75489c0.27217,-0.31815 0.54314,-0.63654 0.81531,-0.95469c0.09837,-0.0737 0.20591,-0.09363 0.32376,-0.05929z" fill="#64a7ff" fill-rule="evenodd" stroke="none" stroke-width="1" stroke-linecap="butt" opacity="0.098"/><path d="M241.87753,107.47657c0.11459,0.23709 0.14299,0.51205 0.08403,0.82453c-0.06758,0.70973 -0.16662,1.41464 -0.29956,2.11436c-0.34712,-0.10408 -0.69446,-0.13241 -1.04327,-0.08511c-0.158,0.4268 -0.22549,0.86878 -0.20371,1.32593c-0.061,0.1734 -0.16931,0.29667 -0.32373,0.36993c-15.58441,-1.68556 -31.15793,-3.44399 -46.71938,-5.27504c-0.29695,-0.53438 -0.56082,-1.08435 -0.79162,-1.64993c-0.17581,-0.12474 -0.35967,-0.14101 -0.55161,-0.04857c-0.49576,-0.94853 -0.99149,-1.89717 -1.48725,-2.8457c17.12937,1.76958 34.24141,3.52611 51.3361,5.26959z" fill="#c6c7c6" fill-rule="evenodd" stroke="none" stroke-width="1" stroke-linecap="butt"/><path d="M200.93782,100.13072c-2.07042,-0.12 -4.14896,-0.32998 -6.23563,-0.63007c0.80064,-0.03615 1.62727,-0.01528 2.48225,0.06323c1.25651,0.15387 2.50844,0.34297 3.75339,0.56683z" fill="#67abff" fill-rule="evenodd" stroke="none" stroke-width="1" stroke-linecap="butt" opacity="0.149"/><path d="M307.06914,161.81193c0.00339,0.28771 -0.0117,0.5742 -0.04787,0.86018c-17.91055,-2.84994 -35.82252,-5.69892 -53.73476,-8.5467c-0.45138,-0.13159 -0.9037,-0.26461 -1.35508,-0.39618c-0.13074,-0.32445 -0.16651,-0.66215 -0.10803,-1.01573c1.51892,-11.78988 3.03295,-23.58024 4.54091,-35.37144c0.06997,-0.33002 0.20626,-0.59269 0.40762,-0.78798c17.7008,2.06753 35.36406,4.07968 52.99101,6.03659c-0.91934,12.93593 -1.89324,25.87022 -2.92169,38.80277c-0.01005,0.19928 0.06551,0.3387 0.22789,0.4185z" fill="#000000" fill-rule="evenodd" stroke="none" stroke-width="1" stroke-linecap="butt"/><path d="M308.67174,122.74445c0.27941,0.05607 0.56002,0.11238 0.83942,0.16846c-0.97767,12.64228 -1.95563,25.28588 -2.93378,37.93056c-0.03856,0.52159 0.00467,1.02728 0.13207,1.51757c-18.21154,-2.91655 -36.41828,-5.84457 -54.62215,-8.78691c1.51621,-12.21773 3.05418,-24.43819 4.61272,-36.66171c17.33807,1.97287 34.66197,3.91692 51.9717,5.83204z" fill="#485c8f" fill-rule="evenodd" stroke="none" stroke-width="1" stroke-linecap="butt"/><path d="M307.06914,161.81193c-0.16237,-0.07981 -0.23794,-0.21922 -0.22789,-0.4185c1.02845,-12.93254 2.00234,-25.86684 2.92169,-38.80277c-17.62695,-1.95691 -35.29021,-3.96906 -52.99101,-6.03659c0.10955,-0.07345 0.24145,-0.1091 0.39571,-0.10698c7.50811,0.85983 14.95089,1.69076 22.3284,2.4927c0.07194,-0.04769 0.14389,-0.09538 0.21583,-0.14308c0.26515,0.11471 0.57734,0.21875 0.93536,0.31196c1.03706,0.12846 2.07633,0.23352 3.11782,0.31503c0.07194,-0.04769 0.14389,-0.09538 0.21583,-0.14308c0.26515,0.11471 0.57734,0.21874 0.93536,0.31195c1.03706,0.12846 2.07633,0.23352 3.11782,0.31503c7.24854,0.87272 14.56742,1.69955 21.95667,2.48023c0.12337,0.40473 0.14298,0.82294 0.06009,1.25461c-0.97323,12.7258 -1.96714,25.44896 -2.98171,38.16945z" fill="#555555" fill-rule="evenodd" stroke="none" stroke-width="1" stroke-linecap="butt"/><path d="M239.43179,112.20451c0.27941,0.05607 0.56002,0.11238 0.83942,0.16846c-2.55402,17.79333 -5.12631,35.58448 -7.71669,53.37251c-16.29219,-2.95136 -32.59372,-5.84994 -48.90221,-8.69523c-2.95374,15.39649 -5.89742,30.79251 -8.83269,46.19022c-0.37341,0.10151 -0.73337,0.23554 -1.07918,0.40471c3.16605,-17.05122 6.43858,-34.07983 9.81545,-51.0875c0.34322,0.26644 0.71858,0.46602 1.12726,0.59898c2.90027,-15.32272 5.80891,-30.64365 8.72479,-45.96336c15.35542,1.70149 30.69709,3.37201 46.02384,5.01121z" fill="#ff0000" fill-rule="evenodd" stroke="none" stroke-width="1" stroke-linecap="butt"/><path d="M192.47244,105.63875c0.39395,0.46126 0.59787,0.99921 0.61174,1.61383c-2.56234,13.4647 -5.11863,26.93037 -7.67014,40.39711c-0.37922,1.6846 -0.75941,3.36777 -1.13864,5.05238c-0.23026,-0.18289 -0.4665,-0.35456 -0.70756,-0.51476c2.91128,-15.52679 5.88033,-31.04309 8.9046,-46.54856z" fill="#ff0000" fill-rule="evenodd" stroke="none" stroke-width="1" stroke-linecap="butt"/><path d="M121.81751,95.31189c0.36587,0.05291 0.72162,0.14506 1.06728,0.2763c0.94186,0.68491 1.83339,1.42298 2.67434,2.21413c-31.89984,-3.41519 -63.79359,-6.83339 -95.68113,-10.25455c0.0776,-0.57316 0.24939,-1.11845 0.51545,-1.63615c0.20836,-0.05734 0.42012,-0.07697 0.63554,-0.05884c30.27627,3.20257 60.53915,6.35561 90.78853,9.4591z" fill="#e5e5e5" fill-rule="evenodd" stroke="none" stroke-width="1" stroke-linecap="butt" opacity="0.999"/><path d="M175.06099,107.23917c0.35975,0.07219 0.7195,0.14439 1.07926,0.21659c-2.35219,11.08102 -4.66179,22.17358 -6.92745,33.27719c-12.81504,-2.03365 -25.63031,-4.06611 -38.44534,-6.09976c-0.39177,-0.11963 -0.78344,-0.24047 -1.1752,-0.36008c-0.14836,-0.19627 -0.18831,-0.4118 -0.11999,-0.64536c0.11992,0.02407 0.23983,0.04813 0.35975,0.07219c2.51901,-10.2215 5.02796,-20.44502 7.52731,-30.67169c12.58006,1.43915 25.14728,2.84279 37.70167,4.21094z" fill="#000000" fill-rule="evenodd" stroke="none" stroke-width="1" stroke-linecap="butt"/><path d="M174.26957,107.45312c0.47967,0.09626 0.95934,0.19252 1.43901,0.28877c-2.23501,10.90114 -4.5045,21.79386 -6.8076,32.67996c-12.88771,-2.09421 -25.7831,-4.14398 -38.68518,-6.14789c-0.15194,-0.0715 -0.30376,-0.14421 -0.4557,-0.2157c0.12026,-0.08645 0.24809,-0.1018 0.38372,-0.04725c2.47908,-10.22951 4.94818,-20.46152 7.40739,-30.69576c12.25065,1.43952 24.48969,2.81881 36.71836,4.13786z" fill="#485c8f" fill-rule="evenodd" stroke="none" stroke-width="1" stroke-linecap="butt"/><path d="M126.11078,98.16155c0.28937,0.13138 0.45332,0.35067 0.49172,0.65783c-0.42333,1.42326 -0.79485,2.86053 -1.11474,4.31163c-24.33278,-2.88088 -48.67184,-5.71494 -73.01704,-8.50215c-0.42175,1.04485 -0.82136,2.10371 -1.1988,3.17647c-6.87589,-3.31462 -13.75936,-6.62193 -20.65041,-9.92195c31.84305,3.47561 63.67287,6.9016 95.48927,10.27818z" fill="#c6c7c6" fill-rule="evenodd" stroke="none" stroke-width="1" stroke-linecap="butt"/><path d="M103.18251,93.06335c-22.07445,-2.24329 -44.14693,-4.56038 -66.2177,-6.9513c0.03342,-0.13109 0.09732,-0.24252 0.19183,-0.33427c0.78542,0.0397 1.57283,0.0527 2.36233,0.03917c2.98878,0.47503 5.97874,0.90941 8.96977,1.30299c0.54263,-0.02852 1.0862,-0.04371 1.63084,-0.0455c3.71978,0.4024 7.42914,0.77402 11.12821,1.11486c5.17854,0.57102 10.33489,1.19163 15.46921,1.86175c0.90744,0.0166 1.81875,0.03384 2.73406,0.05164c4.25929,0.57591 8.5363,1.02006 12.83103,1.33233c3.29588,0.35648 6.57757,0.78728 9.84514,1.29228c0.1626,0.01151 0.29457,0.07937 0.39575,0.20367c0.13366,-0.24517 0.28158,-0.25687 0.44368,-0.03522c0.17755,-0.18666 0.34538,-0.19435 0.50364,-0.02318c-0.07015,0.13453 -0.13012,0.1225 -0.17988,-0.0361c-0.06987,0.05978 -0.1059,0.13544 -0.1079,0.22686z" fill="#68adff" fill-rule="evenodd" stroke="none" stroke-width="1" stroke-linecap="butt" opacity="0.244"/><path d="M124.72032,103.22551c0.25948,0.01491 0.49132,0.10283 0.69553,0.26384c-3.33859,12.82669 -6.64288,25.66647 -9.91275,38.51813c-0.56048,0.04906 -1.13619,0.01678 -1.72678,-0.09801c-2.43312,-0.41745 -4.86755,-0.82273 -7.30294,-1.21702c3.34531,-12.70729 6.70562,-25.41159 10.08068,-38.11166c0.2525,-0.14802 0.53235,-0.19549 0.83939,-0.14219c2.45634,0.3048 4.89863,0.56715 7.32689,0.78692z" fill="#606160" fill-rule="evenodd" stroke="none" stroke-width="1" stroke-linecap="butt"/><path d="M115.94244,102.20953c0.11992,0.02407 0.23983,0.04813 0.35976,0.0722c-3.37181,12.78647 -6.76808,25.56679 -10.18858,38.33853c-15.78492,-2.77875 -31.57393,-5.53346 -47.36725,-8.26294c3.6368,-11.8225 7.297,-23.63782 10.98034,-35.44601c15.41771,1.81501 30.82291,3.58116 46.21573,5.29823z" fill="#b6b5b1" fill-rule="evenodd" stroke="none" stroke-width="1" stroke-linecap="butt"/><path d="M63.90201,125.93658c-0.12975,-0.0074 -0.24559,-0.05177 -0.34776,-0.13192c0.21008,-0.15292 0.42591,-0.296 0.64749,-0.42921c2.56502,-8.42423 5.18616,-16.82351 7.86367,-25.19907c12.54728,1.48438 25.08655,3.02731 37.61777,4.629c-2.45988,9.22937 -4.97325,18.43808 -7.53963,27.62495c-12.81564,-2.02134 -25.61485,-4.13383 -38.39741,-6.33865c0.07578,-0.03201 0.1277,-0.08372 0.15588,-0.1551z" fill="#000000" fill-rule="evenodd" stroke="none" stroke-width="1" stroke-linecap="butt"/><path d="M69.12712,96.79097c0.12739,0.15156 0.1713,0.34676 0.13197,0.58564c-3.63611,11.63377 -7.26023,23.26994 -10.87247,34.9085c-5.71716,-0.9721 -11.4173,-1.99172 -17.10018,-3.05884c3.7979,-11.36646 7.55779,-22.74676 11.28026,-34.14326c0.14452,-0.05686 0.29644,-0.0885 0.45567,-0.09495c5.3823,0.64347 10.75057,1.24436 16.10476,1.8029z" fill="#606160" fill-rule="evenodd" stroke="none" stroke-width="1" stroke-linecap="butt"/><path d="M63.90201,125.93658c0.15036,-0.08538 0.31836,-0.09392 0.50364,-0.02319c2.55939,-8.44027 5.16458,-16.86388 7.81569,-25.27082c0.1661,-0.06371 0.33793,-0.09136 0.51563,-0.08291c12.18036,1.4709 24.35986,2.94175 36.53851,4.41241c-2.39803,9.04795 -4.83539,18.08552 -7.31185,27.11151c-12.69009,-2.02473 -25.37729,-4.07374 -38.06162,-6.14701z" fill="#485c8f" fill-rule="evenodd" stroke="none" stroke-width="1" stroke-linecap="butt"/><path d="M327.93104,131.82808c-0.27946,3.27608 -0.45815,6.55362 -0.53854,9.83239c-0.12024,0.80428 -0.23925,1.60869 -0.35948,2.41298c-0.01329,0.83706 0.02717,1.67359 0.12019,2.50924c-0.12821,0.84406 -0.25524,1.68836 -0.38345,2.53242c-0.00557,1.04723 -0.02544,2.07867 -0.05962,3.09444c-0.07191,0.35833 -0.14382,0.71667 -0.21573,1.075c-0.01375,0.55341 0.02269,1.09913 0.10811,1.63702c-0.2168,0.88766 -0.22381,1.75555 -0.0237,2.60461c-0.17856,1.0452 -0.32642,2.09282 -0.44334,3.14169c-0.01606,0.08003 -0.03188,0.15886 -0.04794,0.23889c0.00039,1.39671 -0.09131,2.78613 -0.27535,4.16944c0.01781,0.46457 0.04975,0.92699 0.09608,1.3861c-0.1698,2.20128 -0.36142,4.39944 -0.57488,6.59445c0.06142,0.22231 0.12092,0.44177 0.17995,0.65739c-0.23983,-0.04813 -0.47968,-0.09626 -0.7195,-0.14439c0.87696,-13.9929 1.73044,-27.98679 2.5616,-41.98143c0.13626,0.05456 0.26415,0.03884 0.38371,-0.04725c-0.09964,-0.13133 -0.08368,-0.21089 0.04794,-0.2389c0.04562,0.1892 0.094,0.36455 0.14396,0.52591z" fill="#67b3fd" fill-rule="evenodd" stroke="none" stroke-width="1" stroke-linecap="butt" opacity="0.22"/><path d="M321.509,181.23569c0.83942,0.16846 1.67884,0.3369 2.51827,0.50536c-1.15676,19.23502 -2.31472,38.4698 -3.47124,57.70363c-31.63796,-7.69097 -63.28024,-15.36663 -94.92706,-23.02582c2.38541,-16.95315 4.83079,-33.90047 7.33324,-50.84008c6.26399,1.11041 12.52367,2.24232 18.77902,3.39574c-1.71142,13.28369 -3.40004,26.57196 -5.06805,39.86312c-0.08126,0.42977 -0.06155,0.8475 0.06009,1.25461c0.29333,0.16075 0.60033,0.2845 0.92338,0.37169c18.96116,4.35302 37.92808,8.67739 56.90098,12.97189c0.064,-0.31892 0.12776,-0.63664 0.19176,-0.95557c-0.11992,-0.02407 -0.23983,-0.04813 -0.35976,-0.0722c1.1261,-14.51945 2.25075,-29.03796 3.37685,-43.5574c4.59186,0.84568 9.1727,1.6407 13.7425,2.38503z" fill="#ff0000" fill-rule="evenodd" stroke="none" stroke-width="1" stroke-linecap="butt"/><path d="M302.20237,177.98257c1.78292,0.27827 3.50567,0.70724 5.16846,1.2857c-1.07816,14.28056 -2.15487,28.56017 -3.23303,42.84073c0.03551,0.20843 0.12355,0.39135 0.26386,0.54998c0.02784,0.16588 0.0161,0.33002 -0.03592,0.48982c-19.1595,-4.39656 -38.32285,-8.78022 -57.48859,-13.15194c1.69699,-13.57859 3.38271,-27.15695 5.05596,-40.73534c0.65546,0.0284 1.3078,0.09718 1.95464,0.20586c16.11782,2.88158 32.22173,5.72061 48.3146,8.51518z" fill="#495d90" fill-rule="evenodd" stroke="none" stroke-width="1" stroke-linecap="butt"/><path d="M324.79383,173.56974c0.23983,0.04813 0.47968,0.09626 0.7195,0.14439c-0.29238,1.93563 -0.43607,3.89489 -0.43105,5.87777c-0.20437,1.88868 -0.4001,3.79649 -0.58696,5.72223c0.06502,0.21061 0.10557,0.42502 0.11999,0.64536c-0.22435,1.25469 -0.35204,2.51263 -0.38332,3.77501c-0.00234,0.55247 0.03273,1.09878 0.10811,1.63702c-0.19309,-0.21892 -0.35356,-0.45739 -0.47974,-0.71755c0.28741,-5.68418 0.59834,-11.37981 0.93347,-17.08423z" fill="#8ac0ed" fill-rule="evenodd" stroke="none" stroke-width="1" stroke-linecap="butt" opacity="0.353"/><path d="M230.34805,165.55119c0.7195,0.14439 1.43902,0.28877 2.15852,0.43316c-2.3531,16.46882 -4.70115,32.93742 -7.0456,49.40673c-5.7563,-1.35894 -11.51308,-2.7217 -17.26817,-4.0866c2.31756,-14.65064 4.65477,-29.29981 7.01023,-43.94658c-1.56688,-0.75803 -3.14145,-1.50891 -4.72489,-2.25286c-1.89642,-0.83783 -3.87843,-1.31758 -5.94793,-1.44212c-2.31746,0.11645 -4.63132,0.25227 -6.94302,0.40841c-2.48453,14.24561 -5.02924,28.48037 -7.63392,42.70312c-0.07962,0.04864 -0.16811,0.07312 -0.26381,0.07131c-4.84158,-1.23626 -9.69778,-2.41829 -14.57004,-3.54514c2.94224,-15.3143 5.8509,-30.63534 8.72478,-45.96336c15.51392,2.78276 31.0144,5.52058 46.50386,8.21393z" fill="#ff0000" fill-rule="evenodd" stroke="none" stroke-width="1" stroke-linecap="butt"/><path d="M104.62667,140.57036c0.47967,0.09626 0.95934,0.19252 1.43902,0.28877c-0.28036,1.0608 -0.53603,2.1278 -0.76711,3.20097c-15.84622,-2.88921 -31.69926,-5.73878 -47.55914,-8.54996c0.29693,-0.97422 0.57658,-1.95315 0.83908,-2.93802c15.35683,2.73757 30.70645,5.40286 46.04815,7.99823z" fill="#b6b6b1" fill-rule="evenodd" stroke="none" stroke-width="1" stroke-linecap="butt"/><path d="M104.29597,186.97567c3.63631,-14.09647 7.25609,-28.19752 10.85967,-42.30429c3.54716,0.66585 7.10077,1.29573 10.66064,1.89083c0.49179,0.1397 0.98321,0.28056 1.47499,0.42026c-2.72494,11.04748 -5.46175,22.09506 -8.21055,33.14396c-0.46967,0.33319 -0.42971,0.65185 0.12002,0.956c13.48332,3.06737 26.95823,6.16412 40.42429,9.29265c2.54207,-12.16395 5.06734,-24.33129 7.57463,-36.50222c5.05188,0.93427 10.10422,1.86615 15.15753,2.79325c-3.01319,15.63681 -5.98441,31.27581 -8.91654,46.91893c-0.3077,-0.02074 -0.61565,-0.0403 -0.92335,-0.06104c-22.72926,-5.56149 -45.47002,-11.07808 -68.22133,-16.54831z" fill="#ff0000" fill-rule="evenodd" stroke="none" stroke-width="1" stroke-linecap="butt"/><path d="M162.47494,153.1732c1.43902,0.28877 2.87802,0.57755 4.31702,0.86632c-2.42649,11.97964 -4.87121,23.95687 -7.33487,35.92906c-13.4953,-3.02007 -26.96615,-6.13713 -40.41231,-9.35236c0.10791,-0.0765 0.22363,-0.1353 0.34774,-0.17873c2.72612,-11.13298 5.43906,-22.26859 8.13857,-33.40691c11.66073,2.09153 23.30805,4.13811 34.94384,6.14261z" fill="#495d90" fill-rule="evenodd" stroke="none" stroke-width="1" stroke-linecap="butt"/><path d="M57.85901,132.42775c0.18347,0.00451 0.33541,0.07601 0.4557,0.2157c-0.32834,0.92442 -0.64002,1.85593 -0.93503,2.7945c-5.69619,-1.04244 -11.39621,-2.06205 -17.10018,-3.05884c0.3305,-0.92399 0.64219,-1.8555 0.93503,-2.7945c5.56008,0.99401 11.10816,1.94211 16.64448,2.84313z" fill="#606160" fill-rule="evenodd" stroke="none" stroke-width="1" stroke-linecap="butt"/><path d="M206.55682,164.13175c2.68928,0.68506 5.2196,1.75199 7.59096,3.20078c0.22426,0.10713 0.46025,0.17437 0.70753,0.20411c-2.3099,14.48816 -4.63419,28.97343 -6.97431,43.45677c-0.11992,-0.02407 -0.23983,-0.04813 -0.35976,-0.0722c2.25787,-14.37186 4.55818,-28.73768 6.90239,-43.09842c-2.45146,-1.46611 -5.05829,-2.56827 -7.81881,-3.30863c-2.82499,-0.35692 -5.61923,-0.21436 -8.38199,0.43028c-2.48623,13.95575 -4.93529,27.91895 -7.34621,41.89106c-0.15949,-0.03201 -0.32017,-0.06425 -0.47967,-0.09626c2.43801,-14.08844 4.93142,-28.167 7.47807,-42.23736c1.76992,-0.19775 3.54872,-0.35894 5.33616,-0.48236c1.13511,-0.02445 2.25032,0.01296 3.34563,0.11224z" fill="#5f3b22" fill-rule="evenodd" stroke="none" stroke-width="1" stroke-linecap="butt"/><path d="M29.08317,166.41496c3.7328,-11.259 7.4488,-22.52384 11.1484,-33.79695c24.7442,4.48719 49.49125,8.91408 74.24069,13.28304c-3.25716,12.84551 -6.52152,25.69331 -9.79283,38.5422c-1.18312,-0.31322 -2.37414,-0.59447 -3.57356,-0.84138c3.04262,-11.97032 6.14722,-23.91826 9.31347,-35.84264c-0.01596,-0.12747 -0.03204,-0.25494 -0.04801,-0.38241c-20.00447,-3.71373 -40.01853,-7.37844 -60.04253,-10.99296c-3.41099,10.87253 -6.83937,21.74032 -10.28513,32.60338c-3.64527,-0.89181 -7.29881,-1.74924 -10.9605,-2.57228z" fill="#ff0000" fill-rule="evenodd" stroke="none" stroke-width="1" stroke-linecap="butt"/><path d="M205.69348,164.70404c2.94085,0.56903 5.67551,1.65584 8.20253,3.26138c0.06884,0.12316 0.10483,0.25464 0.10796,0.39443c-2.27492,14.16466 -4.55559,28.32692 -6.8425,42.48917c-5.34835,-1.31559 -10.70483,-2.59677 -16.069,-3.84595c2.47664,-13.95767 4.94512,-27.91823 7.40616,-41.87903c2.39609,-0.39641 4.79437,-0.5364 7.19484,-0.42z" fill="#603b22" fill-rule="evenodd" stroke="none" stroke-width="1" stroke-linecap="butt"/><path d="M103.71595,146.35188c2.11858,0.42515 4.23704,0.85028 6.35562,1.27542c-3.10845,11.96705 -6.21701,23.93531 -9.32546,35.90236c-1.39141,-0.33265 -2.77059,-0.71256 -4.13718,-1.14088c-17.70001,-4.21799 -35.39582,-8.45253 -53.08767,-12.70367c-1.09962,-0.11008 -2.18272,-0.30755 -3.24976,-0.59002c3.47635,-10.78859 6.93268,-21.58864 10.3691,-32.40015c17.70266,3.27045 35.39428,6.49022 53.07534,9.65693z" fill="#b6b6b6" fill-rule="evenodd" stroke="none" stroke-width="1" stroke-linecap="butt"/><path d="M105.41917,150.2971c0.0812,0.15298 0.18109,0.17303 0.2998,0.06016c-0.11179,0.8399 -0.33546,1.64368 -0.67126,2.41253c-1.50051,-0.19799 -2.97562,-0.51389 -4.42496,-0.95012c-0.09811,-0.22098 -0.13423,-0.45562 -0.108,-0.70508c0.18702,-0.51913 0.33493,-1.0486 0.44351,-1.58845c1.49238,0.34049 2.97934,0.59788 4.46092,0.77094z" fill="#000000" fill-rule="evenodd" stroke="none" stroke-width="1" stroke-linecap="butt"/><path d="M86.44824,146.61434c1.47894,0.29679 2.958,0.59361 4.43695,0.89039c-0.16636,0.79913 -0.38596,1.5826 -0.65927,2.35282c-0.70595,-0.05965 -1.41333,-0.16061 -2.12253,-0.30169c-0.7393,-0.15333 -1.44273,-0.37775 -2.11057,-0.67205c0.02834,-0.77961 0.18031,-1.53689 0.45543,-2.26947z" fill="#000000" fill-rule="evenodd" stroke="none" stroke-width="1" stroke-linecap="butt"/><path d="M96.16155,148.56357c1.47894,0.29679 2.958,0.59361 4.43695,0.89039c-0.14093,0.80423 -0.34075,1.59292 -0.59932,2.36485c-1.44908,-0.24979 -2.88018,-0.57799 -4.29306,-0.98578c-0.09943,-0.179 -0.14346,-0.37422 -0.13197,-0.58563c0.17825,-0.57433 0.37402,-1.13519 0.5874,-1.68384z" fill="#000000" fill-rule="evenodd" stroke="none" stroke-width="1" stroke-linecap="butt"/><path d="M81.62758,145.77119c1.47894,0.29679 2.958,0.59361 4.43695,0.89039c-0.17355,0.79521 -0.37348,1.58387 -0.59932,2.36485c-1.40927,-0.24179 -2.80032,-0.56195 -4.17315,-0.9617c-0.09919,-0.20008 -0.13914,-0.4156 -0.11999,-0.64536c0.19888,-0.53664 0.35075,-1.08644 0.4555,-1.64818z" fill="#000000" fill-rule="evenodd" stroke="none" stroke-width="1" stroke-linecap="butt"/><path d="M74.40857,144.44677c0.75944,0.1524 1.51899,0.30483 2.27843,0.45723c-0.1901,0.75584 -0.4217,1.49591 -0.69527,2.22134c-0.66746,-0.09293 -1.33515,-0.18469 -2.0026,-0.27762c-0.71914,-0.15053 -1.40281,-0.36973 -2.05062,-0.66002c0.08914,-0.67795 0.22505,-1.3552 0.40749,-2.03058c0.6948,0.1792 1.38229,0.27615 2.06257,0.28965z" fill="#000000" fill-rule="evenodd" stroke="none" stroke-width="1" stroke-linecap="butt"/><path d="M55.43764,140.764c1.12398,0.20443 2.23921,0.44937 3.34571,0.73353c-0.25918,0.71216 -0.49496,1.4725 -0.70725,2.28106c-1.32941,-0.22577 -2.64058,-0.5299 -3.93331,-0.91358c-0.08983,-0.12116 -0.14572,-0.25663 -0.16792,-0.40646c0.20775,-0.57959 0.40758,-1.16077 0.59938,-1.74355c0.29967,0.09742 0.58747,0.11417 0.86339,0.049z" fill="#000000" fill-rule="evenodd" stroke="none" stroke-width="1" stroke-linecap="butt"/><path d="M59.03517,141.48593c1.31909,0.26472 2.63818,0.52942 3.95727,0.79413c-0.1648,0.7572 -0.37649,1.50126 -0.63531,2.23337c-0.64586,-0.0476 -1.29342,-0.13654 -1.94265,-0.26559c-0.67945,-0.14257 -1.32294,-0.35494 -1.9307,-0.63596c-0.02795,-0.06774 -0.05601,-0.1355 -0.08397,-0.20324c0.23869,-0.63178 0.45051,-1.27268 0.63534,-1.92272z" fill="#000000" fill-rule="evenodd" stroke="none" stroke-width="1" stroke-linecap="butt"/><path d="M67.78914,143.24265c1.43902,0.28877 2.87802,0.57755 4.31702,0.86632c-0.22464,0.74022 -0.4163,1.48829 -0.57535,2.2454c-1.40363,-0.26055 -2.79864,-0.56162 -4.18513,-0.90199c0.04784,-0.0314 0.09604,-0.06397 0.14389,-0.09538c-0.11201,-0.06348 -0.22378,-0.12816 -0.33578,-0.19164c0.24192,-0.62492 0.45374,-1.26582 0.63534,-1.92272z" fill="#000000" fill-rule="evenodd" stroke="none" stroke-width="1" stroke-linecap="butt"/><path d="M323.86035,190.65397c0.12618,0.26016 0.28664,0.49863 0.47974,0.71755c-0.10859,0.43547 -0.17618,0.87793 -0.20371,1.32593c0.03858,1.884 -0.12885,3.75649 -0.50302,5.61482c0.02232,0.14985 0.07869,0.28542 0.16792,0.40646c-0.03421,0.81695 -0.1135,1.62859 -0.23957,2.43704c0.09764,0.25319 0.16962,0.51615 0.21593,0.78886c-0.12031,0.80464 -0.23917,1.60834 -0.35948,2.41298c0.01561,0.17709 0.04368,0.34799 0.08399,0.51389c-0.20027,-0.04019 -0.39932,-0.08013 -0.59958,-0.12032c0.30814,-4.69964 0.62757,-9.39952 0.95778,-14.09722z" fill="#a7c6df" fill-rule="evenodd" stroke="none" stroke-width="1" stroke-linecap="butt" opacity="0.268"/><path d="M95.39439,151.14324c1.51899,0.30483 3.03787,0.60963 4.55686,0.91445c-0.22738,0.82292 -0.43511,1.65102 -0.62329,2.4843c-1.44908,-0.24979 -2.88018,-0.57799 -4.29306,-0.98578c-0.08374,-0.3436 -0.09589,-0.69768 -0.03609,-1.06342c0.11399,-0.45675 0.24585,-0.90619 0.39557,-1.34956z" fill="#000000" fill-rule="evenodd" stroke="none" stroke-width="1" stroke-linecap="butt"/><path d="M100.311,152.12989c1.59886,0.32086 3.19784,0.64174 4.7967,0.96258c-0.26768,0.8111 -0.47541,1.63922 -0.62329,2.4843c-1.52894,-0.26581 -3.04002,-0.61006 -4.53289,-1.03391c-0.11665,-0.82983 0.0033,-1.63455 0.35948,-2.41298z" fill="#000000" fill-rule="evenodd" stroke="none" stroke-width="1" stroke-linecap="butt"/><path d="M80.98032,148.37493c1.48362,0.2766 2.95848,0.5937 4.42496,0.95012c-0.26241,0.79476 -0.51425,1.63514 -0.75519,2.51995c-1.40927,-0.24179 -2.80032,-0.56195 -4.17315,-0.9617c-0.09943,-0.179 -0.14346,-0.37422 -0.13197,-0.58563c0.19731,-0.65251 0.40901,-1.29344 0.63534,-1.92272z" fill="#000000" fill-rule="evenodd" stroke="none" stroke-width="1" stroke-linecap="butt"/><path d="M85.65711,149.31345c1.47894,0.29679 2.958,0.59361 4.43695,0.89039c-0.17366,0.87843 -0.38966,1.74712 -0.64726,2.60374c-1.40927,-0.24179 -2.80032,-0.56195 -4.17315,-0.9617c-0.09476,-0.26131 -0.12261,-0.53654 -0.08403,-0.82453c0.18641,-0.56151 0.34212,-1.13041 0.46748,-1.7079z" fill="#000000" fill-rule="evenodd" stroke="none" stroke-width="1" stroke-linecap="butt"/><path d="M60.93015,144.47558c0.43973,0.08825 0.87935,0.17647 1.31909,0.26472c-0.19478,0.79095 -0.41437,1.57441 -0.65927,2.35282c-0.7786,0.0289 -1.55411,-0.04347 -2.32637,-0.21834c-0.56014,-0.11987 -1.0837,-0.30818 -1.57094,-0.56376c0.08709,-0.76783 0.27875,-1.5159 0.57534,-2.2454c0.89399,0.21917 1.78126,0.35621 2.66215,0.40998z" fill="#000000" fill-rule="evenodd" stroke="none" stroke-width="1" stroke-linecap="butt"/><path d="M67.04593,145.70288c1.43902,0.28877 2.87802,0.57755 4.31702,0.86632c-0.21408,0.78458 -0.41389,1.57328 -0.59932,2.36485c-1.40927,-0.24179 -2.80032,-0.56195 -4.17315,-0.9617c-0.06392,-0.09608 -0.12797,-0.19094 -0.19189,-0.28703c0.25379,-0.64615 0.46969,-1.30735 0.64733,-1.98245z" fill="#000000" fill-rule="evenodd" stroke="none" stroke-width="1" stroke-linecap="butt"/><path d="M71.72272,146.6414c1.39908,0.28076 2.79803,0.5615 4.19711,0.84226c-0.22584,0.78098 -0.42577,1.56965 -0.59932,2.36485c-1.36934,-0.23378 -2.72045,-0.54593 -4.05322,-0.93764c-0.09835,-0.1589 -0.14609,-0.33499 -0.14396,-0.52591c0.18737,-0.59238 0.3872,-1.17355 0.59938,-1.74355z" fill="#000000" fill-rule="evenodd" stroke="none" stroke-width="1" stroke-linecap="butt"/><path d="M53.83105,143.17521c1.35903,0.27273 2.71816,0.54548 4.07719,0.81819c-0.16636,0.79913 -0.38596,1.5826 -0.65927,2.35281c-0.66589,-0.05162 -1.33335,-0.14456 -2.0026,-0.27762c-0.69924,-0.14653 -1.363,-0.36174 -1.99066,-0.64798c0.05795,-0.78237 0.24985,-1.53163 0.57535,-2.2454z" fill="#000000" fill-rule="evenodd" stroke="none" stroke-width="1" stroke-linecap="butt"/><path d="M326.50545,205.83374c0.98877,0.19842 1.97873,0.39709 2.9675,0.59551c-0.01589,0.07921 -0.03156,0.15725 -0.04746,0.23646c-1.02913,-0.20652 -2.05707,-0.41281 -3.0862,-0.61933c0.05507,-0.07135 0.11109,-0.14129 0.16615,-0.21265z" fill="#000000" fill-rule="evenodd" stroke="none" stroke-width="1" stroke-linecap="butt" opacity="0.004"/><path d="M192.53233,153.79446c-0.47623,3.3568 -1.08598,6.71988 -1.82739,10.08982c-1.37629,-0.2144 -2.69234,-0.54201 -3.94825,-0.98244c1.26569,0.254 2.52948,0.5076 3.79516,0.76161c0.66016,-3.28966 1.32032,-6.57932 1.98047,-9.86898z" data-paper-data="{&quot;index&quot;:null}" fill="#b4b4b4" fill-rule="evenodd" stroke="none" stroke-width="1" stroke-linecap="butt"/><path d="M203.29152,115.76172c0.2472,-0.19041 0.36655,-0.39311 0.4087,-0.58674c0.34297,0.10256 0.68909,0.22022 1.02589,0.35025c1.01833,0.39311 1.67852,2.03589 2.35053,2.78773c3.65736,3.99787 2.07372,10.29001 -2.14665,13.00805c-2.69926,1.73838 -6.76674,-0.13288 -9.3508,-0.87528c-3.45356,-2.40102 -4.31505,-9.15919 -2.33807,-12.52408c0.60399,-1.02802 1.21482,-2.11391 2.11157,-2.93352c1.10059,-1.00588 5.56919,-0.36174 6.28568,0.61026c0,0 0.77102,0.84295 1.65315,0.16335z" data-paper-data="{&quot;noHover&quot;:false,&quot;origItem&quot;:[&quot;Path&quot;,{&quot;applyMatrix&quot;:true,&quot;segments&quot;:[[[241.70461,4.64853],[0.02273,0.18258],[-0.30009,0.06369]],[[240.80946,4.87737],[0.29669,-0.08959],[-0.89707,0.27087]],[[238.62678,7.22738],[0.62577,-0.6333],[-3.39928,3.36008]],[[239.55917,19.35148],[-3.41956,-2.89062],[2.18706,1.84876]],[[247.55908,19.38755],[-2.25884,0.45177],[3.11557,-1.90435]],[[250.39804,8.10832],[1.45833,3.28499],[-0.44554,-1.00361]],[[248.80832,5.22311],[0.70998,0.83766],[-0.87137,-1.02807]],[[243.42678,5.22738],[0.67888,-0.83255],[0,0]],[[242.01257,5.22738],[0.70711,0.70711],[-0.19814,-0.19814]]],&quot;closed&quot;:true}],&quot;index&quot;:null}" fill="#ffffff" fill-rule="nonzero" stroke="#000000" stroke-width="1.5" stroke-linecap="butt"/><path d="M231.75212,119.01511c0,0 0.45905,0.2229 0.91615,0.0973c1.93629,0.78242 2.36706,2.31754 2.13422,5.59622c-1.20143,3.28735 -1.94441,6.95967 -5.34238,8.92264c-0.50302,0.29056 -2.36173,-0.16694 -2.90106,-0.21975c-3.68714,-0.36101 -10.21059,-2.59889 -10.54571,-6.57562c0.14163,-1.67921 -0.17221,-4.4204 0.59969,-5.91812c2.03859,-3.95545 6.2803,-4.50439 10.31348,-3.61524c0.07021,0.87962 1.08446,0.98048 1.08446,0.98048l0.93484,0.09337c0.75519,0.07394 1.43205,0.16507 2.01845,0.27131c0.2665,0.11783 0.53207,0.24277 0.78782,0.36741z" data-paper-data="{&quot;noHover&quot;:false,&quot;origItem&quot;:[&quot;Path&quot;,{&quot;applyMatrix&quot;:true,&quot;segments&quot;:[[[216.70435,5.65341],[0.38194,0.15726],[-1.70813,0.54728]],[[214.51218,10.59809],[0.02601,-3.04779],[0.801,3.14331]],[[218.43957,19.26604],[-2.76866,-2.11926],[0.40985,0.31371]],[[220.91968,19.32027],[-0.46445,0],[3.17519,0]],[[230.32308,14.23779],[-0.55919,3.64084],[-0.0058,-1.56297]],[[230.21837,8.75346],[0.55678,1.4524],[-1.47044,-3.83575]],[[221.70586,4.51461],[3.5071,-0.45627],[-0.12034,0.80567]],[220.71968,5.32027],[[219.91968,5.32027],[0,0],[-0.65032,0]],[[218.18577,5.38345],[0.50832,-0.04508],[-0.23579,0.0847]],[[217.49107,5.64875],[0.22708,-0.09195],[0,0]]],&quot;closed&quot;:true}],&quot;index&quot;:null}" fill="#ffffff" fill-rule="nonzero" stroke="#000000" stroke-width="1.5" stroke-linecap="butt"/><path d="M201.2143,124.98433c-1.13476,-0.11111 -1.98632,-1.05262 -1.90199,-2.10292c0.08433,-1.0503 1.07264,-1.81168 2.2074,-1.70057c1.13478,0.11111 1.98632,1.05262 1.90199,2.10292c-0.08433,1.0503 -1.07264,1.81168 -2.2074,1.70057z" data-paper-data="{&quot;index&quot;:null}" fill="#000000" fill-rule="nonzero" stroke="none" stroke-width="1.5" stroke-linecap="butt"/><path d="M225.01526,126.63928c-1.13476,-0.11111 -1.98631,-1.05262 -1.90197,-2.10291c0.08433,-1.0503 1.07262,-1.81168 2.20739,-1.70058c1.13478,0.11111 1.98632,1.05262 1.90199,2.10292c-0.08433,1.0503 -1.07263,1.81168 -2.2074,1.70057z" data-paper-data="{&quot;index&quot;:null}" fill="#000000" fill-rule="nonzero" stroke="none" stroke-width="1.5" stroke-linecap="butt"/><path d="M176.27836,89.51959c0.46997,-0.5126 1.00751,-0.05116 1.00751,-0.05116l0.73607,0.63231c4.23613,3.19782 8.63017,6.22882 12.80722,9.48376c4.63753,4.08226 9.64494,7.722 14.62301,11.40132c1.52265,1.1254 3.04899,2.24631 4.56805,3.37628c0.26189,0.19481 0.56472,0.40086 0.79357,0.64432c0.06009,-0.06368 0.14128,-0.12252 0.24964,-0.17189c0.64213,-0.29257 0.95436,0.332 0.95436,0.332l0.30908,0.61825c0.06778,0.13194 0.09306,0.2851 0.06206,0.43956c-0.07483,0.37289 -0.44937,0.6122 -0.83654,0.5345c-0.0378,-0.00759 -0.07432,-0.01791 -0.10939,-0.03072l-0.94275,-0.32795l0.08671,-0.24107c-2.21888,-0.81981 -4.07572,-2.66582 -5.9922,-4.08229c-4.9991,-3.69488 -10.03097,-7.34909 -14.68623,-11.4508c-4.17341,-3.24899 -8.56208,-6.27545 -12.79176,-9.47112l-0.77086,-0.66125c0,0 -0.53755,-0.46143 -0.06759,-0.97402z" data-paper-data="{&quot;index&quot;:null}" fill="#000000" fill-rule="nonzero" stroke="none" stroke-width="0.5" stroke-linecap="butt"/><path d="M246.78014,90.60083c0.39991,0.57691 -0.19162,0.95485 -0.19162,0.95485l-0.05747,0.02003c-3.37807,3.2755 -6.40663,6.74953 -10.28272,9.48942c-4.01282,2.83593 -8.45896,5.56112 -12.08605,8.84948c-2.45769,2.22816 -4.52405,4.1649 -7.54402,5.73137c0,0 -0.6253,0.32416 -0.97001,-0.28459c-0.3447,-0.60876 0.28059,-0.93293 0.28059,-0.93293c2.91593,-1.51082 4.87696,-3.37627 7.24814,-5.52601c3.66963,-3.32691 8.15753,-6.08434 12.21718,-8.95459c3.81406,-2.69605 6.7956,-6.12471 10.11741,-9.35224l0.27714,-0.19378c0,0 0.59152,-0.37795 0.99143,0.19895z" data-paper-data="{&quot;index&quot;:null}" fill="#000000" fill-rule="nonzero" stroke="none" stroke-width="0.5" stroke-linecap="butt"/><path d="M230.7016,136.21705c0.53512,0.59886 -0.06374,1.13398 -0.06374,1.13398l-0.69053,0.59572c-0.24818,0.54206 -0.57811,1.04827 -0.9431,1.51964c-1.0681,1.81076 -3.04671,3.04207 -4.71447,4.30112c-1.52538,1.15157 -2.92104,2.74084 -4.5351,3.74804c-1.19618,0.74644 -2.841,1.20328 -4.12778,1.83205c-2.3617,1.15401 -4.01051,2.87312 -6.80433,2.93583c-1.76471,0.03961 -3.35209,-0.49705 -5.0091,-1.01857c-1.49118,-0.79524 -2.94209,-1.05502 -4.48557,-1.68964c-2.57865,-1.06025 -4.63433,-2.91301 -6.55745,-4.84186c-0.64164,-0.64355 -1.60041,-0.99591 -2.07049,-1.77366c-0.79838,-1.32092 -0.42663,-3.26906 -0.43475,-4.70406c-0.01327,-2.34483 0.05548,-4.43208 0.96261,-6.62575c0,0 0.30938,-0.74114 1.05051,-0.43176c0.74114,0.30938 0.43176,1.05051 0.43176,1.05051c-0.83524,1.97939 -0.85094,3.8805 -0.83868,5.99781c0.0057,0.98414 -0.40415,2.92462 0.17674,3.84011c0.42865,0.67556 1.29602,0.94917 1.86186,1.51481c1.77272,1.77212 3.65029,3.51181 6.02835,4.48814c1.5343,0.62993 3.00971,0.90208 4.49536,1.6937c1.43079,0.44435 2.81908,0.92892 4.34101,0.8947c2.48017,-0.05575 4.0245,-1.73158 6.1357,-2.7679c1.2521,-0.61461 2.86244,-1.04964 4.02277,-1.77474c1.55518,-0.97183 2.8981,-2.52673 4.37393,-3.63835c1.50368,-1.1326 3.45062,-2.27039 4.3631,-3.92517c0.38471,-0.49093 0.71706,-1.02682 0.99097,-1.58718l0.90643,-0.83128c0,0 0.59886,-0.53512 1.13398,0.06374z" fill="#000000" fill-rule="nonzero" stroke="none" stroke-width="0.5" stroke-linecap="butt"/><g fill-rule="nonzero" stroke="none" stroke-width="1" stroke-linecap="butt"><path d="M336.84013,416.472c-1.90062,-0.71773 -3.71281,-1.5261 -5.48567,-2.36483c-0.00946,0.04478 -0.02543,0.08815 -0.04837,0.12994c-0.55865,1.01796 -4.14879,-0.95228 -4.14879,-0.95228c-15.85657,-8.70194 -31.71306,-17.40382 -47.56957,-26.10573c-4.08033,-2.23924 -13.97987,-8.27294 -17.32344,-9.31564c-1.92595,-0.60061 -3.14791,-1.31637 -5.39438,-2.48942c-0.25355,-0.13238 -0.71566,-0.37157 -1.12233,-0.58585c1.90926,1.6135 -1.33394,5.06164 -1.95026,6.1847c-2.60705,4.75055 -5.2141,9.50109 -7.82116,14.25163c-0.46553,0.84829 -0.9311,1.69663 -1.39663,2.54493c-0.18621,0.33931 -1.34827,0.95968 -0.55865,1.01796c3.00417,0.22174 7.36893,3.38428 12.84487,6.38686c10.79425,5.91874 22.52796,11.93229 32.82535,18.29971c18.75313,11.71973 40.52572,21.3865 59.05563,33.14677c15.54255,10.02119 34.84411,20.74813 51.50542,29.8917c4.18856,2.29865 8.37705,4.59724 12.56559,6.89587c0.6302,0.34585 1.63291,0.86482 2.67187,1.40066c-0.744,-1.08777 1.02806,-1.75847 1.4174,-2.46791c1.45448,-2.65034 7.09667,-5.50265 4.55693,-9.99476c-1.81237,-4.7569 -2.43481,-8.7208 -6.39707,-14.64736c-2.92344,-4.37282 -8.25708,-9.75387 -10.48218,-13.72499c-0.94976,-2.16022 -2.91291,-2.06619 -8.09707,-5.29053c-11.47123,-7.13463 -23.40603,-13.50728 -35.62224,-20.21143c-4.45293,-2.44372 -10.18606,-5.25645 -14.36066,-7.88099c-0.88121,-0.55403 -2.48276,-1.69467 -3.67553,-2.56361c2.06484,1.80216 -3.5636,-0.63954 -5.98907,-1.5555zM280.7048,385.14296c11.98388,6.57664 23.96773,13.15326 35.95158,19.72989c0.37263,0.14073 0.74515,0.28139 1.11774,0.4221c4.90776,1.85334 8.92491,4.28053 12.98457,6.13239c5.5325,2.52373 9.44041,2.9425 15.09893,5.63704c3.25057,1.54787 11.65812,6.9203 16.12484,9.3716c12.11169,6.64678 24.3179,13.08993 35.62224,20.21143c6.35035,4.00059 12.32482,6.2742 14.10241,10.31737c-0.03869,1.14407 3.2781,3.69262 4.79547,5.42175c2.3189,2.64253 3.8843,5.5305 5.48607,7.92633c3.97075,5.93925 4.78279,10.2524 6.64037,15.12786c1.39914,4.83245 -2.75833,7.59112 -4.54174,10.84082c-0.98598,1.79664 -0.68227,3.61094 -6.10409,2.61065c-1.89065,-0.3488 -16.38326,-8.99097 -18.84831,-10.34378c-17.18536,-9.43116 -37.19447,-20.57979 -53.21355,-30.90823c-17.47786,-11.56633 -40.39647,-21.48261 -58.73398,-32.94261c-14.7172,-9.34412 -39.68288,-19.66866 -50.34675,-29.8507c-1.05578,-1.00808 1.65759,-3.02044 1.95529,-3.5629c2.60705,-4.75055 5.2141,-9.50109 7.82116,-14.25163c0.87164,-1.58829 0.48345,-6.73547 4.87837,-5.86252c7.6694,1.52332 19.63774,8.72027 29.20958,13.9732z" data-paper-data="{&quot;index&quot;:null}" fill="#000000"/><path d="M331.33127,414.03073c1.77284,0.83872 3.60664,1.6572 5.50733,2.37498c2.42545,0.91595 8.07554,3.36873 6.01063,1.56655c1.19274,0.86894 2.80859,2.0174 3.6897,2.57139c4.17461,2.62454 9.95647,5.46732 14.40926,7.91097c12.21618,6.70413 24.22014,13.13329 35.69132,20.2679c5.18416,3.22433 7.15633,3.1403 8.1061,5.3005c2.22512,3.97112 7.57732,9.38209 10.50082,13.75495c3.96226,5.92654 4.58151,9.91385 6.39386,14.67071c2.53976,4.49215 -3.12898,7.35281 -4.58347,10.00314c-0.38934,0.70944 -2.17008,1.38005 -1.42608,2.46783c-1.0389,-0.53581 -2.04332,-1.05487 -2.67357,-1.40074c-4.18854,-2.29863 -8.38611,-4.59806 -12.57465,-6.89668c-16.66142,-9.14363 -36.05131,-19.89597 -51.59384,-29.91717c-18.5299,-11.76026 -40.48734,-21.54131 -59.24047,-33.26106c-10.29741,-6.36744 -22.05743,-12.41055 -32.85167,-18.32929c-5.47591,-3.00257 -9.84374,-6.16962 -12.84791,-6.39137c-0.78961,-0.05828 0.37058,-0.68166 0.55679,-1.02098c0.46555,-0.84831 0.92721,-1.70414 1.39274,-2.55243c2.60706,-4.75055 5.22214,-9.53344 7.8292,-14.28399c0.61632,-1.12306 3.87579,-4.57496 1.96652,-6.18847c0.40672,0.21431 0.86932,0.45339 1.12289,0.58581c2.24638,1.173 3.47213,1.88862 5.39803,2.48922c3.34357,1.0427 13.25492,7.07672 17.33524,9.31596c15.85657,8.70194 31.8087,17.42998 47.66521,26.13189c0,0 3.60873,1.97817 4.16738,0.9602c0.02293,-0.04179 0.03932,-0.08493 0.04877,-0.12974z" data-paper-data="{&quot;noHover&quot;:false,&quot;origItem&quot;:[&quot;Path&quot;,{&quot;applyMatrix&quot;:true,&quot;segments&quot;:[[[579.60736,595.76373],[0.95609,-0.20262],[0.00646,0.07548]],[[579.61718,596],[0,-0.08208],[0,2]],[[577.61718,598],[0,0],[-8.83333,0]],[[551.11718,598],[8.83333,0],[-2.27308,0]],[[541.51161,598.28885],[1.67648,-1.19621],[-0.96568,0.68904]],[[538.61718,599],[1.23739,-0.09027],[-0.13966,0.01019]],[[537.99901,599.04541],[0.22447,-0.0134],[1.19653,0.85421]],[[538.61718,610],[0,-2.20646],[0,9.33333]],[[538.61718,638],[0,-9.33333],[0,1.66667]],[[538.61718,643],[0,-1.66667],[0,0.66667]],[[538.61718,645],[-0.35177,0.56631],[1.33831,-2.15456]],[[545.61718,644],[-3.04994,0.00386],[6.01206,-0.00761]],[[563.97058,644.43107],[-5.90478,-1.08158],[10.78253,2.15651]],[[597.04254,645.54479],[-10.6965,-2.40266],[9.00888,2.25222]],[[626.11718,648],[-9.28168,0],[2.33333,0]],[[633.11718,648],[-2.33333,0],[0.35109,0]],[[634.59021,647.90091],[-0.5707,0.05184],[-0.57412,-1.02596]],[[634.61718,643],[0,1.39387],[0,-5.20707]],[[634.21982,624.13246],[2.14282,4.67827],[-1.8936,-5.6808]],[[628.03948,607.31672],[3.08887,5.66543],[-2.2791,-4.1802]],[[620.32688,595.27881],[1.8857,4.15235],[-0.91417,-2.47477]],[[615.61718,594],[2.9771,0.57275],[-6.58756,-1.26734]],[[595.61718,593],[6.8054,0],[-2.48058,0]],[[587.61718,593],[2.40395,0.50364],[-0.50743,-0.10631]],[[585.44122,592.1748],[0.71481,0.32365],[1.30749,1.01011]],[[582.51161,594.78885],[1.25365,-0.62682],[-0.98239,0.4912]]],&quot;closed&quot;:true}],&quot;index&quot;:null}" fill="#484848"/><path d="M379.61302,445.3833c0.06478,-0.11804 0.12355,-0.34301 0.1826,-0.56328c-0.22817,-0.02267 -0.54086,-0.10686 -0.92696,-0.24439c-1.23207,-0.27699 -2.84582,-1.16259 -2.84582,-1.16259c-13.67495,-7.50468 -23.05643,-9.13688 -29.45076,-8.94715c-0.74572,0.01042 -0.90875,0.42658 -1.10664,0.78716c-0.0563,0.10259 -0.1804,0.24665 -0.31077,0.39455c0.06594,-0.03445 0.18071,-0.02951 0.3802,0.04269c0.88143,0.31907 7.51578,4.96759 8.62657,4.99736c0.33384,0.00895 -1.18954,-0.85989 -1.02188,-0.96438c2.06163,-1.28442 14.66134,1.97604 20.5204,4.18863c1.51963,0.57386 3.16197,1.34431 4.76508,2.16415c-0.4674,-0.61096 0.9991,-0.3487 1.1879,-0.69272zM345.08948,435.72146c-0.28003,0.31722 -0.54216,0.6235 -0.18276,0.54954c0.24566,-0.05049 0.11361,-0.38312 0.18276,-0.54954zM340.64947,430.03091c6.63627,0.07314 14.8329,1.31737 26.00777,6.16926c1.24194,0.10559 3.30256,1.23643 3.30256,1.23643l1.79507,0.98511c4.06462,2.23063 6.43538,3.00926 10.80132,5.40524c6.06325,3.32745 5.59266,7.51733 1.87265,6.77845c-2.34744,-0.46627 -5.67047,-2.0202 -8.55714,-3.11031c-8.54462,-3.22676 -13.25871,-1.61128 -22.82755,-4.77153c-10.14176,-3.34947 -18.24811,-12.61097 -12.39466,-12.69266z" data-paper-data="{&quot;index&quot;:null}" fill="#000000"/><path d="M379.94769,444.85914c-0.05893,0.22034 -0.11095,0.45269 -0.17573,0.57073c-0.1888,0.34402 -1.64401,0.0961 -1.17664,0.70708c-1.60312,-0.81985 -3.25232,-1.59945 -4.77198,-2.17331c-5.85913,-2.21261 -18.50439,-5.51662 -20.56598,-4.23218c-0.16776,0.10444 1.13606,0.96912 0.80221,0.96017c-1.11077,-0.02978 -7.79891,-4.72525 -8.6804,-5.04433c-0.19955,-0.07222 -0.31358,-0.07641 -0.37949,-0.04191c0.13037,-0.14792 0.2491,-0.29795 0.3054,-0.40054c0.19788,-0.36057 0.34909,-0.79245 1.09483,-0.80284c6.3943,-0.18975 16.09371,1.53914 29.76862,9.0438c0,0 1.61988,0.89181 2.85193,1.16878c0.38612,0.13753 0.699,0.22182 0.92704,0.24445z" data-paper-data="{&quot;noHover&quot;:false,&quot;origItem&quot;:[&quot;Path&quot;,{&quot;applyMatrix&quot;:true,&quot;segments&quot;:[[[607.563,601.99816],[0.02649,0.38155],[-0.10299,0.15484]],[[607.10872,602.39727],[0.1976,-0.11227],[-0.59254,0.60273]],[[605.61718,603],[0,0],[-7.618,0]],[[590.90604,613.89443],[2.69308,-5.58508],[-0.31682,0.63364]],[[590.61718,616],[0,-0.70843],[0,0.20156]],[[590.57685,616.85325],[0.02106,-0.33136],[0.02013,-0.10671]],[[590.74964,616.60263],[-0.10238,0.05628],[0.45234,-0.24865]],[[595.61718,617],[-0.48256,0.87548],[0.14503,-0.26312]],[[594.95308,616.3906],[-0.04725,0.29671],[0.58086,-3.64773]],[[604.72276,605.71115],[-3.02833,1.51416],[0.78545,-0.39273]],[[607.27135,605.03032],[-0.87898,0.0905],[-0.34365,-0.53523]],[[607.61718,603],[0,0.6759],[0,-0.23192]]],&quot;closed&quot;:true}],&quot;index&quot;:null}" fill="#ffffff"/></g></g></g></svg>