<svg version="1.1" xmlns="http://www.w3.org/2000/svg" xmlns:xlink="http://www.w3.org/1999/xlink" width="862.28095" height="938.42793" viewBox="0,0,862.28095,938.42793"><g transform="translate(83.76773,-27.19137)"><g data-paper-data="{&quot;isPaintingLayer&quot;:true}" stroke-linejoin="miter" stroke-miterlimit="10" stroke-dasharray="" stroke-dashoffset="0" style="mix-blend-mode: normal"><path d="M266.63433,192.34696c5.78187,6.76594 10.62904,14.91209 15.17938,23.03531c0.84799,1.51389 0.94861,3.53407 1.34865,5.3335c0.38398,1.72703 1.3139,2.32292 1.94846,3.87097c1.18718,2.89603 1.32542,5.10482 2.87127,7.72539c1.7906,4.35 2.85069,8.93896 4.07931,13.44553c0.38085,1.39697 1.59149,2.19725 2.09566,3.52481c1.64663,4.33605 2.08399,9.94711 4.16135,14.1278c0.4127,0.83059 1.27837,1.24145 1.60839,2.1312c0.58105,1.56668 0.06267,3.59855 0.58333,5.20117c0.40607,1.24989 1.72167,2.15003 1.56417,3.5263c-0.50609,4.42252 -7.00594,6.41697 -9.65561,7.84096c-3.19171,2.19382 -6.08255,5.51782 -9.46278,7.22866c-1.18183,0.59817 -1.81393,-0.37981 -2.60878,1.01918c-0.4189,0.73731 -0.41888,1.81593 -0.97056,2.40707c-2.07955,2.2284 -5.49258,2.57128 -7.4767,5.40146c-1.49089,2.12656 -1.87723,4.21563 -3.9245,6.10816c-2.16573,2.00203 -6.97517,4.59601 -9.31311,1.60797c-0.70023,-0.89485 -1.31581,-7.19785 -1.53585,-8.55444c-0.4145,-3.69787 -1.32603,-7.6099 -1.54589,-11.30398c-0.04518,-0.7592 0.62772,-2.9183 0.31471,-3.88792c-0.25514,-0.7903 -1.02024,-1.25973 -1.13754,-2.108c-0.32313,-2.33664 0.8007,-2.97862 0.32772,-4.95813c-0.73416,-3.07252 -2.69913,-2.44766 -3.98051,-4.54924c-0.39417,-0.64641 0.12197,-1.77112 -0.20624,-2.47434c-0.35687,-0.76465 -1.4859,-0.75101 -1.69682,-1.60331c-0.56244,-2.27323 1.02971,-8.55372 1.37804,-10.843c0.87105,-5.72494 1.15644,-12.26081 1.36431,-18.08819c0.57497,-3.68077 0.55013,-9.28778 -0.15738,-12.82125c-0.16138,-0.80605 -1.00469,-1.20764 -1.11693,-2.03012c-1.01702,-7.45408 2.15327,-18.18162 3.30855,-25.85475c0.24015,-1.59507 0.5202,-6.74052 1.46486,-7.78281c2.16691,-2.39083 5.12774,-1.29811 7.46193,-0.94667c0.59254,0.08923 2.51822,0.37916 3.11077,0.46838c0,0 1.66651,0.25092 1.35316,2.33197c-0.11408,0.75787 -0.40761,1.20645 -0.73486,1.47049z" data-paper-data="{&quot;index&quot;:null}" fill="#059764" fill-rule="nonzero" stroke="#000000" stroke-width="1" stroke-linecap="butt"/><path d="M22.34574,297.62355l4.45814,321.39486l27.92334,31.16998l-106.50716,-8.54956l21.47068,-19.56534l25.39011,-350.44291z" data-paper-data="{&quot;index&quot;:null}" fill="#99d9ff" fill-rule="nonzero" stroke="#080000" stroke-width="1.5" stroke-linecap="round"/><path d="M26.2666,195.14629c-0.3211,-0.27148 -0.60427,-0.72668 -0.70094,-1.48696c-0.26553,-2.08769 1.40628,-2.30033 1.40628,-2.30033c0.59443,-0.0756 2.52628,-0.32129 3.12069,-0.39691c2.34163,-0.29782 5.32674,-1.32233 7.43825,1.11757c0.9205,1.0637 1.08247,6.2142 1.28597,7.81437c0.979,7.69761 3.90242,18.49503 2.71471,25.92383c-0.13107,0.8197 -0.98336,1.20184 -1.16319,2.00398c-0.78836,3.51633 -0.94178,9.12129 -0.45138,12.81427c0.07416,5.8306 0.20957,12.37132 0.9491,18.11471c0.29572,2.29668 1.74342,8.61202 1.12898,10.87176c-0.2304,0.84725 -1.35884,0.80772 -1.73315,1.56397c-0.34425,0.69552 0.14595,1.83175 -0.26294,2.46895c-1.32924,2.07164 -3.27936,1.40187 -4.08379,4.45675c-0.51827,1.96814 0.59055,2.63573 0.21391,4.96434c-0.13673,0.84535 -0.91241,1.2971 -1.1856,2.08135c-0.33517,0.96219 0.28802,3.13616 0.22547,3.89412c-0.30452,3.68807 -1.30553,7.57816 -1.80473,11.26555c-0.2511,1.35119 -1.01108,7.63841 -1.73165,8.51698c-2.40586,2.93365 -7.15453,0.23003 -9.27378,-1.82114c-2.00332,-1.93899 -2.34164,-4.03637 -3.78337,-6.19657c-1.91869,-2.87494 -5.32296,-3.29601 -7.35085,-5.57152c-0.53798,-0.60364 -0.51322,-1.68197 -0.91509,-2.42869c-0.76255,-1.41685 -1.41692,-0.45363 -2.58472,-1.07875c-3.34011,-1.78791 -6.15394,-5.17734 -9.29449,-7.44379c-2.61631,-1.48438 -9.0687,-3.62739 -9.47324,-8.06035c-0.1259,-1.37953 1.20999,-2.24925 1.64464,-3.48949c0.55729,-1.59025 0.08564,-3.63348 0.70246,-5.18643c0.35034,-0.88195 1.2252,-1.27286 1.65685,-2.09375c2.17269,-4.13194 2.73863,-9.73149 4.48427,-14.02863c0.53448,-1.31565 1.76315,-2.08796 2.17595,-3.47583c1.33164,-4.47722 2.49673,-9.04065 4.38662,-13.34843c1.60554,-2.58442 1.7944,-4.78946 3.04769,-7.6575c0.66989,-1.53308 1.61323,-2.10748 2.03673,-3.82526c0.4412,-1.78978 0.58812,-3.80713 1.47061,-5.30117c4.73546,-8.01672 9.76818,-16.04957 15.70371,-22.68111z" data-paper-data="{&quot;index&quot;:null}" fill="#059764" fill-rule="nonzero" stroke="#000000" stroke-width="1" stroke-linecap="butt"/><path d="M226.61697,841.65103l-13.4822,-86.6425l64.0405,0.76672l22.91974,85.87576z" data-paper-data="{&quot;index&quot;:null}" fill="#2a2543" fill-rule="nonzero" stroke="#000000" stroke-width="1" stroke-linecap="round"/><path d="M-21.57046,854.68572l22.91974,-85.87572l64.0405,-0.76674l-13.48221,86.6425z" data-paper-data="{&quot;index&quot;:null}" fill="#2a2543" fill-rule="nonzero" stroke="#000000" stroke-width="1" stroke-linecap="round"/><path d="M195.2293,650.0449l-10.7903,-69.34315l51.25394,0.61365l18.34351,68.7295z" data-paper-data="{&quot;index&quot;:null}" fill="#2a2543" fill-rule="nonzero" stroke="#000000" stroke-width="1" stroke-linecap="round"/><path d="M287.23513,827.71142c-1.38715,0.76009 -2.75087,1.19503 -4.10098,1.50861c0.00912,0.11675 0.01389,0.23859 0.01389,0.36562c0,3.09491 -2.82412,3.09491 -2.82412,3.09491c-12.47324,0 -24.94644,0 -37.41966,0c-3.20973,0 -11.19633,-1.40411 -13.56368,0.44702c-1.36363,1.06624 -2.33984,0.96075 -4.08713,1.10043c-0.19724,0.01578 -0.55593,0.04952 -0.87289,0.07028c1.68957,1.32185 0.87289,13.53741 0.87289,16.95184c0,14.44302 0,28.88602 0,43.32905c0,2.57909 0,5.15828 0,7.73732c0,1.03166 -0.4967,3.9713 0,3.09491c1.88975,-3.33407 5.57777,-1.54146 9.88445,-1.54746c8.48941,-0.01176 17.57827,-1.00665 25.91616,0.66704c15.2256,3.33712 31.59558,-1.99457 46.69968,1.72345c12.72111,3.48523 27.94895,3.7993 41.05519,3.7993c3.29484,0 6.58965,0 9.88445,0c0.49575,0 1.2741,-0.07316 2.07999,-0.15338c-0.81067,-1.58767 0.03811,-5.42704 0.03811,-7.584c0,-8.05781 2.46467,-21.95741 -0.56107,-29.19689c-2.67389,-8.79086 -4.36534,-17.25466 -8.727,-26.02176c-3.21821,-6.46871 -8.22797,-12.20265 -10.89064,-18.62827c-1.2909,-3.82963 -2.44652,-1.09262 -6.65036,-1.97892c-9.30207,-1.96117 -18.6316,-1.54746 -28.24127,-1.54746c-3.50279,0 -7.902,0.77939 -11.29653,0c-0.71655,-0.16452 -2.06322,-0.77611 -3.07259,-1.27698c1.84624,1.56312 -2.3666,3.07522 -4.13681,4.0452zM242.90412,826.49058c9.42688,0 18.85379,0 28.28065,0c0.27197,-0.14898 0.54382,-0.29801 0.81575,-0.44702c3.5819,-1.96271 6.81579,-1.44257 9.88445,-2.32123c4.182,-1.19737 6.68351,-5.22994 10.99836,-6.18986c2.47873,-0.5514 9.34398,1.22074 12.85762,1.22074c9.52744,0 19.04444,-0.59702 28.24127,1.54748c5.16642,1.20468 9.53262,-1.14387 11.94873,6.02391c0.35618,2.7228 3.20689,4.42462 4.69792,6.51914c2.27864,3.20099 4.18316,7.94165 5.94639,11.48574c4.37102,8.78589 6.29297,17.82258 9.03352,26.83256c2.44912,9.49724 0.85095,21.27428 0.85095,31.15429c0,5.46227 0.78555,9.31211 -2.82412,13.92722c-1.25877,1.60936 -12.88758,0 -14.82667,0c-13.51852,0 -29.31398,-0.39207 -42.42513,-3.98415c-14.40377,-4.61389 -31.54931,1.60431 -46.43751,-1.65882c-11.9975,-2.96147 -30.51605,4.92765 -40.34111,-5.18927c-0.97272,-1.00164 0,-9.18304 0,-10.83226c0,-14.44302 0,-28.886 0,-43.32901c0,-4.82883 -1.94237,-16.35793 1.00419,-19.95375c5.14201,-6.27507 14.76528,-4.80573 22.2948,-4.80573z" data-paper-data="{&quot;index&quot;:null}" fill="#000000" fill-rule="nonzero" stroke="none" stroke-width="1" stroke-linecap="butt"/><path d="M283.09476,829.07127c1.35005,-0.31357 2.73024,-0.75259 4.11746,-1.5127c1.77023,-0.96996 5.9998,-2.4839 4.15351,-4.04704c1.00938,0.50086 2.36725,1.11238 3.08378,1.27694c3.39452,0.77939 7.83313,0.00774 11.33584,0.00774c9.6096,0 18.99971,-0.37033 28.30175,1.59082c4.20386,0.88632 5.36828,-1.83894 6.65911,1.99067c2.66275,6.42562 7.69364,12.20566 10.91187,18.67438c4.3617,8.7671 6.05894,17.28966 8.7328,26.08053c3.02583,7.23948 0.54786,21.19265 0.54786,29.25044c0,2.15693 -0.85405,6.00727 -0.04335,7.59496c-0.80587,0.08021 -1.58528,0.15535 -2.08107,0.15535c-3.29483,0 -6.5954,0.00969 -9.89021,0.00969c-13.10638,0 -28.39599,-0.26019 -41.11712,-3.74544c-15.1041,-3.71798 -31.62369,1.58367 -46.84932,-1.75346c-8.3379,-1.67376 -17.45244,-0.71416 -25.94187,-0.70237c-4.30663,0.00598 -7.99803,-1.79327 -9.88777,1.54082c-0.4967,0.87632 -0.00211,-2.06793 -0.00211,-3.09959c0,-2.57909 -0.00484,-5.17077 -0.00484,-7.74986c0,-14.44302 -0.00589,-28.97194 -0.00589,-43.41494c0,-3.4144 0.82529,-15.65962 -0.86434,-16.98145c0.31698,-0.02074 0.67598,-0.05529 0.8732,-0.07107c1.74722,-0.13967 2.72568,-0.03934 4.08927,-1.10557c2.36731,-1.85107 10.36122,-0.46137 13.57092,-0.46137c12.47328,0 25.01299,-0.06153 37.4862,-0.06153c0,0 2.83799,-0.00529 2.83799,-3.1002c0,-0.12707 -0.00441,-0.24891 -0.01355,-0.3657z" data-paper-data="{&quot;noHover&quot;:false,&quot;origItem&quot;:[&quot;Path&quot;,{&quot;applyMatrix&quot;:true,&quot;segments&quot;:[[[579.60736,595.76373],[0.95609,-0.20262],[0.00646,0.07548]],[[579.61718,596],[0,-0.08208],[0,2]],[[577.61718,598],[0,0],[-8.83333,0]],[[551.11718,598],[8.83333,0],[-2.27308,0]],[[541.51161,598.28885],[1.67648,-1.19621],[-0.96568,0.68904]],[[538.61718,599],[1.23739,-0.09027],[-0.13966,0.01019]],[[537.99901,599.04541],[0.22447,-0.0134],[1.19653,0.85421]],[[538.61718,610],[0,-2.20646],[0,9.33333]],[[538.61718,638],[0,-9.33333],[0,1.66667]],[[538.61718,643],[0,-1.66667],[0,0.66667]],[[538.61718,645],[-0.35177,0.56631],[1.33831,-2.15456]],[[545.61718,644],[-3.04994,0.00386],[6.01206,-0.00761]],[[563.97058,644.43107],[-5.90478,-1.08158],[10.78253,2.15651]],[[597.04254,645.54479],[-10.6965,-2.40266],[9.00888,2.25222]],[[626.11718,648],[-9.28168,0],[2.33333,0]],[[633.11718,648],[-2.33333,0],[0.35109,0]],[[634.59021,647.90091],[-0.5707,0.05184],[-0.57412,-1.02596]],[[634.61718,643],[0,1.39387],[0,-5.20707]],[[634.21982,624.13246],[2.14282,4.67827],[-1.8936,-5.6808]],[[628.03948,607.31672],[3.08887,5.66543],[-2.2791,-4.1802]],[[620.32688,595.27881],[1.8857,4.15235],[-0.91417,-2.47477]],[[615.61718,594],[2.9771,0.57275],[-6.58756,-1.26734]],[[595.61718,593],[6.8054,0],[-2.48058,0]],[[587.61718,593],[2.40395,0.50364],[-0.50743,-0.10631]],[[585.44122,592.1748],[0.71481,0.32365],[1.30749,1.01011]],[[582.51161,594.78885],[1.25365,-0.62682],[-0.98239,0.4912]]],&quot;closed&quot;:true}],&quot;index&quot;:null}" fill="#403d40" fill-rule="nonzero" stroke="none" stroke-width="1" stroke-linecap="butt"/><path d="M294.36231,659.1477c0,-0.35891 -0.03912,-0.95989 -0.0765,-1.55029c-0.14544,0.23959 -0.36246,0.44387 -0.64149,0.61762c-0.83676,0.93266 -2.10615,0.93269 -2.10615,0.93269c-10.75713,0 -16.97026,8.21602 -20.77304,16.85878c-0.44738,0.98055 -0.40784,2.16198 -0.40784,3.25828c0,0.31191 -0.0272,0.80759 -0.05697,1.32036c0.02845,-0.16508 0.09942,-0.30074 0.24399,-0.38779c0.63874,-0.38474 6.19182,1.96975 6.87322,0.61494c0.20479,-0.40718 -1.00444,-0.48387 -0.93775,-0.94301c0.82024,-5.64473 9.51922,-14.18294 13.79542,-16.52607c1.10907,-0.60773 2.35759,-0.91353 3.59874,-1.05356c-0.48527,-0.82821 0.48832,-2.09586 0.48832,-3.14182zM270.28536,680.84125c-0.06402,1.10028 -0.12088,2.15205 0.07183,1.51838c0.13176,-0.43299 -0.05844,-1.04089 -0.07183,-1.51838zM265.71322,673.23831c4.03626,-8.33878 9.40439,-15.94198 17.76994,-18.9346c0.78582,-1.34579 2.40681,-1.34579 2.40681,-1.34579h1.41203c3.19735,0 4.88894,-1.22074 8.32332,-1.22074c4.76951,0 5.87512,10.39337 3.38102,13.43708c-1.57385,1.92065 -4.09836,2.55087 -6.20519,3.70531c-6.23627,3.41714 -8.55024,13.23669 -15.38361,18.12259c-7.24251,5.17836 -15.21598,-6.06713 -11.70435,-13.76383z" data-paper-data="{&quot;index&quot;:null}" fill="#000000" fill-rule="nonzero" stroke="none" stroke-width="1" stroke-linecap="butt"/><path d="M294.39068,657.49365c0.03748,0.5904 0.08312,1.20003 0.08312,1.5589c0,1.04594 -0.962,2.33271 -0.47675,3.16097c-1.24119,0.14005 -2.49684,0.43321 -3.60598,1.04097c-4.27625,2.34311 -13.01717,10.83797 -13.83739,16.48274c-0.06677,0.45918 1.00835,0.8077 0.80353,1.21486c-0.68142,1.35481 -6.2826,-1.04038 -6.92138,-0.65567c-0.1446,0.08713 -0.21493,0.22356 -0.24333,0.38872c0.02975,-0.51279 0.05175,-1.01564 0.05175,-1.32752c0,-1.09623 -0.05185,-2.29919 0.39554,-3.27976c3.80276,-8.64276 10.24018,-17.04054 20.99725,-17.04054c0,0 1.27518,0.00662 2.11193,-0.92606c0.27906,-0.17375 0.49615,-0.37796 0.64156,-0.61756z" data-paper-data="{&quot;noHover&quot;:false,&quot;origItem&quot;:[&quot;Path&quot;,{&quot;applyMatrix&quot;:true,&quot;segments&quot;:[[[607.563,601.99816],[0.02649,0.38155],[-0.10299,0.15484]],[[607.10872,602.39727],[0.1976,-0.11227],[-0.59254,0.60273]],[[605.61718,603],[0,0],[-7.618,0]],[[590.90604,613.89443],[2.69308,-5.58508],[-0.31682,0.63364]],[[590.61718,616],[0,-0.70843],[0,0.20156]],[[590.57685,616.85325],[0.02106,-0.33136],[0.02013,-0.10671]],[[590.74964,616.60263],[-0.10238,0.05628],[0.45234,-0.24865]],[[595.61718,617],[-0.48256,0.87548],[0.14503,-0.26312]],[[594.95308,616.3906],[-0.04725,0.29671],[0.58086,-3.64773]],[[604.72276,605.71115],[-3.02833,1.51416],[0.78545,-0.39273]],[[607.27135,605.03032],[-0.87898,0.0905],[-0.34365,-0.53523]],[[607.61718,603],[0,0.6759],[0,-0.23192]]],&quot;closed&quot;:true}],&quot;index&quot;:null}" fill="#ffffff" fill-rule="nonzero" stroke="none" stroke-width="1" stroke-linecap="butt"/><path d="M-3.40414,660.47704l18.34351,-68.72946l51.25394,-0.61365l-10.7903,69.34314z" data-paper-data="{&quot;index&quot;:null}" fill="#2a2543" fill-rule="nonzero" stroke="#000000" stroke-width="1" stroke-linecap="round"/><path d="M-4.03083,840.97584c-1.77022,-0.96997 -5.98304,-2.48205 -4.13681,-4.0452c-1.00938,0.50089 -2.35608,1.11247 -3.07259,1.27696c-3.39452,0.77939 -7.79374,0 -11.29653,0c-9.60965,0 -18.93916,-0.41372 -28.24127,1.54746c-4.20386,0.88632 -5.3595,-1.85069 -6.65041,1.97892c-2.66272,6.42562 -7.67248,12.15954 -10.89064,18.62827c-4.3617,8.7671 -6.05313,17.23091 -8.727,26.02176c-3.02576,7.23944 -0.56107,21.13907 -0.56107,29.19685c0,2.15693 0.84878,5.99633 0.03811,7.584c0.80588,0.08021 1.58427,0.15338 2.07999,0.15338c3.29483,0 6.58964,0 9.88445,0c13.1063,0 28.33412,-0.3141 41.05519,-3.7993c15.1041,-3.71804 31.47406,1.61367 46.69968,-1.72348c8.3379,-1.67371 17.42674,-0.67883 25.91614,-0.66706c4.30669,0.00598 7.99468,-1.78664 9.88445,1.54748c0.4967,0.87634 0,-2.06329 0,-3.09491c0,-2.57909 0,-5.15823 0,-7.73732c0,-14.44302 0,-28.88602 0,-43.32905c0,-3.4144 -0.81669,-15.63001 0.87289,-16.95184c-0.31698,-0.02074 -0.67566,-0.05449 -0.87289,-0.07027c-1.74731,-0.1397 -2.72352,-0.03418 -4.08713,-1.10043c-2.36731,-1.85108 -10.35398,-0.44702 -13.56368,-0.44702c-12.47321,0 -24.94641,0 -37.41966,0c0,0 -2.82412,0 -2.82412,-3.09491c0,-0.12707 0.00473,-0.24886 0.01389,-0.36562c-1.35007,-0.31357 -2.71381,-0.7485 -4.10098,-1.50861zM40.3001,839.75512c7.52949,0 17.15279,-1.46932 22.2948,4.80573c2.9466,3.59584 1.00419,15.12491 1.00419,19.95375c0,14.44302 0,28.88602 0,43.32905c0,1.64923 0.97272,9.8306 0,10.83226c-9.82503,10.11693 -28.3436,2.22773 -40.34111,5.18927c-14.88816,3.26313 -32.03372,-2.95508 -46.4375,1.65884c-13.11115,3.5921 -28.90659,3.98415 -42.42513,3.98415c-1.93911,0 -13.56793,1.60936 -14.82667,0c-3.60968,-4.61511 -2.82412,-8.46494 -2.82412,-13.92722c0,-9.88001 -1.59818,-21.65701 0.85098,-31.15425c2.74057,-9.00996 4.66246,-18.04665 9.03352,-26.83256c1.76323,-3.54409 3.66779,-8.28476 5.94639,-11.48574c1.49104,-2.09455 4.34176,-3.79636 4.69792,-6.51918c2.4161,-7.16778 6.7823,-4.81919 11.94873,-6.02391c9.19684,-2.14447 18.71386,-1.54748 28.24127,-1.54748c3.51366,0 10.37893,-1.77213 12.85762,-1.22074c4.31487,0.95989 6.81635,4.99247 10.99836,6.18986c3.06869,0.87866 6.30256,0.35852 9.88445,2.32123c0.27193,0.14898 0.54382,0.29801 0.81579,0.44702c9.42685,0 18.85375,0 28.28062,0z" data-paper-data="{&quot;index&quot;:null}" fill="#000000" fill-rule="nonzero" stroke="none" stroke-width="1" stroke-linecap="butt"/><path d="M0.10941,842.3357c-0.00914,0.11684 -0.01355,0.23867 -0.01355,0.3657c0,3.09491 2.83799,3.1002 2.83799,3.1002c12.47321,0 25.01289,0.06153 37.4862,0.06153c3.2097,0 11.20361,-1.38969 13.57092,0.46137c1.36359,1.06624 2.34203,0.9659 4.08927,1.10557c0.19724,0.01578 0.55622,0.05032 0.8732,0.07108c-1.6896,1.32185 -0.86434,13.56706 -0.86434,16.98145c0,14.44302 -0.00589,28.97194 -0.00589,43.41494c0,2.57909 -0.00484,5.17077 -0.00484,7.74986c0,1.03166 0.49458,3.97591 -0.00211,3.09959c-1.88975,-3.33407 -5.58109,-1.53481 -9.88777,-1.54082c-8.48941,-0.01176 -17.60397,-0.97137 -25.94187,0.70237c-15.22562,3.33712 -31.74522,-1.96455 -46.84932,1.75346c-12.72111,3.48524 -28.01072,3.74544 -41.11712,3.74544c-3.29483,0 -6.59536,-0.00969 -9.89021,-0.00969c-0.49578,0 -1.27523,-0.07513 -2.08107,-0.15535c0.81067,-1.58767 -0.04335,-5.43799 -0.04335,-7.59496c0,-8.05781 -2.47798,-22.01099 0.54786,-29.25044c2.67389,-8.79086 4.37113,-17.31341 8.7328,-26.08049c3.21824,-6.46871 8.24915,-12.2488 10.91187,-18.67438c1.2909,-3.82963 2.45531,-1.10435 6.65916,-1.99065c9.30205,-1.96117 18.69215,-1.59084 28.30175,-1.59084c3.50271,0 7.94132,0.77166 11.33584,-0.00773c0.7165,-0.16455 2.07438,-0.77608 3.08378,-1.27694c-1.84629,1.56312 2.38329,3.07707 4.15351,4.04704c1.38724,0.76009 2.76743,1.19912 4.11746,1.5127z" data-paper-data="{&quot;noHover&quot;:false,&quot;origItem&quot;:[&quot;Path&quot;,{&quot;applyMatrix&quot;:true,&quot;segments&quot;:[[[579.60736,595.76373],[0.95609,-0.20262],[0.00646,0.07548]],[[579.61718,596],[0,-0.08208],[0,2]],[[577.61718,598],[0,0],[-8.83333,0]],[[551.11718,598],[8.83333,0],[-2.27308,0]],[[541.51161,598.28885],[1.67648,-1.19621],[-0.96568,0.68904]],[[538.61718,599],[1.23739,-0.09027],[-0.13966,0.01019]],[[537.99901,599.04541],[0.22447,-0.0134],[1.19653,0.85421]],[[538.61718,610],[0,-2.20646],[0,9.33333]],[[538.61718,638],[0,-9.33333],[0,1.66667]],[[538.61718,643],[0,-1.66667],[0,0.66667]],[[538.61718,645],[-0.35177,0.56631],[1.33831,-2.15456]],[[545.61718,644],[-3.04994,0.00386],[6.01206,-0.00761]],[[563.97058,644.43107],[-5.90478,-1.08158],[10.78253,2.15651]],[[597.04254,645.54479],[-10.6965,-2.40266],[9.00888,2.25222]],[[626.11718,648],[-9.28168,0],[2.33333,0]],[[633.11718,648],[-2.33333,0],[0.35109,0]],[[634.59021,647.90091],[-0.5707,0.05184],[-0.57412,-1.02596]],[[634.61718,643],[0,1.39387],[0,-5.20707]],[[634.21982,624.13246],[2.14282,4.67827],[-1.8936,-5.6808]],[[628.03948,607.31672],[3.08887,5.66543],[-2.2791,-4.1802]],[[620.32688,595.27881],[1.8857,4.15235],[-0.91417,-2.47477]],[[615.61718,594],[2.9771,0.57275],[-6.58756,-1.26734]],[[595.61718,593],[6.8054,0],[-2.48058,0]],[[587.61718,593],[2.40395,0.50364],[-0.50743,-0.10631]],[[585.44122,592.1748],[0.71481,0.32365],[1.30749,1.01011]],[[582.51161,594.78885],[1.25365,-0.62682],[-0.98239,0.4912]]],&quot;closed&quot;:true}],&quot;index&quot;:null}" fill="#403d40" fill-rule="nonzero" stroke="none" stroke-width="1" stroke-linecap="butt"/><path d="M-39.48143,853.68235c0,1.04594 0.97358,2.31364 0.48832,3.14182c1.24117,0.14005 2.48966,0.4458 3.59878,1.05356c4.2762,2.34314 12.97517,10.88132 13.79539,16.52607c0.0667,0.45914 -1.14252,0.53588 -0.93775,0.94305c0.68142,1.35481 6.2345,-0.99968 6.87322,-0.61494c0.14456,0.0871 0.21557,0.22275 0.24401,0.38779c-0.02975,-0.51278 -0.05697,-1.00849 -0.05697,-1.32038c0,-1.09629 0.03951,-2.27773 -0.40784,-3.25828c-3.80279,-8.64271 -10.01594,-16.85878 -20.77306,-16.85878c0,0 -1.26942,-0.00001 -2.10615,-0.93269c-0.27906,-0.17375 -0.49605,-0.37802 -0.64149,-0.6176c-0.03738,0.5904 -0.0765,1.1914 -0.0765,1.55029zM-15.47637,876.89426c0.19276,0.63366 0.1359,-0.41811 0.07183,-1.51838c-0.0134,0.47751 -0.2036,1.08539 -0.07183,1.51838zM-10.83231,867.77286c3.51162,7.6967 -4.46186,18.94221 -11.70437,13.76383c-6.83338,-4.88588 -9.14735,-14.70543 -15.38361,-18.12257c-2.10682,-1.15444 -4.63131,-1.78465 -6.20519,-3.70531c-2.49409,-3.04371 -1.3885,-13.4371 3.38102,-13.4371c3.4344,0 5.12598,1.22074 8.32332,1.22074h1.41203c0,0 1.62096,0 2.40681,1.34579c8.36557,2.9926 13.7337,10.59581 17.76994,18.9346z" data-paper-data="{&quot;index&quot;:null}" fill="#000000" fill-rule="nonzero" stroke="none" stroke-width="1" stroke-linecap="butt"/><path d="M-39.50979,852.02823c0.14537,0.23959 0.36251,0.44382 0.64156,0.61757c0.83676,0.93266 2.11193,0.92606 2.11193,0.92606c10.75713,0 17.19455,8.39779 20.99725,17.04051c0.4474,0.98055 0.39554,2.18353 0.39554,3.27977c0,0.31191 0.02201,0.81473 0.05175,1.32752c-0.02839,-0.16514 -0.09872,-0.30159 -0.24333,-0.3887c-0.63874,-0.38474 -6.23997,2.01045 -6.92138,0.65567c-0.2048,-0.40718 0.87032,-0.75568 0.80353,-1.21485c-0.8202,-5.64473 -9.56114,-14.13961 -13.83739,-16.48275c-1.10912,-0.60773 -2.36478,-0.90091 -3.60598,-1.04096c0.48527,-0.82827 -0.47675,-2.11505 -0.47675,-3.16097c0,-0.35889 0.04563,-0.96847 0.08312,-1.5589z" data-paper-data="{&quot;noHover&quot;:false,&quot;origItem&quot;:[&quot;Path&quot;,{&quot;applyMatrix&quot;:true,&quot;segments&quot;:[[[607.563,601.99816],[0.02649,0.38155],[-0.10299,0.15484]],[[607.10872,602.39727],[0.1976,-0.11227],[-0.59254,0.60273]],[[605.61718,603],[0,0],[-7.618,0]],[[590.90604,613.89443],[2.69308,-5.58508],[-0.31682,0.63364]],[[590.61718,616],[0,-0.70843],[0,0.20156]],[[590.57685,616.85325],[0.02106,-0.33136],[0.02013,-0.10671]],[[590.74964,616.60263],[-0.10238,0.05628],[0.45234,-0.24865]],[[595.61718,617],[-0.48256,0.87548],[0.14503,-0.26312]],[[594.95308,616.3906],[-0.04725,0.29671],[0.58086,-3.64773]],[[604.72276,605.71115],[-3.02833,1.51416],[0.78545,-0.39273]],[[607.27135,605.03032],[-0.87898,0.0905],[-0.34365,-0.53523]],[[607.61718,603],[0,0.6759],[0,-0.23192]]],&quot;closed&quot;:true}],&quot;index&quot;:null}" fill="#ffffff" fill-rule="nonzero" stroke="none" stroke-width="1" stroke-linecap="butt"/><path d="M23.2579,313.78471v-9.76856l253.46564,-1.62812l39.09842,491.68444l-125.38459,1.62808l-28.82502,-344.95711l-14.77609,-17.45699l-13.67109,11.36177l-9.76099,23.20209l-31.38692,331.1064l-132.12571,4.88429z" data-paper-data="{&quot;index&quot;:null}" fill="#059764" fill-rule="nonzero" stroke="#080000" stroke-width="1" stroke-linecap="round"/><path d="M10.28126,455.37757l53.92884,7.66745l-8.08934,47.53834l-37.75019,52.13886l-25.61617,3.067" data-paper-data="{&quot;index&quot;:null}" fill="none" fill-rule="nonzero" stroke="#000000" stroke-width="1" stroke-linecap="round"/><path d="M301.49704,561.18878l-25.61617,-3.067l-37.7502,-52.13886l-8.08934,-47.53834l53.92884,-7.66745" data-paper-data="{&quot;index&quot;:null}" fill="none" fill-rule="nonzero" stroke="#000000" stroke-width="1" stroke-linecap="round"/><path d="" fill="#000000" fill-rule="nonzero" stroke="none" stroke-width="0.5" stroke-linecap="butt"/><path d="M159.53527,319.7264c0,1.09944 0,2.19888 0,3.29831c-2.19888,0 -4.39775,0 -6.59664,0c-43.1222,-0.9895 -86.2444,-1.9669 -129.36733,-2.93185c0,-8.18459 0,-16.36955 0,-24.55414c45.07041,1.35634 90.14741,2.45578 135.23101,3.29832c0.30051,6.96054 0.54605,13.92366 0.73295,20.88934z" fill="#059764" fill-rule="evenodd" stroke="none" stroke-width="1" stroke-linecap="butt"/><path d="M158.43583,292.60689c0.36282,1.76093 0.48375,3.59333 0.36649,5.49721c-1.53922,0.11617 -3.00513,-0.00623 -4.39776,-0.36649c1.34498,0 2.68629,0 4.03128,0c0,-1.71036 0,-3.42036 0,-5.13072z" fill="#868686" fill-rule="evenodd" stroke="none" stroke-width="1" stroke-linecap="butt"/><path d="M258.85127,301.76889c5.60714,0.52736 11.22528,0.77144 16.85807,0.73295c0,9.03996 0,18.07955 0,27.1195c-6.23016,0 -12.46031,0 -18.69048,0c-0.30417,-8.43197 -0.67067,-16.861 -1.09944,-25.2871c0,-0.85499 0,-1.71036 0,-2.56535c0.97849,0 1.95333,0 2.93185,0z" fill="#059764" fill-rule="evenodd" stroke="none" stroke-width="1" stroke-linecap="butt"/><path d="M258.85127,301.76889c-0.97849,0 -1.95333,0 -2.93185,0c0,0.85499 0,1.71036 0,2.56535c-0.35548,-0.89714 -0.48009,-1.87453 -0.36649,-2.93184c1.1764,-0.11361 2.27585,0.00843 3.29832,0.36649z" fill="#6d6d6d" fill-rule="evenodd" stroke="none" stroke-width="1" stroke-linecap="butt"/><path d="M159.53527,319.7264c0.35915,1.14525 0.48009,2.36672 0.36649,3.6648c-2.38945,0.11837 -4.71292,-0.00366 -6.96311,-0.36649c2.19888,0 4.39775,0 6.59664,0c0,-1.09944 0,-2.19888 0,-3.29831z" fill="#7f7f7f" fill-rule="evenodd" stroke="none" stroke-width="1" stroke-linecap="butt"/><path d="M100.84019,52.27613l45.94377,45.13458l5.57439,5.93403l135.85328,-22.83702l0.53945,6.11384l-7.91204,31.64815l-9.53041,37.58217l-6.74321,26.25358l2.78719,39.20056l0.89909,10.78914l1.70829,23.19666l0.44955,0.89909v0.35964l-0.35964,0.53946l2.78719,35.24453h3.14684l0.17982,0.17982l0.71928,8.4515l0.17982,0.71927l-0.17982,0.80919l1.7982,21.12873l-0.35964,0.17982l-24.99485,-1.7982l0.89909,14.2057l-34.52525,-3.05693l-0.53946,-0.989l-72.10743,-5.93403l-1.07892,0.80918h-1.43856l-23.37647,-2.15783l-0.35964,-12.2277l-96.02336,-6.74321l-1.43856,-0.44955l-0.35963,-0.35964l2.51746,-47.02268l-0.35963,-1.52846v-0.35964h0.53945l0.17982,-6.6533v-0.35964l0.71928,-12.04787l0.89909,-17.08281l1.97801,-40.6391l2.06792,-40.81892l-20.04983,-10.69924l-1.25873,-1.43856l0.62936,-5.48448l11.05887,-16.18371l21.39845,-31.10868l31.91788,-46.21349h0.35964l25.26457,24.81502z" fill="#5cc2ff" fill-rule="evenodd" stroke="none" stroke-width="1" stroke-linecap="butt" opacity="0.978"/><path d="M75.4857,28.00056l70.93861,69.58997l1.61837,2.51747l0.17982,5.93403l-1.43856,-2.15784l-71.47807,-71.56798l-0.62936,0.35963l-63.83576,93.50591l0.17982,-4.13583l0.35965,-0.8991l64.10549,-93.14626z" fill="#5cc2ff" fill-rule="evenodd" stroke="none" stroke-width="1" stroke-linecap="butt" opacity="0.999"/><path d="M75.30588,32.67585l68.35436,69.21206l-0.42529,1.5599l-2.14788,-0.66797l-54.09294,-55.62856l-0.35964,-0.08991l-1.16882,1.25873l-52.86679,76.60291l-0.35964,2.15783l-0.71927,10.96896l-20.58928,-11.05887l64.37522,-94.31509z" fill="#5cc2ff" fill-rule="evenodd" stroke="none" stroke-width="1" stroke-linecap="butt"/><path d="M86.81431,47.42103l55.44874,56.4863l3.5936,38.88299l-38.09344,49.9245l0.08991,8.27167l0.53946,0.44954l12.58733,4.58538v13.30661l-93.14626,3.59638l4.94502,-97.28211l54.03563,-78.22129z" fill="#7af4ff" fill-rule="evenodd" stroke="none" stroke-width="1" stroke-linecap="butt"/><path d="M101.37965,51.91649l-0.0899,0.35964h-0.44954l-25.26457,-24.81502h-0.35964l-31.91788,46.21349l-0.35963,-0.08991l0.17982,-0.44955l0.17982,-0.89909l2.69729,-3.95602l0.53945,-0.35964l1.43855,-2.51747l0.8991,-0.71928l0.98901,-1.978l0.989,-0.89909l0.89909,-1.79819l0.53945,-0.17982l1.16882,-2.51747l2.15783,-3.05693l1.70829,-2.51747l2.33765,-3.23674l0.53945,-0.17982l2.15783,-3.23674l0.80918,-1.7982l0.62938,-0.17982l1.34864,-2.69728l0.80919,-0.53945l0.26972,-1.07891l1.79819,-2.15784l0.17982,-0.71927l3.32665,-4.31566l1.70829,-2.33765l0.71927,-1.61836l2.60738,-0.44955l2.24774,2.60738l1.88811,1.978l2.51747,1.8881l5.03493,5.30467l0.71928,0.26973l3.05693,3.14684l0.17982,0.71927l1.79819,1.61837l1.61837,1.61836l5.75421,5.57439z" fill="#549bff" fill-rule="evenodd" stroke="none" stroke-width="1" stroke-linecap="butt" opacity="0.254"/><path d="M117.74317,67.74057l-0.35963,-0.35964z" fill="#00fffe" fill-rule="evenodd" stroke="none" stroke-width="1" stroke-linecap="butt" opacity="0.004"/><path d="M119.00192,68.9993l0.35963,0.53946z" fill="#00fffe" fill-rule="evenodd" stroke="none" stroke-width="1" stroke-linecap="butt" opacity="0.004"/><path d="M43.11828,73.13514l-0.17982,0.44955l0.35963,0.08991l-21.39845,31.10869v-0.26973l-0.35964,-0.26972l1.25873,-2.33765l1.07892,-0.53945l1.07891,-2.51747l0.89909,-0.35964l0.71928,-1.97801l2.33765,-3.23674l0.71927,-0.35963l0.08991,-0.89909l0.80919,-1.07892l0.35963,-0.53945l0.80919,-1.25873l2.78719,-4.13584l0.71927,-0.35964l1.43856,-2.69727l0.53945,-0.17982l1.8881,-3.05692l1.7982,-2.51747l1.07892,-2.15783l1.16882,-0.89909z" fill="#5cc2ff" fill-rule="evenodd" stroke="none" stroke-width="1" stroke-linecap="butt" opacity="0.371"/><path d="M30.53095,90.93723l0.35963,-0.53945z" fill="#32e2ff" fill-rule="evenodd" stroke="none" stroke-width="1" stroke-linecap="butt" opacity="0.016"/><path d="M133.38744,91.11705l13.03688,12.94698l5.93403,9.17077l-12.04788,-12.2277l-6.92303,-9.89004z" fill="#5cc2ff" fill-rule="evenodd" stroke="none" stroke-width="1" stroke-linecap="butt"/><path d="M133.33891,95.0874l6.61194,6.09951l14.47544,14.29561l-0.08991,-0.80918l1.16882,0.989l6.83313,6.83312l-27.96186,36.05372l-1.62553,-63.16781z" fill="#7af4ff" fill-rule="evenodd" stroke="none" stroke-width="1" stroke-linecap="butt"/><path d="M256.7433,99.56854h0.71928l8.81113,114.18509l-20.13973,0.71928l-0.62937,-12.58734l3.59639,3.41656l0.17982,-22.6572l-76.87264,-69.8597l84.33514,-13.2167z" fill="#7af4ff" fill-rule="evenodd" stroke="none" stroke-width="1" stroke-linecap="butt"/><path d="M148.49223,100.64747l17.80209,16.81309l-2.15783,2.78719l-15.37453,-14.56534z" fill="#5cc2ff" fill-rule="evenodd" stroke="none" stroke-width="1" stroke-linecap="butt" opacity="0.999"/><path d="M101.37965,51.91649l3.23675,3.05693l0.71928,0.17982l1.25873,1.52846l2.60738,2.60738l0.0899,0.53945l0.89909,0.44955l5.03493,5.30467l0.53945,0.17982l1.07891,0.89909v0.71928h0.53946l0.35963,0.35964l1.25873,1.25873l0.35963,0.53945l1.61837,1.70828l2.33765,1.79819l7.01295,7.37259l2.33764,1.88811l3.50647,3.7762l1.70829,1.7982l1.61836,1.61837l1.978,1.79819l1.61837,1.61837l0.8991,0.71928l0.71927,0.89909l4.31566,5.21475l1.79819,1.7982l1.07892,0.80919l1.16882,0.08991l9.4405,-1.16882l0.35964,-0.35964l8.63132,-1.25873l2.15783,-0.71928l7.73221,-0.8991l2.51747,-0.89909l7.01294,-0.80919l2.33765,-0.80918l8.27167,-0.98901l1.43856,-0.35964l0.17982,-0.26973l9.35059,-0.98901v-0.71928l9.53041,-0.89909v-0.71927l2.51746,-0.08991l2.15784,-0.53946l5.03493,-0.62936l0.17982,-0.26973l2.51747,-0.17982l2.15783,-0.53945l5.03493,-0.44955v-0.53946l2.69729,-0.0899l6.83312,-1.16882l0.17982,-0.26974l9.35059,-1.16882v-0.53945l2.51747,-0.08991l5.21475,-0.80919l2.8771,-0.80918l6.65332,-0.80919l1.978,-0.35964l0.71928,-0.44955l3.23675,-0.53946l4.49547,0.08991l0.44954,0.35964l0.17982,7.91203l-0.44955,0.35964l-1.52846,7.37258l-0.44955,0.35964l-1.52845,7.19275l-0.44955,0.35964l-1.16882,6.47348l-0.26973,0.17982l-0.35964,0.71927l-1.07892,5.39456l-0.53945,1.25873h-0.35964l7.91204,-31.64815l-0.53945,-6.11385l-135.85328,22.83702l-5.57439,-5.93403l-45.94377,-45.13458h0.44954l0.0899,-0.35964z" fill="#5cc2ff" fill-rule="evenodd" stroke="none" stroke-width="1" stroke-linecap="butt" opacity="0.324"/><path d="M201.53885,94.53361l1.43856,-0.35964z" fill="#00fffe" fill-rule="evenodd" stroke="none" stroke-width="1" stroke-linecap="butt" opacity="0.004"/><path d="M143.99675,93.63452l0.71928,0.89909z" fill="#33e1ff" fill-rule="evenodd" stroke="none" stroke-width="1" stroke-linecap="butt" opacity="0.016"/><path d="M149.93079,107.30077l13.75615,13.12678l-0.80918,1.52846h-0.35964l-8.18177,-7.82212z" fill="#5cc2ff" fill-rule="evenodd" stroke="none" stroke-width="1" stroke-linecap="butt"/><path d="M282.81706,111.61642l0.35964,-0.71927z" fill="#00fffe" fill-rule="evenodd" stroke="none" stroke-width="1" stroke-linecap="butt" opacity="0.004"/><path d="M168.81179,113.23479l0.71927,0.0899l-2.96701,3.86611l-3.14683,-2.96702z" fill="#7af4ff" fill-rule="evenodd" stroke="none" stroke-width="1" stroke-linecap="butt"/><path d="M175.10545,126.00194l68.96059,64.73486l0.44955,5.21476l-123.17604,7.01295l0.08991,-7.37258l53.67599,-69.58997z" fill="#059764" fill-rule="evenodd" stroke="none" stroke-width="1" stroke-linecap="butt"/><path d="M280.83905,118.26973h0.35964l-1.34865,6.29367l-0.98901,2.51747l-1.34865,6.83313l-0.62937,0.17982l-0.26973,2.8771l-0.71928,3.23675l-1.25873,4.85512l-0.98901,3.59638l-0.35964,0.71927l-1.25873,6.29367l-0.71928,0.17982l9.53041,-37.58217z" fill="#68afff" fill-rule="evenodd" stroke="none" stroke-width="1" stroke-linecap="butt" opacity="0.167"/><path d="M273.64628,148.65914l-0.35964,0.71927z" fill="#00fffe" fill-rule="evenodd" stroke="none" stroke-width="1" stroke-linecap="butt" opacity="0.004"/><path d="M271.30864,155.85191l-0.26972,3.05693l-0.71928,3.23675l-1.07891,3.05693l-1.25873,6.29367l-0.35964,0.35963l-0.53945,3.05693l-1.7982,6.11385l0.26974,13.48643h0.53945l1.34865,19.60028l0.17981,6.29366l0.44955,1.61837l-0.17982,-0.62937l-0.53945,-0.0899l-2.78719,-39.20056l6.74321,-26.25358z" fill="#67b5fb" fill-rule="evenodd" stroke="none" stroke-width="1" stroke-linecap="butt" opacity="0.11"/><path d="M201.71867,207.28015l-11.50843,-4.58538l-1.16882,-0.62936l-0.17981,0.17982l-27.42241,3.32665l-8.27167,5.66431l-31.82797,1.61836v-9.35059l123.17605,-7.19276l0.71928,10.78914l-40.09965,1.79819l-1.43856,-0.08991l-1.978,-1.52846z" fill="#059764" fill-rule="evenodd" stroke="none" stroke-width="1" stroke-linecap="butt"/><path d="M245.05507,197.92956l3.86611,3.59638l-0.17982,3.05693l-3.41656,-3.41656l-0.26973,-3.23674z" fill="#5cc2ff" fill-rule="evenodd" stroke="none" stroke-width="1" stroke-linecap="butt"/><path d="M201.71867,207.28014l-11.50843,-4.58538l-1.16882,-0.62936l-0.17981,0.17982l-27.42241,3.32665l-8.27167,5.66431l1.07891,0.26973l2.15783,-1.978l18.70118,-7.19276l6.92303,-0.44955l6.11385,0.71928l1.34865,0.17982l6.6533,1.88811l5.5744,2.60737z" fill="#b22e10" fill-rule="evenodd" stroke="none" stroke-width="1" stroke-linecap="butt"/><path d="M179.78075,202.42503l3.41656,0.08991l-21.21865,4.67529l-4.85511,3.05693l-1.25872,1.25873l-1.07892,0.17982l1.97801,-1.79819l17.80209,-7.01295l5.21475,-0.44955z" fill="#4c4533" fill-rule="evenodd" stroke="none" stroke-width="1" stroke-linecap="butt"/><path d="M243.07705,207.45997h2.15783l8.4515,128.21098l-33.80598,-2.69729l-5.12485,-106.09323l-10.15978,-17.53236l38.48128,-1.88811z" fill="#059764" fill-rule="evenodd" stroke="none" stroke-width="1" stroke-linecap="butt"/><path d="M29.45203,179.40819l-1.97801,40.6391l-0.44955,-0.71928l-0.26973,1.07891l0.44955,-11.32859l0.35963,-0.53945l0.35963,-6.83312v-5.39456l-0.26972,-0.62937l0.53945,-2.78719l0.26973,-6.11385l0.62936,-5.39456l0.26973,-3.77619l0.08991,1.79819z" fill="#68b5f9" fill-rule="evenodd" stroke="none" stroke-width="1" stroke-linecap="butt" opacity="0.165"/><path d="M152.62808,211.77563l-6.92303,11.14879l-0.71927,4.85511l0.989,98.54084l-0.44955,0.35964l-24.36547,-2.15783l0.17982,-111.30799l31.28852,-1.43854z" fill="#059764" fill-rule="evenodd" stroke="none" stroke-width="1" stroke-linecap="butt"/><path d="M264.65533,214.11329l1.70829,0.35964l6.02394,77.86165l-21.21865,-0.71929l-5.03493,-76.42309l0.17982,-0.26973z" fill="#7af4ff" fill-rule="evenodd" stroke="none" stroke-width="1" stroke-linecap="butt"/><path d="M116.84408,219.86749h4.13583l-0.17982,66.53305l-95.30409,-3.7762l-1.07891,22.6572h-0.89909l4.13584,-81.81766l89.19025,-3.59639z" fill="#7af4ff" fill-rule="evenodd" stroke="none" stroke-width="1" stroke-linecap="butt"/><path d="M152.62808,211.77563l1.07891,0.26972l-2.24774,2.06792l-3.41656,5.21476l-1.61837,4.13583l-0.71928,4.67529l0.989,90.53889l-0.0899,7.28267l-0.62937,0.35964l-0.989,-98.54084l0.71927,-4.85511l6.92303,-11.14879z" fill="#c23112" fill-rule="evenodd" stroke="none" stroke-width="1" stroke-linecap="butt"/><path d="M27.47402,220.0473l-0.89909,17.08281h-0.53945l0.71927,-16.72318l0.26973,-1.07891z" fill="#8ec5ee" fill-rule="evenodd" stroke="none" stroke-width="1" stroke-linecap="butt" opacity="0.398"/><path d="M267.35263,221.30604l0.53945,0.0899l0.17982,0.62937l0.71927,9.71023l-0.53946,0.35964z" fill="#8cc1ed" fill-rule="evenodd" stroke="none" stroke-width="1" stroke-linecap="butt" opacity="0.295"/><path d="M26.03547,237.13011h0.53945l-0.71928,12.04787z" fill="#a4c7e2" fill-rule="evenodd" stroke="none" stroke-width="1" stroke-linecap="butt" opacity="0.341"/><path d="M25.85565,249.53763l-0.17982,6.6533h-0.53945l0.08991,-6.29366z" fill="#b8cbe2" fill-rule="evenodd" stroke="none" stroke-width="1" stroke-linecap="butt" opacity="0.149"/><path d="M268.79117,231.73554l0.80919,13.48643l0.35963,0.35964l0.44955,10.60932l-0.44955,-0.89909l-1.70829,-23.19666z" fill="#a9c5de" fill-rule="evenodd" stroke="none" stroke-width="1" stroke-linecap="butt" opacity="0.349"/><path d="M24.47774,282.98397l96.32216,3.7762l-0.09155,25.5343l-97.69558,-6.83312l1.09873,-20.76909z" fill="#059764" fill-rule="evenodd" stroke="none" stroke-width="1" stroke-linecap="butt"/><path d="M270.40955,256.55056l0.26972,0.35964l0.71928,13.48644l0.89909,6.11384l0.53945,10.06987l0.35964,3.59638l0.44955,1.61836l0.71927,0.44954l1.61837,0.08991h-3.14684l-2.78719,-35.24453l0.35964,-0.53945z" fill="#2f746e" fill-rule="evenodd" stroke="none" stroke-width="1" stroke-linecap="butt" opacity="0.285"/><path d="M251.34873,291.97492l24.36548,1.07891l2.42756,30.20961l-24.99485,-1.7982z" fill="#059764" fill-rule="evenodd" stroke="none" stroke-width="1" stroke-linecap="butt" opacity="0.999"/><path d="M276.16375,292.51438l0.44955,0.35964l0.26973,8.09186z" fill="#2f7771" fill-rule="evenodd" stroke="none" stroke-width="1" stroke-linecap="butt" opacity="0.236"/><path d="M25.13638,256.55056l0.35963,1.52846l-2.51746,47.02268l0.35963,0.35964l1.43856,0.44955l96.02337,6.74321l0.35964,12.2277l23.37647,2.15783l-15.64426,-0.80918l-4.13583,-0.08991l-0.17982,-0.71928l-1.25873,0.17982l-2.15783,-0.26974l-0.98901,-0.80918v-5.93403l0.26974,-2.33765l-0.08991,-2.15783l-0.62936,-0.989l-9.53041,-0.53946l-0.17982,-0.26973l-14.2057,-0.62937l-8.81113,-0.71927l-0.35964,-0.35964l-25.53431,-1.25873l-0.35963,-0.53946l-11.68823,-0.35963l-9.71024,-0.80919l-0.17982,-0.35964l-14.38552,-0.62936l-1.97801,-0.35964l-0.26973,-0.44955l-0.0899,-3.41656l0.62938,-8.09186l0.17981,-8.63132l0.44954,-0.35964l0.17982,-1.8881l0.26973,-12.49743l0.989,-14.38552z" fill="#2f756f" fill-rule="evenodd" stroke="none" stroke-width="1" stroke-linecap="butt" opacity="0.544"/><path d="M277.06285,301.68514l0.44955,0.35964l0.17981,5.03493l0.8991,8.4515l0.08991,8.09186l-1.7982,-21.12873l0.17981,-0.80919z" fill="#2f736e" fill-rule="evenodd" stroke="none" stroke-width="1" stroke-linecap="butt" opacity="0.25"/><path d="M169.79486,327.65509l-1.67326,-99.59152l44.34149,-3.82196l4.46204,107.23546z" fill="#662d00" fill-rule="nonzero" stroke="#000000" stroke-width="1" stroke-linecap="round"/><path d="M121.08206,286.7895l-82.90718,-3.82196l3.52797,-53.21348l79.37922,-2.93997z" fill="#000000" fill-rule="nonzero" stroke="#000000" stroke-width="1" stroke-linecap="round"/><path d="M244.92834,111.64073l2.35198,43.80557l-26.16574,1.76398l-14.40586,-12.64187l-0.294,-26.38625l35.57365,-5.87994z" fill="#000000" fill-rule="nonzero" stroke="#000000" stroke-width="1" stroke-linecap="round"/><path d="M29.81499,98.13034c0.17481,-1.60324 1.88025,-1.45437 1.88025,-1.45437l2.86449,0.32993c1.30769,1.03677 1.79341,1.69149 3.34859,2.14519c2.47831,0.723 5.53521,0.08547 7.92273,1.15456c0.59781,0.26769 0.91503,0.91905 1.48179,1.24026c0.36288,0.20566 2.99817,0.9882 3.46769,1.13154c2.93803,0.47883 7.56281,1.43373 10.13936,2.86226c1.01808,0.56446 1.62173,1.83678 2.78167,2.06408c0.6876,0.13474 1.44397,-0.19928 2.11119,0.005c0.70756,0.21662 1.1515,0.90657 1.82609,1.20043c0.65559,0.28559 1.44834,0.22068 2.10174,0.51056c4.87366,2.16234 8.06407,6.18479 13.84226,6.15283c0,0 1.71396,0.02054 1.67567,1.63054c-0.03826,1.61 -1.75221,1.58947 -1.75221,1.58947c-2.16489,-0.05265 -5.31166,-0.60022 -7.27951,-1.39049c-0.62695,-0.25176 -0.96145,-0.9194 -1.53108,-1.27027c-1.92916,-1.18826 -4.36057,-2.8939 -6.45365,-3.8023c-0.65604,-0.28472 -1.44817,-0.22101 -2.10175,-0.51056c-0.54164,-0.23997 -0.83769,-0.87361 -1.40879,-1.04465c-0.61115,-0.18305 -1.31138,0.20622 -1.92962,0.04483c-1.44901,-0.37828 -2.41638,-1.67689 -3.68811,-2.42607c-1.26128,-0.74304 -2.06571,-0.55176 -3.44154,-0.87473c-1.9887,-0.46681 -3.7066,-1.29067 -5.73959,-1.6132c-1.10806,-0.33382 -3.53848,-1.01906 -4.45498,-1.52272c-0.4772,-0.26224 -0.69762,-0.84523 -1.18746,-1.0863c-1.25179,-0.61604 -4.04674,-0.46053 -5.37012,-0.62563c-2.44056,-0.30448 -3.99597,-1.03381 -5.75125,-2.60885l-1.82328,-0.07924c0,0 -1.70542,-0.14886 -1.53061,-1.7521z" data-paper-data="{&quot;index&quot;:null}" fill="#000000" fill-rule="nonzero" stroke="none" stroke-width="0.5" stroke-linecap="butt"/><path d="M57.67344,149.98454c0.45456,1.70403 1.49418,3.14608 2.50299,5.02647c2.36639,4.41094 5.79886,8.13428 8.97082,12.05812c1.74083,2.15348 3.64545,4.90672 5.93023,6.44519c4.64404,3.54317 8.97131,4.35668 15.02936,5.22928c2.78204,0.40073 5.829,0.88939 8.60913,0.37854c2.95979,-0.54386 5.69883,-2.29796 8.6592,-2.59609c2.08439,-1.09404 5.29315,-1.91341 6.8506,-3.66209c5.31665,-5.96938 8.77174,-13.0449 10.22884,-20.98642c-0.38081,0.3733 -0.74649,0.68536 -0.77847,0.72289c-1.93462,2.26967 -3.18742,4.48097 -6.06775,5.92812c-4.23086,2.12568 -9.35632,3.54637 -14.08713,3.95249c-2.78566,0.23914 -5.5302,-0.28725 -8.34612,0.10251c-6.73536,-0.93679 -13.00373,-1.81915 -19.04466,-4.71294c-1.02246,-0.48977 -2.31823,-0.2964 -3.32845,-0.80837c-2.43823,-1.23567 -4.63126,-3.04802 -6.96038,-4.58361c-2.85654,-1.8833 -5.66758,-3.3301 -7.83973,-6.08805c0.02917,0.80561 -0.05034,2.3158 -0.08804,2.5616l-0.09645,0.62903c0,0 -0.02891,0.1886 -0.14402,0.40337zM55.7915,145.65231c0.18062,-0.95277 0.44566,-1.79953 0.86032,-2.01109c0.80896,-0.41272 1.80102,0.40783 2.70154,0.61175c2.31615,2.8098 4.9155,4.28159 7.85294,6.22488c2.28529,1.51184 4.39951,3.18357 6.73418,4.46112c0.97743,0.53487 2.26734,0.31814 3.28215,0.78673c5.77105,2.66482 11.53882,3.51301 17.93613,4.47133c2.748,-0.38035 5.43102,0.14533 8.1366,-0.095c4.40544,-0.39131 9.19523,-1.69686 13.13577,-3.69893c3.25368,-1.65308 4.07737,-5.70837 7.14186,-7.22379c1.00338,-0.49617 2.31491,-1.14378 3.33535,-0.66052c0.76002,0.35993 0.1918,1.5842 0.2877,2.37629c-1.33648,8.71623 -5.00269,16.96586 -10.95986,23.44635c-1.97754,2.15127 -5.49285,3.18466 -8.10671,4.47022c-2.95688,0.21325 -5.83939,2.10274 -8.80767,2.63352c-4.55042,0.8137 -9.41561,-0.31949 -13.93629,-0.97065c-2.12112,-0.30552 -5.28874,-0.60667 -7.07809,-1.75421c-0.54008,-0.34637 -0.65031,-1.11341 -1.1821,-1.47097c-1.10741,-0.7446 -2.50108,-1.06452 -3.58021,-1.84509c-2.48723,-1.78119 -4.49879,-4.52967 -6.41846,-6.90616c-4.78787,-5.92725 -13.31203,-14.04804 -12.10931,-21.89192c0,0 0.11218,-0.73156 0.77415,-0.95389z" data-paper-data="{&quot;index&quot;:null}" fill="#000000" fill-rule="nonzero" stroke="none" stroke-width="0.5" stroke-linecap="butt"/><path d="M57.63155,149.96841c0.11512,-0.21477 0.14422,-0.40387 0.14422,-0.40387l0.09674,-0.62974c0.03769,-0.24581 0.11842,-1.75864 0.08925,-2.56425c2.17215,2.75794 5.06482,4.24184 7.92136,6.12514c2.32912,1.53558 4.52342,3.34444 6.96165,4.58011c1.01023,0.51197 2.2207,0.29079 3.24315,0.78056c6.04093,2.8938 12.3966,3.78732 19.13196,4.7241c2.81592,-0.38976 5.47086,0.14109 8.25652,-0.09805c4.73081,-0.40612 9.85684,-1.82096 14.0877,-3.94664c2.88034,-1.44714 4.13461,-3.65221 6.06923,-5.92188c0.03198,-0.03752 0.48306,-0.37709 0.86388,-0.75038c-1.4571,7.94152 -4.91362,15.04885 -10.23027,21.01823c-1.55745,1.74868 -4.77301,2.57907 -6.85739,3.67311c-2.96037,0.29813 -5.71469,2.06402 -8.67449,2.60788c-2.78013,0.51085 -5.84889,0.02639 -8.63093,-0.37435c-6.05805,-0.87261 -10.41996,-1.70602 -15.064,-5.24919c-2.28479,-1.53847 -4.19613,-4.30814 -5.93695,-6.46161c-3.17196,-3.92384 -6.60385,-7.66668 -8.97023,-12.07762c-1.00881,-1.88039 -2.0468,-3.32753 -2.50136,-5.03156z" data-paper-data="{&quot;noHover&quot;:false,&quot;origItem&quot;:[&quot;Path&quot;,{&quot;applyMatrix&quot;:true,&quot;segments&quot;:[[[273.87235,-142.12026],[0,0],[1.01324,3.7984]],[[279.45167,-130.91592],[-2.2487,-4.19152],[5.27484,9.83228]],[[299.44821,-104.03758],[-7.0705,-8.7465],[3.88042,4.80024]],[[312.66709,-89.67082],[-5.09294,-3.42936],[10.35186,7.89796]],[[346.16853,-78.0144],[-13.5038,-1.9451],[6.20136,0.89326]],[[365.35885,-77.17062],[-6.1971,1.13872],[6.59756,-1.2123]],[[384.66077,-82.95748],[-6.59886,0.66456],[4.64624,-2.43868]],[[399.93121,-91.12052],[-3.47166,3.89792],[11.85116,-13.30614]],[[422.73197,-137.90064],[-3.24798,17.70218],[-0.84886,0.8321]],[[420.99671,-136.28928],[0.07128,-0.08364],[-4.3124,5.05924]],[[407.47129,-123.07512],[6.42046,-3.22578],[-9.43086,4.73828]],[[376.07015,-114.26476],[10.54528,-0.90526],[-6.20942,0.53306]],[[357.46611,-114.03626],[6.27686,-0.8688],[-15.01356,-2.08816]],[[315.01431,-124.54172],[13.46564,6.45046],[-2.27912,-1.09174]],[[307.59497,-126.34364],[2.25186,1.14122],[-5.43498,-2.7544]],[[292.07983,-136.5608],[5.19176,3.42292],[-6.36742,-4.198]],[[274.60455,-150.13146],[4.84186,6.14764],[0.06502,1.79576]],[[274.40831,-144.42148],[0.08402,-0.54792],[0,0]],[274.19331,-143.01934],[[273.87227,-142.1202],[0.2566,-0.47874],[0,0]]],&quot;closed&quot;:true,&quot;fillColor&quot;:[0,0,0,1]}]}" fill="#ff7979" fill-rule="nonzero" stroke="none" stroke-width="0.5" stroke-linecap="butt"/><path d="M72.9296,124.49224c1.50255,0.35112 2.89266,0.35441 4.21044,0.76572c0.11278,0.54244 0.67845,0.82874 0.67845,0.82874l1.10263,0.54396c3.02414,2.86708 3.1528,5.65894 2.41843,8.86529c-0.11351,0.17139 -0.18439,0.39571 -0.16608,0.68237c-0.24788,0.96118 -0.55892,1.97446 -0.87684,3.03227c-0.41043,1.36565 -0.52959,3.86643 -1.74744,4.94578c-1.01558,0.90008 -2.61882,1.85479 -3.78228,2.61949c-2.07469,1.64396 -4.18766,2.49832 -6.79784,2.23079c-1.62452,-0.1665 -3.49692,0.58829 -5.05483,0.22151c-2.30357,-0.54232 -3.29102,-2.37773 -4.59061,-3.96426c-2.30753,-2.81704 -3.24324,-7.31112 -3.27308,-10.96965c-0.00779,-0.956 0.27848,-1.93445 0.11016,-2.8759c0.42388,-0.88522 0.49442,-1.89699 0.87405,-2.79943c0.42245,-1.00421 2.01056,-2.09353 2.87147,-2.70416c0.99002,-0.70222 1.79257,-1.67714 2.88917,-2.22044c3.54193,-1.75479 7.76977,0.01174 11.13419,0.79793z" data-paper-data="{&quot;noHover&quot;:false,&quot;origItem&quot;:[&quot;Path&quot;,{&quot;applyMatrix&quot;:true,&quot;segments&quot;:[[[446.73305,268.10536],[2.89371,-1.47823],[-0.06831,1.37387]],[445.46667,270.37778],[[443.12132,272.0991],[0,0],[-5.96067,8.12157]],[[440.69597,294.68594],[-2.82752,-7.62457],[0.32241,0.38124]],[[441.31938,296.29942],[-0.05915,-0.71144],[0.91159,2.27586]],[[444.40538,303.41994],[-1.10727,-2.48862],[1.4295,3.21285]],[[450.15819,314.92997],[-3.19039,-2.22284],[2.66051,1.85365]],[[459.77696,320.01463],[-2.95371,-1.46839],[5.36618,3.30775]],[[476.19163,323.08874],[-5.92522,1.58242],[3.68773,-0.98486]],[[487.89679,321.85466],[-3.4633,1.45376],[5.1209,-2.14955]],[[497.05137,310.50801],[-2.43617,4.36173],[4.32565,-7.74467]],[[500.7054,282.45833],[1.22494,9.00724],[-0.32008,-2.35365]],[[499.44219,275.44525],[-0.05526,2.37467],[-1.29063,-2.02668]],[[496.44805,268.88831],[1.19467,2.08469],[-1.32943,-2.31984]],[[488.88971,263.27427],[2.20145,1.19666],[-2.53159,-1.37612]],[[481.46398,258.84906],[2.72117,0.94756],[-8.78927,-3.06057]],[[456.14805,264.74942],[7.48131,-3.12499],[-3.34116,1.39562]]],&quot;closed&quot;:true}],&quot;index&quot;:null}" fill="#ffffff" fill-rule="nonzero" stroke="#000000" stroke-width="1.5" stroke-linecap="butt"/><path d="M120.28024,119.64787c1.972,1.08453 3.29085,2.91913 5.46895,3.65813c0.26443,0.14256 3.38491,1.17315 3.41542,1.60301c0.03276,0.46175 -0.33732,0.88984 -0.36082,1.35262c-0.08065,1.5873 0.77943,3.20612 0.73557,4.78653c-0.0616,2.21928 -0.97569,4.46633 -1.00613,6.69529c-0.03057,2.23818 -0.10297,4.61658 -1.92001,6.49352c-1.54512,1.59605 -6.41532,1.53934 -8.55203,1.84711c-3.87959,0.55882 -7.42388,0.88079 -11.25977,0.09412c-1.32814,-0.27237 -4.20745,-0.44821 -5.28047,-1.54233c-1.13064,-1.15285 -1.64919,-3.66949 -2.3443,-5.04541c-1.75295,-3.46977 -3.587,-8.4587 -1.89176,-12.24658c0.10832,-3.77459 2.06142,-3.90889 5.27986,-5.45305c1.61514,-0.77493 1.83274,-1.24154 3.39999,-1.82766c3.1825,-1.1902 6.17557,-0.87356 9.4461,-0.55215c1.71855,0.1689 3.28483,0.08065 4.86937,0.13683z" data-paper-data="{&quot;noHover&quot;:false,&quot;origItem&quot;:[&quot;Path&quot;,{&quot;applyMatrix&quot;:true,&quot;segments&quot;:[[[345.23972,269.60323],[3.63452,-0.69939],[-4.16451,3.36541]],[[333.95019,280.50479],[4.76198,-2.58874],[-0.55942,0.44426]],[[326.64875,285.63847],[-0.08169,-1.0679],[0.08775,1.14712]],[[327.96126,288.83057],[-0.21788,-1.12965],[0.74732,3.87473]],[[327.96126,300.83057],[-0.66004,-3.87081],[0.92686,5.43561]],[[332.63767,316.89501],[-0.85844,-5.47042],[0.86199,5.49305]],[[339.33599,332.15179],[-4.85435,-3.97194],[4.12789,3.37753]],[[359.66667,333.64445],[-5.03672,0],[9.14506,0]],[[385.59642,329.90313],[-8.56845,3.29316],[2.96677,-1.14023]],[[397.20584,324.26188],[-2.08779,3.07058],[2.19988,-3.23544]],[[400.81219,311.05478],[-1.11658,3.62972],[2.81576,-9.15335]],[[400.85142,280.34765],[5.24921,8.71427],[-1.58464,-9.24366]],[[386.77683,268.84278],[7.96873,2.65724],[-3.99903,-1.33351]],[[378.31074,265.5642],[3.8218,0.88619],[-7.76068,-1.79954]],[[356.39267,267.55528],[7.42913,-1.94884],[-3.90375,1.02405]]],&quot;closed&quot;:true}],&quot;index&quot;:null}" fill="#ffffff" fill-rule="nonzero" stroke="#000000" stroke-width="1.5" stroke-linecap="butt"/><path d="M114.06942,135.98585c-1.87435,0.26998 -3.61231,-0.9362 -3.88185,-2.69409c-0.26954,-1.75789 1.03142,-3.4018 2.90576,-3.67178c1.87435,-0.26998 3.61233,0.9362 3.88186,2.69409c0.26954,1.75789 -1.03143,3.4018 -2.90577,3.67178z" data-paper-data="{&quot;index&quot;:null}" fill="#000000" fill-rule="nonzero" stroke="none" stroke-width="0.5" stroke-linecap="butt"/><path d="M69.15086,138.94807c-1.87435,0.26998 -3.61232,-0.9362 -3.88186,-2.69409c-0.26954,-1.75789 1.03142,-3.4018 2.90577,-3.67179c1.87435,-0.26998 3.61231,0.9362 3.88185,2.69409c0.26954,1.75789 -1.03142,3.4018 -2.90576,3.67178z" data-paper-data="{&quot;index&quot;:null}" fill="#000000" fill-rule="nonzero" stroke="none" stroke-width="0.5" stroke-linecap="butt"/><path d="M139.70942,80.84645c0,0 1.58705,-0.62312 2.23535,0.86155c0.6483,1.48467 -0.93876,2.10778 -0.93876,2.10778l-1.7207,0.58972c-1.20686,2.00171 -2.47621,3.13793 -4.71994,4.11713c-1.21667,0.53098 -3.93748,1.16994 -4.95033,2.11219c-0.39635,0.3687 -0.43232,0.98864 -0.81021,1.37405c-0.72579,0.74019 -2.84557,2.08084 -3.80557,2.71258c-1.84834,0.8816 -3.2448,2.15406 -5.00751,3.16122c-1.21947,0.69677 -2.04653,0.74051 -3.03036,1.80694c-0.99199,1.07525 -1.5279,2.5904 -2.80081,3.36074c-0.54309,0.32868 -1.32984,0.15359 -1.85967,0.50098c-0.4951,0.32463 -0.58823,1.01433 -1.03448,1.39659c-0.53848,0.46126 -1.31548,0.62357 -1.85773,1.08089c-1.73007,1.45911 -3.54467,3.77633 -5.03391,5.45696c-0.43975,0.49626 -0.55949,1.22933 -1.08378,1.64692c-1.64568,1.31076 -4.49218,2.72161 -6.54771,3.38218c0,0 -1.63371,0.50274 -2.15339,-1.02691c-0.51968,-1.52965 1.11403,-2.03237 1.11403,-2.03237c5.53808,-1.59801 7.38369,-6.34588 11.39795,-9.78845c0.53818,-0.46154 1.31614,-0.62285 1.85772,-1.08089c0.55726,-0.47129 0.77499,-1.25654 1.387,-1.66324c0.57709,-0.38351 1.40101,-0.27711 2.01847,-0.59984c1.04161,-0.54442 1.23742,-1.93189 2.04213,-2.75891c2.03658,-2.093 6.175,-4.31016 8.84239,-5.5964c0.40622,-0.26948 2.69283,-1.76098 2.97832,-2.06003c0.44588,-0.46707 0.55395,-1.17968 1.04563,-1.6043c1.96355,-1.69582 5.07964,-1.94745 7.23392,-3.33774c1.35184,-0.87242 1.62013,-1.63574 2.56023,-2.9963l2.64173,-1.12306z" data-paper-data="{&quot;index&quot;:null}" fill="#000000" fill-rule="nonzero" stroke="none" stroke-width="0.5" stroke-linecap="butt"/><path d="M170.83983,118.77824l2.17918,1.72518l76.90693,72.00378l-0.54479,8.89832l-3.81356,-3.63197l-0.72639,-6.90074l-67.46381,-63.46865l-2.54237,-2.08838l-1.18039,1.08959l-53.20833,68.8258l-0.36319,10.8959l-12.62109,-4.90316l63.37785,-82.44568z" fill="#5cc2ff" fill-rule="evenodd" stroke="none" stroke-width="1" stroke-linecap="butt"/><path d="M170.96961,112.3357l0.8991,0.44955l76.87263,69.8597l0.53946,8.81113l-77.86165,-72.82671h-0.35964l-62.93667,81.63785l0.17982,-7.37257l62.66693,-80.55893z" fill="#5cc2ff" fill-rule="evenodd" stroke="none" stroke-width="1" stroke-linecap="butt"/><path d="M296.48544,279.37518l53.83421,180.34461l-2.69171,13.45855l-231.48711,-64.60105l-26.01987,-0.89724l-16.15026,-23.32816l1.79447,-30.50605l34.99224,-17.94474l34.095,3.58895l22.43092,28.71158l-7.17789,12.56132l147.14684,50.24526l-29.60882,-141.76342z" fill="#99d9ff" fill-rule="nonzero" stroke="#080000" stroke-width="1.5" stroke-linecap="round"/><path d="M600.57098,254.58631l25.11406,-22.03466l117.4883,181.83845l-123.43285,166.50309l-18.67476,-57.57285l98.82595,-115.22587z" data-paper-data="{&quot;index&quot;:null}" fill="#6e3232" fill-rule="nonzero" stroke="#000000" stroke-width="1" stroke-linecap="round"/><path d="M270.35453,855.78959l27.25143,-88.13863l76.1436,-0.78697l-16.03024,88.92562z" data-paper-data="{&quot;index&quot;:null}" fill="#575757" fill-rule="nonzero" stroke="#000000" stroke-width="0.5" stroke-linecap="round"/><path d="M263.11184,851.16827c-2.62986,-1.2439 -8.88849,-3.183 -6.14571,-5.18755c-1.49958,0.64233 -3.50019,1.42662 -4.56473,1.63756c-5.04296,0.99949 -11.57849,0 -16.7823,0c-14.27627,0 -28.13632,-0.53052 -41.95564,1.98445c-6.24534,1.13662 -7.96217,-2.37334 -9.87994,2.53775c-3.95576,8.2402 -11.39839,15.5934 -16.17932,23.88891c-6.47976,11.24292 -8.9926,22.09692 -12.96496,33.3703c-4.49512,9.28386 -0.83354,27.10871 -0.83354,37.44203c0,2.76607 1.26095,7.6897 0.05663,9.7257c1.19725,0.10286 2.35361,0.19667 3.09007,0.19667c4.89485,0 9.78962,0 14.68453,0c19.47092,0 42.09355,-0.40279 60.99221,-4.87223c22.43891,-4.76799 46.75835,2.06934 69.37777,-2.21018c12.38692,-2.14636 25.88944,-0.87055 38.50143,-0.85542c6.39808,0.00766 11.87701,-2.29118 14.68451,1.98448c0.73791,1.12383 0,-2.64595 0,-3.9689c0,-3.30739 0,-6.61492 0,-9.92235c0,-18.52172 0,-37.04344 0,-55.56514c0,-4.37864 -1.21331,-20.0439 1.2968,-21.73903c-0.47087,-0.02661 -1.00378,-0.06987 -1.2968,-0.09011c-2.5958,-0.17914 -4.04611,-0.04385 -6.07192,-1.41122c-3.51692,-2.37384 -15.38199,-0.57325 -20.15038,-0.57325c-18.53039,0 -37.06076,0 -55.5912,0c0,0 -4.19557,0 -4.19557,-3.9689c0,-0.16294 0.00702,-0.31913 0.02061,-0.46887c-2.00572,-0.40211 -4.03168,-0.95988 -6.0925,-1.93462zM328.97051,849.60277c11.18597,0 25.48243,-1.88424 33.12148,6.16287c4.37751,4.61129 1.49188,19.39619 1.49188,25.58868c0,18.52172 0,37.04344 0,55.56514c0,2.11497 1.4451,12.60678 0,13.8913c-14.59624,12.97394 -42.1077,2.85687 -59.93137,6.65469c-22.11811,4.18467 -47.5898,-3.78959 -68.98823,2.12729c-19.47809,4.60648 -42.94404,5.10929 -63.02742,5.10929c-2.88076,0 -20.15668,2.06384 -22.02673,0c-5.36257,-5.91837 -4.19557,-10.85543 -4.19557,-17.86026c0,-12.67013 -2.37425,-27.77295 1.26422,-39.95222c4.07143,-11.55439 6.92665,-23.14302 13.42031,-34.41006c2.61949,-4.54494 5.44889,-10.62437 8.83406,-14.72929c2.21508,-2.68603 6.45018,-4.86847 6.97931,-8.3602c3.58937,-9.19199 10.0759,-6.18014 17.75123,-7.72507c13.66296,-2.75007 27.80155,-1.98448 41.95564,-1.98448c5.21994,0 15.41909,-2.2726 19.10149,-1.56549c6.41027,1.23099 10.12649,6.40234 16.33934,7.93787c4.5589,1.12679 9.36315,0.45974 14.68453,2.97672c0.40399,0.19105 0.80789,0.38214 1.21192,0.57325c14.0047,0 28.00937,0 42.01409,0z" data-paper-data="{&quot;index&quot;:null}" fill="#000000" fill-rule="nonzero" stroke="none" stroke-width="0.5" stroke-linecap="butt"/><path d="M269.26263,852.91225c-0.01358,0.14981 -0.02012,0.30608 -0.02012,0.46899c0,3.9689 4.21614,3.9757 4.21614,3.9757c18.53039,0 37.15955,0.07891 55.69006,0.07891c4.76838,0 16.64424,-1.78216 20.16115,0.59166c2.02576,1.36734 3.47936,1.23868 6.07508,1.41779c0.29303,0.02022 0.82634,0.06455 1.29725,0.09115c-2.51012,1.69515 -1.28405,17.39839 -1.28405,21.77701c0,18.52172 -0.00872,37.15361 -0.00872,55.67535c0,3.30739 -0.00718,6.631 -0.00718,9.9384c0,1.32298 0.73474,5.09869 -0.00316,3.9749c-2.80747,-4.27562 -8.29137,-1.96828 -14.68944,-1.97594c-12.61198,-0.0151 -26.1527,-1.24567 -38.53961,0.90073c-22.61943,4.27951 -47.16119,-2.51935 -69.6001,2.24865c-18.89867,4.46945 -41.61315,4.80313 -61.08421,4.80313c-4.89485,0 -9.7982,-0.01245 -14.69308,-0.01245c-0.73651,0 -1.89449,-0.09637 -3.09166,-0.19923c1.20438,-2.03604 -0.06444,-6.97368 -0.06444,-9.73975c0,-10.33332 -3.68129,-28.22687 0.81387,-37.51076c3.97236,-11.27337 6.49382,-22.20274 12.97358,-33.44563c4.78104,-8.2955 12.25504,-15.70784 16.21085,-23.94803c1.91776,-4.91112 3.64764,-1.41621 9.89295,-2.55281c13.81929,-2.51498 27.76931,-2.04009 42.04554,-2.04009c5.20366,0 11.79774,0.98954 16.84071,-0.0099c1.06445,-0.21103 3.08169,-0.99525 4.5813,-1.63755c-2.74285,2.00456 3.54065,3.94605 6.1705,5.18994c2.06089,0.97474 4.1113,1.53776 6.11696,1.93987z" data-paper-data="{&quot;noHover&quot;:false,&quot;origItem&quot;:[&quot;Path&quot;,{&quot;applyMatrix&quot;:true,&quot;segments&quot;:[[[579.60736,595.76373],[0.95609,-0.20262],[0.00646,0.07548]],[[579.61718,596],[0,-0.08208],[0,2]],[[577.61718,598],[0,0],[-8.83333,0]],[[551.11718,598],[8.83333,0],[-2.27308,0]],[[541.51161,598.28885],[1.67648,-1.19621],[-0.96568,0.68904]],[[538.61718,599],[1.23739,-0.09027],[-0.13966,0.01019]],[[537.99901,599.04541],[0.22447,-0.0134],[1.19653,0.85421]],[[538.61718,610],[0,-2.20646],[0,9.33333]],[[538.61718,638],[0,-9.33333],[0,1.66667]],[[538.61718,643],[0,-1.66667],[0,0.66667]],[[538.61718,645],[-0.35177,0.56631],[1.33831,-2.15456]],[[545.61718,644],[-3.04994,0.00386],[6.01206,-0.00761]],[[563.97058,644.43107],[-5.90478,-1.08158],[10.78253,2.15651]],[[597.04254,645.54479],[-10.6965,-2.40266],[9.00888,2.25222]],[[626.11718,648],[-9.28168,0],[2.33333,0]],[[633.11718,648],[-2.33333,0],[0.35109,0]],[[634.59021,647.90091],[-0.5707,0.05184],[-0.57412,-1.02596]],[[634.61718,643],[0,1.39387],[0,-5.20707]],[[634.21982,624.13246],[2.14282,4.67827],[-1.8936,-5.6808]],[[628.03948,607.31672],[3.08887,5.66543],[-2.2791,-4.1802]],[[620.32688,595.27881],[1.8857,4.15235],[-0.91417,-2.47477]],[[615.61718,594],[2.9771,0.57275],[-6.58756,-1.26734]],[[595.61718,593],[6.8054,0],[-2.48058,0]],[[587.61718,593],[2.40395,0.50364],[-0.50743,-0.10631]],[[585.44122,592.1748],[0.71481,0.32365],[1.30749,1.01011]],[[582.51161,594.78885],[1.25365,-0.62682],[-0.98239,0.4912]]],&quot;closed&quot;:true}],&quot;index&quot;:null}" fill="#600505" fill-rule="nonzero" stroke="none" stroke-width="0.5" stroke-linecap="butt"/><path d="M210.44585,867.46305c0,1.34132 1.44639,2.96699 0.72546,4.02908c1.84389,0.17957 3.69868,0.57169 5.34638,1.35107c6.35279,3.00484 19.27613,13.95423 20.49466,21.19305c0.09905,0.58881 -1.69733,0.68722 -1.39314,1.20935c1.0123,1.73737 9.26209,-1.28201 10.21101,-0.78861c0.21474,0.11169 0.32026,0.28564 0.36251,0.49732c-0.04417,-0.65759 -0.08465,-1.29329 -0.08465,-1.69329c0,-1.40588 0.05869,-2.92093 -0.6059,-4.17841c-5.64946,-11.08341 -14.87983,-21.61969 -30.86078,-21.61969c0,0 -1.88586,-0.00003 -3.12896,-1.19608c-0.41457,-0.22281 -0.73687,-0.48478 -0.95301,-0.792c-0.05552,0.75714 -0.11368,1.52785 -0.11368,1.9881zM246.10817,897.23c0.28634,0.81261 0.20187,-0.53621 0.10672,-1.9472c-0.01989,0.61235 -0.30248,1.39191 -0.10672,1.9472zM253.00741,885.53276c5.21691,9.87025 -6.62856,24.29148 -17.38819,17.65072c-10.1518,-6.26564 -13.58943,-18.85826 -22.85413,-23.24037c-3.12993,-1.48044 -6.8804,-2.28864 -9.21854,-4.75165c-3.70525,-3.90326 -2.06277,-17.23176 5.02294,-17.23176c5.10218,0 7.61524,1.56543 12.36525,1.56543h2.09777c0,0 2.4081,0 3.57555,1.72586c12.428,3.83772 20.40298,13.58809 26.39927,24.28171z" data-paper-data="{&quot;index&quot;:null}" fill="#000000" fill-rule="nonzero" stroke="none" stroke-width="0.5" stroke-linecap="butt"/><path d="M210.40376,865.34187c0.21597,0.30723 0.53853,0.56914 0.95307,0.79198c1.24306,1.19604 3.1375,1.18756 3.1375,1.18756c15.9809,0 25.54449,10.76931 31.19391,21.85274c0.66464,1.25746 0.58763,2.80017 0.58763,4.20598c0,0.39996 0.03267,1.0448 0.07687,1.7024c-0.04219,-0.21175 -0.14665,-0.38673 -0.36149,-0.49847c-0.94896,-0.4934 -9.2702,2.57819 -10.28249,0.84084c-0.30428,-0.52216 1.29296,-0.96908 1.19376,-1.55793c-1.21852,-7.23882 -14.20422,-18.13265 -20.55708,-21.13748c-1.64772,-0.77939 -3.51316,-1.15532 -5.35708,-1.33493c0.72088,-1.06218 -0.70826,-2.71233 -0.70826,-4.05363c0,-0.46023 0.0678,-1.24197 0.12351,-1.99912z" data-paper-data="{&quot;noHover&quot;:false,&quot;origItem&quot;:[&quot;Path&quot;,{&quot;applyMatrix&quot;:true,&quot;segments&quot;:[[[607.563,601.99816],[0.02649,0.38155],[-0.10299,0.15484]],[[607.10872,602.39727],[0.1976,-0.11227],[-0.59254,0.60273]],[[605.61718,603],[0,0],[-7.618,0]],[[590.90604,613.89443],[2.69308,-5.58508],[-0.31682,0.63364]],[[590.61718,616],[0,-0.70843],[0,0.20156]],[[590.57685,616.85325],[0.02106,-0.33136],[0.02013,-0.10671]],[[590.74964,616.60263],[-0.10238,0.05628],[0.45234,-0.24865]],[[595.61718,617],[-0.48256,0.87548],[0.14503,-0.26312]],[[594.95308,616.3906],[-0.04725,0.29671],[0.58086,-3.64773]],[[604.72276,605.71115],[-3.02833,1.51416],[0.78545,-0.39273]],[[607.27135,605.03032],[-0.87898,0.0905],[-0.34365,-0.53523]],[[607.61718,603],[0,0.6759],[0,-0.23192]]],&quot;closed&quot;:true}],&quot;index&quot;:null}" fill="#ffffff" fill-rule="nonzero" stroke="none" stroke-width="0.5" stroke-linecap="butt"/><path d="M565.44737,842.41141l-16.03024,-88.92566l76.14365,0.78697l27.25141,88.13869z" data-paper-data="{&quot;index&quot;:null}" fill="#575757" fill-rule="nonzero" stroke="#000000" stroke-width="0.5" stroke-linecap="round"/><path d="M660.05489,837.79015c-2.06078,0.97474 -4.08677,1.5325 -6.0925,1.93462c0.01355,0.14974 0.02061,0.30596 0.02061,0.46887c0,3.9689 -4.19557,3.9689 -4.19557,3.9689c-18.53041,0 -37.06081,0 -55.5912,0c-4.76841,0 -16.63347,-1.80062 -20.15037,0.57325c-2.0258,1.36734 -3.4761,1.23207 -6.07192,1.41122c-0.29303,0.02022 -0.82593,0.06351 -1.2968,0.09012c2.51006,1.69515 1.2968,17.36039 1.2968,21.73903c0,18.52172 0,37.04344 0,55.56514c0,3.30739 0,6.61495 0,9.92235c0,1.32298 -0.73791,5.09278 0,3.9689c2.80747,-4.27562 8.2864,-1.97677 14.68451,-1.98445c12.61198,-0.0151 26.11454,-1.29093 38.50144,0.8554c22.6194,4.27951 46.93885,-2.55786 69.37777,2.21013c18.89867,4.46944 41.52131,4.87223 60.99221,4.87223c4.89489,0 9.78967,0 14.68453,0c0.73647,0 1.89284,-0.09382 3.09007,-0.19667c-1.20432,-2.03604 0.05663,-6.95962 0.05663,-9.7257c0,-10.33332 3.66156,-28.15816 -0.83354,-37.44206c-3.97236,-11.27337 -6.48519,-22.1274 -12.96496,-33.3703c-4.78099,-8.2955 -12.22357,-15.64871 -16.17932,-23.88891c-1.91776,-4.91112 -3.6346,-1.40118 -9.87992,-2.53775c-13.8193,-2.51498 -27.67939,-1.98445 -41.95564,-1.98445c-5.20381,0 -11.73934,0.99949 -16.7823,0c-1.06453,-0.21098 -3.06515,-0.99526 -4.56473,-1.6376c2.74278,2.00456 -3.51584,3.94363 -6.14571,5.18755zM594.196,836.22461c14.00472,0 28.00946,0 42.01414,0c0.40403,-0.19105 0.80789,-0.38214 1.2119,-0.57325c5.32133,-2.51693 10.12561,-1.84992 14.68453,-2.97672c6.21285,-1.5355 9.92912,-6.70691 16.33934,-7.93787c3.6824,-0.70711 13.88154,1.56549 19.10149,1.56549c14.1541,0 28.29269,-0.76563 41.95564,1.98448c7.6753,1.54491 14.16184,-1.46691 17.75123,7.72507c0.52913,3.49172 4.7642,5.67413 6.97931,8.36015c3.38518,4.10493 6.21458,10.18437 8.83406,14.72929c6.49368,11.26702 9.34893,22.85567 13.42031,34.41006c3.63846,12.17929 1.26417,27.28215 1.26417,39.95224c0,7.00482 1.16699,11.94184 -4.19557,17.86026c-1.87002,2.06384 -19.14598,0 -22.02673,0c-20.08333,0 -43.54928,-0.50279 -63.02742,-5.10929c-21.39846,-5.91686 -46.87018,2.05736 -68.98826,-2.12728c-17.82367,-3.79781 -45.33513,6.31924 -59.93137,-6.65469c-1.4451,-1.28451 0,-11.77631 0,-13.8913c0,-18.52172 0,-37.04338 0,-55.56513c0,-6.1925 -2.88564,-20.97738 1.49188,-25.58868c7.63903,-8.04715 21.93554,-6.16287 33.12148,-6.16287z" data-paper-data="{&quot;index&quot;:null}" fill="#000000" fill-rule="nonzero" stroke="none" stroke-width="0.5" stroke-linecap="butt"/><path d="M653.90393,839.53406c2.00565,-0.40211 4.05608,-0.96511 6.11696,-1.93987c2.62989,-1.24389 8.91336,-3.18534 6.1705,-5.18994c1.49958,0.6423 3.51685,1.42651 4.5813,1.63755c5.04296,0.99949 11.63701,0.00991 16.84071,0.00991c14.27616,0 28.22627,-0.47493 42.04554,2.04007c6.24533,1.13662 7.97515,-2.35825 9.89291,2.55284c3.95582,8.2402 11.4298,15.65253 16.21085,23.94803c6.47976,11.24292 9.00123,22.17226 12.97358,33.44567c4.49523,9.2839 0.81391,27.17746 0.81391,37.51076c0,2.76607 -1.26877,7.70372 -0.06444,9.73975c-1.19717,0.10286 -2.35509,0.19923 -3.09166,0.19923c-4.89485,0 -9.7982,0.01245 -14.69308,0.01245c-19.47106,0 -42.18556,-0.33368 -61.08421,-4.80313c-22.43891,-4.76796 -46.98064,2.03088 -69.6001,-2.24865c-12.38692,-2.14643 -25.92761,-0.91583 -38.53961,-0.90073c-6.39799,0.00766 -11.88197,-2.29968 -14.68944,1.97594c-0.73791,1.12381 -0.00316,-2.65194 -0.00316,-3.9749c0,-3.30739 -0.00718,-6.631 -0.00718,-9.9384c0,-18.52172 -0.00872,-37.15361 -0.00872,-55.67535c0,-4.37864 1.22606,-20.08188 -1.28405,-21.77701c0.47091,-0.02661 1.00427,-0.07091 1.29725,-0.09111c2.59572,-0.17912 4.04933,-0.05045 6.07508,-1.41779c3.51692,-2.37382 15.39278,-0.59166 20.16115,-0.59166c18.53052,0 37.15967,-0.07891 55.69006,-0.07891c0,0 4.21614,-0.00679 4.21614,-3.9757c0,-0.16294 -0.00653,-0.31918 -0.02012,-0.46899z" data-paper-data="{&quot;noHover&quot;:false,&quot;origItem&quot;:[&quot;Path&quot;,{&quot;applyMatrix&quot;:true,&quot;segments&quot;:[[[579.60736,595.76373],[0.95609,-0.20262],[0.00646,0.07548]],[[579.61718,596],[0,-0.08208],[0,2]],[[577.61718,598],[0,0],[-8.83333,0]],[[551.11718,598],[8.83333,0],[-2.27308,0]],[[541.51161,598.28885],[1.67648,-1.19621],[-0.96568,0.68904]],[[538.61718,599],[1.23739,-0.09027],[-0.13966,0.01019]],[[537.99901,599.04541],[0.22447,-0.0134],[1.19653,0.85421]],[[538.61718,610],[0,-2.20646],[0,9.33333]],[[538.61718,638],[0,-9.33333],[0,1.66667]],[[538.61718,643],[0,-1.66667],[0,0.66667]],[[538.61718,645],[-0.35177,0.56631],[1.33831,-2.15456]],[[545.61718,644],[-3.04994,0.00386],[6.01206,-0.00761]],[[563.97058,644.43107],[-5.90478,-1.08158],[10.78253,2.15651]],[[597.04254,645.54479],[-10.6965,-2.40266],[9.00888,2.25222]],[[626.11718,648],[-9.28168,0],[2.33333,0]],[[633.11718,648],[-2.33333,0],[0.35109,0]],[[634.59021,647.90091],[-0.5707,0.05184],[-0.57412,-1.02596]],[[634.61718,643],[0,1.39387],[0,-5.20707]],[[634.21982,624.13246],[2.14282,4.67827],[-1.8936,-5.6808]],[[628.03948,607.31672],[3.08887,5.66543],[-2.2791,-4.1802]],[[620.32688,595.27881],[1.8857,4.15235],[-0.91417,-2.47477]],[[615.61718,594],[2.9771,0.57275],[-6.58756,-1.26734]],[[595.61718,593],[6.8054,0],[-2.48058,0]],[[587.61718,593],[2.40395,0.50364],[-0.50743,-0.10631]],[[585.44122,592.1748],[0.71481,0.32365],[1.30749,1.01011]],[[582.51161,594.78885],[1.25365,-0.62682],[-0.98239,0.4912]]],&quot;closed&quot;:true}],&quot;index&quot;:null}" fill="#600505" fill-rule="nonzero" stroke="none" stroke-width="0.5" stroke-linecap="butt"/><path d="M712.72089,854.08479c0,-0.46026 -0.05811,-1.23099 -0.11368,-1.9881c-0.2161,0.30723 -0.53848,0.56923 -0.95301,0.79203c-1.24306,1.19604 -3.12896,1.19608 -3.12896,1.19608c-15.98095,0 -25.21128,10.53629 -30.86074,21.61969c-0.66461,1.25746 -0.6059,2.77253 -0.6059,4.17841c0,0.39996 -0.04044,1.03568 -0.08463,1.69323c0.04224,-0.21171 0.14773,-0.38563 0.36248,-0.49732c0.94896,-0.4934 9.19867,2.52599 10.21101,0.78861c0.30423,-0.52216 -1.49219,-0.62048 -1.39314,-1.2093c1.21856,-7.23882 14.1419,-18.18819 20.49468,-21.19305c1.64765,-0.77939 3.50244,-1.17152 5.34636,-1.35107c-0.72088,-1.0621 0.72546,-2.68775 0.72546,-4.02908zM676.95181,881.90466c-0.09514,1.41099 -0.17957,2.75979 0.10672,1.9472c0.19571,-0.55529 -0.08682,-1.33482 -0.10672,-1.9472zM670.15932,872.15459c5.99631,-10.69363 13.97131,-20.444 26.39927,-24.28171c1.16742,-1.72586 3.57555,-1.72586 3.57555,-1.72586h2.09777c4.75003,0 7.26308,-1.56543 12.36525,-1.56543c7.0857,0 8.72819,13.32847 5.02294,17.23171c-2.33816,2.46304 -6.08856,3.27123 -9.21854,4.75165c-9.26472,4.38216 -12.70237,16.97473 -22.85413,23.24039c-10.75962,6.64074 -22.60508,-7.7805 -17.38814,-17.65072z" data-paper-data="{&quot;index&quot;:null}" fill="#000000" fill-rule="nonzero" stroke="none" stroke-width="0.5" stroke-linecap="butt"/><path d="M712.76308,851.96368c0.0557,0.75714 0.12351,1.53889 0.12351,1.99912c0,1.34131 -1.42918,2.99146 -0.70826,4.05363c-1.84391,0.17957 -3.70938,0.55558 -5.35708,1.33496c-6.35284,3.00482 -19.33853,13.89859 -20.55708,21.13746c-0.0992,0.58885 1.49803,1.03576 1.19376,1.55796c-1.0123,1.73737 -9.33354,-1.33417 -10.28249,-0.84084c-0.21483,0.11174 -0.31929,0.28669 -0.36149,0.49849c0.04417,-0.65761 0.07687,-1.30246 0.07687,-1.70244c0,-1.40584 -0.07702,-2.94849 0.58763,-4.20595c5.64945,-11.08349 15.21299,-21.85278 31.19391,-21.85278c0,0 1.89443,0.00851 3.1375,-1.18756c0.41457,-0.22281 0.73706,-0.48469 0.95307,-0.79192z" data-paper-data="{&quot;noHover&quot;:false,&quot;origItem&quot;:[&quot;Path&quot;,{&quot;applyMatrix&quot;:true,&quot;segments&quot;:[[[607.563,601.99816],[0.02649,0.38155],[-0.10299,0.15484]],[[607.10872,602.39727],[0.1976,-0.11227],[-0.59254,0.60273]],[[605.61718,603],[0,0],[-7.618,0]],[[590.90604,613.89443],[2.69308,-5.58508],[-0.31682,0.63364]],[[590.61718,616],[0,-0.70843],[0,0.20156]],[[590.57685,616.85325],[0.02106,-0.33136],[0.02013,-0.10671]],[[590.74964,616.60263],[-0.10238,0.05628],[0.45234,-0.24865]],[[595.61718,617],[-0.48256,0.87548],[0.14503,-0.26312]],[[594.95308,616.3906],[-0.04725,0.29671],[0.58086,-3.64773]],[[604.72276,605.71115],[-3.02833,1.51416],[0.78545,-0.39273]],[[607.27135,605.03032],[-0.87898,0.0905],[-0.34365,-0.53523]],[[607.61718,603],[0,0.6759],[0,-0.23192]]],&quot;closed&quot;:true}],&quot;index&quot;:null}" fill="#ffffff" fill-rule="nonzero" stroke="none" stroke-width="0.5" stroke-linecap="butt"/><path d="M245.21877,402.03544l98.82595,115.22587l-18.67476,57.57285l-123.43285,-166.50309l117.4883,-181.83845l25.11406,22.03466z" data-paper-data="{&quot;index&quot;:null}" fill="#6e3232" fill-rule="nonzero" stroke="#000000" stroke-width="1" stroke-linecap="round"/><path d="M352.56626,195.64048c-0.29245,-0.35422 -0.48218,-0.86435 -0.35559,-1.59286c0.34757,-2.00039 2.38497,-1.64638 2.38497,-1.64638c0.72442,0.12586 3.0787,0.53492 3.80313,0.66079c2.85366,0.49583 6.69559,0.53692 8.41199,3.46616c0.74823,1.27698 -0.69037,6.05033 -0.95678,7.58359c-1.28155,7.37576 -1.25235,18.2307 -5.00224,24.64881c-0.41376,0.70817 -1.53904,0.77857 -2.00474,1.45465c-2.04142,2.96359 -3.99544,8.04993 -4.58589,11.59528c-1.75718,5.36768 -3.6669,11.40632 -4.61245,16.91257c-0.37811,2.20186 -0.67001,8.46475 -2.10903,10.33394c-0.53952,0.70084 -1.85687,0.29411 -2.53719,0.86429c-0.62575,0.52438 -0.40754,1.72659 -1.09096,2.17632c-2.22184,1.46216 -4.30802,0.20811 -6.22246,2.74363c-1.23343,1.63349 -0.13792,2.60935 -1.31845,4.61974c-0.42855,0.72982 -1.48558,0.88922 -2.05561,1.51821c-0.69941,0.77173 -0.65278,2.96869 -0.96634,3.64273c-1.52566,3.27991 -3.93598,6.51632 -5.69082,9.73167c-0.72342,1.15587 -3.608,6.66821 -4.7351,7.2368c-3.76329,1.89861 -8.50396,-2.13808 -10.35245,-4.71358c-1.74744,-2.43465 -1.48252,-4.46784 -2.49807,-6.92084c-1.35153,-3.2646 -5.23005,-4.76811 -6.89992,-7.51925c-0.44304,-0.72986 -0.07266,-1.70994 -0.31004,-2.52616c-0.45042,-1.54881 -1.52626,-0.8809 -2.70469,-1.83716c-3.37046,-2.7351 -5.61413,-6.76507 -8.59803,-9.87319c-2.61355,-2.21932 -9.53936,-6.30156 -8.61362,-10.49688c0.28807,-1.30558 2.1375,-1.66406 3.04206,-2.65797c1.15982,-1.27441 1.25041,-3.30175 2.46859,-4.52243c0.69185,-0.69321 1.8465,-0.76424 2.61485,-1.37483c3.86757,-3.07341 6.306,-8.01923 9.72264,-11.38419c1.04609,-1.03024 2.73837,-1.33466 3.66386,-2.47102c2.98568,-3.66592 5.80243,-7.4655 9.39233,-10.79288c2.70967,-1.84136 3.6298,-3.80011 6.01412,-6.01706c1.27448,-1.18507 2.56789,-1.40176 3.61037,-2.83693c1.08616,-1.49534 1.89747,-3.29592 3.4101,-4.37538c8.11669,-5.79218 16.58874,-11.50153 25.6814,-15.63026z" data-paper-data="{&quot;index&quot;:null}" fill="#ffffff" fill-rule="nonzero" stroke="#000000" stroke-width="1" stroke-linecap="butt"/><path d="M321.30639,298.34436v-10.02598l301.36855,-1.671l46.4877,504.64085l-149.08125,1.67097l-34.27272,-354.0471l-17.5686,-17.91701l-16.25485,11.66119l-11.60575,23.81349l-37.31879,339.8314l-157.09637,5.01297z" data-paper-data="{&quot;index&quot;:null}" fill="#6e3232" fill-rule="nonzero" stroke="#000000" stroke-width="1" stroke-linecap="round"/><path d="M308.22597,445.95922l64.12098,7.86952l-9.61815,48.79105l-44.88466,53.51277l-30.45746,3.14779" data-paper-data="{&quot;index&quot;:null}" fill="none" fill-rule="nonzero" stroke="#000000" stroke-width="1" stroke-linecap="round"/><path d="M654.47916,554.55864l-30.45746,-3.14779l-44.88466,-53.51277l-9.61815,-48.79105l64.12098,-7.86952" data-paper-data="{&quot;index&quot;:null}" fill="none" fill-rule="nonzero" stroke="#000000" stroke-width="1" stroke-linecap="round"/><path d="M588.23258,191.06288c9.09267,4.12873 17.56474,9.83808 25.68141,15.63026c1.51264,1.07947 2.32393,2.88003 3.4101,4.37538c1.04248,1.43517 2.33588,1.65184 3.61037,2.83692c2.38433,2.21695 3.30446,4.17569 6.01412,6.01706c3.58988,3.32738 6.40663,7.12696 9.39231,10.79288c0.9255,1.13634 2.61778,1.44078 3.66385,2.47102c3.41662,3.36496 5.85507,8.31077 9.72264,11.38419c0.76838,0.61059 1.923,0.6816 2.61485,1.37483c1.21817,1.22069 1.30879,3.24802 2.4686,4.52243c0.90456,0.9939 2.75397,1.35241 3.04204,2.65797c0.92574,4.19533 -6.00005,8.27755 -8.61361,10.49687c-2.9839,3.10813 -5.22755,7.13809 -8.59804,9.8732c-1.17842,0.95628 -2.25427,0.28836 -2.70469,1.83717c-0.23739,0.81624 0.13299,1.79632 -0.31004,2.52616c-1.66987,2.75114 -5.54837,4.25467 -6.89992,7.51925c-1.01554,2.453 -0.75062,4.48619 -2.49807,6.92085c-1.84851,2.5755 -6.58917,6.61219 -10.35246,4.71356c-1.1271,-0.56861 -4.01167,-6.08094 -4.7351,-7.2368c-1.75486,-3.21537 -4.16518,-6.45176 -5.69085,-9.73167c-0.31357,-0.67404 -0.2669,-2.871 -0.96634,-3.64273c-0.57003,-0.629 -1.62707,-0.78838 -2.05561,-1.51821c-1.18053,-2.01038 -0.08502,-2.98624 -1.31844,-4.61974c-1.91446,-2.5355 -4.00064,-1.2815 -6.22249,-2.74363c-0.68341,-0.44973 -0.46519,-1.65193 -1.09094,-2.17632c-0.68032,-0.57019 -1.99768,-0.16348 -2.5372,-0.86429c-1.43902,-1.8692 -1.73092,-8.13208 -2.10903,-10.33394c-0.94556,-5.50624 -2.85525,-11.54485 -4.61245,-16.91256c-0.59044,-3.54536 -2.54445,-8.63167 -4.58589,-11.59529c-0.4657,-0.67608 -1.59099,-0.74651 -2.00475,-1.45467c-3.74987,-6.4181 -3.72069,-17.27306 -5.00224,-24.64881c-0.2664,-1.53324 -1.70503,-6.3066 -0.95678,-7.58359c1.71641,-2.92921 5.55833,-2.97033 8.41199,-3.46616c0.72442,-0.12586 3.0787,-0.53492 3.80312,-0.66079c0,0 2.0374,-0.35401 2.38499,1.64638c0.12658,0.72851 -0.06315,1.23864 -0.35559,1.59286z" data-paper-data="{&quot;index&quot;:null}" fill="#ffffff" fill-rule="nonzero" stroke="#000000" stroke-width="1" stroke-linecap="butt"/><path d="M320.94862,276.87761c0.28685,0 0.57369,0 0.86054,0c0.09265,1.8708 -0.00287,3.6874 -0.28685,5.45006c0.16063,-1.8992 -0.03069,-3.71609 -0.57369,-5.45006z" fill="#4b4b4b" fill-rule="evenodd" stroke="none" stroke-width="1" stroke-linecap="butt"/><path d="M436.82545,327.82491l2.12142,-91.95008l59.6648,1.59106l-1.32589,91.35344z" data-paper-data="{&quot;index&quot;:null}" fill="#342323" fill-rule="nonzero" stroke="#000000" stroke-width="1" stroke-linecap="round"/><path d="M572.88131,47.4153c23.97858,25.30801 47.9319,50.65435 71.85799,76.03918c0.29754,1.93462 0.36171,3.87937 0.19447,5.83421c-23.84829,-25.72905 -47.76855,-51.39958 -71.76076,-77.01154c-0.1303,0.25923 -0.25866,0.25923 -0.38895,0c-21.16457,24.14721 -42.33106,48.29422 -63.49563,72.44142c-1.55969,0.1618 -3.11547,0.12932 -4.66736,-0.09725c22.80204,-25.71115 45.55545,-51.44643 68.26024,-77.20602z" data-paper-data="{&quot;index&quot;:null}" fill="#c4c4c4" fill-rule="evenodd" stroke="#000000" stroke-width="1" stroke-linecap="butt" opacity="0.999"/><path d="M367.5172,47.60978c21.91252,25.25161 43.72544,50.59814 65.44036,76.03918c0.42785,0.49396 0.91402,0.91538 1.45855,1.26407c-0.317,0.09607 -0.64176,0.12836 -0.97235,0.09723c0.03113,1.56378 -0.06612,3.11956 -0.2917,4.66736c-21.84522,-25.80022 -43.6918,-51.60025 -65.53761,-77.4005c-0.12971,0.25923 -0.25924,0.25923 -0.38895,0c-22.94788,25.80024 -45.89576,51.60028 -68.84365,77.4005c-0.08188,-1.81832 -0.01712,-3.63335 0.19448,-5.44527c22.94866,-25.57367 45.92884,-51.11465 68.9409,-76.62259z" data-paper-data="{&quot;index&quot;:null}" fill="#c4c4c4" fill-rule="evenodd" stroke="#000000" stroke-width="1" stroke-linecap="butt"/><path d="M367.32271,52.86057c2.29517,2.58804 4.56391,5.21346 6.80657,7.87618c-18.78946,21.14687 -37.55616,42.31221 -56.30011,63.49563c-0.29132,3.36167 -0.45351,6.73249 -0.48618,10.11264c-6.29842,-1.26623 -12.58653,-2.59505 -18.86395,-3.98671c22.99262,-25.81131 45.9405,-51.64402 68.84366,-77.49773z" data-paper-data="{&quot;index&quot;:null}" fill="#c4c4c4" fill-rule="evenodd" stroke="#000000" stroke-width="1" stroke-linecap="butt"/><path d="M572.88131,52.86057c0.95487,0.66082 1.83,1.43872 2.62539,2.33369c23.10346,24.98364 46.27889,49.90854 69.52432,74.7751c-8.59378,2.21798 -17.21675,4.3249 -25.86499,6.3204c-0.08752,-5.58821 -0.3131,-11.16298 -0.68065,-16.72473c-17.62514,-19.11695 -35.32225,-38.17536 -53.0913,-57.17523c-0.30533,-0.1091 -0.56396,0.02062 -0.77788,0.38895c-0.1303,-0.12971 -0.1303,-0.25924 0,-0.38895c2.84904,-3.11585 5.60472,-6.29239 8.26513,-9.52921z" data-paper-data="{&quot;index&quot;:null}" fill="#c4c4c4" fill-rule="evenodd" stroke="#000000" stroke-width="1" stroke-linecap="butt"/><path d="M378.40771,59.2782c17.88515,19.08486 35.74425,38.20824 53.57748,57.36971c2.49898,2.70027 4.9299,5.45536 7.29276,8.26513c-1.42549,0.12971 -2.85294,0.12971 -4.27842,0c-0.60871,-0.41383 -1.15907,-0.90002 -1.65302,-1.45855c-18.36219,-21.36798 -36.675,-42.76008 -54.9388,-64.17628z" data-paper-data="{&quot;index&quot;:null}" fill="#c4c4c4" fill-rule="evenodd" stroke="#000000" stroke-width="1" stroke-linecap="butt" opacity="0.998"/><path d="M374.32377,61.22293c0.56223,0.46362 1.11316,0.98229 1.65302,1.55579c17.37291,20.48449 34.74661,40.96917 52.11892,61.45366c0.15557,5.3202 0.12253,10.63576 -0.09723,15.94683c-36.82046,-0.00582 -73.64073,0.05834 -110.461,0.19449c0.22229,-5.24962 0.44904,-10.50042 0.68065,-15.75237c18.81455,-21.05001 37.51649,-42.18288 56.10564,-63.39838z" data-paper-data="{&quot;index&quot;:null}" fill="#365c43" fill-rule="evenodd" stroke="#000000" stroke-width="1" stroke-linecap="butt"/><path d="M565.10237,62.97319c0.82457,0.53053 1.56939,1.17871 2.23645,1.94474c16.84725,18.33905 33.76645,36.61957 50.75761,54.84156c1.24464,36.10597 2.44258,72.21388 3.59777,108.3218c-33.38529,-0.00582 -66.76862,-0.07001 -100.15391,-0.19449c-0.10113,-1.81445 -0.19837,-3.62888 -0.29171,-5.44525c-1.88056,-2.52816 -3.75918,-5.05631 -5.63974,-7.58448c-3.05324,-2.85876 -6.16481,-5.64751 -9.33474,-8.36236c-0.30727,-25.28155 -0.43756,-50.56315 -0.38895,-75.8447c19.70796,-22.59161 39.44702,-45.15055 59.21721,-67.67681z" data-paper-data="{&quot;index&quot;:null}" fill="#365c43" fill-rule="evenodd" stroke="#000000" stroke-width="1" stroke-linecap="butt"/><path d="M598.94078,74.25266c0.25866,0 0.51925,0 0.7779,0c0.2703,0.21666 0.56203,0.41112 0.87513,0.58343c0.34422,0.76641 0.83039,1.4146 1.45855,1.94473c0.70205,0.21353 1.091,0.66726 1.16684,1.36133c0.66509,0.43872 1.31465,0.92492 1.94474,1.45855c0.41034,0.24582 0.60482,0.60228 0.58343,1.06961c0.64954,0.09957 1.00738,0.48852 1.06961,1.16684c0.65537,0.23376 1.07543,0.68747 1.26408,1.36133c0.23142,0.18067 0.49007,0.24542 0.7779,0.19448c0.0739,0.69349 0.46285,1.14722 1.16684,1.36133c0.18087,0.23124 0.24503,0.49046 0.19447,0.77788c0.20419,-0.02897 0.39868,0.0033 0.58343,0.09723c0.48619,0.74542 1.10267,1.36131 1.8475,1.8475c-0.04473,0.6437 0.24696,1.00037 0.87512,1.06961c0.50174,0.60404 0.98793,1.21993 1.45856,1.8475c0.57759,0.18027 0.93347,0.56922 1.0696,1.16684c1.55969,1.10656 2.85681,2.46789 3.88947,4.08395c0.15947,0.1723 0.35395,0.23706 0.58342,0.19448c-0.04279,0.22851 0.0214,0.42298 0.19448,0.58342c0.32478,0.25923 0.64759,0.51867 0.97238,0.7779c0.18087,0.23124 0.24503,0.49047 0.19447,0.7779c0.28782,-0.05095 0.54648,0.01381 0.7779,0.19448c0.25866,0.32419 0.51924,0.64819 0.7779,0.97237c0.15947,0.1723 0.35394,0.23706 0.58342,0.19448c-0.05056,0.28743 0.01361,0.54667 0.19448,0.7779c1.02098,1.17813 2.1217,2.2802 3.30604,3.30606c0.1303,0.25923 0.25866,0.51867 0.38895,0.7779c0.72344,0.07525 1.11239,0.46421 1.16684,1.16684c0.63593,0.11727 1.02488,0.50621 1.16684,1.16683c0.66899,0.21527 1.05794,0.66899 1.16684,1.36131c1.12794,0.92278 2.19755,1.89514 3.20882,2.91711c0.65925,0.82516 1.37104,1.60305 2.13921,2.33369c0.11669,0.73317 0.53869,1.18686 1.26408,1.36131c0.18087,0.23124 0.24504,0.49047 0.19448,0.7779c0.38505,-0.02275 0.70983,0.10695 0.97238,0.38894c1.04433,1.4144 2.24228,2.71076 3.59777,3.88947c0.09529,0.25146 0.12836,0.51088 0.09723,0.7779c0.66899,-0.02859 1.05794,0.2956 1.16684,0.97238c1.07738,0.54978 1.7911,1.39243 2.13921,2.52816c0.28976,2.35352 0.22559,4.68719 -0.19448,7.00104c-2.81598,0.97741 -5.73309,1.56085 -8.75132,1.75026c2.69929,-0.70768 5.42193,-1.42083 8.1679,-2.13921c0.17502,-2.33291 0.1439,-4.66657 -0.09723,-7.00105c-15.49955,-16.37525 -30.96019,-32.7758 -46.38194,-49.20182z" data-paper-data="{&quot;index&quot;:null}" fill="#66b6fc" fill-rule="evenodd" stroke="#000000" stroke-width="1" stroke-linecap="butt" opacity="0.206"/><path d="M428.77637,125.20474c0.83624,0.86968 1.64718,1.7773 2.43091,2.72264c-0.17893,26.05946 -0.43756,52.11892 -0.7779,78.17838c-0.84207,0.71372 -1.68609,1.4255 -2.52816,2.13922c0.23142,-27.67943 0.52314,-55.35886 0.87513,-83.04024z" data-paper-data="{&quot;index&quot;:null}" fill="#365c43" fill-rule="evenodd" stroke="#000000" stroke-width="1" stroke-linecap="butt"/><path d="M484.5903,125.20474c8.03759,-0.03248 16.07713,0.00001 24.11472,0.09723c-1.31464,1.59216 -2.67596,3.14795 -4.08394,4.66736c-23.59548,0.25456 -47.19096,0.35181 -70.78839,0.29171c0,-1.62055 0,-3.24129 0,-4.86184c16.95227,0.06476 33.87148,-0.00021 50.75761,-0.19449z" data-paper-data="{&quot;index&quot;:null}" fill="#c4c4c4" fill-rule="evenodd" stroke="#000000" stroke-width="1" stroke-linecap="butt"/><path d="M434.4161,130.84447c23.17541,-0.25903 46.38197,-0.25903 69.62156,0c-0.66316,1.2635 -1.37687,2.49511 -2.13921,3.69502c-20.87286,0.18882 -41.74764,0.28607 -62.6205,0.2917c-1.59663,-1.37025 -3.21659,-2.6991 -4.86184,-3.98672z" data-paper-data="{&quot;index&quot;:null}" fill="#c4c4c4" fill-rule="evenodd" stroke="#000000" stroke-width="1" stroke-linecap="butt"/><path d="M637.25208,132.59474c0.0175,0.1937 -0.04862,0.35568 -0.19447,0.48619c-1.77944,0.6511 -3.59386,1.10481 -5.44525,1.36131c-2.19561,0.8092 -4.46511,1.36015 -6.80657,1.65302c-1.32048,0.28899 -2.61566,0.61297 -3.88947,0.97237c-0.25866,0.19449 -0.51925,0.38895 -0.7779,0.58343c-0.19447,2.00502 -0.25866,4.01588 -0.19447,6.02868c0.06416,3.66387 0,7.29471 -0.19447,10.89052c-0.13225,-5.90227 -0.32671,-11.80066 -0.58343,-17.6971c6.02285,-1.4568 12.05152,-2.88306 18.08605,-4.27843z" data-paper-data="{&quot;index&quot;:null}" fill="#7dbdee" fill-rule="evenodd" stroke="#000000" stroke-width="1" stroke-linecap="butt" opacity="0.243"/><path d="M403.30034,140.56815c8.23207,0 16.46608,0 24.69815,0c-0.14975,22.75341 -0.37729,45.50682 -0.68066,68.26024c-4.82296,4.10922 -9.58756,8.29041 -14.29381,12.54354c-7.69725,0.22559 -15.41203,0.32283 -23.14237,0.2917c-25.0869,-0.13808 -50.174,-0.20226 -75.26129,-0.19448c1.0416,-26.89764 2.01398,-53.79916 2.91711,-80.70653c28.62029,0.06419 57.2079,0 85.76285,-0.19448z" data-paper-data="{&quot;index&quot;:null}" fill="#365c43" fill-rule="evenodd" stroke="#000000" stroke-width="1" stroke-linecap="butt"/><path d="M619.94392,143.67974c0.1614,3.59776 0.25866,7.22665 0.2917,10.89052c0.19447,1.10267 0.38895,2.2034 0.58343,3.30606c0.09723,5.18467 0.1303,10.37127 0.09723,15.55789c0.31504,-0.02722 0.54258,0.10307 0.68066,0.38895c0.09723,2.26757 0.13029,4.53708 0.09722,6.80657c-0.44146,0.07 -0.79733,-0.06029 -1.0696,-0.38895c-0.26837,-8.55879 -0.56009,-17.11562 -0.87514,-25.67051c0.19447,-3.59582 0.25866,-7.22663 0.19447,-10.89052z" data-paper-data="{&quot;index&quot;:null}" fill="#b5cadf" fill-rule="evenodd" stroke="#000000" stroke-width="1" stroke-linecap="butt" opacity="0.466"/><path d="M459.50321,174.60104c1.58691,-0.22559 3.20687,-0.2567 4.86184,-0.09723c-0.74872,0.74872 -1.55968,1.42939 -2.43092,2.04199c-0.31115,-0.69622 -0.73318,-0.76233 -1.26408,-0.19449c-0.37145,0.53091 -0.63009,1.11434 -0.7779,1.75026c-0.19836,-1.22324 -0.32671,-2.39009 -0.38895,-3.50052z" data-paper-data="{&quot;index&quot;:null}" fill="#fefffe" fill-rule="evenodd" stroke="#000000" stroke-width="1" stroke-linecap="butt" opacity="0.004"/><path d="M505.39897,174.40657c0.17114,10.40629 0.26837,20.84366 0.2917,31.31024c-0.28589,-10.43155 -0.3831,-20.86701 -0.2917,-31.31024z" data-paper-data="{&quot;index&quot;:null}" fill="#689427" fill-rule="evenodd" stroke="#000000" stroke-width="1" stroke-linecap="butt" opacity="0.986"/><path d="M466.50426,174.98999c18.20079,15.83404 36.3199,31.78087 54.35537,47.8405c0.1303,2.20339 0.1303,4.40872 0,6.6121c-18.05883,-16.22493 -36.07875,-32.49654 -54.06365,-48.81287c-0.28589,-0.07196 -0.57759,0.02528 -0.87513,0.2917c-17.92463,16.10825 -35.84732,32.21845 -53.77195,48.3267c-0.1303,-2.13921 -0.1303,-4.27843 0,-6.41763c18.15606,-15.92156 36.27517,-31.86839 54.35537,-47.8405z" data-paper-data="{&quot;index&quot;:null}" fill="#c4c4c4" fill-rule="evenodd" stroke="#000000" stroke-width="1" stroke-linecap="butt"/><path d="M497.42555,328.62412c-0.10113,-24.50367 -0.26448,-49.00735 -0.48618,-73.51103c-0.52702,-3.25743 -1.88833,-6.11034 -4.08395,-8.55683c-3.01822,-3.20687 -6.61599,-5.57168 -10.79328,-7.09828c-9.78592,-3.24187 -19.57572,-3.24187 -29.36552,0c-4.52735,1.75804 -8.38375,4.44955 -11.57118,8.07065c-1.61996,2.20339 -2.59232,4.66736 -2.91711,7.39c-0.25864,20.74255 -0.45312,41.48705 -0.58342,62.23155c-0.00972,3.57638 -0.14002,7.14107 -0.38895,10.69605c-7.47362,0.19447 -14.96086,0.25866 -22.4617,0.19449c0.35783,-33.71201 0.81096,-67.42012 1.36131,-101.12628c1.10267,0 2.2034,0 3.30606,0c-0.03306,-1.16879 0,-2.33562 0.09722,-3.50052c15.74848,-14.03128 31.46972,-28.09756 47.15985,-42.20076c16.20938,14.62247 32.44792,29.20799 48.71564,43.75655c0.44341,34.55019 0.79929,69.1023 1.06961,103.65443c-6.35344,0 -12.70497,0 -19.05841,0z" data-paper-data="{&quot;index&quot;:null}" fill="#6e3232" fill-rule="evenodd" stroke="#000000" stroke-width="1" stroke-linecap="butt"/><path d="M469.03241,174.2121c0.20419,-0.02918 0.39868,0.00388 0.58343,0.09722c11.22113,9.9901 22.50059,19.90827 33.83841,29.75447c3.1252,3.37801 6.49541,6.48958 10.11262,9.33474c0.55036,0.55037 1.10267,1.10268 1.65302,1.65303c1.22128,1.80472 2.51845,3.55497 3.88948,5.25079c0.1303,0.1303 0.1303,0.25866 0,0.38895c-17.34121,-15.26619 -34.68047,-30.53235 -52.02169,-45.79854c0.69038,-0.17114 1.33992,-0.39671 1.94473,-0.68065z" data-paper-data="{&quot;index&quot;:null}" fill="#c4c4c4" fill-rule="evenodd" stroke="#000000" stroke-width="1" stroke-linecap="butt" opacity="0.999"/><path d="M621.69418,181.79655c0.05445,9.46503 0.18281,18.93006 0.38895,28.39314c0.1303,0.06419 0.25866,0.1303 0.38895,0.19449c0.1614,4.66543 0.25866,9.33279 0.2917,14.00211c0.21976,0.64565 0.31699,1.3263 0.2917,2.04198c-0.17502,1.55191 -0.30337,3.10769 -0.38895,4.66736c0.29367,5.3519 0.48812,10.69994 0.58342,16.04408c0.11086,0.9996 0.2392,1.97196 0.38895,2.91711c0.27227,14.92196 0.5309,29.83031 0.77788,44.72893c-1.34381,-37.88735 -2.57484,-75.8097 -3.69499,-113.76705c0.25866,0 0.51925,0 0.7779,0c-0.05252,0.31115 0.0136,0.56979 0.19447,0.77788z" data-paper-data="{&quot;index&quot;:null}" fill="#30756f" fill-rule="evenodd" stroke="#000000" stroke-width="1" stroke-linecap="butt" opacity="0.33"/><path d="M314.62037,221.85812c32.4769,0.12253 64.954,0.21976 97.43128,0.29171c-0.09722,0.09722 -0.19449,0.19449 -0.2917,0.2917c-0.05834,2.33758 -0.15557,4.67125 -0.2917,7.00106c-32.34757,-0.12059 -64.69495,-0.25087 -97.04233,-0.38894c0.09568,-2.39787 0.16044,-4.79573 0.19448,-7.19553z" data-paper-data="{&quot;index&quot;:null}" fill="#365c43" fill-rule="evenodd" stroke="#000000" stroke-width="1" stroke-linecap="butt"/><path d="M516.09501,225.7476c0.85958,0.56785 1.63746,1.24852 2.33368,2.04199c-0.77596,0.09722 -1.55384,0.13029 -2.33368,0.09722c0,-0.71372 0,-1.42549 0,-2.1392z" data-paper-data="{&quot;index&quot;:null}" fill="#3f581b" fill-rule="evenodd" stroke="#000000" stroke-width="1" stroke-linecap="butt"/><path d="M418.66375,224.58076c0.19059,0.60676 0.25475,1.2563 0.19449,1.94473c-0.77984,0.03306 -1.55775,0 -2.33369,-0.09722c0.75067,-0.58925 1.46439,-1.20574 2.13922,-1.8475z" data-paper-data="{&quot;index&quot;:null}" fill="#d7d6d3" fill-rule="evenodd" stroke="#000000" stroke-width="1" stroke-linecap="butt"/><path d="M415.35769,227.10891c0.19059,0.73901 0.25671,1.5169 0.19449,2.33369c-0.91014,0.03306 -1.81833,0 -2.72263,-0.09723c0.88098,-0.71956 1.72304,-1.46438 2.52816,-2.23645z" data-paper-data="{&quot;index&quot;:null}" fill="#3f581b" fill-rule="evenodd" stroke="#000000" stroke-width="1" stroke-linecap="butt"/><path d="M516.09501,228.27575c1.03849,-0.03306 2.07698,0.00001 3.11158,0.09725c0.62622,0.72538 1.33993,1.33993 2.13921,1.8475c0.19253,-0.63593 0.2567,-1.28353 0.19447,-1.94474c33.38529,0.1517 66.76862,0.28199 100.15391,0.38895c0.86931,27.48885 1.7775,54.9738 2.72264,82.45681c-35.8473,-0.19836 -71.69658,-0.39285 -107.54389,-0.58343c-0.32283,-27.41883 -0.58343,-54.83962 -0.7779,-82.26233z" data-paper-data="{&quot;index&quot;:null}" fill="#365c43" fill-rule="evenodd" stroke="#000000" stroke-width="1" stroke-linecap="butt"/><path d="M323.9551,229.63707c29.34686,-0.00582 58.68008,0.12252 87.99931,0.38894c1.18239,-0.19059 2.38035,-0.25474 3.59776,-0.19448c-0.38312,25.28155 -0.70788,50.56313 -0.97237,75.8447c-31.05102,-0.17892 -62.10202,-0.37339 -93.15285,-0.58342c0.8343,-25.15127 1.67713,-50.3045 2.52815,-75.45576z" data-paper-data="{&quot;index&quot;:null}" fill="#365c43" fill-rule="evenodd" stroke="#000000" stroke-width="1" stroke-linecap="butt"/><path d="M623.24997,247.13969c0.12058,0.0214 0.21781,0.08556 0.2917,0.19447c0.09723,0.90431 0.1303,1.8125 0.09723,2.72263c-0.14974,-0.94514 -0.2781,-1.9175 -0.38895,-2.91711z" data-paper-data="{&quot;index&quot;:null}" fill="#090909" fill-rule="evenodd" stroke="#000000" stroke-width="1" stroke-linecap="butt" opacity="0.004"/><path d="M521.92923,342.23728c-0.97238,0 -1.94474,0 -2.91711,0c0.0214,-0.12058 0.08558,-0.21781 0.19448,-0.2917c0.45312,-0.03306 0.9082,-0.06418 1.36131,-0.09723c0.53869,0.00584 0.99182,0.13614 1.36131,0.38894z" data-paper-data="{&quot;index&quot;:null}" fill="#000000" fill-rule="evenodd" stroke="#000000" stroke-width="1" stroke-linecap="butt" opacity="0.004"/><path d="M414.55058,306.27929l-93.07708,-1.32588l0.26519,-19.35792l93.87262,-1.59106z" data-paper-data="{&quot;index&quot;:null}" fill="#6e3232" fill-rule="nonzero" stroke="#000000" stroke-width="1" stroke-linecap="round"/><path d="M517.50552,288.24727l106.60111,-2.38659l0.79554,26.25251l-108.19217,-1.85623z" data-paper-data="{&quot;index&quot;:null}" fill="#6e3232" fill-rule="nonzero" stroke="#000000" stroke-width="1" stroke-linecap="round"/><path d="M451.14501,327.75861l3.12875,-60.52662l3.12876,-10.3419l5.84036,-6.8946l6.25753,-0.79554l7.92621,2.91695l5.21461,5.83389l2.7116,6.36424l-1.87725,64.43798z" data-paper-data="{&quot;index&quot;:null}" fill="#6e3426" fill-rule="nonzero" stroke="#000000" stroke-width="1" stroke-linecap="round"/><path d="M338.97518,286.39102l0.26519,-56.74786l57.01303,0.26518l-0.53035,54.62644z" data-paper-data="{&quot;index&quot;:null}" fill="#363c5c" fill-rule="nonzero" stroke="#000000" stroke-width="1" stroke-linecap="round"/><path d="M543.42655,288.24727l-2.12141,-59.92998h58.60409l2.38659,58.07374z" data-paper-data="{&quot;index&quot;:null}" fill="#363c5c" fill-rule="nonzero" stroke="#000000" stroke-width="1" stroke-linecap="round"/><path d="M601.76547,199.21412l-72.12811,-0.26518l-1.0607,-69.47634l71.59776,-1.32588l1.0607,64.96835z" data-paper-data="{&quot;index&quot;:null}" fill="#363c5c" fill-rule="nonzero" stroke="#000000" stroke-width="1" stroke-linecap="round"/><path d="M339.57183,207.69979l3.97765,-67.08975h67.35493l-4.24283,68.41565z" data-paper-data="{&quot;index&quot;:null}" fill="#363c5c" fill-rule="nonzero" stroke="#000000" stroke-width="1" stroke-linecap="round"/><path d="M431.74068,128.6102l7.15977,6.36424l61.52104,-0.53035l4.50801,-4.77318l1.0607,1.32588l-0.53035,76.10576l-36.32924,-33.41228l-2.38659,0.79554l-36.85959,32.0864z" data-paper-data="{&quot;index&quot;:null}" fill="#365c43" fill-rule="nonzero" stroke="#000000" stroke-width="1" stroke-linecap="round"/><path d="M502.88905,125.46564c0.30311,1.98367 0.40413,4.02488 0.30616,6.12335c-1.93804,0 -3.87822,0 -5.81719,0c1.77883,-0.3031 3.61585,-0.40505 5.51102,-0.30616c0,-1.93896 0,-3.87822 0,-5.81718z" fill="#878787" fill-rule="evenodd" stroke="none" stroke-width="1" stroke-linecap="butt"/><path d="M499.5212,132.50749c1.16283,-0.30096 2.38811,-0.40323 3.67401,-0.30616c0,1.32663 0,2.65355 0,3.98017c-0.30004,-1.16283 -0.40413,-2.3875 -0.30616,-3.674c-1.12363,0 -2.24513,0 -3.36784,0z" fill="#b0b0b0" fill-rule="evenodd" stroke="none" stroke-width="1" stroke-linecap="butt"/><path d="M427.57178,185.47454c-0.09737,1.38755 0.00459,2.71449 0.30617,3.98017c-0.08664,0.24155 -0.23972,0.44577 -0.45924,0.61234c-0.24984,-1.58717 -0.19902,-3.11801 0.15308,-4.59252z" fill="#8b8b8b" fill-rule="evenodd" stroke="none" stroke-width="1" stroke-linecap="butt"/><path d="M479.81729,135.03958c5.27259,-0.03752 9.78737,5.01207 10.08411,11.27855c0.29673,6.26649 -3.73698,11.37693 -9.00958,11.41442c-5.27259,0.03752 -9.78737,-5.01206 -10.08411,-11.27854c-0.29673,-6.26649 3.73698,-11.37694 9.00958,-11.41442z" data-paper-data="{&quot;index&quot;:null}" fill="#ffffff" fill-rule="nonzero" stroke="#000000" stroke-width="1" stroke-linecap="butt"/><path d="M452.93028,135.23098c5.27259,-0.03752 9.78737,5.01206 10.08411,11.27854c0.29672,6.26649 -3.73698,11.37693 -9.00958,11.41445c-5.27259,0.03752 -9.78737,-5.01207 -10.08413,-11.27855c-0.29672,-6.26649 3.73698,-11.37693 9.00958,-11.41442z" data-paper-data="{&quot;index&quot;:null}" fill="#ffffff" fill-rule="nonzero" stroke="#000000" stroke-width="1" stroke-linecap="butt"/><path d="M451.53063,146.29494c0,-1.56702 1.27031,-2.83731 2.83732,-2.83731c1.56702,0 2.83732,1.27031 2.83732,2.83731c0,1.56702 -1.27031,2.83732 -2.83732,2.83732c-1.56702,0 -2.83732,-1.27031 -2.83732,-2.83732z" data-paper-data="{&quot;index&quot;:null}" fill="#000000" fill-rule="nonzero" stroke="none" stroke-width="1" stroke-linecap="butt"/><path d="M476.46563,145.94696c0,-1.56702 1.27031,-2.83732 2.83732,-2.83732c1.56702,0 2.83732,1.27031 2.83732,2.83732c0,1.56702 -1.27031,2.83732 -2.83732,2.83732c-1.56702,0 -2.83732,-1.27031 -2.83732,-2.83732z" data-paper-data="{&quot;index&quot;:null}" fill="#000000" fill-rule="nonzero" stroke="none" stroke-width="1" stroke-linecap="butt"/><path d="M402.9456,86.32956c0.75738,-1.00984 1.76722,-0.25246 1.76722,-0.25246l1.63786,1.22878c7.40989,6.08483 14.73067,12.24464 21.98511,18.5139c8.00047,6.91399 16.55515,13.09272 25.09789,19.31941c3.08661,2.24979 5.82693,5.05473 8.98495,7.14824c0,0 1.0503,0.7002 0.3501,1.7505c-0.7002,1.0503 -1.7505,0.3501 -1.7505,0.3501c-3.18612,-2.13461 -5.95064,-4.93384 -9.0716,-7.20866c-8.59923,-6.26786 -17.20813,-12.48966 -25.26159,-19.44944c-7.2245,-6.2434 -14.51595,-12.37638 -21.89336,-18.43832l-1.59364,-1.19483c0,0 -1.00984,-0.75738 -0.25246,-1.76722z" fill="#000000" fill-rule="nonzero" stroke="none" stroke-width="0.5" stroke-linecap="butt"/><path d="M514.75339,89.14801c0.56452,1.12904 -0.56452,1.69355 -0.56452,1.69355l-0.59742,0.27131c-4.0659,3.16034 -7.48505,6.66756 -10.97433,10.47428c-6.82189,7.44207 -12.84328,15.63077 -19.48082,23.26102c-2.59568,2.98389 -5.01216,6.99166 -8.53327,8.81071c0,0 -1.12904,0.56452 -1.69355,-0.56452c-0.56452,-1.12904 0.56452,-1.69355 0.56452,-1.69355c3.13063,-1.49679 5.47806,-5.5892 7.75754,-8.2096c6.65202,-7.64688 12.6874,-15.85129 19.52456,-23.31001c3.58294,-3.90841 7.11043,-7.51179 11.28538,-10.76114l1.01834,-0.53657c0,0 1.12904,-0.56452 1.69355,0.56452z" fill="#000000" fill-rule="nonzero" stroke="none" stroke-width="0.5" stroke-linecap="butt"/><path d="M492.68402,152.4885c0.71407,-0.71407 1.42813,0 1.42813,0l0.44162,0.51491c2.78391,5.56782 1.02453,13.24938 -2.05698,18.39096c-5.13984,8.5627 -15.03078,14.40598 -25.26908,14.35496c-3.44597,-0.01717 -6.66432,-1.39877 -9.83023,-2.58812c-10.02362,-5.01946 -16.78151,-13.7543 -19.51059,-24.6645c0,0 -0.24493,-0.97969 0.73477,-1.22461c0.97969,-0.24493 1.22461,0.73477 1.22461,0.73477c2.56769,10.27677 8.90089,18.58129 18.35852,23.30303c2.90043,1.08556 5.87328,2.40213 9.02889,2.41977c9.53411,0.05332 18.75695,-5.41366 23.53126,-13.3744c2.73504,-4.55304 4.45018,-11.51305 1.98239,-16.44861l-0.0633,0.00999c0,0 -0.71407,-0.71407 0,-1.42813z" fill="#000000" fill-rule="nonzero" stroke="none" stroke-width="0.5" stroke-linecap="butt"/></g></g></svg>