<svg version="1.1" xmlns="http://www.w3.org/2000/svg" xmlns:xlink="http://www.w3.org/1999/xlink" width="673.33515" height="368.36637" viewBox="0,0,673.33515,368.36637"><g transform="translate(19.01742,2.08108)"><g data-paper-data="{&quot;isPaintingLayer&quot;:true}" fill-rule="nonzero" stroke-linecap="butt" stroke-linejoin="miter" stroke-miterlimit="10" stroke-dasharray="" stroke-dashoffset="0" style="mix-blend-mode: normal"><path d="M-18.01742,365.28528v-366.36636h671.33515v366.36637z" fill="#000000" stroke="#000000" stroke-width="2"/><path d="M312.53607,66.23694c-1.11803,2.23607 -3.3541,1.11803 -3.3541,1.11803l-2.45635,-1.30295c-0.79917,-0.32378 -1.55403,-0.79232 -2.39751,-0.97135c-0.50137,-0.10642 1.08309,0.30626 1.3436,0.74765c0.60265,1.0211 0.92073,2.21148 1.09505,3.38427c0.4048,2.72329 -0.19826,5.63732 0.73742,8.22666c0.25148,0.69591 0.65101,1.57246 1.3702,1.74652c0.65992,0.15972 1.1422,-0.76142 1.78395,-0.98313c0.6782,-0.2343 1.41416,-0.24401 2.12125,-0.36602c1.99722,-1.5984 4.00345,-3.11352 5.98189,-4.68825c1.12987,-0.89931 3.62165,-3.93578 4.73523,-4.76172c0.85046,-0.63079 2.06064,-0.72188 2.82269,-1.45703c0.36731,-0.35435 -1.0979,0.48813 -1.51819,0.19858c-1.54888,-1.06704 -2.81366,-2.5226 -3.98796,-3.99183c-0.83894,-1.04964 -1.213,-2.41087 -2,-3.5c-1.81336,-2.50951 -4.13441,-3.52481 -4.89507,-6.32058c-0.47985,0.72263 -1.16895,1.32455 -1.75534,1.9704c-1.91828,2.11279 -4.27109,3.91766 -6.28557,5.94789c0.68552,0.02721 1.36121,0.03293 1.99713,-0.04832l3.54365,1.69705c0,0 2.23607,1.11803 1.11803,3.3541zM300.81362,67.12462c-0.4541,0.09466 -0.99798,0.04719 -1.63165,-0.26965c-2.23607,-1.11803 -1.11803,-3.3541 -1.11803,-3.3541c2.64285,-5.10949 8.07464,-9.85156 12.25974,-13.91302c1.11667,-1.08368 2.11051,-3.39858 3.60512,-2.96562c2.21716,0.64226 2.95124,3.55039 4.45605,5.30077c1.3959,1.6237 3.13759,2.9503 4.40192,4.67842c1.6364,2.23667 3.07967,4.66437 5.08311,6.57924c1.1151,1.0658 3.55788,1.59202 3.41074,3.12751c-0.22385,2.33607 -2.74855,3.80908 -4.24838,5.61403c-3.37811,4.06534 -7.9621,7.40461 -12.21181,10.47896c-2.37129,0.52223 -4.81454,2.48518 -7.09481,1.65086c-6.69725,-2.45045 -5.16946,-8.78118 -5.89238,-14.02682c-0.09298,-0.67465 -0.55778,-1.74755 -1.01962,-2.90059z" fill="#00ffeb" stroke="none" stroke-width="0.5"/><path d="M374.90433,97.12357c0.47329,0.03322 2.39567,0.30309 2.39567,2.49534c0,2.5 -2.5,2.5 -2.5,2.5l-1.61803,-0.26393c-6.64529,-3.32498 -12.64632,-7.64556 -19.51121,-10.50564c-4.1503,-2.49329 -8.64681,-4.79083 -12.45573,-7.79707c-1.57311,-1.2416 -2.94388,-2.77222 -4.67839,-3.77606c-1.13207,-0.65518 -7.37283,-3.84924 -7.22968,-5.47097c0.19832,-2.24673 2.85591,-3.50633 4.4834,-5.06787c3.05598,-2.93215 4.78784,-3.56714 8.42098,-5.48848c4.34033,-2.29532 7.02304,-4.93288 10.93037,-7.85794c6.40595,-4.79554 13.35648,-9.79663 20.64294,-13.05656c0,0 2.28453,-1.01535 3.29988,1.26918c1.01535,2.28453 -1.26918,3.29988 -1.26918,3.29988c-6.94642,3.06464 -13.58606,7.93203 -19.67756,12.49044c-2.41433,1.8067 -4.42033,4.14728 -6.9428,5.79964c-2.69424,1.76487 -5.83862,2.76709 -8.53756,4.52477c-1.66598,1.08497 -3.23901,2.47456 -5.04525,3.26625c0.58083,0.29676 5.7611,3.29457 6.22635,3.66386c4.55,3.61149 9.06838,6.7004 14.09071,9.74008c6.68379,2.78519 12.53818,6.95431 18.97509,10.23509z" fill="#00ffeb" stroke="none" stroke-width="0.5"/><path d="M316.8,155.11891c-2.5,0 -2.5,-2.5 -2.5,-2.5v-0.5c0.00082,-10.02598 0.83968,-19.84528 2.09842,-29.77814c0.64033,-7.68629 1.42625,-15.38795 2.3345,-23.04821c0.27037,-2.28038 0.51977,-9.22511 3.27,-10.54318c1.4601,-0.69976 3.10444,1.05844 4.43509,1.98089c0.05114,0.03545 7.1924,7.18595 7.21383,7.20914c8.16355,8.83226 12.30578,20.29937 22.53492,27.09937c0,0 2.08013,1.38675 0.69338,3.46688c-1.38675,2.08013 -3.46688,0.69338 -3.46688,0.69338c-9.7892,-6.54326 -14.14673,-16.55684 -21.42427,-25.41249c-1.71143,-2.08255 -3.5869,-4.0287 -5.49228,-5.93541c-0.64087,-0.64131 -1.36071,-1.21819 -2.02244,-1.8426c-0.14408,1.26947 -0.64296,2.73154 -0.77559,3.86822c-0.8917,7.64238 -1.68846,15.31904 -2.32755,22.98574c-1.23487,9.76244 -2.07196,19.40194 -2.07112,29.2564v0.5c0,0 0,2.5 -2.5,2.5z" fill="#00ffeb" stroke="none" stroke-width="0.5"/><path d="M240.21988,133.00566c-1.38675,-2.08013 0.69338,-3.46688 0.69338,-3.46688l1.83975,-1.2265c2.7386,-1.82383 5.88305,-4.94343 8.87256,-6.40034c1.34647,-0.65619 2.90384,-0.81015 4.24118,-1.48473c2.92835,-1.47713 5.34815,-3.8133 8.17845,-5.47058c6.73352,-3.94281 13.41758,-7.50512 19.89644,-11.93649c3.91776,-2.39666 7.65422,-4.91562 11.4598,-7.47343c3.87146,-2.60209 12.12604,-8.4704 13.89857,0.07219c0.34912,1.68258 -1.89029,3.03226 -2.01217,4.74634c-0.60363,8.48916 -5.01331,17.18531 -8.08824,25.10648c-1.98649,5.1173 -4.44791,10.03136 -4.39959,15.64718c0,0 0,2.5 -2.5,2.5c-2.5,0 -2.5,-2.5 -2.5,-2.5c0.04329,-6.30834 2.50077,-11.69146 4.73844,-17.45649c2.24255,-5.77761 4.61103,-11.64875 6.59736,-17.52941c0.43267,-1.28094 0.94105,-2.54861 1.19074,-3.87739c0.31032,-1.65146 -0.32611,-4.015 0.58809,-5.52269c-0.40505,0.25968 -0.79675,0.50116 -1.04939,0.64767c-1.24971,0.72472 -2.47265,1.49729 -3.66667,2.3105c-3.8185,2.60065 -7.59341,5.11453 -11.5402,7.52657c-6.54518,4.47988 -13.29788,8.08644 -20.10356,12.06351c-0.97272,0.56843 -7.65089,5.21025 -8.46256,5.62342c-1.29405,0.65872 -2.80216,0.80682 -4.11781,1.42126c-2.76824,1.29284 -5.96874,4.49221 -8.44795,6.14667l-1.83975,1.2265c0,0 -2.08013,1.38675 -3.46688,-0.69338z" fill="#00ffeb" stroke="none" stroke-width="0.5"/><path d="M215.3,61.61891c0,-2.5 2.5,-2.5 2.5,-2.5h0.5c4.0085,0 8.15391,-0.26476 12.15534,0.00483c6.25951,0.42173 12.3694,2.28452 18.61216,3.00952c6.76262,0.78538 13.45719,1.1498 20.19027,2.22709c6.0721,0.97604 13.96406,2.07066 19.47202,4.93789c1.68014,0.87462 4.12014,1.5727 4.53793,3.42021c0.37502,1.65838 -1.69638,2.97023 -2.80041,4.26328c-0.91886,1.07617 -5.1827,3.82147 -6.05137,4.54473c-4.48286,3.73246 -9.19148,6.4068 -14.25409,9.38107c-3.98193,2.33937 -7.41598,5.57622 -11.57938,7.6537c-4.48975,2.24032 -9.41737,3.52659 -14.29218,4.50913c0,0 -2.45145,0.49029 -2.94174,-1.96116c-0.49029,-2.45145 1.96116,-2.94174 1.96116,-2.94174c12.48966,-2.47692 22.19958,-9.94548 32.67596,-16.67518c3.13506,-2.01387 5.75923,-4.0852 8.80635,-6.36737c0.52058,-0.38989 0.97035,-0.88988 1.47202,-1.30507c-1.33988,-0.31008 -2.61697,-0.88733 -3.94132,-1.2709c-4.62373,-1.33917 -9.1028,-2.49478 -13.85491,-3.25139c-6.64855,-1.06377 -13.25673,-1.41926 -19.93532,-2.193c-6.16192,-0.71388 -12.21434,-2.58377 -18.38784,-2.99048c-3.9,-0.25693 -7.93834,0.00483 -11.84466,0.00483h-0.5c0,0 -2.5,0 -2.5,-2.5z" fill="#00ffeb" stroke="none" stroke-width="0.5"/><path d="M254.89839,10.07799c-0.70668,-0.12023 -2.09838,-0.59381 -2.09838,-2.45909c0,-2.5 2.5,-2.5 2.5,-2.5l2,0.5c6.25226,4.742 9.54737,11.67964 13.17941,18.27519c2.00822,3.64679 2.8239,7.70171 5.08312,11.28894c3.09287,4.91092 7.6871,9.25731 10.36561,14.41411l2.88928,4.04499c0.3034,0.41378 0.48258,0.92435 0.48258,1.47677c0,1.38071 -1.11929,2.5 -2.5,2.5c-0.32189,0 -0.62958,-0.06084 -0.91218,-0.17164l-3.98467,-1.45561c-15.62887,-2.63922 -31.22806,-5.63683 -46.03163,-11.55156c0,0 -2.32119,-0.92848 -1.39272,-3.24967c0.92848,-2.32119 3.24967,-1.39272 3.24967,-1.39272c13.79068,5.52286 28.28927,8.36655 42.8358,10.9063c-2.42018,-2.49538 -4.20278,-5.88084 -6.21843,-8.67478c-4.00943,-5.55759 -6.7462,-11.72603 -9.7603,-17.75006c-2.63824,-5.27285 -4.92976,-10.41598 -9.68717,-14.20118z" fill="#00ffeb" stroke="none" stroke-width="0.5"/><path d="M323.41804,-1.11716c2.23607,1.11803 1.11803,3.3541 1.11803,3.3541l-0.47468,0.94785c-3.38851,7.18735 -5.70629,14.76158 -8.98816,21.97452c-1.05462,2.31786 -2.57807,4.42667 -3.42851,6.82696c-0.81636,2.30407 -1.69363,4.58698 -2.46726,6.90574c-0.30998,0.9291 -0.01868,2.03122 -0.46992,2.90053c-0.04159,0.08012 -0.08447,0.15941 -0.12855,0.23796l0.04221,0.01688l-0.97837,2.44593c-0.35452,0.94948 -1.26971,1.62559 -2.34282,1.62559c-0.98035,0 -1.8289,-0.56428 -2.23858,-1.38577l-1.1568,-2.20678c-2.63369,-3.98283 -3.84821,-8.08327 -6.25788,-12.13722c-4.04149,-6.79927 -8.96693,-13.49931 -13.82012,-19.73538c0,0 -1.53485,-1.97338 0.43853,-3.50823c1.97338,-1.53485 3.50823,0.43853 3.50823,0.43853c4.9744,6.39939 10.05403,13.27697 14.17988,20.26462c1.83342,3.10513 2.95616,6.19923 4.55518,9.24919c0.49248,-0.98309 1.1364,-1.97675 1.44685,-2.84633c0.4621,-1.29435 0.53473,-2.70678 1,-4c0.90423,-2.51328 2.46382,-4.74254 3.57149,-7.17304c3.29303,-7.22575 5.61688,-14.82101 9.01184,-22.02548l0.52532,-1.05215c0,0 1.11803,-2.23607 3.3541,-1.11803z" fill="#00ffeb" stroke="none" stroke-width="0.5"/><path d="M388.06777,18.85114c1.76777,1.76777 0,3.53553 0,3.53553l-1.83929,1.55342c-8.10486,3.21186 -16.20216,7.10428 -23.58109,11.78465c-8.74541,5.54711 -15.62442,14.23546 -25.43549,18.22192c-1.49506,0.60748 -2.98615,0.90001 -4.48863,1.02806l-4.8283,1.07296c-0.19068,0.04655 -0.38994,0.07123 -0.59496,0.07123c-1.38071,0 -2.5,-1.11929 -2.5,-2.5c0,-0.59805 0.20999,-1.14705 0.56027,-1.57729l1.9193,-2.39913c2.3061,-3.70098 4.01481,-7.73954 6.32434,-11.41434c6.52885,-10.38835 15.86691,-18.82734 22.61596,-28.99599c0,0 1.38675,-2.08013 3.46688,-0.69338c2.08013,1.38675 0.69338,3.46688 0.69338,3.46688c-6.76477,10.10605 -16.04215,18.5386 -22.5428,28.88298c-1.78187,2.83546 -3.22345,5.87918 -4.84016,8.82816c0.80535,-0.11025 1.64591,-0.12174 2.39094,-0.42565c0.42,-0.17133 7.82293,-4.68748 8.07268,-4.86018c5.71102,-3.94917 10.64856,-9.1888 16.49183,-12.9179c7.63925,-4.87527 16.03631,-8.83543 24.41891,-12.21535l0.16071,-0.44658c0,0 1.76777,-1.76777 3.53553,0z" fill="#00ffeb" stroke="none" stroke-width="0.5"/><text transform="translate(132.175,227.01573) scale(1.44069,1.44069)" font-size="40" xml:space="preserve" fill="#00ffeb" fill-rule="nonzero" stroke="none" stroke-width="1" stroke-linecap="butt" stroke-linejoin="miter" stroke-miterlimit="10" stroke-dasharray="" stroke-dashoffset="0" font-family="&quot;Gord&quot;, Serif" font-weight="normal" text-anchor="start" style="mix-blend-mode: normal"><tspan x="0" dy="0">You Got Frozed</tspan></text><text transform="translate(126.8,267.74391) scale(0.99837,0.99837)" font-size="40" xml:space="preserve" fill="#00ffeb" fill-rule="nonzero" stroke="#00ffeb" stroke-width="3" stroke-linecap="butt" stroke-linejoin="miter" stroke-miterlimit="10" stroke-dasharray="" stroke-dashoffset="0" font-family="Serif" font-weight="normal" text-anchor="start" style="mix-blend-mode: normal"><tspan x="0" dy="0">Wait 15 Seconds</tspan></text></g></g></svg>