<svg version="1.1" xmlns="http://www.w3.org/2000/svg" xmlns:xlink="http://www.w3.org/1999/xlink" width="123" height="108" viewBox="0,0,123,108"><g transform="translate(-258.5,-126)"><g data-paper-data="{&quot;isPaintingLayer&quot;:true}" fill-rule="nonzero" stroke-linecap="butt" stroke-linejoin="miter" stroke-miterlimit="10" stroke-dasharray="" stroke-dashoffset="0" style="mix-blend-mode: normal"><path d="M259,233.5v-107h122v107z" fill="#008bff" stroke="#000000" stroke-width="1"/><text transform="translate(265.78751,150.52501) scale(0.59751,0.59751)" font-size="40" xml:space="preserve" fill="#000000" fill-rule="nonzero" stroke="none" stroke-width="1" stroke-linecap="butt" stroke-linejoin="miter" stroke-miterlimit="10" stroke-dasharray="" stroke-dashoffset="0" font-family="&quot;Gord&quot;, Serif" font-weight="normal" text-anchor="start" style="mix-blend-mode: normal"><tspan x="0" dy="0">$45</tspan></text><text transform="translate(300.98963,217.44129) scale(0.3785,0.3785)" font-size="40" xml:space="preserve" fill="#ff0000" fill-rule="nonzero" stroke="#000000" stroke-width="2" stroke-linecap="butt" stroke-linejoin="miter" stroke-miterlimit="10" stroke-dasharray="" stroke-dashoffset="0" font-family="&quot;Crystal Universe Regular&quot;, Sans Serif" font-weight="normal" text-anchor="start" style="mix-blend-mode: normal"><tspan x="0" dy="0">Multi</tspan></text><path d="M290.06593,205.72676c-2.23607,-1.11803 -1.11803,-3.3541 -1.11803,-3.3541l0.54397,-1.08236c2.02792,-4.54765 4.34532,-9.02085 7.91235,-12.58488c2.9207,-2.91825 6.56817,-5.24199 9.83657,-7.92116c-1.90583,-3.41678 -3.47365,-6.98505 -5.49744,-10.35763c-1.38421,-2.30676 -3.34719,-4.22983 -4.74493,-6.52842c-0.91776,-1.50927 -1.34135,-3.27192 -2.13347,-4.85076c0,0 -1.11803,-2.23607 1.11803,-3.3541c2.23607,-1.11803 3.3541,1.11803 3.3541,1.11803c0.74864,1.50193 1.12962,3.18688 2.00847,4.61652c1.40097,2.279 3.34609,4.19509 4.72235,6.48909c1.82128,3.03578 3.243,6.24675 4.90938,9.34551c0.65073,-0.73339 1.25581,-1.50765 1.80096,-2.33502c2.7325,-4.14708 3.77633,-8.80768 5.70838,-13.27846c1.52212,-3.5222 3.95127,-6.34924 5.26713,-9.92276c0,0 0.87781,-2.34082 3.21863,-1.46301c2.34082,0.87781 1.46301,3.21863 1.46301,3.21863c-1.38918,3.65058 -3.81764,6.55058 -5.35581,10.14317c-2.06052,4.81261 -3.26641,9.71523 -6.20863,14.17466c-0.93709,1.42032 -2.02997,2.68985 -3.21875,3.86546c0.16503,0.23454 0.33365,0.46745 0.5062,0.6986c3.24827,4.35138 6.84154,8.38909 9.87436,12.93558l1.10529,2.47292c0,0 0.9848,2.29786 -1.31306,3.28266c-2.29786,0.9848 -3.28266,-1.31306 -3.28266,-1.31306l-0.66982,-1.66902c-2.97802,-4.46984 -6.52325,-8.42238 -9.70958,-12.70305c-0.10076,-0.13536 -0.20026,-0.27128 -0.29856,-0.40772c-3.02529,2.39336 -6.24013,4.59176 -8.92461,7.27889c-3.12717,3.13025 -5.10652,7.09415 -6.88028,11.08332l-0.63944,1.28446c0,0 -1.11803,2.23607 -3.3541,1.11803z" fill="#ffffff" stroke="none" stroke-width="0.5"/><path d="M374.15585,197.86949c0,2.5 -2.5,2.5 -2.5,2.5h-0.59171c-6.34904,-0.0005 -12.06075,0.72109 -18.30479,-0.7688c-0.94272,-0.26351 -9.15064,-2.50188 -9.93717,-2.95205c-2.18305,-1.24946 -5.33774,-2.23815 -5.91423,-4.68651c-0.46061,-1.95619 5.0601,-4.04702 6.43077,-5.04789c3.29627,-2.40695 6.82511,-5.43603 9.57935,-8.45041c0.64056,-0.70106 2.85475,-3.40339 2.92449,-4.57625c0.03589,-0.60354 -2.47909,-4.13124 -2.4906,-4.14699c-0.87524,-1.1982 -3.97062,-5.39888 -5.43571,-6.39453c-2.88142,-1.95816 -8.26994,0.10474 -10.55855,1.90869c0,0 -2,1.5 -3.5,-0.5c-1.5,-2 0.5,-3.5 0.5,-3.5c4.10263,-2.97153 11.20846,-5.20072 16.06818,-2.23324c2.23073,1.36214 5.48174,5.72453 6.99009,7.80639c1.19218,1.64547 3.50904,4.98026 3.42645,7.0954c-0.22658,5.80286 -6.73443,10.52654 -10.68714,13.75698c-1.33955,1.09478 -2.56828,2.32885 -3.96915,3.34398c-0.36444,0.26409 -0.73193,0.54442 -1.11243,0.79987c3.10635,0.54216 6.9501,2.38009 8.93959,2.93636c5.78587,1.38251 11.14295,0.60946 17.05086,0.60901h0.59171c0,0 2.5,0 2.5,2.5z" fill="#ffffff" stroke="none" stroke-width="0.5"/></g></g></svg>