<svg version="1.1" xmlns="http://www.w3.org/2000/svg" xmlns:xlink="http://www.w3.org/1999/xlink" width="964.73382" height="480.36492" viewBox="0,0,964.73382,480.36492"><g transform="translate(189.36692,-49.77917)"><g data-paper-data="{&quot;isPaintingLayer&quot;:true}" stroke="#ff0000" stroke-linejoin="miter" stroke-miterlimit="10" stroke-dasharray="" stroke-dashoffset="0" style="mix-blend-mode: normal"><path d="M450.8351,475.52473l-24.36006,-38.88037l115.71037,0.34407l41.41212,38.5363z" data-paper-data="{&quot;index&quot;:null}" fill="#000000" fill-rule="nonzero" stroke-width="1.5" stroke-linecap="round"/><path d="M594.60378,473.50417c-3.13165,0.42619 -6.21038,0.67005 -9.25833,0.84586c0.0206,0.06548 0.0313,0.13376 0.0313,0.20499c0,1.7353 -6.37569,1.7353 -6.37569,1.7353c-28.15944,0 -56.31883,0 -84.47823,0c-7.24622,0 -25.27674,-0.78728 -30.62118,0.25064c-3.07851,0.59783 -5.2824,0.53869 -9.22706,0.61703c-0.44528,0.00884 -1.25511,0.02777 -1.97062,0.03941c3.81437,0.74116 1.97062,7.59036 1.97062,9.50481c0,8.09813 0,16.19627 0,24.2944c0,1.44608 0,2.89221 0,4.33827c0,0.57844 -1.12135,2.22669 0,1.7353c4.26631,-1.86939 12.59226,-0.86429 22.315,-0.86764c19.1656,-0.0066 39.68446,-0.56442 58.50806,0.37401c34.37317,1.87109 71.32982,-1.11836 105.42871,0.96631c28.71903,1.95415 63.09718,2.13025 92.68578,2.13025c7.43841,0 14.87669,0 22.31504,0c1.11916,0 2.87638,-0.04103 4.69577,-0.08599c-1.83016,-0.89018 0.08605,-3.04289 0.08605,-4.2523c0,-4.51795 5.56424,-12.31141 -1.2667,-16.37054c-6.03651,-4.92898 -9.85512,-9.67461 -19.70199,-14.59026c-7.26533,-3.62699 -18.57533,-6.842 -24.58663,-10.44479c-2.91431,-2.14725 -5.52325,-0.61261 -15.01382,-1.10957c-21.00025,-1.09961 -42.0625,-0.86766 -63.75717,-0.86766c-7.90788,0 -17.83948,0.437 -25.50293,0c-1.61767,-0.09223 -4.65789,-0.43515 -6.93668,-0.71599c4.16805,0.87643 -5.34274,1.72427 -9.3392,2.26812zM494.5225,472.81975c21.282,0 42.56407,0 63.84607,0c0.61396,-0.08353 1.22771,-0.16707 1.84163,-0.25064c8.08648,-1.10047 15.38721,-0.80882 22.31506,-1.30149c9.44128,-0.67137 15.08858,-2.93241 24.82981,-3.47063c5.59592,-0.30917 21.09485,0.68445 29.02724,0.68445c21.50905,0 42.99449,-0.33476 63.75717,0.86766c11.66364,0.67546 21.5208,-0.64137 26.9753,3.37758c0.80409,1.52666 7.23988,2.48086 10.60598,3.65526c5.1442,1.79478 9.44387,4.45286 13.42451,6.44c9.86799,4.92621 14.20692,9.99303 20.39396,15.04488c5.5291,5.32507 1.9211,11.92839 1.9211,17.46806c0,3.06267 1.77345,5.22125 -6.37569,7.80893c-2.84177,0.90236 -29.09484,0 -33.47251,0c-30.51928,0 -66.1789,-0.21983 -95.7785,-2.23391c-32.51782,-2.587 -71.22542,0.89953 -104.83681,-0.93011c-27.0854,-1.66048 -68.89271,2.76292 -91.07367,-2.90959c-2.19603,-0.56162 0,-5.14886 0,-6.07359c0,-8.09813 0,-16.19623 0,-24.29436c0,-2.70751 -4.38505,-9.17181 2.2671,-11.18797c11.60853,-3.51842 33.33398,-2.69455 50.33246,-2.69455z" data-paper-data="{&quot;index&quot;:null}" fill="#000000" fill-rule="nonzero" stroke-width="1.5" stroke-linecap="butt"/><path d="M585.25654,474.26664c3.04783,-0.17581 6.16375,-0.42198 9.29553,-0.84815c3.99647,-0.54385 13.54503,-1.3927 9.37691,-2.26914c2.27879,0.28084 5.34432,0.6237 6.96187,0.71597c7.66346,0.437 17.68398,0.00433 25.59169,0.00433c21.69453,0 42.89356,-0.20764 63.89377,0.89197c9.49057,0.49696 12.11933,-1.0311 15.03359,1.11617c6.01138,3.6028 17.3691,6.84365 24.63452,10.47064c9.84687,4.91569 13.67858,9.69424 19.71509,14.62322c6.83108,4.05913 1.23684,11.88263 1.23684,16.4006c0,1.2094 -1.92812,3.36825 -0.0979,4.25845c-1.81929,0.04496 -3.57892,0.0871 -4.69818,0.0871c-7.43835,0 -14.88968,0.00545 -22.32806,0.00545c-29.58881,0 -64.10651,-0.14587 -92.82553,-2.10005c-34.09886,-2.08467 -71.39333,0.88794 -105.76654,-0.98315c-18.82354,-0.93845 -39.40045,-0.40042 -58.56606,-0.3938c-9.72266,0.00335 -18.05621,-1.00545 -22.32254,0.86393c-1.12135,0.49137 -0.00481,-1.15949 -0.00481,-1.73793c0,-1.44606 -0.01091,-2.89922 -0.01091,-4.34529c0,-8.09813 -0.01328,-16.24444 -0.01328,-24.34257c0,-1.91443 1.86315,-8.78026 -1.95127,-9.52142c0.71563,-0.01163 1.5261,-0.031 1.97132,-0.03985c3.94455,-0.07833 6.15347,-0.02204 9.23187,-0.61989c5.34442,-1.03788 23.39137,-0.25868 30.63752,-0.25868c28.15958,0 56.46904,-0.03451 84.62843,-0.03451c0,0 6.40701,-0.00297 6.40701,-1.73827c0,-0.07125 -0.00991,-0.13956 -0.03058,-0.20505z" data-paper-data="{&quot;noHover&quot;:false,&quot;origItem&quot;:[&quot;Path&quot;,{&quot;applyMatrix&quot;:true,&quot;segments&quot;:[[[579.60736,595.76373],[0.95609,-0.20262],[0.00646,0.07548]],[[579.61718,596],[0,-0.08208],[0,2]],[[577.61718,598],[0,0],[-8.83333,0]],[[551.11718,598],[8.83333,0],[-2.27308,0]],[[541.51161,598.28885],[1.67648,-1.19621],[-0.96568,0.68904]],[[538.61718,599],[1.23739,-0.09027],[-0.13966,0.01019]],[[537.99901,599.04541],[0.22447,-0.0134],[1.19653,0.85421]],[[538.61718,610],[0,-2.20646],[0,9.33333]],[[538.61718,638],[0,-9.33333],[0,1.66667]],[[538.61718,643],[0,-1.66667],[0,0.66667]],[[538.61718,645],[-0.35177,0.56631],[1.33831,-2.15456]],[[545.61718,644],[-3.04994,0.00386],[6.01206,-0.00761]],[[563.97058,644.43107],[-5.90478,-1.08158],[10.78253,2.15651]],[[597.04254,645.54479],[-10.6965,-2.40266],[9.00888,2.25222]],[[626.11718,648],[-9.28168,0],[2.33333,0]],[[633.11718,648],[-2.33333,0],[0.35109,0]],[[634.59021,647.90091],[-0.5707,0.05184],[-0.57412,-1.02596]],[[634.61718,643],[0,1.39387],[0,-5.20707]],[[634.21982,624.13246],[2.14282,4.67827],[-1.8936,-5.6808]],[[628.03948,607.31672],[3.08887,5.66543],[-2.2791,-4.1802]],[[620.32688,595.27881],[1.8857,4.15235],[-0.91417,-2.47477]],[[615.61718,594],[2.9771,0.57275],[-6.58756,-1.26734]],[[595.61718,593],[6.8054,0],[-2.48058,0]],[[587.61718,593],[2.40395,0.50364],[-0.50743,-0.10631]],[[585.44122,592.1748],[0.71481,0.32365],[1.30749,1.01011]],[[582.51161,594.78885],[1.25365,-0.62682],[-0.98239,0.4912]]],&quot;closed&quot;:true}],&quot;index&quot;:null}" fill="#000000" fill-rule="nonzero" stroke-width="1.5" stroke-linecap="butt"/><path d="M674.63675,480.62858c0,-0.20124 -0.08832,-0.53821 -0.17273,-0.86925c-0.32839,0.13432 -0.81827,0.24887 -1.44823,0.34629c-1.88902,0.52295 -4.75485,0.52297 -4.75485,0.52297c-24.28518,0 -38.31187,4.60669 -46.897,9.45263c-1.00997,0.5498 -0.92076,1.21223 -0.92076,1.82691c0,0.17489 -0.06145,0.45282 -0.12859,0.74034c0.06421,-0.09255 0.22449,-0.16859 0.55085,-0.21745c1.44207,-0.21572 13.97863,1.1044 15.51696,0.34479c0.46231,-0.22832 -2.2676,-0.27127 -2.11705,-0.52873c1.85176,-3.16498 21.49046,-7.9523 31.14439,-9.26609c2.50384,-0.34076 5.32246,-0.51222 8.12451,-0.59071c-1.0955,-0.46437 1.10244,-1.17515 1.10244,-1.76161zM620.28094,492.79208c-0.14457,0.61692 -0.27294,1.20666 0.1622,0.85136c0.29744,-0.24278 -0.13194,-0.58362 -0.1622,-0.85136zM609.95884,488.52911c9.11221,-4.6755 21.2313,-8.9386 40.11727,-10.61653c1.77407,-0.7546 5.43354,-0.7546 5.43354,-0.7546h3.18782c7.21832,0 11.03723,-0.68445 18.79065,-0.68445c10.76764,0 13.26364,5.82751 7.633,7.53411c-3.55313,1.07689 -9.25241,1.43024 -14.00879,2.07753c-14.07898,1.91597 -19.30287,7.42177 -34.72987,10.16126c-16.35065,2.9035 -34.35143,-3.40182 -26.42361,-7.71733z" data-paper-data="{&quot;index&quot;:null}" fill="#000000" fill-rule="nonzero" stroke-width="1.5" stroke-linecap="butt"/><path d="M674.70086,479.70121c0.08463,0.33103 0.18767,0.67284 0.18767,0.87406c0,0.58644 -2.17184,1.30793 -1.07632,1.77234c-2.8021,0.07851 -5.63685,0.24292 -8.14079,0.58368c-9.65399,1.31377 -29.38743,6.0768 -31.23917,9.24178c-0.15075,0.25745 2.27642,0.45286 1.81408,0.68118c-1.53833,0.75961 -14.18354,-0.58333 -15.62561,-0.36763c-0.32648,0.04885 -0.48523,0.12534 -0.54934,0.21795c0.06714,-0.28752 0.1168,-0.56946 0.1168,-0.74435c0,-0.61466 -0.11704,-1.28914 0.89295,-1.83894c8.58509,-4.84598 23.11811,-9.55457 47.40323,-9.55457c0,0 2.87881,0.00373 4.76783,-0.51922c0.63,-0.09742 1.12012,-0.21193 1.44837,-0.34625z" data-paper-data="{&quot;noHover&quot;:false,&quot;origItem&quot;:[&quot;Path&quot;,{&quot;applyMatrix&quot;:true,&quot;segments&quot;:[[[607.563,601.99816],[0.02649,0.38155],[-0.10299,0.15484]],[[607.10872,602.39727],[0.1976,-0.11227],[-0.59254,0.60273]],[[605.61718,603],[0,0],[-7.618,0]],[[590.90604,613.89443],[2.69308,-5.58508],[-0.31682,0.63364]],[[590.61718,616],[0,-0.70843],[0,0.20156]],[[590.57685,616.85325],[0.02106,-0.33136],[0.02013,-0.10671]],[[590.74964,616.60263],[-0.10238,0.05628],[0.45234,-0.24865]],[[595.61718,617],[-0.48256,0.87548],[0.14503,-0.26312]],[[594.95308,616.3906],[-0.04725,0.29671],[0.58086,-3.64773]],[[604.72276,605.71115],[-3.02833,1.51416],[0.78545,-0.39273]],[[607.27135,605.03032],[-0.87898,0.0905],[-0.34365,-0.53523]],[[607.61718,603],[0,0.6759],[0,-0.23192]]],&quot;closed&quot;:true}],&quot;index&quot;:null}" fill="#000000" fill-rule="nonzero" stroke-width="1.5" stroke-linecap="butt"/><path d="M2.40245,481.37397l41.41214,-38.53628l115.71031,-0.34407l-24.36006,38.88037z" data-paper-data="{&quot;index&quot;:null}" fill="#000000" fill-rule="nonzero" stroke-width="1.5" stroke-linecap="round"/><path d="M-8.60382,479.35345c-3.99641,-0.54385 -13.50719,-1.39166 -9.3392,-2.2681c-2.27879,0.28084 -5.31901,0.62374 -6.93668,0.71599c-7.66346,0.437 -17.59504,0 -25.50293,0c-21.69467,0 -42.75689,-0.23197 -63.75717,0.86764c-9.49063,0.49694 -12.09957,-1.0377 -15.01388,1.10957c-6.0113,3.6028 -17.32135,6.81782 -24.58663,10.44479c-9.84687,4.91567 -13.66546,9.66129 -19.70197,14.59028c-6.83098,4.05913 -1.26668,11.85257 -1.26668,16.37054c0,1.2094 1.91619,3.36211 0.08603,4.2523c1.81939,0.04496 3.57661,0.08599 4.69577,0.08599c7.43837,0 14.87665,0 22.31506,0c29.58863,0 63.96675,-0.1761 92.68578,-2.13025c34.09888,-2.08469 71.05552,0.90476 105.42871,-0.96635c18.82354,-0.93845 39.3424,-0.38063 58.508,-0.37403c9.72274,0.00335 18.04871,-1.00176 22.31502,0.86766c1.12135,0.49137 0,-1.15688 0,-1.7353c0,-1.44608 0,-2.89221 0,-4.33829c0,-8.09813 0,-16.19627 0,-24.2944c0,-1.91445 -1.84376,-8.76367 1.97062,-9.50481c-0.71557,-0.01163 -1.5254,-0.03056 -1.97062,-0.03941c-3.94467,-0.07833 -6.14857,-0.01917 -9.22708,-0.61701c-5.34442,-1.03788 -23.375,-0.25064 -30.62122,-0.25064c-28.1594,0 -56.31875,0 -84.47823,0c0,0 -6.37569,0 -6.37569,-1.7353c0,-0.07125 0.01071,-0.13954 0.0313,-0.20499c-3.04793,-0.17581 -6.12669,-0.41969 -9.25835,-0.84588zM91.47722,478.66893c16.99854,0 38.72397,-0.82386 50.33246,2.69455c6.65221,2.01616 2.2671,8.48047 2.2671,11.18797c0,8.09813 0,16.19627 0,24.2944c0,0.92474 2.19601,5.512 0,6.07361c-22.1809,5.67251 -63.98821,1.24907 -91.07365,2.90959c-33.61139,1.82964 -72.31899,-1.65689 -104.83677,0.93011c-29.59956,2.01408 -65.25922,2.23389 -95.7785,2.23389c-4.37767,0 -30.63079,0.90236 -33.47251,0c-8.14913,-2.58766 -6.37569,-4.74623 -6.37569,-7.80893c0,-5.53967 -3.60802,-12.14299 1.92114,-17.46804c6.18704,-5.05185 10.52597,-10.11867 20.39396,-15.04488c3.98064,-1.98714 8.28031,-4.64524 13.42451,-6.44c3.3661,-1.17441 9.80189,-2.1286 10.60598,-3.65526c5.45452,-4.01895 15.31162,-2.70209 26.9753,-3.37758c20.76265,-1.20241 42.24816,-0.86766 63.75717,-0.86766c7.93239,0 23.43136,-0.99362 29.02724,-0.68445c9.74121,0.53821 15.38851,2.79925 24.82981,3.47065c6.92786,0.49267 14.22858,0.201 22.31506,1.30147c0.61392,0.08353 1.22771,0.16707 1.84167,0.25064c21.28198,0 42.56399,0 63.84601,0z" data-paper-data="{&quot;index&quot;:null}" fill="#000000" fill-rule="nonzero" stroke-width="1.5" stroke-linecap="butt"/><path d="M0.74311,480.11596c-0.02066,0.06552 -0.03058,0.13382 -0.03058,0.20505c0,1.7353 6.40701,1.73827 6.40701,1.73827c28.1594,0 56.46886,0.03449 84.62843,0.03449c7.2462,0 25.29312,-0.7792 30.63752,0.25868c3.07841,0.59783 5.28735,0.54158 9.23189,0.61989c0.44528,0.00884 1.25571,0.02822 1.97132,0.03987c-3.81441,0.74116 -1.95127,7.60697 -1.95127,9.52142c0,8.09813 -0.01328,16.24442 -0.01328,24.34255c0,1.44606 -0.01091,2.89922 -0.01091,4.34531c0,0.57842 1.11653,2.22928 -0.00481,1.73793c-4.26631,-1.86941 -12.59984,-0.86058 -22.32254,-0.86393c-19.1656,-0.0066 -39.74252,-0.54463 -58.56606,0.39382c-34.37321,1.87111 -71.66767,-1.10151 -105.76654,0.98315c-28.71903,1.95415 -63.23672,2.10005 -92.82553,2.10005c-7.43835,0 -14.88966,-0.00545 -22.32806,-0.00545c-1.11926,0 -2.87889,-0.04213 -4.69818,-0.0871c1.83022,-0.8902 -0.0979,-3.04907 -0.0979,-4.25845c0,-4.51797 -5.59424,-12.34145 1.23678,-16.40058c6.03653,-4.92898 9.86823,-9.70756 19.71511,-14.62322c7.26543,-3.62699 18.6232,-6.86783 24.63454,-10.47064c2.91433,-2.14725 5.54306,-0.61919 15.03363,-1.11615c21.00021,-1.09961 42.19919,-0.89197 63.89377,-0.89197c7.90766,0 17.92822,0.43267 25.59169,-0.00433c1.61755,-0.09227 4.68308,-0.43515 6.96187,-0.71597c-4.16813,0.87643 5.3805,1.72532 9.37691,2.26916c3.13179,0.42619 6.24766,0.67233 9.29555,0.84815z" data-paper-data="{&quot;noHover&quot;:false,&quot;origItem&quot;:[&quot;Path&quot;,{&quot;applyMatrix&quot;:true,&quot;segments&quot;:[[[579.60736,595.76373],[0.95609,-0.20262],[0.00646,0.07548]],[[579.61718,596],[0,-0.08208],[0,2]],[[577.61718,598],[0,0],[-8.83333,0]],[[551.11718,598],[8.83333,0],[-2.27308,0]],[[541.51161,598.28885],[1.67648,-1.19621],[-0.96568,0.68904]],[[538.61718,599],[1.23739,-0.09027],[-0.13966,0.01019]],[[537.99901,599.04541],[0.22447,-0.0134],[1.19653,0.85421]],[[538.61718,610],[0,-2.20646],[0,9.33333]],[[538.61718,638],[0,-9.33333],[0,1.66667]],[[538.61718,643],[0,-1.66667],[0,0.66667]],[[538.61718,645],[-0.35177,0.56631],[1.33831,-2.15456]],[[545.61718,644],[-3.04994,0.00386],[6.01206,-0.00761]],[[563.97058,644.43107],[-5.90478,-1.08158],[10.78253,2.15651]],[[597.04254,645.54479],[-10.6965,-2.40266],[9.00888,2.25222]],[[626.11718,648],[-9.28168,0],[2.33333,0]],[[633.11718,648],[-2.33333,0],[0.35109,0]],[[634.59021,647.90091],[-0.5707,0.05184],[-0.57412,-1.02596]],[[634.61718,643],[0,1.39387],[0,-5.20707]],[[634.21982,624.13246],[2.14282,4.67827],[-1.8936,-5.6808]],[[628.03948,607.31672],[3.08887,5.66543],[-2.2791,-4.1802]],[[620.32688,595.27881],[1.8857,4.15235],[-0.91417,-2.47477]],[[615.61718,594],[2.9771,0.57275],[-6.58756,-1.26734]],[[595.61718,593],[6.8054,0],[-2.48058,0]],[[587.61718,593],[2.40395,0.50364],[-0.50743,-0.10631]],[[585.44122,592.1748],[0.71481,0.32365],[1.30749,1.01011]],[[582.51161,594.78885],[1.25365,-0.62682],[-0.98239,0.4912]]],&quot;closed&quot;:true}],&quot;index&quot;:null}" fill="#000000" fill-rule="nonzero" stroke-width="1.5" stroke-linecap="butt"/><path d="M-88.63675,486.47791c0,0.58646 2.19797,1.29724 1.10244,1.76161c2.80204,0.07851 5.62067,0.24995 8.12455,0.59071c9.65389,1.31379 29.29259,6.10111 31.14433,9.26609c0.15055,0.25743 -2.57936,0.30047 -2.11705,0.52875c1.53833,0.75961 14.07492,-0.56051 15.51696,-0.34479c0.32634,0.04885 0.48669,0.12488 0.55089,0.21743c-0.06714,-0.28752 -0.12863,-0.56547 -0.12863,-0.74034c0,-0.61468 0.08922,-1.27711 -0.92076,-1.82689c-8.58513,-4.84594 -22.61184,-9.45265 -46.89702,-9.45265c0,0 -2.86581,0 -4.75483,-0.52295c-0.63,-0.09742 -1.11982,-0.21195 -1.44825,-0.34629c-0.08441,0.33103 -0.17271,0.66802 -0.17271,0.86927zM-34.44317,499.49268c0.43513,0.3553 0.30677,-0.23443 0.1622,-0.85136c-0.03026,0.26774 -0.45964,0.60858 -0.1622,0.85136zM-23.95884,494.37839c7.9278,4.31551 -10.07298,10.62082 -26.42365,7.71731c-15.42699,-2.73947 -20.65095,-8.24527 -34.72987,-10.16124c-4.75634,-0.64729 -10.45566,-1.00064 -14.00879,-2.07753c-5.63064,-1.70661 -3.13464,-7.53413 7.633,-7.53413c7.75344,0 11.57233,0.68445 18.79065,0.68445h3.18782c0,0 3.65944,0 5.43354,0.75458c18.88603,1.67793 31.00504,5.94103 40.11725,10.61653z" data-paper-data="{&quot;index&quot;:null}" fill="#000000" fill-rule="nonzero" stroke-width="1.5" stroke-linecap="butt"/><path d="M-88.70072,485.55045c0.32821,0.13432 0.81837,0.24883 1.44837,0.34625c1.88902,0.52293 4.76785,0.51924 4.76785,0.51924c24.28514,0 38.8182,4.70859 47.40323,9.55453c1.01003,0.5498 0.89295,1.22428 0.89295,1.83894c0,0.17487 0.04965,0.45681 0.1168,0.74435c-0.06411,-0.09257 -0.22286,-0.16908 -0.54934,-0.21793c-1.44207,-0.21572 -14.08726,1.12724 -15.62561,0.36763c-0.46235,-0.22832 1.9648,-0.4237 1.81408,-0.68118c-1.85168,-3.16498 -21.58515,-7.928 -31.23915,-9.2418c-2.50392,-0.34076 -5.33871,-0.50514 -8.14081,-0.58366c1.09552,-0.46441 -1.0763,-1.18588 -1.0763,-1.77232c0,-0.2012 0.10304,-0.54303 0.18767,-0.87406z" data-paper-data="{&quot;noHover&quot;:false,&quot;origItem&quot;:[&quot;Path&quot;,{&quot;applyMatrix&quot;:true,&quot;segments&quot;:[[[607.563,601.99816],[0.02649,0.38155],[-0.10299,0.15484]],[[607.10872,602.39727],[0.1976,-0.11227],[-0.59254,0.60273]],[[605.61718,603],[0,0],[-7.618,0]],[[590.90604,613.89443],[2.69308,-5.58508],[-0.31682,0.63364]],[[590.61718,616],[0,-0.70843],[0,0.20156]],[[590.57685,616.85325],[0.02106,-0.33136],[0.02013,-0.10671]],[[590.74964,616.60263],[-0.10238,0.05628],[0.45234,-0.24865]],[[595.61718,617],[-0.48256,0.87548],[0.14503,-0.26312]],[[594.95308,616.3906],[-0.04725,0.29671],[0.58086,-3.64773]],[[604.72276,605.71115],[-3.02833,1.51416],[0.78545,-0.39273]],[[607.27135,605.03032],[-0.87898,0.0905],[-0.34365,-0.53523]],[[607.61718,603],[0,0.6759],[0,-0.23192]]],&quot;closed&quot;:true}],&quot;index&quot;:null}" fill="#000000" fill-rule="nonzero" stroke-width="1.5" stroke-linecap="butt"/><path d="M67.41225,248.70875l475.29029,-25.17024l4.42837,26.1244l64.88252,223.20344l-226.54874,0.81787l-52.08194,-173.28698l-26.69785,-8.76941l-24.7014,5.70752l-17.63646,11.65542l-56.71087,166.32914l-238.72877,2.45358l95.78,-217.40292z" data-paper-data="{&quot;index&quot;:null}" fill="#000000" fill-rule="nonzero" stroke-width="1.5" stroke-linecap="round"/><path d="M164.0339,53.59973c1.30775,-0.26863 2.66858,-0.35953 4.08248,-0.27217c0.08328,0.7852 -0.00735,1.51106 -0.27217,2.17732c0,-0.63496 0,-1.27019 0,-1.90516c-1.27019,0 -2.54012,0 -3.81031,0z" fill="#000000" fill-rule="evenodd" stroke-width="1.5" stroke-linecap="butt"/><path d="M109.07693,158.2389c0,1.45146 0,2.90319 0,4.35465c1.45146,0 2.90319,0 4.35465,0c-1.4901,0.26917 -3.03247,0.3598 -4.62681,0.27217c-0.08764,-1.59434 0.00299,-3.13671 0.27216,-4.62682z" fill="#000000" fill-rule="evenodd" stroke-width="1.5" stroke-linecap="butt"/><path d="M110.98209,163.68221c0.75852,-0.26591 1.57502,-0.35653 2.44949,-0.27216c0.08219,0.69647 -0.00871,1.3317 -0.27217,1.90516c0,-0.54433 0,-1.08866 0,-1.63299c-0.72586,0 -1.45146,0 -2.17732,0z" fill="#000000" fill-rule="evenodd" stroke-width="1.5" stroke-linecap="butt"/><path d="M181.20077,230.09057c0,0.99803 0,1.99579 0,2.99382c0.81649,0 1.63299,0 2.44949,0c-0.85052,0.26645 -1.75765,0.35735 -2.72166,0.27216c-0.08628,-1.14364 0.00463,-2.2323 0.27217,-3.26599z" fill="#000000" fill-rule="evenodd" stroke-width="1.5" stroke-linecap="butt"/><path d="M544.17641,229.09112l3.24518,21.29654l-101.20923,6.28754l-6.99743,0.60847l-5.47625,0.60848l-2.23107,-0.40565l-49.99615,3.34661l-2.4339,0.60847l-15.51604,0.91271l-42.8973,-12.67651l-2.23107,-0.30424l-44.82413,1.92683l-2.43389,-1.21694h-7.91013l-44.62131,2.12965l-0.20282,1.724l-20.48524,1.01412l-20.48523,3.65083l-66.93196,3.34661l-17.03722,-2.23107l-26.56995,1.21695l-2.02824,-0.20283l-0.40565,-0.60847l3.04236,-17.34145l-0.44929,0.00624l0.06194,-0.50254l0.38736,-0.01076l9.12709,-55.06674l-6.99743,-1.52118l-0.70989,-0.91271l12.98074,-73.62516l-19.57252,-17.54429l0.8113,-4.46212l8.01156,-5.57766l49.99615,-32.95892l0.60847,0.20283l0.70988,1.31835l78.29011,12.5751l39.44929,42.69448l-1.52119,7.6059l70.07573,7.80873l62.267,-48.27214l52.63286,9.43132l33.36456,37.62387l1.01412,1.62259l0.1014,3.54942l-24.13607,8.01156l4.05649,40.97047l115.60974,5.98331l0.50705,0.91271l0.50706,3.24518l-17.24005,1.31836l-0.40565,0.40565l6.89602,40.86906l0.77803,-0.01144l0.05928,0.60098z" fill="#000000" fill-rule="evenodd" stroke-width="1.5" stroke-linecap="butt"/><path d="M120.27401,55.47367l1.41976,3.75224l-1.82541,11.05392l-34.98716,24.13607l-3.04236,16.02311l-18.76122,-16.73299z" fill="#000000" fill-rule="evenodd" stroke-width="1.5" stroke-linecap="butt"/><path d="M121.49095,52.63413l78.29011,12.27085l0.40565,0.30423l-0.30424,2.63671l-0.50706,0.40565l-78.08728,-12.06803l-0.20283,-0.50706z" fill="#000000" fill-rule="evenodd" stroke-width="1.5" stroke-linecap="butt"/><path d="M122.09942,59.53015l77.88446,11.86522l3.3466,3.3466l-9.12709,111.75608l-3.3466,0.40565l-87.41719,-2.23107z" fill="#000000" fill-rule="evenodd" stroke-width="1.5" stroke-linecap="butt"/><path d="M200.38952,69.26571l39.34788,42.28883l-6.59179,14.09627l-4.66495,-5.07061l0.70988,-11.45956l-25.45443,-27.27984l0.20282,-7.09884l-3.65084,-3.85366z" fill="#000000" fill-rule="evenodd" stroke-width="1.5" stroke-linecap="butt"/><path d="M119.66554,71.09113l0.20282,0.50706l-17.03722,112.77021l0.8113,0.8113l2.83953,0.8113l-36.91399,-0.70988l15.71886,-90.45955z" fill="#000000" fill-rule="evenodd" stroke-width="1.5" stroke-linecap="butt"/><path d="M135.48582,74.1335l59.83312,8.11296l-6.6932,76.87034l-60.44159,-3.3466l-3.44801,-0.50706l-0.20283,-0.70988z" fill="#000000" fill-rule="evenodd" stroke-width="1.5" stroke-linecap="butt"/><path d="M200.59235,65.20923l39.24646,42.39024l-0.20282,3.24518l-39.14506,-42.18741z" fill="#000000" fill-rule="evenodd" stroke-width="1.5" stroke-linecap="butt"/><path d="M121.28813,51.21437l0.40565,0.8113h-0.60847l-0.30423,2.23107l-0.50706,0.70988l-57.09499,38.02952l0.40565,-3.04236l0.70988,-1.11553z" fill="#000000" fill-rule="evenodd" stroke-width="1.5" stroke-linecap="butt"/><path d="M371.57308,75.14761l52.12579,9.32992l0.20283,2.83953l-52.12579,-9.12709z" fill="#000000" fill-rule="evenodd" stroke-width="1.5" stroke-linecap="butt"/><path d="M203.4319,82.24646l25.04878,26.77278l-0.40565,11.76379l5.37483,5.78049l40.15917,3.95506l-1.41977,49.69191l-48.8806,-1.724l-0.30424,0.30423l-0.1014,4.25931l1.21694,0.50706v2.12965l1.62259,0.50706l46.2439,1.31835v4.86778l-49.89473,-1.11554l-3.95506,61.75994l-0.50706,0.50706l-19.26829,0.9127l4.86778,-64.09241l19.47112,0.30423l1.21694,-1.01412v-0.40565l-0.40565,-0.20282l-28.80102,-0.70988z" fill="#000000" fill-rule="evenodd" stroke-width="1.5" stroke-linecap="butt"/><path d="M372.99285,83.4634l45.53402,7.91014l1.82542,19.87676l12.16945,13.38639l4.9692,51.11168l-60.03594,-3.24519z" fill="#000000" fill-rule="evenodd" stroke-width="1.5" stroke-linecap="butt"/><path d="M372.18156,83.86905l0.30424,0.81131l4.56354,87.82284l-9.53273,-0.40565l-3.54942,-82.14377z" fill="#000000" fill-rule="evenodd" stroke-width="1.5" stroke-linecap="butt"/><path d="M423.9017,88.12835l33.87162,38.02952l-23.5276,7.80873l-1.11553,-9.12708l-12.16944,-13.58921l-1.82542,-19.67393l-0.30424,-0.50706z" fill="#000000" fill-rule="evenodd" stroke-width="1.5" stroke-linecap="butt"/><path d="M361.83753,89.75094l1.62259,0.20282l3.3466,82.14377l-12.47368,-0.50706l-15.00898,3.75225l-1.31836,-59.63029l3.04236,-2.23107z" fill="#000000" fill-rule="evenodd" stroke-width="1.5" stroke-linecap="butt"/><path d="M341.75794,111.65596h-1.01412l-0.20283,-1.82542l30.52504,-34.27727v2.83953z" fill="#000000" fill-rule="evenodd" stroke-width="1.5" stroke-linecap="butt"/><path d="M424.30735,85.49164l33.16174,37.31963l0.20283,2.63671l-33.06034,-37.31964z" fill="#000000" fill-rule="evenodd" stroke-width="1.5" stroke-linecap="butt"/><path d="M367.92224,77.58151l0.40565,0.1014l-28.5982,32.04621l-22.31065,15.41463l0.8113,-1.21694l-0.40565,-0.20283l-7.91013,-1.01412z" fill="#000000" fill-rule="evenodd" stroke-width="1.5" stroke-linecap="butt"/><path d="M379.48322,107.39664l34.68293,4.66495l3.65083,43.60718l-34.88575,-2.73812l-0.81131,-0.50706z" fill="#000000" fill-rule="evenodd" stroke-width="1.5" stroke-linecap="butt"/><path d="M337.09298,116.11808l0.50706,6.08472l1.31835,53.34275l-19.87676,4.86777l-0.30423,-51.72015z" fill="#000000" fill-rule="evenodd" stroke-width="1.5" stroke-linecap="butt"/><path d="M238.52046,115.71243l78.89859,8.62002l-2.02824,2.23107l-1.11553,0.1014l-76.97175,-7.91013z" fill="#000000" fill-rule="evenodd" stroke-width="1.5" stroke-linecap="butt"/><path d="M340.54099,109.83053l0.20282,1.82542h1.01412l-1.41976,1.724l-29.91656,20.181l0.10141,-2.63671z" fill="#000000" fill-rule="evenodd" stroke-width="1.5" stroke-linecap="butt"/><path d="M277.05704,127.47623l32.85751,3.24519l0.20283,3.04236l0.40565,0.40565l7.5045,-5.0706l0.60847,51.51733l-3.85366,0.91271l-39.14505,-1.31836z" fill="#000000" fill-rule="evenodd" stroke-width="1.5" stroke-linecap="butt"/><path d="M276.24575,127.88188l0.20282,2.23107l-1.21695,50.09756h-2.43389l1.31836,-49.89473z" fill="#000000" fill-rule="evenodd" stroke-width="1.5" stroke-linecap="butt"/><path d="M227.36514,131.12707l45.02696,4.05648l-0.81131,27.98973l-45.63542,-2.83953l-0.40565,-1.724z" fill="#000000" fill-rule="evenodd" stroke-width="1.5" stroke-linecap="butt"/><path d="M355.54997,171.89471l198.15916,10.34403l0.40565,3.24518l-197.75351,-9.12709l0.8113,-0.50706l-1.62259,0.10141v-1.21694l2.02824,0.1014v0.70988l-0.1014,-1.41977l-0.8113,0.40565h-0.91271l-0.20283,-1.41977l1.01412,-0.70988l-0.91271,0.10141z" fill="#000000" fill-rule="evenodd" stroke-width="1.5" stroke-linecap="butt"/><path d="M355.54997,171.89471l0.10141,0.60847l0.91271,-0.10141l-1.01412,0.70988l0.20282,1.41977h0.91271l0.81131,-0.40565l0.1014,1.41977v-0.70988l-2.02824,-0.1014v1.21694l1.62259,-0.1014l-0.8113,0.50706l-41.78177,8.92426v-3.14378z" fill="#000000" fill-rule="evenodd" stroke-width="1.5" stroke-linecap="butt"/><path d="M358.99798,180.00767h0.60848l3.04236,81.53529l-42.99871,-12.5751l-0.40565,-55.97945l20.28241,-3.14378v-5.98332z" fill="#000000" fill-rule="evenodd" stroke-width="1.5" stroke-linecap="butt"/><path d="M360.01211,180.00767l176.45698,7.40308l10.54685,62.36842l-9.53273,0.60847l-7.91013,-49.38767l-95.73299,-1.82542l5.0706,57.70346l-3.04235,0.20283l-5.07061,-58.0077l-58.0077,-1.01411l3.04236,62.67265l-0.60848,0.30423l-11.96662,0.70989z" fill="#000000" fill-rule="evenodd" stroke-width="1.5" stroke-linecap="butt"/><path d="M223.71431,178.79073l90.25673,3.44801v3.24518l-90.66238,-3.04236z" fill="#000000" fill-rule="evenodd" stroke-width="1.5" stroke-linecap="butt"/><path d="M338.10711,184.06416h1.01412v5.47626l-19.77535,3.04236l0.10141,-4.76637z" fill="#000000" fill-rule="evenodd" stroke-width="1.5" stroke-linecap="butt"/><path d="M105.46784,185.2811l88.63414,2.23107l0.40565,1.01412l1.6226,0.30423l26.9756,0.8113l-0.81131,0.60848l-19.06546,-0.40565l-20.07958,-1.82542l-60.74582,-1.52119l-18.86264,1.01412l-26.46855,-0.70988l-4.86778,-1.01412l36.30552,0.81131v-0.40565z" fill="#000000" fill-rule="evenodd" stroke-width="1.5" stroke-linecap="butt"/><path d="M275.63727,186.49805l42.99872,1.41977v4.66495l-43.20154,-1.01412z" fill="#000000" fill-rule="evenodd" stroke-width="1.5" stroke-linecap="butt"/><path d="M274.82598,186.70087v4.86778l-2.4339,0.60847l0.30424,-4.66495z" fill="#000000" fill-rule="evenodd" stroke-width="1.5" stroke-linecap="butt"/><path d="M119.86836,186.90369l0.40565,0.60847l-10.34403,73.82799l-15.00898,-2.33248l10.54686,-71.08985z" fill="#000000" fill-rule="evenodd" stroke-width="1.5" stroke-linecap="butt"/><path d="M120.88248,186.90369l62.67265,1.62259l-6.28754,69.56867l-66.52631,3.24518z" fill="#000000" fill-rule="evenodd" stroke-width="1.5" stroke-linecap="butt"/><path d="M77.47812,187.30934l27.58408,0.70988l-10.54685,71.08986l-29.4095,1.41976z" fill="#000000" fill-rule="evenodd" stroke-width="1.5" stroke-linecap="butt"/><path d="M184.1636,188.52629l18.35558,1.82542l-4.66495,63.28112l-0.50706,0.91271l-19.3697,3.54942z" fill="#000000" fill-rule="evenodd" stroke-width="1.5" stroke-linecap="butt"/><path d="M126.35873,191.36583l52.53144,1.01412l-5.37483,58.41334l-0.91271,0.30424l-51.92298,2.12965l-2.02824,-0.20283l-0.40565,-0.60847z" fill="#000000" fill-rule="evenodd" stroke-width="1.5" stroke-linecap="butt"/><path d="M114.39211,191.56866h2.02825l-9.32991,65.91783l-6.49037,-0.9127l-0.8113,-1.01412l9.22849,-63.38253z" fill="#000000" fill-rule="evenodd" stroke-width="1.5" stroke-linecap="butt"/><path d="M222.49737,191.56866l49.48908,1.31836l-1.62259,56.48651l-3.04236,0.20283l1.41977,-50.4018l-0.20283,-2.33247l-44.82413,-0.8113l-3.44801,55.5738h-1.41977z" fill="#000000" fill-rule="evenodd" stroke-width="1.5" stroke-linecap="butt"/><path d="M275.43445,191.9743l43.20154,1.01412l0.40565,55.97945l-45.02696,2.02824z" fill="#000000" fill-rule="evenodd" stroke-width="1.5" stroke-linecap="butt"/><path d="M274.42033,192.17712l0.40565,4.05649l-1.31836,54.55968l-2.33247,-1.21694l1.21694,-54.55968l0.20283,-2.23107z" fill="#000000" fill-rule="evenodd" stroke-width="1.5" stroke-linecap="butt"/><path d="M189.63986,193.39407l9.93838,0.81131l-4.66496,58.61617l-9.83697,1.6226l-0.70988,-0.91271z" fill="#000000" fill-rule="evenodd" stroke-width="1.5" stroke-linecap="butt"/><path d="M289.22649,193.79971l17.84852,0.20282l-0.20283,33.87163l-16.12451,0.40565l-1.724,-0.40565l-0.20283,-2.73813z" fill="#000000" fill-rule="evenodd" stroke-width="1.5" stroke-linecap="butt"/><path d="M235.68093,215.29907l-1.82542,32.24903l-0.20283,2.94096l-10.1412,0.50706l-1.41977,-1.724l3.04236,-51.41591h11.35815z" fill="#000000" fill-rule="evenodd" stroke-width="1.5" stroke-linecap="butt"/><path d="M225.74255,198.26185l10.14121,0.20282l-2.63671,51.51733l-10.74968,0.20283z" fill="#000000" fill-rule="evenodd" stroke-width="1.5" stroke-linecap="butt"/><path d="M255.55769,249.57635l-1.01411,-1.21694l1.82542,-45.63542l0.20283,-4.25931h10.54685l-1.6226,50.70602z" fill="#000000" fill-rule="evenodd" stroke-width="1.5" stroke-linecap="butt"/><path d="M373.60133,198.46468l3.04236,62.67265l-0.30424,-0.20283l-2.94095,-60.44159z" fill="#000000" fill-rule="evenodd" stroke-width="1.5" stroke-linecap="butt"/><path d="M373.60133,198.46468l56.58793,1.01412l5.0706,57.80487h-2.02824l-4.56354,-52.53144l-2.5353,-0.40565l-2.4339,0.1014l3.44801,0.10141l4.46213,52.53144l-51.51733,3.3466l-3.44801,0.70988z" fill="#000000" fill-rule="evenodd" stroke-width="1.5" stroke-linecap="butt"/><path d="M256.97746,198.66749l9.53273,0.20282l-1.41977,49.89474l-9.93838,0.40565z" fill="#000000" fill-rule="evenodd" stroke-width="1.5" stroke-linecap="butt"/><path d="M434.65138,199.68162l5.27343,57.19639l-0.50706,-0.8113l-5.17201,-55.87805z" fill="#000000" fill-rule="evenodd" stroke-width="1.5" stroke-linecap="butt"/><path d="M434.65138,199.68162l94.51604,1.82542l7.91014,49.08343l-3.44801,0.20282l-7.09884,-44.82413l-0.40565,-0.50706h-5.27343l3.85366,0.10141l7.09884,45.02696l-40.76764,2.63671l-6.08472,-48.06932l-3.04236,-0.10141l2.4339,0.30424l6.28755,47.86649l-45.02696,2.94095l-5.67908,0.70988z" fill="#000000" fill-rule="evenodd" stroke-width="1.5" stroke-linecap="butt"/><path d="M226.95949,201.70986h7.09884l-2.33247,43.40436l-5.17201,0.60847l-2.02824,-1.82542z" fill="#000000" fill-rule="evenodd" stroke-width="1.5" stroke-linecap="butt"/><path d="M249.06732,196.84208l15.00898,0.40565v0.81131l3.24518,0.20282l-1.41976,51.11168l-10.74968,0.60847l0.40565,-0.40565l9.93838,-0.40565l1.62259,-50.70603h-10.54685l-0.20283,4.25931l-0.50706,0.20283h-0.60847l-0.20282,0.8113l-0.30424,-0.20282l-0.50706,0.8113l-0.10141,-6.08472h-3.04236h-0.50706l-0.50706,2.23107l0.20282,0.60847l1.41977,0.8113l-0.60847,0.20283l-0.1014,3.65084l-0.30424,0.40565v6.18614l0.10141,5.37484l-0.40566,0.60847l-0.50705,-0.30424l-0.20283,-0.60847l-0.81131,4.15789l0.20283,3.44801l1.01412,0.20283l-1.21695,0.40565v0.60847l1.41977,0.20283l-0.50706,1.62259h-0.70988l-0.20283,2.63671v0.20283l-6.08471,0.20282l-3.24518,-0.10141l0.60847,-0.30423h6.89602v-4.86778l-1.62259,-0.1014l0.40565,-2.5353l0.20282,-0.70988l0.20283,-4.9692l-0.20283,-0.8113l0.40565,-1.6226v-4.25931l-1.11553,-0.20283l-0.10141,-2.43389l0.91271,-0.40565l0.20282,1.62259l0.40565,-0.8113l-0.20282,-3.85366l-0.20283,1.21694l-0.1014,-3.04236l0.30423,0.40565l0.20282,-1.41977l1.01412,0.20283l0.30423,-0.40565l0.20282,-3.65084h0.81131z" fill="#000000" fill-rule="evenodd" stroke-width="1.5" stroke-linecap="butt"/><path d="M258.39722,202.1155h6.49037l-1.21694,42.18741h-6.49037l-0.40565,-0.50706z" fill="#000000" fill-rule="evenodd" stroke-width="1.5" stroke-linecap="butt"/><path d="M433.23162,257.28366l-1.62259,-0.20283l-4.46212,-52.53144l-3.44801,-0.10141l2.4339,-0.1014l2.5353,0.40565z" fill="#000000" fill-rule="evenodd" stroke-width="1.5" stroke-linecap="butt"/><path d="M491.03649,253.22718h-0.40565l-6.28754,-47.86649l-2.4339,-0.30424l3.04236,0.10141z" fill="#000000" fill-rule="evenodd" stroke-width="1.5" stroke-linecap="butt"/><path d="M533.62955,250.79329l-1.82542,-0.20282l-7.09884,-45.02696l-3.85366,-0.10141h5.27343l0.40565,0.50706z" fill="#000000" fill-rule="evenodd" stroke-width="1.5" stroke-linecap="butt"/><path d="M399.15717,207.59175h0.50705l0.50706,6.49037l-7.09885,-0.20283l-0.50706,-1.21694l-0.30424,-3.75225l0.20283,-0.60847z" fill="#000000" fill-rule="evenodd" stroke-width="1.5" stroke-linecap="butt"/><path d="M404.22777,207.79458l6.6932,0.50706l0.40565,5.78048l-6.28755,-0.20283l-0.50705,-1.01412z" fill="#000000" fill-rule="evenodd" stroke-width="1.5" stroke-linecap="butt"/><path d="M473.59361,208.20023h7.09884l0.60847,5.67908l-11.96662,-0.20283l-0.50706,-0.8113l-0.50706,-4.25931z" fill="#000000" fill-rule="evenodd" stroke-width="1.5" stroke-linecap="butt"/><path d="M487.99413,208.20023l10.95251,0.50706l0.8113,5.17201l-10.74968,-0.20282l-0.40565,-0.91271z" fill="#000000" fill-rule="evenodd" stroke-width="1.5" stroke-linecap="butt"/><path d="M390.84138,208.40306h1.01412l0.40565,5.67908l-7.09884,-0.40565l-0.40565,-3.3466l0.20283,-0.40565z" fill="#000000" fill-rule="evenodd" stroke-width="1.5" stroke-linecap="butt"/><path d="M411.52944,208.40306l6.28755,1.41977l0.30424,0.40565l0.30423,3.85366l-6.28755,-0.20283l-0.40565,-1.11553l-0.40565,-3.95507z" fill="#000000" fill-rule="evenodd" stroke-width="1.5" stroke-linecap="butt"/><path d="M464.46653,208.80871l2.83954,0.20283l0.60847,4.86777l-11.45956,0.20283l-0.60847,-1.01412l-0.30424,-3.04236z" fill="#000000" fill-rule="evenodd" stroke-width="1.5" stroke-linecap="butt"/><path d="M500.16358,208.80871l10.34403,1.21694l0.40565,3.85366l-9.93838,-0.20283l-0.40565,-0.8113l-0.60847,-3.75224z" fill="#000000" fill-rule="evenodd" stroke-width="1.5" stroke-linecap="butt"/><path d="M383.53971,210.22847h0.8113l0.20283,3.85366l-6.6932,-0.20283l-0.20283,-1.31836z" fill="#000000" fill-rule="evenodd" stroke-width="1.5" stroke-linecap="butt"/><path d="M418.42546,210.22847l6.89602,2.23107l0.20282,1.62259l-6.28754,-0.1014l-0.50706,-0.50706z" fill="#000000" fill-rule="evenodd" stroke-width="1.5" stroke-linecap="butt"/><path d="M453.91968,210.22847h0.50706l0.30423,3.85366l-11.7638,-0.20283l0.40565,-1.52119z" fill="#000000" fill-rule="evenodd" stroke-width="1.5" stroke-linecap="butt"/><path d="M511.52172,210.4313l10.34403,1.92683l0.50706,1.31836l-10.0398,0.10141l-0.50705,-0.50706z" fill="#000000" fill-rule="evenodd" stroke-width="1.5" stroke-linecap="butt"/><path d="M493.26756,214.28495h6.6932l0.40565,4.66495h-10.54685l-0.50706,-0.60847l-0.50706,-3.85366z" fill="#000000" fill-rule="evenodd" stroke-width="1.5" stroke-linecap="butt"/><path d="M500.97487,214.28495h10.1412l0.60847,4.66495l-9.93838,-0.20282l-0.50705,-0.8113l-0.50706,-3.14378z" fill="#000000" fill-rule="evenodd" stroke-width="1.5" stroke-linecap="butt"/><path d="M511.92737,214.28495h10.74969l0.60847,4.36072l-7.70731,0.30423l-2.83953,-0.40565z" fill="#000000" fill-rule="evenodd" stroke-width="1.5" stroke-linecap="butt"/><path d="M443.9813,214.48778h10.95251l0.40565,5.0706l-11.96662,-0.20282l-0.8113,-4.46213z" fill="#000000" fill-rule="evenodd" stroke-width="1.5" stroke-linecap="butt"/><path d="M456.15074,214.48778h11.96662l0.40565,4.86777h-11.56097l-0.50706,-0.60847l-0.50705,-3.85366z" fill="#000000" fill-rule="evenodd" stroke-width="1.5" stroke-linecap="butt"/><path d="M468.92866,214.6906l12.37228,-0.10141l0.60847,4.56355h-11.96662l-0.50706,-1.01412z" fill="#000000" fill-rule="evenodd" stroke-width="1.5" stroke-linecap="butt"/><path d="M395.10068,214.6906h5.07061l0.30423,5.27343h-6.99742l-0.40565,-0.40565l-0.40565,-4.66495z" fill="#000000" fill-rule="evenodd" stroke-width="1.5" stroke-linecap="butt"/><path d="M404.83623,214.6906h6.6932l0.20283,5.27343l-6.28755,-0.20283l-0.50705,-1.01412l-0.30424,-3.44801z" fill="#000000" fill-rule="evenodd" stroke-width="1.5" stroke-linecap="butt"/><path d="M411.93508,214.6906h6.49037l0.40565,5.27343l-6.28754,-0.20283z" fill="#000000" fill-rule="evenodd" stroke-width="1.5" stroke-linecap="butt"/><path d="M418.8311,214.6906h6.89602l0.40565,5.0706h-6.49037l-0.50706,-1.21694z" fill="#000000" fill-rule="evenodd" stroke-width="1.5" stroke-linecap="butt"/><path d="M377.6578,214.89343h7.09884l0.10141,5.27342l-3.3466,0.20283l-3.44801,-0.40565z" fill="#000000" fill-rule="evenodd" stroke-width="1.5" stroke-linecap="butt"/><path d="M385.1623,214.89343h7.09884l0.40565,5.27342h-6.89602l-0.40566,-1.21694z" fill="#000000" fill-rule="evenodd" stroke-width="1.5" stroke-linecap="butt"/><path d="M235.88376,196.63926h2.02824v1.21694l6.28755,0.1014l-5.0706,0.10141v7.91013l-0.50706,0.40565l0.1014,3.54942l-0.60847,2.02824v11.45956l-0.40565,3.85366l-1.62259,0.91271l1.41977,1.31836l0.20282,1.724l-0.60847,4.86777l0.20283,2.83954l-0.60848,4.25931l0.20283,1.41977l-0.40565,1.41976l0.20282,3.75225l-2.23107,0.10141l-0.1014,-1.31836v-1.21695l-0.50706,0.20282l1.82541,-32.24903l0.30424,2.43389l0.10141,-1.41976l0.30423,-5.27343l1.11553,-4.05648l-0.60847,-1.62259l0.40565,-2.73813l-0.20283,-1.11553l0.60847,-0.30423l-0.8113,-3.34661l-1.21695,-0.50706z" fill="#000000" fill-rule="evenodd" stroke-width="1.5" stroke-linecap="butt"/><path d="M237.91199,196.63926l11.15532,0.20282v1.21695h-0.8113l-0.20283,3.65084l-0.30423,0.40565l-1.01412,-0.20282l-0.20283,1.41977l-0.30423,-0.40565l0.1014,3.04236l0.20282,-1.21694l0.20283,3.85366l-0.40565,0.8113l-0.20283,-1.62259l-0.91271,0.40565l0.10141,2.43389l1.11553,0.20283v4.25931l-0.40565,1.62259l0.20282,0.8113l-0.20282,4.9692l-0.20283,0.70988l-0.40565,2.5353l1.62259,0.1014v4.86778h-6.89602l-0.60847,0.30423l3.24518,0.10141v2.12965l-0.50706,4.9692h0.40565l0.60847,-0.81131h0.50706l1.41977,0.81131l-0.30423,2.23107h-0.50706l0.20283,1.41977h-0.60847l-0.70989,1.82542h-0.40565l-0.20282,-1.01412l-0.50706,0.30424l-0.20283,-0.91271l-0.30423,0.20283l-0.40565,2.02824l-0.40565,-0.60848l-0.9127,0.30424l-0.40565,-2.23107l0.1014,-3.75224l-0.50706,6.6932h6.6932l-6.6932,0.40565l-0.20282,2.02824l-0.20283,-1.52119l-0.40565,-7.09884l0.60847,-9.63415l1.62259,-0.10141l0.1014,-0.91271h-2.12965l-0.8113,-0.60848l0.40565,-3.85366v-11.45956l0.60847,-2.02824l-0.1014,-3.54942l0.50706,-0.40565v-7.91013l5.07061,-0.10141l-6.28754,-0.1014z" fill="#000000" fill-rule="evenodd" stroke-width="1.5" stroke-linecap="butt"/><path d="M264.0763,197.24772l4.25931,0.20282l-1.62259,51.92298h-0.8113l1.41976,-51.11167l-3.24518,-0.20282z" fill="#000000" fill-rule="evenodd" stroke-width="1.5" stroke-linecap="butt"/><path d="M256.36899,202.72398l-1.82542,45.63543l1.01411,1.21694l-0.40565,0.40565h-3.04236v-0.60847l-2.83953,0.20282l0.1014,-1.41976l0.70988,-1.21695l-0.20282,-2.23107l-1.82542,-0.10141l2.23107,-0.40565l-0.40565,-3.75225l0.40565,-1.62259l-0.40565,-1.01412v-2.4339l0.60847,-1.41977l-0.50706,-2.43389h-1.11554v-0.60848v-0.20283l0.20283,-2.63671h0.70988l0.50706,-1.62259l-1.41977,-0.20283v-0.60847l1.21695,-0.40565l-1.01412,-0.20283l-0.20283,-3.44801l0.81131,-4.1579l0.20283,0.60847l0.50705,0.30424l0.40566,-0.60848l-0.10141,-5.37484v-6.18613l0.30424,-0.40565l0.1014,-3.65083l0.60847,-0.20283l-1.41977,-0.81131l-0.20282,-0.60847l0.50706,-2.23107h0.50706h3.04236l0.10141,6.08472l0.50706,-0.8113l0.30424,0.20283l0.20282,-0.8113h0.60847z" fill="#000000" fill-rule="evenodd" stroke-width="1.5" stroke-linecap="butt"/><path d="M237.70917,227.2657l0.8113,0.60848h2.12965l-0.10141,0.91271l-1.62259,0.10141l-1.41977,0.60847l-1.41977,-1.31836z" fill="#000000" fill-rule="evenodd" stroke-width="1.5" stroke-linecap="butt"/><path d="M484.95176,231.11935l2.12965,1.41976l0.70988,1.21694l-0.60847,0.10141l0.20283,2.33247l-1.82542,0.20283l-0.8113,-2.63671l-1.01412,-0.50706l0.8113,-0.30424z" fill="#000000" fill-rule="evenodd" stroke-width="1.5" stroke-linecap="butt"/><path d="M489.21107,231.525l1.21694,0.20283l0.60847,1.21694l-0.40565,0.40565l0.40565,2.23107l-1.52119,-0.20283l-0.50706,-3.34661z" fill="#000000" fill-rule="evenodd" stroke-width="1.5" stroke-linecap="butt"/><path d="M405.24188,238.82667l-0.40565,-0.50706l-0.30423,-1.92682l-0.50706,1.21694l0.20282,1.52118l-1.62259,-0.1014l-0.81131,-3.14378l0.40565,-0.60848l1.41977,-1.31836l0.20283,1.62259l0.70988,0.20283v-1.6226l1.41977,-0.40565l0.30424,1.62259l2.23107,0.30423l-0.20283,0.60848l-1.82542,0.1014l0.20283,2.5353z" fill="#000000" fill-rule="evenodd" stroke-width="1.5" stroke-linecap="butt"/><path d="M235.88376,196.63926l-0.20283,0.70988l1.21694,0.50706l0.8113,3.3466l-0.60847,0.30424l0.20282,1.11553l-0.40565,2.73813l0.60847,1.62259l-1.11553,4.05649l-0.30423,5.27343l-0.10141,1.41977l-0.30423,-2.4339l0.8113,-17.44287h-11.35815l-3.04236,51.4159l1.41977,1.724l10.1412,-0.50706l0.20283,-2.94095l0.50706,-0.20283v1.21695l0.1014,1.31836l2.23107,-0.10141l-0.20282,-3.75225l0.40565,-1.41976l-0.20282,-1.41976l0.60847,-4.25932l-0.20282,-2.83953l0.60847,-4.86778l-0.20282,-1.724l1.41977,-0.60847l-0.60848,9.63414l0.40565,7.09884l0.20283,1.52119l0.20282,-2.02824l6.6932,-0.40565h-6.6932l0.50706,-6.6932l-0.1014,3.75224l0.40565,2.23107l0.91271,-0.30423l0.40565,0.60848l0.40565,-2.02825l0.30423,-0.20282l0.20283,0.91271l0.50705,-0.30424l0.20283,1.01412h0.40565l0.70989,-1.82542h0.60847l-0.20282,-1.41977h0.50706l0.30424,-2.23107l-1.41977,-0.8113h-0.50706l-0.60847,0.8113h-0.40565l0.50706,-4.96919v-2.12965l6.08472,-0.20283v0.60848h1.11553l0.50706,2.43389l-0.60847,1.41977v2.4339l0.40565,1.01411l-0.40565,1.62259l0.40565,3.75225l-2.23107,0.40565l1.82542,0.10141l0.20282,2.23107l-0.70989,1.21695l-0.1014,1.41976l2.83954,-0.20283v0.60847l-31.23492,1.41977l3.24518,-54.96534z" fill="#000000" fill-rule="evenodd" stroke-width="1.5" stroke-linecap="butt"/><path d="M323.78083,135.22534c1.19222,-0.31165 2.43699,-0.4169 3.73404,-0.31607c0.08668,2.2716 -0.0024,4.48409 -0.26671,6.6375c0,-2.10725 0,-4.21417 0,-6.32142c-1.15568,0 -2.31164,0 -3.46732,0z" fill="#000000" fill-rule="evenodd" stroke-width="1.5" stroke-linecap="butt"/><path d="M295.25552,145.61209c0,5.22565 -4.1288,9.46192 -9.22192,9.46192c-5.09312,0 -9.22192,-4.23624 -9.22192,-9.46192c0,-5.22565 4.12879,-9.46191 9.22192,-9.46191c5.09312,0 9.22192,4.23623 9.22192,9.46191z" data-paper-data="{&quot;index&quot;:null}" fill="#ff0000" fill-rule="nonzero" stroke-width="1.5" stroke-linecap="butt"/><path d="M317.85571,144.67923c0,5.29925 -4.18695,9.59519 -9.35182,9.59519c-5.16484,0 -9.35182,-4.29591 -9.35182,-9.59519c0,-5.29925 4.18695,-9.5952 9.35182,-9.5952c5.16484,0 9.35182,4.29593 9.35182,9.5952z" data-paper-data="{&quot;index&quot;:null}" fill="#ff0000" fill-rule="nonzero" stroke-width="1.5" stroke-linecap="butt"/><path d="M305.21071,181.288c0,-0.64195 0.62564,-0.64192 0.62564,-0.64192l1.01189,0.04888c0.01953,-0.0232 0.03907,-0.04635 0.05861,-0.06953c-0.44482,-0.10992 -0.44481,-0.62129 -0.44481,-0.62129c0.06064,-1.79182 -2.55463,-3.25342 -3.7351,-4.24551c-3.67627,-3.0895 -7.22431,-2.81579 -11.90628,-2.81579c-3.57533,-0.03654 -6.08022,2.29271 -8.77681,3.4547c-3.21425,1.38512 -2.49364,-7.59824 -1.51969,-9.09721c0.49409,-4.90231 6.37093,-10.2726 11.21884,-12.23589c1.27561,-0.51657 3.63192,-0.09585 5.02134,-0.09585c6.00078,0 16.78212,2.96 17.81446,8.83962c1.33111,2.73147 0.26942,8.52331 -0.98333,11.01718c-0.65293,1.29982 -1.45431,1.03107 -2.31146,1.78105c-0.6387,0.55883 -2.65862,3.49493 -3.06313,4.41499c-0.29792,0.28653 -0.59588,0.5731 -0.8938,0.85967l-1.49076,0.04888c0,0 -0.62564,0 -0.62564,-0.64195z" data-paper-data="{&quot;index&quot;:null}" fill="#ff0000" fill-rule="nonzero" stroke-width="1.5" stroke-linecap="butt"/><path d="M257.32487,99.67857c0.55444,0 0.69901,0.40987 0.73671,0.62362c2.55898,2.49696 5.49596,4.19887 8.33089,6.33999c3.73537,2.82118 6.97173,6.63835 10.42774,9.80635c4.83443,4.43156 10.19854,9.25636 14.40782,14.28734c1.21043,1.44672 2.07396,3.01018 3.42717,4.36237c0,0 0.53033,0.53033 0,1.06066c-0.53033,0.53033 -1.06066,0 -1.06066,0c-1.38279,-1.38378 -2.28105,-2.98333 -3.51695,-4.46049c-4.16719,-4.98067 -9.48407,-9.75615 -14.27098,-14.14415c-3.42575,-3.14027 -6.63866,-6.95509 -10.34933,-9.7393c-2.96272,-2.22299 -6.01402,-4.00987 -8.66274,-6.65607l-0.21967,-0.73033c0,0 0,-0.75 0.75,-0.75z" fill="#000000" fill-rule="nonzero" stroke-width="1.5" stroke-linecap="butt"/><path d="M333.08076,101.60225c0.03678,-0.21278 0.17995,-0.62695 0.73728,-0.62695c0.75,0 0.75,0.75 0.75,0.75l-0.21967,0.73033c-5.38241,5.38241 -10.43312,11.09024 -15.90829,16.42132c-6.12622,5.965 -12.14184,12.92714 -19.42454,17.48434c0,0 -0.63599,0.3975 -1.03349,-0.2385c-0.3975,-0.636 0.2385,-1.0335 0.2385,-1.0335c7.18938,-4.48766 13.13018,-11.40314 19.17311,-17.28705c5.40035,-5.25824 10.38651,-10.883 15.6871,-16.2z" fill="#000000" fill-rule="nonzero" stroke-width="1.5" stroke-linecap="butt"/><path d="M284.26571,145.26065c0,-1.24264 1.00736,-2.25 2.25,-2.25c1.24264,0 2.25,1.00736 2.25,2.25c0,1.24264 -1.00736,2.25 -2.25,2.25c-1.24264,0 -2.25,-1.00736 -2.25,-2.25z" fill="#000000" fill-rule="nonzero" stroke-width="0" stroke-linecap="butt"/><path d="M305.78075,144.55704c0,-1.24264 1.00736,-2.25 2.25,-2.25c1.24264,0 2.25,1.00736 2.25,2.25c0,1.24264 -1.00736,2.25 -2.25,2.25c-1.24264,0 -2.25,-1.00736 -2.25,-2.25z" fill="#000000" fill-rule="nonzero" stroke-width="0" stroke-linecap="butt"/></g></g></svg>