<svg version="1.1" xmlns="http://www.w3.org/2000/svg" xmlns:xlink="http://www.w3.org/1999/xlink" width="177.3625" height="155.0957" viewBox="0,0,177.3625,155.0957"><g transform="translate(-462.28334,-71.92096)"><g data-paper-data="{&quot;isPaintingLayer&quot;:true}" fill-rule="nonzero" stroke-linecap="butt" stroke-linejoin="miter" stroke-miterlimit="10" stroke-dasharray="" stroke-dashoffset="0" style="mix-blend-mode: normal"><path d="M516.2,199.3v-86.66667h97.33333v86.66667z" fill="#ff0000" stroke="#000000" stroke-width="1.5"/><path d="M541.77263,130.63695c-0.58117,1.31125 -2.11304,1.95274 -3.2873,2.77629c-3.18104,2.231 -6.57786,3.97315 -10.41017,2.1441c-6.6031,-3.15147 -7.11839,-13.93434 0.00385,-17.18318c2.87913,-1.31333 5.18996,-0.43417 7.94623,0.15204c0,0 1.51486,0.33664 1.89236,1.67296c2.23958,2.32946 5.4745,6.78386 3.85502,10.43779zM530.22017,122.89251c-1.80539,0.70756 -3.195,5.37915 -1.81786,6.80562c2.84718,2.94917 4.3851,1.01655 7.41155,-0.51138c0.44265,-0.22348 1.14427,-0.12045 1.37937,-0.55704c0.19123,-0.35513 -0.34863,-0.72926 -0.48169,-1.11003c-0.48877,-1.39863 -1.25146,-2.76915 -2.3297,-3.78525l-1.01446,-0.73094c-1.07143,-0.25611 -2.28215,-0.45001 -3.1472,-0.11099z" data-paper-data="{&quot;index&quot;:null}" fill="#ffffff" stroke="none" stroke-width="0.5"/><path d="M540.22972,187.35342l-0.21079,-0.13939c-0.00493,0.13874 -0.00937,0.27753 -0.0133,0.41639c2.66808,1.87298 6.53668,0.72788 9.71529,0.20661c3.43647,-0.56356 6.76107,-0.03133 10.18234,-0.35819c5.47912,-0.52346 10.93831,-2.27167 16.33333,-3.33333c5.52661,-0.01796 10.60542,-0.00267 16.07701,1.0378c2.94212,0.55947 7.2581,1.8288 10.10593,-0.29481c0.35511,-0.2648 -0.38658,-0.81502 -0.43659,-1.25516c-0.09675,-0.85143 0.04294,-1.7148 0.00184,-2.57073c-0.13333,-2.7768 -0.22222,-5.55556 -0.33333,-8.33333c-0.4072,-10.1801 -0.00184,-20.26683 -0.00184,-30.42927c0.00014,-0.03852 0.13209,-4.83093 -0.19477,-5.53822c-0.41762,-0.90367 -1.97655,-0.31288 -2.97189,-0.29511c-3.99672,0.07135 -8.00278,0 -12,0c-7.62984,0 -14.98546,-1.54327 -22.60158,-2.34777c-4.09965,-0.43305 -8.82418,-1.02492 -12.77504,0.4908c-0.23126,0.08872 -3.65394,2.38013 -4.05608,2.64771c-1.85666,3.88648 -1.73396,8.4674 -1.73396,12.70926c0,4.86864 -0.19844,9.72492 -0.67798,14.57089c-0.43889,4.43517 -2.50961,7.8975 -3.36628,12.2308c-0.50454,2.55211 -0.87849,5.11143 -1.09014,7.68732c1.0979,1.32269 0.04786,2.89774 0.04786,2.89774zM537.43735,171.86471c0.52317,-1.66485 1.56011,-3.15627 1.95805,-4.85541c2.56567,-10.95499 -1.41607,-22.68533 3.85357,-33.00004c1.26274,-0.94153 4.45101,-3.45315 5.94392,-4.01896c5.90256,-2.23705 12.78504,-1.18544 18.89163,-0.5092c2.60086,0.28802 5.24525,0.22141 7.82006,0.68805c1.82205,0.33021 3.55162,1.19739 5.40037,1.30235c4.80389,0.27274 9.69863,-0.00483 14.51132,-0.00483c0.64167,0 5.66014,-0.0225 5.975,0.08375c5.34973,1.80521 4.8438,6.07629 4.85833,10.74958c0,11.42404 -0.45954,22.79504 -0.00184,34.23739c0.12061,3.01525 0.51248,4.30608 0.33517,7.09594c-0.08671,1.36441 0.50571,3.08762 -0.43659,4.07817c-6.75926,7.10535 -16.39861,1.03232 -24.09426,1.0883c-1.91055,0.0139 -3.81221,0.32816 -5.7228,0.32136c-5.39589,1.09998 -10.84269,2.81186 -16.33333,3.33333c-3.29156,0.31262 -6.52854,-0.24941 -9.81766,0.30847c-4.31414,0.73174 -9.32006,1.85863 -13.42441,-0.67886c-0.18731,-0.1158 -0.35889,-0.2504 -0.51935,-0.3983c-1.15947,-0.34364 -1.50495,-1.38065 -1.60789,-1.96812c-0.04301,-0.05094 -0.0866,-0.10118 -0.13091,-0.15057l0.08742,-0.37142c0.01499,-5.77297 0.71811,-11.80627 2.45423,-17.331z" data-paper-data="{&quot;index&quot;:null}" fill="#ffffff" stroke="none" stroke-width="0.5"/><path d="M587.93192,164.96524c-3.06733,4.69831 -8.41673,5.94413 -13.24602,8.10989c-3.69595,0.00713 -5.75009,-0.74727 -9.1228,-2.11716c-3.71476,-1.50883 -5.52496,-1.85846 -8.10828,-5.19619c-3.38203,-4.3697 -1.89718,-14.83436 1.92701,-18.56288c3.13244,-3.05408 4.5536,-2.10366 8.4013,-2.70523c4.50676,-0.70461 10.38646,-2.00487 14.93036,-0.19379c3.32423,1.32495 3.70615,2.78434 5.27338,5.42643c0,0 0.72032,1.26056 0.10247,2.40936c2.08573,3.71095 1.99765,9.52859 -0.15742,12.82956zM568.51606,149.43966c-1.90173,0.28728 -4.07197,-0.30912 -5.5987,1.29477c-1.94178,2.03991 -1.92369,5.36142 -1.93443,7.8989c-0.00526,1.24219 -0.44641,3.05955 0.52811,4.20489c1.95159,2.29369 3.03453,2.34747 5.89172,3.47047c2.11902,0.83287 3.94549,1.87289 6.21054,1.88284c2.2586,-1.07841 6.28302,-2.12484 8.28688,-3.8267c4.68247,-3.97679 3.07392,-10.99878 -2.69025,-12.30614l-1.49476,-0.99092c0,0 -1.20702,-1.20702 -0.62893,-2.62368c-2.8023,-0.13146 -5.90754,0.59335 -8.57017,0.99558z" data-paper-data="{&quot;index&quot;:null}" fill="#ffffff" stroke="none" stroke-width="0.5"/><text transform="translate(502.86667,99.8) scale(0.71668,0.71668)" font-size="40" xml:space="preserve" fill="#ffffff" fill-rule="nonzero" stroke="none" stroke-width="1" stroke-linecap="butt" stroke-linejoin="miter" stroke-miterlimit="10" stroke-dasharray="" stroke-dashoffset="0" font-family="&quot;Diavlo&quot;, Sans Serif" font-weight="normal" text-anchor="start" style="mix-blend-mode: normal"><tspan x="0" dy="0">Instagram</tspan></text><text transform="translate(462.53334,221.96666) scale(0.5,0.5)" font-size="40" xml:space="preserve" fill="#ffffff" fill-rule="nonzero" stroke="none" stroke-width="1" stroke-linecap="butt" stroke-linejoin="miter" stroke-miterlimit="10" stroke-dasharray="" stroke-dashoffset="0" font-family="&quot;Diavlo&quot;, Sans Serif" font-weight="normal" text-anchor="start" style="mix-blend-mode: normal"><tspan x="0" dy="0">@xinxinmckenzie40</tspan></text></g></g></svg>