<svg version="1.1" xmlns="http://www.w3.org/2000/svg" xmlns:xlink="http://www.w3.org/1999/xlink" width="650.64865" height="372.87088" viewBox="0,0,650.64865,372.87088"><g transform="translate(8.92792,3.5826)"><g data-paper-data="{&quot;isPaintingLayer&quot;:true}" stroke-linejoin="miter" stroke-miterlimit="10" stroke-dasharray="" stroke-dashoffset="0" style="mix-blend-mode: normal"><path d="M-7.92792,83.00299v-85.58559h648.64865v85.58559z" fill="#760000" fill-rule="nonzero" stroke="#000000" stroke-width="2" stroke-linecap="butt"/><path d="M502.1571,182.27839l-9.63367,-17.85118l45.86095,0.21265l16.39233,17.70137z" data-paper-data="{&quot;index&quot;:null}" fill="#cedce9" fill-rule="nonzero" stroke="#000000" stroke-width="0.5" stroke-linecap="round"/><path d="M549.02128,181.38347c-1.2509,-0.11863 -2.46074,-0.3131 -3.651,-0.53478c0.00046,0.03112 -0.00322,0.06254 -0.01131,0.0942c-0.19762,0.77131 -2.64553,0.14413 -2.64553,0.14413c-10.81161,-2.77005 -21.62323,-5.5401 -32.43482,-8.31014c-2.78213,-0.71281 -9.61517,-2.8364 -11.78533,-2.90081c-1.25006,-0.0371 -2.08948,-0.2802 -3.61294,-0.63342c-0.17197,-0.03987 -0.48504,-0.11112 -0.76109,-0.17633c1.3801,0.70465 -0.10779,3.5676 -0.32582,4.41852c-0.92222,3.59945 -1.84443,7.19889 -2.76665,10.79832c-0.16468,0.64275 -0.32937,1.28553 -0.49404,1.92827c-0.06588,0.25712 -0.68409,0.8794 -0.19762,0.77131c1.8509,-0.41124 4.93315,0.85454 8.6665,1.80949c7.35925,1.88239 15.30085,3.6529 22.42116,5.92169c12.98425,4.21296 27.51394,6.51964 40.36856,10.80056c10.80393,3.69366 23.98312,7.15373 35.34346,10.06438c2.85593,0.73171 5.71179,1.46342 8.5677,2.19513c0.42969,0.1101 1.10903,0.26471 1.8127,0.4237c-0.6013,-0.57571 0.37957,-1.34405 0.51729,-1.88159c0.51451,-2.00813 3.53838,-4.92479 1.37794,-7.40095c-1.75638,-2.78463 -2.68206,-5.2696 -5.9029,-8.42314c-2.37644,-2.32681 -6.35271,-4.86836 -8.25042,-7.06108c-0.8744,-1.24108 -2.05084,-0.81561 -5.6381,-1.9701c-7.93768,-2.55455 -16.05079,-4.52335 -24.38031,-6.65746c-3.03616,-0.7779 -6.8991,-1.56063 -9.79166,-2.50873c-0.6106,-0.20013 -1.73881,-0.65162 -2.58175,-1.00061c1.50048,0.79958 -2.24768,0.24082 -3.84402,0.08943zM510.67373,171.23423c8.17108,2.09351 16.34218,4.18704 24.51325,6.28054c0.24525,0.02326 0.4904,0.04651 0.73562,0.06977c3.23007,0.30633 5.99992,1.15413 8.71593,1.61666c3.70138,0.63034 6.12711,0.18088 9.92847,0.8999c2.18371,0.41305 8.02128,2.37933 11.06686,3.15964c8.25825,2.11585 16.54555,4.08059 24.38029,6.65745c4.40125,1.44759 8.33579,1.83193 9.97234,4.15483c0.13488,0.75768 2.49718,1.81487 3.65584,2.66799c1.77068,1.30377 3.11882,2.90819 4.42087,4.18301c3.22774,3.16031 4.31665,5.83921 6.11681,8.69328c1.51645,2.91078 -0.62081,5.49088 -1.25167,7.95314c-0.34878,1.36129 0.08631,2.49518 -3.33718,2.8437c-1.19385,0.12153 -11.17076,-2.86207 -12.85154,-3.2927c-11.71767,-3.00219 -25.38388,-6.60776 -36.51908,-10.41468c-12.19038,-4.34864 -27.44895,-6.60663 -40.14544,-10.72623c-10.21016,-3.40245 -26.76551,-5.54894 -34.63576,-10.25218c-0.77919,-0.46566 0.58636,-2.28856 0.69167,-2.69958c0.92222,-3.59945 1.84443,-7.19887 2.76664,-10.79831c0.30833,-1.20342 -0.63912,-4.50803 2.14453,-4.74979c4.85768,-0.42191 13.1052,2.0814 19.63165,3.75355z" data-paper-data="{&quot;index&quot;:null}" fill="#000000" fill-rule="nonzero" stroke="none" stroke-width="0.5" stroke-linecap="butt"/><path d="M545.34565,180.8029c1.19021,0.22167 2.41458,0.41876 3.66554,0.53742c1.59635,0.15139 5.35912,0.71339 3.85861,-0.08619c0.84295,0.34899 1.98089,0.80295 2.59143,1.00308c2.89256,0.94809 6.78915,1.74151 9.82526,2.51939c8.32946,2.1341 16.49232,4.12715 24.42997,6.68171c3.58725,1.15448 4.77055,0.73389 5.64494,1.97496c1.89775,2.19271 5.88939,4.75046 8.26586,7.07727c3.22084,3.15355 4.1478,5.65444 5.90418,8.43908c2.16048,2.47617 -0.87831,5.40323 -1.39282,7.41136c-0.13773,0.53754 -1.12387,1.30743 -0.52254,1.88316c-0.70362,-0.15897 -1.38401,-0.31335 -1.81374,-0.42344c-2.85591,-0.73171 -5.71743,-1.46228 -8.57332,-2.19399c-11.36042,-2.91066 -24.59663,-6.37102 -35.40056,-10.0647c-12.85462,-4.2809 -27.51208,-6.62831 -40.49636,-10.84128c-7.12031,-2.26881 -15.0819,-4.05381 -22.44117,-5.93621c-3.73332,-0.95493 -6.81805,-2.22312 -8.66896,-1.81188c-0.48648,0.10808 0.13019,-0.51584 0.19607,-0.77294c0.16468,-0.64275 0.32597,-1.28972 0.49065,-1.93245c0.92222,-3.59945 1.84482,-7.22159 2.76703,-10.82105c0.21802,-0.85092 1.71523,-3.71935 0.33512,-4.42401c0.27609,0.06523 0.58947,0.13635 0.76143,0.17622c1.5234,0.35321 2.36509,0.59552 3.61511,0.63262c2.17016,0.06441 9.01041,2.18603 11.79253,2.89885c10.81166,2.77006 21.68481,5.53954 32.49641,8.30959c0,0 2.46025,0.62894 2.65787,-0.14236c0.00811,-0.03167 0.01208,-0.06302 0.01162,-0.09415z" data-paper-data="{&quot;noHover&quot;:false,&quot;origItem&quot;:[&quot;Path&quot;,{&quot;applyMatrix&quot;:true,&quot;segments&quot;:[[[579.60736,595.76373],[0.95609,-0.20262],[0.00646,0.07548]],[[579.61718,596],[0,-0.08208],[0,2]],[[577.61718,598],[0,0],[-8.83333,0]],[[551.11718,598],[8.83333,0],[-2.27308,0]],[[541.51161,598.28885],[1.67648,-1.19621],[-0.96568,0.68904]],[[538.61718,599],[1.23739,-0.09027],[-0.13966,0.01019]],[[537.99901,599.04541],[0.22447,-0.0134],[1.19653,0.85421]],[[538.61718,610],[0,-2.20646],[0,9.33333]],[[538.61718,638],[0,-9.33333],[0,1.66667]],[[538.61718,643],[0,-1.66667],[0,0.66667]],[[538.61718,645],[-0.35177,0.56631],[1.33831,-2.15456]],[[545.61718,644],[-3.04994,0.00386],[6.01206,-0.00761]],[[563.97058,644.43107],[-5.90478,-1.08158],[10.78253,2.15651]],[[597.04254,645.54479],[-10.6965,-2.40266],[9.00888,2.25222]],[[626.11718,648],[-9.28168,0],[2.33333,0]],[[633.11718,648],[-2.33333,0],[0.35109,0]],[[634.59021,647.90091],[-0.5707,0.05184],[-0.57412,-1.02596]],[[634.61718,643],[0,1.39387],[0,-5.20707]],[[634.21982,624.13246],[2.14282,4.67827],[-1.8936,-5.6808]],[[628.03948,607.31672],[3.08887,5.66543],[-2.2791,-4.1802]],[[620.32688,595.27881],[1.8857,4.15235],[-0.91417,-2.47477]],[[615.61718,594],[2.9771,0.57275],[-6.58756,-1.26734]],[[595.61718,593],[6.8054,0],[-2.48058,0]],[[587.61718,593],[2.40395,0.50364],[-0.50743,-0.10631]],[[585.44122,592.1748],[0.71481,0.32365],[1.30749,1.01011]],[[582.51161,594.78885],[1.25365,-0.62682],[-0.98239,0.4912]]],&quot;closed&quot;:true}],&quot;index&quot;:null}" fill="#c9c9c9" fill-rule="nonzero" stroke="none" stroke-width="0.5" stroke-linecap="butt"/><path d="M578.93805,192.42297c0.02291,-0.08944 0.02738,-0.2479 0.03267,-0.40335c-0.14138,0.02741 -0.34252,0.03013 -0.59548,0.01145c-0.78483,0.04662 -1.88515,-0.23529 -1.88515,-0.23529c-9.32411,-2.38894 -15.23417,-1.72118 -19.08222,-0.41178c-0.45038,0.14502 -0.49157,0.44823 -0.56156,0.72145c-0.01991,0.07774 -0.07516,0.19523 -0.13368,0.31641c0.03519,-0.03483 0.1054,-0.05286 0.23625,-0.04246c0.57823,0.04597 5.24121,1.86598 5.91837,1.67966c0.2035,-0.05599 -0.83973,-0.34365 -0.75261,-0.44327c1.0714,-1.2246 9.15671,-1.4206 13.01288,-1.0549c1.00013,0.09484 2.10185,0.29591 3.18662,0.53665c-0.36773,-0.31417 0.5571,-0.41388 0.62388,-0.67455zM556.68333,192.48238c-0.12576,0.25999 -0.2422,0.50948 -0.03468,0.39437c0.14184,-0.07865 0.01581,-0.27238 0.03468,-0.39437zM553.20573,189.57222c4.03102,-1.18178 9.16952,-1.88448 16.61174,-0.77247c0.76708,-0.16089 2.1721,0.1991 2.1721,0.1991l1.22394,0.31358c2.77142,0.71007 4.31561,0.78151 7.29248,1.54421c4.13416,1.05922 4.42884,3.89495 2.07266,4.09962c-1.48684,0.12914 -3.71527,-0.27445 -5.61517,-0.45462c-5.62371,-0.53334 -8.25639,1.39996 -14.49145,1.10006c-6.60836,-0.31788 -12.80159,-4.89119 -9.26632,-6.02946z" data-paper-data="{&quot;index&quot;:null}" fill="#000000" fill-rule="nonzero" stroke="none" stroke-width="0.5" stroke-linecap="butt"/><path d="M579.06826,192.01708c-0.00521,0.15546 -0.00458,0.31753 -0.02749,0.40696c-0.06678,0.26066 -0.98281,0.36771 -0.61506,0.68188c-1.08477,-0.24073 -2.1919,-0.44652 -3.19207,-0.54138c-3.8562,-0.36572 -11.97512,-0.18985 -13.04651,1.03476c-0.0872,0.09961 0.82245,0.42522 0.61893,0.48121c-0.67715,0.18631 -5.37924,-1.65452 -5.95749,-1.7005c-0.13092,-0.0104 -0.20057,0.00798 -0.23573,0.04284c0.05853,-0.12119 0.10969,-0.24162 0.1296,-0.31935c0.06999,-0.2732 0.10189,-0.58451 0.55226,-0.72953c3.84803,-1.30941 9.96412,-1.97265 19.28822,0.41628c0,0 1.10488,0.28484 1.88972,0.23822c0.25298,0.01867 0.45419,0.016 0.59552,-0.01143z" data-paper-data="{&quot;noHover&quot;:false,&quot;origItem&quot;:[&quot;Path&quot;,{&quot;applyMatrix&quot;:true,&quot;segments&quot;:[[[607.563,601.99816],[0.02649,0.38155],[-0.10299,0.15484]],[[607.10872,602.39727],[0.1976,-0.11227],[-0.59254,0.60273]],[[605.61718,603],[0,0],[-7.618,0]],[[590.90604,613.89443],[2.69308,-5.58508],[-0.31682,0.63364]],[[590.61718,616],[0,-0.70843],[0,0.20156]],[[590.57685,616.85325],[0.02106,-0.33136],[0.02013,-0.10671]],[[590.74964,616.60263],[-0.10238,0.05628],[0.45234,-0.24865]],[[595.61718,617],[-0.48256,0.87548],[0.14503,-0.26312]],[[594.95308,616.3906],[-0.04725,0.29671],[0.58086,-3.64773]],[[604.72276,605.71115],[-3.02833,1.51416],[0.78545,-0.39273]],[[607.27135,605.03032],[-0.87898,0.0905],[-0.34365,-0.53523]],[[607.61718,603],[0,0.6759],[0,-0.23192]]],&quot;closed&quot;:true}],&quot;index&quot;:null}" fill="#ffffff" fill-rule="nonzero" stroke="none" stroke-width="0.5" stroke-linecap="butt"/><path d="M324.42023,184.74995l16.43458,-17.66216l45.8613,-0.10311l-9.67627,17.82811z" data-paper-data="{&quot;index&quot;:null}" fill="#cedce9" fill-rule="nonzero" stroke="#000000" stroke-width="0.5" stroke-linecap="round"/><path d="M356.65979,70.26921l181.51397,-0.1483l27.86777,110.28294l-89.7917,0.25783l-20.55,-77.37375l-10.57687,-3.92698l-9.7933,2.53594l-6.99632,5.19421l-40.84756,73.30244l-76.33819,1.89628z" data-paper-data="{&quot;index&quot;:null}" fill="#af9c6f" fill-rule="nonzero" stroke="#000000" stroke-width="0.5" stroke-linecap="round"/><path d="M320.05908,183.81764c-1.58366,-0.25144 -5.35274,-0.64494 -3.7003,-1.04512c-0.90335,0.12778 -2.10849,0.28368 -2.74971,0.32523c-3.03761,0.19689 -6.9737,-0.00833 -10.10793,-0.01207c-8.59855,-0.01027 -16.94632,-0.12668 -25.27025,0.36793c-3.76182,0.22353 -4.79501,-0.48185 -5.95128,0.502c-2.38452,1.65025 -6.86895,3.12004 -9.75049,4.78079c-3.90545,2.25083 -5.42151,4.42646 -7.81676,6.68519c-2.70963,1.85924 -0.50853,5.43776 -0.51101,7.51076c-0.00066,0.55491 0.75763,1.54356 0.03177,1.95115c0.72108,0.0215 1.41752,0.04115 1.8611,0.04168c2.94816,0.00351 5.89626,0.00704 8.84443,0.01055c11.7273,0.014 25.35294,-0.05053 36.73663,-0.93356c13.51603,-0.94038 28.16196,0.44876 41.78658,-0.39349c7.46112,-0.42168 15.59335,-0.15602 23.18951,-0.1439c3.85355,0.00614 7.15405,-0.4511 8.84395,0.40867c0.44417,0.22599 0.00063,-0.53082 0.00095,-0.79623c0.0008,-0.66351 0.00159,-1.32704 0.00237,-1.99055c0.00444,-3.71571 0.00887,-7.4314 0.01331,-11.1471c0.00106,-0.8784 -0.72597,-4.02195 0.78625,-4.3602c-0.2836,-0.00567 -0.60456,-0.01475 -0.78101,-0.01901c-1.5634,-0.03782 -2.43694,-0.01171 -3.65676,-0.28748c-2.11767,-0.47875 -9.2644,-0.12606 -12.1364,-0.12949c-11.16081,-0.01333 -22.32161,-0.02666 -33.48245,-0.03999c0,0 -2.52697,-0.00302 -2.52602,-0.79923c0.00004,-0.03269 0.00431,-0.06401 0.01252,-0.09404c-1.20793,-0.08212 -2.42805,-0.19546 -3.66902,-0.39249zM359.72596,183.55097c6.73727,0.00805 15.34847,-0.35968 19.9475,1.26017c2.63546,0.92825 0.8939,3.8922 0.89242,5.1345c-0.00444,3.71571 -0.00887,7.4314 -0.01331,11.1471c-0.0005,0.42429 0.86735,2.53012 -0.00333,2.78678c-8.79438,2.59224 -25.36205,0.54285 -36.09812,1.29191c-13.32268,0.82359 -28.6623,-0.79447 -41.55195,0.37715c-11.73273,0.91011 -25.86633,0.99411 -37.96247,0.97966c-1.73506,-0.00207 -12.14083,0.39953 -13.26663,-0.01584c-3.22844,-1.19116 -2.52437,-2.18076 -2.52269,-3.58602c0.00303,-2.54178 -1.42335,-5.57333 0.771,-8.01403c2.45497,-2.31503 4.17745,-4.63781 8.09128,-6.89346c1.57879,-0.90989 3.28439,-2.12747 5.32426,-2.94854c1.33478,-0.53727 3.8861,-0.97203 4.20562,-1.67214c2.16408,-1.84145 6.07017,-1.23257 10.69336,-1.53698c8.22983,-0.54187 16.74528,-0.37811 25.27025,-0.36793c3.14396,0.00376 9.28743,-0.44482 11.50516,-0.30031c3.86057,0.25156 6.09762,1.29168 9.83925,1.6042c2.74555,0.22932 5.6393,0.09897 8.84374,0.60773c0.24328,0.03863 0.48651,0.07724 0.72979,0.11587c8.43499,0.01007 16.86998,0.02015 25.30499,0.03022z" data-paper-data="{&quot;index&quot;:null}" fill="#000000" fill-rule="nonzero" stroke="none" stroke-width="0.5" stroke-linecap="butt"/><path d="M323.76326,184.17193c-0.00822,0.03005 -0.01219,0.06139 -0.01223,0.09406c-0.00095,0.79623 2.53843,0.80061 2.53843,0.80061c11.16081,0.01333 22.38109,0.04256 33.54196,0.05589c2.87199,0.00343 10.02519,-0.34554 12.14287,0.1332c1.21978,0.27577 2.09531,0.25099 3.65866,0.28879c0.17649,0.00428 0.49768,0.01353 0.78132,0.01923c-1.51222,0.33827 -0.77754,3.48941 -0.7786,4.36783c-0.00444,3.71571 -0.01417,7.45349 -0.0186,11.16919c-0.0008,0.66351 -0.00592,1.33027 -0.00671,1.99377c-0.00032,0.26542 0.44131,1.02338 -0.00285,0.79741c-1.6899,-0.85976 -4.9934,-0.40082 -8.84694,-0.40697c-7.59617,-0.01209 -15.75141,-0.26871 -23.21253,0.15297c-13.62464,0.84225 -28.40446,-0.53934 -41.92049,0.40105c-11.38369,0.88304 -25.06465,0.93365 -36.79201,0.91964c-2.94816,-0.00351 -5.90143,-0.00954 -8.84959,-0.01306c-0.44361,-0.00053 -1.14102,-0.0207 -1.86204,-0.04219c0.72588,-0.40758 -0.03713,-1.39906 -0.03647,-1.95397c0.00248,-2.07299 -2.21049,-5.66532 0.49917,-7.52456c2.39524,-2.25872 3.91652,-4.44949 7.82198,-6.70029c2.88158,-1.66075 7.38496,-3.14239 9.7695,-4.79263c1.15624,-0.98385 2.19729,-0.28148 5.9591,-0.50501c8.32391,-0.4946 16.7259,-0.38929 25.3244,-0.37902c3.13415,0.00374 7.10552,0.207 10.14313,0.01012c0.64115,-0.04157 1.85635,-0.19744 2.75969,-0.32522c-1.6525,0.40017 2.13159,0.79418 3.71524,1.04561c1.24103,0.19703 2.47586,0.31145 3.68377,0.39356z" data-paper-data="{&quot;noHover&quot;:false,&quot;origItem&quot;:[&quot;Path&quot;,{&quot;applyMatrix&quot;:true,&quot;segments&quot;:[[[579.60736,595.76373],[0.95609,-0.20262],[0.00646,0.07548]],[[579.61718,596],[0,-0.08208],[0,2]],[[577.61718,598],[0,0],[-8.83333,0]],[[551.11718,598],[8.83333,0],[-2.27308,0]],[[541.51161,598.28885],[1.67648,-1.19621],[-0.96568,0.68904]],[[538.61718,599],[1.23739,-0.09027],[-0.13966,0.01019]],[[537.99901,599.04541],[0.22447,-0.0134],[1.19653,0.85421]],[[538.61718,610],[0,-2.20646],[0,9.33333]],[[538.61718,638],[0,-9.33333],[0,1.66667]],[[538.61718,643],[0,-1.66667],[0,0.66667]],[[538.61718,645],[-0.35177,0.56631],[1.33831,-2.15456]],[[545.61718,644],[-3.04994,0.00386],[6.01206,-0.00761]],[[563.97058,644.43107],[-5.90478,-1.08158],[10.78253,2.15651]],[[597.04254,645.54479],[-10.6965,-2.40266],[9.00888,2.25222]],[[626.11718,648],[-9.28168,0],[2.33333,0]],[[633.11718,648],[-2.33333,0],[0.35109,0]],[[634.59021,647.90091],[-0.5707,0.05184],[-0.57412,-1.02596]],[[634.61718,643],[0,1.39387],[0,-5.20707]],[[634.21982,624.13246],[2.14282,4.67827],[-1.8936,-5.6808]],[[628.03948,607.31672],[3.08887,5.66543],[-2.2791,-4.1802]],[[620.32688,595.27881],[1.8857,4.15235],[-0.91417,-2.47477]],[[615.61718,594],[2.9771,0.57275],[-6.58756,-1.26734]],[[595.61718,593],[6.8054,0],[-2.48058,0]],[[587.61718,593],[2.40395,0.50364],[-0.50743,-0.10631]],[[585.44122,592.1748],[0.71481,0.32365],[1.30749,1.01011]],[[582.51161,594.78885],[1.25365,-0.62682],[-0.98239,0.4912]]],&quot;closed&quot;:true}],&quot;index&quot;:null}" fill="#c9c9c9" fill-rule="nonzero" stroke="none" stroke-width="0.5" stroke-linecap="butt"/><path d="M288.33458,187.04872c-0.00032,0.2691 0.87044,0.59626 0.43599,0.80881c1.11053,0.03735 2.22759,0.11735 3.21978,0.27489c3.82555,0.60739 11.60661,2.81326 12.33881,4.26634c0.05954,0.11819 -1.02249,0.13665 -0.83937,0.2416c0.60929,0.34927 5.57883,-0.25052 6.15025,-0.15086c0.12932,0.02256 0.19283,0.05754 0.21822,0.10003c-0.02646,-0.13194 -0.05067,-0.2595 -0.05058,-0.33975c0.00034,-0.28204 0.03606,-0.58593 -0.36394,-0.83867c-3.40001,-2.22754 -8.9569,-4.3479 -18.58218,-4.35939c0,0 -1.13585,-0.00135 -1.88427,-0.24221c-0.24963,-0.045 -0.44371,-0.09777 -0.57381,-0.15957c-0.03364,0.15185 -0.06881,0.30643 -0.06893,0.39875zM309.80676,193.046c0.17226,0.16323 0.12171,-0.10741 0.06476,-0.39055c-0.01214,0.12283 -0.1825,0.27902 -0.06476,0.39055zM313.96496,190.70433c3.13978,1.98385 -3.9982,4.86841 -10.47708,3.52846c-6.1129,-1.26427 -8.18036,-3.79298 -13.75941,-4.67876c-1.8848,-0.29924 -4.1435,-0.46407 -5.55116,-0.95987c-2.23073,-0.78571 -1.23826,-3.45839 3.02943,-3.4533c3.07302,0.00367 4.58625,0.31953 7.44719,0.32294l1.26346,0.0015c0,0 1.45039,0.00173 2.15314,0.34881c7.48443,0.77884 12.28542,2.74064 15.89442,4.89022z" data-paper-data="{&quot;index&quot;:null}" fill="#000000" fill-rule="nonzero" stroke="none" stroke-width="0.5" stroke-linecap="butt"/><path d="M288.30971,186.62315c0.13001,0.06179 0.32422,0.11455 0.57386,0.15957c0.74841,0.24085 1.88942,0.24051 1.88942,0.24051c9.62526,0.01149 15.38279,2.17884 18.78276,4.40639c0.40002,0.25274 0.35324,0.56218 0.35291,0.8442c-0.00009,0.08025 0.01944,0.20963 0.04589,0.34158c-0.02535,-0.04252 -0.08824,-0.07769 -0.21761,-0.10025c-0.57144,-0.09966 -5.58402,0.51054 -6.19332,0.16129c-0.18312,-0.10497 0.77898,-0.19348 0.71938,-0.31168c-0.73217,-1.45308 -8.5508,-3.64786 -12.37639,-4.25525c-0.99223,-0.15754 -2.1157,-0.2343 -3.22624,-0.27166c0.43446,-0.21257 -0.42594,-0.54462 -0.42561,-0.81372c0.0001,-0.09233 0.04113,-0.2491 0.07485,-0.40096z" data-paper-data="{&quot;noHover&quot;:false,&quot;origItem&quot;:[&quot;Path&quot;,{&quot;applyMatrix&quot;:true,&quot;segments&quot;:[[[607.563,601.99816],[0.02649,0.38155],[-0.10299,0.15484]],[[607.10872,602.39727],[0.1976,-0.11227],[-0.59254,0.60273]],[[605.61718,603],[0,0],[-7.618,0]],[[590.90604,613.89443],[2.69308,-5.58508],[-0.31682,0.63364]],[[590.61718,616],[0,-0.70843],[0,0.20156]],[[590.57685,616.85325],[0.02106,-0.33136],[0.02013,-0.10671]],[[590.74964,616.60263],[-0.10238,0.05628],[0.45234,-0.24865]],[[595.61718,617],[-0.48256,0.87548],[0.14503,-0.26312]],[[594.95308,616.3906],[-0.04725,0.29671],[0.58086,-3.64773]],[[604.72276,605.71115],[-3.02833,1.51416],[0.78545,-0.39273]],[[607.27135,605.03032],[-0.87898,0.0905],[-0.34365,-0.53523]],[[607.61718,603],[0,0.6759],[0,-0.23192]]],&quot;closed&quot;:true}],&quot;index&quot;:null}" fill="#ffffff" fill-rule="nonzero" stroke="none" stroke-width="0.5" stroke-linecap="butt"/><path d="M353.95307,79.22587v0.31896l-2.12638,-0.10632z" data-paper-data="{&quot;index&quot;:null}" fill="#909090" fill-rule="evenodd" stroke="#000000" stroke-width="0.5" stroke-linecap="butt"/><path d="M385.42351,78.80059v0.85056l2.33902,0.10632h-2.44534z" data-paper-data="{&quot;index&quot;:null}" fill="#acacac" fill-rule="evenodd" stroke="#000000" stroke-width="0.5" stroke-linecap="butt"/><path d="M360.61987,73.62304c0.78609,0 1.57115,0 2.35723,0c-0.80146,0.10167 -1.62137,0.1359 -2.45972,0.10249c-0.03177,-0.3293 0.00205,-0.63676 0.10249,-0.92239c0,0.27334 0,0.54657 0,0.81991z" data-paper-data="{&quot;index&quot;:null}" fill="#6b6b6b" fill-rule="evenodd" stroke="none" stroke-width="0.5" stroke-linecap="butt"/><path d="M357.13526,73.62304c0.99106,0 1.9811,0 2.97216,0c-1.00644,0.10187 -2.03132,0.136 -3.07465,0.10249c-0.02767,-0.16388 0.00718,-0.3005 0.10249,-0.40995c0,0.10249 0,0.20498 0,0.30746z" data-paper-data="{&quot;index&quot;:null}" fill="#9e9e9e" fill-rule="evenodd" stroke="none" stroke-width="0.5" stroke-linecap="butt"/><path d="M387.26686,73.72552c0.8568,0.0002 1.67671,0.06857 2.45972,0.20498c-1.63162,-0.10085 -3.27143,-0.13498 -4.91945,-0.10249c0.80249,-0.06826 1.62239,-0.10249 2.45972,-0.10249z" data-paper-data="{&quot;index&quot;:null}" fill="#484848" fill-rule="evenodd" stroke="none" stroke-width="0.5" stroke-linecap="butt"/><path d="M525.11377,74.44294c0,0.10249 0,0.20498 0,0.30746c-1.20414,-0.19954 -2.434,-0.26791 -3.68958,-0.20498c1.21162,-0.10198 2.44148,-0.1361 3.68958,-0.10249z" data-paper-data="{&quot;index&quot;:null}" fill="#838383" fill-rule="evenodd" stroke="none" stroke-width="0.5" stroke-linecap="butt"/><path d="M529.86896,44.5822c0,0.13884 0,0.27779 0,0.41663c-0.09905,-0.1478 -0.13374,-0.32132 -0.10416,-0.52079c0.40319,-0.03281 0.78514,0.00187 1.14573,0.10416c-0.34716,0 -0.69442,0 -1.04157,0z" data-paper-data="{&quot;index&quot;:null}" fill="#535353" fill-rule="evenodd" stroke="none" stroke-width="0.5" stroke-linecap="butt"/><path d="M535.42545,2.26957l26.81076,0.67661l0.16916,1.8184l-0.08458,0.42288l-18.18395,7.69646l0.3383,3.93281l2.19899,22.58193l0.50746,4.73628l0.08458,1.05721l-8.79596,1.01492l-0.08458,0.3383l0.16916,2.07213l2.5373,28.0794l-10.74122,0.08458l-0.16916,0.80348l-4.48255,1.0995l-15.98496,0.16916l-12.2636,-1.01492l-1.94526,-0.67661h-13.78597l-6.00493,-2.79103l-119.76035,0.88805l-1.26865,-0.08458l-0.16916,-0.29602l1.52238,-15.8581l-0.3383,-0.08458v-0.16916h0.3383l0.76119,-8.79596l0.42288,-4.48255l-11.58698,-1.69153l-0.16916,-0.16916l0.25373,-1.73382l3.38306,-0.04229l16.15411,0.04229l7.78104,0.29602l-27.14906,-0.16916l-0.16916,1.60695l108.00421,0.59204v-1.52238l-79.92481,-0.50746h28.0794h0.50746l0.46517,-11.84071l-9.26113,-6.93527l-0.04229,-1.26865l0.93034,-0.16916l10.02232,0.16916h1.52238l0.50746,-0.04229l-5.45518,-5.87807l0.04229,-1.69153l31.80077,0.59204l11.50241,0.16916l0.59204,-5.15917l9.55714,0.16916l15.4775,0.25373l6.51239,-9.68401z" data-paper-data="{&quot;index&quot;:null}" fill="#000001" fill-rule="evenodd" stroke="none" stroke-width="0.5" stroke-linecap="butt" opacity="0.913"/><path d="M476.72935,2.94618l-0.08458,-1.77611l1.4378,-0.08458l83.39245,2.07213l0.54975,0.21144l0.21144,1.52238l-0.46517,0.08458z" data-paper-data="{&quot;index&quot;:null}" fill="#e4e4e4" fill-rule="evenodd" stroke="none" stroke-width="0.5" stroke-linecap="butt" opacity="0.999"/><path d="M476.64477,1.17008l0.08458,1.77611l-0.54975,0.50746l-5.92036,8.54223l0.08458,-1.4378z" data-paper-data="{&quot;index&quot;:null}" fill="#cfcfcf" fill-rule="evenodd" stroke="none" stroke-width="0.5" stroke-linecap="butt"/><path d="M535.42545,2.10042l23.51227,0.46517l1.31093,0.12687l2.41043,0.16916l0.04229,0.84577l0.25373,1.4378l-0.63432,0.59204l-4.14425,1.73382l-2.02984,0.67661l-1.01492,0.42288l-1.52238,0.84577l-1.01492,0.25373l-1.52238,0.59204l-2.02984,1.01492l-0.50746,0.08458l-0.25373,0.25373l-3.63679,1.8184l-0.16916,0.38059l0.16916,0.97263l0.16916,1.01492l-0.16916,0.21144l0.04229,0.54975h-0.21144v0.25373l-0.3383,-3.93281l18.18395,-7.69646l0.08458,-0.42288l-0.16916,-1.8184l-26.81076,-0.67661z" data-paper-data="{&quot;index&quot;:null}" fill="#69acfe" fill-rule="evenodd" stroke="none" stroke-width="0.5" stroke-linecap="butt" opacity="0.326"/><path d="M476.72935,3.11533l84.9994,2.07213l-17.6342,7.48502l-0.46517,-4.39798l-60.55679,-1.22636l-9.04969,10.23376l-7.01985,-0.12687z" data-paper-data="{&quot;index&quot;:null}" fill="#bab9b4" fill-rule="evenodd" stroke="none" stroke-width="0.5" stroke-linecap="butt"/><path d="M483.32631,7.17501l59.54187,1.31093l0.50746,0.12687l3.63679,36.45248l-62.3329,-0.3383z" data-paper-data="{&quot;index&quot;:null}" fill="#af9c6f" fill-rule="evenodd" stroke="none" stroke-width="0.5" stroke-linecap="butt"/><path d="M483.07259,7.34416l1.4378,37.34053l-3.72137,1.01492l-0.16916,0.46517l0.93034,30.70128l-5.7512,-2.66416l-0.12687,-0.21144l-1.4378,-56.49711z" data-paper-data="{&quot;index&quot;:null}" fill="#88774e" fill-rule="evenodd" stroke="none" stroke-width="0.5" stroke-linecap="butt"/><path d="M445.26688,10.30434l24.69635,0.50746v1.52238l-24.73863,-0.42288l-0.12687,-0.38059z" data-paper-data="{&quot;index&quot;:null}" fill="#e4e4e4" fill-rule="evenodd" stroke="none" stroke-width="0.5" stroke-linecap="butt" opacity="0.998"/><path d="M445.26688,12.08044l24.61177,0.54975l-3.29849,4.60942l-11.84071,-0.25373l-2.11441,0.08458l-2.36814,6.93527l-4.73628,0.08458l1.26865,-7.189l-2.19899,-0.08458z" data-paper-data="{&quot;index&quot;:null}" fill="#b9b9b4" fill-rule="evenodd" stroke="none" stroke-width="0.5" stroke-linecap="butt"/><path d="M544.64429,13.43367v1.35322l-0.16916,-0.97263z" data-paper-data="{&quot;index&quot;:null}" fill="#8080ff" fill-rule="evenodd" stroke="none" stroke-width="0.5" stroke-linecap="butt" opacity="0.008"/><path d="M432.74955,14.87147l0.16916,0.25373l-31.80077,-0.59204l-0.04229,1.69153l5.45518,5.87807l-0.50746,0.04229v-0.50746l-1.01492,-0.63432l-0.08458,-0.29602h-0.25373l-0.08458,-0.42288l-0.67661,-0.3383l-0.16916,-0.59204l-0.3383,-0.3383l-0.42288,-0.42288l-0.3383,-0.50746l-0.50746,-0.38059l-0.50746,-0.29602l-0.59204,-0.80348l-0.25373,-0.04229l-0.21144,-0.76119l-0.04229,-1.18407h0.25373l0.08458,-0.29602l1.69153,-0.04229l10.57207,0.29602l9.47257,0.08458l0.50746,0.16916z" data-paper-data="{&quot;index&quot;:null}" fill="#68b0fe" fill-rule="evenodd" stroke="none" stroke-width="0.5" stroke-linecap="butt" opacity="0.376"/><path d="M401.28709,14.70232l43.13403,0.84577l-0.08458,1.26865l-43.13403,-0.67661z" data-paper-data="{&quot;index&quot;:null}" fill="#e5e5e5" fill-rule="evenodd" stroke="none" stroke-width="0.5" stroke-linecap="butt" opacity="0.998"/><path d="M401.45625,16.39385l45.16386,0.7189l-1.4378,7.31587h-2.62187v-3.72137l-26.6416,-0.42288l-0.16916,4.99002l-4.99002,-0.04229l-1.18407,-0.12687z" data-paper-data="{&quot;index&quot;:null}" fill="#b9b8b5" fill-rule="evenodd" stroke="none" stroke-width="0.5" stroke-linecap="butt" opacity="0.999"/><path d="M452.96334,47.26428v-2.28356l0.88805,-0.50746l0.04229,-1.94526h-0.93034l-0.08458,-25.37295l21.14413,0.3383l1.4378,56.66627l-21.39786,0.08458l-0.08458,-26.97991z" data-paper-data="{&quot;index&quot;:null}" fill="#af9c6f" fill-rule="evenodd" stroke="none" stroke-width="0.5" stroke-linecap="butt"/><path d="M452.54046,17.91622l0.12687,4.65171l0.04229,19.96006h-2.45272l0.04229,-17.84565z" data-paper-data="{&quot;index&quot;:null}" fill="#af9c6f" fill-rule="evenodd" stroke="none" stroke-width="0.5" stroke-linecap="butt"/><path d="M416.08798,20.45352l26.3033,0.42288l-0.16916,21.56701l-26.89533,-0.16916z" data-paper-data="{&quot;index&quot;:null}" fill="#88774e" fill-rule="evenodd" stroke="none" stroke-width="0.5" stroke-linecap="butt"/><path d="M393.75978,22.22963l13.10936,0.21144l0.93034,1.01492l-14.12428,-0.12687z" data-paper-data="{&quot;index&quot;:null}" fill="#e5e5e5" fill-rule="evenodd" stroke="none" stroke-width="0.5" stroke-linecap="butt" opacity="0.994"/><path d="M394.01351,23.58285l0.97263,-0.08458l12.72877,0.21144l0.42288,0.08458l1.26865,1.35322h-6.17409l-0.38059,4.94773z" data-paper-data="{&quot;index&quot;:null}" fill="#bab8b4" fill-rule="evenodd" stroke="none" stroke-width="0.5" stroke-linecap="butt" opacity="0.999"/><path d="M445.43603,24.25946l4.73628,0.12687l-0.08458,0.12687l-0.50746,0.08458l-4.14425,-0.08458z" data-paper-data="{&quot;index&quot;:null}" fill="#b9b9b4" fill-rule="evenodd" stroke="none" stroke-width="0.5" stroke-linecap="butt"/><path d="M442.56043,24.68235l7.52731,0.08458v17.76107l-7.69646,-0.08458z" data-paper-data="{&quot;index&quot;:null}" fill="#af9c6f" fill-rule="evenodd" stroke="none" stroke-width="0.5" stroke-linecap="butt"/><path d="M404.501,22.14505l-10.02232,-0.16916l-0.93034,0.16916l0.04229,1.26865l9.26113,6.93527l-0.46517,11.84071h-0.50746l0.16916,-0.16916l0.16916,-6.68155l0.16916,-3.80594h0.25373v-1.0995l-0.76119,-0.3383v-0.25373l-0.25373,-0.04229l-1.86068,-1.31093l-0.16916,-0.3383l-0.3383,-0.08458l-1.77611,-1.22636l-2.11441,-1.73382l-1.18407,-0.93034l-0.67661,-0.3383v-2.02984l0.97263,-0.16916l8.07706,0.21144z" data-paper-data="{&quot;index&quot;:null}" fill="#66b5fc" fill-rule="evenodd" stroke="none" stroke-width="0.5" stroke-linecap="butt" opacity="0.311"/><path d="M403.40151,25.35896l12.34817,0.21144l-0.59204,16.70386l-12.6019,-0.08458z" data-paper-data="{&quot;index&quot;:null}" fill="#af9c6f" fill-rule="evenodd" stroke="none" stroke-width="0.5" stroke-linecap="butt"/><path d="M545.82836,26.03557l0.16916,1.52238z" data-paper-data="{&quot;index&quot;:null}" fill="#6b98ff" fill-rule="evenodd" stroke="none" stroke-width="0.5" stroke-linecap="butt" opacity="0.021"/><path d="M544.81345,15.80181v2.02984l0.29602,0.08458l0.08458,2.62187l0.16916,0.50746l0.46517,4.99002l0.16916,1.52238l0.29602,2.45272l0.04229,2.19899l0.16916,1.01492l0.38059,4.73628l0.21144,1.77611l-0.12687,0.08458l-0.29602,-0.42288l-2.19899,-22.58193v-0.25373h0.21144l-0.04229,-0.54975z" data-paper-data="{&quot;index&quot;:null}" fill="#69b3fb" fill-rule="evenodd" stroke="none" stroke-width="0.5" stroke-linecap="butt" opacity="0.307"/><path d="M546.50498,33.22458l-0.16916,-1.01492z" data-paper-data="{&quot;index&quot;:null}" fill="#8080ff" fill-rule="evenodd" stroke="none" stroke-width="0.5" stroke-linecap="butt" opacity="0.008"/><path d="M402.21743,35.33899l-0.16916,6.68155z" data-paper-data="{&quot;index&quot;:null}" fill="#00fffe" fill-rule="evenodd" stroke="none" stroke-width="0.5" stroke-linecap="butt" opacity="0.004"/><path d="M547.09701,40.66731l0.3383,0.84577l-0.16916,-0.29602z" data-paper-data="{&quot;index&quot;:null}" fill="#7f8aff" fill-rule="evenodd" stroke="none" stroke-width="0.5" stroke-linecap="butt" opacity="0.008"/><path d="M546.67413,39.39866l0.29602,0.42288l0.12687,-0.08458v0.93034l0.16916,0.54975l0.16916,0.29602v0.42288l0.08458,2.19899h-0.3383z" data-paper-data="{&quot;index&quot;:null}" fill="#80bdec" fill-rule="evenodd" stroke="none" stroke-width="0.5" stroke-linecap="butt" opacity="0.364"/><path d="M373.03853,42.18969h0.76119l79.92481,0.50746v1.52238l-108.00421,-0.59204l0.16916,-1.60695z" data-paper-data="{&quot;index&quot;:null}" fill="#e5e5e5" fill-rule="evenodd" stroke="none" stroke-width="0.5" stroke-linecap="butt" opacity="0.994"/><path d="M347.66558,43.96579l6.04722,-0.08458l99.75801,0.63432l-0.3383,0.25373l-95.74062,-0.46517l-0.16916,1.01492z" data-paper-data="{&quot;index&quot;:null}" fill="#b9b9b4" fill-rule="evenodd" stroke="none" stroke-width="0.5" stroke-linecap="butt"/><path d="M452.96334,47.26428l0.76119,0.16916l0.16916,26.89533l-99.12368,0.67661l2.79103,-30.53212l95.14858,0.59204z" data-paper-data="{&quot;index&quot;:null}" fill="#88774e" fill-rule="evenodd" stroke="none" stroke-width="0.5" stroke-linecap="butt"/><path d="M349.10338,41.85138l-3.38306,0.04229l-0.25373,1.73382l0.16916,0.16916l11.58698,1.69153l-0.42288,4.48255l-0.3383,-0.25373v-0.59204h0.25373v-3.46764l-4.94773,-0.76119l-2.07213,-0.12687l-0.67661,-0.21144l-3.63679,-0.50746l-0.16916,-0.97263l0.25373,-1.35322h3.55221z" data-paper-data="{&quot;index&quot;:null}" fill="#92c4ec" fill-rule="evenodd" stroke="none" stroke-width="0.5" stroke-linecap="butt" opacity="0.287"/><path d="M484.51039,44.89614l19.11429,0.12687l-7.27358,0.3383l-2.45272,0.42288l-12.2636,-0.08458z" data-paper-data="{&quot;index&quot;:null}" fill="#af9c6f" fill-rule="evenodd" stroke="none" stroke-width="0.5" stroke-linecap="butt"/><path d="M508.10723,44.98071l14.71631,0.08458l2.5373,33.45002l-15.22377,0.12687z" data-paper-data="{&quot;index&quot;:null}" fill="#af9c6f" fill-rule="evenodd" stroke="none" stroke-width="0.5" stroke-linecap="butt"/><path d="M506.24655,45.06528h1.69153l1.94526,33.57688l-12.2636,-1.01492l-1.60695,-32.0545z" data-paper-data="{&quot;index&quot;:null}" fill="#af9c6f" fill-rule="evenodd" stroke="none" stroke-width="0.5" stroke-linecap="butt"/><path d="M523.07728,45.14986l4.39798,0.54975l0.16916,0.3383l2.5373,31.29331l-4.65171,1.14179z" data-paper-data="{&quot;index&quot;:null}" fill="#af9c6f" fill-rule="evenodd" stroke="none" stroke-width="0.5" stroke-linecap="butt"/><path d="M525.19169,45.23444l19.70633,0.04229l-6.08951,0.67661l-10.91037,-0.04229l-0.16916,-0.38059z" data-paper-data="{&quot;index&quot;:null}" fill="#af9c6f" fill-rule="evenodd" stroke="none" stroke-width="0.5" stroke-linecap="butt"/><path d="M547.18159,44.13494h0.3383l0.21144,0.16916l-0.38059,1.31093l-3.38306,0.25373l-0.42288,0.21144l-3.72137,0.29602l-0.76119,0.25373l0.08458,2.24128l-0.42288,-0.08458l-0.16916,-0.16916l-0.16916,-2.07213l0.08458,-0.3383l8.79596,-1.01492z" data-paper-data="{&quot;index&quot;:null}" fill="#92c7ee" fill-rule="evenodd" stroke="none" stroke-width="0.5" stroke-linecap="butt" opacity="0.416"/><path d="M495.42076,45.65732h0.42288l1.52238,31.88535l-1.94526,-0.59204l-1.4378,-30.74356l0.16916,-0.25373z" data-paper-data="{&quot;index&quot;:null}" fill="#af9c6f" fill-rule="evenodd" stroke="none" stroke-width="0.5" stroke-linecap="butt"/><path d="M480.8736,45.91105l12.94021,0.08458l1.35322,30.87043l-13.36309,0.16916z" data-paper-data="{&quot;index&quot;:null}" fill="#88774e" fill-rule="evenodd" stroke="none" stroke-width="0.5" stroke-linecap="butt"/><path d="M527.89814,46.16478l7.189,0.04229l3.08704,0.21144l2.66416,30.10924l-10.57207,0.08458z" data-paper-data="{&quot;index&quot;:null}" fill="#88774e" fill-rule="evenodd" stroke="none" stroke-width="0.5" stroke-linecap="butt"/><path d="M356.46154,49.717l0.3383,0.25373l-0.76119,8.79596h-0.3383v-1.94526h0.25373z" data-paper-data="{&quot;index&quot;:null}" fill="#aecce2" fill-rule="evenodd" stroke="none" stroke-width="0.5" stroke-linecap="butt" opacity="0.399"/><path d="M534.51961,32.66229l-34.80938,0.30535l-1.22138,-24.08412l32.97731,0.91604z" data-paper-data="{&quot;index&quot;:null}" fill="#ff0000" fill-rule="nonzero" stroke="#000000" stroke-width="0.5" stroke-linecap="round"/><path d="M511.5042,72.73889l-0.91604,-23.81694h11.14511l1.52673,23.35893z" data-paper-data="{&quot;index&quot;:null}" fill="#ff0000" fill-rule="nonzero" stroke="#000000" stroke-width="0.5" stroke-linecap="round"/><path d="M525.55008,72.43354l-1.52673,-22.90091l3.05346,1.83207l1.37405,18.62607z" data-paper-data="{&quot;index&quot;:null}" fill="#ff0000" fill-rule="nonzero" stroke="#000000" stroke-width="0.5" stroke-linecap="round"/><path d="M499.59573,71.36484l-0.76337,-18.62607l7.78631,-2.59544l0.61069,22.59556z" data-paper-data="{&quot;index&quot;:null}" fill="#ff0000" fill-rule="nonzero" stroke="#000000" stroke-width="0.5" stroke-linecap="round"/><path d="M454.55727,74.26561l-0.30535,-24.58031l18.32073,0.30535l0.15267,24.58031z" data-paper-data="{&quot;index&quot;:null}" fill="#ff0000" fill-rule="nonzero" stroke="#000000" stroke-width="0.5" stroke-linecap="round"/><path d="M458.37409,74.41828l-0.91604,-24.42764h11.90847l0.15267,24.73298z" data-paper-data="{&quot;index&quot;:null}" fill="#ff0000" fill-rule="nonzero" stroke="#000000" stroke-width="0.5" stroke-linecap="round"/><path d="M438.37397,38.73103h-20.00013l0.61069,-13.4352l19.84745,-0.15267z" data-paper-data="{&quot;index&quot;:null}" fill="#ff0000" fill-rule="nonzero" stroke="#000000" stroke-width="0.5" stroke-linecap="round"/><path d="M360.34273,74.95264l2.74811,-28.70247l29.16049,0.15267l-0.45802,28.39713z" data-paper-data="{&quot;index&quot;:null}" fill="#982900" fill-rule="nonzero" stroke="#000000" stroke-width="0.5" stroke-linecap="round"/><path d="M368.8924,75.25799l1.6794,-23.35893l21.37418,-0.45802l-0.30535,23.5116z" data-paper-data="{&quot;index&quot;:null}" fill="#ff0000" fill-rule="nonzero" stroke="#000000" stroke-width="0.5" stroke-linecap="round"/><path d="M398.01473,74.64729l1.52673,-23.66427l48.24458,-0.45802l0.61069,23.66427z" data-paper-data="{&quot;index&quot;:null}" fill="#ff0000" fill-rule="nonzero" stroke="#000000" stroke-width="0.5" stroke-linecap="round"/><path d="M449.45182,14.65878c-0.06322,-0.01292 -0.09791,-0.0476 -0.10416,-0.10416c0.1026,-0.43059 0.13728,-0.882 0.10416,-1.35404c0.13665,0.47027 0.13665,0.95637 0,1.4582z" data-paper-data="{&quot;index&quot;:null}" fill="#9e9e9e" fill-rule="evenodd" stroke="none" stroke-width="0.5" stroke-linecap="butt"/><path d="M449.76429,19.13753c0,0.65963 0,1.31936 0,1.97898c-0.10312,-0.60515 -0.1378,-1.2301 -0.10416,-1.87483c-2.58716,0.03448 -5.1564,-0.00021 -7.70762,-0.10416c2.60393,0 5.20785,0 7.81178,0z" data-paper-data="{&quot;index&quot;:null}" fill="#afafaf" fill-rule="evenodd" stroke="none" stroke-width="0.5" stroke-linecap="butt"/><path d="M465.44267,21.35779c0.67515,0.25658 0.95363,-0.3858 0.95363,-0.3858c0.14517,-0.35377 0.34516,-0.63008 0.57398,-0.83072c0.05631,-0.02918 0.15415,-0.08745 0.23858,-0.17582c1.95947,-1.20983 5.91469,1.74146 6.07946,3.76791c0.1067,1.3122 -1.29451,2.09171 -1.91986,3.04907c-0.23021,0.35245 -0.47887,0.76884 -0.88011,0.93687c-0.87029,0.11723 -2.44228,0.67354 -3.27472,0.51265c-1.48216,-0.28645 -1.88192,-1.8376 -2.22306,-2.93804c-0.4683,-1.51057 -0.95925,-3.10957 0.1192,-4.16432c0.06983,0.08811 0.17568,0.16839 0.33284,0.22814z" data-paper-data="{&quot;noHover&quot;:false,&quot;origItem&quot;:[&quot;Path&quot;,{&quot;applyMatrix&quot;:true,&quot;segments&quot;:[[[303.75951,159.12161],[0.07472,0.14181],[-1.70229,1.28574]],[[302.66612,165.04188],[-0.29217,-2.27454],[0.21284,1.65697]],[[304.98984,169.71538],[-1.94531,-0.73116],[1.09249,0.41062]],[[309.51343,169.67697],[-1.20703,-0.01856],[0.58234,-0.15551]],[[310.90585,168.52331],[-0.39227,0.45765],[1.06552,-1.24311]],[[314.17667,164.58584],[-0.15326,1.91125],[0.23667,-2.95156]],[[306.84804,157.91071],[2.93246,-1.3193],[-0.13459,0.10897]],[[306.48773,158.11144],[0.08301,-0.02987],[-0.35593,0.2395]],[[305.5311,159.17855],[0.27722,-0.47785],[0,0]],[[304.15911,159.52155],[0.85749,0.5145],[-0.19963,-0.11978]]],&quot;closed&quot;:true}],&quot;index&quot;:null}" fill="#ffffff" fill-rule="nonzero" stroke="#000000" stroke-width="0.5" stroke-linecap="butt"/><path d="M455.28534,22.36507c1.15231,-0.36574 2.37976,-0.59234 3.54015,-0.89598c0.38828,-0.10161 0.86506,-0.53305 1.17667,-0.29261c0.83985,0.64804 2.91135,3.71674 2.05184,4.85798c-0.8629,1.1458 -2.59771,2.08419 -3.81642,2.93809c-0.54258,0.06302 -1.08282,0.32258 -1.62711,0.27508c-1.82012,-0.1588 -3.01906,-5.10915 -2.29521,-6.2761c0.13458,-0.21694 0.31977,-0.40691 0.5081,-0.58721c0.23896,0.05229 0.46197,-0.0193 0.46197,-0.0193z" data-paper-data="{&quot;noHover&quot;:false,&quot;origItem&quot;:[&quot;Path&quot;,{&quot;applyMatrix&quot;:true,&quot;segments&quot;:[[[287.24196,159.08011],[0.29648,0.12027],[-0.2814,0.20784]],[[286.46732,159.77235],[0.22005,-0.26889],[-1.1837,1.44643]],[[288.05629,168.74018],[-2.30956,-0.58883],[0.69062,0.17608]],[[290.19385,168.69081],[-0.71228,-0.02474],[1.75342,-0.91761]],[[295.68772,165.48695],[-1.35818,1.38911],[1.35284,-1.38365]],[[294.11298,158.49213],[0.94175,1.05695],[-0.34943,-0.39217]],[[292.54579,158.65657],[0.52189,-0.05948],[-1.55968,0.17776]],[[287.83801,159.15045],[1.56269,-0.26425],[0,0]]],&quot;closed&quot;:true}],&quot;index&quot;:null}" fill="#ffffff" fill-rule="nonzero" stroke="#000000" stroke-width="0.5" stroke-linecap="butt"/><path d="M457.61883,25.06632c-0.07064,-0.42195 0.23501,-0.81828 0.68267,-0.88522c0.44767,-0.06695 0.86785,0.22084 0.93849,0.64279c0.07064,0.42195 -0.23501,0.81828 -0.68268,0.88522c-0.44767,0.06695 -0.86785,-0.22085 -0.93849,-0.6428z" data-paper-data="{&quot;index&quot;:null}" fill="#000000" fill-rule="nonzero" stroke="none" stroke-width="0.5" stroke-linecap="butt"/><path d="M467.90014,23.98064c-0.07064,-0.42195 0.23501,-0.81828 0.68267,-0.88522c0.44767,-0.06695 0.86785,0.22084 0.93849,0.64279c0.07064,0.42195 -0.23501,0.81828 -0.68268,0.88522c-0.44767,0.06695 -0.86785,-0.22085 -0.93849,-0.6428z" data-paper-data="{&quot;index&quot;:null}" fill="#000000" fill-rule="nonzero" stroke="none" stroke-width="0.5" stroke-linecap="butt"/><path d="M475.88173,10.57472c0.41091,0.54208 -0.16449,0.92989 -0.16449,0.92989l-0.39759,0.2667c-3.17383,2.38875 -5.90693,5.24241 -9.09848,7.65842c0,0 -0.55172,0.41728 -0.99392,-0.10246c-0.4422,-0.51974 0.10952,-0.93702 0.10952,-0.93702c3.1953,-2.41448 5.93406,-5.25462 9.09848,-7.65842l0.46016,-0.31141c0,0 0.57539,-0.38782 0.98631,0.15428z" data-paper-data="{&quot;index&quot;:null}" fill="#000000" fill-rule="nonzero" stroke="none" stroke-width="0.5" stroke-linecap="butt"/><path d="M450.04376,15.7477c-0.11021,-0.65829 0.58821,-0.76273 0.58821,-0.76273l0.63873,0.01781c2.15397,0.9332 7.7811,4.28559 10.02081,3.78635c0,0 0.69842,-0.10444 0.80862,0.55385c0.11021,0.65829 -0.58821,0.76272 -0.58821,0.76272c-3.03056,0.33972 -8.03264,-2.6785 -10.83265,-3.89159l0.17311,0.08744c0,0 -0.69842,0.10444 -0.80862,-0.55385z" data-paper-data="{&quot;index&quot;:null}" fill="#000000" fill-rule="nonzero" stroke="none" stroke-width="0.5" stroke-linecap="butt"/><path d="M457.88187,40.94302c-0.46319,0.06926 -0.53627,-0.36731 -0.53627,-0.36731c-0.06497,-0.38806 -0.14212,-0.84889 -0.20709,-1.23696c-0.62562,-3.73693 -0.46206,-8.75955 3.9726,-10.2832c1.3513,-0.46427 2.75921,-0.11696 4.12512,0.00098c3.27153,0.97056 5.81984,2.43655 7.70868,5.20319c0.81223,1.18971 1.20237,2.5797 2.22885,3.62552c0,0 0.31775,0.32483 -0.02711,0.62463c-0.34485,0.2998 -0.6626,-0.02504 -0.6626,-0.02504c-1.07088,-1.09813 -1.4817,-2.50745 -2.32907,-3.74796c-1.75305,-2.56642 -4.0767,-3.89165 -7.10397,-4.81353c-1.18592,-0.0936 -2.46221,-0.44878 -3.6352,-0.03191c-3.93444,1.39827 -3.90692,5.98774 -3.35092,9.30879c0.06497,0.38806 0.12994,0.77614 0.1949,1.1642l0.01218,0.07277c0,0 0.07308,0.43657 -0.3901,0.50584z" data-paper-data="{&quot;index&quot;:null}" fill="#000000" fill-rule="nonzero" stroke="none" stroke-width="0.5" stroke-linecap="butt"/><path d="M307.3874,222.64263v-145.64565h333.15314v145.64565z" fill="#ff0000" fill-rule="nonzero" stroke="#000000" stroke-width="2" stroke-linecap="butt"/><path d="M-4.92492,224.14413v-145.64565h321.32132v145.64565z" fill="#ff0000" fill-rule="nonzero" stroke="#000000" stroke-width="2" stroke-linecap="butt"/><path d="M317.89791,368.28828v-145.64565h321.32132v145.64565z" fill="#ff0000" fill-rule="nonzero" stroke="#000000" stroke-width="2" stroke-linecap="butt"/><path d="M-3.42341,366.78678v-145.64565h321.32132v145.64565z" fill="#ff0000" fill-rule="nonzero" stroke="#000000" stroke-width="2" stroke-linecap="butt"/></g></g></svg>