<svg version="1.1" xmlns="http://www.w3.org/2000/svg" xmlns:xlink="http://www.w3.org/1999/xlink" width="123" height="108" viewBox="0,0,123,108"><g transform="translate(-258.5,-126)"><g data-paper-data="{&quot;isPaintingLayer&quot;:true}" fill-rule="nonzero" stroke-linecap="butt" stroke-linejoin="miter" stroke-miterlimit="10" stroke-dasharray="" stroke-dashoffset="0" style="mix-blend-mode: normal"><path d="M259,233.5v-107h122v107z" fill="#ff0000" stroke="#000000" stroke-width="1"/><text transform="translate(265.78751,150.52501) scale(0.59751,0.59751)" font-size="40" xml:space="preserve" fill="#000000" fill-rule="nonzero" stroke="none" stroke-width="1" stroke-linecap="butt" stroke-linejoin="miter" stroke-miterlimit="10" stroke-dasharray="" stroke-dashoffset="0" font-family="&quot;Gord&quot;, Serif" font-weight="normal" text-anchor="start" style="mix-blend-mode: normal"><tspan x="0" dy="0">$150</tspan></text><text transform="translate(262.9799,216.66842) scale(0.40401,0.40401)" font-size="40" xml:space="preserve" fill="#00e2ff" fill-rule="nonzero" stroke="#000000" stroke-width="2" stroke-linecap="butt" stroke-linejoin="miter" stroke-miterlimit="10" stroke-dasharray="" stroke-dashoffset="0" font-family="&quot;Crystal Universe Regular&quot;, Sans Serif" font-weight="normal" text-anchor="start" style="mix-blend-mode: normal"><tspan x="0" dy="0">Blame</tspan></text><path d="M323.0479,146.11461c1.5,0 1.5,1.5 1.5,1.5l-0.07698,0.66719c0.73036,2.19756 1.42854,4.547 1.81113,6.84776c1.02374,-1.44587 2.28262,-2.86263 2.82419,-3.36447c4.77166,-4.42162 11.86005,-5.23887 17.74899,-2.99124c2.78845,1.07534 6.11582,2.06282 8.58377,3.79374c2.28311,1.60128 3.7922,4.40331 5.72013,6.37457c6.55131,6.69854 13.55289,13.54432 13.61635,23.60346c0,0 0,1.5 -1.5,1.5c-1.5,0 -1.5,-1.5 -1.5,-1.5c0.0727,-9.15261 -6.86076,-15.47511 -12.76091,-21.50564c-1.78069,-1.82003 -3.23141,-4.58373 -5.345,-6.04977c-2.25465,-1.56388 -5.35842,-2.44008 -7.89353,-3.41719c-4.46909,-1.74268 -9.10716,-1.26366 -13.2894,1.21421c-1.4314,0.84807 -2.32772,3.03818 -3.52879,4.22935c0.43193,-0.07915 0.86971,-0.13909 1.29659,-0.23577c1.54262,-0.34938 3.04515,-0.72816 4.54659,-1.14641c0.54621,-0.33979 1.0801,-0.70634 1.70371,-0.76861c0.06072,-0.00606 0.12141,-0.01088 0.18208,-0.01453l-0.00637,-0.03184l2.2527,-0.45054c0.10451,-0.02305 0.21311,-0.0352 0.32455,-0.0352c0.82843,0 1.5,0.67157 1.5,1.5c0,0.67558 -0.44662,1.24684 -1.06071,1.43465l-1.4377,0.47671l-0.00238,-0.00718l-0.01308,0.01221c-0.52785,0.16233 -1.15315,0.37888 -1.8387,0.61829c-0.76602,0.54522 -1.75051,0.8081 -2.80836,0.95256c-2.21914,0.70473 -4.54644,1.27367 -6.11983,0.98018c-0.26362,0.16081 -0.52926,0.28331 -0.81777,0.2283c-1.05951,-0.20203 -2.17692,-0.72629 -2.81478,-1.59607c-0.56992,-0.77713 -0.26603,-1.90992 -0.45012,-2.85589c-0.45129,-2.31901 -1.02124,-4.60948 -1.76942,-6.84695l-0.07698,-1.61588c0,0 0,-1.5 1.5,-1.5z" fill="#ffffff" stroke="none" stroke-width="0.5"/><path d="M295.22262,169.0614c-0.67082,-1.34164 0.67082,-2.01246 0.67082,-2.01246l0.91323,-0.45661c2.95877,-1.43503 6.57149,-1.96284 9.76219,-2.18863c-0.0725,-0.02934 -0.14503,-0.05443 -0.21758,-0.07368c-2.0606,-0.54685 -2.18667,-0.38217 -4.46798,-0.37697c-6.61328,0.60528 -12.88804,3.09663 -19.02587,5.65064c-2.27079,0.9449 -5.23093,2.01223 -6.80283,4.0514c-2.89305,3.75304 -2.65394,9.65733 -2.64752,14.1416c0,0 0,1.5 -1.5,1.5c-1.5,0 -1.5,-1.5 -1.5,-1.5c0.00693,-5.2268 -0.09448,-11.64453 3.28847,-15.99495c3.34839,-4.30598 9.18346,-4.97578 13.86209,-6.85778c2.75677,-1.10892 5.50303,-2.87555 8.46156,-3.49894c1.87515,-0.39511 3.8196,-0.31652 5.72816,-0.4889c2.01321,0.00392 3.64994,-0.18637 5.57754,0.53626c0.2596,0.09732 0.2451,0.6258 0.52146,0.64796c0.00277,0.00022 0.00552,0.00042 0.00824,0.0006c0.00148,-0.05061 0.00552,-0.09903 0.01263,-0.1448c0.06519,-0.41967 0.09521,-0.86556 0.10664,-1.32597c-0.06433,-0.26907 -0.12023,-0.52741 -0.1244,-0.72698c-0.04073,-1.94844 0.00145,-3.90711 0.0073,-5.85549l0.08051,-0.13463l-0.05868,-0.01174l0.45116,-2.25582c0.12592,-0.70108 0.73899,-1.23307 1.47632,-1.23307c0.82843,0 1.5,0.67157 1.5,1.5c0,0.05216 -0.00266,0.10371 -0.00786,0.1545l-0.22661,2.49269l-0.18582,-0.01689c0.38198,2.56693 0.40099,5.03197 -0.05408,7.87366c-0.22844,1.42647 -0.04971,3.61245 -1.67864,4.51212c-0.75474,0.41685 -1.73212,-0.17711 -2.58599,-0.05747c-2.50684,0.35127 -6.19351,1.20466 -8.41877,2.36455l-0.91323,0.45661c0,0 -1.34164,0.67082 -2.01246,-0.67082z" fill="#ffffff" stroke="none" stroke-width="0.5"/><path d="M327.88463,173.17889c0.11287,0.09835 0.22408,0.2034 0.33346,0.31532c4.11834,4.21401 4.09226,12.46713 4.09226,17.9554c0,0 0,1.5 -1.5,1.5c-1.5,0 -1.5,-1.5 -1.5,-1.5c0,-4.8766 0.08402,-11.8678 -3.21358,-15.83408c-0.23148,-0.27842 -0.47609,-0.45929 -0.72827,-0.56231c-0.24236,0.08079 -0.6975,0.1793 -1.13191,-0.01579c-1.1223,0.3502 -2.2351,1.60033 -2.90361,2.21096c-0.50951,0.4654 -0.90754,0.99127 -1.21798,1.56109c-0.07314,0.21422 -0.12461,0.42961 -0.13702,0.64618c-0.15321,2.67197 -0.42516,5.23036 -0.90964,7.76386c0.00012,0.04029 0.00018,0.08048 0.00018,0.12056c0,0.36984 0,0.73969 0,1.10953v3c0,0.82843 -0.67157,1.5 -1.5,1.5c-0.82843,0 -1.5,-0.67157 -1.5,-1.5c0,-0.39118 0,-2.60882 0,-3c0,-0.36984 0,-0.73969 0,-1.10953c0,-3.11038 0.08026,-5.88078 0.93628,-8.35216c0.04048,-0.57103 0.07274,-1.15189 0.27348,-1.684c0.10294,-0.27286 0.80639,-0.32761 0.65682,-0.57796c-0.25118,-0.42044 -0.95311,-0.2935 -1.34939,-0.58129c-1.31329,-0.95374 -2.53638,-3.00418 -2.96035,-4.56715c-1.99608,-7.35871 8.20295,-9.7068 13.39695,-9.7068c3.56413,0.50478 7.61644,4.25206 5.00488,8.31016c-0.3718,0.57773 -1.20323,0.66868 -1.76568,1.06321c-0.82193,0.57654 -1.60462,1.25322 -2.3769,1.93481zM324.67358,172.01912c1.4846,-1.14148 3.87652,-2.4258 4.9199,-3.59239c1.525,-1.70508 -1.64908,-3.45304 -2.75757,-3.56182c-2.99969,0 -7.16518,0.32666 -8.97871,2.82495c-0.74395,1.02485 -1.88547,1.61919 -1.3683,2.99315c0.60057,1.59553 2.22146,2.68192 3.34957,3.86307c0.41441,-0.40406 0.87421,-0.79803 1.38433,-1.18223c1.06451,-0.80171 2.26208,-1.29609 3.45076,-1.34473z" fill="#ffffff" stroke="none" stroke-width="0.5"/><path d="M342.33225,168.08109c-0.83205,1.24808 -2.08013,0.41603 -2.08013,0.41603l-0.26495,-0.2624c-1.62314,-0.46676 -2.33686,-1.33415 -3.79149,-0.52018c0,0 -1.37872,0.59088 -1.9696,-0.78784c-0.59088,-1.37872 0.78784,-1.9696 0.78784,-1.9696c2.61165,-0.96185 3.26337,-0.32572 5.79741,0.39305l1.10489,0.65082c0,0 1.24808,0.83205 0.41603,2.08013z" fill="#ffffff" stroke="none" stroke-width="0.5"/><path d="M306.85219,176.80974c-1.34164,-0.67082 -0.67082,-2.01246 -0.67082,-2.01246l0.41762,-0.74607c0.83842,-0.97556 1.85246,-1.84106 2.99289,-2.43613c0,0 1.34164,-0.67082 2.01246,0.67082c0.67082,1.34164 -0.67082,2.01246 -0.67082,2.01246c-0.79424,0.37168 -1.48312,0.98782 -2.02987,1.6734l-0.039,0.16716c0,0 -0.67082,1.34164 -2.01246,0.67082z" fill="#ffffff" stroke="none" stroke-width="0.5"/><path d="M302.65612,185.55815c0.41208,-1.44229 1.85437,-1.0302 1.85437,-1.0302l1.65583,0.47436c1.7863,0.67996 3.65787,0.57957 4.7276,1.76105c0.74617,0.0865 1.3254,0.72058 1.3254,1.48995c0,0.25194 -0.06211,0.48937 -0.17185,0.69781l-0.30335,0.60671c-0.12481,0.71413 -0.75446,1.3381 -1.11717,1.99276c-0.05101,0.11213 -0.10349,0.22351 -0.15749,0.33408c-0.1584,0.37517 -0.3033,0.78554 -0.59878,0.98951l-1.13718,1.51624c-0.27295,0.37227 -0.71349,0.61397 -1.21047,0.61397c-0.82843,0 -1.5,-0.67157 -1.5,-1.5c0,-0.31519 0.09722,-0.60768 0.2633,-0.84911l0.90185,-1.35278c0.08334,-0.27958 0.25297,-0.51675 0.45246,-0.73921c-5.4384,1.16226 -11.32853,0.77153 -16.8263,1.46153c0,0 -1.48842,0.18605 -1.67447,-1.30236c-0.18605,-1.48842 1.30236,-1.67447 1.30236,-1.67447c4.88379,-0.60814 10.17555,-0.29904 15.09077,-1.1206c-0.16329,-0.03776 -0.27387,-0.064 -0.30621,-0.07597l-1.54047,-0.43887c0,0 -1.44229,-0.41208 -1.0302,-1.85437z" fill="#ffffff" stroke="none" stroke-width="0.5"/><path d="M365.4149,185.51362c0,1.5 -1.5,1.5 -1.5,1.5h-0.22831c-7.59631,0 -14.48592,1.33908 -21.95689,2.27113c-0.09323,0.01163 -0.19216,0.0257 -0.29599,0.04158l0.73413,0.22024c0.63488,0.17463 1.10126,0.75606 1.10126,1.44642c0,0.82843 -0.67157,1.5 -1.5,1.5c-0.13723,0 -0.27016,-0.01843 -0.39644,-0.05294l-1.79382,-0.44846l0.01847,-0.0739l-0.17509,0.02551c-0.22857,-0.11382 -0.46716,-0.2103 -0.71166,-0.29627c-0.85246,0.19129 -1.69892,-0.19595 -3.06122,-0.5815l-1.56627,-0.4475c-0.64432,-0.16832 -1.1198,-0.75433 -1.1198,-1.4514c0,-0.52892 0.27376,-0.9939 0.68731,-1.26098l0.24784,-0.16523c0.14404,-2.67175 3.39062,-5.82671 5.08395,-7.26026c0,0 1.15233,-0.96028 2.11261,0.19206c0.96028,1.15233 -0.19206,2.11261 -0.19206,2.11261c-1.17475,0.9594 -2.13356,2.20412 -3.08042,3.43476c1.88618,-0.12514 4.14948,0.09845 5.52718,-0.13081c6.91499,-1.15071 13.28384,-2.07505 20.33692,-2.07505h0.22831c0,0 1.5,0 1.5,1.5z" fill="#ffffff" stroke="none" stroke-width="0.5"/></g></g></svg>