<svg version="1.1" xmlns="http://www.w3.org/2000/svg" xmlns:xlink="http://www.w3.org/1999/xlink" width="123" height="108" viewBox="0,0,123,108"><g transform="translate(-258.5,-126)"><g data-paper-data="{&quot;isPaintingLayer&quot;:true}" fill-rule="nonzero" stroke-linecap="butt" stroke-linejoin="miter" stroke-miterlimit="10" stroke-dasharray="" stroke-dashoffset="0" style="mix-blend-mode: normal"><path d="M259,233.5v-107h122v107z" fill="#008bff" stroke="#000000" stroke-width="1"/><text transform="translate(265.78751,150.52501) scale(0.59751,0.59751)" font-size="40" xml:space="preserve" fill="#000000" fill-rule="nonzero" stroke="none" stroke-width="1" stroke-linecap="butt" stroke-linejoin="miter" stroke-miterlimit="10" stroke-dasharray="" stroke-dashoffset="0" font-family="&quot;Gord&quot;, Serif" font-weight="normal" text-anchor="start" style="mix-blend-mode: normal"><tspan x="0" dy="0">$30</tspan></text><path d="M269.13538,216.85701c-2.23607,-1.11803 -1.11803,-3.3541 -1.11803,-3.3541l1.02925,-1.62042c4.84926,-4.1565 9.8891,-7.7281 14.95779,-11.55789c3.94199,-2.97848 7.32887,-6.75117 11.13114,-9.90302c1.09044,-0.90391 2.17865,-1.8307 3.39831,-2.55082c0.46841,-0.27656 1.21576,0.00897 1.58434,-0.39109c0.24206,-0.26273 -0.76635,0.0267 -1.0561,-0.18226c-0.79649,-0.57439 -1.4237,-1.3554 -2.08402,-2.08224c-1.50583,-1.65753 -2.80883,-3.49158 -4.30783,-5.15529c-4.63489,-5.14415 -8.60393,-11.19687 -13.93349,-15.61786c0,0 -1.92055,-1.60046 -0.32009,-3.52101c1.60046,-1.92055 3.52101,-0.32009 3.52101,-0.32009c7.16351,5.99404 12.43759,14.32295 18.73251,21.24256c1.20956,1.3296 4.71331,4.16416 4.4227,6.13864c-0.27841,1.89159 -5.40288,5.15904 -6.78176,6.30155c-3.85811,3.19676 -7.29357,7.00176 -11.29022,10.02851c-4.98652,3.77641 -9.94537,7.27376 -14.72033,11.3666l0.18893,0.06021c0,0 -1.11803,2.23607 -3.3541,1.11803z" fill="#ffffff" stroke="none" stroke-width="0.5"/><path d="M293.22677,154.26076c1.11803,-2.23607 3.3541,-1.11803 3.3541,-1.11803l1.88759,0.95639c7.65321,4.78915 14.58955,10.13856 21.46967,15.92733c2.33378,2.36887 4.26314,5.11785 6.62517,7.45856c2.99441,2.96738 7.73962,4.15464 5.62565,10.02582c-0.366,1.01651 -6.12966,4.37485 -6.88612,5.00392c-0.764,0.63534 -2.72655,3.90739 -3.11736,4.36395c-1.88615,2.20342 -3.84214,4.35814 -5.9613,6.33849c-7.07448,6.61104 -15.45562,11.31059 -22.35481,18.21342c0,0 -1.76777,1.76777 -3.53553,0c-1.76777,-1.76777 0,-3.53553 0,-3.53553c6.93392,-6.93039 15.32563,-11.66489 22.4277,-18.28484c1.97656,-1.84238 3.7973,-3.85116 5.55723,-5.90147c1.76923,-2.06115 1.44087,-3.02321 3.60515,-4.8795c1.24695,-1.0695 2.67199,-1.91892 4.08413,-2.75832c0.50305,-0.29902 1.30994,-0.15392 1.63447,-0.64091c0.54982,-0.82507 -1.77048,-2.44181 -1.83269,-2.48828c-3.57901,-2.67369 -6.10995,-6.04209 -9.26619,-9.24415c-6.63782,-5.59297 -13.33058,-10.74288 -20.72515,-15.35848l-1.47366,-0.72424c0,0 -2.23607,-1.11803 -1.11803,-3.3541z" fill="#ffffff" stroke="none" stroke-width="0.5"/><path d="M313.63037,227.04503c-1.5,-2 0.5,-3.5 0.5,-3.5l1.22846,-0.82221c1.78413,-2.226 3.18395,-4.8698 5.19659,-6.89834c2.82677,-2.8491 6.06511,-5.22867 8.73103,-8.27138c3.44183,-3.92829 6.48032,-7.61599 10.38619,-11.14961c3.22211,-2.93622 6.60424,-5.58061 10.44438,-7.69597c0.18565,-0.10227 0.37402,-0.21164 0.56519,-0.31916c-0.74354,-0.4341 -1.39713,-1.08594 -2.09469,-1.59537c-3.77172,-2.7545 -7.68342,-5.44927 -10.83229,-8.91194c-8.65885,-9.52175 -18.07593,-18.25984 -25.80549,-28.56508c0,0 -1.5,-2 0.5,-3.5c2,-1.5 3.5,0.5 3.5,0.5c5.66266,7.55084 12.212,13.95825 18.70982,20.77577c2.91817,3.06175 5.53759,6.74701 8.70414,9.54757c2.87117,2.53932 6.8008,5.6388 10.15984,7.50628c1.28378,0.71372 3.98415,0.45692 3.96351,1.92562c-0.03556,2.53032 -2.40362,4.50663 -4.08053,6.40183c-2.58505,2.92157 -4.19106,2.35785 -6.89119,4.41979c-1.25327,0.95705 -2.31786,2.1387 -3.47678,3.20805c-3.78314,3.41777 -6.65708,6.95021 -9.99327,10.74936c-2.72653,3.10489 -5.9841,5.56498 -8.89493,8.44936c-1.89805,1.88081 -3.21883,4.45766 -4.88718,6.54669l-2.1328,1.69873c0,0 -2,1.5 -3.5,-0.5z" fill="#ffffff" stroke="none" stroke-width="0.5"/><text transform="translate(314.59885,217.44129) scale(0.3785,0.3785)" font-size="40" xml:space="preserve" fill="#ff0000" fill-rule="nonzero" stroke="#000000" stroke-width="2" stroke-linecap="butt" stroke-linejoin="miter" stroke-miterlimit="10" stroke-dasharray="" stroke-dashoffset="0" font-family="&quot;Crystal Universe Regular&quot;, Sans Serif" font-weight="normal" text-anchor="start" style="mix-blend-mode: normal"><tspan x="0" dy="0">Skip</tspan></text></g></g></svg>