<svg version="1.1" xmlns="http://www.w3.org/2000/svg" xmlns:xlink="http://www.w3.org/1999/xlink" width="900.1932" height="396.8431" viewBox="0,0,900.1932,396.8431"><g transform="translate(155.50828,-54.86672)"><g data-paper-data="{&quot;isPaintingLayer&quot;:true}" stroke-linejoin="miter" stroke-miterlimit="10" stroke-dasharray="" stroke-dashoffset="0" style="mix-blend-mode: normal"><path d="M565.89468,404.70587l-13.45147,-29.51805l63.89453,0.26122l22.8675,29.25682z" data-paper-data="{&quot;index&quot;:null}" fill="#cedce9" fill-rule="nonzero" stroke="#000000" stroke-width="1" stroke-linecap="round"/><path d="M645.28284,403.17188c-1.72928,0.32357 -3.42932,0.50869 -5.1124,0.64218c0.01139,0.0497 0.01729,0.10156 0.01729,0.15563c0,1.31744 -3.52062,1.31744 -3.52062,1.31744c-15.54946,0 -31.0989,0 -46.64834,0c-4.00132,0 -13.95766,-0.59769 -16.90882,0.19029c-1.69992,0.45388 -2.91691,0.40896 -5.09514,0.46843c-0.24588,0.00672 -0.69305,0.02108 -1.08815,0.02992c2.10628,0.56269 1.08815,5.76262 1.08815,7.21606c0,6.14812 0,12.29623 0,18.44434c0,1.09786 0,2.19578 0,3.29363c0,0.43915 -0.6192,1.6905 0,1.31744c2.35583,-1.41926 6.95338,-0.65618 12.32221,-0.65872c10.58312,-0.00501 21.91352,-0.42852 32.30778,0.28394c18.98064,1.42054 39.38787,-0.84905 58.21706,0.73364c15.85846,1.48359 34.84186,1.61729 51.18049,1.61729c4.10745,0 8.21481,0 12.32224,0c0.61799,0 1.58832,-0.03114 2.59296,-0.06529c-1.01061,-0.67584 0.04752,-2.31019 0.04752,-3.22835c0,-3.43005 3.07254,-9.34684 -0.69946,-12.42855c-3.33334,-3.74209 -5.44193,-7.34499 -10.87931,-11.07697c-4.01187,-2.7536 -10.25719,-5.19443 -13.57659,-7.9297c-1.60927,-1.6302 -3.0499,-0.46511 -8.29054,-0.84239c-11.59621,-0.83483 -23.22663,-0.65872 -35.2063,-0.65872c-4.36668,0 -9.85084,0.33178 -14.08256,0c-0.89327,-0.07002 -2.57206,-0.33037 -3.83039,-0.54359c2.30156,0.66539 -2.95024,1.30906 -5.15705,1.72196zM590.01859,402.65222c11.7518,0 23.50362,0 35.25538,0c0.33902,-0.06342 0.67794,-0.12685 1.01694,-0.19029c4.4653,-0.83549 8.49671,-0.61407 12.32224,-0.98809c5.21341,-0.50971 8.33183,-2.2263 13.71086,-2.6349c3.09003,-0.23473 11.64844,0.51965 16.02866,0.51965c11.87716,0 23.74128,-0.25414 35.20629,0.65873c6.44058,0.51281 11.88364,-0.48692 14.89559,2.56426c0.44402,1.15905 3.99782,1.88347 5.85655,2.77507c2.8406,1.36259 5.21484,3.38061 7.41293,4.88925c5.44904,3.73999 7.84497,7.58673 11.26141,11.4221c3.05313,4.04279 1.06082,9.05605 1.06082,13.26178c0,2.32518 0.97928,3.96399 -3.52062,5.92854c-1.56921,0.68506 -16.06599,0 -18.48331,0c-16.85255,0 -36.54356,-0.16691 -52.88828,-1.69598c-17.95613,-1.96405 -39.33023,0.68293 -57.89022,-0.70613c-14.95639,-1.26064 -38.04212,2.09762 -50.2903,-2.20897c-1.21262,-0.42639 0,-3.90904 0,-4.61108c0,-6.14812 0,-12.29621 0,-18.44432c0,-2.05554 -2.4214,-6.96325 1.25188,-8.49392c6.41015,-2.67117 18.4068,-2.04571 27.79327,-2.04571z" data-paper-data="{&quot;index&quot;:null}" fill="#000000" fill-rule="nonzero" stroke="none" stroke-width="1" stroke-linecap="butt"/><path d="M640.12136,403.75077c1.683,-0.13349 3.40358,-0.32037 5.13294,-0.64392c2.20682,-0.4129 7.47948,-1.05735 5.17787,-1.72274c1.25833,0.2132 2.95111,0.47352 3.84431,0.54357c4.23171,0.33178 9.76498,0.0033 14.13157,0.0033c11.97958,0 23.68555,-0.15764 35.28173,0.67719c5.24063,0.37729 6.69221,-0.78281 8.30145,0.84739c3.31945,2.73526 9.5911,5.19571 13.60304,7.94933c5.43738,3.73199 7.5532,7.35987 10.88653,11.10198c3.77208,3.0817 0.68297,9.02131 0.68297,12.45135c0,0.91817 -1.0647,2.55718 -0.05406,3.23302c-1.0046,0.03415 -1.97625,0.06613 -2.5943,0.06613c-4.10742,0 -8.222,0.00414 -12.32941,0.00414c-16.33876,0 -35.39921,-0.11076 -51.25768,-1.59436c-18.82918,-1.58269 -39.42294,0.67413 -58.40361,-0.74641c-10.39423,-0.71248 -21.75667,-0.304 -32.3398,-0.29899c-5.36878,0.00255 -9.97053,-0.76336 -12.32637,0.65589c-0.6192,0.37303 -0.00266,-0.88028 -0.00266,-1.31943c0,-1.09786 -0.00603,-2.20109 -0.00603,-3.29896c0,-6.14812 -0.00734,-12.33279 -0.00734,-18.48092c0,-1.45345 1.02882,-6.66599 -1.07747,-7.22869c0.39516,-0.00884 0.8427,-0.02354 1.08856,-0.03024c2.17815,-0.05945 3.3979,-0.01674 5.09778,-0.47062c2.95116,-0.78797 12.91655,-0.1964 16.91785,-0.1964c15.54954,0 31.18184,-0.0262 46.73128,-0.0262c0,0 3.53791,-0.00225 3.53791,-1.3197c0,-0.05409 -0.00549,-0.10596 -0.01689,-0.15567z" data-paper-data="{&quot;noHover&quot;:false,&quot;origItem&quot;:[&quot;Path&quot;,{&quot;applyMatrix&quot;:true,&quot;segments&quot;:[[[579.60736,595.76373],[0.95609,-0.20262],[0.00646,0.07548]],[[579.61718,596],[0,-0.08208],[0,2]],[[577.61718,598],[0,0],[-8.83333,0]],[[551.11718,598],[8.83333,0],[-2.27308,0]],[[541.51161,598.28885],[1.67648,-1.19621],[-0.96568,0.68904]],[[538.61718,599],[1.23739,-0.09027],[-0.13966,0.01019]],[[537.99901,599.04541],[0.22447,-0.0134],[1.19653,0.85421]],[[538.61718,610],[0,-2.20646],[0,9.33333]],[[538.61718,638],[0,-9.33333],[0,1.66667]],[[538.61718,643],[0,-1.66667],[0,0.66667]],[[538.61718,645],[-0.35177,0.56631],[1.33831,-2.15456]],[[545.61718,644],[-3.04994,0.00386],[6.01206,-0.00761]],[[563.97058,644.43107],[-5.90478,-1.08158],[10.78253,2.15651]],[[597.04254,645.54479],[-10.6965,-2.40266],[9.00888,2.25222]],[[626.11718,648],[-9.28168,0],[2.33333,0]],[[633.11718,648],[-2.33333,0],[0.35109,0]],[[634.59021,647.90091],[-0.5707,0.05184],[-0.57412,-1.02596]],[[634.61718,643],[0,1.39387],[0,-5.20707]],[[634.21982,624.13246],[2.14282,4.67827],[-1.8936,-5.6808]],[[628.03948,607.31672],[3.08887,5.66543],[-2.2791,-4.1802]],[[620.32688,595.27881],[1.8857,4.15235],[-0.91417,-2.47477]],[[615.61718,594],[2.9771,0.57275],[-6.58756,-1.26734]],[[595.61718,593],[6.8054,0],[-2.48058,0]],[[587.61718,593],[2.40395,0.50364],[-0.50743,-0.10631]],[[585.44122,592.1748],[0.71481,0.32365],[1.30749,1.01011]],[[582.51161,594.78885],[1.25365,-0.62682],[-0.98239,0.4912]]],&quot;closed&quot;:true}],&quot;index&quot;:null}" fill="#686868" fill-rule="nonzero" stroke="none" stroke-width="1" stroke-linecap="butt"/><path d="M689.47653,408.58074c0,-0.15277 -0.04876,-0.40861 -0.09537,-0.65994c-0.18134,0.10198 -0.45185,0.18896 -0.7997,0.2629c-1.04311,0.39702 -2.6256,0.39704 -2.6256,0.39704c-13.41012,0 -21.15557,3.49741 -25.89621,7.17645c-0.5577,0.41741 -0.50844,0.92031 -0.50844,1.38698c0,0.13278 -0.03392,0.34378 -0.07101,0.56207c0.03545,-0.07028 0.12396,-0.12801 0.30416,-0.16508c0.79631,-0.16378 7.71891,0.83849 8.56837,0.26177c0.25527,-0.17333 -1.25215,-0.20597 -1.16902,-0.40141c1.02254,-2.40287 11.8669,-6.03741 17.19772,-7.03484c1.3826,-0.25871 2.93903,-0.38887 4.48629,-0.44847c-0.60494,-0.35255 0.60877,-0.89218 0.60877,-1.33742zM659.46158,417.81526c-0.07983,0.46836 -0.1507,0.91609 0.08956,0.64636c0.16425,-0.18432 -0.07286,-0.44309 -0.08956,-0.64636zM653.76182,414.57882c5.03171,-3.54964 11.72378,-6.7862 22.15248,-8.06008c0.97963,-0.57288 3.00037,-0.57288 3.00037,-0.57288h1.7603c3.98591,0 6.09468,-0.51964 10.37608,-0.51964c5.94582,0 7.3241,4.42426 4.21489,5.71991c-1.96201,0.81759 -5.10912,1.08585 -7.73556,1.57727c-7.77432,1.45462 -10.65894,5.6346 -19.17761,7.71443c-9.02872,2.20433 -18.96864,-2.58266 -14.59095,-5.85899z" data-paper-data="{&quot;index&quot;:null}" fill="#000000" fill-rule="nonzero" stroke="none" stroke-width="1" stroke-linecap="butt"/><path d="M689.51194,407.87665c0.04674,0.25132 0.10363,0.51082 0.10363,0.66359c0,0.44523 -1.19927,0.99298 -0.59433,1.34556c-1.54729,0.05961 -3.11265,0.18441 -4.49529,0.44312c-5.33088,0.99741 -16.22755,4.61352 -17.25007,7.01638c-0.08323,0.19546 1.25703,0.34382 1.00172,0.51715c-0.84947,0.57671 -7.83206,-0.44288 -8.62836,-0.27911c-0.18027,0.03709 -0.26795,0.09516 -0.30335,0.16547c0.03708,-0.21829 0.06449,-0.43234 0.06449,-0.56511c0,-0.46665 -0.06462,-0.97873 0.49308,-1.39612c4.74062,-3.67906 12.76568,-7.25383 26.17577,-7.25383c0,0 1.58967,0.00283 2.63277,-0.39421c0.34788,-0.07396 0.61852,-0.16089 0.79977,-0.26287z" data-paper-data="{&quot;noHover&quot;:false,&quot;origItem&quot;:[&quot;Path&quot;,{&quot;applyMatrix&quot;:true,&quot;segments&quot;:[[[607.563,601.99816],[0.02649,0.38155],[-0.10299,0.15484]],[[607.10872,602.39727],[0.1976,-0.11227],[-0.59254,0.60273]],[[605.61718,603],[0,0],[-7.618,0]],[[590.90604,613.89443],[2.69308,-5.58508],[-0.31682,0.63364]],[[590.61718,616],[0,-0.70843],[0,0.20156]],[[590.57685,616.85325],[0.02106,-0.33136],[0.02013,-0.10671]],[[590.74964,616.60263],[-0.10238,0.05628],[0.45234,-0.24865]],[[595.61718,617],[-0.48256,0.87548],[0.14503,-0.26312]],[[594.95308,616.3906],[-0.04725,0.29671],[0.58086,-3.64773]],[[604.72276,605.71115],[-3.02833,1.51416],[0.78545,-0.39273]],[[607.27135,605.03032],[-0.87898,0.0905],[-0.34365,-0.53523]],[[607.61718,603],[0,0.6759],[0,-0.23192]]],&quot;closed&quot;:true}],&quot;index&quot;:null}" fill="#ffffff" fill-rule="nonzero" stroke="none" stroke-width="1" stroke-linecap="butt"/><path d="M318.27301,409.14662l22.86753,-29.2568l63.89451,-0.26122l-13.45147,29.51803z" fill="#cedce9" fill-rule="nonzero" stroke="#000000" stroke-width="1" stroke-linecap="round"/><path d="M312.19545,407.61262c-2.2068,-0.4129 -7.4586,-1.05656 -5.15705,-1.72196c-1.25833,0.21322 -2.93711,0.47355 -3.83039,0.54358c-4.23171,0.33178 -9.71587,0 -14.08256,0c-11.97966,0 -23.6101,-0.1761 -35.2063,0.65872c-5.24067,0.37729 -6.6813,-0.78781 -8.29057,0.84239c-3.31941,2.73526 -9.56474,5.17609 -13.57659,7.9297c-5.43738,3.73199 -7.54597,7.33487 -10.87931,11.07697c-3.77203,3.08169 -0.69945,8.99849 -0.69945,12.42853c0,0.91817 1.05812,2.55251 0.04751,3.22835c1.00465,0.03415 1.97498,0.06529 2.59297,0.06529c4.10742,0 8.21479,0 12.32222,0c16.33867,0 35.32203,-0.1337 51.18049,-1.61729c18.82918,-1.5827 39.23641,0.68689 58.21706,-0.73364c10.39423,-0.71248 21.72463,-0.28896 32.30776,-0.28395c5.36883,0.00255 9.96638,-0.76053 12.32221,0.65873c0.6192,0.37305 0,-0.8783 0,-1.31744c0,-1.09786 0,-2.19576 0,-3.29363c0,-6.14812 0,-12.29623 0,-18.44434c0,-1.45345 -1.01811,-6.6534 1.08815,-7.21606c-0.39513,-0.00884 -0.84231,-0.02319 -1.08815,-0.02991c-2.17822,-0.05947 -3.3952,-0.01455 -5.09514,-0.46843c-2.95116,-0.78798 -12.90752,-0.19029 -16.90885,-0.19029c-15.54944,0 -31.09886,0 -46.64834,0c0,0 -3.52062,0 -3.52062,-1.31744c0,-0.05409 0.00591,-0.10593 0.01729,-0.15563c-1.68304,-0.13349 -3.38312,-0.31862 -5.1124,-0.64218zM367.45955,407.09297c9.38647,0 21.38314,-0.62546 27.79327,2.04571c3.6733,1.53068 1.25188,6.43838 1.25188,8.49392c0,6.14812 0,12.29623 0,18.44434c0,0.70205 1.21262,4.1847 0,4.61108c-12.24816,4.30658 -35.33389,0.94831 -50.2903,2.20897c-18.55999,1.38907 -39.9341,-1.25792 -57.89019,0.70614c-16.34469,1.52908 -36.03571,1.69598 -52.88828,1.69598c-2.41732,0 -16.91412,0.68506 -18.48331,0c-4.49989,-1.96455 -3.52062,-3.60336 -3.52062,-5.92854c0,-4.20573 -1.99231,-9.21897 1.06084,-13.26177c3.41644,-3.83537 5.81238,-7.68211 11.26141,-11.4221c2.19809,-1.50865 4.57233,-3.52666 7.41294,-4.88926c1.85875,-0.8916 5.41254,-1.61604 5.85655,-2.77508c3.01194,-3.05118 8.45499,-2.05144 14.89559,-2.56426c11.46501,-0.91286 23.32917,-0.65873 35.2063,-0.65873c4.38021,0 12.93865,-0.75437 16.02866,-0.51965c5.37904,0.40861 8.49745,2.12519 13.71086,2.6349c3.82551,0.37402 7.85693,0.15262 12.32222,0.98809c0.339,0.06342 0.67794,0.12685 1.01696,0.19029c11.75177,0 23.50356,0 35.25536,0z" data-paper-data="{&quot;index&quot;:null}" fill="#000000" fill-rule="nonzero" stroke="none" stroke-width="1" stroke-linecap="butt"/><path d="M317.35675,408.19152c-0.01141,0.04973 -0.01689,0.1016 -0.01689,0.15567c0,1.31744 3.53791,1.3197 3.53791,1.3197c15.54944,0 31.18174,0.0262 46.73128,0.0262c4.0013,0 13.96669,-0.59157 16.91785,0.1964c1.69988,0.45388 2.91964,0.41117 5.09778,0.47062c0.24588,0.00672 0.6934,0.02143 1.08856,0.03027c-2.10629,0.56269 -1.07747,5.77523 -1.07747,7.22868c0,6.14812 -0.00733,12.33279 -0.00733,18.48092c0,1.09786 -0.00603,2.20109 -0.00603,3.29896c0,0.43915 0.61655,1.69247 -0.00266,1.31943c-2.35583,-1.41926 -6.95755,-0.65335 -12.32637,-0.65589c-10.58312,-0.00501 -21.94556,-0.41349 -32.3398,0.29898c-18.98067,1.42054 -39.57443,-0.83628 -58.40361,0.74641c-15.85846,1.4836 -34.91891,1.59436 -51.25768,1.59436c-4.10742,0 -8.22199,-0.00414 -12.32941,-0.00414c-0.61805,0 -1.58971,-0.03198 -2.5943,-0.06613c1.01063,-0.67584 -0.05406,-2.31486 -0.05406,-3.23302c0,-3.43005 -3.08911,-9.36965 0.68294,-12.45135c3.33334,-3.74209 5.44916,-7.36999 10.88655,-11.10196c4.01193,-2.7536 10.28361,-5.21409 13.60303,-7.94933c1.60927,-1.6302 3.06083,-0.4701 8.30148,-0.84738c11.59618,-0.83483 23.30212,-0.67719 35.28173,-0.67719c4.36656,0 9.89985,0.32847 14.13157,-0.00329c0.8932,-0.07006 2.58597,-0.33036 3.84431,-0.54357c-2.30162,0.66539 2.97107,1.30985 5.17787,1.72274c1.72936,0.32357 3.44992,0.51044 5.13294,0.64392z" data-paper-data="{&quot;noHover&quot;:false,&quot;origItem&quot;:[&quot;Path&quot;,{&quot;applyMatrix&quot;:true,&quot;segments&quot;:[[[579.60736,595.76373],[0.95609,-0.20262],[0.00646,0.07548]],[[579.61718,596],[0,-0.08208],[0,2]],[[577.61718,598],[0,0],[-8.83333,0]],[[551.11718,598],[8.83333,0],[-2.27308,0]],[[541.51161,598.28885],[1.67648,-1.19621],[-0.96568,0.68904]],[[538.61718,599],[1.23739,-0.09027],[-0.13966,0.01019]],[[537.99901,599.04541],[0.22447,-0.0134],[1.19653,0.85421]],[[538.61718,610],[0,-2.20646],[0,9.33333]],[[538.61718,638],[0,-9.33333],[0,1.66667]],[[538.61718,643],[0,-1.66667],[0,0.66667]],[[538.61718,645],[-0.35177,0.56631],[1.33831,-2.15456]],[[545.61718,644],[-3.04994,0.00386],[6.01206,-0.00761]],[[563.97058,644.43107],[-5.90478,-1.08158],[10.78253,2.15651]],[[597.04254,645.54479],[-10.6965,-2.40266],[9.00888,2.25222]],[[626.11718,648],[-9.28168,0],[2.33333,0]],[[633.11718,648],[-2.33333,0],[0.35109,0]],[[634.59021,647.90091],[-0.5707,0.05184],[-0.57412,-1.02596]],[[634.61718,643],[0,1.39387],[0,-5.20707]],[[634.21982,624.13246],[2.14282,4.67827],[-1.8936,-5.6808]],[[628.03948,607.31672],[3.08887,5.66543],[-2.2791,-4.1802]],[[620.32688,595.27881],[1.8857,4.15235],[-0.91417,-2.47477]],[[615.61718,594],[2.9771,0.57275],[-6.58756,-1.26734]],[[595.61718,593],[6.8054,0],[-2.48058,0]],[[587.61718,593],[2.40395,0.50364],[-0.50743,-0.10631]],[[585.44122,592.1748],[0.71481,0.32365],[1.30749,1.01011]],[[582.51161,594.78885],[1.25365,-0.62682],[-0.98239,0.4912]]],&quot;closed&quot;:true}],&quot;index&quot;:null}" fill="#686868" fill-rule="nonzero" stroke="none" stroke-width="1" stroke-linecap="butt"/><path d="M268.00175,413.02152c0,0.44524 1.21371,0.98487 0.60877,1.33742c1.54727,0.05961 3.10369,0.18976 4.48632,0.44847c5.33083,0.99743 16.17519,4.63198 17.19771,7.03483c0.08313,0.19545 -1.42431,0.22811 -1.16902,0.40143c0.84947,0.57671 7.7721,-0.42555 8.56837,-0.26177c0.1802,0.03708 0.26874,0.09482 0.30419,0.16508c-0.03708,-0.21828 -0.07103,-0.42929 -0.07103,-0.56207c0,-0.46667 0.04926,-0.96959 -0.50844,-1.38698c-4.74065,-3.67904 -12.48612,-7.17645 -25.89624,-7.17645c0,0 -1.58249,-0.00001 -2.6256,-0.39702c-0.34788,-0.07396 -0.61835,-0.16091 -0.7997,-0.2629c-0.04661,0.25132 -0.09537,0.50717 -0.09537,0.65994zM297.92711,422.90239c0.24027,0.26973 0.1694,-0.17797 0.08956,-0.64636c-0.01671,0.20327 -0.2538,0.46203 -0.08956,0.64636zM303.7165,419.01958c4.37768,3.27633 -5.56224,8.06334 -14.59098,5.85899c-8.51868,-2.07983 -11.40332,-6.25982 -19.17761,-7.71443c-2.62642,-0.49142 -5.77355,-0.75968 -7.73556,-1.57727c-3.1092,-1.29565 -1.73092,-5.71992 4.21489,-5.71992c4.28139,0 6.39017,0.51963 10.37608,0.51963h1.7603c0,0 2.02071,0 3.00037,0.57288c10.42873,1.2739 17.12078,4.51044 22.15248,8.06009z" data-paper-data="{&quot;index&quot;:null}" fill="#000000" fill-rule="nonzero" stroke="none" stroke-width="1" stroke-linecap="butt"/><path d="M267.96643,412.3174c0.18122,0.10198 0.45189,0.18892 0.79977,0.26288c1.04311,0.39702 2.63277,0.39421 2.63277,0.39421c13.41009,0 21.43518,3.57477 26.17577,7.25382c0.55772,0.41741 0.49308,0.92949 0.49308,1.39614c0,0.13278 0.02743,0.34681 0.06449,0.56509c-0.0354,-0.0703 -0.12307,-0.12837 -0.30335,-0.16546c-0.79631,-0.16378 -7.77889,0.8558 -8.62836,0.27911c-0.25531,-0.17333 1.08495,-0.32168 1.00172,-0.51714c-1.02249,-2.40287 -11.91919,-6.01895 -17.25006,-7.01639c-1.38266,-0.25871 -2.94801,-0.3835 -4.49529,-0.44312c0.60494,-0.35258 -0.59433,-0.90032 -0.59433,-1.34556c0,-0.15277 0.05688,-0.41226 0.10362,-0.66359z" data-paper-data="{&quot;noHover&quot;:false,&quot;origItem&quot;:[&quot;Path&quot;,{&quot;applyMatrix&quot;:true,&quot;segments&quot;:[[[607.563,601.99816],[0.02649,0.38155],[-0.10299,0.15484]],[[607.10872,602.39727],[0.1976,-0.11227],[-0.59254,0.60273]],[[605.61718,603],[0,0],[-7.618,0]],[[590.90604,613.89443],[2.69308,-5.58508],[-0.31682,0.63364]],[[590.61718,616],[0,-0.70843],[0,0.20156]],[[590.57685,616.85325],[0.02106,-0.33136],[0.02013,-0.10671]],[[590.74964,616.60263],[-0.10238,0.05628],[0.45234,-0.24865]],[[595.61718,617],[-0.48256,0.87548],[0.14503,-0.26312]],[[594.95308,616.3906],[-0.04725,0.29671],[0.58086,-3.64773]],[[604.72276,605.71115],[-3.02833,1.51416],[0.78545,-0.39273]],[[607.27135,605.03032],[-0.87898,0.0905],[-0.34365,-0.53523]],[[607.61718,603],[0,0.6759],[0,-0.23192]]],&quot;closed&quot;:true}],&quot;index&quot;:null}" fill="#ffffff" fill-rule="nonzero" stroke="none" stroke-width="1" stroke-linecap="butt"/><path d="M362.9992,215.85927v-3.77228l252.88784,-0.62871l39.0093,189.87174l-125.09877,0.62871l-28.75931,-133.21065l-14.74238,-6.7413l-13.63996,4.38754l-9.73874,8.95986l-31.31538,127.86198l-131.8245,1.88613z" fill="#8d5653" fill-rule="nonzero" stroke="#000000" stroke-width="1" stroke-linecap="round"/><path d="M618.99417,220.77964c-3.37553,0.18532 -6.78266,0.24722 -10.22325,0.18587c0,0.24778 0,0.49574 0,0.74351c-0.17658,-0.26376 -0.23792,-0.57343 -0.18587,-0.92938c3.47033,0 6.9388,0 10.40913,0z" fill="#a7a7a7" fill-rule="evenodd" stroke="none" stroke-width="1" stroke-linecap="butt"/><path d="M547.80318,218.17735c0.18402,1.5149 0.24722,3.06382 0.18588,4.64693c-1.52047,0.06059 -3.00749,-0.00148 -4.46105,-0.18587c1.42568,0 2.8495,0 4.27518,0c0,-1.48701 0,-2.97404 0,-4.46105z" fill="#8e8e8e" fill-rule="evenodd" stroke="none" stroke-width="1" stroke-linecap="butt"/><path d="M497.98808,221.70902c-1.3978,0.06041 -2.76028,-0.00149 -4.0893,-0.18588c1.32902,0.18439 2.6915,0.24629 4.0893,0.18588c0,-1.17716 0,-2.35451 0,-3.53167c0,1.17716 0,2.35451 0,3.53167z" fill="#7f7f7f" fill-rule="evenodd" stroke="none" stroke-width="1" stroke-linecap="butt"/><path d="M627.18343,119.76672c-16.32786,0.17682 -32.65449,0.38095 -48.98113,0.61227c0,-0.53059 0,-1.0613 0,-1.59189c0.32328,-0.40483 0.69063,-0.77219 1.10208,-1.10208c3.42991,0.01812 6.85858,-0.0431 10.28604,-0.18368c-2.24456,-1.91847 -4.49034,-3.83681 -6.7349,-5.75528c-0.10164,-0.08425 -0.18368,-0.0638 -0.24491,0.06123c0.11755,0.72725 0.15797,1.46196 0.12245,2.20415c-21.79538,-18.69303 -43.55035,-37.42832 -65.26736,-56.20585c-0.04898,-0.12551 -0.1298,-0.14593 -0.2449,-0.06123c-20.91861,19.36799 -41.83846,38.73587 -62.75708,58.10387c-0.06,-0.15833 -0.08082,-0.32168 -0.06122,-0.48981c-0.02082,-0.93971 0,-1.87855 0.06122,-2.81642c20.93944,-19.2251 41.87887,-38.45019 62.8183,-57.67529c4.21972,3.52566 8.40394,7.09725 12.55142,10.71462c0.12245,0.08167 0.24491,0.08167 0.36736,0c0.1898,-0.23168 0.41511,-0.41536 0.67349,-0.55103c20.62718,17.40189 41.22007,34.85142 61.77746,52.34858c11.5522,-0.05241 23.10317,-0.19519 34.65415,-0.42859c0.04531,0.61116 0.08694,1.22343 0.12245,1.8368c-0.00245,0.37838 -0.08449,0.70496 -0.2449,0.97962z" fill="#e3e3e3" fill-rule="evenodd" stroke="none" stroke-width="1" stroke-linecap="butt"/><path d="M517.46568,57.80558c-0.18613,0.75372 -0.30858,1.52926 -0.36736,2.3266c-18.6912,17.36381 -37.40567,34.71134 -56.14462,52.04246c-0.15062,4.2845 -0.25226,8.57035 -0.30613,12.85755c-1.00901,-1.40637 -1.98863,-2.83491 -2.93886,-4.28585c-0.54492,-0.85141 -1.11554,-1.68814 -1.71434,-2.51028c-0.36491,-0.06098 -0.73227,-0.08143 -1.10208,-0.06122c0.26082,-0.09968 0.54614,-0.16091 0.85717,-0.18368c-0.42859,-0.59182 -0.85717,-1.18376 -1.28575,-1.77556c-0.19592,-0.29328 -0.21551,-0.57895 -0.06122,-0.85717c-0.01959,0.16813 0.00122,0.33148 0.06122,0.48981c20.91861,-19.36799 41.83846,-38.73587 62.75708,-58.10387c0.11511,-0.0847 0.19592,-0.06429 0.2449,0.06123z" fill="#cacaca" fill-rule="evenodd" stroke="none" stroke-width="1" stroke-linecap="butt"/><path d="M517.46568,57.80558c21.71701,18.77753 43.47198,37.51281 65.26736,56.20585c-1.18779,1.18767 -2.33028,2.4122 -3.42868,3.67358c-0.41144,0.32989 -0.7788,0.69725 -1.10208,1.10208c-0.10899,-2.11966 -0.21062,-4.24214 -0.30613,-6.36755c-20.23533,-17.47353 -40.50128,-34.9026 -60.79784,-52.28736c0.05878,-0.79734 0.18123,-1.57288 0.36736,-2.3266z" fill="#c7c6c6" fill-rule="evenodd" stroke="none" stroke-width="1" stroke-linecap="butt"/><path d="M517.09833,60.13219c20.29656,17.38476 40.5625,34.81383 60.79784,52.28736c0.09551,2.12541 0.19715,4.24789 0.30613,6.36755c0,0.53059 0,1.0613 0,1.59189c0.05143,1.22416 0.09184,2.44869 0.12245,3.67358c10.53217,-0.14829 21.06311,-0.31152 31.59283,-0.48981c0.27919,4.89432 0.52409,9.79243 0.73472,14.69434c0.53022,11.10231 1.06166,22.20474 1.59189,33.30717c-10.76728,0.10164 -21.54312,0.18368 -32.32755,0.24491c0.09918,0.93554 0.14082,1.87353 0.12245,2.81642c0,0.32695 0,0.65267 0,0.97962c10.81626,-0.1102 21.63252,-0.15184 32.45,-0.12245c0,0.57186 0,1.14248 0,1.71434c0.05878,0.65145 0.09918,1.30535 0.12245,1.95925c0,0.20449 0,0.40776 0,0.61227c0.52777,10.61054 1.0384,21.22353 1.53066,31.83774c0.02694,0.17634 0.08816,0.33919 0.18368,0.48981c0.04041,-0.22409 0.08205,-0.4494 0.12245,-0.67349c-0.54981,-10.50768 -1.03962,-21.01903 -1.46943,-31.5316c0.12245,0 0.24491,0 0.36736,0c0.61838,-0.01959 1.23066,0.02082 1.8368,0.12245c0,0.16286 0,0.32695 0,0.48981c0.25838,5.83855 0.54492,11.67588 0.85717,17.51075c0.23266,5.26547 0.47757,10.53094 0.73472,15.79641c-0.78125,0.09307 -1.55637,0.21551 -2.32661,0.36736c-0.04041,0.42859 -0.08205,0.85717 -0.12245,1.28575c0.07959,1.69475 0.16164,3.38827 0.24491,5.08179c-1.8772,0 -3.75563,0 -5.63283,0c-0.74574,-14.47882 -1.39841,-28.96867 -1.95925,-43.47075c-5.49078,-0.0049 -10.96075,0.07714 -16.40868,0.24491c-1.34943,-0.04041 -2.69641,0 -4.04095,0.12245c-0.34776,0.12368 -0.51063,0.36858 -0.48981,0.73472c-0.11388,-0.13103 -0.15551,-0.29388 -0.12245,-0.48981c-1.91884,0 -3.83645,0 -5.75529,0c0.4641,14.12493 0.9539,28.24742 1.46943,42.36868c1.95925,0 3.91849,0 5.87774,0c0.23266,0.03674 0.43716,0.11755 0.61227,0.2449c-2.1417,0.12245 -4.30544,0.16286 -6.49,0.12245c0.03551,1.17433 0.03551,2.33763 0,3.48991c-8.48965,-0.02326 -16.97931,-0.08449 -25.47019,-0.18368c-0.40042,-16.89849 -0.80819,-33.79698 -1.22452,-50.69547c3.22541,0.02082 6.44959,0 9.67377,-0.06122c1.8723,-0.61716 3.7091,-1.29066 5.51038,-2.02047c0.12245,0 0.24491,0 0.36736,0c-0.09918,-1.09914 -0.1396,-2.20121 -0.12245,-3.30623c-33.18472,0.18551 -66.36943,0.34887 -99.55415,0.48981c-0.04041,1.08359 0.00123,2.14489 0.12245,3.18377c1.12289,0.78615 2.30578,1.48045 3.55113,2.0817c3.14337,0 6.2855,0 9.42887,0c-0.13103,16.61318 -0.25347,33.22513 -0.36736,49.83831c-2.48946,0 -4.98015,0 -7.46962,0c-4.32626,0 -8.65374,0 -12.98,0c-1.28453,-0.12122 -2.58988,-0.16286 -3.91849,-0.12245c0,-0.57186 0,-1.14248 0,-1.71433c0,-0.57186 0,-1.14248 0,-1.71434c0.21429,-14.44943 0.41879,-28.89887 0.61227,-43.3483c-0.02694,-0.34042 0.01347,-0.66737 0.12245,-0.97962c0,-0.89758 0,-1.79638 0,-2.69396c-17.67545,0.02449 -35.34944,0.10653 -53.02207,0.24491c-0.18919,-0.00122 -0.35242,-0.04163 -0.48981,-0.12245c0.37397,-11.68408 0.823,-23.35788 1.34698,-35.02151c0.05535,-3.82837 0.2187,-7.64473 0.48981,-11.44934c17.46924,-0.28923 34.9391,-0.51369 52.40981,-0.67349c0,-0.20413 0,-0.40814 0,-0.61227c0.05387,-4.2872 0.15551,-8.57304 0.30613,-12.85755c18.73896,-17.33112 37.45342,-34.67865 56.14462,-52.04246z" fill="#dbb73e" fill-rule="evenodd" stroke="none" stroke-width="1" stroke-linecap="butt"/><path d="M579.30436,117.68502c1.0984,-1.26139 2.24089,-2.48591 3.42868,-3.67358c0.03551,-0.74219 -0.0049,-1.4769 -0.12245,-2.20415c0.06123,-0.12502 0.14327,-0.14548 0.24491,-0.06123c2.24456,1.91847 4.49034,3.83681 6.7349,5.75528c-3.42746,0.14058 -6.85613,0.2018 -10.28604,0.18368z" fill="#bfa138" fill-rule="evenodd" stroke="none" stroke-width="1" stroke-linecap="butt"/><path d="M454.89229,118.17483c0.36981,-0.0202 0.73717,0.00024 1.10208,0.06122c0.59879,0.82215 1.16942,1.65887 1.71434,2.51028c-26.20441,0.39491 -52.40932,0.76227 -78.61472,1.10208c-0.02131,-0.86146 0.01947,-1.71862 0.12245,-2.57151c25.22296,-0.44181 50.44824,-0.80917 75.67585,-1.10208z" fill="#e3e3e3" fill-rule="evenodd" stroke="none" stroke-width="1" stroke-linecap="butt"/><path d="M627.18343,119.76672c-4.18421,2.64302 -8.38802,5.25531 -12.61264,7.83699c-1.32371,0.76386 -2.62906,1.55981 -3.91849,2.38783c5.30221,-0.05669 10.60809,-0.11792 15.91887,-0.18368c-5.26669,2.87838 -10.57257,5.69479 -15.91887,8.44924c-0.21062,-4.90191 -0.45552,-9.80003 -0.73472,-14.69434c-10.52972,0.17829 -21.06066,0.34152 -31.59283,0.48981c-0.03061,-1.2249 -0.07102,-2.44942 -0.12245,-3.67358c16.32664,-0.23132 32.65327,-0.43544 48.98113,-0.61227z" fill="#c5c5c5" fill-rule="evenodd" stroke="none" stroke-width="1" stroke-linecap="butt"/><path d="M457.7087,120.74634c0.95023,1.45094 1.92985,2.87948 2.93886,4.28585c0,0.20413 0,0.40814 0,0.61227c-17.47071,0.1598 -34.94057,0.38426 -52.40981,0.67349c-0.27111,3.80461 -0.43447,7.62097 -0.48981,11.44934c-9.58524,-5.26167 -19.13656,-10.56793 -28.65396,-15.91887c26.2054,-0.3398 52.4103,-0.70717 78.61472,-1.10208z" fill="#c6c6c6" fill-rule="evenodd" stroke="none" stroke-width="1" stroke-linecap="butt"/><path d="M626.57116,129.80785c-5.31078,0.06576 -10.61666,0.12698 -15.91887,0.18368c1.28943,-0.82802 2.59477,-1.62397 3.91849,-2.38783c4.04094,-0.08694 8.08189,-0.12772 12.12283,-0.12245c-0.02572,0.67802 0.0147,1.35151 0.12245,2.02047c-0.02204,0.1685 -0.10409,0.2705 -0.24491,0.30613z" fill="#e3e3e3" fill-rule="evenodd" stroke="none" stroke-width="1" stroke-linecap="butt"/><path d="M459.30059,131.76709c0.42369,-0.12025 0.87309,-0.16103 1.34698,-0.12245c0.03918,0.63614 -0.00122,1.24841 -0.12245,1.83679c0,-0.57149 0,-1.14285 0,-1.71434c-0.40777,0 -0.81676,0 -1.22452,0z" fill="#ac682b" fill-rule="evenodd" stroke="none" stroke-width="1" stroke-linecap="butt"/><path d="M459.30059,131.76709c0.40777,0 0.81676,0 1.22452,0c0,0.57149 0,1.14285 0,1.71434c-0.1494,9.75581 -0.31225,19.51114 -0.48981,29.26623c-3.87809,0.02045 -7.75555,0 -11.63302,-0.06122c-0.06808,-0.0469 -0.10886,-0.10812 -0.12245,-0.18368c0.18895,-10.2051 0.39307,-20.40946 0.61227,-30.61321c3.46909,-0.0731 6.93818,-0.11401 10.40849,-0.12245z" fill="#821f2d" fill-rule="evenodd" stroke="none" stroke-width="1" stroke-linecap="butt"/><path d="M424.27908,132.62426c0,0.24491 0,0.48981 0,0.73472c-0.17927,9.92247 -0.46495,19.84115 -0.85717,29.75604c-4.1274,0.11033 -8.24989,0.11033 -12.36774,0c-0.04077,-0.32658 -0.08168,-0.65304 -0.12245,-0.97962c0.35548,-9.87705 0.68206,-19.75495 0.97962,-29.63358c3.28651,0.01641 6.57229,-0.02437 9.85745,-0.12245c0.75517,0.02045 1.51021,0.04077 2.26538,0.06123c0.06662,0.0878 0.14828,0.14902 0.2449,0.18368z" fill="#82202d" fill-rule="evenodd" stroke="none" stroke-width="1" stroke-linecap="butt"/><path d="M424.27908,132.62426c0.1107,0.08682 0.15148,0.20927 0.12245,0.36736c8.12352,-0.02045 16.24618,-0.102 24.36811,-0.24491c0,0.12245 0,0.24491 0,0.36736c-8.04074,0.10788 -16.08186,0.18956 -24.12321,0.24491c-0.10384,-0.13776 -0.22629,-0.13776 -0.36736,0c0,-0.24491 0,-0.48981 0,-0.73472z" fill="#c09f35" fill-rule="evenodd" stroke="none" stroke-width="1" stroke-linecap="butt"/><path d="M448.8921,131.88954c-0.21919,10.20375 -0.42332,20.40811 -0.61227,30.61321c-8.16381,-0.01065 -16.32737,0.03025 -24.49057,0.12245c0.27809,-9.75569 0.56377,-19.51102 0.85717,-29.26623c8.04135,-0.05535 16.08247,-0.13703 24.12321,-0.24491c0,-0.12245 0,-0.24491 0,-0.36736c-0.03698,-0.31335 0.00392,-0.59916 0.12245,-0.85717z" fill="#d99f36" fill-rule="evenodd" stroke="none" stroke-width="1" stroke-linecap="butt"/><path d="M610.28493,154.17596c-3.51072,0.04457 -7.02022,0.08535 -10.53094,0.12245c-0.25715,-6.69352 -0.50205,-13.38765 -0.73472,-20.08226c3.51072,0.00539 7.02144,-0.03539 10.53094,-0.12245c0.29511,6.72989 0.54001,13.42402 0.73472,20.08226z" fill="#811f2d" fill-rule="evenodd" stroke="none" stroke-width="1" stroke-linecap="butt"/><path d="M599.01928,134.21615c0.23266,6.69462 0.47757,13.38875 0.73472,20.08226c3.51072,-0.0371 7.02022,-0.07788 10.53094,-0.12245c-0.05143,0.08841 -0.13225,0.14964 -0.24491,0.18368c-3.55113,0.06123 -7.10227,0.08168 -10.6534,0.06123c-0.24491,-6.65495 -0.46899,-13.3083 -0.67349,-19.95981c0.08694,-0.10788 0.18858,-0.18944 0.30613,-0.24491z" fill="#751b28" fill-rule="evenodd" stroke="none" stroke-width="1" stroke-linecap="butt"/><path d="M583.46777,134.70596c0.1996,6.6127 0.40287,13.22515 0.61227,19.83736c-0.05143,0.08841 -0.13225,0.14964 -0.2449,0.18368c-1.46943,0.06123 -2.93887,0.08168 -4.4083,0.06123c-0.27797,-6.69058 -0.52287,-13.38471 -0.73472,-20.08226c1.61148,-0.11914 3.20337,-0.11914 4.77566,0z" fill="#811f2d" fill-rule="evenodd" stroke="none" stroke-width="1" stroke-linecap="butt"/><path d="M598.40701,154.42087c-0.24491,-6.37293 -0.53144,-12.74049 -0.85717,-19.10265c-4.65198,-0.08719 -9.30519,-0.08719 -13.95962,0c0,-0.12245 0,-0.24491 0,-0.36736c4.8577,0.00098 9.71541,-0.0398 14.57189,-0.12245c0.25225,6.53054 0.49716,13.06143 0.73472,19.59245c-0.16286,0 -0.32695,0 -0.48981,0z" fill="#c6a536" fill-rule="evenodd" stroke="none" stroke-width="1" stroke-linecap="butt"/><path d="M583.46777,134.70596c0.10286,0.04188 0.14327,0.12343 0.12245,0.2449c0,0.12245 0,0.24491 0,0.36736c4.65443,-0.08719 9.30764,-0.08719 13.95962,0c0.32572,6.36216 0.61227,12.72971 0.85717,19.10265c-4.77688,-0.01971 -9.55254,0.02106 -14.32698,0.12245c-0.2094,-6.61221 -0.41267,-13.22466 -0.61227,-19.83736z" fill="#d99f36" fill-rule="evenodd" stroke="none" stroke-width="1" stroke-linecap="butt"/><path d="M570.12041,170.952c-33.06226,0.1347 -66.12453,0.25715 -99.18679,0.36736c-0.12122,-1.03889 -0.16286,-2.10019 -0.12245,-3.18377c33.18472,-0.14094 66.36943,-0.3043 99.55415,-0.48981c-0.01714,1.10502 0.02327,2.20709 0.12245,3.30623c-0.12245,0 -0.24491,0 -0.36736,0z" fill="#e4e4e4" fill-rule="evenodd" stroke="none" stroke-width="1" stroke-linecap="butt"/><path d="M570.12041,170.952c-1.80128,0.72982 -3.63808,1.40331 -5.51038,2.02047c-3.22418,0.06123 -6.44836,0.08204 -9.67377,0.06122c-5.14179,-0.43103 -10.28482,-0.85962 -15.42906,-1.28575c-2.40742,-0.06123 -4.81608,-0.08204 -7.22472,-0.06122c-11.69425,0.04409 -23.36767,0.1249 -35.02151,0.2449c-4.16707,0.38817 -8.33047,0.81676 -12.49018,1.28575c-3.4495,0.02082 -6.87817,0.08205 -10.28604,0.18368c-1.24535,-0.60125 -2.42824,-1.29555 -3.55113,-2.0817c33.06226,-0.1102 66.12453,-0.23267 99.18679,-0.36736z" fill="#c5c6c5" fill-rule="evenodd" stroke="none" stroke-width="1" stroke-linecap="butt"/><path d="M612.24417,171.56426c6.24509,0 12.49018,0 18.73528,0c0.00245,0.94044 0.04409,1.87965 0.12245,2.81642c-0.16286,0 -0.32695,0 -0.48981,0c-16.8593,0.04776 -33.71739,0.1298 -50.57302,0.24491c0.01837,-0.94288 -0.02326,-1.88087 -0.12245,-2.81642c10.78442,-0.06123 21.56027,-0.14327 32.32755,-0.24491z" fill="#e4e4e4" fill-rule="evenodd" stroke="none" stroke-width="1" stroke-linecap="butt"/><path d="M532.28248,171.68672c2.40865,-0.02082 4.81729,0 7.22472,0.06122c5.14424,0.42613 10.28726,0.85472 15.42906,1.28575c0.41634,16.89849 0.82411,33.79698 1.22452,50.69547c-5.46017,0.74206 -10.92892,1.45597 -16.40868,2.14293c-12.16324,-0.0502 -24.32648,-0.11143 -36.49095,-0.18368c-1.8968,-0.12245 -3.81563,-0.16286 -5.75528,-0.12245c0,-17.87812 0,-35.75623 0,-53.63434c1.47556,-0.07959 2.90336,0.00245 4.28585,0.24491c0,3.9589 0,7.91903 0,11.87793c-0.04041,11.20443 0,22.38805 0.12245,33.55208c6.34673,0.18001 12.71428,0.26205 19.10265,0.2449c4.02135,0 8.02066,-0.04041 12.00037,-0.12245c0.08205,-1.18289 0.12245,-2.38661 0.12245,-3.61236c-0.19103,-12.67387 -0.37471,-25.34774 -0.55103,-38.0216c0.0147,-1.50005 -0.08816,-2.96948 -0.30613,-4.4083z" fill="#e2d57f" fill-rule="evenodd" stroke="none" stroke-width="1" stroke-linecap="butt"/><path d="M497.26097,171.93162c0.08205,0 0.16286,0 0.24491,0c0,17.87812 0,35.75623 0,53.63434c1.93965,-0.04041 3.85849,0 5.75528,0.12245c-1.95925,0.02082 -3.91849,0 -5.87774,-0.06123c-4.45116,-0.72369 -8.89987,-1.45841 -13.34736,-2.20415c-2.67437,-0.02082 -5.3267,-0.08205 -7.95943,-0.18368c2.48946,0 4.98015,0 7.46962,0c0.11388,-16.61318 0.23633,-33.22513 0.36736,-49.83831c-3.14337,0 -6.2855,0 -9.42887,0c3.40787,-0.10164 6.83654,-0.16286 10.28604,-0.18368c4.15972,-0.46899 8.32312,-0.89758 12.49018,-1.28575z" fill="#d6c978" fill-rule="evenodd" stroke="none" stroke-width="1" stroke-linecap="butt"/><path d="M532.28248,171.68672c0.21797,1.43882 0.32083,2.90825 0.30613,4.4083c0.17634,12.67387 0.36001,25.34774 0.55103,38.0216c0,1.22575 -0.04041,2.42947 -0.12245,3.61236c0,-0.04041 0,-0.08205 0,-0.12245c-0.24613,-15.18415 -0.49104,-30.3683 -0.73472,-45.55245c-10.16481,-0.03674 -20.32839,0.00367 -30.49076,0.12245c-1.38249,-0.24245 -2.81029,-0.3245 -4.28585,-0.24491c-0.08205,0 -0.16286,0 -0.24491,0c11.65383,-0.12001 23.32726,-0.20082 35.02151,-0.2449z" fill="#d0c479" fill-rule="evenodd" stroke="none" stroke-width="1" stroke-linecap="butt"/><path d="M533.01719,217.60652c-7.66432,0.03551 -15.33844,0.03551 -23.02113,0c-2.67315,-0.12245 -5.36711,-0.16286 -8.08189,-0.12245c0.04041,-11.16402 0,-22.30723 -0.12245,-33.42962c0,-3.9589 0,-7.91903 0,-11.87793c10.16236,-0.11878 20.32594,-0.15919 30.49076,-0.12245c0.24368,15.18415 0.48859,30.3683 0.73472,45.55245z" fill="#d9a037" fill-rule="evenodd" stroke="none" stroke-width="1" stroke-linecap="butt"/><path d="M494.3221,216.99427c-2.49559,-0.24123 -4.98506,-0.52655 -7.46962,-0.85717c0.02449,-14.29515 0.10653,-28.58049 0.2449,-42.85849c2.5311,-0.24491 5.06098,-0.48981 7.59208,-0.73472c0.02082,9.91868 0,19.83736 -0.06123,29.75604c0.01959,4.94097 -0.08204,9.83908 -0.30613,14.69434z" fill="#cf9834" fill-rule="evenodd" stroke="none" stroke-width="1" stroke-linecap="butt"/><path d="M459.91285,175.3603c-38.6542,0.15919 -77.30839,0.28164 -115.96284,0.36736c-0.1516,-0.87186 -0.11082,-1.74862 0.12245,-2.63274c20.77621,-0.11266 41.55229,-0.21551 62.32849,-0.30613c0.13739,0.08082 0.30062,0.12122 0.48981,0.12245c17.67264,-0.13837 35.34662,-0.22042 53.02207,-0.24491c0,0.89758 0,1.79638 0,2.69396z" fill="#e3e3e3" fill-rule="evenodd" stroke="none" stroke-width="1" stroke-linecap="butt"/><path d="M541.71135,172.66634c2.69274,0.21797 5.3867,0.42124 8.08189,0.61227c0.32082,14.53148 0.64778,29.06296 0.97962,43.59321c-2.76498,0.33307 -5.54099,0.61961 -8.3268,0.85717c-0.25103,-15.02129 -0.49594,-30.04135 -0.73472,-45.06265z" fill="#dca238" fill-rule="evenodd" stroke="none" stroke-width="1" stroke-linecap="butt"/><path d="M487.09738,173.2786c-0.13837,14.278 -0.22042,28.56335 -0.2449,42.85849c2.48457,0.33062 4.97404,0.61594 7.46962,0.85717c0.32695,0.18368 0.30736,0.30613 -0.06123,0.36736c-2.83723,-0.37226 -5.67447,-0.73961 -8.51047,-1.10208c0.02816,-14.32698 0.06857,-28.65396 0.12245,-42.98094c0.40777,0 0.81676,0 1.22452,0z" fill="#e4d680" fill-rule="evenodd" stroke="none" stroke-width="1" stroke-linecap="butt"/><path d="M541.71135,172.66634c0.24123,-0.08082 0.50696,-0.12245 0.79594,-0.12245c2.80172,0.21062 5.59854,0.45552 8.38802,0.73472c0.41022,14.56944 0.73594,29.14132 0.97962,43.71566c-0.38083,0.02939 -0.74819,-0.01224 -1.10208,-0.12245c-0.33185,-14.53025 -0.6588,-29.06173 -0.97962,-43.59321c-2.69519,-0.19103 -5.38915,-0.3943 -8.08189,-0.61227z" fill="#d4c878" fill-rule="evenodd" stroke="none" stroke-width="1" stroke-linecap="butt"/><path d="M630.6121,174.38067c-5.38793,0.85717 -10.77585,1.71434 -16.16378,2.57151c-0.66859,0.00245 -1.32127,0.08327 -1.95924,0.24491c0,-0.57186 0,-1.14248 0,-1.71434c-10.81748,-0.02939 -21.63374,0.01225 -32.45,0.12245c0,-0.32695 0,-0.65267 0,-0.97962c16.85563,-0.11511 33.71371,-0.19715 50.57302,-0.24491z" fill="#c5c5c5" fill-rule="evenodd" stroke="none" stroke-width="1" stroke-linecap="butt"/><path d="M459.91285,175.3603c-0.10899,0.31226 -0.1494,0.63921 -0.12245,0.97962c-31.87888,0.09551 -63.75739,0.23878 -95.63566,0.42858c-0.1156,0.33307 -0.15637,0.67961 -0.12245,1.04085c-0.12245,0 -0.24491,0 -0.36736,0c-6.59812,-0.60614 -13.16968,-1.30045 -19.71491,-2.0817c38.65444,-0.08572 77.30864,-0.20817 115.96284,-0.36736z" fill="#c5c4c4" fill-rule="evenodd" stroke="none" stroke-width="1" stroke-linecap="butt"/><path d="M459.79041,176.33992c-0.19347,14.44943 -0.39798,28.89887 -0.61227,43.3483c-0.08205,0 -0.16286,0 -0.24491,0c0.22042,-12.16324 0.42369,-24.32648 0.61227,-36.49095c0,-0.65267 0,-1.30657 0,-1.95924c-5.61201,-0.16286 -11.26505,-0.24491 -16.95971,-0.24491c-8.96502,-0.01714 -17.9244,0.0649 -26.8784,0.24491c-0.12122,0.75186 -0.162,1.52821 -0.12245,2.3266c-0.0147,0.43348 0.0262,0.86207 0.12245,1.28575c-0.45454,11.52771 -0.86268,23.05909 -1.22453,34.59293c-1.26298,0.15674 -2.52828,0.15674 -3.79604,0c0.12527,-2.81519 0.20694,-5.6316 0.2449,-8.44924c0.32878,-7.36676 0.61447,-14.75557 0.85717,-22.16396c0.07873,-2.24456 0.16042,-4.49034 0.24491,-6.7349c0,-0.24491 0,-0.48981 0,-0.73472c-6.30583,-0.16286 -12.65293,-0.24491 -19.04142,-0.24491c-7.89858,0.0098 -15.79679,0.0502 -23.69462,0.12245c-0.26046,0.1102 -0.40335,0.31347 -0.42858,0.61227c-0.0611,0.5694 -0.08155,1.14126 -0.06123,1.71434c0.00477,0.57308 0.04555,1.14494 0.12245,1.71434c-0.64227,11.30485 -1.25453,22.61214 -1.83679,33.91943c-1.79063,0.08205 -3.58652,0.08205 -5.38793,0c0.15441,-3.71767 0.35854,-7.43166 0.61227,-11.14321c0.50806,-9.675 1.03864,-19.34877 1.59189,-29.02132c-0.01115,-0.44083 -0.0927,-0.84859 -0.24491,-1.22452c0.12245,0 0.24491,0 0.36736,0c-0.03392,-0.36124 0.00686,-0.70778 0.12245,-1.04085c31.87827,-0.1898 63.75678,-0.33307 95.63566,-0.42858z" fill="#8d5653" fill-rule="evenodd" stroke="none" stroke-width="1" stroke-linecap="butt"/><path d="M627.55078,179.03389c-4.97893,0.08816 -9.95909,0.12857 -14.93925,0.12245c-0.02326,-0.6539 -0.06367,-1.3078 -0.12245,-1.95925c0.63798,-0.16164 1.29065,-0.24245 1.95924,-0.24491c4.3679,-0.01224 8.73578,-0.05265 13.10246,-0.12245c0.0698,0.75676 0.0698,1.49147 0,2.20415z" fill="#e2e2e2" fill-rule="evenodd" stroke="none" stroke-width="1" stroke-linecap="butt"/><path d="M608.32569,220.42294c-6.71654,-0.09061 -13.45144,-0.13103 -20.20472,-0.12245c-0.17511,-0.12735 -0.37961,-0.20816 -0.61227,-0.2449c-0.45063,-13.96085 -0.94044,-27.92047 -1.46943,-41.87887c-0.02082,-0.36613 0.14205,-0.61104 0.48981,-0.73472c1.34453,-0.12245 2.69152,-0.16286 4.04095,-0.12245c5.26793,0.03796 10.5334,-0.00368 15.79641,-0.12245c0.6392,14.40902 1.29187,28.81805 1.95924,43.22585z" fill="#858585" fill-rule="evenodd" stroke="none" stroke-width="1" stroke-linecap="butt"/><path d="M608.93795,220.5454c-0.19838,-0.06613 -0.40165,-0.10653 -0.61227,-0.12245c-0.66737,-14.4078 -1.32004,-28.81683 -1.95924,-43.22585c-5.26302,0.11878 -10.52849,0.16042 -15.79641,0.12245c5.44793,-0.16776 10.9179,-0.2498 16.40868,-0.24491c0.56083,14.50209 1.21351,28.99194 1.95925,43.47075z" fill="#c1a43c" fill-rule="evenodd" stroke="none" stroke-width="1" stroke-linecap="butt"/><path d="M586.03927,178.17671c0.529,13.9584 1.01881,27.91802 1.46943,41.87887c-1.95925,0 -3.91849,0 -5.87774,0c-0.51553,-14.12126 -1.00534,-28.24375 -1.46943,-42.36868c1.91884,0 3.83645,0 5.75529,0c-0.03306,0.19592 0.00857,0.35878 0.12245,0.48981z" fill="#d99f37" fill-rule="evenodd" stroke="none" stroke-width="1" stroke-linecap="butt"/><path d="M627.55078,179.03389c-4.09972,0.54124 -8.22148,1.03106 -12.36774,1.46944c0,-0.16286 0,-0.32695 0,-0.48981c-0.60614,-0.10164 -1.21841,-0.14205 -1.8368,-0.12245c-0.21551,-0.11755 -0.46042,-0.15797 -0.73472,-0.12245c0,-0.20449 0,-0.40776 0,-0.61227c4.98015,0.00612 9.96032,-0.03429 14.93925,-0.12245z" fill="#c2c2c2" fill-rule="evenodd" stroke="none" stroke-width="1" stroke-linecap="butt"/><path d="M612.61154,179.7686c0.2743,-0.03551 0.5192,0.0049 0.73472,0.12245c-0.12245,0 -0.24491,0 -0.36736,0c0.42981,10.51257 0.91962,21.02393 1.46943,31.5316c-0.04041,0.22409 -0.08205,0.4494 -0.12245,0.67349c-0.09551,-0.15062 -0.15674,-0.31347 -0.18368,-0.48981c-0.49226,-10.61421 -1.00289,-21.2272 -1.53066,-31.83774z" fill="#d0ae3a" fill-rule="evenodd" stroke="none" stroke-width="1" stroke-linecap="butt"/><path d="M459.5455,181.23804c-14.63397,0.00612 -29.24663,0.00612 -43.83812,0c8.954,-0.18001 17.91338,-0.26205 26.8784,-0.24491c5.69467,0 11.3477,0.08205 16.95971,0.24491z" fill="#eddc86" fill-rule="evenodd" stroke="none" stroke-width="1" stroke-linecap="butt"/><path d="M412.0338,181.36049c-14.26588,0.04041 -28.51131,0 -42.73604,-0.12245c7.89784,-0.07225 15.79605,-0.11266 23.69462,-0.12245c6.38849,0 12.73559,0.08205 19.04142,0.24491z" fill="#eddc86" fill-rule="evenodd" stroke="none" stroke-width="1" stroke-linecap="butt"/><path d="M415.70738,181.23804c14.59148,0.00612 29.20414,0.00612 43.83812,0c0,0.65267 0,1.30657 0,1.95924c-14.62785,0.23021 -29.28129,0.35267 -43.96056,0.36736c-0.03955,-0.79839 0.00122,-1.57474 0.12245,-2.3266z" fill="#e1d47e" fill-rule="evenodd" stroke="none" stroke-width="1" stroke-linecap="butt"/><path d="M369.29776,181.23804c14.22473,0.12245 28.47016,0.16286 42.73604,0.12245c0,0.24491 0,0.48981 0,0.73472c-0.12037,0.46532 -0.16127,0.95513 -0.12245,1.46943c-14.36776,0 -28.73563,0 -43.1034,0c-0.02033,-0.57308 0.00012,-1.14494 0.06123,-1.71434c0.02523,-0.29878 0.16812,-0.50205 0.42858,-0.61227z" fill="#e1d47e" fill-rule="evenodd" stroke="none" stroke-width="1" stroke-linecap="butt"/><path d="M459.5455,183.19728c-0.18858,12.16447 -0.39185,24.3277 -0.61227,36.49095c-0.67717,0.03918 -1.32984,-0.00123 -1.95924,-0.12245c0.26205,-11.50567 0.46655,-23.01623 0.61227,-34.5317c-13.2249,0 -26.44982,0 -39.67472,0c-0.39442,11.42485 -0.80255,22.85338 -1.22452,34.2868c2.22546,-0.04041 4.4296,0 6.61245,0.12245c-2.93886,0 -5.87774,0 -8.8166,0c0.36185,-11.53383 0.76999,-23.06522 1.22453,-34.59293c-0.09624,-0.42369 -0.13715,-0.85227 -0.12245,-1.28575c14.67928,-0.0147 29.33272,-0.13715 43.96056,-0.36736z" fill="#ded07d" fill-rule="evenodd" stroke="none" stroke-width="1" stroke-linecap="butt"/><path d="M412.0338,182.09521c-0.08449,2.24456 -0.16617,4.49034 -0.24491,6.7349c-0.42687,7.36309 -0.71268,14.75067 -0.85717,22.16396c-0.03796,2.81764 -0.11963,5.63406 -0.2449,8.44924c-0.63614,0.03918 -1.24841,-0.00122 -1.8368,-0.12245c0.50267,-11.40771 0.9517,-22.83623 1.34698,-34.2868c-12.97963,0.10776 -25.95963,0.14817 -38.94,0.12245c-0.57601,11.30607 -1.14739,22.61214 -1.71434,33.91943c2.26636,-0.04041 4.51129,0 6.7349,0.12245c-3.06132,0 -6.12264,0 -9.18396,0c0.58227,-11.30729 1.19452,-22.61459 1.83679,-33.91943c-0.0769,-0.5694 -0.11767,-1.14126 -0.12245,-1.71434c14.36776,0 28.73563,0 43.1034,0c-0.03882,-0.5143 0.00208,-1.00411 0.12245,-1.46943z" fill="#ded17d" fill-rule="evenodd" stroke="none" stroke-width="1" stroke-linecap="butt"/><path d="M501.79173,184.05445c0.12245,11.12239 0.16286,22.2656 0.12245,33.42962c2.71478,-0.04041 5.40874,0 8.08189,0.12245c-2.69396,0 -5.38793,0 -8.08189,0c-0.12245,-11.16402 -0.16286,-22.34764 -0.12245,-33.55208z" fill="#ddb952" fill-rule="evenodd" stroke="none" stroke-width="1" stroke-linecap="butt"/><path d="M408.85002,219.32087c-10.85752,-0.02572 -21.71505,-0.06735 -32.57245,-0.12245c-2.22362,-0.12245 -4.46855,-0.16286 -6.7349,-0.12245c0.56696,-11.30729 1.13832,-22.61336 1.71434,-33.91943c12.98037,0.02572 25.96036,-0.0147 38.94,-0.12245c-0.39528,11.45056 -0.84431,22.87909 -1.34698,34.2868z" fill="#e1d47f" fill-rule="evenodd" stroke="none" stroke-width="1" stroke-linecap="butt"/><path d="M456.97399,219.56577c-11.22489,-0.02204 -22.44977,-0.06367 -33.67453,-0.12245c-2.18284,-0.12245 -4.387,-0.16286 -6.61245,-0.12245c0.42198,-11.43342 0.83011,-22.86195 1.22452,-34.2868c13.2249,0 26.44982,0 39.67472,0c-0.14572,11.51546 -0.35022,23.02603 -0.61227,34.5317z" fill="#e1d47f" fill-rule="evenodd" stroke="none" stroke-width="1" stroke-linecap="butt"/><path d="M411.78889,188.83011c-0.2427,7.4084 -0.52838,14.7972 -0.85717,22.16396c0.14449,-7.41329 0.4303,-14.80088 0.85717,-22.16396z" fill="#d1bd76" fill-rule="evenodd" stroke="none" stroke-width="1" stroke-linecap="butt"/><path d="M596.93757,209.40219c0.58165,-0.11755 0.99064,0.08694 1.22452,0.61227c-0.28654,0.48492 -0.6943,0.60736 -1.22452,0.36736c-0.3245,-0.33062 -0.3245,-0.65757 0,-0.97962z" fill="#696969" fill-rule="evenodd" stroke="none" stroke-width="1" stroke-linecap="butt"/><path d="M501.91417,217.60652c2.69396,0 5.38793,0 8.08189,0c7.68269,0.03551 15.35681,0.03551 23.02113,0c0,0.04041 0,0.08205 0,0.12245c-3.97972,0.08205 -7.97903,0.12245 -12.00037,0.12245c-6.38836,0.01714 -12.75592,-0.0649 -19.10265,-0.2449z" fill="#f6e88b" fill-rule="evenodd" stroke="none" stroke-width="1" stroke-linecap="butt"/><path d="M459.17814,221.40256c0,0.57186 0,1.14248 0,1.71433c1.32861,-0.04041 2.63396,0.00123 3.91849,0.12245c-1.34698,0 -2.69396,0 -4.04094,0c-0.03918,-0.63553 0.00122,-1.24779 0.12245,-1.83679z" fill="#957830" fill-rule="evenodd" stroke="none" stroke-width="1" stroke-linecap="butt"/><path d="M549.58473,124.56162c-0.01672,-0.05007 -0.03214,-0.10311 -0.04649,-0.15872c-0.02355,0.05652 -0.04737,0.1129 -0.07146,0.16916c0.03921,-0.00437 0.07852,-0.00788 0.11795,-0.01044zM549.3652,123.35961c-0.10324,-0.774 -0.22562,-1.60068 -0.65947,-1.97711c-0.19654,-0.17053 -2.30602,2.13606 -2.5084,2.30175c-3.19401,2.61491 -6.08112,5.7865 -9.01323,8.71567c-5.82099,4.85906 -13.04418,3.7463 -20.17936,3.69486c-4.81916,1.20479 -12.19924,0.1963 -16.01167,-3.07479c-1.29697,-1.11281 -1.94649,-2.83936 -3.14164,-4.06036c-0.48464,-1.13083 -1.4558,-2.13644 -2.32603,-3.01132c-0.64538,-0.64882 -1.20144,-1.48869 -1.64103,-2.30727c-0.05118,0.89666 -0.2389,2.06233 -0.2938,2.28196c-0.49934,1.99736 -0.17946,4.36804 -0.18086,6.42375c0.15166,1.45591 0.11684,3.29339 0.64428,4.67488c0.82206,2.15313 2.70251,2.93465 4.55463,3.90968c4.22299,2.22318 8.48618,4.08125 13.10828,5.28457c5.76475,1.5101 12.31914,0.55686 17.87206,-1.36222c2.31342,-0.79952 4.57887,-1.55795 6.50805,-3.12247c3.53825,-2.68009 5.91312,-6.50111 7.98284,-10.37276c1.37205,-2.56657 3.1573,-4.96357 4.23347,-7.67548c0,0 0.26118,-0.65294 0.91412,-0.39177c0.05139,0.02056 0.09711,0.04354 0.13775,0.06844zM548.38449,126.76201c-0.97774,1.77542 -2.11194,3.47588 -3.06411,5.25917c-2.15761,4.04091 -4.66572,8.01997 -8.35692,10.81788c-2.06329,1.65748 -4.44741,2.49092 -6.91504,3.34389c-5.8211,2.01214 -12.64596,2.96348 -18.68654,1.39383c-4.71931,-1.23376 -9.07847,-3.11909 -13.39073,-5.39178c-2.12891,-1.122 -4.26134,-2.14554 -5.20386,-4.59545c-0.5947,-1.54581 -0.59465,-3.53788 -0.76219,-5.17041c-0.00177,-2.73809 0.40296,-5.5044 0.40092,-8.17365c-0.0004,-0.52299 0.09346,-2.75522 0.69565,-2.94235c0.52587,-0.1634 1.11391,0.23852 1.5477,0.57774c0.52299,0.40898 1.00826,2.04433 1.4324,2.64436c0.90052,1.27398 2.30428,2.1758 2.93431,3.64588c1.12542,1.09777 1.68529,2.77726 2.88609,3.7757c3.59775,2.99145 10.44179,3.87425 14.93072,2.75202c6.78721,-0.04163 13.84679,1.28381 19.40277,-3.3375c2.78641,-2.78934 5.5437,-5.74098 8.55896,-8.2552c0.97864,-0.81602 1.9029,-2.43398 3.10577,-2.82843c2.77362,-0.90953 3.01998,3.20694 2.85853,5.05814c-0.53403,0.29096 -1.08993,0.58492 -1.68893,0.69002l-0.22181,0.41802c0,0 -0.1739,0.26087 -0.46366,0.31812z" data-paper-data="{&quot;index&quot;:null}" fill="#000000" fill-rule="nonzero" stroke="none" stroke-width="0.5" stroke-linecap="butt"/><path d="M549.33239,123.37227c-0.04064,-0.02489 -0.08631,-0.04776 -0.1377,-0.06831c-0.65293,-0.26117 -0.84858,0.36625 -0.84858,0.36625c-1.07618,2.71191 -2.8593,5.11733 -4.23135,7.68391c-2.06972,3.87165 -4.4482,7.71301 -7.98644,10.3931c-1.92918,1.56452 -4.20444,2.33475 -6.51786,3.13427c-5.55293,1.91909 -12.15074,2.87197 -17.91549,1.36187c-4.6221,-1.20332 -8.89704,-3.07884 -13.12004,-5.30202c-1.85212,-0.97504 -3.73384,-1.76292 -4.55591,-3.91605c-0.52745,-1.38149 -0.49274,-3.22491 -0.6444,-4.68082c0.0014,-2.05571 -0.3171,-4.43412 0.18224,-6.43148c0.05491,-0.21963 0.2435,-1.38787 0.29468,-2.28453c0.43959,0.81858 1.06198,1.68171 1.70737,2.33053c0.87023,0.87487 1.84221,1.87743 2.32685,3.00826c1.19515,1.22099 1.84545,2.94191 3.14242,4.05472c3.81243,3.27109 11.18952,4.2633 16.00868,3.05851c7.13518,0.05144 14.2913,1.18239 20.11228,-3.67666c2.93211,-2.92917 5.82177,-6.09099 9.01578,-8.7059c0.20238,-0.16569 2.37611,-2.50082 2.57265,-2.33029c0.43385,0.37642 0.55718,1.20534 0.66042,1.97933z" data-paper-data="{&quot;noHover&quot;:false,&quot;origItem&quot;:[&quot;Path&quot;,{&quot;applyMatrix&quot;:true,&quot;segments&quot;:[[[368.43012,126.24988],[0,0],[-0.14681,-1.10062]],[[367.49235,123.43844],[0.61694,0.53527],[-0.27948,-0.24249]],[[363.92541,126.71152],[0.28779,-0.23561],[-4.54188,3.7184]],[[351.10861,139.10518],[4.16946,-4.16527],[-8.27743,6.90957]],[[322.4136,144.35926],[10.14621,0.07315],[-6.85284,1.71321]],[[299.64504,139.98692],[5.42127,4.65148],[-1.84429,-1.58242]],[[295.17764,134.2131],[1.6995,1.73625],[-0.68916,-1.60804]],[[291.87003,129.93101],[1.23747,1.24407],[-0.91773,-0.92262]],[[289.53649,126.65007],[0.6251,1.16402],[-0.07278,1.27505]],[[289.1187,129.89501],[0.07808,-0.31231],[-0.71006,2.84024]],[[288.86152,139.02957],[0.00199,-2.92321],[0.21566,2.0703]],[[289.77769,145.67724],[-0.75003,-1.96448],[1.16897,3.06175]],[[296.25437,151.2368],[-2.63371,-1.3865],[6.00509,3.16136]],[[314.89432,158.75145],[-6.57262,-1.71112],[8.19747,2.14736]],[[340.30836,156.81437],[-7.89625,2.72894],[3.28968,-1.13691]],[[349.5628,152.37422],[-2.74329,2.22475],[5.03138,-3.81109]],[[360.91438,137.62418],[-2.94314,5.50548],[1.95105,-3.64966]],[[366.93437,126.70966],[-1.53032,3.85633],[0,0]],[[368.23424,126.15257],[-0.92847,-0.37139],[0.07308,0.02923]],[[368.43012,126.24989],[-0.05779,-0.0354],[0,0]]],&quot;closed&quot;:true,&quot;fillColor&quot;:[0,0,0,1]}]}" fill="#ff8a8a" fill-rule="nonzero" stroke="none" stroke-width="0.5" stroke-linecap="butt"/><path d="M497.44784,109.49511c-0.10745,0.05178 -0.24468,0.077 -0.41955,0.05202c-0.69617,-0.09945 -0.59672,-0.79562 -0.59672,-0.79562c0.36835,-2.21598 2.54367,-2.8766 4.49179,-3.45147c4.31494,-1.27329 9.17517,-1.40916 11.95931,2.75899c2.05002,3.14338 2.28,9.99124 0.53432,13.28505c-1.0034,1.89324 -2.8952,3.09327 -4.75961,4.02594c-1.76973,0.64544 -3.81178,1.27752 -5.73536,0.84824c-5.51267,-1.23027 -6.2966,-8.55378 -6.2966,-13.0474c0.00782,-1.32081 0.46323,-2.48489 0.82241,-3.67573zM499.55181,107.2014c0.31712,0.52294 -0.1938,0.90613 -0.1938,0.90613l-0.12598,-0.17397c-0.23958,1.80498 -1.21392,3.35751 -1.20011,5.23727c0,3.27627 0.10032,6.00147 1.97696,8.73088c0.8674,1.26155 1.50364,2.56534 3.17913,2.93543c1.65222,0.36495 3.39687,-0.20935 4.91364,-0.75916c1.58022,-0.78963 3.23533,-1.80852 4.08107,-3.40827c1.47067,-2.78179 1.34578,-9.1854 -0.4703,-11.83052c-2.4204,-3.63812 -6.68785,-3.27146 -10.39434,-2.18922c-0.50914,0.14866 -1.16221,0.30949 -1.76628,0.55142z" fill="#000000" fill-rule="nonzero" stroke="none" stroke-width="0.5" stroke-linecap="butt"/><path d="M501.30263,106.61839c3.7065,-1.08225 8.01327,-1.44312 10.43368,2.195c1.81609,2.64512 1.94457,9.09645 0.4739,11.87824c-0.84575,1.59975 -2.51861,2.6305 -4.09884,3.42013c-1.51677,0.54982 -3.27992,1.12438 -4.93214,0.75942c-1.67549,-0.37009 -2.32597,-1.68135 -3.19337,-2.9429c-1.87665,-2.72941 -1.98765,-5.49123 -1.98765,-8.7675c-0.0138,-1.87977 0.97145,-3.44903 1.21103,-5.25402l0.12594,0.17402c0,0 0.51291,-0.38477 0.19578,-0.90771c0.60406,-0.24193 1.26253,-0.40603 1.77168,-0.5547z" data-paper-data="{&quot;noHover&quot;:false,&quot;origItem&quot;:[&quot;Path&quot;,{&quot;applyMatrix&quot;:true,&quot;segments&quot;:[[[251.46859,64.51417],[0.85897,-0.34402],[0.45095,0.74362]],[251.19301,65.80268],[[251.01386,65.55529],[0,0],[-0.34068,2.56668]],[[249.30729,73.00268],[-0.01962,-2.67303],[0,4.65885]],[[252.11854,85.41797],[-2.66859,-3.88121],[1.23344,1.79392]],[[256.63926,89.59215],[-2.38254,-0.52627],[2.34946,0.51896]],[[263.62645,88.51263],[-2.15684,0.78184],[2.24707,-1.12285]],[[269.42973,83.66608],[-1.20266,2.27484],[2.09129,-3.9557]],[[268.76096,66.8431],[2.58247,3.76136],[-3.44181,-5.1734]],[[253.98022,63.73004],[5.27063,-1.53896],[-0.724,0.2114]]],&quot;closed&quot;:true}]}" fill="#ffffff" fill-rule="nonzero" stroke="none" stroke-width="0.5" stroke-linecap="butt"/><path d="M525.29496,101.42265c4.74939,-1.46751 11.20133,1.20691 13.90583,4.8236c4.20238,6.85878 -3.54061,17.47312 -11.03021,17.47312c-7.74407,0 -9.7043,-9.70098 -9.74484,-15.77257c0,-3.43591 3.40557,-6.30727 6.86921,-6.52414zM521.03135,105.0575c-0.4921,0.32931 -1.08175,0.60999 -1.21795,1.24255c-0.11555,0.53665 0.01881,1.0978 0.01881,1.64675c-0.04454,5.21745 1.57979,14.3661 8.33837,14.3661c5.38783,0 8.4981,-4.7811 10.1924,-9.29102c0.84703,-2.25463 0.96632,-3.89636 -0.32646,-5.98655c-2.37843,-3.21769 -5.93854,-4.41098 -9.86594,-4.41302c-0.13307,-0.00007 -0.26797,0.00275 -0.40421,0.00859c-0.01168,0.05556 -0.03062,0.11438 -0.05826,0.17655c-0.28561,0.64262 -0.92824,0.35701 -0.92824,0.35701l-0.68009,-0.31056c-1.53594,0.35362 -3.00089,1.13805 -3.74823,2.52839c0,0 -0.3489,0.61058 -0.95948,0.26167c-0.2929,-0.16737 -0.36501,-0.39496 -0.36075,-0.58648z" fill="#000000" fill-rule="nonzero" stroke="none" stroke-width="0.5" stroke-linecap="butt"/><path d="M521.36535,105.62114c0.61058,0.3489 0.96145,-0.2638 0.96145,-0.2638c0.74734,-1.39034 2.22569,-2.1831 3.76163,-2.53671l0.68197,0.30997c0,0 0.64609,0.28482 0.9317,-0.3578c0.02763,-0.06217 0.04688,-0.12106 0.05856,-0.1766c0.13624,-0.00584 0.27254,-0.00887 0.40561,-0.0088c3.9274,0.00204 7.52159,1.21153 9.90002,4.42923c1.29279,2.09021 1.17881,3.75279 0.33179,6.00742c-1.69431,4.50992 -4.84398,9.32375 -10.23181,9.32375c-6.75858,0 -8.41038,-9.19858 -8.36585,-14.41604c0,-0.54895 -0.13213,-1.1141 -0.01659,-1.65075c0.1362,-0.63257 0.7291,-0.91753 1.2212,-1.24684c-0.00426,0.19152 0.06741,0.41961 0.36031,0.58698z" data-paper-data="{&quot;noHover&quot;:false,&quot;origItem&quot;:[&quot;Path&quot;,{&quot;applyMatrix&quot;:true,&quot;segments&quot;:[[[282.01246,61.46553],[-0.00606,0.27234],[-0.69977,0.46828]],[[280.28054,63.23244],[0.19368,-0.89951],[-0.16431,0.76312]],[[280.30729,65.57411],[0,-0.78061],[-0.06333,7.41921]],[[292.16444,86.00268],[-9.61069,0],[7.66148,0]],[[306.65802,72.79087],[-2.4093,6.4131],[1.20447,-3.20608]],[[306.19378,64.278],[1.83834,2.97227],[-3.38213,-4.57555]],[[292.16444,58.00268],[5.58476,0.0029],[-0.18923,-0.0001]],[[291.58966,58.0149],[0.19373,-0.00831],[-0.01661,0.079]],[[291.50682,58.26596],[0.03929,-0.08841],[-0.40614,0.91381]],[290.18687,58.77364],[[289.21979,58.33203],[0,0],[-2.1841,0.50284]],[[283.88982,61.92739],[1.06271,-1.97706],[0,0]],[[282.52544,62.2995],[0.86824,0.49614],[-0.4165,-0.238]]],&quot;closed&quot;:true}]}" fill="#ffffff" fill-rule="nonzero" stroke="none" stroke-width="0.5" stroke-linecap="butt"/><path d="M504.08476,114.27592c0,-0.87387 0.70841,-1.58228 1.58228,-1.58228c0.87387,0 1.58228,0.70841 1.58228,1.58228c0,0.87387 -0.70841,1.58228 -1.58228,1.58228c-0.87387,0 -1.58228,-0.70841 -1.58228,-1.58228z" fill="#000000" fill-rule="nonzero" stroke="none" stroke-width="0.5" stroke-linecap="butt"/><path d="M527.39199,111.36251c0,-0.87387 0.70841,-1.58228 1.58228,-1.58228c0.87387,0 1.58228,0.70841 1.58228,1.58228c0,0.87387 -0.70841,1.58228 -1.58228,1.58228c-0.87387,0 -1.58228,-0.70841 -1.58228,-1.58228z" fill="#000000" fill-rule="nonzero" stroke="none" stroke-width="0.5" stroke-linecap="butt"/><path d="M511.69477,102.54695l-29.93775,-19.99199" fill="none" fill-rule="nonzero" stroke="#000000" stroke-width="3.5" stroke-linecap="round"/><path d="M519.73176,101.04002l34.55902,-25.41695" fill="none" fill-rule="nonzero" stroke="#000000" stroke-width="3.5" stroke-linecap="round"/><path d="M272.51355,387.30393l-16.26835,-30.14525l77.44529,0.35909l27.6817,29.89227z" data-paper-data="{&quot;index&quot;:null}" fill="#cedce9" fill-rule="nonzero" stroke="#000000" stroke-width="1" stroke-linecap="round"/><path d="M351.65301,385.79268c-2.11239,-0.20032 -4.15545,-0.52873 -6.16544,-0.90308c0.00078,0.05256 -0.00544,0.10561 -0.01911,0.15907c-0.33371,1.30251 -4.4675,0.24339 -4.4675,0.24339c-18.25754,-4.67777 -36.5151,-9.35555 -54.77261,-14.03332c-4.69818,-1.20373 -16.23712,-4.78983 -19.90187,-4.89859c-2.11097,-0.06265 -3.5285,-0.47318 -6.10117,-1.06965c-0.29041,-0.06733 -0.81908,-0.18765 -1.28525,-0.29777c2.33057,1.18994 -0.18203,6.0246 -0.5502,7.46155c-1.55736,6.07838 -3.11468,12.15675 -4.67203,18.23509c-0.2781,1.08542 -0.55621,2.17087 -0.83428,3.25627c-0.11125,0.43419 -1.15523,1.48504 -0.33371,1.30251c3.12562,-0.69445 8.3306,1.44307 14.6351,3.05568c12.42755,3.17878 25.83852,6.16864 37.86256,9.99994c21.92648,7.11442 46.46274,11.0097 68.1703,18.23888c18.24458,6.23748 40.50025,12.08049 59.68443,16.99569c4.8228,1.23564 9.64549,2.47128 14.46825,3.70691c0.72561,0.18592 1.87282,0.44702 3.0611,0.7155c-1.01542,-0.9722 0.64098,-2.26969 0.87354,-3.17744c0.86885,-3.39112 5.97525,-8.31649 2.32693,-12.49798c-2.96599,-4.7024 -4.52919,-8.89877 -9.96822,-14.22414c-4.01309,-3.92927 -10.72781,-8.22119 -13.93247,-11.92402c-1.47659,-2.09581 -3.46325,-1.37732 -9.52105,-3.3269c-13.40434,-4.31386 -27.10494,-7.63857 -41.17097,-11.24243c-5.12717,-1.31364 -11.65049,-2.63543 -16.53515,-4.23648c-1.03112,-0.33795 -2.93632,-1.10039 -4.3598,-1.68973c2.53385,1.35024 -3.79564,0.40667 -6.49139,0.15103zM286.89558,368.65368c13.79849,3.53531 27.597,7.07065 41.39547,10.60594c0.41415,0.03928 0.82814,0.07854 1.24224,0.11782c5.45461,0.5173 10.13205,1.94898 14.71857,2.73005c6.25051,1.06445 10.34683,0.30546 16.76618,1.51966c3.68763,0.69751 13.54552,4.01797 18.68858,5.33567c13.94569,3.57303 27.94044,6.89088 41.17095,11.24242c7.43239,2.44454 14.07664,3.09358 16.84027,7.01626c0.22776,1.27949 4.21699,3.06477 6.17361,4.50543c2.99015,2.20168 5.26674,4.91105 7.46551,7.06384c5.45068,5.33681 7.28952,9.86066 10.32944,14.68032c2.56082,4.91543 -1.04836,9.27245 -2.11369,13.43045c-0.58898,2.29881 0.14575,4.21361 -5.63549,4.80216c-2.01605,0.20523 -18.86403,-4.83316 -21.70236,-5.56037c-19.78761,-5.06979 -42.8657,-11.1585 -61.66969,-17.58724c-20.58587,-7.34355 -46.35298,-11.1566 -67.79353,-18.11336c-17.24188,-5.74571 -45.19886,-9.37048 -58.48934,-17.31284c-1.31582,-0.78636 0.99018,-3.86469 1.16802,-4.55878c1.55736,-6.07838 3.11468,-12.15671 4.67202,-18.23508c0.52068,-2.03221 -1.07928,-7.6127 3.62146,-8.02096c8.20316,-0.71248 22.13072,3.51486 33.15192,6.33861z" data-paper-data="{&quot;index&quot;:null}" fill="#000000" fill-rule="nonzero" stroke="none" stroke-width="1" stroke-linecap="butt"/><path d="M345.44598,384.81227c2.00991,0.37433 4.07749,0.70717 6.18999,0.90753c2.69575,0.25565 9.04994,1.20471 6.51604,-0.14554c1.42349,0.58933 3.34512,1.35594 4.37614,1.69389c4.88466,1.60104 11.46482,2.94088 16.5919,4.25449c14.06595,3.60384 27.85055,6.96952 41.25484,11.28338c6.05778,1.94957 8.05602,1.23932 9.53259,3.33512c3.20473,3.70283 9.94541,8.02209 13.95854,11.95138c5.43902,5.32539 7.00438,9.54863 9.97037,14.25106c3.6484,4.1815 -1.48321,9.12443 -2.35205,12.51554c-0.23258,0.90775 -1.89788,2.20786 -0.88241,3.18008c-1.1882,-0.26845 -2.33718,-0.52915 -3.06286,-0.71506c-4.82277,-1.23563 -9.65501,-2.46934 -14.47774,-3.70499c-19.18432,-4.91522 -41.53628,-10.75873 -59.78086,-16.99623c-21.70757,-7.22915 -46.4596,-11.19322 -68.38612,-18.30764c-12.02405,-3.83133 -25.46878,-6.84566 -37.89636,-10.02446c-6.30445,-1.61259 -11.51363,-3.75418 -14.63925,-3.05972c-0.82152,0.18252 0.21986,-0.87109 0.3311,-1.30526c0.2781,-1.08542 0.55047,-2.17794 0.82856,-3.26333c1.55736,-6.07838 3.11534,-12.19508 4.67268,-18.27348c0.36817,-1.43694 2.89651,-6.28087 0.56591,-7.47081c0.46622,0.11015 0.99544,0.23026 1.28582,0.29757c2.57256,0.59647 3.99393,1.00565 6.10483,1.06831c3.66474,0.10877 15.21586,3.69154 19.91402,4.89528c18.25763,4.6778 36.6191,9.35461 54.87662,14.03238c0,0 4.15463,1.06209 4.48834,-0.2404c0.0137,-0.05348 0.02039,-0.10642 0.01962,-0.15899z" data-paper-data="{&quot;noHover&quot;:false,&quot;origItem&quot;:[&quot;Path&quot;,{&quot;applyMatrix&quot;:true,&quot;segments&quot;:[[[579.60736,595.76373],[0.95609,-0.20262],[0.00646,0.07548]],[[579.61718,596],[0,-0.08208],[0,2]],[[577.61718,598],[0,0],[-8.83333,0]],[[551.11718,598],[8.83333,0],[-2.27308,0]],[[541.51161,598.28885],[1.67648,-1.19621],[-0.96568,0.68904]],[[538.61718,599],[1.23739,-0.09027],[-0.13966,0.01019]],[[537.99901,599.04541],[0.22447,-0.0134],[1.19653,0.85421]],[[538.61718,610],[0,-2.20646],[0,9.33333]],[[538.61718,638],[0,-9.33333],[0,1.66667]],[[538.61718,643],[0,-1.66667],[0,0.66667]],[[538.61718,645],[-0.35177,0.56631],[1.33831,-2.15456]],[[545.61718,644],[-3.04994,0.00386],[6.01206,-0.00761]],[[563.97058,644.43107],[-5.90478,-1.08158],[10.78253,2.15651]],[[597.04254,645.54479],[-10.6965,-2.40266],[9.00888,2.25222]],[[626.11718,648],[-9.28168,0],[2.33333,0]],[[633.11718,648],[-2.33333,0],[0.35109,0]],[[634.59021,647.90091],[-0.5707,0.05184],[-0.57412,-1.02596]],[[634.61718,643],[0,1.39387],[0,-5.20707]],[[634.21982,624.13246],[2.14282,4.67827],[-1.8936,-5.6808]],[[628.03948,607.31672],[3.08887,5.66543],[-2.2791,-4.1802]],[[620.32688,595.27881],[1.8857,4.15235],[-0.91417,-2.47477]],[[615.61718,594],[2.9771,0.57275],[-6.58756,-1.26734]],[[595.61718,593],[6.8054,0],[-2.48058,0]],[[587.61718,593],[2.40395,0.50364],[-0.50743,-0.10631]],[[585.44122,592.1748],[0.71481,0.32365],[1.30749,1.01011]],[[582.51161,594.78885],[1.25365,-0.62682],[-0.98239,0.4912]]],&quot;closed&quot;:true}],&quot;index&quot;:null}" fill="#c9c9c9" fill-rule="nonzero" stroke="none" stroke-width="1" stroke-linecap="butt"/><path d="M402.17338,404.43508c0.03869,-0.15103 0.04624,-0.41863 0.05517,-0.68113c-0.23876,0.04629 -0.5784,0.05088 -1.00558,0.01934c-1.32535,0.07873 -3.18344,-0.39733 -3.18344,-0.39733c-15.74561,-4.0342 -25.72592,-2.90656 -32.2241,-0.69537c-0.76056,0.2449 -0.83011,0.75693 -0.94831,1.21831c-0.03363,0.13128 -0.12692,0.32968 -0.22574,0.53433c0.05942,-0.05882 0.17798,-0.08927 0.39896,-0.0717c0.97646,0.07764 8.85081,3.15107 9.99434,2.83645c0.34364,-0.09456 -1.41805,-0.58032 -1.27093,-0.74855c1.80927,-2.06798 15.46292,-2.39896 21.97483,-1.78141c1.68892,0.16015 3.54939,0.4997 5.38124,0.90623c-0.62099,-0.53054 0.94078,-0.69892 1.05355,-1.13911zM364.59189,404.53539c-0.21236,0.43904 -0.40901,0.86036 -0.05856,0.66596c0.23953,-0.13281 0.02669,-0.45997 0.05856,-0.66596zM358.71927,399.62101c6.80718,-1.99568 15.48456,-3.18231 28.05222,-1.30446c1.29537,-0.27169 3.66801,0.33622 3.66801,0.33622l2.06686,0.52954c4.68009,1.19909 7.28777,1.31973 12.3148,2.6077c6.98135,1.7887 7.47897,6.57739 3.5001,6.92301c-2.51083,0.21807 -6.27397,-0.46346 -9.48233,-0.76772c-9.49675,-0.90066 -13.94255,2.36411 -24.47168,1.85767c-11.15952,-0.5368 -21.61802,-8.25974 -15.64802,-10.18194z" data-paper-data="{&quot;index&quot;:null}" fill="#000000" fill-rule="nonzero" stroke="none" stroke-width="1" stroke-linecap="butt"/><path d="M402.39328,403.74964c-0.00879,0.26252 -0.00774,0.53621 -0.04643,0.68723c-0.11278,0.44018 -1.65967,0.62094 -1.03866,1.15149c-1.83185,-0.40652 -3.70145,-0.75404 -5.39044,-0.91423c-6.51196,-0.61759 -20.22237,-0.3206 -22.03161,1.7474c-0.14726,0.16821 1.38886,0.71807 1.04518,0.81262c-1.1435,0.31461 -9.08391,-2.79398 -10.06039,-2.87163c-0.22108,-0.01757 -0.3387,0.01348 -0.39808,0.07234c0.09884,-0.20466 0.18523,-0.40803 0.21885,-0.53929c0.1182,-0.46136 0.17205,-0.98705 0.9326,-1.23196c6.49817,-2.2112 16.82639,-3.33121 32.57198,0.70298c0,0 1.86581,0.48101 3.19116,0.40229c0.4272,0.03153 0.76699,0.02701 1.00565,-0.0193z" data-paper-data="{&quot;noHover&quot;:false,&quot;origItem&quot;:[&quot;Path&quot;,{&quot;applyMatrix&quot;:true,&quot;segments&quot;:[[[607.563,601.99816],[0.02649,0.38155],[-0.10299,0.15484]],[[607.10872,602.39727],[0.1976,-0.11227],[-0.59254,0.60273]],[[605.61718,603],[0,0],[-7.618,0]],[[590.90604,613.89443],[2.69308,-5.58508],[-0.31682,0.63364]],[[590.61718,616],[0,-0.70843],[0,0.20156]],[[590.57685,616.85325],[0.02106,-0.33136],[0.02013,-0.10671]],[[590.74964,616.60263],[-0.10238,0.05628],[0.45234,-0.24865]],[[595.61718,617],[-0.48256,0.87548],[0.14503,-0.26312]],[[594.95308,616.3906],[-0.04725,0.29671],[0.58086,-3.64773]],[[604.72276,605.71115],[-3.02833,1.51416],[0.78545,-0.39273]],[[607.27135,605.03032],[-0.87898,0.0905],[-0.34365,-0.53523]],[[607.61718,603],[0,0.6759],[0,-0.23192]]],&quot;closed&quot;:true}],&quot;index&quot;:null}" fill="#ffffff" fill-rule="nonzero" stroke="none" stroke-width="1" stroke-linecap="butt"/><path d="M-27.63033,391.47766l27.75304,-29.82605l77.44589,-0.17412l-16.3403,30.1063z" data-paper-data="{&quot;index&quot;:null}" fill="#cedce9" fill-rule="nonzero" stroke="#000000" stroke-width="1" stroke-linecap="round"/><path d="M26.81255,198.15426l306.52227,-0.25044l47.06024,186.23457l-151.63105,0.43539l-34.70275,-130.66089l-17.86113,-6.63149l-16.53793,4.28244l-11.81467,8.77146l-68.97919,123.78568l-128.91214,3.20224z" data-paper-data="{&quot;index&quot;:null}" fill="#af9c6f" fill-rule="nonzero" stroke="#000000" stroke-width="1" stroke-linecap="round"/><path d="M-34.995,389.90326c-2.67432,-0.4246 -9.03916,-1.0891 -6.24869,-1.76489c-1.52548,0.21577 -3.56061,0.47905 -4.64342,0.54922c-5.1296,0.33248 -11.77647,-0.01406 -17.06923,-0.02039c-14.52036,-0.01734 -28.61722,-0.21392 -42.67382,0.62132c-6.35258,0.37747 -8.09733,-0.8137 -10.04991,0.84773c-4.02673,2.78678 -11.59958,5.26881 -16.46564,8.07332c-6.59512,3.80098 -9.1553,7.47496 -13.20014,11.28927c-4.57575,3.13969 -0.85876,9.18274 -0.86293,12.68341c-0.00112,0.93708 1.27941,2.60661 0.05365,3.29491c1.21769,0.03632 2.39377,0.06949 3.14284,0.07038c4.97854,0.00594 9.95701,0.01189 14.93557,0.01782c19.80387,0.02365 42.81347,-0.08532 62.03707,-1.57651c22.82449,-1.58803 47.55704,0.75783 70.56491,-0.66449c12.59958,-0.71209 26.33245,-0.26347 39.16008,-0.24301c6.50748,0.01037 12.08102,-0.76177 14.93475,0.69013c0.75006,0.38163 0.00106,-0.89639 0.0016,-1.34459c0.00134,-1.12047 0.00269,-2.24097 0.00401,-3.36145c0.0075,-6.27472 0.01498,-12.5494 0.02248,-18.82408c0.00179,-1.48336 -1.22594,-6.79185 1.32774,-7.36306c-0.47891,-0.00957 -1.02092,-0.0249 -1.3189,-0.0321c-2.64012,-0.06387 -4.11525,-0.01977 -6.17517,-0.48547c-3.57611,-0.80846 -15.64478,-0.21288 -20.49472,-0.21867c-18.84724,-0.02251 -37.69445,-0.04502 -56.54174,-0.06752c0,0 -4.26729,-0.00509 -4.26569,-1.34966c0.00006,-0.05521 0.00727,-0.10809 0.02115,-0.15881c-2.03983,-0.13867 -4.10024,-0.33007 -6.19587,-0.6628zM31.99038,389.45294c11.37721,0.01359 25.91893,-0.60738 33.6853,2.12805c4.4505,1.56753 1.50952,6.57276 1.50703,8.67062c-0.0075,6.27472 -0.01498,12.5494 -0.02248,18.82408c-0.00085,0.71651 1.4647,4.27261 -0.00563,4.70603c-14.85105,4.37752 -42.82884,0.91671 -60.95882,2.18165c-22.49798,1.3908 -48.40197,-1.34161 -70.16869,0.63689c-19.81304,1.53689 -43.68041,1.67875 -64.10714,1.65435c-2.93,-0.0035 -20.5022,0.67469 -22.40333,-0.02675c-5.45186,-2.01151 -4.2629,-3.68264 -4.26006,-6.0557c0.00512,-4.29231 -2.4036,-9.41166 1.30199,-13.53328c4.14569,-3.90939 7.05445,-7.83186 13.66372,-11.64096c2.66611,-1.53653 5.54635,-3.59266 8.99107,-4.9792c2.25405,-0.90728 6.56244,-1.64146 7.10203,-2.82374c3.65447,-3.10965 10.25068,-2.08144 18.05785,-2.59549c13.89769,-0.91506 28.27772,-0.63852 42.67382,-0.62132c5.30919,0.00634 15.68367,-0.75117 19.42874,-0.50714c6.51934,0.42481 10.29703,2.18125 16.61551,2.709c4.63641,0.38724 9.52307,0.16712 14.93441,1.02627c0.41082,0.06523 0.82158,0.13044 1.2324,0.19566c14.24415,0.017 28.4883,0.03402 42.73248,0.05104z" data-paper-data="{&quot;index&quot;:null}" fill="#000000" fill-rule="nonzero" stroke="none" stroke-width="1" stroke-linecap="butt"/><path d="M-28.73975,390.50156c-0.01388,0.05074 -0.02059,0.10366 -0.02066,0.15885c-0.0016,1.34459 4.28664,1.35199 4.28664,1.35199c18.84724,0.02251 37.79489,0.07187 56.64223,0.09437c4.84992,0.00579 16.92952,-0.58352 20.50563,0.22493c2.05984,0.46569 3.53834,0.42385 6.17837,0.48768c0.29804,0.00722 0.84043,0.02286 1.31941,0.03247c-2.55369,0.57124 -1.31303,5.89257 -1.31481,7.37594c-0.0075,6.27472 -0.02393,12.58669 -0.03141,18.86139c-0.00134,1.12047 -0.00999,2.24642 -0.01133,3.36687c-0.00054,0.44821 0.74525,1.72818 -0.00482,1.34658c-2.85374,-1.45188 -8.43234,-0.67686 -14.9398,-0.68724c-12.82763,-0.02042 -26.59937,-0.45376 -39.19895,0.25833c-23.00791,1.42231 -47.96655,-0.91079 -70.79105,0.67725c-19.22362,1.49118 -42.32662,1.57665 -62.13059,1.553c-4.97854,-0.00594 -9.96574,-0.01612 -14.94429,-0.02206c-0.74912,-0.0009 -1.92683,-0.03496 -3.14443,-0.07124c1.2258,-0.68828 -0.0627,-2.36259 -0.06159,-3.29966c0.00418,-3.50066 -3.73285,-9.56702 0.84295,-12.7067c4.04484,-3.81429 6.61382,-7.51385 13.20896,-11.31477c4.86612,-2.80451 12.47097,-5.30655 16.49774,-8.0933c1.95255,-1.66143 3.71055,-0.47534 10.06312,-0.85281c14.05657,-0.83523 28.24499,-0.65739 42.76527,-0.64006c5.29263,0.00632 11.99908,0.34956 17.12868,0.01709c1.08271,-0.0702 3.13482,-0.33341 4.66029,-0.54919c-2.79057,0.67576 3.5996,1.34113 6.27392,1.76571c2.09573,0.33273 4.18098,0.52594 6.22077,0.6646z" data-paper-data="{&quot;noHover&quot;:false,&quot;origItem&quot;:[&quot;Path&quot;,{&quot;applyMatrix&quot;:true,&quot;segments&quot;:[[[579.60736,595.76373],[0.95609,-0.20262],[0.00646,0.07548]],[[579.61718,596],[0,-0.08208],[0,2]],[[577.61718,598],[0,0],[-8.83333,0]],[[551.11718,598],[8.83333,0],[-2.27308,0]],[[541.51161,598.28885],[1.67648,-1.19621],[-0.96568,0.68904]],[[538.61718,599],[1.23739,-0.09027],[-0.13966,0.01019]],[[537.99901,599.04541],[0.22447,-0.0134],[1.19653,0.85421]],[[538.61718,610],[0,-2.20646],[0,9.33333]],[[538.61718,638],[0,-9.33333],[0,1.66667]],[[538.61718,643],[0,-1.66667],[0,0.66667]],[[538.61718,645],[-0.35177,0.56631],[1.33831,-2.15456]],[[545.61718,644],[-3.04994,0.00386],[6.01206,-0.00761]],[[563.97058,644.43107],[-5.90478,-1.08158],[10.78253,2.15651]],[[597.04254,645.54479],[-10.6965,-2.40266],[9.00888,2.25222]],[[626.11718,648],[-9.28168,0],[2.33333,0]],[[633.11718,648],[-2.33333,0],[0.35109,0]],[[634.59021,647.90091],[-0.5707,0.05184],[-0.57412,-1.02596]],[[634.61718,643],[0,1.39387],[0,-5.20707]],[[634.21982,624.13246],[2.14282,4.67827],[-1.8936,-5.6808]],[[628.03948,607.31672],[3.08887,5.66543],[-2.2791,-4.1802]],[[620.32688,595.27881],[1.8857,4.15235],[-0.91417,-2.47477]],[[615.61718,594],[2.9771,0.57275],[-6.58756,-1.26734]],[[595.61718,593],[6.8054,0],[-2.48058,0]],[[587.61718,593],[2.40395,0.50364],[-0.50743,-0.10631]],[[585.44122,592.1748],[0.71481,0.32365],[1.30749,1.01011]],[[582.51161,594.78885],[1.25365,-0.62682],[-0.98239,0.4912]]],&quot;closed&quot;:true}],&quot;index&quot;:null}" fill="#c9c9c9" fill-rule="nonzero" stroke="none" stroke-width="1" stroke-linecap="butt"/><path d="M-88.5681,395.35958c-0.00055,0.45442 1.46992,1.00691 0.73626,1.36583c1.87535,0.06308 3.76172,0.19817 5.43724,0.4642c6.46019,1.0257 19.60005,4.75074 20.83652,7.20456c0.10054,0.19959 -1.72667,0.23075 -1.41745,0.408c1.02891,0.58981 9.42095,-0.42306 10.38591,-0.25475c0.21838,0.03809 0.32563,0.09717 0.3685,0.16892c-0.04468,-0.22281 -0.08556,-0.43822 -0.08541,-0.57374c0.00057,-0.47627 0.06089,-0.98947 -0.61459,-1.41627c-5.74159,-3.76165 -15.12549,-7.34229 -31.37968,-7.3617c0,0 -1.91811,-0.00229 -3.18196,-0.40902c-0.42155,-0.07598 -0.74929,-0.1651 -0.969,-0.26946c-0.05681,0.25643 -0.1162,0.51747 -0.1164,0.67338zM-52.30807,405.48718c0.29089,0.27564 0.20553,-0.18139 0.10935,-0.65952c-0.0205,0.20742 -0.30818,0.47118 -0.10935,0.65952zM-45.28612,401.53281c5.30214,3.35013 -6.75175,8.22128 -17.69263,5.9585c-10.32283,-2.13497 -13.81416,-6.40521 -23.23548,-7.90102c-3.18285,-0.50532 -6.99711,-0.78368 -9.37423,-1.62094c-3.76704,-1.32682 -2.09104,-5.84018 5.11579,-5.83158c5.18941,0.0062 7.7448,0.53959 12.57606,0.54535l2.13361,0.00254c0,0 2.44927,0.00293 3.63601,0.58903c12.63895,1.31522 20.74636,4.62811 26.84087,8.25811z" data-paper-data="{&quot;index&quot;:null}" fill="#000000" fill-rule="nonzero" stroke="none" stroke-width="1" stroke-linecap="butt"/><path d="M-88.61008,394.64092c0.21954,0.10435 0.54751,0.19345 0.96908,0.26946c1.26384,0.40672 3.19066,0.40615 3.19066,0.40615c16.25416,0.01941 25.97688,3.67941 31.71841,7.44106c0.67551,0.42681 0.59652,0.94935 0.59596,1.4256c-0.00015,0.13551 0.03282,0.35399 0.07749,0.57682c-0.04281,-0.07181 -0.14902,-0.13119 -0.36748,-0.1693c-0.96499,-0.1683 -9.42972,0.86215 -10.45865,0.27236c-0.30924,-0.17726 1.31546,-0.32673 1.21481,-0.52634c-1.23642,-2.45381 -14.43972,-6.16013 -20.89999,-7.18584c-1.67557,-0.26603 -3.57278,-0.39566 -5.44814,-0.45875c0.73366,-0.35897 -0.71928,-0.91971 -0.71874,-1.37412c0.00018,-0.15591 0.06946,-0.42066 0.12641,-0.6771z" data-paper-data="{&quot;noHover&quot;:false,&quot;origItem&quot;:[&quot;Path&quot;,{&quot;applyMatrix&quot;:true,&quot;segments&quot;:[[[607.563,601.99816],[0.02649,0.38155],[-0.10299,0.15484]],[[607.10872,602.39727],[0.1976,-0.11227],[-0.59254,0.60273]],[[605.61718,603],[0,0],[-7.618,0]],[[590.90604,613.89443],[2.69308,-5.58508],[-0.31682,0.63364]],[[590.61718,616],[0,-0.70843],[0,0.20156]],[[590.57685,616.85325],[0.02106,-0.33136],[0.02013,-0.10671]],[[590.74964,616.60263],[-0.10238,0.05628],[0.45234,-0.24865]],[[595.61718,617],[-0.48256,0.87548],[0.14503,-0.26312]],[[594.95308,616.3906],[-0.04725,0.29671],[0.58086,-3.64773]],[[604.72276,605.71115],[-3.02833,1.51416],[0.78545,-0.39273]],[[607.27135,605.03032],[-0.87898,0.0905],[-0.34365,-0.53523]],[[607.61718,603],[0,0.6759],[0,-0.23192]]],&quot;closed&quot;:true}],&quot;index&quot;:null}" fill="#ffffff" fill-rule="nonzero" stroke="none" stroke-width="1" stroke-linecap="butt"/><path d="M22.24171,213.27935v0.53862l-3.59081,-0.17954z" data-paper-data="{&quot;index&quot;:null}" fill="#909090" fill-rule="evenodd" stroke="#000000" stroke-width="0.5" stroke-linecap="butt"/><path d="M75.38579,212.56119v1.43633l3.94989,0.17954h-4.12944z" data-paper-data="{&quot;index&quot;:null}" fill="#acacac" fill-rule="evenodd" stroke="#000000" stroke-width="0.5" stroke-linecap="butt"/><path d="M33.49993,203.81787c1.32746,0 2.6532,0 3.98065,0c-1.35342,0.17169 -2.738,0.22949 -4.15373,0.17307c-0.05365,-0.55608 0.00346,-1.0753 0.17307,-1.55765c0,0.46158 0,0.92299 0,1.38457z" data-paper-data="{&quot;index&quot;:null}" fill="#6b6b6b" fill-rule="evenodd" stroke="none" stroke-width="1" stroke-linecap="butt"/><path d="M27.61548,203.81787c1.6736,0 3.34548,0 5.01909,0c-1.69957,0.17203 -3.43029,0.22967 -5.19216,0.17307c-0.04673,-0.27674 0.01212,-0.50745 0.17307,-0.69229c0,0.17307 0,0.34615 0,0.51921z" data-paper-data="{&quot;index&quot;:null}" fill="#9e9e9e" fill-rule="evenodd" stroke="none" stroke-width="1" stroke-linecap="butt"/><path d="M78.49864,203.99093c1.44688,0.00034 2.83146,0.11579 4.15373,0.34615c-2.75531,-0.1703 -5.52446,-0.22793 -8.30746,-0.17307c1.35516,-0.11527 2.73973,-0.17307 4.15373,-0.17307z" data-paper-data="{&quot;index&quot;:null}" fill="#484848" fill-rule="evenodd" stroke="none" stroke-width="1" stroke-linecap="butt"/><path d="M311.28045,205.20244c0,0.17307 0,0.34615 0,0.51921c-2.03342,-0.33697 -4.11029,-0.45241 -6.23059,-0.34615c2.04606,-0.17221 4.12292,-0.22984 6.23059,-0.17307z" data-paper-data="{&quot;index&quot;:null}" fill="#838383" fill-rule="evenodd" stroke="none" stroke-width="1" stroke-linecap="butt"/><path d="M319.31051,154.77666c0,0.23446 0,0.4691 0,0.70356c-0.16727,-0.24959 -0.22584,-0.54262 -0.17589,-0.87945c0.68087,-0.0554 1.32586,0.00316 1.93479,0.17589c-0.58625,0 -1.17266,0 -1.7589,0z" data-paper-data="{&quot;index&quot;:null}" fill="#535353" fill-rule="evenodd" stroke="none" stroke-width="1" stroke-linecap="butt"/><path d="M328.69375,83.32341l45.27527,1.1426l0.28565,3.07072l-0.14283,0.71412l-30.70721,12.997l0.57129,6.64133l3.71343,38.13406l0.85695,7.99815l0.14283,1.7853l-14.85372,1.71389l-0.14283,0.57129l0.28565,3.4992l4.28473,47.41763l-18.13867,0.14283l-0.28565,1.35683l-7.56968,1.85672l-26.99378,0.28565l-20.70951,-1.71389l-3.28496,-1.1426h-23.28034l-10.14052,-4.7132l-202.23906,1.49965l-2.14236,-0.14283l-0.28565,-0.49988l2.57084,-26.77954l-0.57129,-0.14283v-0.28565h0.57129l1.28542,-14.85372l0.71412,-7.56968l-19.56692,-2.85648l-0.28565,-0.28565l0.42847,-2.92789l5.71297,-0.07141l27.27942,0.07141l13.13983,0.49988l-45.84656,-0.28565l-0.28565,2.71365l182.38649,0.99977v-2.57084l-134.96887,-0.85695h47.41763h0.85695l0.78554,-19.99538l-15.63925,-11.71158l-0.07141,-2.14236l1.57106,-0.28565l16.92466,0.28565h2.57084l0.85695,-0.07141l-9.21216,-9.92628l0.07141,-2.85648l53.70189,0.99977l19.42409,0.28565l0.99977,-8.71228l16.13913,0.28565l26.13683,0.42847l10.99746,-16.35337z" data-paper-data="{&quot;index&quot;:null}" fill="#000001" fill-rule="evenodd" stroke="none" stroke-width="0.5" stroke-linecap="butt" opacity="0.913"/><path d="M229.57377,84.46601l-0.14283,-2.99931l2.42801,-0.14283l140.82465,3.4992l0.92836,0.35706l0.35706,2.57084l-0.78554,0.14283z" data-paper-data="{&quot;index&quot;:null}" fill="#e4e4e4" fill-rule="evenodd" stroke="none" stroke-width="0.5" stroke-linecap="butt" opacity="0.999"/><path d="M229.43094,81.4667l0.14283,2.99931l-0.92836,0.85695l-9.99769,14.42524l0.14283,-2.42801z" data-paper-data="{&quot;index&quot;:null}" fill="#cfcfcf" fill-rule="evenodd" stroke="none" stroke-width="0.5" stroke-linecap="butt"/><path d="M328.69375,83.03776l39.70512,0.78554l2.21377,0.21424l4.07049,0.28565l0.07141,1.42824l0.42847,2.42801l-1.07118,0.99977l-6.99838,2.92789l-3.42778,1.1426l-1.71389,0.71412l-2.57084,1.42824l-1.71389,0.42847l-2.57084,0.99977l-3.42778,1.71389l-0.85695,0.14283l-0.42847,0.42847l-6.14144,3.07072l-0.28565,0.64271l0.28565,1.64248l0.28565,1.71389l-0.28565,0.35706l0.07141,0.92836h-0.35706v0.42847l-0.57129,-6.64133l30.70721,-12.997l0.14283,-0.71412l-0.28565,-3.07072l-45.27527,-1.1426z" data-paper-data="{&quot;index&quot;:null}" fill="#69acfe" fill-rule="evenodd" stroke="none" stroke-width="0.5" stroke-linecap="butt" opacity="0.326"/><path d="M229.57377,84.75166l143.53831,3.4992l-29.77884,12.63994l-0.78554,-7.42685l-102.26212,-2.07095l-15.28219,17.28173l-11.85441,-0.21424z" data-paper-data="{&quot;index&quot;:null}" fill="#bab9b4" fill-rule="evenodd" stroke="none" stroke-width="0.5" stroke-linecap="butt"/><path d="M240.71405,91.60721l100.54824,2.21377l0.85695,0.21424l6.14144,61.55722l-105.26144,-0.57129z" data-paper-data="{&quot;index&quot;:null}" fill="#af9c6f" fill-rule="evenodd" stroke="none" stroke-width="0.5" stroke-linecap="butt"/><path d="M240.28558,91.89287l2.42801,63.05687l-6.28426,1.71389l-0.28565,0.78554l1.57106,51.84519l-9.71204,-4.49896l-0.21424,-0.35706l-2.42801,-95.40656z" data-paper-data="{&quot;index&quot;:null}" fill="#88774e" fill-rule="evenodd" stroke="none" stroke-width="0.5" stroke-linecap="butt"/><path d="M176.44316,96.89171l41.70467,0.85695v2.57084l-41.77608,-0.71412l-0.21424,-0.64271z" data-paper-data="{&quot;index&quot;:null}" fill="#e4e4e4" fill-rule="evenodd" stroke="none" stroke-width="0.5" stroke-linecap="butt" opacity="0.998"/><path d="M176.44316,99.89101l41.56184,0.92836l-5.57015,7.78392l-19.99538,-0.42847l-3.5706,0.14283l-3.99908,11.71158l-7.99815,0.14283l2.14236,-12.14005l-3.71343,-0.14283z" data-paper-data="{&quot;index&quot;:null}" fill="#b9b9b4" fill-rule="evenodd" stroke="none" stroke-width="0.5" stroke-linecap="butt"/><path d="M344.26159,102.17621v2.28519l-0.28565,-1.64248z" data-paper-data="{&quot;index&quot;:null}" fill="#8080ff" fill-rule="evenodd" stroke="none" stroke-width="0.5" stroke-linecap="butt" opacity="0.008"/><path d="M155.30517,104.60421l0.28565,0.42847l-53.70189,-0.99977l-0.07141,2.85648l9.21216,9.92628l-0.85695,0.07141v-0.85695l-1.71389,-1.07118l-0.14283,-0.49988h-0.42847l-0.14283,-0.71412l-1.1426,-0.57129l-0.28565,-0.99977l-0.57129,-0.57129l-0.71412,-0.71412l-0.57129,-0.85695l-0.85695,-0.64271l-0.85695,-0.49988l-0.99977,-1.35683l-0.42847,-0.07141l-0.35706,-1.28542l-0.07141,-1.99954h0.42847l0.14283,-0.49988l2.85648,-0.07141l17.85303,0.49988l15.99631,0.14283l0.85695,0.28565z" data-paper-data="{&quot;index&quot;:null}" fill="#68b0fe" fill-rule="evenodd" stroke="none" stroke-width="0.5" stroke-linecap="butt" opacity="0.376"/><path d="M102.17458,104.31857l72.84034,1.42824l-0.14283,2.14236l-72.84034,-1.1426z" data-paper-data="{&quot;index&quot;:null}" fill="#e5e5e5" fill-rule="evenodd" stroke="none" stroke-width="0.5" stroke-linecap="butt" opacity="0.998"/><path d="M102.46023,107.17505l76.26812,1.214l-2.42801,12.35429h-4.42754v-6.28426l-44.98961,-0.71412l-0.28565,8.42663l-8.42663,-0.07141l-1.99954,-0.21424z" data-paper-data="{&quot;index&quot;:null}" fill="#b9b8b5" fill-rule="evenodd" stroke="none" stroke-width="0.5" stroke-linecap="butt" opacity="0.999"/><path d="M189.44016,159.30589v-3.85625l1.49965,-0.85695l0.07141,-3.28496h-1.57106l-0.14283,-42.84726l35.70604,0.57129l2.42801,95.69221l-36.13452,0.14283l-0.14283,-45.56092z" data-paper-data="{&quot;index&quot;:null}" fill="#af9c6f" fill-rule="evenodd" stroke="none" stroke-width="0.5" stroke-linecap="butt"/><path d="M188.72604,109.74589l0.21424,7.85533l0.07141,33.70651h-4.1419l0.07141,-30.13591z" data-paper-data="{&quot;index&quot;:null}" fill="#af9c6f" fill-rule="evenodd" stroke="none" stroke-width="0.5" stroke-linecap="butt"/><path d="M127.16881,114.03061l44.41832,0.71412l-0.28565,36.42017l-45.4181,-0.28565z" data-paper-data="{&quot;index&quot;:null}" fill="#88774e" fill-rule="evenodd" stroke="none" stroke-width="0.5" stroke-linecap="butt"/><path d="M89.46323,117.02993l22.13775,0.35706l1.57106,1.71389l-23.85163,-0.21424z" data-paper-data="{&quot;index&quot;:null}" fill="#e5e5e5" fill-rule="evenodd" stroke="none" stroke-width="0.5" stroke-linecap="butt" opacity="0.994"/><path d="M89.8917,119.31511l1.64248,-0.14283l21.49504,0.35706l0.71412,0.14283l2.14236,2.28519h-10.42617l-0.64271,8.35521z" data-paper-data="{&quot;index&quot;:null}" fill="#bab8b4" fill-rule="evenodd" stroke="none" stroke-width="0.5" stroke-linecap="butt" opacity="0.999"/><path d="M176.72881,120.4577l7.99815,0.21424l-0.14283,0.21424l-0.85695,0.14283l-6.99838,-0.14283z" data-paper-data="{&quot;index&quot;:null}" fill="#b9b9b4" fill-rule="evenodd" stroke="none" stroke-width="0.5" stroke-linecap="butt"/><path d="M171.87278,121.17182l12.71135,0.14283v29.99308l-12.997,-0.14283z" data-paper-data="{&quot;index&quot;:null}" fill="#af9c6f" fill-rule="evenodd" stroke="none" stroke-width="0.5" stroke-linecap="butt"/><path d="M107.6019,116.8871l-16.92466,-0.28565l-1.57106,0.28565l0.07141,2.14236l15.63925,11.71158l-0.78554,19.99538h-0.85695l0.28565,-0.28565l0.28565,-11.28312l0.28565,-6.42709h0.42847v-1.85672l-1.28542,-0.57129v-0.42847l-0.42847,-0.07141l-3.14213,-2.21377l-0.28565,-0.57129l-0.57129,-0.14283l-2.99931,-2.07095l-3.5706,-2.92789l-1.99954,-1.57106l-1.1426,-0.57129v-3.42778l1.64248,-0.28565l13.63972,0.35706z" data-paper-data="{&quot;index&quot;:null}" fill="#66b5fc" fill-rule="evenodd" stroke="none" stroke-width="0.5" stroke-linecap="butt" opacity="0.311"/><path d="M105.74519,122.31442l20.85233,0.35706l-0.99977,28.20778l-21.28081,-0.14283z" data-paper-data="{&quot;index&quot;:null}" fill="#af9c6f" fill-rule="evenodd" stroke="none" stroke-width="0.5" stroke-linecap="butt"/><path d="M346.54679,126.02785l-0.28565,-2.57084z" data-paper-data="{&quot;index&quot;:null}" fill="#6b98ff" fill-rule="evenodd" stroke="none" stroke-width="0.5" stroke-linecap="butt" opacity="0.021"/><path d="M344.54724,106.17528v3.42778l0.49988,0.14283l0.14283,4.42754l0.28565,0.85695l0.78554,8.42663l0.28565,2.57084l0.49988,4.1419l0.07141,3.71343l0.28565,1.71389l0.64271,7.99815l0.35706,2.99931l-0.21424,0.14283l-0.49988,-0.71412l-3.71343,-38.13406v-0.42847h0.35706l-0.07141,-0.92836z" data-paper-data="{&quot;index&quot;:null}" fill="#69b3fb" fill-rule="evenodd" stroke="none" stroke-width="0.5" stroke-linecap="butt" opacity="0.307"/><path d="M347.11807,133.88317l0.28565,1.71389z" data-paper-data="{&quot;index&quot;:null}" fill="#8080ff" fill-rule="evenodd" stroke="none" stroke-width="0.5" stroke-linecap="butt" opacity="0.008"/><path d="M103.74564,139.16767l-0.28565,11.28312z" data-paper-data="{&quot;index&quot;:null}" fill="#00fffe" fill-rule="evenodd" stroke="none" stroke-width="0.5" stroke-linecap="butt" opacity="0.004"/><path d="M348.40349,148.1656l0.57129,1.42824l-0.28565,-0.49988z" data-paper-data="{&quot;index&quot;:null}" fill="#7f8aff" fill-rule="evenodd" stroke="none" stroke-width="0.5" stroke-linecap="butt" opacity="0.008"/><path d="M347.68937,146.02324l0.49988,0.71412l0.21424,-0.14283v1.57106l0.28565,0.92836l0.28565,0.49988v0.71412l0.14283,3.71343h-0.57129z" data-paper-data="{&quot;index&quot;:null}" fill="#80bdec" fill-rule="evenodd" stroke="none" stroke-width="0.5" stroke-linecap="butt" opacity="0.364"/><path d="M54.4713,150.73644h1.28542l134.96887,0.85695v2.57084l-182.38649,-0.99977l0.28565,-2.71365z" data-paper-data="{&quot;index&quot;:null}" fill="#e5e5e5" fill-rule="evenodd" stroke="none" stroke-width="0.5" stroke-linecap="butt" opacity="0.994"/><path d="M11.62404,153.73574l10.21193,-0.14283l168.46114,1.07118l-0.57129,0.42847l-161.67698,-0.78554l-0.28565,1.71389z" data-paper-data="{&quot;index&quot;:null}" fill="#b9b9b4" fill-rule="evenodd" stroke="none" stroke-width="0.5" stroke-linecap="butt"/><path d="M189.44016,159.30589l1.28542,0.28565l0.28565,45.4181l-167.38996,1.1426l4.7132,-51.55953l160.67722,0.99977z" data-paper-data="{&quot;index&quot;:null}" fill="#88774e" fill-rule="evenodd" stroke="none" stroke-width="0.5" stroke-linecap="butt"/><path d="M14.05205,150.16513l-5.71297,0.07141l-0.42847,2.92789l0.28565,0.28565l19.56692,2.85648l-0.71412,7.56968l-0.57129,-0.42847v-0.99977h0.42847v-5.8558l-8.35521,-1.28542l-3.4992,-0.21424l-1.1426,-0.35706l-6.14144,-0.85695l-0.28565,-1.64248l0.42847,-2.28519h5.99862z" data-paper-data="{&quot;index&quot;:null}" fill="#92c4ec" fill-rule="evenodd" stroke="none" stroke-width="0.5" stroke-linecap="butt" opacity="0.287"/><path d="M242.71359,155.30681l32.27827,0.21424l-12.28288,0.57129l-4.1419,0.71412l-20.70951,-0.14283z" data-paper-data="{&quot;index&quot;:null}" fill="#af9c6f" fill-rule="evenodd" stroke="none" stroke-width="0.5" stroke-linecap="butt"/><path d="M282.56153,155.44962l24.85141,0.14283l4.28473,56.48697l-25.70835,0.21424z" data-paper-data="{&quot;index&quot;:null}" fill="#af9c6f" fill-rule="evenodd" stroke="none" stroke-width="0.5" stroke-linecap="butt"/><path d="M279.41941,155.59245h2.85648l3.28496,56.70121l-20.70951,-1.71389l-2.71365,-54.13037z" data-paper-data="{&quot;index&quot;:null}" fill="#af9c6f" fill-rule="evenodd" stroke="none" stroke-width="0.5" stroke-linecap="butt"/><path d="M307.84142,155.73528l7.42685,0.92836l0.28565,0.57129l4.28473,52.84495l-7.85533,1.92813z" data-paper-data="{&quot;index&quot;:null}" fill="#af9c6f" fill-rule="evenodd" stroke="none" stroke-width="0.5" stroke-linecap="butt"/><path d="M311.41202,155.8781l33.27803,0.07141l-10.28334,1.1426l-18.42433,-0.07141l-0.28565,-0.64271z" data-paper-data="{&quot;index&quot;:null}" fill="#af9c6f" fill-rule="evenodd" stroke="none" stroke-width="0.5" stroke-linecap="butt"/><path d="M348.54632,154.02139h0.57129l0.35706,0.28565l-0.64271,2.21377l-5.71297,0.42847l-0.71412,0.35706l-6.28426,0.49988l-1.28542,0.42847l0.14283,3.78484l-0.71412,-0.14283l-0.28565,-0.28565l-0.28565,-3.4992l0.14283,-0.57129l14.85372,-1.71389z" data-paper-data="{&quot;index&quot;:null}" fill="#92c7ee" fill-rule="evenodd" stroke="none" stroke-width="0.5" stroke-linecap="butt" opacity="0.416"/><path d="M261.13791,156.59223h0.71412l2.57084,53.84472l-3.28496,-0.99977l-2.42801,-51.91659l0.28565,-0.42847z" data-paper-data="{&quot;index&quot;:null}" fill="#af9c6f" fill-rule="evenodd" stroke="none" stroke-width="0.5" stroke-linecap="butt"/><path d="M236.57215,157.02069l21.8521,0.14283l2.28519,52.13083l-22.56622,0.28565z" data-paper-data="{&quot;index&quot;:null}" fill="#88774e" fill-rule="evenodd" stroke="none" stroke-width="0.5" stroke-linecap="butt"/><path d="M315.98239,157.44917l12.14005,0.07141l5.21308,0.35706l4.49896,50.84541l-17.85303,0.14283z" data-paper-data="{&quot;index&quot;:null}" fill="#88774e" fill-rule="evenodd" stroke="none" stroke-width="0.5" stroke-linecap="butt"/><path d="M26.47776,163.44778l0.57129,0.42847l-1.28542,14.85372h-0.57129v-3.28496h0.42847z" data-paper-data="{&quot;index&quot;:null}" fill="#aecce2" fill-rule="evenodd" stroke="none" stroke-width="0.5" stroke-linecap="butt" opacity="0.399"/><path d="M327.16406,134.64754l-58.78253,0.51564l-2.06255,-40.6708l55.68871,1.54691z" data-paper-data="{&quot;index&quot;:null}" fill="#0061a3" fill-rule="nonzero" stroke="#000000" stroke-width="0.5" stroke-linecap="round"/><path d="M288.29798,202.3248l-1.54691,-40.21962h18.82072l2.57818,39.44617z" data-paper-data="{&quot;index&quot;:null}" fill="#0061a3" fill-rule="nonzero" stroke="#000000" stroke-width="0.5" stroke-linecap="round"/><path d="M312.01724,201.80916l-2.57818,-38.67272l5.15636,3.09382l2.32036,31.45381z" data-paper-data="{&quot;index&quot;:null}" fill="#0061a3" fill-rule="nonzero" stroke="#000000" stroke-width="0.5" stroke-linecap="round"/><path d="M268.18817,200.00445l-1.28909,-31.45381l13.14872,-4.38291l1.03127,38.15707z" data-paper-data="{&quot;index&quot;:null}" fill="#0061a3" fill-rule="nonzero" stroke="#000000" stroke-width="0.5" stroke-linecap="round"/><path d="M192.13183,204.90298l-0.51564,-41.50872l30.93818,0.51564l0.25781,41.50872z" data-paper-data="{&quot;index&quot;:null}" fill="#0061a3" fill-rule="nonzero" stroke="#000000" stroke-width="0.5" stroke-linecap="round"/><path d="M198.57728,205.1608l-1.54691,-41.2509h20.10981l0.25781,41.76653z" data-paper-data="{&quot;index&quot;:null}" fill="#6e3222" fill-rule="nonzero" stroke="#000000" stroke-width="0.5" stroke-linecap="round"/><path d="M164.80311,144.89581h-33.77417l1.03127,-22.68799l33.51635,-0.25781z" data-paper-data="{&quot;index&quot;:null}" fill="#0061a3" fill-rule="nonzero" stroke="#000000" stroke-width="0.5" stroke-linecap="round"/><path d="M33.03192,206.06316l4.64072,-48.46981l49.24326,0.25781l-0.77345,47.95417z" data-paper-data="{&quot;index&quot;:null}" fill="#982900" fill-rule="nonzero" stroke="#000000" stroke-width="0.5" stroke-linecap="round"/><path d="M47.46973,206.5788l2.836,-39.44617l36.09454,-0.77345l-0.51564,39.70399z" data-paper-data="{&quot;index&quot;:null}" fill="#756a66" fill-rule="nonzero" stroke="#000000" stroke-width="0.5" stroke-linecap="round"/><path d="M96.64854,205.54752l2.57818,-39.96181l81.47052,-0.77345l1.03127,39.96181z" data-paper-data="{&quot;index&quot;:null}" fill="#756a66" fill-rule="nonzero" stroke="#000000" stroke-width="0.5" stroke-linecap="round"/><path d="M183.51025,104.24504c-0.10677,-0.02181 -0.16534,-0.08038 -0.17589,-0.17589c0.17326,-0.72713 0.23182,-1.48943 0.17589,-2.28656c0.23077,0.79414 0.23077,1.61502 0,2.46246z" data-paper-data="{&quot;index&quot;:null}" fill="#9e9e9e" fill-rule="evenodd" stroke="none" stroke-width="1" stroke-linecap="butt"/><path d="M184.03792,111.8083c0,1.11391 0,2.228 0,3.3419c-0.17414,-1.02192 -0.2327,-2.07726 -0.17589,-3.16602c-4.36893,0.05822 -8.70761,-0.00035 -13.01585,-0.17589c4.39725,0 8.79449,0 13.19174,0z" data-paper-data="{&quot;index&quot;:null}" fill="#afafaf" fill-rule="evenodd" stroke="none" stroke-width="1" stroke-linecap="butt"/><path d="M210.51397,115.55765c1.14013,0.43329 1.6104,-0.6515 1.6104,-0.6515c0.24515,-0.59741 0.58286,-1.06401 0.96928,-1.40284c0.09508,-0.04927 0.26032,-0.14767 0.40289,-0.29691c3.30895,-2.04303 9.98812,2.9408 10.26637,6.36286c0.18018,2.21591 -2.18603,3.53226 -3.24206,5.14896c-0.38876,0.59518 -0.80866,1.29834 -1.48623,1.58208c-1.46965,0.19796 -4.12427,1.13741 -5.53002,0.86572c-2.50293,-0.48373 -3.17799,-3.10315 -3.75408,-4.96146c-0.79082,-2.55089 -1.61988,-5.25113 0.20129,-7.03228c0.11793,0.1488 0.29667,0.28437 0.56206,0.38525z" data-paper-data="{&quot;noHover&quot;:false,&quot;origItem&quot;:[&quot;Path&quot;,{&quot;applyMatrix&quot;:true,&quot;segments&quot;:[[[303.75951,159.12161],[0.07472,0.14181],[-1.70229,1.28574]],[[302.66612,165.04188],[-0.29217,-2.27454],[0.21284,1.65697]],[[304.98984,169.71538],[-1.94531,-0.73116],[1.09249,0.41062]],[[309.51343,169.67697],[-1.20703,-0.01856],[0.58234,-0.15551]],[[310.90585,168.52331],[-0.39227,0.45765],[1.06552,-1.24311]],[[314.17667,164.58584],[-0.15326,1.91125],[0.23667,-2.95156]],[[306.84804,157.91071],[2.93246,-1.3193],[-0.13459,0.10897]],[[306.48773,158.11144],[0.08301,-0.02987],[-0.35593,0.2395]],[[305.5311,159.17855],[0.27722,-0.47785],[0,0]],[[304.15911,159.52155],[0.85749,0.5145],[-0.19963,-0.11978]]],&quot;closed&quot;:true}],&quot;index&quot;:null}" fill="#ffffff" fill-rule="nonzero" stroke="#000000" stroke-width="2" stroke-linecap="butt"/><path d="M193.36131,117.25864c1.9459,-0.61762 4.0187,-1.00029 5.97825,-1.51304c0.65569,-0.1716 1.46082,-0.90016 1.98703,-0.49413c1.41826,1.09435 4.91638,6.27645 3.46494,8.20365c-1.45717,1.93491 -4.38674,3.51958 -6.44478,4.96155c-0.91626,0.10641 -1.82856,0.54474 -2.74769,0.46452c-3.07363,-0.26817 -5.09828,-8.62781 -3.87592,-10.59845c0.22726,-0.36635 0.53999,-0.68715 0.85803,-0.99163c0.40354,0.0883 0.78013,-0.03259 0.78013,-0.03259z" data-paper-data="{&quot;noHover&quot;:false,&quot;origItem&quot;:[&quot;Path&quot;,{&quot;applyMatrix&quot;:true,&quot;segments&quot;:[[[287.24196,159.08011],[0.29648,0.12027],[-0.2814,0.20784]],[[286.46732,159.77235],[0.22005,-0.26889],[-1.1837,1.44643]],[[288.05629,168.74018],[-2.30956,-0.58883],[0.69062,0.17608]],[[290.19385,168.69081],[-0.71228,-0.02474],[1.75342,-0.91761]],[[295.68772,165.48695],[-1.35818,1.38911],[1.35284,-1.38365]],[[294.11298,158.49213],[0.94175,1.05695],[-0.34943,-0.39217]],[[292.54579,158.65657],[0.52189,-0.05948],[-1.55968,0.17776]],[[287.83801,159.15045],[1.56269,-0.26425],[0,0]]],&quot;closed&quot;:true}],&quot;index&quot;:null}" fill="#ffffff" fill-rule="nonzero" stroke="#000000" stroke-width="2" stroke-linecap="butt"/><path d="M197.30187,121.82024c-0.11929,-0.71254 0.39686,-1.38182 1.15283,-1.49488c0.75599,-0.11305 1.46554,0.37294 1.58483,1.08548c0.11929,0.71254 -0.39686,1.38182 -1.15284,1.49488c-0.75599,0.11305 -1.46553,-0.37295 -1.58483,-1.08549z" data-paper-data="{&quot;index&quot;:null}" fill="#000000" fill-rule="nonzero" stroke="none" stroke-width="0.5" stroke-linecap="butt"/><path d="M214.66389,119.98685c-0.11929,-0.71254 0.39686,-1.38182 1.15283,-1.49488c0.75599,-0.11305 1.46554,0.37294 1.58483,1.08548c0.11929,0.71254 -0.39686,1.38182 -1.15284,1.49488c-0.75599,0.11305 -1.46553,-0.37295 -1.58483,-1.08549z" data-paper-data="{&quot;index&quot;:null}" fill="#000000" fill-rule="nonzero" stroke="none" stroke-width="0.5" stroke-linecap="butt"/><path d="M228.14239,97.3483c0.69391,0.91541 -0.27777,1.57031 -0.27777,1.57031l-0.67141,0.45037c-5.35963,4.03387 -9.97502,8.85285 -15.36458,12.93276c0,0 -0.9317,0.70466 -1.67843,-0.17302c-0.74674,-0.87768 0.18494,-1.58234 0.18494,-1.58234c5.39589,-4.07733 10.02084,-8.87347 15.36458,-12.93276l0.77708,-0.52587c0,0 0.97167,-0.6549 1.66559,0.26053z" data-paper-data="{&quot;index&quot;:null}" fill="#000000" fill-rule="nonzero" stroke="none" stroke-width="1" stroke-linecap="butt"/><path d="M184.50987,106.08391c-0.1861,-1.11165 0.99331,-1.28802 0.99331,-1.28802l1.07862,0.03008c3.6374,1.57589 13.13993,7.23707 16.92212,6.394c0,0 1.17942,-0.17636 1.36552,0.93528c0.1861,1.11165 -0.99331,1.28801 -0.99331,1.28801c-5.1177,0.57369 -13.56471,-4.52317 -18.29308,-6.57172l0.29233,0.14765c0,0 -1.17942,0.17636 -1.36552,-0.93528z" data-paper-data="{&quot;index&quot;:null}" fill="#000000" fill-rule="nonzero" stroke="none" stroke-width="1" stroke-linecap="butt"/><path d="M189.83468,125.00831c0.78218,0.11697 0.65876,0.85421 0.65876,0.85421l-0.02058,0.12288c-0.10971,0.65532 -0.21942,1.31066 -0.32914,1.96599c-0.93892,5.60826 -0.98539,13.35849 5.65869,15.71974c1.98083,0.70397 4.1361,0.10418 6.13876,-0.05388c5.11214,-1.55679 9.03608,-3.79469 11.99646,-8.1286c1.43095,-2.09486 2.12471,-4.47477 3.9331,-6.32918c0,0 0.53658,-0.54855 1.11893,-0.04228c0.58235,0.50627 0.04577,1.05481 0.04577,1.05481c-1.73342,1.76607 -2.39224,4.11336 -3.76386,6.12241c-3.18967,4.67201 -7.493,7.14764 -13.01763,8.78661c-2.30661,0.19917 -4.68414,0.78566 -6.96608,0.00165c-7.4888,-2.57299 -7.765,-11.05468 -6.70852,-17.36522c0.10971,-0.65532 0.23999,-1.43353 0.34971,-2.08885c0,0 0.12342,-0.73724 0.90561,-0.62028z" data-paper-data="{&quot;index&quot;:null}" fill="#000000" fill-rule="nonzero" stroke="none" stroke-width="0.5" stroke-linecap="butt"/></g></g></svg>