<svg version="1.1" xmlns="http://www.w3.org/2000/svg" xmlns:xlink="http://www.w3.org/1999/xlink" width="918.67601" height="967.16649" viewBox="0,0,918.67601,967.16649"><g transform="translate(100.09206,-22.9147)"><g data-paper-data="{&quot;isPaintingLayer&quot;:true}" stroke-linejoin="miter" stroke-miterlimit="10" stroke-dasharray="" stroke-dashoffset="0" style="mix-blend-mode: normal"><path d="M276.59726,197.70714l256.72405,-7.93992l12.35099,-16.76205l19.40869,-4.41107l25.58418,14.11541l8.82213,17.64426l-1.76443,20.2909l-14.99762,11.46877l-27.43684,-1.76443l-9.79258,-8.82213l-252.31298,0.88221z" fill="#99d9ff" fill-rule="nonzero" stroke="#080000" stroke-width="1.5" stroke-linecap="round"/><path d="M45.58038,879.23295l27.50416,-88.95602l76.84975,-0.79427l-16.17891,89.7503z" data-paper-data="{&quot;index&quot;:null}" fill="#575757" fill-rule="nonzero" stroke="#000000" stroke-width="0.5" stroke-linecap="round"/><path d="M38.27053,874.56877c-2.65425,-1.25544 -8.97092,-3.21253 -6.20271,-5.23565c-1.51348,0.64829 -3.53266,1.43984 -4.60707,1.65275c-5.08972,1.00876 -11.68587,0 -16.93794,0c-14.40866,0 -28.39726,-0.53544 -42.34473,2.00285c-6.30326,1.14716 -8.03601,-2.39534 -9.97156,2.56129c-3.99245,8.31662 -11.5041,15.73801 -16.32937,24.11046c-6.53986,11.34719 -9.076,22.30185 -13.08519,33.67978c-4.53681,9.36995 -0.84128,27.36011 -0.84128,37.78926c0,2.79172 1.27265,7.76101 0.05716,9.81589c1.20835,0.10382 2.37544,0.1985 3.11874,0.1985c4.94024,0 9.88041,0 14.82071,0c19.65148,0 42.48392,-0.40652 61.55785,-4.91741c22.647,-4.81221 47.19198,2.08853 70.02117,-2.23068c12.5018,-2.16627 26.12953,-0.87863 38.85848,-0.86335c6.45741,0.00774 11.98716,-2.31243 14.82069,2.00289c0.74475,1.13424 0,-2.67049 0,-4.00571c0,-3.33807 0,-6.67627 0,-10.01437c0,-18.6935 0,-37.38697 0,-56.08044c0,-4.41924 -1.22456,-20.22978 1.30883,-21.94063c-0.47524,-0.02685 -1.01309,-0.07052 -1.30883,-0.09095c-2.61987,-0.18081 -4.08363,-0.04425 -6.12822,-1.4243c-3.54953,-2.39585 -15.52463,-0.57857 -20.33726,-0.57857c-18.70224,0 -37.40446,0 -56.10674,0c0,0 -4.23448,0 -4.23448,-4.00571c0,-0.16445 0.00708,-0.32209 0.0208,-0.47322c-2.02432,-0.40584 -4.06907,-0.96878 -6.149,-1.95257zM104.73995,872.98876c11.2897,0 25.71876,-1.90172 33.42864,6.22002c4.41811,4.65405 1.50572,19.57606 1.50572,25.82599c0,18.6935 0,37.38697 0,56.08044c0,2.13458 1.45849,12.72368 0,14.02012c-14.7316,13.09425 -42.4982,2.88337 -60.48718,6.7164c-22.32323,4.22347 -48.03114,-3.82473 -69.62801,2.14702c-19.65873,4.6492 -43.34231,5.15667 -63.61192,5.15667c-2.90747,0 -20.3436,2.08298 -22.23101,0c-5.4123,-5.97326 -4.23448,-10.9561 -4.23448,-18.02589c0,-12.78764 -2.39627,-28.03052 1.27594,-40.32273c4.10918,-11.66154 6.99089,-23.35764 13.54477,-34.72917c2.64378,-4.58709 5.49942,-10.7229 8.91599,-14.86589c2.23563,-2.71094 6.50999,-4.91362 7.04403,-8.43773c3.62265,-9.27723 10.16934,-6.23745 17.91585,-7.79671c13.78967,-2.77557 28.05937,-2.00289 42.34473,-2.00289c5.26835,0 15.56208,-2.29367 19.27864,-1.58001c6.46972,1.2424 10.2204,6.46172 16.49087,8.01148c4.60117,1.13724 9.44999,0.46401 14.82071,3.00432c0.40773,0.19283 0.81539,0.38569 1.22315,0.57857c14.13458,0 28.26913,0 42.40373,0z" data-paper-data="{&quot;index&quot;:null}" fill="#000000" fill-rule="nonzero" stroke="none" stroke-width="0.5" stroke-linecap="butt"/><path d="M44.47835,876.32892c-0.01371,0.1512 -0.0203,0.30892 -0.0203,0.47334c0,4.00571 4.25524,4.01257 4.25524,4.01257c18.70224,0 37.50415,0.07964 56.20653,0.07964c4.81261,0 16.79859,-1.79869 20.34812,0.59714c2.04456,1.38002 3.51163,1.25017 6.13143,1.43094c0.29574,0.02041 0.834,0.06515 1.30928,0.092c-2.53339,1.71088 -1.29596,17.55974 -1.29596,21.97897c0,18.6935 -0.0088,37.49816 -0.0088,56.19167c0,3.33807 -0.00724,6.6925 -0.00724,10.03056c0,1.33526 0.74155,5.14598 -0.00319,4.01177c-2.83351,-4.31528 -8.36827,-1.98652 -14.82567,-1.99426c-12.72895,-0.01524 -26.39524,-1.25722 -38.89702,0.90909c-22.8292,4.3192 -47.59855,-2.54272 -70.24556,2.2695c-19.07394,4.51091 -41.99906,4.84768 -61.65069,4.84768c-4.94024,0 -9.88907,-0.01256 -14.82934,-0.01256c-0.74335,0 -1.91206,-0.09726 -3.12034,-0.20108c1.21555,-2.05491 -0.06504,-7.03835 -0.06504,-9.83008c0,-10.42915 -3.71543,-28.48864 0.82141,-37.85863c4.00921,-11.37791 6.55405,-22.40864 13.0939,-33.75581c4.82538,-8.37243 12.3687,-15.85351 16.36119,-24.17013c1.93555,-4.95667 3.68147,-1.42934 9.9847,-2.57649c13.94744,-2.5383 28.02684,-2.05902 42.43546,-2.05902c5.25192,0 11.90715,0.99872 16.99689,-0.00999c1.07432,-0.21298 3.11027,-1.00448 4.62379,-1.65274c-2.76829,2.02314 3.57348,3.98265 6.22773,5.23808c2.08,0.98378 4.14943,1.55202 6.17369,1.95786z" data-paper-data="{&quot;noHover&quot;:false,&quot;origItem&quot;:[&quot;Path&quot;,{&quot;applyMatrix&quot;:true,&quot;segments&quot;:[[[579.60736,595.76373],[0.95609,-0.20262],[0.00646,0.07548]],[[579.61718,596],[0,-0.08208],[0,2]],[[577.61718,598],[0,0],[-8.83333,0]],[[551.11718,598],[8.83333,0],[-2.27308,0]],[[541.51161,598.28885],[1.67648,-1.19621],[-0.96568,0.68904]],[[538.61718,599],[1.23739,-0.09027],[-0.13966,0.01019]],[[537.99901,599.04541],[0.22447,-0.0134],[1.19653,0.85421]],[[538.61718,610],[0,-2.20646],[0,9.33333]],[[538.61718,638],[0,-9.33333],[0,1.66667]],[[538.61718,643],[0,-1.66667],[0,0.66667]],[[538.61718,645],[-0.35177,0.56631],[1.33831,-2.15456]],[[545.61718,644],[-3.04994,0.00386],[6.01206,-0.00761]],[[563.97058,644.43107],[-5.90478,-1.08158],[10.78253,2.15651]],[[597.04254,645.54479],[-10.6965,-2.40266],[9.00888,2.25222]],[[626.11718,648],[-9.28168,0],[2.33333,0]],[[633.11718,648],[-2.33333,0],[0.35109,0]],[[634.59021,647.90091],[-0.5707,0.05184],[-0.57412,-1.02596]],[[634.61718,643],[0,1.39387],[0,-5.20707]],[[634.21982,624.13246],[2.14282,4.67827],[-1.8936,-5.6808]],[[628.03948,607.31672],[3.08887,5.66543],[-2.2791,-4.1802]],[[620.32688,595.27881],[1.8857,4.15235],[-0.91417,-2.47477]],[[615.61718,594],[2.9771,0.57275],[-6.58756,-1.26734]],[[595.61718,593],[6.8054,0],[-2.48058,0]],[[587.61718,593],[2.40395,0.50364],[-0.50743,-0.10631]],[[585.44122,592.1748],[0.71481,0.32365],[1.30749,1.01011]],[[582.51161,594.78885],[1.25365,-0.62682],[-0.98239,0.4912]]],&quot;closed&quot;:true}],&quot;index&quot;:null}" fill="#600505" fill-rule="nonzero" stroke="none" stroke-width="0.5" stroke-linecap="butt"/><path d="M-14.88388,891.01467c0,1.35376 1.4598,2.99451 0.73219,4.06645c1.86099,0.18123 3.73298,0.57699 5.39596,1.3636c6.41171,3.0327 19.45489,14.08363 20.68472,21.38959c0.09997,0.59427 -1.71307,0.69359 -1.40606,1.22056c1.02168,1.75349 9.34798,-1.2939 10.30571,-0.79592c0.21673,0.11272 0.32323,0.28829 0.36587,0.50193c-0.04458,-0.66369 -0.08544,-1.30528 -0.08544,-1.709c0,-1.41892 0.05924,-2.94802 -0.61152,-4.21716c-5.70186,-11.18619 -15.01783,-21.82019 -31.14698,-21.82019c0,0 -1.90335,-0.00003 -3.15797,-1.20717c-0.41842,-0.22488 -0.74371,-0.48927 -0.96185,-0.79935c-0.05604,0.76416 -0.11473,1.54202 -0.11473,2.00653zM21.10915,921.05767c0.289,0.82015 0.20374,-0.54118 0.10771,-1.96525c-0.02008,0.61803 -0.30528,1.40482 -0.10771,1.96525zM28.07237,909.25195c5.26529,9.96178 -6.69003,24.51675 -17.54944,17.81441c-10.24594,-6.32375 -13.71546,-19.03314 -23.06608,-23.4559c-3.15895,-1.49417 -6.94421,-2.30986 -9.30403,-4.79572c-3.7396,-3.93945 -2.08189,-17.39155 5.06952,-17.39155c5.1495,0 7.68587,1.57995 12.47992,1.57995h2.11722c0,0 2.43044,0 3.60871,1.74187c12.54325,3.8733 20.59219,13.7141 26.6441,24.5069z" data-paper-data="{&quot;index&quot;:null}" fill="#000000" fill-rule="nonzero" stroke="none" stroke-width="0.5" stroke-linecap="butt"/><path d="M-14.92637,888.87381c0.21798,0.31008 0.54352,0.57443 0.96191,0.79932c1.25459,1.20714 3.1666,1.19857 3.1666,1.19857c16.12911,0 25.78139,10.86918 31.4832,22.0554c0.6708,1.26912 0.59308,2.82614 0.59308,4.24498c0,0.40367 0.03297,1.05448 0.07758,1.71819c-0.04258,-0.21371 -0.14801,-0.39032 -0.36484,-0.50309c-0.95776,-0.49797 -9.35616,2.6021 -10.37785,0.84864c-0.3071,-0.527 1.30495,-0.97807 1.20484,-1.57237c-1.22981,-7.30594 -14.33595,-18.30081 -20.74771,-21.33351c-1.663,-0.78663 -3.54574,-1.16604 -5.40676,-1.34731c0.72757,-1.07202 -0.71483,-2.73748 -0.71483,-4.09122c0,-0.46449 0.06842,-1.25349 0.12466,-2.01766z" data-paper-data="{&quot;noHover&quot;:false,&quot;origItem&quot;:[&quot;Path&quot;,{&quot;applyMatrix&quot;:true,&quot;segments&quot;:[[[607.563,601.99816],[0.02649,0.38155],[-0.10299,0.15484]],[[607.10872,602.39727],[0.1976,-0.11227],[-0.59254,0.60273]],[[605.61718,603],[0,0],[-7.618,0]],[[590.90604,613.89443],[2.69308,-5.58508],[-0.31682,0.63364]],[[590.61718,616],[0,-0.70843],[0,0.20156]],[[590.57685,616.85325],[0.02106,-0.33136],[0.02013,-0.10671]],[[590.74964,616.60263],[-0.10238,0.05628],[0.45234,-0.24865]],[[595.61718,617],[-0.48256,0.87548],[0.14503,-0.26312]],[[594.95308,616.3906],[-0.04725,0.29671],[0.58086,-3.64773]],[[604.72276,605.71115],[-3.02833,1.51416],[0.78545,-0.39273]],[[607.27135,605.03032],[-0.87898,0.0905],[-0.34365,-0.53523]],[[607.61718,603],[0,0.6759],[0,-0.23192]]],&quot;closed&quot;:true}],&quot;index&quot;:null}" fill="#ffffff" fill-rule="nonzero" stroke="none" stroke-width="0.5" stroke-linecap="butt"/><path d="M579.45842,846.36575l-16.17891,-89.75034l76.84979,0.79427l27.50413,88.95607z" data-paper-data="{&quot;index&quot;:null}" fill="#575757" fill-rule="nonzero" stroke="#000000" stroke-width="0.5" stroke-linecap="round"/><path d="M674.94331,841.70164c-2.0799,0.98378 -4.12467,1.54671 -6.149,1.95257c0.01367,0.15113 0.0208,0.3088 0.0208,0.47322c0,4.00571 -4.23448,4.00571 -4.23448,4.00571c-18.70226,0 -37.4045,0 -56.10674,0c-4.81263,0 -16.78773,-1.81732 -20.33725,0.57857c-2.04458,1.38002 -3.50834,1.2435 -6.12822,1.4243c-0.29574,0.02041 -0.83359,0.0641 -1.30883,0.09096c2.53335,1.71088 1.30883,17.5214 1.30883,21.94063c0,18.6935 0,37.38697 0,56.08044c0,3.33807 0,6.6763 0,10.01437c0,1.33526 -0.74475,5.14 0,4.00571c2.83351,-4.31528 8.36325,-1.99511 14.82069,-2.00285c12.72895,-0.01524 26.35671,-1.3029 38.85849,0.86333c22.82917,4.3192 47.37414,-2.58159 70.02117,2.23063c19.07394,4.51089 41.90637,4.91741 61.55785,4.91741c4.94029,0 9.88045,0 14.82071,0c0.7433,0 1.91039,-0.09469 3.11874,-0.1985c-1.21549,-2.05491 0.05716,-7.02416 0.05716,-9.81589c0,-10.42915 3.69551,-28.4193 -0.84128,-37.78929c-4.00921,-11.37791 -6.54533,-22.33261 -13.08519,-33.67978c-4.82533,-8.37243 -12.33693,-15.79383 -16.32937,-24.11046c-1.93555,-4.95667 -3.6683,-1.41417 -9.97155,-2.56129c-13.94746,-2.5383 -27.93608,-2.00285 -42.34473,-2.00285c-5.25207,0 -11.84821,1.00876 -16.93794,0c-1.07439,-0.21293 -3.09357,-1.00449 -4.60707,-1.65279c2.76822,2.02314 -3.54845,3.98021 -6.20271,5.23565zM608.47365,840.12159c14.1346,0 28.26921,0 42.40377,0c0.40778,-0.19283 0.81539,-0.38569 1.22314,-0.57857c5.37068,-2.54027 10.21951,-1.86708 14.82071,-3.00432c6.27047,-1.54975 10.0212,-6.76911 16.49087,-8.01148c3.71655,-0.71367 14.01028,1.58001 19.27864,1.58001c14.28536,0 28.55506,-0.77273 42.34473,2.00289c7.74648,1.55923 14.29318,-1.48051 17.91585,7.79671c0.53403,3.52411 4.80839,5.72675 7.04403,8.43767c3.41656,4.143 6.2722,10.27883 8.91599,14.86589c6.5539,11.37152 9.43563,23.06763 13.54477,34.72917c3.67219,12.29224 1.27589,27.53515 1.27589,40.32276c0,7.06977 1.17782,12.05259 -4.23448,18.02589c-1.88736,2.08298 -19.32353,0 -22.23101,0c-20.26958,0 -43.95315,-0.50745 -63.61192,-5.15667c-21.59691,-5.97174 -47.30485,2.07644 -69.62805,-2.147c-17.98897,-3.83302 -45.75557,6.37785 -60.48718,-6.7164c-1.45849,-1.29642 0,-11.88551 0,-14.02012c0,-18.6935 0,-37.38692 0,-56.08043c0,-6.24992 -2.9124,-21.17193 1.50572,-25.82599c7.70987,-8.12177 22.13896,-6.22002 33.42864,-6.22002z" data-paper-data="{&quot;index&quot;:null}" fill="#000000" fill-rule="nonzero" stroke="none" stroke-width="0.5" stroke-linecap="butt"/><path d="M668.73531,843.46172c2.02425,-0.40584 4.0937,-0.97407 6.17369,-1.95786c2.65428,-1.25543 8.99602,-3.21489 6.22773,-5.23808c1.51348,0.64826 3.54946,1.43974 4.62379,1.65274c5.08972,1.00876 11.74493,0.01 16.99689,0.01c14.40855,0 28.48804,-0.47933 42.43546,2.05898c6.30325,1.14716 8.04911,-2.38012 9.98465,2.5765c3.9925,8.31662 11.5358,15.7977 16.36119,24.17013c6.53986,11.34719 9.08471,22.37788 13.0939,33.75583c4.53691,9.37 0.82146,27.42949 0.82146,37.85863c0,2.79172 -1.28054,7.77516 -0.06504,9.83008c-1.20828,0.10382 -2.37694,0.20108 -3.12034,0.20108c-4.94024,0 -9.88907,0.01256 -14.82934,0.01256c-19.65163,0 -42.57678,-0.33678 -61.65069,-4.84768c-22.647,-4.81218 -47.41633,2.04971 -70.24556,-2.2695c-12.5018,-2.16634 -26.16806,-0.92432 -38.89702,-0.90909c-6.45732,0.00774 -11.99216,-2.32101 -14.82567,1.99426c-0.74475,1.13423 -0.00319,-2.67653 -0.00319,-4.01177c0,-3.33807 -0.00724,-6.6925 -0.00724,-10.03056c0,-18.6935 -0.0088,-37.49816 -0.0088,-56.19167c0,-4.41924 1.23743,-20.26812 -1.29596,-21.97897c0.47527,-0.02685 1.01358,-0.07157 1.30928,-0.09196c2.61979,-0.18077 4.08688,-0.05092 6.13143,-1.43094c3.54953,-2.39584 15.53553,-0.59714 20.34812,-0.59714c18.70236,0 37.50428,-0.07964 56.20653,-0.07964c0,0 4.25524,-0.00686 4.25524,-4.01257c0,-0.16445 -0.00659,-0.32214 -0.0203,-0.47334z" data-paper-data="{&quot;noHover&quot;:false,&quot;origItem&quot;:[&quot;Path&quot;,{&quot;applyMatrix&quot;:true,&quot;segments&quot;:[[[579.60736,595.76373],[0.95609,-0.20262],[0.00646,0.07548]],[[579.61718,596],[0,-0.08208],[0,2]],[[577.61718,598],[0,0],[-8.83333,0]],[[551.11718,598],[8.83333,0],[-2.27308,0]],[[541.51161,598.28885],[1.67648,-1.19621],[-0.96568,0.68904]],[[538.61718,599],[1.23739,-0.09027],[-0.13966,0.01019]],[[537.99901,599.04541],[0.22447,-0.0134],[1.19653,0.85421]],[[538.61718,610],[0,-2.20646],[0,9.33333]],[[538.61718,638],[0,-9.33333],[0,1.66667]],[[538.61718,643],[0,-1.66667],[0,0.66667]],[[538.61718,645],[-0.35177,0.56631],[1.33831,-2.15456]],[[545.61718,644],[-3.04994,0.00386],[6.01206,-0.00761]],[[563.97058,644.43107],[-5.90478,-1.08158],[10.78253,2.15651]],[[597.04254,645.54479],[-10.6965,-2.40266],[9.00888,2.25222]],[[626.11718,648],[-9.28168,0],[2.33333,0]],[[633.11718,648],[-2.33333,0],[0.35109,0]],[[634.59021,647.90091],[-0.5707,0.05184],[-0.57412,-1.02596]],[[634.61718,643],[0,1.39387],[0,-5.20707]],[[634.21982,624.13246],[2.14282,4.67827],[-1.8936,-5.6808]],[[628.03948,607.31672],[3.08887,5.66543],[-2.2791,-4.1802]],[[620.32688,595.27881],[1.8857,4.15235],[-0.91417,-2.47477]],[[615.61718,594],[2.9771,0.57275],[-6.58756,-1.26734]],[[595.61718,593],[6.8054,0],[-2.48058,0]],[[587.61718,593],[2.40395,0.50364],[-0.50743,-0.10631]],[[585.44122,592.1748],[0.71481,0.32365],[1.30749,1.01011]],[[582.51161,594.78885],[1.25365,-0.62682],[-0.98239,0.4912]]],&quot;closed&quot;:true}],&quot;index&quot;:null}" fill="#600505" fill-rule="nonzero" stroke="none" stroke-width="0.5" stroke-linecap="butt"/><path d="M728.09772,858.1474c0,-0.46454 -0.05866,-1.2424 -0.11473,-2.00653c-0.2181,0.31008 -0.54347,0.57451 -0.96185,0.79937c-1.25459,1.20714 -3.15797,1.20717 -3.15797,1.20717c-16.12916,0 -25.44508,10.634 -31.14694,21.82019c-0.67077,1.26912 -0.61152,2.79825 -0.61152,4.21716c0,0.40367 -0.04081,1.04529 -0.08541,1.70894c0.04264,-0.21368 0.1491,-0.38921 0.36585,-0.50193c0.95776,-0.49797 9.28397,2.54942 10.30571,0.79592c0.30705,-0.527 -1.50604,-0.62624 -1.40606,-1.22052c1.22987,-7.30594 14.27305,-18.35687 20.68475,-21.38959c1.66293,-0.78663 3.53492,-1.18239 5.39594,-1.3636c-0.72757,-1.07194 0.73219,-2.71268 0.73219,-4.06645zM691.99693,886.22525c-0.09603,1.42408 -0.18123,2.78539 0.10771,1.96525c0.19754,-0.56044 -0.08762,-1.3472 -0.10771,-1.96525zM685.14145,876.38477c6.05192,-10.7928 14.10088,-20.6336 26.6441,-24.5069c1.17825,-1.74187 3.60871,-1.74187 3.60871,-1.74187h2.11722c4.79409,0 7.33044,-1.57995 12.47992,-1.57995c7.15141,0 8.80913,13.45208 5.06952,17.39152c-2.35984,2.48588 -6.14503,3.30156 -9.30403,4.79572c-9.35063,4.4228 -12.82016,17.13215 -23.06608,23.45591c-10.8594,6.70232 -22.81472,-7.85265 -17.54939,-17.81441z" data-paper-data="{&quot;index&quot;:null}" fill="#000000" fill-rule="nonzero" stroke="none" stroke-width="0.5" stroke-linecap="butt"/><path d="M728.14031,856.00661c0.05622,0.76416 0.12466,1.55316 0.12466,2.01766c0,1.35374 -1.44244,3.0192 -0.71483,4.09122c-1.86101,0.18123 -3.74379,0.56073 -5.40676,1.34734c-6.41176,3.03269 -19.51787,14.02749 -20.74771,21.33349c-0.10011,0.59431 1.51192,1.04537 1.20484,1.57241c-1.02168,1.75349 -9.4201,-1.34655 -10.37785,-0.84864c-0.21681,0.11277 -0.32225,0.28934 -0.36484,0.50311c0.04458,-0.66371 0.07758,-1.31453 0.07758,-1.71822c0,-1.41887 -0.07773,-2.97583 0.59308,-4.24496c5.70185,-11.18628 15.35407,-22.05544 31.4832,-22.05544c0,0 1.91199,0.00859 3.1666,-1.19857c0.41842,-0.22488 0.7439,-0.48918 0.96191,-0.79926z" data-paper-data="{&quot;noHover&quot;:false,&quot;origItem&quot;:[&quot;Path&quot;,{&quot;applyMatrix&quot;:true,&quot;segments&quot;:[[[607.563,601.99816],[0.02649,0.38155],[-0.10299,0.15484]],[[607.10872,602.39727],[0.1976,-0.11227],[-0.59254,0.60273]],[[605.61718,603],[0,0],[-7.618,0]],[[590.90604,613.89443],[2.69308,-5.58508],[-0.31682,0.63364]],[[590.61718,616],[0,-0.70843],[0,0.20156]],[[590.57685,616.85325],[0.02106,-0.33136],[0.02013,-0.10671]],[[590.74964,616.60263],[-0.10238,0.05628],[0.45234,-0.24865]],[[595.61718,617],[-0.48256,0.87548],[0.14503,-0.26312]],[[594.95308,616.3906],[-0.04725,0.29671],[0.58086,-3.64773]],[[604.72276,605.71115],[-3.02833,1.51416],[0.78545,-0.39273]],[[607.27135,605.03032],[-0.87898,0.0905],[-0.34365,-0.53523]],[[607.61718,603],[0,0.6759],[0,-0.23192]]],&quot;closed&quot;:true}],&quot;index&quot;:null}" fill="#ffffff" fill-rule="nonzero" stroke="none" stroke-width="0.5" stroke-linecap="butt"/><path d="M395.73483,211.60593c0.23669,-0.39864 0.65653,-0.75289 1.39169,-0.88117c2.01867,-0.3523 2.37749,1.70374 2.37749,1.70374c0.12759,0.73105 0.54221,3.10684 0.66979,3.8379c0.50257,2.87976 1.77423,6.54309 -0.42261,9.17277c-0.9577,1.14637 -5.98253,1.40834 -7.5298,1.67837c-7.4432,1.29898 -17.74398,5.02992 -25.11962,3.65761c-0.81382,-0.15142 -1.26459,-1.19627 -2.06566,-1.40798c-3.51146,-0.92803 -9.00943,-1.04886 -12.57847,-0.40019c-5.69807,0.16212 -12.08547,0.40826 -17.63826,1.38859c-2.22047,0.39202 -8.26896,2.25137 -10.53538,1.52219c-0.84977,-0.27337 -0.91284,-1.66344 -1.68654,-2.11513c-0.71157,-0.41548 -1.77907,0.20193 -2.4394,-0.2938c-2.14684,-1.61162 -1.66738,-4.02104 -4.72891,-4.9745c-1.97239,-0.61432 -2.52559,0.75919 -4.83793,0.32369c-0.83944,-0.15807 -1.35145,-1.10774 -2.14338,-1.43462c-0.97165,-0.40105 -3.04255,0.39273 -3.78977,0.32484c-3.63596,-0.33021 -7.53242,-1.51558 -11.18525,-2.08552c-1.34472,-0.29282 -7.5648,-1.15222 -8.48939,-2.02883c-3.0873,-2.92691 -0.87028,-8.80705 0.94548,-11.44151c1.71645,-2.49043 3.73809,-2.93242 5.72164,-4.73391c2.63985,-2.39751 2.74481,-6.59451 4.78834,-9.11924c0.54212,-0.66982 1.59943,-0.65236 2.29375,-1.15631c1.3175,-0.95622 0.31604,-1.75028 0.82235,-3.19586c1.44814,-4.13458 4.51062,-7.64061 6.44494,-11.53527c1.21643,-3.23966 2.73124,-11.21093 7.03205,-11.76285c1.3384,-0.17178 2.30985,1.46264 3.56253,1.98277c1.6062,0.66691 3.5628,0.06131 5.13788,0.80198c0.89449,0.42067 1.35586,1.4932 2.19797,2.01474c4.23877,2.62517 9.76853,3.25407 14.13039,5.35143c1.33547,0.64217 2.20196,2.14575 3.59708,2.63718c4.50072,1.58535 9.07077,2.96464 13.45603,5.23941c2.67348,1.94563 4.84792,2.15139 7.76715,3.65986c1.56046,0.8063 2.20754,1.96094 3.9264,2.46154c1.79092,0.52156 3.77801,0.67792 5.3194,1.74646c8.27085,5.73373 16.58426,11.8333 23.60802,19.06156z" data-paper-data="{&quot;index&quot;:null}" fill="#ffffff" fill-rule="nonzero" stroke="#000000" stroke-width="1" stroke-linecap="butt"/><path d="M333.05331,297.2531v-10.11896l304.1634,-1.68649l46.91882,509.32082l-150.46381,1.68647l-34.59056,-357.33048l-17.73152,-18.08317l-16.4056,11.76933l-11.71337,24.03434l-249.6601,403.11621l-215.22123,-18.38232z" data-paper-data="{&quot;index&quot;:null}" fill="#6e3232" fill-rule="nonzero" stroke="#000000" stroke-width="1" stroke-linecap="round"/><path d="M319.85158,446.23693l64.71562,7.9425l-9.70735,49.24353l-45.30092,54.00904l-30.73992,3.17698" data-paper-data="{&quot;index&quot;:null}" fill="none" fill-rule="nonzero" stroke="#000000" stroke-width="1" stroke-linecap="round"/><path d="M669.31587,555.84348l-30.73992,-3.17698l-45.30092,-54.00904l-9.70735,-49.24353l64.71562,-7.9425" data-paper-data="{&quot;index&quot;:null}" fill="none" fill-rule="nonzero" stroke="#000000" stroke-width="1" stroke-linecap="round"/><path d="M602.45493,188.9767c9.177,4.16701 17.72763,9.92932 25.91957,15.77522c1.52667,1.08947 2.34548,2.90674 3.44173,4.41595c1.05215,1.44848 2.35755,1.66716 3.64385,2.86323c2.40644,2.2375 3.3351,4.21441 6.06989,6.07286c3.62317,3.35824 6.46605,7.19305 9.47942,10.89297c0.93409,1.14689 2.64205,1.45414 3.69783,2.49393c3.4483,3.39617 5.90936,8.38785 9.8128,11.48977c0.7755,0.61625 1.94083,0.68792 2.63911,1.38758c1.22947,1.23201 1.32092,3.27815 2.49149,4.56437c0.91295,1.00311 2.77951,1.36494 3.07025,2.68262c0.93433,4.23424 -6.0557,8.35431 -8.69349,10.59422c-3.01158,3.13695 -5.27603,7.20429 -8.67778,9.96477c-1.18936,0.96515 -2.27517,0.29103 -2.72977,1.85422c-0.23959,0.82382 0.13422,1.81297 -0.31292,2.54959c-1.68536,2.77666 -5.59982,4.29413 -6.96391,7.58898c-1.02496,2.47575 -0.75757,4.5278 -2.52123,6.98503c-1.86565,2.59939 -6.65028,6.67351 -10.44847,4.75727c-1.13755,-0.57389 -4.04887,-6.13734 -4.779,-7.30391c-1.77114,-3.24519 -4.20381,-6.5116 -5.74362,-9.82193c-0.31648,-0.68029 -0.26937,-2.89762 -0.9753,-3.67651c-0.57533,-0.63483 -1.64216,-0.79569 -2.07468,-1.53229c-1.19147,-2.02902 -0.0858,-3.01393 -1.33067,-4.66258c-1.93221,-2.55902 -4.03775,-1.29339 -6.28019,-2.76907c-0.68975,-0.45391 -0.46951,-1.66725 -1.10106,-2.19651c-0.68663,-0.57549 -2.01621,-0.16499 -2.56073,-0.87231c-1.45236,-1.88653 -1.74698,-8.20749 -2.12859,-10.42978c-0.95433,-5.55731 -2.88173,-11.65192 -4.65523,-17.0694c-0.59591,-3.57824 -2.56804,-8.71172 -4.62842,-11.70282c-0.47002,-0.68235 -1.60574,-0.75343 -2.02334,-1.46816c-3.78464,-6.47762 -3.75519,-17.43325 -5.04862,-24.8774c-0.26886,-1.54746 -1.72085,-6.36509 -0.96564,-7.65391c1.73233,-2.95638 5.60987,-2.99788 8.49001,-3.49831c0.73114,-0.12703 3.10725,-0.53989 3.83839,-0.66692c0,0 2.05629,-0.3573 2.4071,1.66166c0.12775,0.73526 -0.06373,1.25012 -0.35889,1.60763z" data-paper-data="{&quot;index&quot;:null}" fill="#ffffff" fill-rule="nonzero" stroke="#000000" stroke-width="1" stroke-linecap="butt"/><path d="M332.69222,275.58728c0.28951,0 0.57901,0 0.86852,0c0.09351,1.88816 -0.00289,3.7216 -0.28951,5.5006c0.16212,-1.91681 -0.03097,-3.75055 -0.57901,-5.5006z" fill="#4b4b4b" fill-rule="evenodd" stroke="none" stroke-width="1" stroke-linecap="butt"/><path d="M449.64367,327.00706l2.14109,-92.80281l60.21812,1.60581l-1.33819,92.20064z" data-paper-data="{&quot;index&quot;:null}" fill="#342323" fill-rule="nonzero" stroke="#000000" stroke-width="1" stroke-linecap="round"/><path d="M586.9613,43.99697c24.20096,25.54271 48.37642,51.12411 72.52439,76.74435c0.3003,1.95257 0.36507,3.91534 0.19627,5.88832c-24.06945,-25.96766 -48.21155,-51.87625 -72.42626,-77.72574c-0.13151,0.26163 -0.26105,0.26163 -0.39256,0c-21.36084,24.37115 -42.72364,48.7421 -64.08448,73.11324c-1.57416,0.1633 -3.14436,0.13052 -4.71065,-0.09815c23.0135,-25.9496 45.97793,-51.92353 68.89327,-77.92202z" data-paper-data="{&quot;index&quot;:null}" fill="#c4c4c4" fill-rule="evenodd" stroke="#000000" stroke-width="1" stroke-linecap="butt" opacity="0.999"/><path d="M379.69266,44.19325c22.11573,25.48579 44.13094,51.06738 66.04725,76.74435c0.43182,0.49855 0.9225,0.92387 1.47207,1.2758c-0.31994,0.09696 -0.6477,0.12955 -0.98137,0.09814c0.03142,1.57827 -0.06673,3.14849 -0.29441,4.71065c-22.04781,-26.03948 -44.097,-52.07879 -66.1454,-78.1183c-0.13092,0.26163 -0.26164,0.26163 -0.39256,0c-23.16069,26.0395 -46.3214,52.07881 -69.48209,78.1183c-0.08264,-1.83519 -0.01727,-3.66705 0.19627,-5.49576c23.16148,-25.81084 46.35477,-51.58868 69.58025,-77.33318z" data-paper-data="{&quot;index&quot;:null}" fill="#c4c4c4" fill-rule="evenodd" stroke="#000000" stroke-width="1" stroke-linecap="butt"/><path d="M379.49637,49.49274c2.31645,2.61205 4.60624,5.2618 6.8697,7.94922c-18.96371,21.34298 -37.90445,42.70461 -56.82223,64.08448c-0.29402,3.39284 -0.45772,6.79493 -0.49069,10.20642c-6.35683,-1.27797 -12.70325,-2.61912 -19.03888,-4.02368c23.20584,-26.05069 46.36655,-52.12297 69.4821,-78.21643z" data-paper-data="{&quot;index&quot;:null}" fill="#c4c4c4" fill-rule="evenodd" stroke="#000000" stroke-width="1" stroke-linecap="butt"/><path d="M586.9613,49.49274c0.96372,0.66695 1.84697,1.45206 2.64974,2.35532c23.31772,25.21534 46.70807,50.37138 70.16908,75.46855c-8.67348,2.23855 -17.37642,4.36501 -26.10486,6.37901c-0.08833,-5.64003 -0.31601,-11.26651 -0.68697,-16.87984c-17.78859,-19.29423 -35.64982,-38.52939 -53.58366,-57.70547c-0.30816,-0.11012 -0.56919,0.02081 -0.7851,0.39256c-0.13151,-0.13092 -0.13151,-0.26164 0,-0.39256c2.87546,-3.14475 5.6567,-6.35074 8.34178,-9.61758z" data-paper-data="{&quot;index&quot;:null}" fill="#c4c4c4" fill-rule="evenodd" stroke="#000000" stroke-width="1" stroke-linecap="butt"/><path d="M390.68417,55.96988c18.05102,19.26186 36.07574,38.56257 54.07435,57.90174c2.52216,2.72531 4.97562,5.50595 7.36039,8.34178c-1.43871,0.13092 -2.87939,0.13092 -4.3181,0c-0.61436,-0.41768 -1.16981,-0.90837 -1.66835,-1.47207c-18.53248,-21.56614 -37.01513,-43.15664 -55.44829,-64.77144z" data-paper-data="{&quot;index&quot;:null}" fill="#c4c4c4" fill-rule="evenodd" stroke="#000000" stroke-width="1" stroke-linecap="butt" opacity="0.998"/><path d="M386.56235,57.93265c0.56745,0.46792 1.12348,0.9914 1.66835,1.57022c17.53402,20.67446 35.06884,41.34911 52.60226,62.02358c0.15702,5.36955 0.12366,10.7344 -0.09814,16.09472c-37.16193,-0.00588 -74.32367,0.05888 -111.4854,0.19629c0.22435,-5.2983 0.4532,-10.5978 0.68697,-15.89845c18.98902,-21.24522 37.86441,-42.57408 56.62596,-63.98633z" data-paper-data="{&quot;index&quot;:null}" fill="#365c43" fill-rule="evenodd" stroke="#000000" stroke-width="1" stroke-linecap="butt"/><path d="M579.11022,59.69914c0.83221,0.53545 1.58395,1.18964 2.25719,1.96278c17.00349,18.50913 34.0796,36.95918 51.22833,55.35015c1.25618,36.44081 2.46524,72.88359 3.63113,109.32636c-33.6949,-0.00588 -67.38782,-0.07067 -101.08272,-0.19629c-0.10206,-1.83127 -0.20021,-3.66253 -0.29442,-5.49576c-1.898,-2.55161 -3.79405,-5.1032 -5.69204,-7.65481c-3.08155,-2.88527 -6.22198,-5.69989 -9.4213,-8.43991c-0.31012,-25.51601 -0.44163,-51.03206 -0.39256,-76.54807c19.89073,-22.80112 39.81284,-45.56926 59.76638,-68.30443z" data-paper-data="{&quot;index&quot;:null}" fill="#365c43" fill-rule="evenodd" stroke="#000000" stroke-width="1" stroke-linecap="butt"/><path d="M613.26243,71.08322c0.26105,0 0.52407,0 0.78511,0c0.27282,0.21866 0.56724,0.41494 0.88325,0.58883c0.34742,0.77352 0.83809,1.42772 1.47207,1.96277c0.70857,0.21552 1.10111,0.67344 1.17767,1.37395c0.67126,0.44279 1.32685,0.9335 1.96278,1.47207c0.41415,0.2481 0.61042,0.60786 0.58883,1.07952c0.65556,0.10049 1.01672,0.49305 1.07952,1.17767c0.66145,0.23593 1.0854,0.69384 1.2758,1.37395c0.23357,0.18234 0.49461,0.2477 0.78511,0.19627c0.07458,0.69992 0.46714,1.15785 1.17767,1.37395c0.18254,0.23338 0.2473,0.49501 0.19627,0.7851c0.20609,-0.02925 0.40238,0.00333 0.58883,0.09814c0.4907,0.75232 1.11289,1.37394 1.86463,1.86463c-0.04514,0.64966 0.24926,1.00965 0.88324,1.07952c0.50639,0.60964 0.9971,1.23124 1.47208,1.86463c0.58295,0.18195 0.94212,0.5745 1.07951,1.17767c1.57416,1.11683 2.88331,2.49077 3.92554,4.12183c0.16094,0.17389 0.35723,0.23926 0.58882,0.19627c-0.04318,0.23063 0.0216,0.42689 0.19627,0.58882c0.3278,0.26163 0.6536,0.52348 0.98139,0.78512c0.18254,0.23338 0.2473,0.49502 0.19627,0.78511c0.2905,-0.05142 0.55154,0.01393 0.78512,0.19627c0.26105,0.3272 0.52405,0.6542 0.78511,0.98138c0.16094,0.17389 0.35723,0.23926 0.58882,0.19627c-0.05104,0.2901 0.01374,0.55174 0.19627,0.78511c1.03045,1.18906 2.14138,2.30135 3.33671,3.33672c0.13151,0.26163 0.26105,0.52348 0.39256,0.78511c0.73015,0.07595 1.1227,0.46852 1.17767,1.17767c0.64184,0.11836 1.03439,0.51091 1.17767,1.17766c0.67519,0.21727 1.06775,0.67519 1.17767,1.37393c1.13841,0.93134 2.21793,1.91272 3.23859,2.94416c0.66537,0.83282 1.38376,1.61791 2.15905,2.35532c0.11777,0.73997 0.54369,1.19788 1.2758,1.37393c0.18254,0.23338 0.24731,0.49502 0.19627,0.78512c0.38862,-0.02296 0.71641,0.10795 0.98139,0.39255c1.05402,1.42753 2.26308,2.7359 3.63113,3.92554c0.09617,0.2538 0.12955,0.51562 0.09814,0.78511c0.67519,-0.02886 1.06775,0.29835 1.17767,0.98139c1.08737,0.55488 1.80771,1.40535 2.15905,2.55161c0.29245,2.37534 0.22768,4.73067 -0.19627,7.06596c-2.84209,0.98648 -5.78626,1.57532 -8.83247,1.76649c2.72432,-0.71424 5.47221,-1.434 8.24365,-2.15905c0.17665,-2.35455 0.14524,-4.70985 -0.09814,-7.06597c-15.64329,-16.52712 -31.24731,-33.07976 -46.81209,-49.65811z" data-paper-data="{&quot;index&quot;:null}" fill="#66b6fc" fill-rule="evenodd" stroke="#000000" stroke-width="1" stroke-linecap="butt" opacity="0.206"/><path d="M441.51995,122.50782c0.844,0.87775 1.66246,1.79379 2.45346,2.74788c-0.18058,26.30114 -0.44163,52.60226 -0.78511,78.90339c-0.84989,0.72034 -1.70172,1.43872 -2.55161,2.15906c0.23357,-27.93613 0.52799,-55.87225 0.88325,-83.81034z" data-paper-data="{&quot;index&quot;:null}" fill="#365c43" fill-rule="evenodd" stroke="#000000" stroke-width="1" stroke-linecap="butt"/><path d="M497.85148,122.50782c8.11213,-0.03277 16.22623,0.00001 24.33836,0.09814c-1.32683,1.60692 -2.70078,3.17713 -4.12181,4.71065c-23.8143,0.25692 -47.6286,0.35507 -71.44487,0.29442c0,-1.63559 0,-3.27134 0,-4.90692c17.10948,0.06536 34.18559,-0.0002 51.22833,-0.19629z" data-paper-data="{&quot;index&quot;:null}" fill="#c4c4c4" fill-rule="evenodd" stroke="#000000" stroke-width="1" stroke-linecap="butt"/><path d="M447.21198,128.19985c23.39034,-0.26144 46.8121,-0.26144 70.26722,0c-0.6693,1.27521 -1.38964,2.51825 -2.15905,3.72928c-21.06643,0.19058 -42.1348,0.28873 -63.20123,0.29441c-1.61144,-1.38297 -3.24642,-2.72414 -4.90692,-4.02369z" data-paper-data="{&quot;index&quot;:null}" fill="#c4c4c4" fill-rule="evenodd" stroke="#000000" stroke-width="1" stroke-linecap="butt"/><path d="M651.92903,129.96635c0.01766,0.1955 -0.04908,0.35898 -0.19627,0.4907c-1.79594,0.65713 -3.6272,1.11506 -5.49576,1.37394c-2.21597,0.8167 -4.50652,1.37276 -6.8697,1.66834c-1.33272,0.29167 -2.63992,0.61866 -3.92554,0.98138c-0.26105,0.19629 -0.52407,0.39256 -0.78512,0.58883c-0.19627,2.02362 -0.26105,4.05313 -0.19627,6.08459c0.06476,3.69785 0,7.36236 -0.19627,10.99151c-0.13348,-5.957 -0.32974,-11.9101 -0.58883,-17.86122c6.0787,-1.47031 12.16329,-2.9098 18.25378,-4.31811z" data-paper-data="{&quot;index&quot;:null}" fill="#7dbdee" fill-rule="evenodd" stroke="#000000" stroke-width="1" stroke-linecap="butt" opacity="0.243"/><path d="M415.80764,138.01371c8.30841,0 16.61879,0 24.92719,0c-0.15114,22.96442 -0.38079,45.92885 -0.68698,68.89328c-4.86768,4.14733 -9.67647,8.36729 -14.42637,12.65987c-7.76864,0.22768 -15.55495,0.32582 -23.35698,0.29441c-25.31955,-0.13935 -50.63931,-0.20413 -75.95925,-0.19627c1.05126,-27.14709 2.03265,-54.2981 2.94416,-81.455c28.88572,0.06478 57.73844,0 86.5582,-0.19627z" data-paper-data="{&quot;index&quot;:null}" fill="#365c43" fill-rule="evenodd" stroke="#000000" stroke-width="1" stroke-linecap="butt"/><path d="M634.46035,141.15414c0.1629,3.63112 0.26105,7.29366 0.29441,10.99151c0.19627,1.11289 0.39256,2.22383 0.58883,3.33672c0.09814,5.23274 0.13151,10.46745 0.09814,15.70217c0.31796,-0.02748 0.54761,0.10402 0.68698,0.39256c0.09814,2.2886 0.13149,4.57915 0.09813,6.8697c-0.44555,0.07065 -0.80473,-0.06085 -1.07951,-0.39256c-0.27087,-8.63816 -0.56529,-17.27435 -0.88325,-25.90858c0.19627,-3.62916 0.26105,-7.29365 0.19627,-10.99151z" data-paper-data="{&quot;index&quot;:null}" fill="#b5cadf" fill-rule="evenodd" stroke="#000000" stroke-width="1" stroke-linecap="butt" opacity="0.466"/><path d="M472.53174,172.36221c1.60162,-0.22768 3.23661,-0.25908 4.90692,-0.09814c-0.75566,0.75566 -1.57414,1.44265 -2.45347,2.06092c-0.31404,-0.70267 -0.73997,-0.7694 -1.2758,-0.19629c-0.3749,0.53584 -0.63593,1.12467 -0.78511,1.76649c-0.2002,-1.23459 -0.32974,-2.41225 -0.39256,-3.53299z" data-paper-data="{&quot;index&quot;:null}" fill="#fefffe" fill-rule="evenodd" stroke="#000000" stroke-width="1" stroke-linecap="butt" opacity="0.004"/><path d="M518.85314,172.16594c0.17273,10.50279 0.27087,21.03697 0.29441,31.6006c-0.28854,-10.5283 -0.38666,-21.06052 -0.29441,-31.6006z" data-paper-data="{&quot;index&quot;:null}" fill="#689427" fill-rule="evenodd" stroke="#000000" stroke-width="1" stroke-linecap="butt" opacity="0.986"/><path d="M479.59771,172.75476c18.36958,15.98089 36.65672,32.07561 54.85945,48.28416c0.13151,2.22382 0.13151,4.44961 0,6.67341c-18.2263,-16.37539 -36.41334,-32.79791 -54.56504,-49.26555c-0.28854,-0.07263 -0.58295,0.02551 -0.88325,0.29441c-18.09086,16.25764 -36.17977,32.51723 -54.27063,48.77488c-0.13151,-2.15905 -0.13151,-4.31811 0,-6.47715c18.32444,-16.06921 36.61158,-32.16393 54.85945,-48.28416z" data-paper-data="{&quot;index&quot;:null}" fill="#c4c4c4" fill-rule="evenodd" stroke="#000000" stroke-width="1" stroke-linecap="butt"/><path d="M510.80577,327.81368c-0.10206,-24.73092 -0.26693,-49.46184 -0.49069,-74.19276c-0.5319,-3.28764 -1.90585,-6.16701 -4.12183,-8.63619c-3.04622,-3.23661 -6.67735,-5.62335 -10.89337,-7.16411c-9.87668,-3.27193 -19.75726,-3.27193 -29.63785,0c-4.56934,1.77434 -8.4615,4.49081 -11.67849,8.1455c-1.63498,2.22382 -2.61637,4.71065 -2.94416,7.45853c-0.26104,20.9349 -0.45733,41.87179 -0.58882,62.80868c-0.0098,3.60955 -0.14132,7.20729 -0.39256,10.79525c-7.54293,0.19627 -15.09961,0.26105 -22.67,0.19629c0.36114,-34.02464 0.81847,-68.04536 1.37394,-102.06411c1.11289,0 2.22383,0 3.33672,0c-0.03337,-1.17963 0,-2.35728 0.09813,-3.53298c15.89453,-14.1614 31.76156,-28.35813 47.59721,-42.59213c16.3597,14.75807 32.74884,29.47886 49.16742,44.16235c0.44751,34.8706 0.8067,69.74315 1.07952,104.6157c-6.41237,0 -12.82279,0 -19.23516,0z" data-paper-data="{&quot;index&quot;:null}" fill="#6e3232" fill-rule="evenodd" stroke="#000000" stroke-width="1" stroke-linecap="butt"/><path d="M482.14931,171.96966c0.20609,-0.02945 0.40238,0.00392 0.58883,0.09813c11.32519,10.08274 22.70925,20.0929 34.15222,30.03041c3.15419,3.40933 6.55565,6.54976 10.2064,9.4213c0.55546,0.55547 1.11289,1.1129 1.66835,1.66836c1.23261,1.82145 2.54181,3.58793 3.92555,5.29948c0.13151,0.13151 0.13151,0.26106 0,0.39256c-17.50203,-15.40777 -35.00209,-30.8155 -52.50413,-46.22327c0.69678,-0.17273 1.35234,-0.40039 1.96277,-0.68697z" data-paper-data="{&quot;index&quot;:null}" fill="#c4c4c4" fill-rule="evenodd" stroke="#000000" stroke-width="1" stroke-linecap="butt" opacity="0.999"/><path d="M636.22684,179.62446c0.05495,9.55281 0.18451,19.10562 0.39256,28.65646c0.13151,0.06478 0.26106,0.13151 0.39256,0.19629c0.1629,4.70869 0.26105,9.41934 0.29441,14.13196c0.2218,0.65164 0.31993,1.33861 0.29441,2.06091c-0.17665,1.5663 -0.30619,3.13651 -0.39256,4.71065c0.29639,5.40154 0.49265,10.79917 0.58882,16.19286c0.11189,1.00887 0.24142,1.99025 0.39256,2.94416c0.27479,15.06034 0.53583,30.10696 0.7851,45.14374c-1.35627,-38.23871 -2.59872,-76.51275 -3.72927,-114.82212c0.26105,0 0.52407,0 0.78512,0c-0.05301,0.31404 0.01373,0.57508 0.19627,0.7851z" data-paper-data="{&quot;index&quot;:null}" fill="#30756f" fill-rule="evenodd" stroke="#000000" stroke-width="1" stroke-linecap="butt" opacity="0.33"/><path d="M326.30528,220.05755c32.77809,0.12366 65.55637,0.2218 98.33485,0.29442c-0.09813,0.09813 -0.19629,0.19629 -0.29441,0.29441c-0.05888,2.35926 -0.15702,4.71457 -0.29441,7.06598c-32.64755,-0.1217 -65.29492,-0.2532 -97.94229,-0.39255c0.09657,-2.4201 0.16193,-4.84021 0.19627,-7.26226z" data-paper-data="{&quot;index&quot;:null}" fill="#365c43" fill-rule="evenodd" stroke="#000000" stroke-width="1" stroke-linecap="butt"/><path d="M529.64838,223.98309c0.86755,0.57312 1.65264,1.2601 2.35532,2.06092c-0.78315,0.09813 -1.56826,0.13149 -2.35532,0.09813c0,-0.72034 0,-1.43871 0,-2.15904z" data-paper-data="{&quot;index&quot;:null}" fill="#3f581b" fill-rule="evenodd" stroke="#000000" stroke-width="1" stroke-linecap="butt"/><path d="M431.31354,222.80543c0.19236,0.61238 0.25711,1.26795 0.19629,1.96277c-0.78708,0.03337 -1.57219,0 -2.35532,-0.09813c0.75764,-0.59472 1.47797,-1.21692 2.15906,-1.86463z" data-paper-data="{&quot;index&quot;:null}" fill="#d7d6d3" fill-rule="evenodd" stroke="#000000" stroke-width="1" stroke-linecap="butt"/><path d="M427.97682,225.35703c0.19236,0.74587 0.2591,1.53097 0.19629,2.35532c-0.91858,0.03337 -1.8352,0 -2.74787,-0.09814c0.88915,-0.72623 1.73903,-1.47796 2.55161,-2.25719z" data-paper-data="{&quot;index&quot;:null}" fill="#3f581b" fill-rule="evenodd" stroke="#000000" stroke-width="1" stroke-linecap="butt"/><path d="M529.64838,226.53469c1.04812,-0.03337 2.09624,0.00001 3.14043,0.09815c0.63202,0.7321 1.35235,1.35235 2.15905,1.86463c0.19432,-0.64184 0.25908,-1.29543 0.19627,-1.96278c33.6949,0.15311 67.38782,0.2846 101.08272,0.39256c0.87736,27.74377 1.79398,55.48362 2.74788,83.2215c-36.17975,-0.2002 -72.36148,-0.39649 -108.54124,-0.58883c-0.32582,-27.67311 -0.58883,-55.3482 -0.78512,-83.02522z" data-paper-data="{&quot;index&quot;:null}" fill="#365c43" fill-rule="evenodd" stroke="#000000" stroke-width="1" stroke-linecap="butt"/><path d="M335.72658,227.90864c29.61901,-0.00588 59.22427,0.12365 88.8154,0.39255c1.19335,-0.19236 2.40243,-0.2571 3.63112,-0.19627c-0.38667,25.51601 -0.71444,51.03204 -0.98138,76.54807c-31.33898,-0.18057 -62.67795,-0.37686 -94.01674,-0.58882c0.84203,-25.38452 1.69269,-50.77101 2.5516,-76.15553z" data-paper-data="{&quot;index&quot;:null}" fill="#365c43" fill-rule="evenodd" stroke="#000000" stroke-width="1" stroke-linecap="butt"/><path d="M637.79707,245.57358c0.12169,0.0216 0.21983,0.08636 0.29441,0.19627c0.09814,0.91269 0.13151,1.8293 0.09814,2.74787c-0.15113,-0.95391 -0.28068,-1.93528 -0.39256,-2.94416z" data-paper-data="{&quot;index&quot;:null}" fill="#090909" fill-rule="evenodd" stroke="#000000" stroke-width="1" stroke-linecap="butt" opacity="0.004"/><path d="M535.53669,341.55308c-0.98139,0 -1.96278,0 -2.94417,0c0.0216,-0.12169 0.08637,-0.21983 0.19627,-0.29441c0.45733,-0.03337 0.91663,-0.06477 1.37394,-0.09814c0.54369,0.00589 1.00102,0.1374 1.37394,0.39255z" data-paper-data="{&quot;index&quot;:null}" fill="#000000" fill-rule="evenodd" stroke="#000000" stroke-width="1" stroke-linecap="butt" opacity="0.004"/><path d="M427.16223,305.26163l-93.94026,-1.33818l0.26765,-19.53744l94.74318,-1.60581z" data-paper-data="{&quot;index&quot;:null}" fill="#6e3232" fill-rule="nonzero" stroke="#000000" stroke-width="1" stroke-linecap="round"/><path d="M531.07195,287.06238l107.58972,-2.40872l0.80291,26.49598l-109.19554,-1.87345z" data-paper-data="{&quot;index&quot;:null}" fill="#6e3232" fill-rule="nonzero" stroke="#000000" stroke-width="1" stroke-linecap="round"/><path d="M464.09603,326.94015l3.15777,-61.08794l3.15779,-10.43781l5.89452,-6.95854l6.31556,-0.80291l7.99972,2.944l5.26297,5.888l2.73675,6.42326l-1.89467,65.03557z" data-paper-data="{&quot;index&quot;:null}" fill="#6e3426" fill-rule="nonzero" stroke="#000000" stroke-width="1" stroke-linecap="round"/><path d="M350.88595,285.18892l0.26765,-57.27413l57.54177,0.26764l-0.53527,55.13304z" data-paper-data="{&quot;index&quot;:null}" fill="#363c5c" fill-rule="nonzero" stroke="#000000" stroke-width="1" stroke-linecap="round"/><path d="M557.23337,287.06238l-2.14108,-60.48576h59.14758l2.40872,58.61231z" data-paper-data="{&quot;index&quot;:null}" fill="#363c5c" fill-rule="nonzero" stroke="#000000" stroke-width="1" stroke-linecap="round"/><path d="M616.11332,197.20355l-72.79702,-0.26764l-1.07055,-70.12065l72.26174,-1.33818l1.07055,65.57085z" data-paper-data="{&quot;index&quot;:null}" fill="#363c5c" fill-rule="nonzero" stroke="#000000" stroke-width="1" stroke-linecap="round"/><path d="M351.48813,205.76792l4.01454,-67.71193h67.97958l-4.28217,69.05011z" data-paper-data="{&quot;index&quot;:null}" fill="#363c5c" fill-rule="nonzero" stroke="#000000" stroke-width="1" stroke-linecap="round"/><path d="M444.51175,125.94486l7.22617,6.42326l62.09157,-0.53527l4.54981,-4.81745l1.07055,1.33818l-0.53527,76.81156l-36.66615,-33.72214l-2.40872,0.80291l-37.20142,32.38397z" data-paper-data="{&quot;index&quot;:null}" fill="#365c43" fill-rule="nonzero" stroke="#000000" stroke-width="1" stroke-linecap="round"/><path d="M516.31993,122.77114c0.30593,2.00206 0.40787,4.0622 0.309,6.18013c-1.95602,0 -3.91419,0 -5.87114,0c1.79533,-0.30592 3.64937,-0.4088 5.56212,-0.309c0,-1.95694 0,-3.91419 0,-5.87113z" fill="#878787" fill-rule="evenodd" stroke="none" stroke-width="1" stroke-linecap="butt"/><path d="M512.92085,129.8783c1.17361,-0.30375 2.41026,-0.40697 3.70808,-0.309c0,1.33894 0,2.67816 0,4.01709c-0.30283,-1.17361 -0.40787,-2.40964 -0.309,-3.70807c-1.13405,0 -2.26596,0 -3.39908,0z" fill="#b0b0b0" fill-rule="evenodd" stroke="none" stroke-width="1" stroke-linecap="butt"/><path d="M440.30418,183.33655c-0.09827,1.40043 0.00464,2.73966 0.30901,4.01709c-0.08744,0.24379 -0.24195,0.44991 -0.46351,0.61802c-0.25215,-1.60189 -0.20086,-3.14693 0.1545,-4.6351z" fill="#8b8b8b" fill-rule="evenodd" stroke="none" stroke-width="1" stroke-linecap="butt"/><path d="M493.03421,132.43386c5.32148,-0.03787 9.87814,5.05855 10.17763,11.38314c0.29948,6.3246 -3.77164,11.48244 -9.09313,11.52028c-5.32148,0.03787 -9.87814,-5.05854 -10.17763,-11.38314c-0.29948,-6.3246 3.77164,-11.48245 9.09313,-11.52028z" data-paper-data="{&quot;index&quot;:null}" fill="#ffffff" fill-rule="nonzero" stroke="#000000" stroke-width="1" stroke-linecap="butt"/><path d="M465.89786,132.62703c5.32148,-0.03787 9.87814,5.05854 10.17763,11.38314c0.29947,6.3246 -3.77164,11.48244 -9.09313,11.52031c-5.32148,0.03787 -9.87814,-5.05855 -10.17764,-11.38314c-0.29947,-6.3246 3.77164,-11.48244 9.09313,-11.52028z" data-paper-data="{&quot;index&quot;:null}" fill="#ffffff" fill-rule="nonzero" stroke="#000000" stroke-width="1" stroke-linecap="butt"/><path d="M457.55462,142.7744c0,-1.58155 1.28209,-2.86363 2.86364,-2.86363c1.58155,0 2.86364,1.28209 2.86364,2.86363c0,1.58155 -1.28209,2.86364 -2.86364,2.86364c-1.58155,0 -2.86364,-1.28209 -2.86364,-2.86364z" data-paper-data="{&quot;index&quot;:null}" fill="#000000" fill-rule="nonzero" stroke="none" stroke-width="1" stroke-linecap="butt"/><path d="M483.9439,143.4424c0,-1.58155 1.28209,-2.86364 2.86364,-2.86364c1.58155,0 2.86364,1.28209 2.86364,2.86364c0,1.58155 -1.28209,2.86364 -2.86364,2.86364c-1.58155,0 -2.86364,-1.28209 -2.86364,-2.86364z" data-paper-data="{&quot;index&quot;:null}" fill="#000000" fill-rule="nonzero" stroke="none" stroke-width="1" stroke-linecap="butt"/><path d="M415.44962,83.27212c0.7644,-1.01921 1.78361,-0.2548 1.78361,-0.2548l1.65306,1.24018c7.47861,6.14125 14.86729,12.35819 22.189,18.68559c8.07467,6.97811 16.70868,13.21414 25.33064,19.49858c3.11524,2.27065 5.88097,5.1016 9.06827,7.21454c0,0 1.06004,0.7067 0.35335,1.76674c-0.7067,1.06004 -1.76674,0.35335 -1.76674,0.35335c-3.21568,-2.1544 -6.00583,-4.97959 -9.15572,-7.27552c-8.67898,-6.32599 -17.36772,-12.60549 -25.49587,-19.62981c-7.29149,-6.3013 -14.65056,-12.49116 -22.0964,-18.60931l-1.60842,-1.20591c0,0 -1.01921,-0.7644 -0.2548,-1.78361z" fill="#000000" fill-rule="nonzero" stroke="none" stroke-width="0.5" stroke-linecap="butt"/><path d="M528.2943,86.11671c0.56976,1.1395 -0.56976,1.70926 -0.56976,1.70926l-0.60296,0.27382c-4.10361,3.18964 -7.55447,6.7294 -11.0761,10.57142c-6.88515,7.51108 -12.96239,15.77573 -19.66149,23.47673c-2.61975,3.01156 -5.05865,7.05651 -8.61241,8.89243c0,0 -1.1395,0.56976 -1.70926,-0.56976c-0.56976,-1.1395 0.56976,-1.70926 0.56976,-1.70926c3.15966,-1.51067 5.52887,-5.64104 7.82948,-8.28573c6.7137,-7.7178 12.80506,-15.99829 19.70563,-23.52618c3.61616,-3.94465 7.17637,-7.58146 11.39004,-10.86094l1.02778,-0.54155c0,0 1.1395,-0.56976 1.70926,0.56976z" fill="#000000" fill-rule="nonzero" stroke="none" stroke-width="0.5" stroke-linecap="butt"/><path d="M456.29648,162.7078c2.97521,4.93996 10.13509,8.74377 15.3215,10.80422c4.47537,1.79019 11.77297,4.69079 16.6925,3.7279c7.68542,-1.50427 11.81414,-9.44779 14.71405,-15.9054c0.8085,-1.79598 1.56855,-3.70054 2.15608,-5.58103c0.30987,-0.99178 0.54911,-3.57346 1.40857,-4.20333c2.82171,-2.068 4.6363,4.35219 5.37626,5.89761c3.4899,7.28878 5.36906,13.66341 4.1268,21.75933c-2.05051,8.22062 -6.83879,17.47946 -14.39717,21.99809c-4.17395,2.49531 -9.22948,3.24243 -13.88421,4.39253c-9.56469,1.4399 -22.68393,0.76719 -30.00138,-6.46993c-2.24353,-2.21891 -3.57482,-5.71223 -4.6768,-8.59884c-2.10475,-5.52497 -4.69118,-11.31086 -5.27188,-17.25802c-0.36662,-3.75467 0.68101,-8.41929 2.29973,-12.28003c-0.02071,-0.01389 -0.04156,-0.02868 -0.06256,-0.04443c-0.81537,-0.61152 -0.20384,-1.42689 -0.20384,-1.42689l0.65305,-0.86714c0.7512,-0.86872 1.46544,-2.62565 2.40917,-3.50458c-0.00058,-0.21158 -0.0003,-0.41883 0.00037,-0.6209l0.06148,-0.09013l-0.04664,-0.00932l0.20014,-1.00069c0.08557,-0.47637 0.50212,-0.83784 1.00311,-0.83784c0.56289,0 1.01921,0.45632 1.01921,1.01921v1.22305h-0.20841c0.00947,2.44417 0.04249,5.77061 1.31086,7.87658zM453.18539,159.37364c-5.61507,10.134 -2.00903,20.294 1.85218,30.42963c0.98263,2.58515 2.16555,5.89291 4.19945,7.8694c6.90108,6.7063 19.21746,7.26429 28.17721,5.92556c4.41589,-1.09624 9.27332,-1.77434 13.23487,-4.14267c7.05472,-4.21753 11.52661,-12.99594 13.4447,-20.65017c0.99964,-6.56234 -0.08107,-11.67941 -2.64423,-17.74725c-0.64831,-1.53476 -1.48329,-3.0671 -2.19953,-4.57153c-0.28819,-0.60533 -0.58583,-1.20626 -0.8644,-1.81607c-0.21889,-0.47917 -0.52336,-1.96683 -0.62755,-1.45045c-0.62872,3.11572 -1.57078,6.04066 -2.87402,8.94946c-3.18224,7.0863 -7.78296,15.46664 -16.18706,17.07178c-5.33929,1.01978 -12.97249,-1.89132 -17.83607,-3.83671c-5.67271,-2.28282 -13.11744,-6.31449 -16.36168,-11.735c-0.72141,-1.20534 -1.10803,-2.72676 -1.31387,-4.296z" fill="#000000" fill-rule="nonzero" stroke="none" stroke-width="0.5" stroke-linecap="butt"/><path d="M454.54413,163.69376c3.24424,5.42051 10.69313,9.44187 16.36584,11.72469c4.86358,1.94539 12.39698,4.83791 17.73628,3.81812c8.4041,-1.60514 13.01443,-9.95062 16.19667,-17.03692c1.30324,-2.9088 2.25042,-5.82778 2.87914,-8.9435c0.10421,-0.51639 0.48214,0.90068 0.70102,1.37984c0.27857,0.60981 0.57805,1.21287 0.86625,1.8182c0.71624,1.50443 1.5555,3.04282 2.20381,4.57758c2.56316,6.06784 3.65123,11.21153 2.65159,17.77387c-1.91809,7.65423 -6.40732,16.47068 -13.46203,20.68821c-3.96153,2.36834 -8.84253,3.0581 -13.2584,4.15433c-8.95977,1.33873 -21.3256,0.76315 -28.22668,-5.94315c-2.03391,-1.9765 -3.22465,-5.29737 -4.20728,-7.88252c-3.8612,-10.13564 -7.46259,-20.34297 -1.84752,-30.47697c0.20585,1.56925 0.67987,3.14286 1.40129,4.34821z" data-paper-data="{&quot;noHover&quot;:false,&quot;origItem&quot;:[&quot;Path&quot;,{&quot;applyMatrix&quot;:true,&quot;segments&quot;:[[[384.46127,152.83681],[0.20197,1.53968],[-5.50925,9.94302]],[[386.27853,182.69298],[-3.78843,-9.94463],[0.96411,2.53643]],[[390.39885,190.41408],[-1.99558,-1.93925],[6.77102,6.57992]],[[418.04504,196.22798],[-8.79091,1.3135],[4.33267,-1.07558]],[[431.03049,192.16338],[-3.88688,2.3237],[6.92176,-4.13804]],[[444.2218,171.90238],[-1.88194,7.50998],[0.9808,-6.43867]],[[441.62741,154.48959],[2.51486,5.95348],[-0.63609,-1.50584]],[[439.46933,150.00421],[0.70274,1.47608],[-0.28276,-0.59392]],[[438.62122,148.22236],[0.27332,0.59832],[-0.21476,-0.47014]],[[438.00549,146.79925],[0.10224,-0.50666],[-0.61687,3.057]],[[435.18563,155.58005],[1.27868,-2.85398],[-3.12227,6.95275]],[[419.30364,172.33009],[8.24572,-1.57489],[-5.23866,1.00056]],[[401.80371,168.56569],[4.77192,1.90873],[-5.5658,-2.2398]],[[385.75038,157.05186],[3.1831,5.31836],[-0.70782,-1.18263]]],&quot;closed&quot;:true}]}" fill="#ff8b8b" fill-rule="nonzero" stroke="none" stroke-width="0.5" stroke-linecap="butt"/><path d="M745.42535,538.58335l-101.92079,-250.72513l21.40337,-29.55703l100.90158,240.53305l15.54292,26.4994l13.2497,-1.01921l18.34574,11.21129l5.09604,22.42257l-21.40337,27.51861l-43.82594,9.17287l-17.32654,-15.28812l-13.2497,-29.55703z" fill="#6e3232" fill-rule="nonzero" stroke="#000000" stroke-width="1" stroke-linecap="round"/><path d="M295.21614,202.49956l-236.66665,-42.80673l-11.41479,10.19208l-24.35156,-1.01921l-14.45873,-19.36495l-0.76099,-28.53782l15.21972,-14.26891l21.30761,2.03842l14.45873,19.36495l249.60341,46.88356z" fill="#6e3232" fill-rule="nonzero" stroke="#000000" stroke-width="1" stroke-linecap="round"/><path d="M-0.15304,289.45732l-65.28378,129.68534l27.34861,84.69247l13.2332,15.87984l6.17549,19.40869v17.64426l-12.35099,7.05771l-29.99525,-0.88221l-17.64426,-11.46877l-6.17549,-27.34861l9.70435,-16.76205l-20.2909,-88.22132l74.10591,-148.21182z" fill="#99d9ff" fill-rule="nonzero" stroke="#080000" stroke-width="1.5" stroke-linecap="round"/><path d="M192.25027,207.47602c7.42023,-4.63872 16.04673,-8.1678 24.60777,-11.41158c1.59547,-0.60448 3.57462,-0.40859 5.38264,-0.53594c1.73527,-0.12227 2.44996,-0.93992 4.04762,-1.33189c2.98885,-0.73336 5.15688,-0.54661 7.93002,-1.66881c4.4905,-1.10873 9.10715,-1.47233 13.6682,-2.01181c1.41385,-0.16722 2.36812,-1.22814 3.73241,-1.52537c4.456,-0.97076 9.97604,-0.58017 14.3436,-1.99237c0.86771,-0.28056 1.39313,-1.06263 2.30634,-1.25417c1.608,-0.33723 3.5085,0.46232 5.14267,0.18904c1.2745,-0.21313 2.34113,-1.3616 3.65657,-1.00832c4.22706,1.13521 5.22141,7.74596 6.22089,10.52969c1.66927,3.42277 4.48132,6.71729 5.6535,10.25314c0.40984,1.23625 -0.6331,1.70871 0.61176,2.68509c0.65608,0.51457 1.70498,0.67138 2.19961,1.29383c1.86461,2.34628 1.70176,5.71512 4.16544,8.0561c1.85117,1.75904 3.8265,2.43849 5.36919,4.70454c1.63194,2.39717 3.45511,7.45126 0.20946,9.2903c-0.97201,0.55082 -7.19084,0.23292 -8.54205,0.24963c-3.65624,-0.13463 -7.59302,0.18294 -11.21728,-0.1404c-0.74484,-0.06646 -2.7466,-1.03477 -3.73503,-0.87137c-0.80563,0.13319 -1.37337,0.80895 -2.21532,0.79967c-2.31924,-0.02554 -2.78011,-1.21176 -4.77385,-1.03964c-3.0946,0.26716 -2.7727,2.26884 -5.00269,3.20932c-0.68591,0.2893 -1.70458,-0.37614 -2.43614,-0.15923c-0.79547,0.23585 -0.94637,1.33576 -1.80586,1.41693c-2.29237,0.2164 -8.16828,-2.24513 -10.34384,-2.91673c-5.44052,-1.6795 -11.7548,-2.9074 -17.39138,-3.95689c-3.49574,-1.09434 -8.95186,-1.8855 -12.49084,-1.71128c-0.8073,0.03973 -1.32044,0.80141 -2.13659,0.79096c-7.39656,-0.09489 -17.36751,-4.7377 -24.66121,-6.97689c-1.5162,-0.46547 -6.47914,-1.48599 -7.35536,-2.55619c-2.00987,-2.45485 -0.51672,-5.1752 0.16444,-7.39397c0.17293,-0.56323 0.73488,-2.3937 0.9078,-2.95694c0,0 0.48634,-1.5841 2.46448,-0.97678c0.7204,0.22114 1.11394,0.5718 1.32312,0.92843z" data-paper-data="{&quot;index&quot;:null}" fill="#059764" fill-rule="nonzero" stroke="#000000" stroke-width="1" stroke-linecap="butt"/><path d="M8.09983,188.05733c-0.31573,-0.26693 -0.59415,-0.71451 -0.6892,-1.46207c-0.26108,-2.05273 1.38274,-2.26181 1.38274,-2.26181c0.58448,-0.07434 2.48398,-0.31591 3.06843,-0.39026c2.30242,-0.29283 5.23755,-1.30019 7.3137,1.09886c0.90509,1.04589 1.06435,6.11015 1.26444,7.68352c0.96261,7.56872 3.83707,18.18534 2.66925,25.48975c-0.12887,0.80597 -0.9669,1.18172 -1.14371,1.97042c-0.77516,3.45745 -0.92602,8.96856 -0.44382,12.59971c0.07291,5.73297 0.20606,12.16417 0.93321,17.81139c0.29077,2.25822 1.71423,8.46782 1.11008,10.68972c-0.22654,0.83307 -1.33609,0.79419 -1.70413,1.53779c-0.33849,0.68387 0.14351,1.80108 -0.25853,2.42761c-1.30698,2.03695 -3.22445,1.3784 -4.01541,4.38213c-0.50959,1.93519 0.58066,2.5916 0.21033,4.88122c-0.13444,0.83119 -0.89713,1.27538 -1.16575,2.0465c-0.32956,0.94608 0.2832,3.08364 0.22169,3.82891c-0.29942,3.62632 -1.28367,7.45127 -1.77451,11.07692c-0.2469,1.32857 -0.99415,7.51051 -1.70265,8.37436c-2.36558,2.88453 -7.03473,0.22618 -9.11849,-1.79065c-1.96978,-1.90652 -2.30244,-3.96879 -3.72002,-6.09281c-1.88656,-2.8268 -5.23383,-3.24082 -7.22776,-5.47823c-0.52898,-0.59354 -0.50463,-1.65381 -0.89977,-2.38803c-0.74978,-1.39313 -1.39319,-0.44603 -2.54144,-1.06068c-3.28418,-1.75798 -6.0509,-5.09065 -9.13886,-7.31915c-2.5725,-1.45952 -8.91686,-3.56666 -9.31462,-7.92539c-0.12379,-1.35643 1.18973,-2.21159 1.6171,-3.43106c0.54796,-1.56363 0.08421,-3.57264 0.6907,-5.09959c0.34448,-0.86718 1.20469,-1.25154 1.6291,-2.05869c2.13631,-4.06275 2.69277,-9.56855 4.40919,-13.79373c0.52553,-1.29362 1.73363,-2.053 2.13952,-3.41763c1.30935,-4.40225 2.45493,-8.88927 4.31317,-13.12492c1.57866,-2.54114 1.76436,-4.70926 2.99666,-7.52928c0.65868,-1.50741 1.58622,-2.0722 2.00262,-3.76121c0.43381,-1.75981 0.57827,-3.74338 1.44598,-5.21241c4.65617,-7.88249 9.60462,-15.78083 15.44076,-22.30133z" data-paper-data="{&quot;index&quot;:null}" fill="#059764" fill-rule="nonzero" stroke="#000000" stroke-width="1" stroke-linecap="butt"/><path d="M369.35138,846.25576l-13.25645,-85.19173l62.96819,0.75389l22.53597,84.43783z" data-paper-data="{&quot;index&quot;:null}" fill="#2a2543" fill-rule="nonzero" stroke="#000000" stroke-width="1" stroke-linecap="round"/><path d="M-38.93624,836.55323l22.53597,-84.43779l62.96819,-0.7539l-13.25646,85.19173z" data-paper-data="{&quot;index&quot;:null}" fill="#2a2543" fill-rule="nonzero" stroke="#000000" stroke-width="1" stroke-linecap="round"/><path d="M428.95453,832.54956c-1.36392,0.74737 -2.70481,1.17502 -4.03231,1.48335c0.00897,0.11479 0.01366,0.2346 0.01366,0.3595c0,3.04309 -2.77684,3.04309 -2.77684,3.04309c-12.26439,0 -24.52873,0 -36.79309,0c-3.15599,0 -11.00886,-1.3806 -13.33657,0.43954c-1.3408,1.04839 -2.30066,0.94467 -4.01869,1.08201c-0.19394,0.01552 -0.54662,0.04869 -0.85827,0.0691c1.66128,1.29972 0.85827,13.31074 0.85827,16.66799c0,14.20118 0,28.40234 0,42.60353c0,2.5359 0,5.07191 0,7.60777c0,1.01439 -0.48838,3.9048 0,3.04309c1.85811,-3.27824 5.48438,-1.51565 9.71894,-1.52154c8.34726,-0.01157 17.28393,-0.98979 25.48221,0.65587c14.97066,3.28124 31.06653,-1.96117 45.91772,1.69459c12.50811,3.42687 27.48096,3.73569 40.36775,3.73569c3.23967,0 6.47931,0 9.71895,0c0.48745,0 1.25277,-0.07194 2.04516,-0.15081c-0.7971,-1.56109 0.03748,-5.33617 0.03748,-7.45701c0,-7.92288 2.4234,-21.58975 -0.55167,-28.708c-2.62912,-8.64366 -4.29224,-16.96575 -8.58087,-25.58604c-3.16432,-6.3604 -8.0902,-11.99833 -10.70829,-18.31635c-1.26928,-3.76551 -2.40556,-1.07432 -6.53901,-1.94578c-9.14631,-1.92833 -18.31963,-1.52154 -27.76838,-1.52154c-3.44414,0 -7.76969,0.76634 -11.10737,0c-0.70455,-0.16176 -2.02868,-0.76311 -3.02114,-1.2556c1.81532,1.53695 -2.32697,3.02372 -4.06754,3.97747zM385.36581,831.34916c9.26903,0 18.5381,0 27.8071,0c0.26742,-0.14648 0.53472,-0.29302 0.80209,-0.43954c3.52193,-1.92984 6.70166,-1.41841 9.71895,-2.28237c4.11198,-1.17732 6.5716,-5.14237 10.8142,-6.08621c2.43723,-0.54216 9.18752,1.2003 12.64233,1.2003c9.3679,0 18.72555,-0.58702 27.76838,1.52157c5.07991,1.1845 9.373,-1.12472 11.74865,5.92305c0.35021,2.67721 3.1532,4.35054 4.61926,6.40998c2.24049,3.14739 4.11312,7.80867 5.84682,11.29341c4.29783,8.63877 6.1876,17.52415 8.88226,26.38327c2.40811,9.33822 0.8367,20.91806 0.8367,30.63263c0,5.37081 0.7724,9.15618 -2.77684,13.69401c-1.23769,1.58241 -12.67178,0 -14.57841,0c-13.29216,0 -28.82314,-0.38551 -41.71475,-3.91744c-14.16259,-4.53663 -31.02104,1.57745 -45.65994,-1.63104c-11.79661,-2.91189 -30.00508,4.84514 -39.66562,-5.10238c-0.95643,-0.98487 0,-9.02928 0,-10.65088c0,-14.20118 0,-28.40233 0,-42.6035c0,-4.74797 -1.90984,-16.08403 0.98737,-19.61964c5.05591,-6.17 14.51804,-4.72526 21.92149,-4.72526z" data-paper-data="{&quot;index&quot;:null}" fill="#000000" fill-rule="nonzero" stroke="none" stroke-width="1" stroke-linecap="butt"/><path d="M424.88349,833.88663c1.32744,-0.30832 2.68452,-0.73999 4.04852,-1.48737c1.74059,-0.95372 5.89933,-2.44231 4.08396,-3.97928c0.99248,0.49247 2.32761,1.09375 3.03214,1.25556c3.33768,0.76634 7.70197,0.00761 11.14603,0.00761c9.44869,0 18.68157,-0.36412 27.82785,1.56418c4.13347,0.87148 5.27839,-1.80815 6.54761,1.95734c2.61816,6.31803 7.56481,12.00128 10.72916,18.36169c4.28867,8.6203 5.95749,17.00016 8.58657,25.64383c2.97517,7.11826 0.53869,20.8378 0.53869,28.76066c0,2.12081 -0.83975,5.90668 -0.04263,7.46778c-0.79238,0.07887 -1.55874,0.15275 -2.04622,0.15275c-3.23966,0 -6.48496,0.00953 -9.72461,0.00953c-12.88692,0 -27.92052,-0.25583 -40.42864,-3.68273c-14.8512,-3.65572 -31.09417,1.55715 -46.06486,-1.7241c-8.19828,-1.64573 -17.16021,-0.7022 -25.50749,-0.69061c-4.23452,0.00588 -7.86411,-1.76324 -9.72221,1.51502c-0.48838,0.86165 -0.00207,-2.03331 -0.00207,-3.04769c0,-2.5359 -0.00476,-5.08419 -0.00476,-7.62009c0,-14.20118 -0.0058,-28.48682 -0.0058,-42.68799c0,-3.35723 0.81147,-15.39741 -0.84986,-16.69711c0.31167,-0.0204 0.66466,-0.05436 0.85858,-0.06988c1.71796,-0.13733 2.68004,-0.03869 4.0208,-1.08705c2.32768,-1.82008 10.18773,-0.45364 13.34369,-0.45364c12.26442,0 24.59416,-0.0605 36.85852,-0.0605c0,0 2.79047,-0.00521 2.79047,-3.04829c0,-0.12494 -0.00433,-0.24474 -0.01332,-0.35957z" data-paper-data="{&quot;noHover&quot;:false,&quot;origItem&quot;:[&quot;Path&quot;,{&quot;applyMatrix&quot;:true,&quot;segments&quot;:[[[579.60736,595.76373],[0.95609,-0.20262],[0.00646,0.07548]],[[579.61718,596],[0,-0.08208],[0,2]],[[577.61718,598],[0,0],[-8.83333,0]],[[551.11718,598],[8.83333,0],[-2.27308,0]],[[541.51161,598.28885],[1.67648,-1.19621],[-0.96568,0.68904]],[[538.61718,599],[1.23739,-0.09027],[-0.13966,0.01019]],[[537.99901,599.04541],[0.22447,-0.0134],[1.19653,0.85421]],[[538.61718,610],[0,-2.20646],[0,9.33333]],[[538.61718,638],[0,-9.33333],[0,1.66667]],[[538.61718,643],[0,-1.66667],[0,0.66667]],[[538.61718,645],[-0.35177,0.56631],[1.33831,-2.15456]],[[545.61718,644],[-3.04994,0.00386],[6.01206,-0.00761]],[[563.97058,644.43107],[-5.90478,-1.08158],[10.78253,2.15651]],[[597.04254,645.54479],[-10.6965,-2.40266],[9.00888,2.25222]],[[626.11718,648],[-9.28168,0],[2.33333,0]],[[633.11718,648],[-2.33333,0],[0.35109,0]],[[634.59021,647.90091],[-0.5707,0.05184],[-0.57412,-1.02596]],[[634.61718,643],[0,1.39387],[0,-5.20707]],[[634.21982,624.13246],[2.14282,4.67827],[-1.8936,-5.6808]],[[628.03948,607.31672],[3.08887,5.66543],[-2.2791,-4.1802]],[[620.32688,595.27881],[1.8857,4.15235],[-0.91417,-2.47477]],[[615.61718,594],[2.9771,0.57275],[-6.58756,-1.26734]],[[595.61718,593],[6.8054,0],[-2.48058,0]],[[587.61718,593],[2.40395,0.50364],[-0.50743,-0.10631]],[[585.44122,592.1748],[0.71481,0.32365],[1.30749,1.01011]],[[582.51161,594.78885],[1.25365,-0.62682],[-0.98239,0.4912]]],&quot;closed&quot;:true}],&quot;index&quot;:null}" fill="#403d40" fill-rule="nonzero" stroke="none" stroke-width="1" stroke-linecap="butt"/><path d="M271.70645,644.28936c0,-0.3529 -0.03846,-0.94382 -0.07522,-1.52433c-0.14301,0.23558 -0.35639,0.43644 -0.63075,0.60728c-0.82275,0.91704 -2.07088,0.91707 -2.07088,0.91707c-10.577,0 -16.6861,8.07845 -20.42521,16.5765c-0.43989,0.96413 -0.40101,2.12578 -0.40101,3.20372c0,0.30668 -0.02674,0.79407 -0.05601,1.29826c0.02797,-0.16232 0.09776,-0.2957 0.2399,-0.38129c0.62805,-0.3783 6.08814,1.93677 6.75813,0.60464c0.20136,-0.40037 -0.98762,-0.47577 -0.92205,-0.92722c0.80651,-5.55022 9.35982,-13.94545 13.56443,-16.24935c1.09049,-0.59756 2.31811,-0.89823 3.53848,-1.03592c-0.47715,-0.81434 0.48014,-2.06077 0.48014,-3.08921zM248.03266,665.61966c-0.06295,1.08186 -0.11885,2.11601 0.07063,1.49296c0.12955,-0.42574 -0.05746,-1.02346 -0.07063,-1.49296zM243.53707,658.14402c3.96867,-8.19915 9.24692,-15.67504 17.47239,-18.61755c0.77266,-1.32326 2.36651,-1.32326 2.36651,-1.32326h1.38838c3.14381,0 4.80707,-1.2003 8.18395,-1.2003c4.68965,0 5.77674,10.21934 3.32441,13.21209c-1.5475,1.88849 -4.02974,2.50816 -6.10129,3.64327c-6.13185,3.35993 -8.40707,13.01505 -15.12602,17.81914c-7.12124,5.09165 -14.9612,-5.96554 -11.50837,-13.53336z" data-paper-data="{&quot;index&quot;:null}" fill="#000000" fill-rule="nonzero" stroke="none" stroke-width="1" stroke-linecap="butt"/><path d="M271.73435,642.663c0.03685,0.58051 0.08173,1.17993 0.08173,1.53279c0,1.02842 -0.94589,2.29365 -0.46876,3.10805c-1.22041,0.1377 -2.45503,0.42596 -3.5456,1.02354c-4.20465,2.30387 -12.7992,10.65649 -13.6057,16.20675c-0.06565,0.45149 0.99147,0.79418 0.79007,1.19452c-0.67001,1.33212 -6.1774,-1.02296 -6.80549,-0.64469c-0.14218,0.08567 -0.21133,0.21982 -0.23926,0.38221c0.02925,-0.5042 0.05089,-0.99863 0.05089,-1.3053c0,-1.07787 -0.05098,-2.26069 0.38891,-3.22484c3.73908,-8.49804 10.06872,-16.75521 20.64567,-16.75521c0,0 1.25383,0.00651 2.07656,-0.91055c0.27439,-0.17084 0.48785,-0.37163 0.63082,-0.60722z" data-paper-data="{&quot;noHover&quot;:false,&quot;origItem&quot;:[&quot;Path&quot;,{&quot;applyMatrix&quot;:true,&quot;segments&quot;:[[[607.563,601.99816],[0.02649,0.38155],[-0.10299,0.15484]],[[607.10872,602.39727],[0.1976,-0.11227],[-0.59254,0.60273]],[[605.61718,603],[0,0],[-7.618,0]],[[590.90604,613.89443],[2.69308,-5.58508],[-0.31682,0.63364]],[[590.61718,616],[0,-0.70843],[0,0.20156]],[[590.57685,616.85325],[0.02106,-0.33136],[0.02013,-0.10671]],[[590.74964,616.60263],[-0.10238,0.05628],[0.45234,-0.24865]],[[595.61718,617],[-0.48256,0.87548],[0.14503,-0.26312]],[[594.95308,616.3906],[-0.04725,0.29671],[0.58086,-3.64773]],[[604.72276,605.71115],[-3.02833,1.51416],[0.78545,-0.39273]],[[607.27135,605.03032],[-0.87898,0.0905],[-0.34365,-0.53523]],[[607.61718,603],[0,0.6759],[0,-0.23192]]],&quot;closed&quot;:true}],&quot;index&quot;:null}" fill="#ffffff" fill-rule="nonzero" stroke="none" stroke-width="1" stroke-linecap="butt"/><path d="M-21.0741,645.59644l18.03636,-67.57864l50.39572,-0.60337l-10.60962,68.18203z" data-paper-data="{&quot;index&quot;:null}" fill="#2a2543" fill-rule="nonzero" stroke="#000000" stroke-width="1" stroke-linecap="round"/><path d="M-21.6903,823.0729c-1.74058,-0.95373 -5.88286,-2.44049 -4.06754,-3.97747c-0.99248,0.4925 -2.31663,1.09384 -3.02114,1.25557c-3.33768,0.76634 -7.66324,0 -11.10737,0c-9.44874,0 -18.62204,-0.40679 -27.76838,1.52154c-4.13347,0.87148 -5.26976,-1.81971 -6.53905,1.94578c-2.61814,6.31803 -7.54401,11.95594 -10.70829,18.31635c-4.28867,8.6203 -5.95177,16.94239 -8.58087,25.58604c-2.9751,7.11822 -0.55167,20.78511 -0.55167,28.70797c0,2.12081 0.83456,5.89593 0.03748,7.45701c0.79239,0.07887 1.55774,0.15081 2.04516,0.15081c3.23966,0 6.4793,0 9.71895,0c12.88684,0 27.85968,-0.30884 40.36775,-3.73569c14.8512,-3.65579 30.94705,1.58665 45.91772,-1.69462c8.19828,-1.64569 17.13495,-0.66746 25.48219,-0.65589c4.23458,0.00588 7.86081,-1.75672 9.71894,1.52157c0.48838,0.86167 0,-2.02875 0,-3.04309c0,-2.5359 0,-5.07186 0,-7.60777c0,-14.20118 0,-28.40234 0,-42.60353c0,-3.35723 -0.80302,-15.3683 0.85827,-16.66799c-0.31167,-0.0204 -0.66435,-0.05358 -0.85827,-0.06909c-1.71805,-0.13736 -2.67791,-0.03361 -4.01869,-1.08201c-2.32768,-1.82009 -10.18061,-0.43954 -13.33657,-0.43954c-12.26435,0 -24.52869,0 -36.79309,0c0,0 -2.77684,0 -2.77684,-3.04309c0,-0.12494 0.00465,-0.24469 0.01366,-0.3595c-1.32747,-0.30832 -2.66837,-0.73597 -4.03231,-1.48335zM21.89835,821.87263c7.40341,0 16.86558,-1.44472 21.92149,4.72526c2.89726,3.53563 0.98737,14.87165 0.98737,19.61964c0,14.20118 0,28.40234 0,42.60353c0,1.62161 0.95643,9.666 0,10.65088c-9.66052,9.94753 -27.869,2.19043 -39.66562,5.10238c-14.63886,3.20849 -31.49734,-2.9056 -45.65993,1.63106c-12.89161,3.53195 -28.42257,3.91744 -41.71475,3.91744c-1.90664,0 -13.34074,1.58241 -14.57841,0c-3.54924,-4.53783 -2.77684,-8.3232 -2.77684,-13.69401c0,-9.71458 -1.57142,-21.29438 0.83674,-30.6326c2.69468,-8.8591 4.58439,-17.74448 8.88226,-26.38327c1.73371,-3.48474 3.60637,-8.14604 5.84682,-11.29341c1.46607,-2.05947 4.26906,-3.73279 4.61926,-6.41002c2.37564,-7.04776 6.66874,-4.7385 11.74865,-5.92305c9.04284,-2.10856 18.40051,-1.52157 27.76838,-1.52157c3.45483,0 10.20514,-1.74246 12.64233,-1.2003c4.24263,0.94382 6.70222,4.90887 10.8142,6.08621c3.01731,0.86394 6.19703,0.35251 9.71895,2.28237c0.26737,0.14648 0.53472,0.29302 0.80213,0.43954c9.26901,0 18.53805,0 27.80708,0z" data-paper-data="{&quot;index&quot;:null}" fill="#000000" fill-rule="nonzero" stroke="none" stroke-width="1" stroke-linecap="butt"/><path d="M-17.61938,824.40999c-0.00899,0.11488 -0.01332,0.23468 -0.01332,0.35957c0,3.04309 2.79047,3.04829 2.79047,3.04829c12.26435,0 24.59407,0.0605 36.85852,0.0605c3.15596,0 11.01601,-1.36642 13.34369,0.45364c1.34076,1.04839 2.30281,0.94973 4.0208,1.08705c0.19394,0.01552 0.5469,0.04947 0.85858,0.06989c-1.66131,1.29972 -0.84986,13.33989 -0.84986,16.69711c0,14.20118 -0.0058,28.48682 -0.0058,42.68799c0,2.5359 -0.00476,5.08419 -0.00476,7.62009c0,1.01439 0.4863,3.90933 -0.00207,3.04769c-1.85811,-3.27824 -5.48764,-1.50911 -9.72221,-1.51502c-8.34726,-0.01157 -17.3092,-0.9551 -25.50749,0.69061c-14.97067,3.28124 -31.21367,-1.93166 -46.06486,1.7241c-12.50811,3.42689 -27.5417,3.68273 -40.42864,3.68273c-3.23966,0 -6.48493,-0.00953 -9.72461,-0.00953c-0.48748,0 -1.25388,-0.07388 -2.04622,-0.15275c0.7971,-1.56109 -0.04263,-5.34694 -0.04263,-7.46778c0,-7.92288 -2.43649,-21.64243 0.53869,-28.76066c2.62912,-8.64366 4.29794,-17.0235 8.58657,-25.64379c3.16435,-6.3604 8.11102,-12.0437 10.72916,-18.36169c1.26928,-3.76551 2.41419,-1.08585 6.54765,-1.95731c9.14629,-1.92833 18.37917,-1.5642 27.82785,-1.5642c3.44406,0 7.80835,0.75874 11.14603,-0.0076c0.7045,-0.1618 2.03964,-0.76309 3.03214,-1.25556c-1.81537,1.53695 2.34338,3.02555 4.08396,3.97928c1.36401,0.74737 2.72109,1.17904 4.04852,1.48737z" data-paper-data="{&quot;noHover&quot;:false,&quot;origItem&quot;:[&quot;Path&quot;,{&quot;applyMatrix&quot;:true,&quot;segments&quot;:[[[579.60736,595.76373],[0.95609,-0.20262],[0.00646,0.07548]],[[579.61718,596],[0,-0.08208],[0,2]],[[577.61718,598],[0,0],[-8.83333,0]],[[551.11718,598],[8.83333,0],[-2.27308,0]],[[541.51161,598.28885],[1.67648,-1.19621],[-0.96568,0.68904]],[[538.61718,599],[1.23739,-0.09027],[-0.13966,0.01019]],[[537.99901,599.04541],[0.22447,-0.0134],[1.19653,0.85421]],[[538.61718,610],[0,-2.20646],[0,9.33333]],[[538.61718,638],[0,-9.33333],[0,1.66667]],[[538.61718,643],[0,-1.66667],[0,0.66667]],[[538.61718,645],[-0.35177,0.56631],[1.33831,-2.15456]],[[545.61718,644],[-3.04994,0.00386],[6.01206,-0.00761]],[[563.97058,644.43107],[-5.90478,-1.08158],[10.78253,2.15651]],[[597.04254,645.54479],[-10.6965,-2.40266],[9.00888,2.25222]],[[626.11718,648],[-9.28168,0],[2.33333,0]],[[633.11718,648],[-2.33333,0],[0.35109,0]],[[634.59021,647.90091],[-0.5707,0.05184],[-0.57412,-1.02596]],[[634.61718,643],[0,1.39387],[0,-5.20707]],[[634.21982,624.13246],[2.14282,4.67827],[-1.8936,-5.6808]],[[628.03948,607.31672],[3.08887,5.66543],[-2.2791,-4.1802]],[[620.32688,595.27881],[1.8857,4.15235],[-0.91417,-2.47477]],[[615.61718,594],[2.9771,0.57275],[-6.58756,-1.26734]],[[595.61718,593],[6.8054,0],[-2.48058,0]],[[587.61718,593],[2.40395,0.50364],[-0.50743,-0.10631]],[[585.44122,592.1748],[0.71481,0.32365],[1.30749,1.01011]],[[582.51161,594.78885],[1.25365,-0.62682],[-0.98239,0.4912]]],&quot;closed&quot;:true}],&quot;index&quot;:null}" fill="#403d40" fill-rule="nonzero" stroke="none" stroke-width="1" stroke-linecap="butt"/><path d="M-56.5473,835.56666c0,1.02843 0.95728,2.2749 0.48014,3.08921c1.22038,0.1377 2.44797,0.43834 3.53852,1.03592c4.2046,2.30391 12.75791,10.69912 13.5644,16.24935c0.06558,0.45145 -1.12339,0.52691 -0.92205,0.92726c0.67001,1.33212 6.13011,-0.98294 6.75813,-0.60464c0.14214,0.08565 0.21196,0.21902 0.23993,0.38129c-0.02925,-0.50419 -0.05602,-0.99161 -0.05602,-1.29827c0,-1.07793 0.03885,-2.23959 -0.40101,-3.20372c-3.73911,-8.498 -9.84823,-16.5765 -20.42523,-16.5765c0,0 -1.24816,-0.00001 -2.07088,-0.91707c-0.27439,-0.17084 -0.48774,-0.37169 -0.63075,-0.60726c-0.03675,0.58051 -0.07522,1.17145 -0.07522,1.52433zM-32.94419,858.3899c0.18953,0.62305 0.13362,-0.41111 0.07063,-1.49296c-0.01318,0.46951 -0.20019,1.06721 -0.07063,1.49296zM-28.37789,849.42122c3.45282,7.56782 -4.38715,18.62504 -11.50839,13.53336c-6.71896,-4.80407 -8.99418,-14.4592 -15.12602,-17.81912c-2.07154,-1.13511 -4.55376,-1.75477 -6.10129,-3.64327c-2.45232,-2.99275 -1.36525,-13.2121 3.32441,-13.2121c3.37689,0 5.04015,1.2003 8.18395,1.2003h1.38838c0,0 1.59382,0 2.36651,1.32326c8.22549,2.94249 13.50374,10.41839 17.47239,18.61755z" data-paper-data="{&quot;index&quot;:null}" fill="#000000" fill-rule="nonzero" stroke="none" stroke-width="1" stroke-linecap="butt"/><path d="M-56.57518,833.94024c0.14294,0.23558 0.35644,0.43639 0.63082,0.60723c0.82275,0.91704 2.07656,0.91055 2.07656,0.91055c10.577,0 16.90664,8.25717 20.64567,16.75518c0.43991,0.96413 0.38891,2.14697 0.38891,3.22485c0,0.30668 0.02164,0.80108 0.05089,1.30529c-0.02791,-0.16237 -0.09707,-0.29654 -0.23926,-0.38219c-0.62805,-0.3783 -6.13548,1.97678 -6.80549,0.64469c-0.20137,-0.40037 0.85575,-0.74303 0.79007,-1.19451c-0.80647,-5.55022 -9.40105,-13.90285 -13.6057,-16.20676c-1.09055,-0.59756 -2.32518,-0.88582 -3.5456,-1.02353c0.47715,-0.8144 -0.46876,-2.07963 -0.46876,-3.10805c0,-0.35288 0.04487,-0.95225 0.08173,-1.53279z" data-paper-data="{&quot;noHover&quot;:false,&quot;origItem&quot;:[&quot;Path&quot;,{&quot;applyMatrix&quot;:true,&quot;segments&quot;:[[[607.563,601.99816],[0.02649,0.38155],[-0.10299,0.15484]],[[607.10872,602.39727],[0.1976,-0.11227],[-0.59254,0.60273]],[[605.61718,603],[0,0],[-7.618,0]],[[590.90604,613.89443],[2.69308,-5.58508],[-0.31682,0.63364]],[[590.61718,616],[0,-0.70843],[0,0.20156]],[[590.57685,616.85325],[0.02106,-0.33136],[0.02013,-0.10671]],[[590.74964,616.60263],[-0.10238,0.05628],[0.45234,-0.24865]],[[595.61718,617],[-0.48256,0.87548],[0.14503,-0.26312]],[[594.95308,616.3906],[-0.04725,0.29671],[0.58086,-3.64773]],[[604.72276,605.71115],[-3.02833,1.51416],[0.78545,-0.39273]],[[607.27135,605.03032],[-0.87898,0.0905],[-0.34365,-0.53523]],[[607.61718,603],[0,0.6759],[0,-0.23192]]],&quot;closed&quot;:true}],&quot;index&quot;:null}" fill="#ffffff" fill-rule="nonzero" stroke="none" stroke-width="1" stroke-linecap="butt"/><path d="M5.1415,304.70924v-9.60499l249.22153,-1.60086l222.56933,512.59369l-177.59553,-3.69776l-158.15752,-363.02463l-14.52868,-17.16468l-13.44218,11.17153l-9.59754,22.81358l-30.86137,325.56225l-129.91335,4.8025z" data-paper-data="{&quot;index&quot;:null}" fill="#059764" fill-rule="nonzero" stroke="#080000" stroke-width="1" stroke-linecap="round"/><path d="M-7.61785,443.93122l53.02584,7.53906l-7.95389,46.74235l-37.11809,51.26583l-25.18724,3.01564" data-paper-data="{&quot;index&quot;:null}" fill="none" fill-rule="nonzero" stroke="#000000" stroke-width="1" stroke-linecap="round"/><path d="M278.72171,547.97069l-25.18724,-3.01564l-37.1181,-51.26583l-7.95389,-46.74235l53.02584,-7.53906" data-paper-data="{&quot;index&quot;:null}" fill="none" fill-rule="nonzero" stroke="#000000" stroke-width="1" stroke-linecap="round"/><path d="M139.137,310.55143c0,1.08103 0,2.16206 0,3.24309c-2.16206,0 -4.32412,0 -6.48618,0c-42.40015,-0.97293 -84.80029,-1.93396 -127.20116,-2.88276c0,-8.04754 0,-16.09545 0,-24.143c44.31574,1.33363 88.63796,2.41466 132.96666,3.2431c0.29548,6.84399 0.53691,13.69052 0.72068,20.53956z" fill="#059764" fill-rule="evenodd" stroke="none" stroke-width="1" stroke-linecap="butt"/><path d="M138.05597,283.88603c0.35674,1.73145 0.47565,3.53317 0.36035,5.40516c-1.51345,0.11422 -2.95481,-0.00612 -4.32412,-0.36035c1.32246,0 2.64131,0 3.96378,0c0,-1.68172 0,-3.36309 0,-5.04481z" fill="#868686" fill-rule="evenodd" stroke="none" stroke-width="1" stroke-linecap="butt"/><path d="M236.79002,292.89461c5.51325,0.51853 11.03732,0.75852 16.57579,0.72068c0,8.88859 0,17.77682 0,26.6654c-6.12584,0 -12.25167,0 -18.37752,0c-0.29908,-8.29078 -0.65944,-16.57867 -1.08103,-24.86368c0,-0.84068 0,-1.68172 0,-2.5224c0.96211,0 1.92062,0 2.88276,0z" fill="#059764" fill-rule="evenodd" stroke="none" stroke-width="1" stroke-linecap="butt"/><path d="M236.79002,292.89461c-0.96211,0 -1.92062,0 -2.88276,0c0,0.84068 0,1.68172 0,2.5224c-0.34952,-0.88212 -0.47205,-1.84315 -0.36035,-2.88275c1.15671,-0.11171 2.23774,0.00829 3.2431,0.36035z" fill="#6d6d6d" fill-rule="evenodd" stroke="none" stroke-width="1" stroke-linecap="butt"/><path d="M139.137,310.55143c0.35314,1.12607 0.47205,2.32709 0.36035,3.60344c-2.34944,0.11639 -4.63401,-0.0036 -6.84652,-0.36035c2.16206,0 4.32412,0 6.48618,0c0,-1.08103 0,-2.16206 0,-3.24309z" fill="#7f7f7f" fill-rule="evenodd" stroke="none" stroke-width="1" stroke-linecap="butt"/><path d="M81.42473,47.57944l45.17447,44.37884l5.48105,5.83467l133.57851,-22.45463l0.53042,6.01147l-7.77956,31.11823l-9.37083,36.95289l-6.6303,25.81398l2.74052,38.54417l0.88404,10.60848l1.67968,22.80825l0.44202,0.88404v0.35362l-0.35362,0.53043l2.74052,34.65439h3.09415l0.1768,0.1768l0.70724,8.30998l0.1768,0.70723l-0.1768,0.79564l1.76809,20.77495l-0.35362,0.1768l-24.57633,-1.76809l0.88404,13.96783l-33.94715,-3.00574l-0.53043,-0.97244l-70.90004,-5.83467l-1.06085,0.79563h-1.41447l-22.98505,-2.1217l-0.35362,-12.02295l-94.41552,-6.6303l-1.41447,-0.44202l-0.35361,-0.35362l2.47531,-46.23532l-0.35361,-1.50287v-0.35362h0.53042l0.1768,-6.54189v-0.35362l0.70724,-11.84614l0.88404,-16.79677l1.94489,-39.95863l2.03329,-40.13543l-19.7141,-10.52008l-1.23766,-1.41447l0.61882,-5.39264l10.8737,-15.91273l21.04015,-30.58779l31.38344,-45.43968h0.35362l24.84154,24.39951z" fill="#5cc2ff" fill-rule="evenodd" stroke="none" stroke-width="1" stroke-linecap="butt" opacity="0.978"/><path d="M56.49479,23.71035l69.75079,68.42473l1.59127,2.47531l0.1768,5.83467l-1.41447,-2.12171l-70.28122,-70.36962l-0.61882,0.35361l-62.76688,91.94021l0.1768,-4.06658l0.35363,-0.88405l63.03209,-91.58659z" fill="#5cc2ff" fill-rule="evenodd" stroke="none" stroke-width="1" stroke-linecap="butt" opacity="0.999"/><path d="M56.31797,28.30736l67.20981,68.05315l-0.41817,1.53378l-2.11191,-0.65678l-53.18719,-54.6971l-0.35362,-0.08841l-1.14925,1.23766l-51.98157,75.32024l-0.35362,2.1217l-0.70723,10.78529l-20.24453,-10.8737l63.2973,-92.73585z" fill="#5cc2ff" fill-rule="evenodd" stroke="none" stroke-width="1" stroke-linecap="butt"/><path d="M67.6337,42.80563l54.52029,55.54047l3.53343,38.23192l-37.45559,49.08855l0.08841,8.13317l0.53043,0.44202l12.37656,4.5086v13.0838l-91.58659,3.53616l4.86222,-95.65318l53.13084,-76.91153z" fill="#7af4ff" fill-rule="evenodd" stroke="none" stroke-width="1" stroke-linecap="butt"/><path d="M81.95515,47.22582l-0.0884,0.35362h-0.44202l-24.84153,-24.39951h-0.35362l-31.38344,45.43968l-0.35361,-0.08841l0.1768,-0.44202l0.1768,-0.88404l2.65213,-3.88978l0.53042,-0.35362l1.41446,-2.47531l0.88405,-0.70724l0.97245,-1.94488l0.97244,-0.88404l0.88404,-1.76808l0.53042,-0.17681l1.14925,-2.47531l2.1217,-3.00574l1.67968,-2.47531l2.29851,-3.18254l0.53042,-0.17681l2.1217,-3.18254l0.79563,-1.76809l0.61884,-0.1768l1.32605,-2.65212l0.79564,-0.53042l0.2652,-1.06084l1.76808,-2.12171l0.1768,-0.70723l3.27095,-4.24339l1.67968,-2.29851l0.70723,-1.59127l2.56372,-0.44202l2.2101,2.56372l1.85649,1.94488l2.47531,1.85649l4.95063,5.21585l0.70724,0.26521l3.00574,3.09415l0.1768,0.70723l1.76808,1.59127l1.59127,1.59127l5.65786,5.48105z" fill="#549bff" fill-rule="evenodd" stroke="none" stroke-width="1" stroke-linecap="butt" opacity="0.254"/><path d="M97.69107,62.43133l0.35361,0.35362z" fill="#00fffe" fill-rule="evenodd" stroke="none" stroke-width="1" stroke-linecap="butt" opacity="0.004"/><path d="M99.28235,64.02259l0.35361,0.53043z" fill="#00fffe" fill-rule="evenodd" stroke="none" stroke-width="1" stroke-linecap="butt" opacity="0.004"/><path d="M24.66933,68.08918l-0.17681,0.44202l0.35361,0.08841l-21.04015,30.5878v-0.26521l-0.35362,-0.2652l1.23766,-2.29851l1.06085,-0.53042l1.06084,-2.47531l0.88404,-0.35362l0.70724,-1.94489l2.29851,-3.18254l0.70723,-0.35361l0.08841,-0.88404l0.79564,-1.06085l0.35361,-0.53042l0.79564,-1.23766l2.74052,-4.06659l0.70723,-0.35362l1.41447,-2.65211l0.53041,-0.17681l1.85649,-3.00574l1.76809,-2.47531l1.06085,-2.1217l1.14925,-0.88404z" fill="#5cc2ff" fill-rule="evenodd" stroke="none" stroke-width="1" stroke-linecap="butt" opacity="0.371"/><path d="M12.29277,85.59318l0.35361,-0.53042z" fill="#32e2ff" fill-rule="evenodd" stroke="none" stroke-width="1" stroke-linecap="butt" opacity="0.016"/><path d="M113.427,85.77l12.81858,12.73019l5.83467,9.01722l-11.84615,-12.02295l-6.8071,-9.72444z" fill="#5cc2ff" fill-rule="evenodd" stroke="none" stroke-width="1" stroke-linecap="butt"/><path d="M113.37928,89.67386l6.50122,5.99738l14.23305,14.05624l-0.08841,-0.79563l1.14925,0.97244l6.71872,6.71871l-27.49365,35.45003l-1.59831,-62.1101z" fill="#7af4ff" fill-rule="evenodd" stroke="none" stroke-width="1" stroke-linecap="butt"/><path d="M234.71735,94.07998h0.70724l8.6636,112.27314l-19.8025,0.70724l-0.61883,-12.37658l3.53617,3.35935l0.1768,-22.27782l-75.58546,-68.68994l82.92301,-12.9954z" fill="#7af4ff" fill-rule="evenodd" stroke="none" stroke-width="1" stroke-linecap="butt"/><path d="M128.27887,95.14083l17.504,16.53156l-2.1217,2.74052l-15.11709,-14.32145z" fill="#5cc2ff" fill-rule="evenodd" stroke="none" stroke-width="1" stroke-linecap="butt" opacity="0.999"/><path d="M81.95515,47.22582l3.18255,3.00574l0.70724,0.17681l1.23766,1.50287l2.56372,2.56372l0.0884,0.53041l0.88404,0.44202l4.95063,5.21585l0.53042,0.17681l1.06084,0.88404v0.70724h0.53043l0.35361,0.35362l1.23766,1.23766l0.35361,0.53042l1.59127,1.67967l2.29851,1.76808l6.89552,7.24914l2.2985,1.85649l3.44776,3.71297l1.67968,1.76809l1.59127,1.59127l1.94488,1.76808l1.59127,1.59127l0.88405,0.70724l0.70723,0.88404l4.24339,5.12743l1.76808,1.76809l1.06085,0.79564l1.14925,0.08841l9.28243,-1.14925l0.35362,-0.35362l8.48679,-1.23766l2.1217,-0.70724l7.60274,-0.88405l2.47531,-0.88404l6.89551,-0.79564l2.29851,-0.79563l8.13317,-0.97245l1.41447,-0.35362l0.17681,-0.26521l9.19402,-0.97245v-0.70724l9.37083,-0.88404v-0.70723l2.47531,-0.08841l2.12171,-0.53043l4.95063,-0.61882l0.17681,-0.26521l2.47531,-0.17681l2.1217,-0.53041l4.95063,-0.44202v-0.53043l2.65213,-0.0884l6.71871,-1.14925l0.1768,-0.26522l9.19402,-1.14925v-0.53041l2.47531,-0.08841l5.12743,-0.79564l2.82892,-0.79563l6.54191,-0.79564l1.94488,-0.35362l0.70724,-0.44202l3.18255,-0.53043l4.4202,0.08841l0.44202,0.35362l0.1768,7.77955l-0.44202,0.35362l-1.50287,7.24913l-0.44202,0.35362l-1.50286,7.07232l-0.44202,0.35362l-1.14925,6.36509l-0.26521,0.17681l-0.35362,0.70723l-1.06085,5.30424l-0.53042,1.23766h-0.35362l7.77956,-31.11822l-0.53042,-6.01148l-133.57851,22.45463l-5.48105,-5.83467l-45.17447,-44.37883h0.44202l0.0884,-0.35362z" fill="#5cc2ff" fill-rule="evenodd" stroke="none" stroke-width="1" stroke-linecap="butt" opacity="0.324"/><path d="M180.43726,89.12935l1.41447,-0.35362z" fill="#00fffe" fill-rule="evenodd" stroke="none" stroke-width="1" stroke-linecap="butt" opacity="0.004"/><path d="M123.85867,88.24531l0.70724,0.88404z" fill="#33e1ff" fill-rule="evenodd" stroke="none" stroke-width="1" stroke-linecap="butt" opacity="0.016"/><path d="M129.69334,101.68272l13.52581,12.90698l-0.79563,1.50287h-0.35362l-8.04477,-7.69114z" fill="#5cc2ff" fill-rule="evenodd" stroke="none" stroke-width="1" stroke-linecap="butt"/><path d="M260.35452,105.92612l0.35362,-0.70723z" fill="#00fffe" fill-rule="evenodd" stroke="none" stroke-width="1" stroke-linecap="butt" opacity="0.004"/><path d="M148.25819,107.51739l0.70723,0.0884l-2.91733,3.80138l-3.09414,-2.91734z" fill="#7af4ff" fill-rule="evenodd" stroke="none" stroke-width="1" stroke-linecap="butt"/><path d="M154.44647,120.07075l67.80589,63.65092l0.44202,5.12744l-121.11354,6.89552l0.08841,-7.24913l52.77722,-68.42473z" fill="#059764" fill-rule="evenodd" stroke="none" stroke-width="1" stroke-linecap="butt"/><path d="M258.40963,112.46802h0.35362l-1.32606,6.18828l-0.97245,2.47531l-1.32606,6.71872l-0.61883,0.1768l-0.26521,2.82892l-0.70724,3.18255l-1.23766,4.77382l-0.97245,3.53616l-0.35362,0.70723l-1.23766,6.18828l-0.70724,0.1768l9.37083,-36.95289z" fill="#68afff" fill-rule="evenodd" stroke="none" stroke-width="1" stroke-linecap="butt" opacity="0.167"/><path d="M251.3373,142.34859l-0.35362,0.70723z" fill="#00fffe" fill-rule="evenodd" stroke="none" stroke-width="1" stroke-linecap="butt" opacity="0.004"/><path d="M249.0388,149.42091l-0.2652,3.00574l-0.70724,3.18255l-1.06084,3.00574l-1.23766,6.18828l-0.35362,0.35361l-0.53042,3.00574l-1.76809,6.01148l0.26522,13.26061h0.53041l1.32606,19.27209l0.1768,6.18828l0.44202,1.59127l-0.17681,-0.61883l-0.53042,-0.0884l-2.74052,-38.54417l6.6303,-25.81398z" fill="#67b5fb" fill-rule="evenodd" stroke="none" stroke-width="1" stroke-linecap="butt" opacity="0.11"/><path d="M180.61407,199.98802l-11.31573,-4.5086l-1.14925,-0.61882l-0.1768,0.1768l-26.96324,3.27095l-8.13317,5.56947l-31.29503,1.59127v-9.19402l121.11355,-7.07232l0.70724,10.60848l-39.42821,1.76808l-1.41447,-0.08841l-1.94488,-1.50287z" fill="#059764" fill-rule="evenodd" stroke="none" stroke-width="1" stroke-linecap="butt"/><path d="M223.22483,190.794l3.80138,3.53616l-0.1768,3.00574l-3.35935,-3.35935l-0.26521,-3.18254z" fill="#5cc2ff" fill-rule="evenodd" stroke="none" stroke-width="1" stroke-linecap="butt"/><path d="M180.61407,199.98802l-11.31573,-4.5086l-1.14925,-0.61882l-0.1768,0.1768l-26.96324,3.27095l-8.13317,5.56947l1.06084,0.26521l2.1217,-1.94488l18.38804,-7.07232l6.80711,-0.44202l6.01148,0.70724l1.32606,0.17681l6.54189,1.85649l5.48106,2.56371z" fill="#b22e10" fill-rule="evenodd" stroke="none" stroke-width="1" stroke-linecap="butt"/><path d="M159.04348,195.2142l3.35935,0.08841l-20.86335,4.59701l-4.77381,3.00574l-1.23765,1.23766l-1.06085,0.1768l1.94489,-1.76808l17.504,-6.89552l5.12743,-0.44202z" fill="#4c4533" fill-rule="evenodd" stroke="none" stroke-width="1" stroke-linecap="butt"/><path d="M221.27993,200.16483h2.1217l8.30998,126.06418l-33.23992,-2.65213l-5.03903,-104.31677l-9.98966,-17.23879l37.83693,-1.85649z" fill="#059764" fill-rule="evenodd" stroke="none" stroke-width="1" stroke-linecap="butt"/><path d="M11.23192,172.58277l-1.94489,39.95863l-0.44202,-0.70724l-0.26521,1.06084l0.44202,-11.1389l0.35361,-0.53042l0.35361,-6.71871v-5.30424l-0.2652,-0.61883l0.53042,-2.74052l0.26521,-6.01148l0.61882,-5.30424l0.26521,-3.71296l0.08841,1.76808z" fill="#68b5f9" fill-rule="evenodd" stroke="none" stroke-width="1" stroke-linecap="butt" opacity="0.165"/><path d="M132.34547,204.40823l-6.80711,10.96211l-0.70723,4.77381l0.97244,96.89084l-0.44202,0.35362l-23.95749,-2.1217l0.1768,-109.44421l30.76461,-1.41445z" fill="#059764" fill-rule="evenodd" stroke="none" stroke-width="1" stroke-linecap="butt"/><path d="M242.4969,206.70674l1.67968,0.35362l5.92307,76.55791l-20.86335,-0.70724l-4.95063,-75.14344l0.1768,-0.26521z" fill="#7af4ff" fill-rule="evenodd" stroke="none" stroke-width="1" stroke-linecap="butt"/><path d="M97.16064,212.36459h4.06658l-0.1768,65.419l-93.70829,-3.71297l-1.06084,22.27782h-0.88404l4.06659,-80.44768l87.69682,-3.53617z" fill="#7af4ff" fill-rule="evenodd" stroke="none" stroke-width="1" stroke-linecap="butt"/><path d="M132.34547,204.40823l1.06084,0.2652l-2.2101,2.0333l-3.35935,5.12744l-1.59127,4.06658l-0.70724,4.59701l0.97244,89.02287l-0.0884,7.16072l-0.61883,0.35362l-0.97244,-96.89084l0.70723,-4.77381l6.80711,-10.96211z" fill="#c23112" fill-rule="evenodd" stroke="none" stroke-width="1" stroke-linecap="butt"/><path d="M9.28703,212.5414l-0.88404,16.79677h-0.53042l0.70723,-16.44316l0.26521,-1.06084z" fill="#8ec5ee" fill-rule="evenodd" stroke="none" stroke-width="1" stroke-linecap="butt" opacity="0.398"/><path d="M245.14903,213.77906l0.53042,0.0884l0.17681,0.61883l0.70723,9.54764l-0.53043,0.35362z" fill="#8cc1ed" fill-rule="evenodd" stroke="none" stroke-width="1" stroke-linecap="butt" opacity="0.295"/><path d="M7.87257,229.33816h0.53042l-0.70724,11.84614z" fill="#a4c7e2" fill-rule="evenodd" stroke="none" stroke-width="1" stroke-linecap="butt" opacity="0.341"/><path d="M7.69575,241.53793l-0.1768,6.54189h-0.53042l0.08841,-6.18828z" fill="#b8cbe2" fill-rule="evenodd" stroke="none" stroke-width="1" stroke-linecap="butt" opacity="0.149"/><path d="M246.56349,224.03393l0.79564,13.26061l0.35361,0.35362l0.44202,10.43168l-0.44202,-0.88404l-1.67968,-22.80825z" fill="#a9c5de" fill-rule="evenodd" stroke="none" stroke-width="1" stroke-linecap="butt" opacity="0.349"/><path d="M6.34091,274.42423l94.70931,3.71297l-0.09002,25.10675l-96.05973,-6.71871l1.08033,-20.42133z" fill="#059764" fill-rule="evenodd" stroke="none" stroke-width="1" stroke-linecap="butt"/><path d="M248.15476,248.43343l0.2652,0.35362l0.70724,13.26062l0.88404,6.01147l0.53042,9.90126l0.35362,3.53616l0.44202,1.59127l0.70723,0.44202l1.59127,0.08841h-3.09415l-2.74052,-34.65439l0.35362,-0.53042z" fill="#2f746e" fill-rule="evenodd" stroke="none" stroke-width="1" stroke-linecap="butt" opacity="0.285"/><path d="M229.4131,283.26463l23.9575,1.06084l2.38691,29.70377l-24.57633,-1.76809z" fill="#059764" fill-rule="evenodd" stroke="none" stroke-width="1" stroke-linecap="butt" opacity="0.999"/><path d="M253.81262,283.79506l0.44202,0.35362l0.26521,7.95636z" fill="#2f7771" fill-rule="evenodd" stroke="none" stroke-width="1" stroke-linecap="butt" opacity="0.236"/><path d="M6.98853,248.43343l0.35361,1.50287l-2.47531,46.23532l0.35361,0.35362l1.41447,0.44202l94.41553,6.6303l0.35362,12.02295l22.98505,2.1217l-15.38231,-0.79563l-4.06658,-0.08841l-0.1768,-0.70724l-1.23766,0.17681l-2.1217,-0.26522l-0.97245,-0.79563v-5.83467l0.26522,-2.29851l-0.08841,-2.1217l-0.61882,-0.97244l-9.37083,-0.53043l-0.17681,-0.26521l-13.96783,-0.61883l-8.66359,-0.70723l-0.35362,-0.35362l-25.10676,-1.23766l-0.35361,-0.53043l-11.49252,-0.35361l-9.54765,-0.79564l-0.1768,-0.35362l-14.14465,-0.61882l-1.94489,-0.35362l-0.26521,-0.44202l-0.0884,-3.35935l0.61884,-7.95636l0.1768,-8.48679l0.44202,-0.35362l0.17681,-1.85649l0.26521,-12.28817l0.97244,-14.14465z" fill="#2f756f" fill-rule="evenodd" stroke="none" stroke-width="1" stroke-linecap="butt" opacity="0.544"/><path d="M254.69666,292.81226l0.44202,0.35362l0.1768,4.95062l0.88405,8.30998l0.08841,7.95636l-1.76809,-20.77495l0.1768,-0.79564z" fill="#2f736e" fill-rule="evenodd" stroke="none" stroke-width="1" stroke-linecap="butt" opacity="0.25"/><path d="M149.2248,318.34736l-1.64524,-97.92393l43.59902,-3.75796l4.38733,105.43987z" fill="#662d00" fill-rule="nonzero" stroke="#000000" stroke-width="1" stroke-linecap="round"/><path d="M101.32766,278.16604l-81.51895,-3.75796l3.4689,-52.32245l78.05007,-2.89074z" fill="#000000" fill-rule="nonzero" stroke="#000000" stroke-width="1" stroke-linecap="round"/><path d="M223.10022,105.95001l2.3126,43.07208l-25.72761,1.73444l-14.16464,-12.43019l-0.28907,-25.94443l34.97799,-5.78149z" fill="#000000" fill-rule="nonzero" stroke="#000000" stroke-width="1" stroke-linecap="round"/><path d="M11.58879,92.66585c0.17188,-1.57639 1.84877,-1.43001 1.84877,-1.43001l2.81653,0.32441c1.28579,1.01941 1.76339,1.66317 3.29252,2.10927c2.43681,0.7109 5.44252,0.08404 7.79007,1.13523c0.5878,0.26321 0.89971,0.90366 1.45698,1.21949c0.3568,0.20221 2.94797,0.97165 3.40963,1.11259c2.88883,0.47081 7.43618,1.40972 9.96958,2.81433c1.00103,0.55501 1.59457,1.80602 2.73509,2.02952c0.67608,0.13248 1.41979,-0.19594 2.07584,0.00491c0.69571,0.21299 1.13222,0.89139 1.79552,1.18033c0.64462,0.28081 1.42409,0.21698 2.06655,0.50201c4.79206,2.12613 7.92904,6.08123 13.61049,6.0498c0,0 1.68526,0.02019 1.64761,1.60324c-0.03762,1.58304 -1.72287,1.56286 -1.72287,1.56286c-2.12864,-0.05177 -5.22272,-0.59017 -7.15762,-1.36721c-0.61646,-0.24755 -0.94535,-0.904 -1.50544,-1.249c-1.89686,-1.16836 -4.28756,-2.84545 -6.34559,-3.73863c-0.64506,-0.27995 -1.42392,-0.21731 -2.06656,-0.50201c-0.53257,-0.23595 -0.82366,-0.85898 -1.3852,-1.02716c-0.60092,-0.17998 -1.28943,0.20277 -1.89731,0.04408c-1.42475,-0.37194 -2.37591,-1.64881 -3.62636,-2.38545c-1.24016,-0.7306 -2.03112,-0.54253 -3.38391,-0.86008c-1.9554,-0.45899 -3.64454,-1.26905 -5.64348,-1.58619c-1.08951,-0.32823 -3.47923,-1.002 -4.38038,-1.49722c-0.46921,-0.25784 -0.68594,-0.83108 -1.16757,-1.06811c-1.23083,-0.60573 -3.97898,-0.45282 -5.2802,-0.61516c-2.3997,-0.29938 -3.92906,-1.0165 -5.65495,-2.56517l-1.79275,-0.07792c0,0 -1.67687,-0.14637 -1.50498,-1.72276z" data-paper-data="{&quot;index&quot;:null}" fill="#000000" fill-rule="nonzero" stroke="none" stroke-width="0.5" stroke-linecap="butt"/><path d="M36.26063,142.25495c0.44695,1.6755 1.46916,3.0934 2.46107,4.94231c2.32677,4.33708 5.70176,7.99807 8.82061,11.85621c1.71168,2.11742 3.58441,4.82456 5.83094,6.33727c4.56627,3.48384 8.82109,4.28373 14.77771,5.14172c2.73546,0.39402 5.7314,0.87449 8.46498,0.3722c2.91023,-0.53475 5.6034,-2.25948 8.5142,-2.55262c2.04949,-1.07572 5.20452,-1.88137 6.73589,-3.60077c5.22763,-5.86943 8.62486,-12.82647 10.05757,-20.63502c-0.37444,0.36704 -0.73399,0.67389 -0.76543,0.71078c-1.90223,2.23166 -3.13404,4.40594 -5.96615,5.82885c-4.16001,2.09009 -9.19966,3.48699 -13.85125,3.88631c-2.73902,0.23514 -5.4376,-0.28244 -8.20637,0.10079c-6.62258,-0.9211 -12.78599,-1.78869 -18.72577,-4.63403c-1.00533,-0.48157 -2.27941,-0.29144 -3.27272,-0.79484c-2.39741,-1.21498 -4.55371,-2.99698 -6.84383,-4.50686c-2.80871,-1.85177 -5.57269,-3.27434 -7.70846,-5.98611c0.02868,0.79212 -0.0495,2.27702 -0.08656,2.51871l-0.09484,0.61849c0,0 -0.02842,0.18544 -0.14161,0.39662zM34.41019,137.99526c0.1776,-0.93681 0.4382,-1.7694 0.84592,-1.97742c0.79541,-0.40581 1.77087,0.401 2.6563,0.6015c2.27736,2.76276 4.8332,4.2099 7.72145,6.12065c2.24702,1.48652 4.32584,3.13026 6.62142,4.38643c0.96107,0.52591 2.22937,0.31282 3.22719,0.77356c5.67441,2.6202 11.34561,3.45418 17.6358,4.39646c2.70199,-0.37398 5.34008,0.14289 8.00036,-0.09341c4.33168,-0.38476 9.04127,-1.66845 12.91582,-3.63699c3.1992,-1.6254 4.00909,-5.61279 7.02228,-7.10283c0.98658,-0.48786 2.27615,-1.12463 3.2795,-0.64946c0.7473,0.3539 0.18859,1.55767 0.28288,2.3365c-1.3141,8.57028 -4.91892,16.68178 -10.77634,23.05376c-1.94442,2.11525 -5.40087,3.13134 -7.97096,4.39537c-2.90737,0.20968 -5.74161,2.06753 -8.66019,2.58942c-4.47422,0.80007 -9.25795,-0.31414 -13.70293,-0.9544c-2.0856,-0.3004 -5.20019,-0.59651 -6.95957,-1.72484c-0.53104,-0.34057 -0.63942,-1.09476 -1.16231,-1.44634c-1.08886,-0.73213 -2.4592,-1.04669 -3.52026,-1.81419c-2.44558,-1.75137 -4.42346,-4.45383 -6.31098,-6.79052c-4.7077,-5.828 -13.08913,-13.81281 -11.90655,-21.52536c0,0 0.1103,-0.71931 0.76119,-0.93792z" data-paper-data="{&quot;index&quot;:null}" fill="#000000" fill-rule="nonzero" stroke="none" stroke-width="0.5" stroke-linecap="butt"/><path d="M36.21944,142.2391c0.11319,-0.21118 0.14181,-0.3971 0.14181,-0.3971l0.09512,-0.6192c0.03706,-0.24169 0.11643,-1.72919 0.08775,-2.52131c2.13578,2.71176 4.98001,4.17081 7.78873,6.02258c2.29012,1.50987 4.44768,3.28844 6.84508,4.50343c0.99331,0.5034 2.18351,0.28591 3.18885,0.76748c5.93978,2.84534 12.18903,3.7239 18.81161,4.64499c2.76876,-0.38323 5.37925,0.13873 8.11828,-0.09641c4.65159,-0.39932 9.69179,-1.79047 13.85181,-3.88056c2.83211,-1.42291 4.06538,-3.59106 5.96761,-5.82272c0.03144,-0.03689 0.47497,-0.37078 0.84941,-0.73782c-1.43271,7.80855 -4.83134,14.79687 -10.05897,20.66629c-1.53137,1.7194 -4.69309,2.5359 -6.74258,3.61161c-2.9108,0.29314 -5.619,2.02946 -8.52923,2.56421c-2.73358,0.5023 -5.75095,0.02595 -8.48641,-0.36808c-5.95662,-0.858 -10.2455,-1.67746 -14.81177,-5.1613c-2.24653,-1.51271 -4.12586,-4.236 -5.83754,-6.35342c-3.11884,-3.85814 -6.49327,-7.53831 -8.82003,-11.87539c-0.99192,-1.84891 -2.01253,-3.27182 -2.45948,-4.94731z" data-paper-data="{&quot;noHover&quot;:false,&quot;origItem&quot;:[&quot;Path&quot;,{&quot;applyMatrix&quot;:true,&quot;selected&quot;:true,&quot;segments&quot;:[[[271.09307,160.88126],[0,0],[1.01324,3.7984],7],[[276.67239,172.0856],[-2.2487,-4.19152],[5.27484,9.83228],7],[[296.66893,198.96394],[-7.0705,-8.7465],[3.88042,4.80024],7],[[309.88781,213.3307],[-5.09294,-3.42936],[10.35186,7.89796],7],[[343.38925,224.98712],[-13.5038,-1.9451],[6.20136,0.89326],7],[[362.57957,225.8309],[-6.1971,1.13872],[6.59756,-1.2123],7],[[381.88149,220.04404],[-6.59886,0.66456],[4.64624,-2.43868],7],[[397.15193,211.881],[-3.47166,3.89792],[11.85116,-13.30614],7],[[419.95269,165.10088],[-3.24798,17.70218],[-0.84886,0.8321],7],[[418.21743,166.71224],[0.07128,-0.08364],[-4.3124,5.05924],7],[[404.69201,179.9264],[6.42046,-3.22578],[-9.43086,4.73828],7],[[373.29087,188.73676],[10.54528,-0.90526],[-6.20942,0.53306],7],[[354.68683,188.96526],[6.27686,-0.8688],[-15.01356,-2.08816],7],[[312.23503,178.4598],[13.46564,6.45046],[-2.27912,-1.09174],7],[[304.81569,176.65788],[2.25186,1.14122],[-5.43498,-2.7544],7],[[289.30055,166.44072],[5.19176,3.42292],[-6.36742,-4.198],7],[[271.82527,152.87006],[4.84186,6.14764],[0.06502,1.79576],7],[[271.62903,158.58004],[0.08402,-0.54792],[0,0],7],[[271.41403,159.98218],[0,0],[0,0],7],[[271.09299,160.88132],[0.2566,-0.47874],[0,0],7]],&quot;closed&quot;:true,&quot;fillColor&quot;:[0,0,0,1]}]}" fill="#ff7979" fill-rule="nonzero" stroke="none" stroke-width="0.5" stroke-linecap="butt"/><path d="M53.98149,118.58634c1.47739,0.34524 2.84423,0.34847 4.13994,0.7529c0.11089,0.53336 0.66709,0.81487 0.66709,0.81487l1.08417,0.53485c2.9735,2.81907 3.10001,5.56418 2.37794,8.71685c-0.11161,0.16852 -0.1813,0.38908 -0.1633,0.67094c-0.24373,0.94509 -0.54956,1.9414 -0.86216,2.98149c-0.40356,1.34278 -0.52072,3.80169 -1.71818,4.86296c-0.99858,0.88501 -2.57497,1.82373 -3.71895,2.57563c-2.03995,1.61644 -4.11754,2.45649 -6.68402,2.19344c-1.59732,-0.16371 -3.43836,0.57844 -4.97019,0.2178c-2.26499,-0.53324 -3.23591,-2.33792 -4.51375,-3.89788c-2.26889,-2.76987 -3.18894,-7.1887 -3.21828,-10.78597c-0.00766,-0.93999 0.27381,-1.90206 0.10832,-2.82774c0.41678,-0.8704 0.48614,-1.86523 0.85942,-2.75256c0.41538,-0.9874 1.97689,-2.05848 2.82339,-2.65888c0.97344,-0.69046 1.76256,-1.64906 2.84079,-2.18326c3.48262,-1.72541 7.63968,0.01154 10.94775,0.78457z" data-paper-data="{&quot;noHover&quot;:false,&quot;origItem&quot;:[&quot;Path&quot;,{&quot;applyMatrix&quot;:true,&quot;segments&quot;:[[[446.73305,268.10536],[2.89371,-1.47823],[-0.06831,1.37387]],[445.46667,270.37778],[[443.12132,272.0991],[0,0],[-5.96067,8.12157]],[[440.69597,294.68594],[-2.82752,-7.62457],[0.32241,0.38124]],[[441.31938,296.29942],[-0.05915,-0.71144],[0.91159,2.27586]],[[444.40538,303.41994],[-1.10727,-2.48862],[1.4295,3.21285]],[[450.15819,314.92997],[-3.19039,-2.22284],[2.66051,1.85365]],[[459.77696,320.01463],[-2.95371,-1.46839],[5.36618,3.30775]],[[476.19163,323.08874],[-5.92522,1.58242],[3.68773,-0.98486]],[[487.89679,321.85466],[-3.4633,1.45376],[5.1209,-2.14955]],[[497.05137,310.50801],[-2.43617,4.36173],[4.32565,-7.74467]],[[500.7054,282.45833],[1.22494,9.00724],[-0.32008,-2.35365]],[[499.44219,275.44525],[-0.05526,2.37467],[-1.29063,-2.02668]],[[496.44805,268.88831],[1.19467,2.08469],[-1.32943,-2.31984]],[[488.88971,263.27427],[2.20145,1.19666],[-2.53159,-1.37612]],[[481.46398,258.84906],[2.72117,0.94756],[-8.78927,-3.06057]],[[456.14805,264.74942],[7.48131,-3.12499],[-3.34116,1.39562]]],&quot;closed&quot;:true}],&quot;index&quot;:null}" fill="#ffffff" fill-rule="nonzero" stroke="#000000" stroke-width="1.5" stroke-linecap="butt"/><path d="M100.53927,113.82309c1.93898,1.06637 3.23575,2.87025 5.37737,3.59688c0.26001,0.14017 3.32823,1.1535 3.35823,1.57617c0.03221,0.45402 -0.33167,0.87494 -0.35478,1.32997c-0.0793,1.56072 0.76638,3.15244 0.72326,4.70638c-0.06056,2.18212 -0.95935,4.39154 -0.98929,6.58318c-0.03006,2.2007 -0.10124,4.53928 -1.88786,6.38479c-1.51925,1.56932 -6.3079,1.51357 -8.40883,1.81619c-3.81463,0.54946 -7.29957,0.86604 -11.07123,0.09254c-1.3059,-0.2678 -4.137,-0.44071 -5.19205,-1.51651c-1.1117,-1.13355 -1.62158,-3.60805 -2.30505,-4.96092c-1.7236,-3.41167 -3.52694,-8.31707 -1.86008,-12.04152c0.10651,-3.71138 2.0269,-3.84344 5.19145,-5.36174c1.5881,-0.76196 1.80205,-1.22075 3.34306,-1.79706c3.12921,-1.17027 6.07217,-0.85893 9.28793,-0.54291c1.68977,0.16607 3.22983,0.0793 4.78783,0.13454z" data-paper-data="{&quot;noHover&quot;:false,&quot;origItem&quot;:[&quot;Path&quot;,{&quot;applyMatrix&quot;:true,&quot;segments&quot;:[[[345.23972,269.60323],[3.63452,-0.69939],[-4.16451,3.36541]],[[333.95019,280.50479],[4.76198,-2.58874],[-0.55942,0.44426]],[[326.64875,285.63847],[-0.08169,-1.0679],[0.08775,1.14712]],[[327.96126,288.83057],[-0.21788,-1.12965],[0.74732,3.87473]],[[327.96126,300.83057],[-0.66004,-3.87081],[0.92686,5.43561]],[[332.63767,316.89501],[-0.85844,-5.47042],[0.86199,5.49305]],[[339.33599,332.15179],[-4.85435,-3.97194],[4.12789,3.37753]],[[359.66667,333.64445],[-5.03672,0],[9.14506,0]],[[385.59642,329.90313],[-8.56845,3.29316],[2.96677,-1.14023]],[[397.20584,324.26188],[-2.08779,3.07058],[2.19988,-3.23544]],[[400.81219,311.05478],[-1.11658,3.62972],[2.81576,-9.15335]],[[400.85142,280.34765],[5.24921,8.71427],[-1.58464,-9.24366]],[[386.77683,268.84278],[7.96873,2.65724],[-3.99903,-1.33351]],[[378.31074,265.5642],[3.8218,0.88619],[-7.76068,-1.79954]],[[356.39267,267.55528],[7.42913,-1.94884],[-3.90375,1.02405]]],&quot;closed&quot;:true}],&quot;index&quot;:null}" fill="#ffffff" fill-rule="nonzero" stroke="#000000" stroke-width="1.5" stroke-linecap="butt"/><path d="M106.48936,129.8875c-1.84297,0.26546 -3.55183,-0.92053 -3.81685,-2.64898c-0.26503,-1.72846 1.01415,-3.34484 2.85711,-3.6103c1.84297,-0.26546 3.55184,0.92053 3.81686,2.64898c0.26503,1.72846 -1.01416,3.34484 -2.85712,3.6103z" data-paper-data="{&quot;index&quot;:null}" fill="#000000" fill-rule="nonzero" stroke="none" stroke-width="0.5" stroke-linecap="butt"/><path d="M58.50001,132.50605c-1.84297,0.26546 -3.55183,-0.92053 -3.81686,-2.64898c-0.26503,-1.72846 1.01415,-3.34484 2.85712,-3.61031c1.84297,-0.26546 3.55183,0.92053 3.81685,2.64898c0.26503,1.72846 -1.01415,3.34484 -2.85711,3.6103z" data-paper-data="{&quot;index&quot;:null}" fill="#000000" fill-rule="nonzero" stroke="none" stroke-width="0.5" stroke-linecap="butt"/><path d="M119.64312,75.67136c0,0 1.56048,-0.61269 2.19792,0.84713c0.63744,1.45981 -0.92304,2.07249 -0.92304,2.07249l-1.69189,0.57984c-1.18665,1.96819 -2.43475,3.08539 -4.64091,4.04819c-1.1963,0.52208 -3.87155,1.15035 -4.86744,2.07683c-0.38971,0.36253 -0.42508,0.97208 -0.79665,1.35104c-0.71364,0.7278 -2.79792,2.046 -3.74185,2.66716c-1.81739,0.86684 -3.19047,2.11799 -4.92367,3.10828c-1.19905,0.6851 -2.01226,0.72811 -2.97962,1.77668c-0.97537,1.05724 -1.50232,2.54703 -2.75392,3.30447c-0.53399,0.32317 -1.30757,0.15102 -1.82853,0.49259c-0.48681,0.31919 -0.57838,0.99734 -1.01716,1.3732c-0.52946,0.45354 -1.29346,0.61313 -1.82662,1.06279c-1.7011,1.43468 -3.48532,3.71309 -4.94962,5.36559c-0.43239,0.48795 -0.55012,1.20875 -1.06563,1.61935c-1.61812,1.28881 -4.41696,2.67604 -6.43807,3.32555c0,0 -1.60635,0.49432 -2.11733,-1.00971c-0.51098,-1.50403 1.09537,-1.99834 1.09537,-1.99834c5.44535,-1.57126 7.26006,-6.23962 11.2071,-9.62455c0.52917,-0.45381 1.2941,-0.61242 1.82661,-1.06279c0.54792,-0.4634 0.76201,-1.2355 1.36378,-1.63539c0.56743,-0.37708 1.37755,-0.27247 1.98467,-0.58979c1.02417,-0.5353 1.2167,-1.89954 2.00793,-2.71272c2.00247,-2.05796 6.0716,-4.23799 8.69433,-5.50269c0.39941,-0.26496 2.64774,-1.73149 2.92845,-2.02554c0.43842,-0.45924 0.54468,-1.15993 1.02812,-1.57743c1.93067,-1.66743 4.99459,-1.91484 7.11279,-3.28185c1.3292,-0.85781 1.593,-1.60835 2.51736,-2.94613l2.59749,-1.10426z" data-paper-data="{&quot;index&quot;:null}" fill="#000000" fill-rule="nonzero" stroke="none" stroke-width="0.5" stroke-linecap="butt"/><path d="M150.25227,112.96802l2.14269,1.69629l75.61918,70.79812l-0.53567,8.74932l-3.74971,-3.57116l-0.71423,-6.78519l-66.33418,-62.40591l-2.4998,-2.05341l-1.16062,1.07134l-52.3174,67.67336l-0.35711,10.71346l-12.40976,-4.82106l62.31663,-81.06518z" fill="#5cc2ff" fill-rule="evenodd" stroke="none" stroke-width="1" stroke-linecap="butt"/><path d="M150.37988,106.63335l0.88405,0.44202l75.58545,68.68994l0.53043,8.6636l-76.55791,-71.60728h-0.35362l-61.88284,80.27088l0.1768,-7.24912l61.61762,-79.21003z" fill="#5cc2ff" fill-rule="evenodd" stroke="none" stroke-width="1" stroke-linecap="butt"/></g></g></svg>