<svg version="1.1" xmlns="http://www.w3.org/2000/svg" xmlns:xlink="http://www.w3.org/1999/xlink" width="553.175" height="227.575" viewBox="0,0,553.175,227.575"><defs><linearGradient x1="124.17502" y1="142.75815" x2="124.17502" y2="349.97499" gradientUnits="userSpaceOnUse" id="color-1"><stop offset="0" stop-color="#ffa500"/><stop offset="1" stop-color="#ff00b4"/></linearGradient></defs><g transform="translate(-23.92502,-134.89999)"><g data-paper-data="{&quot;isPaintingLayer&quot;:true}" fill-rule="nonzero" stroke-linejoin="miter" stroke-miterlimit="10" stroke-dasharray="" stroke-dashoffset="0" style="mix-blend-mode: normal"><path d="M516.60002,356.39999v-221h60v221z" fill="#050027" stroke="#000000" stroke-width="1" stroke-linecap="butt"/><path d="M482.30002,184.58369l12,-43.5l8.5,45.5z" fill="#4aff00" stroke="#000000" stroke-width="1" stroke-linecap="round"/><path d="M492.30002,353.09999l-7,-36.5l21.5,2.5z" fill="#ff0000" stroke="#000000" stroke-width="1" stroke-linecap="round"/><path d="M246.55001,209.09999v-68.27499h204v68.27499z" fill="#66006b" stroke="#000000" stroke-width="1" stroke-linecap="butt"/><path d="M270.65,138.87499c2.5,0 2.5,2.5 2.5,2.5c0,1.4916 0,2.98667 0,4.48471c4.55335,0.55244 9.00892,2.16625 11.88675,4.06017c0,0 2.08013,1.38675 0.69338,3.46688c-1.38675,2.08013 -3.46688,0.69338 -3.46688,0.69338c-2.49141,-1.6878 -5.80004,-2.78402 -9.11325,-3.15802c0,6.40335 0,12.84974 0,19.29917c1.84206,0.94245 3.69885,1.64534 5.40402,2.06102c1.11946,0.99479 2.47411,1.77571 3.35837,2.98437c2.89325,3.95468 2.03181,8.0313 1.19327,12.45211c-0.2887,1.52202 -0.9823,6.26655 -1.9613,7.0721c-1.54034,1.26743 -3.81465,1.1745 -5.7495,1.65966c-0.77712,0.19486 -1.52367,0.34544 -2.24486,0.45186c0,1.70318 0,3.40264 0,5.09761c0,0 0,2.5 -2.5,2.5c-2.5,0 -2.5,-2.5 -2.5,-2.5c0,-1.70756 0,-3.41512 0,-5.12267c-2.59456,-0.46684 -4.97775,-1.68376 -7.51886,-3.64161c-0.54362,-0.05812 -1.03512,-0.2905 -1.41757,-0.64017c-0.56583,-0.47891 -1.16332,-1.34039 -0.67168,-2.67783c0.02243,-0.06354 0.04735,-0.1259 0.07464,-0.18696c0.566,-1.31151 1.59434,-1.52373 2.33518,-1.48022c0.39771,0.00807 0.77261,0.10901 1.10391,0.28202l1.62923,0.74407c1.67814,1.31785 3.04717,2.04387 4.46515,2.38586c0,-6.15801 0,-12.31602 0,-18.47402c-3.765,-2.54154 -6.91935,-6.0771 -9.17266,-9.9517c-2.0585,-3.53963 -3.39493,-7.1156 -1.57313,-11.08514c1.94426,-4.23638 6.09805,-6.07822 10.74579,-6.43114c0,-1.24016 0,-2.48032 0,-3.72048v-0.625c0,0 0,-2.5 2.5,-2.5zM274.40515,191.54946c1.07893,-0.15082 2.32836,0.23974 3.2505,-0.34034c0.49008,-0.30828 -0.01937,-1.16145 0.05055,-1.73619c0.11013,-0.9052 0.31679,-1.79609 0.48815,-2.69171c0.81868,-4.27872 1.40256,-6.9698 -1.94836,-10.06352c-1.05714,-0.22852 -2.09044,-0.53769 -3.09598,-0.91868c0,5.31874 0,10.63169 0,15.9164c0.39886,-0.04865 0.81615,-0.1046 1.25514,-0.16596zM266.71581,151.18512c-2.05656,0.45601 -5.52939,2.08691 -5.31586,4.79981c0.33495,4.25544 3.14442,8.08147 6.75005,10.99728c0,-5.34898 0,-10.69796 0,-16.04695c-0.48939,0.06349 -0.96852,0.1466 -1.43419,0.24986z" fill="#ffffff" stroke="none" stroke-width="0.5" stroke-linecap="butt"/><path d="M249.55001,361.97499v-139.875h199.5v139.875z" fill="#000000" stroke="#000000" stroke-width="1" stroke-linecap="butt"/><path d="M24.42502,349.97499v-207.21684h199.5v207.21684z" fill="url(#color-1)" stroke="#000000" stroke-width="1" stroke-linecap="butt"/></g></g></svg>