<svg version="1.1" xmlns="http://www.w3.org/2000/svg" xmlns:xlink="http://www.w3.org/1999/xlink" width="239.65901" height="214.38638" viewBox="0,0,239.65901,214.38638"><g transform="translate(-77.34452,-65.78987)"><g data-paper-data="{&quot;isPaintingLayer&quot;:true}" fill-rule="nonzero" stroke="#000000" stroke-width="1" stroke-linecap="round" stroke-linejoin="miter" stroke-miterlimit="10" stroke-dasharray="" stroke-dashoffset="0" style="mix-blend-mode: normal"><path d="M313.53334,249.13333v-85.66667l-231,-0.33333l-4.66667,116.5l33.66667,-2.66667v-84.66667l155.58333,-5l0.66667,89.66667l48.66667,2z" fill="#732c00"/><path d="M274.7,162.88333l0.33333,-4.33333l-44,-13.66667l-1,18z" fill="#595959"/><path d="M207.7,163.55l1.33333,-24.33333l-2.33333,-5l-9.33333,-4l-12,-0.66667l-5.33333,4l-2.33333,29.66667z" fill="#595959"/><path d="M208.7,139.88333l19,5l2,-45.66667l-95,-32.75l-6.33333,58l51.33333,13.66667l0.33333,-4.33333l5.33333,-3.66667h10.66667l8,3l3.66667,4.33333l0.33333,4.33333z" fill="#595959"/><path d="M223.36667,136.8l2,-33.33333l-86.33333,-30.66667l-4.33333,47l48,11.66667l4.66667,-0.66667h8.66667l7,2.66667l5.66667,4.66667l14,4z" fill="#00b7ff"/></g></g></svg>