<svg version="1.1" xmlns="http://www.w3.org/2000/svg" xmlns:xlink="http://www.w3.org/1999/xlink" width="938.47249" height="465.05211" viewBox="0,0,938.47249,465.05211"><g transform="translate(172.77556,-49.38507)"><g data-paper-data="{&quot;isPaintingLayer&quot;:true}" stroke-linejoin="miter" stroke-miterlimit="10" stroke-dasharray="" stroke-dashoffset="0" style="mix-blend-mode: normal"><path d="M584.51333,431.69112l-13.63154,-29.91319l64.74985,0.26472l23.17362,29.64846z" data-paper-data="{&quot;index&quot;:null}" fill="#cedce9" fill-rule="nonzero" stroke="#000000" stroke-width="1" stroke-linecap="round"/><path d="M664.96422,430.13661c-1.75243,0.3279 -3.47523,0.5155 -5.18083,0.65078c0.01154,0.05036 0.01752,0.10292 0.01752,0.15772c0,1.33508 -3.56774,1.33508 -3.56774,1.33508c-15.75762,0 -31.5152,0 -47.2728,0c-4.05488,0 -14.14451,-0.60569 -17.13517,0.19284c-1.72268,0.45996 -2.95596,0.41443 -5.16335,0.4747c-0.24917,0.00681 -0.70233,0.02137 -1.10272,0.03032c2.13447,0.57022 1.10272,5.83976 1.10272,7.31266c0,6.23042 0,12.46083 0,18.69125c0,1.11256 0,2.22517 0,3.33772c0,0.44503 -0.62749,1.71313 0,1.33508c2.38737,-1.43826 7.04646,-0.66496 12.48716,-0.66754c10.72479,-0.00507 22.20686,-0.43425 32.74027,0.28774c19.23472,1.43956 39.91513,-0.86042 58.99638,0.74346c16.07075,1.50345 35.30827,1.63894 51.86562,1.63894c4.16243,0 8.32478,0 12.48719,0c0.62626,0 1.60958,-0.03156 2.62767,-0.06616c-1.02413,-0.68489 0.04815,-2.34111 0.04815,-3.27157c0,-3.47596 3.11367,-9.47196 -0.70882,-12.59492c-3.37796,-3.79219 -5.51478,-7.44331 -11.02495,-11.22525c-4.06557,-2.79047 -10.39449,-5.26396 -13.75833,-8.03585c-1.63081,-1.65202 -3.09073,-0.47133 -8.40152,-0.85367c-11.75144,-0.84601 -23.53755,-0.66754 -35.67758,-0.66754c-4.42513,0 -9.98271,0.33622 -14.27107,0c-0.90523,-0.07096 -2.60649,-0.33479 -3.88167,-0.55087c2.33237,0.67429 -2.98973,1.32658 -5.22609,1.74502zM608.96018,429.60999c11.90912,0 23.81825,0 35.72733,0c0.34355,-0.06427 0.68702,-0.12855 1.03055,-0.19284c4.52508,-0.84667 8.61045,-0.62229 12.48719,-1.00132c5.2832,-0.51653 8.44337,-2.2561 13.8944,-2.67018c3.1314,-0.23787 11.80437,0.52661 16.24323,0.52661c12.03615,0 24.05909,-0.25754 35.67758,0.66755c6.52679,0.51967 12.04272,-0.49344 15.09499,2.59858c0.44997,1.17456 4.05133,1.90868 5.93495,2.81222c2.87863,1.38083 5.28465,3.42586 7.51216,4.9547c5.52198,3.79006 7.94998,7.68829 11.41216,11.575c3.094,4.09691 1.07502,9.17727 1.07502,13.4393c0,2.3563 0.99239,4.01705 -3.56774,6.00791c-1.59021,0.69423 -16.28106,0 -18.73073,0c-17.07814,0 -37.03275,-0.16914 -53.59627,-1.71868c-18.1965,-1.99034 -39.85672,0.69207 -58.66516,-0.71558c-15.1566,-1.27752 -38.55137,2.1257 -50.9635,-2.23854c-1.22886,-0.43209 0,-3.96137 0,-4.67281c0,-6.23042 0,-12.46081 0,-18.69122c0,-2.08305 -2.45381,-7.05646 1.26864,-8.60762c6.49596,-2.70693 18.6532,-2.07309 28.16532,-2.07309z" data-paper-data="{&quot;index&quot;:null}" fill="#000000" fill-rule="nonzero" stroke="none" stroke-width="1" stroke-linecap="butt"/><path d="M659.73364,430.72324c1.70553,-0.13528 3.44915,-0.32465 5.20165,-0.65254c2.23636,-0.41843 7.57961,-1.0715 5.24718,-1.74581c1.27518,0.21605 2.99061,0.47986 3.89577,0.55084c4.28836,0.33622 9.8957,0.00334 14.32074,0.00334c12.13994,0 24.00262,-0.15975 35.75403,0.68626c5.31079,0.38234 6.78179,-0.79329 8.41258,0.85873c3.36388,2.77188 9.71949,5.26526 13.78514,8.05574c5.51017,3.78195 7.65431,7.45839 11.03226,11.2506c3.82257,3.12295 0.69211,9.14207 0.69211,12.61802c0,0.93046 -1.07895,2.59141 -0.05478,3.2763c-1.01805,0.03461 -2.0027,0.06701 -2.62903,0.06701c-4.1624,0 -8.33206,0.00419 -12.49446,0.00419c-16.55748,0 -35.87308,-0.11224 -51.94383,-1.6157c-19.08124,-1.60387 -39.95067,0.68315 -59.18543,-0.75641c-10.53337,-0.72202 -22.04792,-0.30807 -32.77272,-0.303c-5.44064,0.00258 -10.104,-0.77358 -12.49137,0.66467c-0.62749,0.37802 -0.00269,-0.89206 -0.00269,-1.33709c0,-1.11256 -0.00611,-2.23056 -0.00611,-3.34312c0,-6.23042 -0.00744,-12.49788 -0.00744,-18.72831c0,-1.4729 1.04259,-6.75523 -1.09189,-7.32545c0.40045,-0.00896 0.85398,-0.02385 1.10313,-0.03064c2.20731,-0.06025 3.44339,-0.01697 5.16603,-0.47692c2.99066,-0.79852 13.08946,-0.19903 17.14432,-0.19903c15.75769,0 31.59925,-0.02655 47.35684,-0.02655c0,0 3.58527,-0.00228 3.58527,-1.33737c0,-0.05481 -0.00556,-0.10737 -0.01712,-0.15775z" data-paper-data="{&quot;noHover&quot;:false,&quot;origItem&quot;:[&quot;Path&quot;,{&quot;applyMatrix&quot;:true,&quot;segments&quot;:[[[579.60736,595.76373],[0.95609,-0.20262],[0.00646,0.07548]],[[579.61718,596],[0,-0.08208],[0,2]],[[577.61718,598],[0,0],[-8.83333,0]],[[551.11718,598],[8.83333,0],[-2.27308,0]],[[541.51161,598.28885],[1.67648,-1.19621],[-0.96568,0.68904]],[[538.61718,599],[1.23739,-0.09027],[-0.13966,0.01019]],[[537.99901,599.04541],[0.22447,-0.0134],[1.19653,0.85421]],[[538.61718,610],[0,-2.20646],[0,9.33333]],[[538.61718,638],[0,-9.33333],[0,1.66667]],[[538.61718,643],[0,-1.66667],[0,0.66667]],[[538.61718,645],[-0.35177,0.56631],[1.33831,-2.15456]],[[545.61718,644],[-3.04994,0.00386],[6.01206,-0.00761]],[[563.97058,644.43107],[-5.90478,-1.08158],[10.78253,2.15651]],[[597.04254,645.54479],[-10.6965,-2.40266],[9.00888,2.25222]],[[626.11718,648],[-9.28168,0],[2.33333,0]],[[633.11718,648],[-2.33333,0],[0.35109,0]],[[634.59021,647.90091],[-0.5707,0.05184],[-0.57412,-1.02596]],[[634.61718,643],[0,1.39387],[0,-5.20707]],[[634.21982,624.13246],[2.14282,4.67827],[-1.8936,-5.6808]],[[628.03948,607.31672],[3.08887,5.66543],[-2.2791,-4.1802]],[[620.32688,595.27881],[1.8857,4.15235],[-0.91417,-2.47477]],[[615.61718,594],[2.9771,0.57275],[-6.58756,-1.26734]],[[595.61718,593],[6.8054,0],[-2.48058,0]],[[587.61718,593],[2.40395,0.50364],[-0.50743,-0.10631]],[[585.44122,592.1748],[0.71481,0.32365],[1.30749,1.01011]],[[582.51161,594.78885],[1.25365,-0.62682],[-0.98239,0.4912]]],&quot;closed&quot;:true}],&quot;index&quot;:null}" fill="#686868" fill-rule="nonzero" stroke="none" stroke-width="1" stroke-linecap="butt"/><path d="M709.74951,435.61786c0,-0.15482 -0.04941,-0.41408 -0.09665,-0.66878c-0.18376,0.10335 -0.4579,0.19149 -0.8104,0.26642c-1.05707,0.40233 -2.66075,0.40235 -2.66075,0.40235c-13.58963,0 -21.43877,3.54423 -26.24287,7.27252c-0.56517,0.42299 -0.51525,0.93263 -0.51525,1.40554c0,0.13456 -0.03438,0.34839 -0.07196,0.56959c0.03592,-0.07122 0.12562,-0.12972 0.30823,-0.16729c0.80697,-0.16597 7.82224,0.84971 8.68307,0.26527c0.25869,-0.17565 -1.26892,-0.20873 -1.18467,-0.40679c1.03623,-2.43503 12.02576,-6.11823 17.42794,-7.12901c1.4011,-0.26218 2.97838,-0.39407 4.54635,-0.45448c-0.61304,-0.35727 0.61692,-0.90412 0.61692,-1.35532zM679.33277,444.97601c-0.0809,0.47463 -0.15272,0.92835 0.09076,0.65501c0.16645,-0.18679 -0.07383,-0.44902 -0.09076,-0.65501zM673.5567,441.69624c5.09906,-3.59716 11.88072,-6.87704 22.44903,-8.16798c0.99274,-0.58055 3.04053,-0.58055 3.04053,-0.58055h1.78386c4.03926,0 6.17627,-0.5266 10.51497,-0.5266c6.02541,0 7.42214,4.48349 4.27132,5.79648c-1.98828,0.82853 -5.17751,1.10038 -7.83911,1.59838c-7.87839,1.47409 -10.80162,5.71003 -19.43433,7.8177c-9.14959,2.23384 -19.22256,-2.61723 -14.78627,-5.93742z" data-paper-data="{&quot;index&quot;:null}" fill="#000000" fill-rule="nonzero" stroke="none" stroke-width="1" stroke-linecap="butt"/><path d="M709.78539,434.90435c0.04736,0.25469 0.10502,0.51766 0.10502,0.67247c0,0.45119 -1.21532,1.00628 -0.60229,1.36357c-1.568,0.06041 -3.15432,0.18688 -4.55547,0.44905c-5.40224,1.01077 -16.44478,4.67528 -17.48099,7.1103c-0.08434,0.19808 1.27385,0.34842 1.01513,0.52407c-0.86084,0.58443 -7.93691,-0.44881 -8.74386,-0.28284c-0.18269,0.03759 -0.27154,0.09644 -0.30741,0.16769c0.03758,-0.22121 0.06536,-0.43812 0.06536,-0.57268c0,-0.4729 -0.06549,-0.99183 0.49968,-1.41481c4.80408,-3.72831 12.93656,-7.35093 26.52616,-7.35093c0,0 1.61095,0.00287 2.66802,-0.39948c0.35253,-0.07495 0.6268,-0.16304 0.81048,-0.26639z" data-paper-data="{&quot;noHover&quot;:false,&quot;origItem&quot;:[&quot;Path&quot;,{&quot;applyMatrix&quot;:true,&quot;segments&quot;:[[[607.563,601.99816],[0.02649,0.38155],[-0.10299,0.15484]],[[607.10872,602.39727],[0.1976,-0.11227],[-0.59254,0.60273]],[[605.61718,603],[0,0],[-7.618,0]],[[590.90604,613.89443],[2.69308,-5.58508],[-0.31682,0.63364]],[[590.61718,616],[0,-0.70843],[0,0.20156]],[[590.57685,616.85325],[0.02106,-0.33136],[0.02013,-0.10671]],[[590.74964,616.60263],[-0.10238,0.05628],[0.45234,-0.24865]],[[595.61718,617],[-0.48256,0.87548],[0.14503,-0.26312]],[[594.95308,616.3906],[-0.04725,0.29671],[0.58086,-3.64773]],[[604.72276,605.71115],[-3.02833,1.51416],[0.78545,-0.39273]],[[607.27135,605.03032],[-0.87898,0.0905],[-0.34365,-0.53523]],[[607.61718,603],[0,0.6759],[0,-0.23192]]],&quot;closed&quot;:true}],&quot;index&quot;:null}" fill="#ffffff" fill-rule="nonzero" stroke="none" stroke-width="1" stroke-linecap="butt"/><path d="M340.7949,427.28519l3.11445,-37.50131l53.99539,-35.73667l5.00938,32.48881z" fill="#cedce9" fill-rule="nonzero" stroke="#000000" stroke-width="1" stroke-linecap="round"/><path d="M378.90182,240.31654v-3.82278l246.64271,-69.11998l49.16189,260.89628l-126.77339,0.63712l-29.1443,-134.99386l-14.93973,-6.83154l-13.82255,4.44627l-9.86911,9.0798l-89.12007,33.94914l38.85659,47.16428l-115.06027,50.37156l-30.24627,-102.83713z" fill="#8d5653" fill-rule="nonzero" stroke="#000000" stroke-width="1" stroke-linecap="round"/><path d="M638.32364,245.30278c-3.42072,0.1878 -6.87346,0.25052 -10.3601,0.18836c0,0.25109 0,0.50238 0,0.75346c-0.17895,-0.26729 -0.2411,-0.58111 -0.18836,-0.94182c3.51678,0 7.03169,0 10.54847,0z" fill="#a7a7a7" fill-rule="evenodd" stroke="none" stroke-width="1" stroke-linecap="butt"/><path d="M566.17966,242.66566c0.18649,1.53518 0.25052,3.10483 0.18837,4.70913c-1.54083,0.0614 -3.04775,-0.0015 -4.52077,-0.18836c1.44476,0 2.88765,0 4.33241,0c0,-1.50692 0,-3.01385 0,-4.52077z" fill="#8e8e8e" fill-rule="evenodd" stroke="none" stroke-width="1" stroke-linecap="butt"/><path d="M515.69772,246.2446c-1.41651,0.06122 -2.79724,-0.00151 -4.14404,-0.18837c1.34682,0.18686 2.72753,0.24958 4.14404,0.18837c0,-1.19292 0,-2.38603 0,-3.57895c0,1.19292 0,2.38603 0,3.57895z" fill="#7f7f7f" fill-rule="evenodd" stroke="none" stroke-width="1" stroke-linecap="butt"/><path d="M622.64725,92.00759c-16.18921,3.42432 -32.37177,6.87554 -48.54892,10.35377c-0.10556,-0.52723 -0.21116,-1.05457 -0.31672,-1.5818c0.24068,-0.46659 0.53262,-0.9047 0.87582,-1.31436c3.41177,-0.66441 6.80654,-1.40743 10.18431,-2.22905c-2.61204,-1.45973 -5.22527,-2.91909 -7.83731,-4.37882c-0.11776,-0.06349 -0.19521,-0.02685 -0.23118,0.10957c0.26151,0.69925 0.44784,1.42127 0.56022,2.16582c-25.37647,-14.23813 -50.72119,-28.52627 -76.03659,-42.86394c-0.07365,-0.11497 -0.15801,-0.11918 -0.25553,-0.01212c-16.93255,23.40727 -33.86636,46.81467 -50.79892,70.22193c-0.09112,-0.14539 -0.1443,-0.30356 -0.15829,-0.47452c-0.20765,-0.92961 -0.37376,-1.86664 -0.49952,-2.81075c16.98168,-23.26942 33.96336,-46.53883 50.94503,-69.80825c4.89446,2.66375 9.76276,5.38021 14.60368,8.14947c0.13793,0.05679 0.2596,0.03243 0.36503,-0.07309c0.1425,-0.26798 0.32984,-0.49532 0.55959,-0.68154c23.95878,13.18759 47.89297,26.42934 71.80135,39.72548c11.46857,-2.35053 22.91793,-4.79061 34.34928,-7.32073c0.16662,0.59828 0.32981,1.19838 0.48713,1.80079c0.07285,0.37646 0.0563,0.7173 -0.04845,1.02214z" fill="#e3e3e3" fill-rule="evenodd" stroke="none" stroke-width="1" stroke-linecap="butt"/><path d="M501.29688,52.26877c-0.03498,0.78597 -0.00236,1.58097 0.09788,2.38495c-15.11801,20.97261 -30.26239,41.93368 -45.43436,62.88331c0.70279,4.28731 1.45452,8.56623 2.25397,12.83698c-1.28243,-1.19671 -2.54007,-2.42128 -3.77296,-3.67397c-0.71086,-0.7376 -1.44435,-1.45549 -2.20293,-2.15329c-0.37473,0.01201 -0.74383,0.06478 -1.10727,0.15844c0.23934,-0.15094 0.51066,-0.26855 0.81519,-0.35306c-0.54362,-0.5028 -1.08726,-1.00571 -1.63088,-1.50849c-0.25303,-0.25243 -0.32934,-0.53241 -0.23138,-0.83955c0.01398,0.17096 0.06717,0.32913 0.15829,0.47452c16.93255,-23.40727 33.86636,-46.81467 50.79892,-70.22193c0.09753,-0.10706 0.18189,-0.10286 0.25553,0.01212z" fill="#cacaca" fill-rule="evenodd" stroke="none" stroke-width="1" stroke-linecap="butt"/><path d="M501.29688,52.26877c25.3154,14.33768 50.66013,28.62582 76.03659,42.86394c-0.94396,1.41648 -1.83557,2.86055 -2.67605,4.33248c-0.3432,0.40966 -0.63513,0.84778 -0.87582,1.31436c-0.53003,-2.08454 -1.05331,-4.17335 -1.57109,-6.26629c-23.58366,-13.33674 -47.18891,-26.62321 -70.81575,-39.85955c-0.10023,-0.80398 -0.13286,-1.59897 -0.09788,-2.38495z" fill="#c7c6c6" fill-rule="evenodd" stroke="none" stroke-width="1" stroke-linecap="butt"/><path d="M501.39475,54.65372c23.62684,13.23634 47.23208,26.52282 70.81575,39.85955c0.51778,2.09294 1.04107,4.18174 1.57109,6.26629c0.10556,0.52723 0.21116,1.05457 0.31672,1.5818c0.29467,1.20617 0.57846,2.4149 0.85259,3.62594c10.43592,-2.24285 20.86766,-4.5003 31.29517,-6.77248c1.25121,4.80776 2.4691,9.6261 3.65368,14.45504c2.7358,10.92646 5.47284,21.8528 8.20866,32.77937c-10.67883,2.24327 -21.37006,4.46878 -32.07396,6.67531c0.2847,0.90988 0.51269,1.83363 0.68204,2.7742c0.06505,0.32488 0.12986,0.64854 0.19491,0.97342c10.72579,-2.26153 21.46522,-4.45493 32.22,-6.578c0.11377,0.56823 0.22731,1.13524 0.34109,1.70347c0.18802,0.63563 0.35827,1.27734 0.5115,1.92247c0.04069,0.2032 0.08113,0.40518 0.12182,0.60838c2.63552,10.43829 5.25449,20.88244 7.85547,31.33144c0.06186,0.16986 0.15509,0.3195 0.27996,0.45016c-0.00443,-0.23071 -0.00789,-0.46287 -0.01232,-0.69359c-2.63695,-10.3317 -5.21502,-20.67899 -7.73371,-31.03942c0.12168,-0.02437 0.24336,-0.04873 0.36503,-0.07309c0.61057,-0.1425 1.227,-0.22417 1.84952,-0.24378c0.0324,0.16183 0.06505,0.32488 0.09745,0.4867c1.41839,5.75015 2.86452,11.49347 4.33571,17.22924c1.27881,5.18582 2.5698,10.36919 3.87295,15.55013c-0.75778,0.24792 -1.50363,0.5238 -2.23877,0.82793c0.04512,0.43391 0.08902,0.86806 0.13413,1.30197c0.41628,1.66817 0.83475,3.33464 1.25444,5.00086c-1.86531,0.37349 -3.73183,0.74723 -5.59713,1.12072c-3.62175,-14.2387 -7.15321,-28.50686 -10.59586,-42.80546c-5.45696,1.08759 -10.87594,2.25743 -16.25597,3.50806c-1.34892,0.22833 -2.67932,0.53648 -3.99097,0.92567c-0.32096,0.19209 -0.43406,0.46784 -0.34053,0.82751c-0.13923,-0.10754 -0.213,-0.26108 -0.21913,-0.46235c-1.90667,0.38177 -3.81213,0.7633 -5.71882,1.14509c3.27148,13.94309 6.56802,27.87862 9.88988,41.80782c1.94684,-0.38982 3.89366,-0.77963 5.84049,-1.16944c0.2385,-0.00978 0.45778,0.02983 0.65711,0.12154c-2.10376,0.54779 -4.24575,1.01845 -6.42451,1.41294c0.26893,1.15982 0.50039,2.31575 0.69436,3.46779c-8.44048,1.666 -16.88853,3.29428 -25.34533,4.88508c-3.76004,-16.71173 -7.52738,-33.42201 -11.30324,-50.13058c3.2091,-0.62105 6.40872,-1.28323 9.60029,-1.98555c1.73765,-0.98577 3.4288,-2.02045 5.07347,-3.10402c0.12168,-0.02437 0.24336,-0.04873 0.36503,-0.07309c-0.31724,-1.07244 -0.57667,-2.15949 -0.77949,-3.26091c-32.93752,6.78684 -65.87944,13.55165 -98.82582,20.2942c0.17544,1.08476 0.42797,2.13105 0.75513,3.13924c1.27219,0.55776 2.58573,1.0123 3.94281,1.36197c3.12344,-0.62541 6.24567,-1.25058 9.36911,-1.87599c3.1752,16.53397 6.35867,33.06501 9.5509,49.59557c-2.47369,0.49531 -4.9486,0.99086 -7.42229,1.48617c-4.29884,0.86076 -8.5989,1.72177 -12.89775,2.58253c-1.30051,0.13512 -2.60587,0.35346 -3.91803,0.65795c-0.11377,-0.56823 -0.22731,-1.13524 -0.34109,-1.70347c-0.11377,-0.56823 -0.22731,-1.13524 -0.34109,-1.70347c-2.66196,-14.4005 -5.33364,-28.79906 -8.01628,-43.19542c-0.0945,-0.3329 -0.1194,-0.66582 -0.07323,-0.99778c-0.17858,-0.8919 -0.35741,-1.78499 -0.536,-2.67689c-17.55857,3.54108 -35.10424,7.13905 -52.63735,10.79274c-0.18824,0.03642 -0.35847,0.02875 -0.51107,-0.02422c-1.95309,-11.68445 -3.82954,-23.3736 -5.62951,-35.06758c-0.7067,-3.81512 -1.3037,-7.6398 -1.79128,-11.47424c17.30099,-3.76312 34.61549,-7.46198 51.94369,-11.09678c-0.04061,-0.20283 -0.08121,-0.40555 -0.12182,-0.60838c-0.79946,-4.27075 -1.55118,-8.54966 -2.25397,-12.83698c15.17197,-20.94963 30.31635,-41.91069 45.43436,-62.88331z" fill="#dbb73e" fill-rule="evenodd" stroke="none" stroke-width="1" stroke-linecap="butt"/><path d="M574.65742,99.4652c0.84047,-1.47193 1.73209,-2.91601 2.67605,-4.33248c-0.11238,-0.74455 -0.29871,-1.46657 -0.56022,-2.16582c0.03597,-0.13641 0.11342,-0.17306 0.23118,-0.10957c2.61204,1.45973 5.22527,2.91909 7.83731,4.37882c-3.37777,0.82162 -6.77254,1.56463 -10.18431,2.22905z" fill="#bfa138" fill-rule="evenodd" stroke="none" stroke-width="1" stroke-linecap="butt"/><path d="M451.1312,124.70519c0.36344,-0.09366 0.73254,-0.14643 1.10727,-0.15844c0.75857,0.6978 1.49207,1.41569 2.20293,2.15329c-25.95979,5.60609 -51.92555,11.1849 -77.89727,16.73643c-0.19257,-0.85176 -0.3226,-1.71161 -0.38995,-2.57958c24.97522,-5.45742 49.96756,-10.84132 74.97702,-16.15171z" fill="#e3e3e3" fill-rule="evenodd" stroke="none" stroke-width="1" stroke-linecap="butt"/><path d="M622.64725,92.00759c-3.63183,3.45877 -7.28926,6.8909 -10.97345,10.29676c-1.16334,1.02239 -2.30206,2.07301 -3.41857,3.15233c5.25733,-1.11127 10.5174,-2.22778 15.78145,-3.34977c-4.66063,3.90801 -9.37253,7.76224 -14.13691,11.56295c-1.18458,-4.82894 -2.40247,-9.64729 -3.65368,-14.45504c-10.42752,2.27218 -20.85925,4.52963 -31.29517,6.77248c-0.27413,-1.21104 -0.55791,-2.41977 -0.85259,-3.62594c16.17715,-3.47823 32.35971,-6.92944 48.54892,-10.35377z" fill="#c5c5c5" fill-rule="evenodd" stroke="none" stroke-width="1" stroke-linecap="butt"/><path d="M454.44139,126.70004c1.23289,1.25269 2.49053,2.47726 3.77296,3.67397c0.04061,0.20283 0.08121,0.40555 0.12182,0.60838c-17.3282,3.6348 -34.64269,7.33366 -51.94369,11.09678c0.48758,3.83444 1.08457,7.65912 1.79128,11.47424c-10.57137,-3.32123 -21.1179,-6.6935 -31.63963,-10.11694c25.97173,-5.55153 51.93747,-11.13035 77.89727,-16.73643z" fill="#c6c6c6" fill-rule="evenodd" stroke="none" stroke-width="1" stroke-linecap="butt"/><path d="M624.03667,102.1069c-5.26404,1.12199 -10.52412,2.23849 -15.78145,3.34977c1.11652,-1.07933 2.25522,-2.12994 3.41857,-3.15233c3.99804,-0.89038 8.00526,-1.7349 12.02164,-2.53366c0.10935,0.67883 0.28351,1.34002 0.52368,1.9833c0.01162,0.17181 -0.04961,0.28949 -0.18245,0.35292z" fill="#e3e3e3" fill-rule="evenodd" stroke="none" stroke-width="1" stroke-linecap="butt"/><path d="M458.21591,137.33422c0.39707,-0.20378 0.83552,-0.33372 1.31408,-0.38968c0.16551,0.62431 0.24717,1.24074 0.24378,1.84951c-0.1137,-0.56787 -0.22739,-1.13561 -0.34109,-1.70347c-0.40518,0.08113 -0.81159,0.16251 -1.21676,0.24363z" fill="#ac682b" fill-rule="evenodd" stroke="none" stroke-width="1" stroke-linecap="butt"/><path d="M458.21591,137.33422c0.40518,-0.08113 0.81159,-0.16251 1.21676,-0.24363c0.1137,0.56787 0.22739,1.13561 0.34109,1.70347c1.79258,9.72372 3.57171,19.44963 5.33616,29.17822c-3.84944,0.79191 -7.70641,1.54306 -11.57148,2.25369c-0.07698,-0.03305 -0.12968,-0.08578 -0.15822,-0.15815c-1.84268,-10.17802 -3.67012,-20.35833 -5.48248,-30.54103c3.43256,-0.76286 6.87153,-1.49372 10.31817,-2.19257z" fill="#821f2d" fill-rule="evenodd" stroke="none" stroke-width="1" stroke-linecap="butt"/><path d="M423.58687,145.15392c0.04873,0.24336 0.09745,0.4867 0.14618,0.73007c1.79606,9.89526 3.48563,19.80792 5.06858,29.73802c-4.07929,0.93083 -8.17566,1.75104 -12.28936,2.46071c-0.10549,-0.3164 -0.21109,-0.63265 -0.31659,-0.94905c-1.61193,-9.88518 -3.25275,-19.76546 -4.92254,-29.6407c3.26895,-0.63759 6.5258,-1.33185 9.77063,-2.08294c0.75445,-0.12993 1.50876,-0.25996 2.2632,-0.38988c0.08367,0.07399 0.17699,0.11858 0.27989,0.13379z" fill="#82202d" fill-rule="evenodd" stroke="none" stroke-width="1" stroke-linecap="butt"/><path d="M423.58687,145.15392c0.12727,0.06425 0.19215,0.17781 0.19477,0.34067c8.06797,-1.63659 16.12293,-3.33373 24.16496,-5.09169c0.02437,0.12168 0.04873,0.24336 0.07309,0.36503c-7.96832,1.707 -15.94223,3.38804 -23.92162,5.04296c-0.13059,-0.11623 -0.25227,-0.09187 -0.36503,0.07309c-0.04873,-0.24336 -0.09745,-0.4867 -0.14618,-0.73007z" fill="#c09f35" fill-rule="evenodd" stroke="none" stroke-width="1" stroke-linecap="butt"/><path d="M447.89774,139.5268c1.81236,10.1827 3.6398,20.36301 5.48248,30.54103c-8.11419,1.6137 -16.21789,3.27858 -24.31101,4.99437c-1.66468,-9.7492 -3.32175,-19.49955 -4.97113,-29.25131c7.97938,-1.65492 15.95329,-3.33596 23.92162,-5.04296c-0.02437,-0.12168 -0.04873,-0.24336 -0.07309,-0.36503c-0.09909,-0.30401 -0.11531,-0.59614 -0.04887,-0.8761z" fill="#d99f36" fill-rule="evenodd" stroke="none" stroke-width="1" stroke-linecap="butt"/><path d="M612.70198,129.56094c-3.4796,0.74279 -6.95875,1.48157 -10.43985,2.21694c-1.58728,-6.59994 -3.1625,-13.20292 -4.72567,-19.80882c3.48955,-0.69314 6.96991,-1.43216 10.43985,-2.21694c1.63224,6.62852 3.20746,13.23151 4.72567,19.80882z" fill="#811f2d" fill-rule="evenodd" stroke="none" stroke-width="1" stroke-linecap="butt"/><path d="M597.53646,111.96906c1.56316,6.60591 3.13839,13.20889 4.72567,19.80882c3.48109,-0.73537 6.96024,-1.47414 10.43985,-2.21694c-0.03352,0.09808 -0.10164,0.17501 -0.20681,0.23124c-3.51644,0.76738 -7.04101,1.49425 -10.5737,2.18047c-1.56744,-6.56404 -3.11387,-13.13065 -4.64047,-19.69933c0.06492,-0.1245 0.14969,-0.22576 0.25546,-0.30427z" fill="#751b28" fill-rule="evenodd" stroke="none" stroke-width="1" stroke-linecap="butt"/><path d="M582.18096,115.54992c1.51401,6.53108 3.03162,13.06119 4.55526,19.58983c-0.03352,0.09808 -0.10164,0.17501 -0.2068,0.23124c-1.44794,0.3532 -2.904,0.66589 -4.36819,0.93793c-1.60737,-6.59288 -3.18261,-13.19585 -4.72567,-19.80882c1.57756,-0.43901 3.15936,-0.75574 4.7454,-0.95018z" fill="#811f2d" fill-rule="evenodd" stroke="none" stroke-width="1" stroke-linecap="butt"/><path d="M600.94805,132.16756c-1.51133,-6.28382 -3.06295,-12.55401 -4.65243,-18.81105c-4.63985,0.83893 -9.26358,1.76475 -13.87116,2.77744c-0.02437,-0.12168 -0.04873,-0.24336 -0.07309,-0.36503c4.82711,-0.96553 9.64592,-1.97254 14.45518,-3.02093c1.54998,6.43896 3.09274,12.87974 4.62822,19.32211c-0.16183,0.0324 -0.32488,0.06505 -0.4867,0.09745z" fill="#c6a536" fill-rule="evenodd" stroke="none" stroke-width="1" stroke-linecap="butt"/><path d="M582.18096,115.54992c0.11054,0.02114 0.16692,0.09414 0.1704,0.21898c0.02437,0.12168 0.04873,0.24336 0.07309,0.36503c4.60759,-1.01269 9.23131,-1.9385 13.87116,-2.77744c1.58949,6.25703 3.14111,12.52722 4.65243,18.81105c-4.75054,0.93083 -9.48782,1.92152 -14.21183,2.9722c-1.52364,-6.52865 -3.04125,-13.05875 -4.55526,-19.58983z" fill="#d99f36" fill-rule="evenodd" stroke="none" stroke-width="1" stroke-linecap="butt"/><path d="M576.12977,154.22189c-32.82595,6.71198 -65.65433,13.41179 -98.48515,20.09944c-0.32716,-1.00819 -0.57969,-2.05448 -0.75513,-3.13924c32.94638,-6.74255 65.8883,-13.50737 98.82582,-20.2942c0.20282,1.10142 0.46225,2.18848 0.77949,3.26091c-0.12168,0.02437 -0.24336,0.04873 -0.36503,0.07309z" fill="#e4e4e4" fill-rule="evenodd" stroke="none" stroke-width="1" stroke-linecap="butt"/><path d="M576.12977,154.22189c-1.64466,1.08358 -3.33582,2.11826 -5.07347,3.10402c-3.19157,0.70233 -6.39118,1.3645 -9.60029,1.98555c-5.19497,0.59472 -10.39067,1.19211 -15.5871,1.79219c-2.40435,0.41814 -4.80188,0.87669 -7.19112,1.37661c-11.61137,2.37051 -23.19474,4.77339 -34.75085,7.2113c-4.06343,1.2148 -8.11518,2.46903 -12.15522,3.76268c-3.4235,0.70701 -6.81826,1.45002 -10.18431,2.22905c-1.35708,-0.34966 -2.67062,-0.80421 -3.94281,-1.36197c32.83083,-6.68764 65.65921,-13.38746 98.48515,-20.09944z" fill="#c5c6c5" fill-rule="evenodd" stroke="none" stroke-width="1" stroke-linecap="butt"/><path d="M618.10841,146.44925c6.20552,-1.24253 12.41103,-2.48507 18.61656,-3.72761c0.18954,0.93399 0.41778,1.85897 0.68204,2.7742c-0.16183,0.0324 -0.32488,0.06505 -0.4867,0.09745c-16.74297,3.40182 -33.47789,6.83746 -50.20381,10.30547c-0.16935,-0.94056 -0.39734,-1.86433 -0.68204,-2.7742c10.7039,-2.20653 21.39513,-4.43204 32.07396,-6.67531z" fill="#e4e4e4" fill-rule="evenodd" stroke="none" stroke-width="1" stroke-linecap="butt"/><path d="M538.67779,162.48026c2.38924,-0.49991 4.78677,-0.95846 7.19112,-1.37661c5.19643,-0.60008 10.39213,-1.19747 15.5871,-1.79219c3.77586,16.70857 7.5432,33.41885 11.30324,50.13058c-5.27793,1.82373 -10.56998,3.62118 -15.87833,5.39405c-12.09615,2.37014 -24.19449,4.72932 -36.29625,7.0778c-1.90914,0.25571 -3.82386,0.59734 -5.74317,1.02341c-3.55707,-17.76482 -7.11413,-35.52964 -10.67119,-53.29446c1.45037,-0.37267 2.88545,-0.57523 4.30742,-0.60937c0.78767,3.93381 1.57558,7.86884 2.36325,11.80265c2.1891,11.14147 4.45437,22.24618 6.79727,33.31509c6.34232,-1.08389 12.68585,-2.26927 19.03032,-3.55735c3.99586,-0.8001 7.96179,-1.63596 11.89997,-2.5093c-0.15383,-1.19172 -0.35317,-2.39585 -0.59704,-3.61383c-2.71143,-12.55555 -5.41557,-25.11256 -8.1124,-37.67103c-0.28385,-1.49347 -0.67842,-2.93312 -1.18128,-4.31946z" fill="#e2d57f" fill-rule="evenodd" stroke="none" stroke-width="1" stroke-linecap="butt"/><path d="M503.92695,169.69156c0.08153,-0.01633 0.16183,-0.0324 0.24336,-0.04873c3.55707,17.76482 7.11413,35.52964 10.67119,53.29446c1.91932,-0.42607 3.83403,-0.76769 5.74317,-1.02341c-1.94269,0.4105 -3.89365,0.77963 -5.85267,1.1086c-4.56694,0.1665 -9.13364,0.32157 -13.70132,0.46543c-2.66157,0.51141 -5.30927,0.97828 -7.94554,1.40111c2.47369,-0.49531 4.9486,-0.99086 7.42229,-1.48617c-3.19223,-16.53056 -6.37571,-33.0616 -9.5509,-49.59557c-3.12344,0.62541 -6.24567,1.25058 -9.36911,1.87599c3.36605,-0.77903 6.76081,-1.52204 10.18431,-2.22905c4.04005,-1.29365 8.09179,-2.54788 12.15522,-3.76268z" fill="#d6c978" fill-rule="evenodd" stroke="none" stroke-width="1" stroke-linecap="butt"/><path d="M538.67779,162.48026c0.50286,1.38634 0.89743,2.82599 1.18128,4.31946c2.69684,12.55847 5.40097,25.11548 8.1124,37.67103c0.24388,1.21799 0.44322,2.42211 0.59704,3.61383c-0.00804,-0.04015 -0.01633,-0.08153 -0.02437,-0.12168c-3.26564,-15.03895 -6.53007,-30.07816 -9.79327,-45.1176c-10.1077,1.9859 -20.19884,4.04823 -30.27317,6.18818c-1.42197,0.03414 -2.85705,0.2367 -4.30742,0.60937c-0.08153,0.01633 -0.16183,0.0324 -0.24336,0.04873c11.5561,-2.43792 23.13948,-4.84079 34.75085,-7.2113z" fill="#d0c479" fill-rule="evenodd" stroke="none" stroke-width="1" stroke-linecap="butt"/><path d="M548.54416,207.96289c-7.60869,1.5602 -15.23418,3.08706 -22.87525,4.58033c-2.68057,0.41018 -5.3655,0.90602 -8.05504,1.48631c-2.18106,-11.10131 -4.43829,-22.16587 -6.7729,-33.19342c-0.78767,-3.93381 -1.57558,-7.86884 -2.36325,-11.80265c10.07433,-2.13995 20.16546,-4.20227 30.27317,-6.18818c3.2632,15.03944 6.52763,30.07864 9.79327,45.1176z" fill="#d9a037" fill-rule="evenodd" stroke="none" stroke-width="1" stroke-linecap="butt"/><path d="M509.97246,215.05337c-2.52777,0.25682 -5.05823,0.46862 -7.59283,0.63444c-2.81985,-14.20943 -5.58057,-28.42057 -8.28386,-42.63562c2.46633,-0.74695 4.93145,-1.49365 7.39779,-2.2406c1.99412,9.85168 3.94688,19.71165 5.85948,29.57965c1.00253,4.90576 1.87609,9.79306 2.61942,14.66213z" fill="#cf9834" fill-rule="evenodd" stroke="none" stroke-width="1" stroke-linecap="butt"/><path d="M467.49768,180.52937c-38.37758,7.8489 -76.76245,15.66129 -115.15489,23.43723c-0.32411,-0.83618 -0.45802,-1.7155 -0.40213,-2.64042c20.62213,-4.24562 41.24609,-8.48148 61.87261,-12.7052c0.1526,0.05297 0.32283,0.06065 0.51107,0.02422c17.53312,-3.65368 35.07877,-7.25165 52.63735,-10.79274c0.17858,0.8919 0.35741,1.78499 0.536,2.67689z" fill="#e3e3e3" fill-rule="evenodd" stroke="none" stroke-width="1" stroke-linecap="butt"/><path d="M548.24183,161.57768c2.71904,-0.31917 5.43638,-0.65318 8.15249,-0.99961c3.21,14.37556 6.4261,28.7499 9.6468,43.12205c-2.68119,0.88109 -5.3826,1.71813 -8.10349,2.50845c-3.2381,-14.87615 -6.46988,-29.75231 -9.69582,-44.6309z" fill="#dca238" fill-rule="evenodd" stroke="none" stroke-width="1" stroke-linecap="butt"/><path d="M494.09577,173.05217c2.70329,14.21505 5.46401,28.4262 8.28386,42.63562c2.5346,-0.16581 5.06506,-0.37761 7.59283,-0.63444c0.36142,0.11747 0.36632,0.24304 0.01225,0.37721c-2.89332,0.1946 -5.78566,0.39407 -8.67581,0.59817c-2.82254,-14.2418 -5.63291,-28.48602 -8.4299,-42.73294c0.40518,-0.08113 0.81159,-0.16251 1.21676,-0.24363z" fill="#e4d680" fill-rule="evenodd" stroke="none" stroke-width="1" stroke-linecap="butt"/><path d="M548.24183,161.57768c0.22362,-0.1283 0.47938,-0.22255 0.76653,-0.28004c2.82587,-0.34815 5.6537,-0.66126 8.48105,-0.93883c3.30639,14.3955 6.5293,28.81023 9.67117,43.24373c-0.37257,0.10497 -0.74588,0.13669 -1.11946,0.09759c-3.22071,-14.37215 -6.43681,-28.74649 -9.6468,-43.12205c-2.71611,0.34643 -5.43345,0.68044 -8.15249,0.99961z" fill="#d4c878" fill-rule="evenodd" stroke="none" stroke-width="1" stroke-linecap="butt"/><path d="M636.9203,145.59328c-5.18324,1.92373 -10.36647,3.84746 -15.54971,5.77119c-0.66387,0.13545 -1.29632,0.34563 -1.8981,0.63317c-0.11377,-0.56823 -0.22731,-1.13524 -0.34109,-1.70347c-10.75478,2.12307 -21.49421,4.31647 -32.22,6.578c-0.06505,-0.32488 -0.12986,-0.64854 -0.19491,-0.97342c16.72591,-3.46801 33.46084,-6.90365 50.20381,-10.30547z" fill="#c5c5c5" fill-rule="evenodd" stroke="none" stroke-width="1" stroke-linecap="butt"/><path d="M467.49768,180.52937c-0.04617,0.33197 -0.02127,0.66488 0.07323,0.99778c-31.65786,6.43759 -63.30585,12.92257 -94.94435,19.45373c-0.0486,0.35397 -0.02016,0.70642 0.08541,1.05862c-0.12168,0.02437 -0.24336,0.04873 -0.36503,0.07309c-6.67691,0.71048 -13.34496,1.32806 -20.00415,1.85401c38.39243,-7.77594 76.77731,-15.58833 115.15489,-23.43723z" fill="#c5c4c4" fill-rule="evenodd" stroke="none" stroke-width="1" stroke-linecap="butt"/><path d="M467.57092,181.52715c2.68264,14.39636 5.35432,28.79492 8.01628,43.19542c-0.08153,0.01633 -0.16183,0.0324 -0.24336,0.04873c-2.201,-12.13002 -4.41905,-24.25662 -6.65193,-36.38152c-0.12986,-0.64854 -0.25996,-1.29829 -0.38981,-1.94683c-5.60885,0.95474 -11.24239,1.99796 -16.90097,3.13098c-8.91162,1.76667 -17.7979,3.63076 -26.65934,5.59114c0.02914,0.77122 0.14308,1.55075 0.34122,2.33622c0.07164,0.43366 0.19755,0.8514 0.3775,1.25324c1.84191,11.54509 3.73067,23.08461 5.66591,34.61735c-1.22379,0.40703 -2.48108,0.65877 -3.77198,0.75527c-0.43564,-2.82228 -0.91484,-5.63709 -1.43773,-8.44443c-1.13901,-7.38549 -2.32523,-14.78431 -3.55805,-22.19405c-0.36835,-2.246 -0.73401,-4.4938 -1.09663,-6.74095c-0.04873,-0.24336 -0.09745,-0.4867 -0.14618,-0.73007c-6.29828,1.09279 -12.62147,2.27409 -18.96948,3.54516c-7.84657,1.58125 -15.68669,3.19285 -23.52011,4.83601c-0.23688,0.16133 -0.33843,0.39174 -0.30404,0.69366c0.05257,0.57795 0.14603,1.15025 0.28025,1.71566c0.11876,0.5685 0.27306,1.12862 0.46277,1.67912c1.61104,11.361 3.25238,22.71845 4.92353,34.06994c-1.76296,0.43779 -3.54747,0.79511 -5.35378,1.072c-0.58625,-3.72483 -1.12234,-7.4559 -1.60869,-11.19441c-1.42012,-9.71478 -2.81761,-19.43281 -4.19234,-29.15414c-0.09879,-0.43582 -0.26095,-0.82477 -0.48699,-1.16803c0.12168,-0.02437 0.24336,-0.04873 0.36503,-0.07309c-0.10557,-0.3522 -0.13401,-0.70466 -0.08541,-1.05862c31.63849,-6.53116 63.28649,-13.01613 94.94435,-19.45373z" fill="#8d5653" fill-rule="evenodd" stroke="none" stroke-width="1" stroke-linecap="butt"/><path d="M634.8042,150.8261c-4.92984,1.07822 -9.8704,2.10924 -14.82021,3.09402c-0.15322,-0.64513 -0.32347,-1.28685 -0.5115,-1.92247c0.60178,-0.28755 1.23423,-0.49771 1.8981,-0.63317c4.33778,-0.88121 8.66995,-1.7904 12.99507,-2.72857c0.21992,0.73808 0.3661,1.46814 0.43854,2.19019z" fill="#e2e2e2" fill-rule="evenodd" stroke="none" stroke-width="1" stroke-linecap="butt"/><path d="M623.93578,195.77793c-6.69201,1.2463 -13.39228,2.54613 -20.10104,3.89829c-0.19934,-0.0917 -0.41862,-0.13132 -0.65711,-0.12154c-3.22545,-13.78272 -6.48959,-27.55643 -9.79243,-41.32113c-0.09353,-0.35967 0.01957,-0.63543 0.34053,-0.82751c1.31165,-0.38919 2.64206,-0.69734 3.99097,-0.92567c5.24209,-1.01039 10.46591,-2.0994 15.67195,-3.26456c3.502,14.19054 7.01738,28.37839 10.54713,42.56211z" fill="#858585" fill-rule="evenodd" stroke="none" stroke-width="1" stroke-linecap="butt"/><path d="M624.56853,195.7778c-0.21027,-0.02624 -0.4203,-0.02595 -0.63275,0.00014c-3.52975,-14.18372 -7.04513,-28.37158 -10.54713,-42.56211c-5.20604,1.16517 -10.42986,2.25417 -15.67195,3.26456c5.38003,-1.25062 10.79901,-2.42046 16.25597,-3.50806c3.44264,14.2986 6.97412,28.56677 10.59586,42.80546z" fill="#c1a43c" fill-rule="evenodd" stroke="none" stroke-width="1" stroke-linecap="butt"/><path d="M593.3852,158.23357c3.30283,13.7647 6.56697,27.53841 9.79243,41.32113c-1.94684,0.38982 -3.89366,0.77963 -5.84049,1.16944c-3.32186,-13.92921 -6.6184,-27.86474 -9.88988,-41.80782c1.90667,-0.38177 3.81213,-0.7633 5.71882,-1.14509c0.00613,0.20126 0.0799,0.35481 0.21913,0.46235z" fill="#d99f37" fill-rule="evenodd" stroke="none" stroke-width="1" stroke-linecap="butt"/><path d="M634.8042,150.8261c-3.96605,1.3535 -7.96424,2.66029 -11.997,3.92083c-0.0324,-0.16183 -0.06505,-0.32488 -0.09745,-0.4867c-0.62252,0.0196 -1.23895,0.10127 -1.84952,0.24378c-0.23753,-0.07393 -0.48893,-0.06536 -0.75443,0.0245c-0.04069,-0.2032 -0.08113,-0.40518 -0.12182,-0.60838c4.94981,-0.98478 9.89037,-2.01579 14.82021,-3.09402z" fill="#c2c2c2" fill-rule="evenodd" stroke="none" stroke-width="1" stroke-linecap="butt"/><path d="M620.1058,154.5285c0.26549,-0.08987 0.51688,-0.09843 0.75443,-0.0245c-0.12168,0.02437 -0.24336,0.04873 -0.36503,0.07309c2.51869,10.36044 5.09676,20.70773 7.73371,31.03942c0.00443,0.23071 0.00789,0.46287 0.01232,0.69359c-0.12488,-0.13066 -0.21811,-0.28031 -0.27996,-0.45016c-2.60096,-10.44901 -5.21994,-20.89315 -7.85547,-31.33144z" fill="#d0ae3a" fill-rule="evenodd" stroke="none" stroke-width="1" stroke-linecap="butt"/><path d="M468.3021,186.44295c-14.54002,2.91769 -29.06008,5.82505 -43.56031,8.72212c8.86144,-1.96037 17.74772,-3.82448 26.65934,-5.59114c5.65858,-1.13302 11.29212,-2.17623 16.90097,-3.13098z" fill="#eddc86" fill-rule="evenodd" stroke="none" stroke-width="1" stroke-linecap="butt"/><path d="M421.11585,196.01764c-14.16743,2.87852 -28.33064,5.67267 -42.48959,8.38117c7.83342,-1.64316 15.67353,-3.25476 23.52011,-4.83601c6.348,-1.27107 12.6712,-2.45237 18.96948,-3.54516z" fill="#eddc86" fill-rule="evenodd" stroke="none" stroke-width="1" stroke-linecap="butt"/><path d="M424.74179,195.16507c14.50023,-2.89707 29.0203,-5.80444 43.56031,-8.72212c0.12986,0.64854 0.25996,1.29829 0.38981,1.94683c-14.48935,3.13914 -29.02557,6.1763 -43.6089,9.11151c-0.19815,-0.78546 -0.3121,-1.56501 -0.34122,-2.33622z" fill="#e1d47e" fill-rule="evenodd" stroke="none" stroke-width="1" stroke-linecap="butt"/><path d="M378.62627,204.39882c14.15895,-2.7085 28.32215,-5.50265 42.48959,-8.38117c0.04873,0.24336 0.09745,0.4867 0.14618,0.73007c-0.02703,0.48633 0.02978,0.98117 0.17068,1.48448c-14.27672,2.85864 -28.55354,5.7173 -42.83025,8.57594c-0.13422,-0.5654 -0.22768,-1.13771 -0.28025,-1.71566c-0.03438,-0.30191 0.06717,-0.53232 0.30404,-0.69366z" fill="#e1d47e" fill-rule="evenodd" stroke="none" stroke-width="1" stroke-linecap="butt"/><path d="M468.69192,188.38978c2.23288,12.1249 4.45092,24.2515 6.65193,36.38152c-0.66508,0.17367 -1.32166,0.26337 -1.97119,0.26813c-2.02881,-11.4849 -4.11577,-22.9632 -6.26211,-34.43469c-13.1411,2.63125 -26.2822,5.26251 -39.42331,7.89376c1.88119,11.43092 3.74948,22.86823 5.605,34.31315c2.20332,-0.48293 4.40154,-0.88133 6.59491,-1.19394c-2.92024,0.58472 -5.84049,1.16944 -8.76073,1.75417c-1.93524,-11.53274 -3.82399,-23.07225 -5.66591,-34.61735c-0.17993,-0.40185 -0.30585,-0.81958 -0.3775,-1.25324c14.58333,-2.93523 29.11955,-5.97237 43.6089,-9.11151z" fill="#ded07d" fill-rule="evenodd" stroke="none" stroke-width="1" stroke-linecap="butt"/><path d="M421.26203,196.74771c0.36262,2.24715 0.72829,4.49495 1.09663,6.74095c1.04081,7.40136 2.22666,14.79899 3.55805,22.19405c0.52289,2.80734 1.00209,5.62216 1.43773,8.44443c-0.62431,0.16551 -1.24074,0.24717 -1.84952,0.24378c-1.77021,-11.43543 -3.59787,-22.88087 -5.48332,-34.33752c-12.87594,2.68953 -25.76565,5.31221 -38.66887,7.86926c1.67711,11.34903 3.35885,22.69713 5.0452,34.04557c2.24396,-0.49107 4.48269,-0.89758 6.71659,-1.21831c-3.04192,0.60909 -6.08384,1.21817 -9.12576,1.82726c-1.67115,-11.35149 -3.31249,-22.70894 -4.92353,-34.06994c-0.1897,-0.55049 -0.344,-1.11061 -0.46277,-1.67912c14.27672,-2.85864 28.55354,-5.7173 42.83025,-8.57594c-0.1409,-0.50332 -0.19771,-0.99816 -0.17068,-1.48448z" fill="#ded17d" fill-rule="evenodd" stroke="none" stroke-width="1" stroke-linecap="butt"/><path d="M510.84097,180.83612c2.33461,11.02755 4.59184,22.09209 6.7729,33.19342c2.68953,-0.58029 5.37447,-1.07614 8.05504,-1.48631c-2.67689,0.536 -5.35378,1.072 -8.03067,1.60799c-2.34289,-11.06891 -4.60816,-22.17362 -6.79727,-33.31509z" fill="#ddb952" fill-rule="evenodd" stroke="none" stroke-width="1" stroke-linecap="butt"/><path d="M425.50493,234.37092c-10.79384,2.13468 -21.59084,4.25355 -32.39041,6.359c-2.2339,0.32074 -4.47264,0.72724 -6.71659,1.21831c-1.68636,-11.34844 -3.3681,-22.69654 -5.0452,-34.04557c12.90323,-2.55704 25.79293,-5.17973 38.66887,-7.86926c1.88545,11.45665 3.71311,22.90209 5.48332,34.33752z" fill="#e1d47f" fill-rule="evenodd" stroke="none" stroke-width="1" stroke-linecap="butt"/><path d="M473.37265,225.03944c-11.15814,2.21143 -22.32017,4.40338 -33.4855,6.57828c-2.19337,0.31263 -4.3916,0.71102 -6.59491,1.19394c-1.85551,-11.44492 -3.72382,-22.88223 -5.605,-34.31315c13.1411,-2.63125 26.2822,-5.26251 39.42331,-7.89376c2.14634,11.47148 4.2333,22.94979 6.26211,34.43469z" fill="#e1d47f" fill-rule="evenodd" stroke="none" stroke-width="1" stroke-linecap="butt"/><path d="M422.35867,203.48866c1.23283,7.40974 2.41905,14.80856 3.55805,22.19405c-1.33139,-7.39507 -2.51724,-14.7927 -3.55805,-22.19405z" fill="#d1bd76" fill-rule="evenodd" stroke="none" stroke-width="1" stroke-linecap="butt"/><path d="M615.97178,233.77303c0.58943,-0.11913 1.0039,0.0881 1.24092,0.62046c-0.29038,0.49141 -0.7036,0.61549 -1.24092,0.37227c-0.32885,-0.33505 -0.32885,-0.66638 0,-0.99274z" fill="#696969" fill-rule="evenodd" stroke="none" stroke-width="1" stroke-linecap="butt"/><path d="M519.67636,242.08719c2.73003,0 5.46005,0 8.19008,0c7.78553,0.03599 15.56239,0.03599 23.3293,0c0,0.04095 0,0.08314 0,0.12409c-4.03299,0.08314 -8.08584,0.12409 -12.16102,0.12409c-6.47388,0.01737 -12.92667,-0.06577 -19.35836,-0.24818z" fill="#f6e88b" fill-rule="evenodd" stroke="none" stroke-width="1" stroke-linecap="butt"/><path d="M476.36825,245.93405c0,0.57951 0,1.15778 0,1.73728c1.34639,-0.04095 2.66922,0.00125 3.97095,0.12409c-1.36502,0 -2.73003,0 -4.09503,0c-0.03971,-0.64404 0.00124,-1.2645 0.12409,-1.86138z" fill="#957830" fill-rule="evenodd" stroke="none" stroke-width="1" stroke-linecap="butt"/><path d="M546.49431,112.2113c-0.02658,-0.04643 -0.05245,-0.09606 -0.07778,-0.14847c-0.01216,0.06085 -0.02461,0.12161 -0.03735,0.18231c0.03808,-0.01214 0.07645,-0.02345 0.11513,-0.03384zM546.03701,111.06059c-0.25658,-0.74855 -0.54266,-1.54565 -1.04866,-1.83337c-0.22922,-0.13034 -1.86641,2.58133 -2.03454,2.78624c-2.6535,3.23383 -4.89129,6.95974 -7.22203,10.45372c-4.81733,5.98642 -12.21615,6.31785 -19.31635,7.68637c-4.54891,2.15599 -12.08287,2.62224 -16.52197,0.13041c-1.51016,-0.84772 -2.49908,-2.43409 -3.92959,-3.40956c-0.70656,-1.02724 -1.87165,-1.83326 -2.91043,-2.52944c-0.77038,-0.5163 -1.49001,-1.24022 -2.08969,-1.96615c0.12754,0.90116 0.17295,2.09679 0.16208,2.32595c-0.09878,2.08405 0.69075,4.37607 1.09837,6.41903c0.44037,1.41651 0.77135,3.24927 1.57032,4.51707c1.24524,1.97593 3.26927,2.37835 5.30365,2.9787c4.63856,1.36888 9.24441,2.36696 14.07664,2.64303c6.02867,0.35357 12.35186,-1.89771 17.48778,-4.90945c2.13969,-1.25473 4.23989,-2.4591 5.84556,-4.39754c2.98259,-3.36709 4.58217,-7.6364 5.86846,-11.8953c0.85271,-2.82329 2.14973,-5.5603 2.67951,-8.46914c0,0 0.12962,-0.70077 0.83038,-0.57116c0.05516,0.0102 0.10516,0.02395 0.15049,0.0406zM545.73946,114.63655c-0.61831,1.95871 -1.40698,3.87404 -1.99832,5.83548c-1.33995,4.44459 -3.04048,8.89744 -6.15162,12.41204c-1.72044,2.05749 -3.92363,3.36 -6.20591,4.69853c-5.38388,3.15757 -11.9762,5.46077 -18.29081,5.10291c-4.93488,-0.28698 -9.64152,-1.29305 -14.37864,-2.69337c-2.33866,-0.69131 -4.66122,-1.28409 -6.0852,-3.53096c-0.89849,-1.4177 -1.29478,-3.39715 -1.78607,-4.986c-0.54653,-2.72039 -0.69475,-5.54969 -1.22787,-8.20162c-0.10445,-0.51959 -0.45532,-2.75636 0.10583,-3.06211c0.49003,-0.26699 1.15431,0.01539 1.65284,0.26615c0.60105,0.30233 1.40862,1.83078 1.94945,2.34261c1.14829,1.08674 2.72258,1.70355 3.6411,3.03896c1.33671,0.8669 2.22718,2.42436 3.61903,3.17755c4.17014,2.25668 11.14645,1.77218 15.38365,-0.23607c6.73591,-1.39176 14.01448,-1.47931 18.61578,-7.17677c2.21378,-3.32606 4.36633,-6.80759 6.86225,-9.90579c0.81008,-1.00556 1.40657,-2.79716 2.52334,-3.42844c2.57508,-1.45561 3.6389,2.58576 3.84679,4.45735c-0.47276,0.39537 -0.96665,0.79807 -1.54093,1.02168l-0.13723,0.45951c0,0 -0.1209,0.29381 -0.39743,0.40835z" data-paper-data="{&quot;index&quot;:null}" fill="#000000" fill-rule="nonzero" stroke="none" stroke-width="0.5" stroke-linecap="butt"/><path d="M546.00692,111.0797c-0.04534,-0.01665 -0.09526,-0.03028 -0.15042,-0.04049c-0.70076,-0.12961 -0.77033,0.53277 -0.77033,0.53277c-0.52979,2.90884 -1.82303,5.6538 -2.67573,8.47709c-1.2863,4.25892 -2.88542,8.54915 -5.868,11.91624c-1.60567,1.93844 -3.71327,3.15647 -5.85296,4.41121c-5.13591,3.01175 -11.50233,5.27131 -17.531,4.91775c-4.83223,-0.27607 -9.45323,-1.28915 -14.0918,-2.65803c-2.03438,-0.60036 -4.06093,-1.00886 -5.30618,-2.98478c-0.79897,-1.2678 -1.13125,-3.10644 -1.57163,-4.52294c-0.40761,-2.04296 -1.19732,-4.34293 -1.09854,-6.42698c0.01086,-0.22916 -0.03418,-1.42752 -0.16173,-2.32868c0.59967,0.72593 1.38985,1.45976 2.16023,1.97606c1.03879,0.69619 2.20408,1.499 2.91064,2.52624c1.43051,0.97547 2.41908,2.5561 3.92924,3.40381c4.43909,2.49183 11.96685,2.01 16.51577,-0.14599c7.1002,-1.36852 14.43599,-1.66853 19.25331,-7.65495c2.33074,-3.49399 4.573,-7.2107 7.2265,-10.44453c0.16814,-0.20491 1.86349,-2.95773 2.09271,-2.82739c0.506,0.28772 0.79346,1.08684 1.05005,1.83539z" data-paper-data="{&quot;noHover&quot;:false,&quot;origItem&quot;:[&quot;Path&quot;,{&quot;applyMatrix&quot;:true,&quot;segments&quot;:[[[368.43012,126.24988],[0,0],[-0.14681,-1.10062]],[[367.49235,123.43844],[0.61694,0.53527],[-0.27948,-0.24249]],[[363.92541,126.71152],[0.28779,-0.23561],[-4.54188,3.7184]],[[351.10861,139.10518],[4.16946,-4.16527],[-8.27743,6.90957]],[[322.4136,144.35926],[10.14621,0.07315],[-6.85284,1.71321]],[[299.64504,139.98692],[5.42127,4.65148],[-1.84429,-1.58242]],[[295.17764,134.2131],[1.6995,1.73625],[-0.68916,-1.60804]],[[291.87003,129.93101],[1.23747,1.24407],[-0.91773,-0.92262]],[[289.53649,126.65007],[0.6251,1.16402],[-0.07278,1.27505]],[[289.1187,129.89501],[0.07808,-0.31231],[-0.71006,2.84024]],[[288.86152,139.02957],[0.00199,-2.92321],[0.21566,2.0703]],[[289.77769,145.67724],[-0.75003,-1.96448],[1.16897,3.06175]],[[296.25437,151.2368],[-2.63371,-1.3865],[6.00509,3.16136]],[[314.89432,158.75145],[-6.57262,-1.71112],[8.19747,2.14736]],[[340.30836,156.81437],[-7.89625,2.72894],[3.28968,-1.13691]],[[349.5628,152.37422],[-2.74329,2.22475],[5.03138,-3.81109]],[[360.91438,137.62418],[-2.94314,5.50548],[1.95105,-3.64966]],[[366.93437,126.70966],[-1.53032,3.85633],[0,0]],[[368.23424,126.15257],[-0.92847,-0.37139],[0.07308,0.02923]],[[368.43012,126.24989],[-0.05779,-0.0354],[0,0]]],&quot;closed&quot;:true,&quot;fillColor&quot;:[0,0,0,1]}]}" fill="#ff8a8a" fill-rule="nonzero" stroke="none" stroke-width="0.5" stroke-linecap="butt"/><path d="M491.69014,107.61353c-0.09647,0.07283 -0.22781,0.12519 -0.40655,0.13516c-0.71154,0.03969 -0.75123,-0.67186 -0.75123,-0.67186c-0.07488,-2.27523 1.95521,-3.36446 3.77662,-4.3233c4.03426,-2.12373 8.83666,-3.22574 12.43245,0.36206c2.66244,2.71558 4.25343,9.47429 3.17416,13.09455c-0.62035,2.08089 -2.26141,3.6497 -3.92843,4.94741c-1.63009,0.99345 -3.53344,2.02782 -5.53025,1.98398c-5.7225,-0.12566 -7.95857,-7.24679 -8.85263,-11.71193c-0.25502,-1.314 -0.03411,-2.56131 0.08587,-3.81606zM493.32442,104.91575c0.41916,0.45653 -0.01229,0.93895 -0.01229,0.93895l-0.1598,-0.1478c0.12106,1.84121 -0.53821,3.57776 -0.15049,5.44286c0.65185,3.25551 1.29374,5.94348 3.70155,8.28221c1.1129,1.08098 2.00452,2.24991 3.74303,2.28431c1.71436,0.03391 3.3337,-0.88387 4.73146,-1.73198c1.4131,-1.09903 2.855,-2.44077 3.3771,-4.19865c0.90788,-3.05677 -0.49029,-9.39495 -2.82114,-11.66198c-3.12892,-3.1335 -7.29636,-1.9201 -10.76404,-0.10726c-0.47633,0.24902 -1.09327,0.53877 -1.64537,0.89935z" fill="#000000" fill-rule="nonzero" stroke="none" stroke-width="0.5" stroke-linecap="butt"/><path d="M494.94815,103.98809c3.46768,-1.81285 7.67536,-3.02832 10.80428,0.10518c2.33086,2.26703 3.7421,8.65192 2.83422,11.70868c-0.5221,1.75789 -1.97928,3.11494 -3.39239,4.21397c-1.39776,0.84811 -3.03542,1.76983 -4.7498,1.73592c-1.7385,-0.03439 -2.64576,-1.20792 -3.75866,-2.2889c-2.4078,-2.33873 -3.06761,-5.06097 -3.71946,-8.31647c-0.38771,-1.86511 0.27907,-3.62045 0.158,-5.46167l0.15976,0.14785c0,0 0.43311,-0.48438 0.01394,-0.94091c0.5521,-0.36058 1.17375,-0.65465 1.65008,-0.90368z" data-paper-data="{&quot;noHover&quot;:false,&quot;origItem&quot;:[&quot;Path&quot;,{&quot;applyMatrix&quot;:true,&quot;segments&quot;:[[[251.46859,64.51417],[0.85897,-0.34402],[0.45095,0.74362]],[251.19301,65.80268],[[251.01386,65.55529],[0,0],[-0.34068,2.56668]],[[249.30729,73.00268],[-0.01962,-2.67303],[0,4.65885]],[[252.11854,85.41797],[-2.66859,-3.88121],[1.23344,1.79392]],[[256.63926,89.59215],[-2.38254,-0.52627],[2.34946,0.51896]],[[263.62645,88.51263],[-2.15684,0.78184],[2.24707,-1.12285]],[[269.42973,83.66608],[-1.20266,2.27484],[2.09129,-3.9557]],[[268.76096,66.8431],[2.58247,3.76136],[-3.44181,-5.1734]],[[253.98022,63.73004],[5.27063,-1.53896],[-0.724,0.2114]]],&quot;closed&quot;:true}]}" fill="#ffffff" fill-rule="nonzero" stroke="none" stroke-width="0.5" stroke-linecap="butt"/><path d="M517.75468,94.05171c4.42732,-2.40316 11.37047,-1.02937 14.77742,2.0263c5.54038,5.9792 -0.04168,18.06684 -7.48383,19.55698c-7.695,1.54078 -11.57293,-7.70872 -12.82123,-13.73377c-0.68362,-3.41414 2.12908,-6.94488 5.52762,-7.84951zM514.24128,98.51182c-0.42346,0.42513 -0.95353,0.82135 -0.96301,1.47701c-0.00805,0.55624 0.23711,1.0871 0.34633,1.63257c0.99382,5.19325 4.42809,13.96075 11.14383,12.61604c5.35369,-1.07197 7.49299,-6.4416 8.27926,-11.26004c0.39308,-2.40887 0.18497,-4.06393 -1.51549,-5.88366c-3.00356,-2.72408 -6.77852,-3.20149 -10.68144,-2.42211c-0.13225,0.0264 -0.26573,0.05605 -0.39993,0.08896c-0.00056,0.05753 -0.00767,0.11975 -0.02276,0.18703c-0.15594,0.69537 -0.85132,0.53943 -0.85132,0.53943l-0.73756,-0.17327c-1.45585,0.65697 -2.75545,1.7279 -3.22142,3.25812c0,0 -0.22521,0.67613 -0.90134,0.45091c-0.32434,-0.10803 -0.44127,-0.31983 -0.47514,-0.51098z" fill="#000000" fill-rule="nonzero" stroke="none" stroke-width="0.5" stroke-linecap="butt"/><path d="M514.68531,99.00543c0.67613,0.22521 0.90287,-0.45342 0.90287,-0.45342c0.46597,-1.53022 1.77723,-2.61209 3.23308,-3.26905l0.73932,0.17231c0,0 0.69867,0.15447 0.85461,-0.54091c0.01509,-0.06727 0.0225,-0.12962 0.02305,-0.18713c0.13421,-0.03291 0.26905,-0.06303 0.40129,-0.08944c3.90292,-0.77937 7.71497,-0.29266 10.71853,2.43143c1.70047,1.81974 1.918,3.49447 1.52493,5.90334c-0.78627,4.81844 -2.95821,10.22844 -8.3119,11.30041c-6.71575,1.3447 -10.18725,-7.46695 -11.18108,-12.6602c-0.10922,-0.54548 -0.35295,-1.08075 -0.34492,-1.63699c0.00949,-0.65566 0.54193,-1.05677 0.96538,-1.48191c0.03387,0.19115 0.15046,0.40354 0.47482,0.51158z" data-paper-data="{&quot;noHover&quot;:false,&quot;origItem&quot;:[&quot;Path&quot;,{&quot;applyMatrix&quot;:true,&quot;segments&quot;:[[[282.01246,61.46553],[-0.00606,0.27234],[-0.69977,0.46828]],[[280.28054,63.23244],[0.19368,-0.89951],[-0.16431,0.76312]],[[280.30729,65.57411],[0,-0.78061],[-0.06333,7.41921]],[[292.16444,86.00268],[-9.61069,0],[7.66148,0]],[[306.65802,72.79087],[-2.4093,6.4131],[1.20447,-3.20608]],[[306.19378,64.278],[1.83834,2.97227],[-3.38213,-4.57555]],[[292.16444,58.00268],[5.58476,0.0029],[-0.18923,-0.0001]],[[291.58966,58.0149],[0.19373,-0.00831],[-0.01661,0.079]],[[291.50682,58.26596],[0.03929,-0.08841],[-0.40614,0.91381]],[290.18687,58.77364],[[289.21979,58.33203],[0,0],[-2.1841,0.50284]],[[283.88982,61.92739],[1.06271,-1.97706],[0,0]],[[282.52544,62.2995],[0.86824,0.49614],[-0.4165,-0.238]]],&quot;closed&quot;:true}]}" fill="#ffffff" fill-rule="nonzero" stroke="none" stroke-width="0.5" stroke-linecap="butt"/><path d="M499.2362,111.04355c-0.17387,-0.86833 0.38911,-1.7132 1.25744,-1.88707c0.86833,-0.17387 1.7132,0.38911 1.88707,1.25744c0.17387,0.86833 -0.38911,1.7132 -1.25744,1.88707c-0.86833,0.17387 -1.7132,-0.38911 -1.88707,-1.25744z" fill="#000000" fill-rule="nonzero" stroke="none" stroke-width="0.5" stroke-linecap="butt"/><path d="M521.81608,103.51134c-0.17387,-0.86833 0.38911,-1.7132 1.25744,-1.88707c0.86833,-0.17387 1.7132,0.38911 1.88707,1.25744c0.17387,0.86833 -0.38911,1.7132 -1.25744,1.88707c-0.86833,0.17387 -1.7132,-0.38911 -1.88707,-1.25744z" fill="#000000" fill-rule="nonzero" stroke="none" stroke-width="0.5" stroke-linecap="butt"/><path d="M470.73868,83.96598l33.72569,13.90882" fill="none" fill-rule="nonzero" stroke="#000000" stroke-width="3.5" stroke-linecap="round"/><path d="M512.1506,94.77837l29.28301,-32.13182" fill="none" fill-rule="nonzero" stroke="#000000" stroke-width="3.5" stroke-linecap="round"/><g fill-rule="nonzero" stroke="none" stroke-width="1" stroke-linecap="butt"><path d="M334.79246,429.36354c-2.09942,0.87676 -6.90727,3.25054 -5.32693,1.40742c-0.94772,0.88011 -2.22552,2.03384 -2.94351,2.5897c-3.4013,2.6333 -8.23268,5.4005 -11.93276,7.82769c-10.15088,6.65881 -20.10375,12.97429 -29.46567,20.12734c-4.23093,3.23268 -6.09925,3.04621 -6.55672,5.32205c-1.2923,4.16278 -5.22752,9.70242 -7.09636,14.26563c-2.53293,6.18461 -2.31699,10.40953 -3.06146,15.43318c-1.48327,4.70791 4.40907,8.0136 6.31564,10.92002c0.51036,0.778 2.31538,1.57471 1.83472,2.70912c0.87027,-0.52949 1.70977,-1.04246 2.23343,-1.38596c3.4804,-2.28308 6.96074,-4.56613 10.44115,-6.84923c13.84447,-9.08174 29.85556,-19.74679 42.46849,-29.81872c15.07505,-11.80716 33.62852,-21.22725 48.92204,-32.9812c8.41146,-6.38127 18.2476,-12.32033 27.21793,-18.19864c4.55065,-2.98207 8.02221,-6.18417 10.80729,-6.29104c0.73203,-0.02807 -0.48819,-0.74422 -0.73229,-1.11632c-0.61024,-0.93026 -1.2205,-1.86056 -1.83074,-2.79084c-3.41739,-5.20956 -6.83477,-10.41912 -10.25216,-15.62869c-0.80789,-1.23157 -4.56094,-5.07181 -3.08896,-6.71932c-0.33973,0.21214 -0.72662,0.44854 -0.93866,0.5795c-1.87876,1.16036 -2.88499,1.87487 -4.5777,2.43517c-2.93863,0.9727 -11.04287,7.01331 -14.43337,9.23743c-13.17571,8.64304 -26.35141,17.28609 -39.52716,25.92916c0,0 -2.98317,1.95691 -3.71546,0.84058c-0.03007,-0.04583 -0.05388,-0.09304 -0.07186,-0.14149c-1.50031,0.8224 -3.04376,1.61051 -4.68891,2.29754zM381.33128,398.20506c7.95357,-5.21741 17.77119,-12.41565 24.68753,-13.71528c3.96337,-0.74476 4.63951,4.75967 5.78206,6.50142c3.41739,5.20956 6.83477,10.41912 10.25216,15.62869c0.39023,0.59488 3.35354,2.87184 2.56304,3.90717c-7.98461,10.45721 -29.41282,20.44364 -41.3853,29.82527c-14.95458,11.49346 -34.53709,21.1312 -48.66036,32.7762c-12.99963,10.38074 -29.59192,21.46728 -43.87183,30.83466c-2.0483,1.34365 -13.95128,9.98208 -15.66171,10.27382c-4.90494,0.83659 -4.98607,-1.09637 -6.27851,-3.0666c-2.33773,-3.5637 -6.81247,-6.70422 -6.47257,-11.82693c0.76303,-5.14888 0.65503,-9.74015 3.19339,-15.93802c1.02396,-2.50014 1.91406,-5.5298 3.56364,-8.26331c1.07941,-1.78867 3.68802,-4.37786 3.42001,-5.60677c0.85618,-4.25956 6.024,-6.43793 11.19635,-10.45242c9.20739,-7.14625 19.40166,-13.52552 29.46567,-20.12734c3.71154,-2.43471 10.54417,-7.83107 13.29293,-9.34973c4.78501,-2.64367 8.38153,-2.92248 13.0824,-5.38841c3.44942,-1.80946 6.74235,-4.23789 10.99038,-6.01197c0.3225,-0.13469 0.64496,-0.26935 0.96748,-0.40403c9.95778,-6.53214 19.91558,-13.06429 29.87339,-19.59645z" data-paper-data="{&quot;index&quot;:null}" fill="#000000"/><path d="M339.48763,426.98519c0.01798,0.04848 0.04216,0.09548 0.07221,0.1413c0.73229,1.11632 3.73137,-0.84828 3.73137,-0.84828c13.17571,-8.64304 26.4362,-17.30996 39.61199,-25.95306c3.39047,-2.22409 11.50576,-8.26455 14.4444,-9.23725c1.69266,-0.56027 2.70248,-1.27446 4.58116,-2.43479c0.21208,-0.13097 0.59946,-0.36727 0.93921,-0.57942c-1.47198,1.64755 2.29713,5.49251 3.10502,6.72408c3.41739,5.20956 6.84889,10.45418 10.26628,15.66375c0.61024,0.93026 1.21835,1.86843 1.82859,2.7987c0.2441,0.37211 1.46318,1.0914 0.73114,1.11949c-2.78508,0.10688 -6.2586,3.3137 -10.80923,6.29576c-8.97032,5.87831 -18.82525,11.84792 -27.23672,18.22919c-15.29355,11.75396 -33.99797,21.28855 -49.07302,33.09571c-12.61291,10.07193 -28.70209,20.76041 -42.54663,29.84219c-3.4804,2.28308 -6.96914,4.56663 -10.44954,6.84971c-0.5237,0.34354 -1.3648,0.85653 -2.23502,1.38599c0.48069,-1.13442 -1.33251,-1.93143 -1.84285,-2.70943c-1.90657,-2.90643 -7.82559,-6.22224 -6.34231,-10.93018c0.74446,-5.02365 0.52075,-9.27379 3.0537,-15.45839c1.86891,-4.56325 5.81553,-10.1342 7.10785,-14.29696c0.45747,-2.27584 2.33227,-2.09967 6.5632,-5.33234c9.36191,-7.15304 19.36848,-13.52614 29.51932,-20.18492c3.69998,-2.42712 8.57115,-5.22443 11.97246,-7.85772c0.71791,-0.55584 2.00758,-1.71732 2.95532,-2.59742c-1.58041,1.84315 3.24558,-0.54156 5.34501,-1.41833c1.64521,-0.68708 3.20699,-1.48509 4.70729,-2.30748z" data-paper-data="{&quot;noHover&quot;:false,&quot;origItem&quot;:[&quot;Path&quot;,{&quot;applyMatrix&quot;:true,&quot;segments&quot;:[[[579.60736,595.76373],[0.95609,-0.20262],[0.00646,0.07548]],[[579.61718,596],[0,-0.08208],[0,2]],[[577.61718,598],[0,0],[-8.83333,0]],[[551.11718,598],[8.83333,0],[-2.27308,0]],[[541.51161,598.28885],[1.67648,-1.19621],[-0.96568,0.68904]],[[538.61718,599],[1.23739,-0.09027],[-0.13966,0.01019]],[[537.99901,599.04541],[0.22447,-0.0134],[1.19653,0.85421]],[[538.61718,610],[0,-2.20646],[0,9.33333]],[[538.61718,638],[0,-9.33333],[0,1.66667]],[[538.61718,643],[0,-1.66667],[0,0.66667]],[[538.61718,645],[-0.35177,0.56631],[1.33831,-2.15456]],[[545.61718,644],[-3.04994,0.00386],[6.01206,-0.00761]],[[563.97058,644.43107],[-5.90478,-1.08158],[10.78253,2.15651]],[[597.04254,645.54479],[-10.6965,-2.40266],[9.00888,2.25222]],[[626.11718,648],[-9.28168,0],[2.33333,0]],[[633.11718,648],[-2.33333,0],[0.35109,0]],[[634.59021,647.90091],[-0.5707,0.05184],[-0.57412,-1.02596]],[[634.61718,643],[0,1.39387],[0,-5.20707]],[[634.21982,624.13246],[2.14282,4.67827],[-1.8936,-5.6808]],[[628.03948,607.31672],[3.08887,5.66543],[-2.2791,-4.1802]],[[620.32688,595.27881],[1.8857,4.15235],[-0.91417,-2.47477]],[[615.61718,594],[2.9771,0.57275],[-6.58756,-1.26734]],[[595.61718,593],[6.8054,0],[-2.48058,0]],[[587.61718,593],[2.40395,0.50364],[-0.50743,-0.10631]],[[585.44122,592.1748],[0.71481,0.32365],[1.30749,1.01011]],[[582.51161,594.78885],[1.25365,-0.62682],[-0.98239,0.4912]]],&quot;closed&quot;:true}],&quot;index&quot;:null}" fill="#686868"/><path d="M300.35173,458.5115c0.24748,0.37727 1.57586,0.1599 1.25923,0.79488c1.3442,-0.80953 2.73537,-1.56437 4.05074,-2.11368c5.07146,-2.11794 16.28059,-5.06599 18.48262,-3.59832c0.17908,0.1194 -1.08008,0.98497 -0.76743,0.98994c1.04035,0.0165 6.3491,-4.68065 7.11485,-4.98448c0.1733,-0.06874 0.28042,-0.06903 0.34951,-0.0292c-0.15275,-0.16434 -0.2988,-0.32428 -0.37261,-0.43678c-0.25939,-0.39543 -0.49719,-0.84895 -1.20177,-0.89264c-6.06193,-0.48235 -14.56901,0.85941 -25.93199,8.31333c0,0 -1.34091,0.87961 -2.44546,1.12301c-0.33588,0.13069 -0.61339,0.20736 -0.82375,0.22174c0.1002,0.23887 0.2011,0.48276 0.28601,0.61221zM331.20099,450.25018c0.35352,0.095 0.04461,-0.24497 -0.28339,-0.59747c0.09883,0.18153 0.04176,0.53258 0.28339,0.59747zM333.94835,443.74211c5.53053,0.34287 -0.23118,9.92415 -9.10689,13.07487c-8.3743,2.97273 -13.142,1.03424 -20.53803,4.12298c-2.49863,1.04348 -5.31444,2.56548 -7.43139,2.96327c-3.35474,0.63037 -4.64606,-3.88461 0.39209,-7.18955c3.62781,-2.37978 5.7035,-3.11163 9.08093,-5.32716l1.49158,-0.97845c0,0 1.71223,-1.12319 2.86078,-1.18231c9.5448,-4.71731 17.01427,-5.69458 23.25091,-5.48364z" data-paper-data="{&quot;index&quot;:null}" fill="#000000"/><path d="M299.93042,457.9345c0.21025,-0.01432 0.48792,-0.09111 0.8238,-0.22179c1.10455,-0.24339 2.44998,-1.12938 2.44998,-1.12938c11.36295,-7.4539 20.14996,-8.88554 26.21184,-8.40314c0.7046,0.04368 0.93445,0.51352 1.19384,0.90893c0.0738,0.11251 0.21601,0.27862 0.36875,0.44298c-0.06908,-0.03989 -0.17563,-0.04036 -0.34901,0.02841c-0.76578,0.30385 -6.1157,5.049 -7.15604,5.03251c-0.31268,-0.00495 0.74052,-0.87564 0.56135,-0.99499c-2.20202,-1.46771 -13.44523,1.52508 -18.51673,3.64303c-1.31539,0.54932 -2.71114,1.31367 -4.05536,2.1232c0.31662,-0.63501 -1.00404,-0.43254 -1.25152,-0.8098c-0.08492,-0.12945 -0.18095,-0.38094 -0.28105,-0.61988z" data-paper-data="{&quot;noHover&quot;:false,&quot;origItem&quot;:[&quot;Path&quot;,{&quot;applyMatrix&quot;:true,&quot;segments&quot;:[[[607.563,601.99816],[0.02649,0.38155],[-0.10299,0.15484]],[[607.10872,602.39727],[0.1976,-0.11227],[-0.59254,0.60273]],[[605.61718,603],[0,0],[-7.618,0]],[[590.90604,613.89443],[2.69308,-5.58508],[-0.31682,0.63364]],[[590.61718,616],[0,-0.70843],[0,0.20156]],[[590.57685,616.85325],[0.02106,-0.33136],[0.02013,-0.10671]],[[590.74964,616.60263],[-0.10238,0.05628],[0.45234,-0.24865]],[[595.61718,617],[-0.48256,0.87548],[0.14503,-0.26312]],[[594.95308,616.3906],[-0.04725,0.29671],[0.58086,-3.64773]],[[604.72276,605.71115],[-3.02833,1.51416],[0.78545,-0.39273]],[[607.27135,605.03032],[-0.87898,0.0905],[-0.34365,-0.53523]],[[607.61718,603],[0,0.6759],[0,-0.23192]]],&quot;closed&quot;:true}],&quot;index&quot;:null}" fill="#ffffff"/></g><path d="M260.97596,408.74668l-16.48613,-30.54879l78.482,0.3639l28.05225,30.29243z" data-paper-data="{&quot;index&quot;:null}" fill="#cedce9" fill-rule="nonzero" stroke="#000000" stroke-width="1" stroke-linecap="round"/><path d="M325.40718,403.08031c-2.04969,-0.64996 -4.00332,-1.41198 -5.91438,-2.21244c-0.01046,0.05223 -0.02796,0.10346 -0.05293,0.15349c-0.60899,1.21892 -4.47748,-0.71383 -4.47748,-0.71383c-17.08581,-8.53629 -34.17164,-17.0726 -51.25742,-25.60888c-4.39666,-2.19664 -15.06045,-8.21542 -18.66746,-9.1065c-2.0777,-0.51328 -3.39414,-1.22294 -5.8151,-2.36371c-0.27329,-0.12877 -0.77126,-0.36096 -1.2095,-0.56969c2.05428,1.67689 -1.46807,5.92898 -2.13993,7.27371c-2.84195,5.68828 -5.68387,11.37655 -8.5258,17.0648c-0.50749,1.01575 -1.015,2.03154 -1.52246,3.04729c-0.20301,0.40632 -1.46178,1.22413 -0.60899,1.21892c3.24464,-0.01982 7.94373,3.21015 13.84419,6.15517c11.6311,5.80525 24.27676,11.63356 35.36868,17.99893c20.19938,11.73424 43.67207,20.83748 63.63007,32.6386c16.73958,10.07855 37.53682,20.62371 55.4898,29.59326c4.51328,2.25488 9.02646,4.50974 13.53972,6.76461c0.67904,0.33927 1.75965,0.84313 2.87935,1.36308c-0.79805,-1.18009 1.12009,-2.11132 1.5445,-2.96082c1.58552,-3.17349 7.69666,-6.961 4.97647,-11.88295c-1.93293,-5.29212 -2.58445,-9.78312 -6.83398,-16.22096c-3.13543,-4.75009 -8.86954,-10.43687 -11.25256,-14.78985c-1.01471,-2.3917 -3.13624,-2.10463 -8.7203,-5.3307c-12.35608,-7.13843 -25.21706,-13.36035 -38.38037,-19.93691c-4.79811,-2.3972 -10.9775,-5.10091 -15.47397,-7.73099c-0.94918,-0.55518 -2.67347,-1.71767 -3.95759,-2.60574c2.22139,1.87914 -3.84685,-0.40847 -6.46257,-1.23793zM264.92277,372.26073c12.91294,6.45146 25.82588,12.90296 38.7388,19.35439c0.40186,0.12743 0.80356,0.25482 1.20537,0.38224c5.29269,1.67835 9.62009,4.09637 13.99648,5.85045c5.96415,2.39047 10.18415,2.51422 16.28354,5.08913c3.50383,1.47918 12.55918,6.87551 17.37217,9.28014c13.05068,6.52029 26.20452,12.79829 38.38035,19.93689c6.8399,4.0102 13.28288,6.07334 15.18204,10.54983c-0.04787,1.31613 3.5222,3.9373 5.15246,5.78263c2.49139,2.8201 4.16743,5.99058 5.88534,8.5931c4.25863,6.45166 5.11319,11.32598 7.0943,16.75006c1.48604,5.41654 -3.02048,8.96108 -4.96456,12.85223c-1.0748,2.15128 -0.75628,4.2051 -6.60891,3.55237c-2.04094,-0.22763 -17.65338,-8.81986 -20.30955,-10.14691c-18.51769,-9.25167 -40.07708,-20.21602 -57.32993,-30.6036c-18.82242,-11.67465 -43.53194,-20.95954 -63.28367,-32.43373c-15.85144,-9.37708 -42.77048,-18.94353 -54.23817,-29.65197c-1.13535,-1.06022 1.80694,-3.61666 2.13146,-4.26621c2.84195,-5.68828 5.68386,-11.37652 8.5258,-17.06479c0.95017,-1.90178 0.5581,-7.77174 5.30185,-7.17137c8.27824,1.04765 21.1711,8.21221 31.48499,13.36517z" data-paper-data="{&quot;index&quot;:null}" fill="#000000" fill-rule="nonzero" stroke="none" stroke-width="1" stroke-linecap="butt"/><path d="M319.46814,400.78238c1.91098,0.80043 3.88796,1.57208 5.93775,2.2221c2.61573,0.82947 8.70725,3.12779 6.48581,1.24863c1.28412,0.88805 3.0238,2.05819 3.97289,2.61335c4.49646,2.63007 10.72829,5.36381 15.52633,7.76095c13.16322,6.57652 26.09866,12.85697 38.45469,19.99539c5.58404,3.22607 7.71528,2.94963 8.72999,5.34132c2.38309,4.35299 8.13707,10.07241 11.27254,14.82252c4.24952,6.43786 4.89743,10.95594 6.83036,16.24808c2.72026,4.92199 -3.41959,8.72151 -5.00511,11.89498c-0.42443,0.84949 -2.35194,1.7814 -1.55385,2.96153c-1.11964,-0.5199 -2.20207,-1.02374 -2.88119,-1.36302c-4.51326,-2.25487 -9.0363,-4.50985 -13.54952,-6.76473c-17.95312,-8.9696 -38.84563,-19.53584 -55.58521,-29.6144c-19.95802,-11.8011 -43.62973,-21.0186 -63.82916,-32.75285c-11.09192,-6.36541 -23.76579,-12.22517 -35.39692,-18.03045c-5.90042,-2.94499 -10.6028,-6.17988 -13.84744,-6.16006c-0.8528,0.0052 0.40399,-0.8159 0.60698,-1.2222c0.50749,-1.01575 1.01082,-2.03978 1.5183,-3.05551c2.84195,-5.68828 5.69272,-11.41439 8.53465,-17.10269c0.67185,-1.34472 4.21178,-5.60262 2.15748,-7.27952c0.43829,0.20876 0.93685,0.44087 1.21011,0.56961c2.42085,1.14074 3.74137,1.84988 5.81901,2.36316c3.60699,0.89108 14.28356,6.90919 18.68021,9.10582c17.0859,8.53634 34.27486,17.09389 51.36066,25.63017c0,0 3.88849,1.94015 4.49747,0.72124c0.025,-0.05005 0.04295,-0.10106 0.05342,-0.15331z" data-paper-data="{&quot;noHover&quot;:false,&quot;origItem&quot;:[&quot;Path&quot;,{&quot;applyMatrix&quot;:true,&quot;segments&quot;:[[[579.60736,595.76373],[0.95609,-0.20262],[0.00646,0.07548]],[[579.61718,596],[0,-0.08208],[0,2]],[[577.61718,598],[0,0],[-8.83333,0]],[[551.11718,598],[8.83333,0],[-2.27308,0]],[[541.51161,598.28885],[1.67648,-1.19621],[-0.96568,0.68904]],[[538.61718,599],[1.23739,-0.09027],[-0.13966,0.01019]],[[537.99901,599.04541],[0.22447,-0.0134],[1.19653,0.85421]],[[538.61718,610],[0,-2.20646],[0,9.33333]],[[538.61718,638],[0,-9.33333],[0,1.66667]],[[538.61718,643],[0,-1.66667],[0,0.66667]],[[538.61718,645],[-0.35177,0.56631],[1.33831,-2.15456]],[[545.61718,644],[-3.04994,0.00386],[6.01206,-0.00761]],[[563.97058,644.43107],[-5.90478,-1.08158],[10.78253,2.15651]],[[597.04254,645.54479],[-10.6965,-2.40266],[9.00888,2.25222]],[[626.11718,648],[-9.28168,0],[2.33333,0]],[[633.11718,648],[-2.33333,0],[0.35109,0]],[[634.59021,647.90091],[-0.5707,0.05184],[-0.57412,-1.02596]],[[634.61718,643],[0,1.39387],[0,-5.20707]],[[634.21982,624.13246],[2.14282,4.67827],[-1.8936,-5.6808]],[[628.03948,607.31672],[3.08887,5.66543],[-2.2791,-4.1802]],[[620.32688,595.27881],[1.8857,4.15235],[-0.91417,-2.47477]],[[615.61718,594],[2.9771,0.57275],[-6.58756,-1.26734]],[[595.61718,593],[6.8054,0],[-2.48058,0]],[[587.61718,593],[2.40395,0.50364],[-0.50743,-0.10631]],[[585.44122,592.1748],[0.71481,0.32365],[1.30749,1.01011]],[[582.51161,594.78885],[1.25365,-0.62682],[-0.98239,0.4912]]],&quot;closed&quot;:true}],&quot;index&quot;:null}" fill="#c9c9c9" fill-rule="nonzero" stroke="none" stroke-width="1" stroke-linecap="butt"/><path d="M371.46721,432.34595c0.07061,-0.14134 0.13529,-0.40481 0.20024,-0.66293c-0.2464,-0.00518 -0.58384,-0.07323 -1.00025,-0.19579c-1.3297,-0.20531 -3.06855,-1.07405 -3.06855,-1.07405c-14.73509,-7.36185 -24.86249,-8.37812 -31.77214,-7.57673c-0.80575,0.08002 -0.98408,0.57236 -1.1998,1.00414c-0.06137,0.12285 -0.19619,0.29944 -0.33782,0.48105c0.07144,-0.04556 0.19539,-0.05038 0.41053,0.01425c0.95067,0.28562 8.09396,5.01328 9.29397,4.94604c0.36062,-0.02021 -1.28066,-0.87796 -1.09896,-1.01316c2.23427,-1.66178 15.83014,0.92882 22.14876,2.93248c1.63879,0.51966 3.40917,1.25368 5.13688,2.04794c-0.50174,-0.65827 1.08132,-0.49125 1.28712,-0.90319zM334.21803,424.41228c-0.30421,0.38951 -0.58906,0.76484 -0.20035,0.64718c0.26566,-0.08037 0.12476,-0.44993 0.20035,-0.64718zM329.45113,418.28888c7.16968,-0.52186 16.01902,0.15747 28.06699,4.70398c1.34125,0.00775 3.56162,1.11709 3.56162,1.11709l1.93422,0.96635c4.37973,2.18817 6.93707,2.86507 11.64149,5.21544c6.53329,3.26413 6.00265,8.11411 1.98737,7.606c-2.5338,-0.32067 -6.11584,-1.80016 -9.22897,-2.78734c-9.21484,-2.92211 -14.31664,-0.63836 -24.63841,-3.39063c-10.93974,-2.9171 -19.64902,-12.80284 -13.32433,-13.43087z" data-paper-data="{&quot;index&quot;:null}" fill="#000000" fill-rule="nonzero" stroke="none" stroke-width="1" stroke-linecap="butt"/><path d="M371.83154,431.71397c-0.06482,0.25817 -0.12228,0.52951 -0.19289,0.67084c-0.20581,0.41193 -1.77678,0.26035 -1.27502,0.91864c-1.72771,-0.79425 -3.50544,-1.53813 -5.14429,-2.05783c-6.31866,-2.00371 -19.96349,-4.64011 -22.19774,-2.97831c-0.18183,0.13515 1.2223,1.00819 0.86165,1.02838c-1.19998,0.06723 -8.40119,-4.70937 -9.35189,-4.995c-0.21525,-0.06466 -0.33839,-0.05904 -0.40979,-0.01343c0.14165,-0.1816 0.27071,-0.3646 0.33207,-0.48743c0.2157,-0.43175 0.38142,-0.94099 1.18715,-1.02102c6.90964,-0.8014 17.38005,0.29678 32.11512,7.65862c0,0 1.74543,0.8753 3.07514,1.08061c0.41644,0.12255 0.754,0.1907 1.00031,0.19584z" data-paper-data="{&quot;noHover&quot;:false,&quot;origItem&quot;:[&quot;Path&quot;,{&quot;applyMatrix&quot;:true,&quot;segments&quot;:[[[607.563,601.99816],[0.02649,0.38155],[-0.10299,0.15484]],[[607.10872,602.39727],[0.1976,-0.11227],[-0.59254,0.60273]],[[605.61718,603],[0,0],[-7.618,0]],[[590.90604,613.89443],[2.69308,-5.58508],[-0.31682,0.63364]],[[590.61718,616],[0,-0.70843],[0,0.20156]],[[590.57685,616.85325],[0.02106,-0.33136],[0.02013,-0.10671]],[[590.74964,616.60263],[-0.10238,0.05628],[0.45234,-0.24865]],[[595.61718,617],[-0.48256,0.87548],[0.14503,-0.26312]],[[594.95308,616.3906],[-0.04725,0.29671],[0.58086,-3.64773]],[[604.72276,605.71115],[-3.02833,1.51416],[0.78545,-0.39273]],[[607.27135,605.03032],[-0.87898,0.0905],[-0.34365,-0.53523]],[[607.61718,603],[0,0.6759],[0,-0.23192]]],&quot;closed&quot;:true}],&quot;index&quot;:null}" fill="#ffffff" fill-rule="nonzero" stroke="none" stroke-width="1" stroke-linecap="butt"/><path d="M-43.18578,412.97628l28.12455,-30.22532l78.48261,-0.17645l-16.55903,30.50931z" data-paper-data="{&quot;index&quot;:null}" fill="#cedce9" fill-rule="nonzero" stroke="#000000" stroke-width="1" stroke-linecap="round"/><path d="M22.68633,141.09182l299.92505,75.71937l83.95942,84.60493l-42.68947,106.26275l-163.29125,-48.78082l57.16319,-44.88987l-76.27982,-40.43815l-18.10023,-6.72026l-16.75931,4.33977l-11.97283,8.88888l-69.90257,125.44273l-130.63781,3.24511z" data-paper-data="{&quot;index&quot;:null}" fill="#af9c6f" fill-rule="nonzero" stroke="#000000" stroke-width="1" stroke-linecap="round"/><path d="M-50.64904,411.38081c-2.71012,-0.43028 -9.16016,-1.10368 -6.33233,-1.78852c-1.5459,0.21866 -3.60827,0.48546 -4.70558,0.55657c-5.19827,0.33693 -11.93412,-0.01425 -17.29773,-0.02066c-14.71473,-0.01757 -29.00031,-0.21678 -43.24507,0.62964c-6.43761,0.38252 -8.20573,-0.82459 -10.18444,0.85908c-4.08063,2.82408 -11.75486,5.33934 -16.68606,8.18139c-6.68341,3.85186 -9.27786,7.57502 -13.37685,11.44039c-4.637,3.18172 -0.87025,9.30566 -0.87449,12.8532c-0.00113,0.94962 1.29654,2.6415 0.05437,3.33901c1.23399,0.0368 2.42581,0.07042 3.18491,0.07132c5.04519,0.00601 10.0903,0.01205 15.13551,0.01806c20.06897,0.02397 43.38658,-0.08647 62.86752,-1.59761c23.13003,-1.60928 48.19366,0.76797 71.50952,-0.67338c12.76824,-0.72162 26.68495,-0.267 39.68429,-0.24626c6.59459,0.0105 12.24274,-0.77197 15.13467,0.69937c0.7601,0.38674 0.00108,-0.90839 0.00162,-1.36259c0.00136,-1.13547 0.00272,-2.27097 0.00406,-3.40644c0.0076,-6.35872 0.01518,-12.71739 0.02278,-19.07607c0.00181,-1.50321 -1.24235,-6.88277 1.34551,-7.46163c-0.48532,-0.0097 -1.03458,-0.02523 -1.33655,-0.03253c-2.67546,-0.06472 -4.17034,-0.02003 -6.25783,-0.49197c-3.62398,-0.81928 -15.85421,-0.21573 -20.76907,-0.2216c-19.09954,-0.02281 -38.19904,-0.04562 -57.29863,-0.06843c0,0 -4.32441,-0.00516 -4.32279,-1.36772c0.00006,-0.05595 0.00737,-0.10954 0.02143,-0.16094c-2.06713,-0.14053 -4.15513,-0.33449 -6.27881,-0.67167zM17.23304,410.92446c11.52951,0.01377 26.26589,-0.61552 34.13623,2.15654c4.51007,1.58851 1.52973,6.66074 1.52721,8.78668c-0.0076,6.35872 -0.01518,12.71739 -0.02278,19.07607c-0.00086,0.7261 1.48431,4.3298 -0.0057,4.76902c-15.04985,4.43612 -43.40216,0.92898 -61.77484,2.21085c-22.79915,1.40941 -49.0499,-1.35957 -71.108,0.64541c-20.07826,1.55747 -44.26514,1.70122 -64.96531,1.67649c-2.96922,-0.00355 -20.77665,0.68372 -22.70323,-0.02711c-5.52484,-2.03844 -4.31996,-3.73194 -4.31709,-6.13676c0.00519,-4.34976 -2.43578,-9.53765 1.31942,-13.71444c4.20119,-3.96173 7.14889,-7.9367 13.84663,-11.7968c2.7018,-1.5571 5.6206,-3.64075 9.11143,-5.04585c2.28422,-0.91942 6.65029,-1.66344 7.1971,-2.86154c3.70339,-3.15128 10.3879,-2.1093 18.29958,-2.63023c14.08373,-0.92731 28.65625,-0.64706 43.24507,-0.62964c5.38026,0.00643 15.89362,-0.76122 19.68882,-0.51393c6.60661,0.4305 10.43487,2.21045 16.83794,2.74527c4.69848,0.39243 9.65055,0.16936 15.13433,1.04001c0.41632,0.06611 0.83257,0.13218 1.2489,0.19828c14.43482,0.01723 28.86966,0.03448 43.30452,0.05172z" data-paper-data="{&quot;index&quot;:null}" fill="#000000" fill-rule="nonzero" stroke="none" stroke-width="1" stroke-linecap="butt"/><path d="M-44.31005,411.98712c-0.01407,0.05142 -0.02087,0.10505 -0.02094,0.16097c-0.00162,1.36259 4.34402,1.37009 4.34402,1.37009c19.09954,0.02281 38.30083,0.07283 57.40047,0.09564c4.91484,0.00587 17.15615,-0.59133 20.78013,0.22794c2.08741,0.47192 3.58571,0.42952 6.26108,0.49421c0.30203,0.00732 0.85168,0.02316 1.33707,0.0329c-2.58787,0.57889 -1.3306,5.97145 -1.33241,7.47468c-0.0076,6.35872 -0.02425,12.75518 -0.03183,19.11387c-0.00136,1.13547 -0.01013,2.27649 -0.01148,3.41194c-0.00055,0.45421 0.75522,1.75131 -0.00488,1.36461c-2.89194,-1.47131 -8.54522,-0.68593 -15.13979,-0.69644c-12.99935,-0.0207 -26.95544,-0.45984 -39.72368,0.26178c-23.3159,1.44135 -48.60865,-0.92298 -71.73869,0.68632c-19.48095,1.51114 -42.89322,1.59775 -62.96229,1.57379c-5.04519,-0.00601 -10.09914,-0.01633 -15.14434,-0.02236c-0.75915,-0.00091 -1.95262,-0.03543 -3.18652,-0.0722c1.24221,-0.6975 -0.06354,-2.39422 -0.06241,-3.34383c0.00424,-3.54752 -3.78282,-9.69508 0.85424,-12.8768c4.09899,-3.86535 6.70236,-7.61443 13.38578,-11.46623c4.93126,-2.84205 12.63791,-5.37759 16.71859,-8.20164c1.97869,-1.68367 3.76022,-0.4817 10.19783,-0.86422c14.24474,-0.84641 28.62309,-0.66619 43.33774,-0.64863c5.36348,0.00641 12.1597,0.35424 17.35797,0.01732c1.0972,-0.07114 3.17679,-0.33787 4.72267,-0.55654c-2.82792,0.68481 3.64779,1.35908 6.3579,1.78935c2.12378,0.33718 4.23694,0.53298 6.30405,0.6735z" data-paper-data="{&quot;noHover&quot;:false,&quot;origItem&quot;:[&quot;Path&quot;,{&quot;applyMatrix&quot;:true,&quot;segments&quot;:[[[579.60736,595.76373],[0.95609,-0.20262],[0.00646,0.07548]],[[579.61718,596],[0,-0.08208],[0,2]],[[577.61718,598],[0,0],[-8.83333,0]],[[551.11718,598],[8.83333,0],[-2.27308,0]],[[541.51161,598.28885],[1.67648,-1.19621],[-0.96568,0.68904]],[[538.61718,599],[1.23739,-0.09027],[-0.13966,0.01019]],[[537.99901,599.04541],[0.22447,-0.0134],[1.19653,0.85421]],[[538.61718,610],[0,-2.20646],[0,9.33333]],[[538.61718,638],[0,-9.33333],[0,1.66667]],[[538.61718,643],[0,-1.66667],[0,0.66667]],[[538.61718,645],[-0.35177,0.56631],[1.33831,-2.15456]],[[545.61718,644],[-3.04994,0.00386],[6.01206,-0.00761]],[[563.97058,644.43107],[-5.90478,-1.08158],[10.78253,2.15651]],[[597.04254,645.54479],[-10.6965,-2.40266],[9.00888,2.25222]],[[626.11718,648],[-9.28168,0],[2.33333,0]],[[633.11718,648],[-2.33333,0],[0.35109,0]],[[634.59021,647.90091],[-0.5707,0.05184],[-0.57412,-1.02596]],[[634.61718,643],[0,1.39387],[0,-5.20707]],[[634.21982,624.13246],[2.14282,4.67827],[-1.8936,-5.6808]],[[628.03948,607.31672],[3.08887,5.66543],[-2.2791,-4.1802]],[[620.32688,595.27881],[1.8857,4.15235],[-0.91417,-2.47477]],[[615.61718,594],[2.9771,0.57275],[-6.58756,-1.26734]],[[595.61718,593],[6.8054,0],[-2.48058,0]],[[587.61718,593],[2.40395,0.50364],[-0.50743,-0.10631]],[[585.44122,592.1748],[0.71481,0.32365],[1.30749,1.01011]],[[582.51161,594.78885],[1.25365,-0.62682],[-0.98239,0.4912]]],&quot;closed&quot;:true}],&quot;index&quot;:null}" fill="#c9c9c9" fill-rule="nonzero" stroke="none" stroke-width="1" stroke-linecap="butt"/><path d="M-104.93929,416.91017c-0.00056,0.46051 1.48959,1.02039 0.74612,1.38412c1.90045,0.06392 3.81208,0.20082 5.51003,0.47041c6.54667,1.03944 19.86243,4.81434 21.11544,7.301c0.10189,0.20226 -1.74978,0.23384 -1.43642,0.41346c1.04268,0.59771 9.54707,-0.42872 10.52494,-0.25816c0.22131,0.0386 0.32999,0.09847 0.37344,0.17118c-0.04528,-0.2258 -0.08671,-0.44409 -0.08655,-0.58142c0.00058,-0.48265 0.0617,-1.00271 -0.62281,-1.43523c-5.81845,-3.81201 -15.32797,-7.44057 -31.79974,-7.46024c0,0 -1.94379,-0.00232 -3.22455,-0.41449c-0.42719,-0.077 -0.75932,-0.16731 -0.98197,-0.27307c-0.05757,0.25987 -0.11776,0.5244 -0.11796,0.68239zM-68.19386,427.17334c0.29479,0.27933 0.20828,-0.18381 0.11082,-0.66835c-0.02077,0.2102 -0.3123,0.47748 -0.11082,0.66835zM-61.07791,423.16604c5.37312,3.39498 -6.84213,8.33133 -17.92947,6.03826c-10.46102,-2.16355 -13.99908,-6.49095 -23.54652,-8.00678c-3.22546,-0.51209 -7.09078,-0.79417 -9.49972,-1.64264c-3.81746,-1.34458 -2.11904,-5.91836 5.18427,-5.90965c5.25888,0.00628 7.84847,0.54682 12.74441,0.55265l2.16217,0.00257c0,0 2.48206,0.00296 3.68468,0.59692c12.80814,1.33283 21.02408,4.69006 27.20017,8.36866z" data-paper-data="{&quot;index&quot;:null}" fill="#000000" fill-rule="nonzero" stroke="none" stroke-width="1" stroke-linecap="butt"/><path d="M-104.98183,416.18189c0.22248,0.10574 0.55484,0.19604 0.98205,0.27307c1.28076,0.41216 3.23337,0.41158 3.23337,0.41158c16.47175,0.01967 26.32462,3.72866 32.14301,7.54067c0.68455,0.43252 0.60451,0.96206 0.60393,1.44468c-0.00016,0.13733 0.03326,0.35873 0.07853,0.58454c-0.04339,-0.07277 -0.15101,-0.13294 -0.3724,-0.17156c-0.9779,-0.17055 -9.55595,0.87369 -10.59865,0.27601c-0.31338,-0.17963 1.33307,-0.3311 1.23107,-0.53338c-1.25297,-2.48666 -14.63302,-6.24259 -21.17977,-7.28203c-1.698,-0.2696 -3.6206,-0.40096 -5.52107,-0.46489c0.74349,-0.36378 -0.72891,-0.93202 -0.72836,-1.39252c0.00018,-0.158 0.07039,-0.42629 0.1281,-0.68616z" data-paper-data="{&quot;noHover&quot;:false,&quot;origItem&quot;:[&quot;Path&quot;,{&quot;applyMatrix&quot;:true,&quot;segments&quot;:[[[607.563,601.99816],[0.02649,0.38155],[-0.10299,0.15484]],[[607.10872,602.39727],[0.1976,-0.11227],[-0.59254,0.60273]],[[605.61718,603],[0,0],[-7.618,0]],[[590.90604,613.89443],[2.69308,-5.58508],[-0.31682,0.63364]],[[590.61718,616],[0,-0.70843],[0,0.20156]],[[590.57685,616.85325],[0.02106,-0.33136],[0.02013,-0.10671]],[[590.74964,616.60263],[-0.10238,0.05628],[0.45234,-0.24865]],[[595.61718,617],[-0.48256,0.87548],[0.14503,-0.26312]],[[594.95308,616.3906],[-0.04725,0.29671],[0.58086,-3.64773]],[[604.72276,605.71115],[-3.02833,1.51416],[0.78545,-0.39273]],[[607.27135,605.03032],[-0.87898,0.0905],[-0.34365,-0.53523]],[[607.61718,603],[0,0.6759],[0,-0.23192]]],&quot;closed&quot;:true}],&quot;index&quot;:null}" fill="#ffffff" fill-rule="nonzero" stroke="none" stroke-width="1" stroke-linecap="butt"/><path d="M7.35387,232.39254v0.54583l-3.63888,-0.18195z" data-paper-data="{&quot;index&quot;:null}" fill="#909090" fill-rule="evenodd" stroke="#000000" stroke-width="0.5" stroke-linecap="butt"/><path d="M61.20936,231.66476v1.45556l4.00277,0.18194h-4.18471z" data-paper-data="{&quot;index&quot;:null}" fill="#acacac" fill-rule="evenodd" stroke="#000000" stroke-width="0.5" stroke-linecap="butt"/><path d="M18.76279,222.8044c1.34523,0 2.68871,0 4.03394,0c-1.37154,0.17399 -2.77465,0.23257 -4.20933,0.17539c-0.05437,-0.56353 0.00351,-1.08969 0.17539,-1.5785c0,0.46776 0,0.93535 0,1.40311z" data-paper-data="{&quot;index&quot;:null}" fill="#6b6b6b" fill-rule="evenodd" stroke="none" stroke-width="1" stroke-linecap="butt"/><path d="M12.79958,222.8044c1.69601,0 3.39027,0 5.08627,0c-1.72232,0.17434 -3.4762,0.23274 -5.26166,0.17539c-0.04736,-0.28045 0.01228,-0.51424 0.17539,-0.70155c0,0.17539 0,0.35078 0,0.52616z" data-paper-data="{&quot;index&quot;:null}" fill="#9e9e9e" fill-rule="evenodd" stroke="none" stroke-width="1" stroke-linecap="butt"/><path d="M64.36388,222.97978c1.46625,0.00035 2.86936,0.11734 4.20933,0.35078c-2.79219,-0.17258 -5.59841,-0.23098 -8.41867,-0.17539c1.3733,-0.11681 2.7764,-0.17539 4.20933,-0.17539z" data-paper-data="{&quot;index&quot;:null}" fill="#484848" fill-rule="evenodd" stroke="none" stroke-width="1" stroke-linecap="butt"/><path d="M300.2618,224.20751c0,0.17539 0,0.35078 0,0.52616c-2.06064,-0.34148 -4.16531,-0.45847 -6.314,-0.35078c2.07345,-0.17451 4.17811,-0.23292 6.314,-0.17539z" data-paper-data="{&quot;index&quot;:null}" fill="#838383" fill-rule="evenodd" stroke="none" stroke-width="1" stroke-linecap="butt"/><path d="M313.98166,166.15066c-0.02853,0.23588 -0.05708,0.47194 -0.08562,0.70782c-0.13791,-0.27146 -0.16118,-0.57338 -0.06994,-0.90618c0.69173,0.02712 1.3335,0.16452 1.9251,0.4124c-0.5898,-0.07134 -1.17976,-0.1427 -1.76954,-0.21404z" data-paper-data="{&quot;index&quot;:null}" fill="#535353" fill-rule="evenodd" stroke="none" stroke-width="1" stroke-linecap="butt"/><path d="M332.11667,95.40667l45.41032,6.65895l-0.08629,3.12407l-0.23059,0.70106l-32.47467,9.33899l-0.23341,6.75106l-0.90453,38.81679l-0.11114,8.15085l-0.07356,1.81349l-15.1522,-0.08324l-0.21321,0.55737l-0.13843,3.55514l-1.45946,48.22608l-18.26586,-2.06356l-0.45249,1.33028l-7.84144,0.94683l-27.19195,-2.99742l-20.62632,-4.24436l-3.1658,-1.54925l-23.42127,-2.83292l-9.62837,-5.9757l-203.64586,-23.10123l-2.13795,-0.40439l-0.22655,-0.53767l5.84514,-26.62881l-0.55737,-0.21321l0.03476,-0.28738l0.57475,0.06952l3.10071,-14.78722l1.63958,-7.5286l-19.33778,-5.25482l-0.25262,-0.32215l0.78735,-2.89348l5.75624,0.62335l27.43587,3.39141l13.15854,2.10186l-46.08935,-5.86634l-0.6176,2.69532l183.36896,23.19997l0.31284,-2.5864l-135.68166,-17.28616l47.70469,5.77013l0.86213,0.10428l3.22348,-20.02084l-14.30877,-13.68558l0.18885,-2.16402l1.61533,-0.09621l16.99236,2.3469l2.5864,0.31284l0.87083,0.03243l-8.06002,-11.10737l0.41944,-2.86508l53.90533,7.54067l19.50692,2.65105l2.066,-8.64336l16.20207,2.25131l26.24292,3.61159l13.05404,-15.11411z" data-paper-data="{&quot;index&quot;:null}" fill="#000001" fill-rule="evenodd" stroke="none" stroke-width="0.5" stroke-linecap="butt" opacity="0.913"/><path d="M232.2576,84.49453l0.22128,-3.03485l2.46009,0.15177l141.25137,20.65698l0.89053,0.47219l0.04639,2.62986l-0.80767,0.0481z" data-paper-data="{&quot;index&quot;:null}" fill="#e4e4e4" fill-rule="evenodd" stroke="none" stroke-width="0.5" stroke-linecap="butt" opacity="0.999"/><path d="M232.47888,81.45968l-0.22128,3.03485l-1.03826,0.74917l-11.81359,13.29597l0.43915,-2.42533z" data-paper-data="{&quot;index&quot;:null}" fill="#cfcfcf" fill-rule="evenodd" stroke="none" stroke-width="0.5" stroke-linecap="butt"/><path d="M332.15143,95.1193l39.8499,5.62191l2.2011,0.48493l4.06037,0.78271l-0.10195,1.44558l0.1356,2.49485l-1.19933,0.87547l-7.39704,2.094l-3.58757,0.7324l-1.81116,0.50989l-2.76021,1.12405l-1.77641,0.2225l-2.70806,0.69298l-3.65709,1.30715l-0.87952,0.03941l-0.4832,0.37892l-6.55229,2.34197l-0.3656,0.61184l0.08751,1.68718l0.07883,1.75903l-0.33083,0.32446l-0.04112,0.94266l-0.35923,-0.04345l-0.05214,0.43106l0.23341,-6.75106l32.47467,-9.33899l0.23059,-0.70106l0.08629,-3.12407l-45.41032,-6.65895z" data-paper-data="{&quot;index&quot;:null}" fill="#69acfe" fill-rule="evenodd" stroke="none" stroke-width="0.5" stroke-linecap="butt" opacity="0.326"/><path d="M232.22283,84.7819l143.98145,20.9872l-31.49724,9.09275l0.11346,-7.56741l-102.62919,-14.5275l-17.47767,15.5267l-11.9001,-1.65807z" data-paper-data="{&quot;index&quot;:null}" fill="#bab9b4" fill-rule="evenodd" stroke="none" stroke-width="0.5" stroke-linecap="butt"/><path d="M242.59632,93.03459l100.88754,14.46263l0.83607,0.31982l-1.31212,62.67721l-105.82915,-13.38375z" data-paper-data="{&quot;index&quot;:null}" fill="#af9c6f" fill-rule="evenodd" stroke="none" stroke-width="0.5" stroke-linecap="butt"/><path d="M242.1305,93.26984l-5.23052,63.73406l-6.53086,0.95955l-0.38297,0.75553l-4.72834,52.35023l-9.22337,-5.70803l-0.17209,-0.38529l9.16708,-96.27959z" data-paper-data="{&quot;index&quot;:null}" fill="#88774e" fill-rule="evenodd" stroke="none" stroke-width="0.5" stroke-linecap="butt"/><path d="M177.29329,90.53011l41.85286,5.93707l-0.31284,2.5864l-41.94209,-5.80207l-0.13733,-0.67267z" data-paper-data="{&quot;index&quot;:null}" fill="#e4e4e4" fill-rule="evenodd" stroke="none" stroke-width="0.5" stroke-linecap="butt" opacity="0.998"/><path d="M176.92831,93.54758l41.70048,5.99153l-6.55107,7.15323l-20.06429,-2.86425l-3.6096,-0.2908l-5.44844,11.29585l-8.06395,-0.82958l3.63262,-11.95284l-3.71853,-0.59557z" data-paper-data="{&quot;index&quot;:null}" fill="#b9b9b4" fill-rule="evenodd" stroke="none" stroke-width="0.5" stroke-linecap="butt"/><path d="M345.4846,116.26801l-0.27808,2.29902l-0.08751,-1.68718z" data-paper-data="{&quot;index&quot;:null}" fill="#8080ff" fill-rule="evenodd" stroke="none" stroke-width="0.5" stroke-linecap="butt" opacity="0.008"/><path d="M155.08883,95.71708l0.23525,0.46582l-53.90533,-7.54067l-0.41944,2.86508l8.06002,11.10737l-0.87083,-0.03243l0.10428,-0.86213l-1.59392,-1.28623l-0.08286,-0.52028l-0.43106,-0.05214l-0.05679,-0.73582l-1.07999,-0.71379l-0.16573,-1.04058l-0.50523,-0.64427l-0.63154,-0.80534l-0.47047,-0.93165l-0.78393,-0.75088l-0.80131,-0.60718l-0.84071,-1.4867l-0.42237,-0.12399l-0.20281,-1.33665l0.17147,-2.02033l0.43106,0.05214l0.20452,-0.48553l2.88246,0.27575l17.90028,2.67539l16.07577,2.09024l0.82738,0.39167z" data-paper-data="{&quot;index&quot;:null}" fill="#68b0fe" fill-rule="evenodd" stroke="none" stroke-width="0.5" stroke-linecap="butt" opacity="0.376"/><path d="M101.67136,88.96438l73.1075,10.30064l-0.40439,2.13795l-73.14226,-10.01327z" data-paper-data="{&quot;index&quot;:null}" fill="#e5e5e5" fill-rule="evenodd" stroke="none" stroke-width="0.5" stroke-linecap="butt" opacity="0.998"/><path d="M101.61114,91.87292l76.5821,10.50222l-3.94608,12.13362l-4.45435,-0.53878l0.76472,-6.32231l-45.17507,-6.19312l-1.3128,8.44288l-8.46895,-1.09726l-1.98557,-0.45885z" data-paper-data="{&quot;index&quot;:null}" fill="#b9b8b5" fill-rule="evenodd" stroke="none" stroke-width="0.5" stroke-linecap="butt" opacity="0.999"/><path d="M182.77396,154.90371l0.46926,-3.87959l1.61301,-0.67965l0.47158,-3.29615l-1.58057,-0.19118l5.07028,-43.12402l35.85268,4.91973l-9.20183,96.56697l-36.37065,-4.25343l5.4005,-45.85411z" data-paper-data="{&quot;index&quot;:null}" fill="#af9c6f" fill-rule="evenodd" stroke="none" stroke-width="0.5" stroke-linecap="butt"/><path d="M188.08634,104.95678l-0.74036,7.92896l-4.02981,33.91926l-4.16698,-0.50402l3.73901,-30.30966z" data-paper-data="{&quot;index&quot;:null}" fill="#af9c6f" fill-rule="evenodd" stroke="none" stroke-width="0.5" stroke-linecap="butt"/><path d="M125.63506,101.77671l44.60032,6.1236l-4.71927,36.60589l-45.65828,-5.81419z" data-paper-data="{&quot;index&quot;:null}" fill="#88774e" fill-rule="evenodd" stroke="none" stroke-width="0.5" stroke-linecap="butt"/><path d="M87.33625,100.20588l22.22832,3.05311l1.37201,1.91545l-23.96995,-3.11798z" data-paper-data="{&quot;index&quot;:null}" fill="#e5e5e5" fill-rule="evenodd" stroke="none" stroke-width="0.5" stroke-linecap="butt" opacity="0.994"/><path d="M87.48923,102.55704l1.6698,0.05618l21.58172,2.9749l0.70106,0.23059l1.87725,2.55972l-10.48928,-1.26874l-1.66332,8.32759z" data-paper-data="{&quot;index&quot;:null}" fill="#bab8b4" fill-rule="evenodd" stroke="none" stroke-width="0.5" stroke-linecap="butt" opacity="0.999"/><path d="M174.71299,114.27353l8.0205,1.18881l-0.16976,0.19816l-0.87952,0.03941l-7.02337,-0.99531z" data-paper-data="{&quot;index&quot;:null}" fill="#b9b9b4" fill-rule="evenodd" stroke="none" stroke-width="0.5" stroke-linecap="butt"/><path d="M169.74067,114.40106l12.77092,1.6905l-3.64979,30.17465l-13.0583,-1.72526z" data-paper-data="{&quot;index&quot;:null}" fill="#af9c6f" fill-rule="evenodd" stroke="none" stroke-width="0.5" stroke-linecap="butt"/><path d="M105.6021,102.26943l-16.99236,-2.3469l-1.61533,0.09621l-0.18885,2.16402l14.30877,13.68558l-3.22348,20.02084l-0.86213,-0.10428l0.32215,-0.25262l1.6604,-11.31666l1.06948,-6.43123l0.43106,0.05214l0.22594,-1.86796l-1.22368,-0.73117l0.05214,-0.43106l-0.42237,-0.12399l-2.89177,-2.60953l-0.21786,-0.60951l-0.55737,-0.21321l-2.76546,-2.44846l-3.23593,-3.38012l-1.82046,-1.82389l-1.07999,-0.71379l0.41712,-3.44853l1.68718,-0.08751l13.67884,2.01901z" data-paper-data="{&quot;index&quot;:null}" fill="#66b5fc" fill-rule="evenodd" stroke="none" stroke-width="0.5" stroke-linecap="butt" opacity="0.311"/><path d="M103.07371,107.50367l20.93512,2.89669l-4.43835,28.25688l-21.39226,-2.7333z" data-paper-data="{&quot;index&quot;:null}" fill="#af9c6f" fill-rule="evenodd" stroke="none" stroke-width="0.5" stroke-linecap="butt"/><path d="M344.88119,140.54212l0.02546,-2.62116z" data-paper-data="{&quot;index&quot;:null}" fill="#6b98ff" fill-rule="evenodd" stroke="none" stroke-width="0.5" stroke-linecap="butt" opacity="0.021"/><path d="M345.28535,120.32605l-0.41712,3.44853l0.48553,0.20452l-0.39509,4.47173l0.1831,0.8969l-0.23512,8.57323l-0.02546,2.62116l-0.00111,4.22781l-0.38003,3.7446l0.07883,1.75903l-0.32668,8.12478l-0.00576,3.06092l-0.23292,0.11762l-0.41601,-0.77928l0.90453,-38.81679l0.05214,-0.43106l0.35923,0.04345l0.04112,-0.94266z" data-paper-data="{&quot;index&quot;:null}" fill="#69b3fb" fill-rule="evenodd" stroke="none" stroke-width="0.5" stroke-linecap="butt" opacity="0.307"/><path d="M344.57885,150.27354l-0.07883,-1.75903z" data-paper-data="{&quot;index&quot;:null}" fill="#8080ff" fill-rule="evenodd" stroke="none" stroke-width="0.5" stroke-linecap="butt" opacity="0.008"/><path d="M99.01123,124.21563l-1.6604,11.31666z" data-paper-data="{&quot;index&quot;:null}" fill="#00fffe" fill-rule="evenodd" stroke="none" stroke-width="0.5" stroke-linecap="butt" opacity="0.004"/><path d="M344.05524,163.03983l0.40095,1.50641l-0.22655,-0.53767z" data-paper-data="{&quot;index&quot;:null}" fill="#7f8aff" fill-rule="evenodd" stroke="none" stroke-width="0.5" stroke-linecap="butt" opacity="0.008"/><path d="M343.5975,160.7976l0.41601,0.77928l0.23292,-0.11762l-0.19118,1.58057l0.17441,0.96873l0.22655,0.53767l-0.0869,0.71844l-0.30819,3.75329l-0.57475,-0.06952z" data-paper-data="{&quot;index&quot;:null}" fill="#80bdec" fill-rule="evenodd" stroke="none" stroke-width="0.5" stroke-linecap="butt" opacity="0.364"/><path d="M48.03081,129.85836l1.2932,0.15642l135.68166,17.28616l-0.31284,2.5864l-183.36896,-23.19997l0.6176,-2.69532z" data-paper-data="{&quot;index&quot;:null}" fill="#e5e5e5" fill-rule="evenodd" stroke="none" stroke-width="0.5" stroke-linecap="butt" opacity="0.994"/><path d="M4.55919,127.66184l10.29113,1.09897l169.35061,21.57728l-0.62689,0.36154l-162.56015,-20.46435l-0.49594,1.68951z" data-paper-data="{&quot;index&quot;:null}" fill="#b9b9b4" fill-rule="evenodd" stroke="none" stroke-width="0.5" stroke-linecap="butt"/><path d="M182.77396,154.90371l1.25844,0.4438l-5.23943,45.72781l-168.54233,-19.21975l11.01588,-51.29812l161.52826,20.55823z" data-paper-data="{&quot;index&quot;:null}" fill="#88774e" fill-rule="evenodd" stroke="none" stroke-width="0.5" stroke-linecap="butt"/><path d="M7.4364,124.36508l-5.75624,-0.62335l-0.78735,2.89348l0.25262,0.32215l19.33778,5.25482l-1.63958,7.5286l-0.52261,-0.50058l0.12166,-1.00582l0.43106,0.05214l0.71258,-5.89125l-8.24938,-2.30993l-3.49431,-0.64135l-1.10606,-0.49826l-6.07434,-1.60948l-0.08751,-1.68718l0.70914,-2.24688l6.03493,0.72996z" data-paper-data="{&quot;index&quot;:null}" fill="#92c4ec" fill-rule="evenodd" stroke="none" stroke-width="0.5" stroke-linecap="butt" opacity="0.287"/><path d="M236.85652,157.36313l32.44761,4.1434l-12.42676,-0.91992l-4.25388,0.21443l-20.81751,-2.66378z" data-paper-data="{&quot;index&quot;:null}" fill="#af9c6f" fill-rule="evenodd" stroke="none" stroke-width="0.5" stroke-linecap="butt"/><path d="M276.92832,162.35581l24.98448,3.1678l-2.56309,57.35033l-25.89005,-2.91285z" data-paper-data="{&quot;index&quot;:null}" fill="#af9c6f" fill-rule="evenodd" stroke="none" stroke-width="0.5" stroke-linecap="butt"/><path d="M273.74979,162.11714l2.87377,0.34759l-3.59498,57.4442l-20.62632,-4.24436l3.85691,-54.78828z" data-paper-data="{&quot;index&quot;:null}" fill="#af9c6f" fill-rule="evenodd" stroke="none" stroke-width="0.5" stroke-linecap="butt"/><path d="M302.32649,165.71943l7.35884,1.83773l0.21786,0.60951l-2.1199,53.68626l-8.13752,0.98391z" data-paper-data="{&quot;index&quot;:null}" fill="#af9c6f" fill-rule="evenodd" stroke="none" stroke-width="0.5" stroke-linecap="butt"/><path d="M305.90132,166.29763l33.4708,4.12137l-10.48463,-0.10184l-18.52717,-2.31386l-0.20918,-0.68136z" data-paper-data="{&quot;index&quot;:null}" fill="#af9c6f" fill-rule="evenodd" stroke="none" stroke-width="0.5" stroke-linecap="butt"/><path d="M343.48636,168.94844l0.57475,0.06952l0.32446,0.33083l-0.91599,2.14897l-5.79969,-0.26414l-0.76189,0.27232l-6.38314,-0.26181l-1.34534,0.27464l-0.31688,3.82513l-0.70106,-0.23059l-0.25262,-0.32215l0.13843,-3.55514l0.21321,-0.55737l15.1522,0.08324z" data-paper-data="{&quot;index&quot;:null}" fill="#92c7ee" fill-rule="evenodd" stroke="none" stroke-width="0.5" stroke-linecap="butt" opacity="0.416"/><path d="M255.23596,160.89834l0.71844,0.0869l-3.96582,54.48352l-3.18318,-1.40556l3.87489,-52.52634l0.33952,-0.3963z" data-paper-data="{&quot;index&quot;:null}" fill="#af9c6f" fill-rule="evenodd" stroke="none" stroke-width="0.5" stroke-linecap="butt"/><path d="M230.46935,158.34005l21.96701,2.80282l-4.04465,52.7245l-22.7376,-2.45864z" data-paper-data="{&quot;index&quot;:null}" fill="#88774e" fill-rule="evenodd" stroke="none" stroke-width="0.5" stroke-linecap="butt"/><path d="M310.30818,168.43436l12.20485,1.54914l5.20119,0.99359l-1.66106,51.70068l-17.97848,-2.0288z" data-paper-data="{&quot;index&quot;:null}" fill="#88774e" fill-rule="evenodd" stroke="none" stroke-width="0.5" stroke-linecap="butt"/><path d="M18.321,139.2402l0.52261,0.50058l-3.10071,14.78722l-0.57475,-0.06952l0.39974,-3.30484l0.43106,0.05214z" data-paper-data="{&quot;index&quot;:null}" fill="#aecce2" fill-rule="evenodd" stroke="none" stroke-width="0.5" stroke-linecap="butt" opacity="0.399"/><path d="M324.33222,146.85536l-59.20113,-6.63433l2.87409,-41.168l55.8376,8.33289z" data-paper-data="{&quot;index&quot;:null}" fill="#0061a3" fill-rule="nonzero" stroke="#000000" stroke-width="0.5" stroke-linecap="round"/><path d="M276.99538,210.21281l3.33795,-40.65134l18.93466,2.29025l-2.20631,39.9987z" data-paper-data="{&quot;index&quot;:null}" fill="#0061a3" fill-rule="nonzero" stroke="#000000" stroke-width="0.5" stroke-linecap="round"/><path d="M300.92097,212.58038l2.11219,-39.22056l4.8111,3.74001l-1.49313,31.92658z" data-paper-data="{&quot;index&quot;:null}" fill="#0061a3" fill-rule="nonzero" stroke="#000000" stroke-width="0.5" stroke-linecap="round"/><path d="M257.04618,205.4313l2.53063,-31.80109l13.76167,-2.80941l-3.60573,38.51356z" data-paper-data="{&quot;index&quot;:null}" fill="#0061a3" fill-rule="nonzero" stroke="#000000" stroke-width="0.5" stroke-linecap="round"/><path d="M179.93332,201.10437l4.53233,-41.82275l31.06272,4.28355l-4.79172,41.79138z" data-paper-data="{&quot;index&quot;:null}" fill="#0061a3" fill-rule="nonzero" stroke="#000000" stroke-width="0.5" stroke-linecap="round"/><path d="M186.38641,202.14808l3.46345,-41.68886l20.23155,2.44711l-4.82309,42.05075z" data-paper-data="{&quot;index&quot;:null}" fill="#6e3222" fill-rule="nonzero" stroke="#000000" stroke-width="0.5" stroke-linecap="round"/><path d="M159.74128,137.40838l-33.97863,-4.10989l3.79835,-22.69984l33.75062,3.81915z" data-paper-data="{&quot;index&quot;:null}" fill="#0061a3" fill-rule="nonzero" stroke="#000000" stroke-width="0.5" stroke-linecap="round"/><path d="M19.72907,182.91111l10.56698,-48.19852l49.51,6.25166l-6.61356,48.15036z" data-paper-data="{&quot;index&quot;:null}" fill="#982900" fill-rule="nonzero" stroke="#000000" stroke-width="0.5" stroke-linecap="round"/><path d="M34.19155,185.18678l7.65327,-39.33986l36.40717,3.61412l-5.35024,39.8816z" data-paper-data="{&quot;index&quot;:null}" fill="#756a66" fill-rule="nonzero" stroke="#000000" stroke-width="0.5" stroke-linecap="round"/><path d="M83.79357,190.1337l7.45665,-39.89l82.05785,9.1358l-3.82534,40.32922z" data-paper-data="{&quot;index&quot;:null}" fill="#756a66" fill-rule="nonzero" stroke="#000000" stroke-width="0.5" stroke-linecap="round"/><path d="M183.50837,98.78795c-0.10476,-0.03494 -0.15655,-0.10098 -0.15556,-0.19836c0.26279,-0.71045 0.41447,-1.47024 0.4552,-2.279c0.13552,0.82703 0.03564,1.65288 -0.29965,2.47736z" data-paper-data="{&quot;index&quot;:null}" fill="#9e9e9e" fill-rule="evenodd" stroke="none" stroke-width="1" stroke-linecap="butt"/><path d="M183.11887,106.4612c-0.13555,1.12066 -0.27112,2.24149 -0.40667,3.36213c-0.05083,-1.0493 0.01866,-2.11815 0.20831,-3.20659c-4.40246,-0.47307 -8.76028,-1.05996 -13.07324,-1.76082c4.42387,0.53509 8.84773,1.07018 13.2716,1.60527z" data-paper-data="{&quot;index&quot;:null}" fill="#afafaf" fill-rule="evenodd" stroke="none" stroke-width="1" stroke-linecap="butt"/><path d="M209.29895,113.45505c1.0943,0.57465 1.69943,-0.45948 1.69943,-0.45948c0.31933,-0.5712 0.71587,-0.99953 1.14586,-1.29339c0.10165,-0.038 0.27986,-0.11689 0.44146,-0.24968c3.57759,-1.65274 9.69073,4.17403 9.55424,7.65066c-0.08838,2.25125 -2.62909,3.28763 -3.88824,4.78561c-0.46354,0.55148 -0.97155,1.20779 -1.68775,1.4108c-1.50264,0.02032 -4.28765,0.64242 -5.66884,0.19802c-2.45922,-0.79123 -2.81962,-3.50866 -3.17307,-5.44831c-0.4852,-2.66257 -0.99069,-5.48004 1.05825,-7.05036c0.10053,0.16405 0.26387,0.32219 0.51858,0.45598z" data-paper-data="{&quot;noHover&quot;:false,&quot;origItem&quot;:[&quot;Path&quot;,{&quot;applyMatrix&quot;:true,&quot;segments&quot;:[[[303.75951,159.12161],[0.07472,0.14181],[-1.70229,1.28574]],[[302.66612,165.04188],[-0.29217,-2.27454],[0.21284,1.65697]],[[304.98984,169.71538],[-1.94531,-0.73116],[1.09249,0.41062]],[[309.51343,169.67697],[-1.20703,-0.01856],[0.58234,-0.15551]],[[310.90585,168.52331],[-0.39227,0.45765],[1.06552,-1.24311]],[[314.17667,164.58584],[-0.15326,1.91125],[0.23667,-2.95156]],[[306.84804,157.91071],[2.93246,-1.3193],[-0.13459,0.10897]],[[306.48773,158.11144],[0.08301,-0.02987],[-0.35593,0.2395]],[[305.5311,159.17855],[0.27722,-0.47785],[0,0]],[[304.15911,159.52155],[0.85749,0.5145],[-0.19963,-0.11978]]],&quot;closed&quot;:true}],&quot;index&quot;:null}" fill="#ffffff" fill-rule="nonzero" stroke="#000000" stroke-width="2" stroke-linecap="butt"/><path d="M191.83547,113.07907c2.03283,-0.38457 4.16475,-0.51732 6.19856,-0.79472c0.68054,-0.09284 1.57921,-0.72785 2.05919,-0.25532c1.29367,1.27355 4.18238,6.91271 2.48763,8.67496c-1.70145,1.7693 -4.84158,3.00707 -7.08755,4.20734c-0.93475,-0.00444 -1.90592,0.32552 -2.82085,0.13297c-3.0596,-0.64381 -4.07925,-9.30044 -2.60969,-11.13426c0.27322,-0.34092 0.62688,-0.6256 0.9839,-0.89321c0.39524,0.13794 0.78882,0.06214 0.78882,0.06214z" data-paper-data="{&quot;noHover&quot;:false,&quot;origItem&quot;:[&quot;Path&quot;,{&quot;applyMatrix&quot;:true,&quot;segments&quot;:[[[287.24196,159.08011],[0.29648,0.12027],[-0.2814,0.20784]],[[286.46732,159.77235],[0.22005,-0.26889],[-1.1837,1.44643]],[[288.05629,168.74018],[-2.30956,-0.58883],[0.69062,0.17608]],[[290.19385,168.69081],[-0.71228,-0.02474],[1.75342,-0.91761]],[[295.68772,165.48695],[-1.35818,1.38911],[1.35284,-1.38365]],[[294.11298,158.49213],[0.94175,1.05695],[-0.34943,-0.39217]],[[292.54579,158.65657],[0.52189,-0.05948],[-1.55968,0.17776]],[[287.83801,159.15045],[1.56269,-0.26425],[0,0]]],&quot;closed&quot;:true}],&quot;index&quot;:null}" fill="#ffffff" fill-rule="nonzero" stroke="#000000" stroke-width="2" stroke-linecap="butt"/><path d="M195.24479,118.14781c-0.0333,-0.73137 0.56741,-1.3419 1.34171,-1.36364c0.77432,-0.02174 1.42903,0.55354 1.46233,1.28491c0.0333,0.73137 -0.56741,1.3419 -1.34172,1.36364c-0.77432,0.02174 -1.42902,-0.55354 -1.46233,-1.28491z" data-paper-data="{&quot;index&quot;:null}" fill="#000000" fill-rule="nonzero" stroke="none" stroke-width="0.5" stroke-linecap="butt"/><path d="M212.93502,118.41605c-0.0333,-0.73137 0.56741,-1.3419 1.34171,-1.36364c0.77432,-0.02174 1.42903,0.55354 1.46234,1.28491c0.0333,0.73137 -0.56741,1.3419 -1.34172,1.36364c-0.77432,0.02174 -1.42902,-0.55354 -1.46233,-1.28491z" data-paper-data="{&quot;index&quot;:null}" fill="#000000" fill-rule="nonzero" stroke="none" stroke-width="0.5" stroke-linecap="butt"/><path d="M229.24994,97.28063c0.58672,1.00539 -0.47054,1.54601 -0.47054,1.54601l-0.73027,0.3714c-5.88295,3.40609 -11.11269,7.69261 -17.03135,11.14137c0,0 -1.02309,0.59555 -1.66754,-0.37831c-0.64446,-0.97386 0.37862,-1.56941 0.37862,-1.56941c5.92472,-3.4454 11.16129,-7.70778 17.03135,-11.14137l0.84577,-0.4345c0,0 1.05724,-0.54063 1.64397,0.46479z" data-paper-data="{&quot;index&quot;:null}" fill="#000000" fill-rule="nonzero" stroke="none" stroke-width="1" stroke-linecap="butt"/><path d="M184.29027,100.75958c-0.05196,-1.14103 1.15606,-1.17495 1.15606,-1.17495l1.08149,0.16151c3.46766,2.02805 12.33881,8.87985 16.2465,8.49191c0,0 1.20802,-0.03391 1.25998,1.10711c0.05196,1.14103 -1.15606,1.17494 -1.15606,1.17494c-5.21849,-0.0456 -13.09641,-6.20121 -17.60412,-8.83754l0.27613,0.18412c0,0 -1.20802,0.03391 -1.25998,-1.10711z" data-paper-data="{&quot;index&quot;:null}" fill="#000000" fill-rule="nonzero" stroke="none" stroke-width="1" stroke-linecap="butt"/><path d="M187.34445,120.44651c0.77268,0.21286 0.5588,0.93954 0.5588,0.93954l-0.03565,0.12112c-0.19012,0.64593 -0.38024,1.2919 -0.57036,1.93784c-1.62706,5.52796 -2.61691,13.31945 3.78004,16.5035c1.90716,0.94927 4.14845,0.60813 6.18248,0.6928c5.33253,-0.94413 9.55255,-2.71808 13.05823,-6.71799c1.69453,-1.93341 2.6821,-4.24331 4.72709,-5.88889c0,0 0.60658,-0.48657 1.13085,0.09363c0.52427,0.5802 -0.0823,1.06677 -0.0823,1.06677c-1.95882,1.56583 -2.90727,3.84715 -4.53167,5.70146c-3.77751,4.31215 -8.40814,6.27911 -14.16566,7.25572c-2.34482,-0.08031 -4.8081,0.22042 -7.00845,-0.84602c-7.22104,-3.49986 -6.4668,-12.0665 -4.63601,-18.28669c0.19012,-0.64594 0.41589,-1.413 0.60601,-2.05894c0,0 0.21389,-0.72668 0.98657,-0.51383z" data-paper-data="{&quot;index&quot;:null}" fill="#000000" fill-rule="nonzero" stroke="none" stroke-width="0.5" stroke-linecap="butt"/></g></g></svg>