<svg version="1.1" xmlns="http://www.w3.org/2000/svg" xmlns:xlink="http://www.w3.org/1999/xlink" width="123" height="108" viewBox="0,0,123,108"><g transform="translate(-258.5,-126)"><g data-paper-data="{&quot;isPaintingLayer&quot;:true}" fill-rule="nonzero" stroke-linecap="butt" stroke-linejoin="miter" stroke-miterlimit="10" stroke-dasharray="" stroke-dashoffset="0" style="mix-blend-mode: normal"><path d="M259,233.5v-107h122v107z" fill="#008bff" stroke="#000000" stroke-width="1"/><path d="M317.8068,145.04824c0.31009,-2.48069 2.79078,-2.17061 2.79078,-2.17061l1.84586,0.23556c3.18062,0.21097 7.84523,0.54301 10.89707,1.55706c0.8116,0.26967 1.76727,0.46724 2.623,0.78054c0.18738,0.05251 0.36585,0.1263 0.53266,0.2186c0.68264,0.31615 1.25506,0.74527 1.56671,1.40328c0.73387,1.54946 -0.71223,3.35892 -1.21771,4.99718c-0.29509,0.9564 -0.71842,2.26867 -1.22375,3.66316c-0.6646,2.98111 -1.65544,5.87794 -3.19944,8.6768l-0.08977,0.06167l0.03539,0.02359l-1.47849,2.21774c-0.44514,0.68925 -1.2201,1.14551 -2.10163,1.14551c-1.38071,0 -2.5,-1.11929 -2.5,-2.5c0,-0.25848 0.03923,-0.5078 0.11205,-0.74232l0.98414,-3.44448l0.03333,0.00952c0.00998,-0.06958 0.02086,-0.1391 0.03269,-0.20856c0.48014,-2.82034 2.43172,-5.18154 3.52922,-7.82358c0.03469,-0.08351 0.06826,-0.1676 0.101,-0.25213c-3.65303,2.10802 -7.35958,4.60486 -10.03011,7.69497c-0.97668,1.59353 -2.4205,3.01716 -2.8292,4.84095c-0.13523,0.60345 0.28472,4.92491 0.30889,5.22594c0.47514,5.91732 0.95107,13.02 4.13383,18.222c2.42955,3.97093 6.55468,6.37764 9.96561,9.41786c6.0676,5.40816 11.92896,11.04531 17.67632,16.79206c0,0 1.76777,1.76777 0,3.53553c-1.76777,1.76777 -3.53553,0 -3.53553,0c-5.67942,-5.68003 -11.47359,-11.24887 -17.46827,-16.59559c-3.90258,-3.48075 -8.16442,-6.10207 -10.97468,-10.66104c-3.58552,-5.81663 -4.25256,-13.67866 -4.78129,-20.31146c-0.13012,-1.63236 -0.54252,-5.241 -0.19111,-6.77406c0.36355,-1.58599 2.9424,-5.47943 3.6708,-6.65905c3.02846,-3.43279 6.88996,-6.2431 10.88235,-8.64077c-1.91316,-0.37176 -3.83172,-0.76774 -5.77597,-0.88067l-2.15414,-0.26444c0,0 -2.48069,-0.31009 -2.17061,-2.79078z" fill="#ffffff" stroke="none" stroke-width="0.5"/><path d="M374.6913,178.67153c0.6868,2.40381 -1.71701,3.09061 -1.71701,3.09061l-1.94651,0.54764c-4.8605,0.95012 -9.8507,0.62695 -14.78124,1.03979c-8.98029,0.75193 -17.94703,2.00594 -26.95905,2.00876c0,0 -2.5,0 -2.5,-2.5c0,-2.5 2.5,-2.5 2.5,-2.5c8.87037,0.00287 17.7007,-1.25791 26.54095,-1.99124c4.71965,-0.39151 9.5805,-0.00705 14.21876,-0.96021l1.55349,-0.45236c0,0 2.40381,-0.6868 3.09061,1.71701z" fill="#ffffff" stroke="none" stroke-width="0.5"/><path d="M262.20737,177.97158c1.38675,-2.08013 3.46688,-0.69338 3.46688,-0.69338l-0.2832,0.10525c12.64997,1.80926 25.54567,3.18891 38.30239,3.97974c0,0 2.49513,0.15595 2.33919,2.65108c-0.15595,2.49513 -2.65108,2.33919 -2.65108,2.33919c-12.89015,-0.81185 -25.91474,-2.19634 -38.69761,-4.02026l-1.7832,-0.89475c0,0 -2.08013,-1.38675 -0.69338,-3.46688z" fill="#ffffff" stroke="none" stroke-width="0.5"/><text transform="translate(262.78749,201.61732) scale(0.3785,0.3785)" font-size="40" xml:space="preserve" fill="#ff0000" fill-rule="nonzero" stroke="#000000" stroke-width="2" stroke-linecap="butt" stroke-linejoin="miter" stroke-miterlimit="10" stroke-dasharray="" stroke-dashoffset="0" font-family="&quot;Crystal Universe Regular&quot;, Sans Serif" font-weight="normal" text-anchor="start" style="mix-blend-mode: normal"><tspan x="0" dy="0">Force</tspan><tspan x="0" dy="46.150000000000006px">Clicker</tspan></text><text transform="translate(265.78749,150.525) scale(0.59751,0.59751)" font-size="40" xml:space="preserve" fill="#000000" fill-rule="nonzero" stroke="none" stroke-width="1" stroke-linecap="butt" stroke-linejoin="miter" stroke-miterlimit="10" stroke-dasharray="" stroke-dashoffset="0" font-family="&quot;Gord&quot;, Serif" font-weight="normal" text-anchor="start" style="mix-blend-mode: normal"><tspan x="0" dy="0">$60</tspan></text></g></g></svg>