<svg version="1.1" xmlns="http://www.w3.org/2000/svg" xmlns:xlink="http://www.w3.org/1999/xlink" width="850.77697" height="319.11925" viewBox="0,0,850.77697,319.11925"><g transform="translate(92.4189,-71.76005)"><g data-paper-data="{&quot;isPaintingLayer&quot;:true}" stroke-linejoin="miter" stroke-miterlimit="10" stroke-dasharray="" stroke-dashoffset="0" style="mix-blend-mode: normal"><path d="M552.9318,357.89817l-15.45545,-23.8042l73.4135,0.21066l26.2743,23.59354z" data-paper-data="{&quot;index&quot;:null}" fill="#cedce9" fill-rule="nonzero" stroke="#000000" stroke-width="1" stroke-linecap="round"/><path d="M644.14715,356.66111c-1.98691,0.26093 -3.94024,0.41022 -5.87404,0.51787c0.01309,0.04008 0.01988,0.08189 0.01988,0.1255c0,1.06242 -4.04512,1.06242 -4.04512,1.06242c-17.86602,0 -35.73198,0 -53.59801,0c-4.59745,0 -16.03707,-0.482 -19.42787,0.15345c-1.95317,0.36602 -3.35147,0.32979 -5.85419,0.37776c-0.28252,0.00541 -0.79631,0.01701 -1.25027,0.02412c2.42006,0.45376 1.25027,4.64714 1.25027,5.81926c0,4.95802 0,9.91602 0,14.87404c0,0.88533 0,1.77074 0,2.65608c0,0.35414 -0.71145,1.36326 0,1.06242c2.70679,-1.14452 7.9893,-0.52915 14.15796,-0.53121c12.15979,-0.00404 25.17817,-0.34558 37.12097,0.22898c21.80836,1.14556 45.25585,-0.6847 66.89019,0.59163c18.22104,1.19642 40.03258,1.30422 58.80533,1.30422c4.71936,0 9.43864,0 14.158,0c0.71007,0 1.82498,-0.02512 2.97927,-0.05265c-1.16116,-0.54501 0.05461,-1.86301 0.05461,-2.60344c0,-2.76609 3.53027,-7.53757 -0.80367,-10.02273c-3.82992,-3.01773 -6.25267,-5.92321 -12.50012,-8.9328c-4.60955,-2.22058 -11.78528,-4.18893 -15.59923,-6.39474c-1.84898,-1.31465 -3.50426,-0.37508 -9.52565,-0.67933c-13.3238,-0.67324 -26.68691,-0.53121 -40.45131,-0.53121c-5.01723,0 -11.31843,0.26755 -16.18059,0c-1.02635,-0.05647 -2.95525,-0.26641 -4.40103,-0.43836c2.64446,0.53658 -3.38978,1.05567 -5.92534,1.38864zM580.64968,356.24204c13.50255,0 27.00516,0 40.5077,0c0.38955,-0.05115 0.77894,-0.10229 1.16844,-0.15345c5.13056,-0.67375 9.76255,-0.4952 14.158,-0.79683c5.99012,-0.41103 9.57309,-1.79534 15.75349,-2.12486c3.55039,-0.18928 13.38381,0.41906 18.4166,0.41906c13.64661,0 27.27825,-0.20495 40.45131,0.53122c7.40008,0.41355 13.65406,-0.39267 17.11473,2.0679c0.51017,0.93468 4.59341,1.51888 6.72907,2.2379c3.2638,1.09883 5.99174,2.72622 8.51728,3.94283c6.26085,3.01605 9.01369,6.11815 12.93913,9.21111c3.50798,3.26023 1.21885,7.30306 1.21885,10.69469c0,1.8751 1.12517,3.19667 -4.04512,4.78095c-1.803,0.55246 -18.45948,0 -21.23692,0c-19.36324,0 -41.9878,-0.13459 -60.76754,-1.36769c-20.63121,-1.58386 -45.18962,0.55074 -66.51467,-0.56944c-17.18457,-1.01662 -43.7096,1.69157 -57.78251,-1.78137c-1.39327,-0.34385 0,-3.15236 0,-3.71852c0,-4.95802 0,-9.91601 0,-14.87404c0,-1.65763 -2.78211,-5.61537 1.43838,-6.84975c7.36513,-2.15411 21.14903,-1.64973 31.93387,-1.64973z" data-paper-data="{&quot;index&quot;:null}" fill="#000000" fill-rule="nonzero" stroke="none" stroke-width="1" stroke-linecap="butt"/><path d="M638.21671,357.12795c1.93374,-0.10764 3.91064,-0.25834 5.89762,-0.51928c2.5356,-0.33297 8.59378,-0.85268 5.94927,-1.38926c1.4458,0.17194 3.39076,0.38187 4.41701,0.43836c4.86215,0.26755 11.21975,0.00266 16.23689,0.00266c13.76431,0 27.2142,-0.12711 40.53797,0.5461c6.02138,0.30425 7.68919,-0.63128 9.53817,0.68336c3.81399,2.20579 11.01997,4.18997 15.62961,6.41056c6.24745,3.00958 8.67848,5.93523 12.50843,8.95297c4.33404,2.48518 0.78472,7.27503 0.78472,10.04112c0,0.74044 -1.22331,2.06217 -0.06212,2.60719c-1.15425,0.02753 -2.27068,0.05332 -2.98081,0.05332c-4.71935,0 -9.44688,0.00333 -14.16625,0.00333c-18.7729,0 -40.67297,-0.08931 -58.89401,-1.28573c-21.63436,-1.27632 -45.29616,0.54364 -67.10454,-0.60193c-11.94277,-0.57457 -24.99797,-0.24515 -37.15777,-0.24112c-6.16862,0.00206 -11.45593,-0.61559 -14.16273,0.52893c-0.71145,0.30083 -0.00305,-0.70989 -0.00305,-1.06402c0,-0.88533 -0.0069,-1.77502 -0.0069,-2.66037c0,-4.95802 -0.00844,-9.94551 -0.00844,-14.90354c0,-1.1721 1.18209,-5.37565 -1.23799,-5.82943c0.45403,-0.00713 0.96825,-0.01897 1.25075,-0.0244c2.50265,-0.04795 3.90413,-0.0135 5.85725,-0.37952c3.39083,-0.63544 14.84085,-0.1584 19.43827,-0.1584c17.86609,0 35.82728,-0.02112 53.69325,-0.02112c0,0 4.06497,-0.00182 4.06497,-1.06425c0,-0.04361 -0.00628,-0.08545 -0.0194,-0.12553z" data-paper-data="{&quot;noHover&quot;:false,&quot;origItem&quot;:[&quot;Path&quot;,{&quot;applyMatrix&quot;:true,&quot;segments&quot;:[[[579.60736,595.76373],[0.95609,-0.20262],[0.00646,0.07548]],[[579.61718,596],[0,-0.08208],[0,2]],[[577.61718,598],[0,0],[-8.83333,0]],[[551.11718,598],[8.83333,0],[-2.27308,0]],[[541.51161,598.28885],[1.67648,-1.19621],[-0.96568,0.68904]],[[538.61718,599],[1.23739,-0.09027],[-0.13966,0.01019]],[[537.99901,599.04541],[0.22447,-0.0134],[1.19653,0.85421]],[[538.61718,610],[0,-2.20646],[0,9.33333]],[[538.61718,638],[0,-9.33333],[0,1.66667]],[[538.61718,643],[0,-1.66667],[0,0.66667]],[[538.61718,645],[-0.35177,0.56631],[1.33831,-2.15456]],[[545.61718,644],[-3.04994,0.00386],[6.01206,-0.00761]],[[563.97058,644.43107],[-5.90478,-1.08158],[10.78253,2.15651]],[[597.04254,645.54479],[-10.6965,-2.40266],[9.00888,2.25222]],[[626.11718,648],[-9.28168,0],[2.33333,0]],[[633.11718,648],[-2.33333,0],[0.35109,0]],[[634.59021,647.90091],[-0.5707,0.05184],[-0.57412,-1.02596]],[[634.61718,643],[0,1.39387],[0,-5.20707]],[[634.21982,624.13246],[2.14282,4.67827],[-1.8936,-5.6808]],[[628.03948,607.31672],[3.08887,5.66543],[-2.2791,-4.1802]],[[620.32688,595.27881],[1.8857,4.15235],[-0.91417,-2.47477]],[[615.61718,594],[2.9771,0.57275],[-6.58756,-1.26734]],[[595.61718,593],[6.8054,0],[-2.48058,0]],[[587.61718,593],[2.40395,0.50364],[-0.50743,-0.10631]],[[585.44122,592.1748],[0.71481,0.32365],[1.30749,1.01011]],[[582.51161,594.78885],[1.25365,-0.62682],[-0.98239,0.4912]]],&quot;closed&quot;:true}],&quot;index&quot;:null}" fill="#484848" fill-rule="nonzero" stroke="none" stroke-width="1" stroke-linecap="butt"/><path d="M694.9248,361.02298c0,-0.12319 -0.05604,-0.3295 -0.10959,-0.53219c-0.20834,0.08224 -0.51916,0.15239 -0.91884,0.21201c-1.19851,0.32017 -3.01677,0.32017 -3.01677,0.32017c-15.40793,0 -24.3073,2.82041 -29.75423,5.78731c-0.6408,0.3366 -0.58418,0.74216 -0.58418,1.11851c0,0.10708 -0.03897,0.27724 -0.08157,0.45326c0.04075,-0.05667 0.14243,-0.10323 0.34948,-0.13311c0.91495,-0.13208 8.86885,0.67618 9.84488,0.21109c0.29332,-0.13979 -1.43869,-0.16611 -1.34317,-0.3237c1.17488,-1.93773 13.63483,-4.86873 19.75983,-5.6731c1.58856,-0.20864 3.37688,-0.3136 5.15467,-0.36165c-0.69505,-0.28431 0.69945,-0.71947 0.69945,-1.07854zM660.43825,368.46997c-0.09173,0.37772 -0.17315,0.73875 0.10291,0.52124c0.1887,-0.14864 -0.08372,-0.35733 -0.10291,-0.52124zM653.88933,365.86001c5.78135,-2.86253 13.47037,-5.47258 25.45274,-6.49989c1.12556,-0.46199 3.44735,-0.462 3.44735,-0.462h2.02255c4.57973,0 7.00265,-0.41904 11.92189,-0.41904c6.83163,0 8.41522,3.56784 4.84282,4.61269c-2.2543,0.65933 -5.87029,0.87565 -8.88799,1.27197c-8.93253,1.17304 -12.24689,4.5439 -22.03467,6.22114c-10.37382,1.77764 -21.79459,-2.08275 -16.76468,-4.72486z" data-paper-data="{&quot;index&quot;:null}" fill="#000000" fill-rule="nonzero" stroke="none" stroke-width="1" stroke-linecap="butt"/><path d="M694.96548,360.45518c0.05368,0.20268 0.11905,0.41194 0.11905,0.53514c0,0.35905 -1.37794,0.80077 -0.68287,1.08509c-1.77782,0.04807 -3.57638,0.14871 -5.165,0.35735c-6.12508,0.80436 -18.64513,3.72049 -19.81998,5.65821c-0.09563,0.15763 1.4443,0.27726 1.15096,0.41704c-0.97603,0.46508 -8.99887,-0.35715 -9.91381,-0.22508c-0.20713,0.0299 -0.30786,0.07673 -0.34853,0.13344c0.04259,-0.17603 0.0741,-0.34865 0.0741,-0.45571c0,-0.37632 -0.07425,-0.78928 0.56654,-1.12588c5.44688,-2.9669 14.66749,-5.8497 30.07541,-5.8497c0,0 1.82652,0.00229 3.02501,-0.31789c0.3997,-0.05965 0.71066,-0.12974 0.91891,-0.21199z" data-paper-data="{&quot;noHover&quot;:false,&quot;origItem&quot;:[&quot;Path&quot;,{&quot;applyMatrix&quot;:true,&quot;segments&quot;:[[[607.563,601.99816],[0.02649,0.38155],[-0.10299,0.15484]],[[607.10872,602.39727],[0.1976,-0.11227],[-0.59254,0.60273]],[[605.61718,603],[0,0],[-7.618,0]],[[590.90604,613.89443],[2.69308,-5.58508],[-0.31682,0.63364]],[[590.61718,616],[0,-0.70843],[0,0.20156]],[[590.57685,616.85325],[0.02106,-0.33136],[0.02013,-0.10671]],[[590.74964,616.60263],[-0.10238,0.05628],[0.45234,-0.24865]],[[595.61718,617],[-0.48256,0.87548],[0.14503,-0.26312]],[[594.95308,616.3906],[-0.04725,0.29671],[0.58086,-3.64773]],[[604.72276,605.71115],[-3.02833,1.51416],[0.78545,-0.39273]],[[607.27135,605.03032],[-0.87898,0.0905],[-0.34365,-0.53523]],[[607.61718,603],[0,0.6759],[0,-0.23192]]],&quot;closed&quot;:true}],&quot;index&quot;:null}" fill="#ffffff" fill-rule="nonzero" stroke="none" stroke-width="1" stroke-linecap="butt"/><path d="M268.41963,361.47932l26.27432,-23.59353l73.41346,-0.21066l-15.45545,23.80419z" fill="#cedce9" fill-rule="nonzero" stroke="#000000" stroke-width="1" stroke-linecap="round"/><path d="M319.8091,211.59439v-2.92272l290.5629,-0.48711l44.82087,147.11057l-143.7359,0.48711l-33.04386,-103.21017l-16.93869,-5.2231l-15.67204,3.3994l-11.18961,6.942l-35.98072,99.06609l-151.46362,1.46136z" fill="#a3a3a1" fill-rule="nonzero" stroke="#000000" stroke-width="1" stroke-linecap="round"/><path d="M261.43663,360.24226c-2.53557,-0.33297 -8.56979,-0.85203 -5.92534,-1.38864c-1.44582,0.17195 -3.37467,0.38188 -4.40103,0.43836c-4.86215,0.26755 -11.16332,0 -16.18058,0c-13.76437,0 -27.12749,-0.14202 -40.45131,0.53121c-6.0214,0.30425 -7.67668,-0.63531 -9.52567,0.67933c-3.81392,2.20579 -10.98968,4.17415 -15.59923,6.39474c-6.24745,3.00958 -8.67016,5.91504 -12.50011,8.93279c-4.33397,2.48518 -0.80365,7.25665 -0.80365,10.02273c0,0.74044 1.21575,2.05842 0.05458,2.60344c1.15432,0.02753 2.26922,0.05265 2.97927,0.05265c4.71933,0 9.43861,0 14.158,0c18.77278,0 40.58429,-0.10782 58.80533,-1.30421c21.63436,-1.27633 45.08181,0.55393 66.89019,-0.59163c11.94278,-0.57455 24.96115,-0.23303 37.12093,-0.22899c6.16869,0.00206 11.45114,-0.61331 14.15796,0.53122c0.71145,0.30083 0,-0.70829 0,-1.06242c0,-0.88533 0,-1.77072 0,-2.65608c0,-4.95802 0,-9.91602 0,-14.87405c0,-1.1721 -1.16977,-5.36548 1.25027,-5.81924c-0.45399,-0.00713 -0.96779,-0.01871 -1.25027,-0.02412c-2.50273,-0.04796 -3.90102,-0.01173 -5.85419,-0.37776c-3.39083,-0.63545 -14.8305,-0.15345 -19.42791,-0.15345c-17.86598,0 -35.73194,0 -53.59799,0c0,0 -4.04512,0 -4.04512,-1.06242c0,-0.04361 0.00678,-0.08542 0.01988,-0.12551c-1.93377,-0.10764 -3.88713,-0.25695 -5.87404,-0.51787zM324.93394,359.82319c10.78487,0 24.56877,-0.50439 31.93387,1.64973c4.22054,1.23438 1.43838,5.19209 1.43838,6.84975c0,4.95802 0,9.91602 0,14.87405c0,0.56616 1.39327,3.37466 0,3.71852c-14.07287,3.47295 -40.5979,0.76475 -57.78251,1.78138c-21.32506,1.12017 -45.88344,-1.01442 -66.51464,0.56946c-18.7797,1.2331 -41.40429,1.36769 -60.76754,1.36769c-2.77744,0 -19.434,0.55246 -21.23695,0c-5.17031,-1.58428 -4.04512,-2.90584 -4.04512,-4.78095c0,-3.39163 -2.28913,-7.43442 1.21891,-10.69467c3.92544,-3.09295 6.67829,-6.19508 12.93913,-9.21111c2.52558,-1.21662 5.25351,-2.844 8.51728,-3.94283c2.13564,-0.71902 6.21887,-1.30322 6.72907,-2.23791c3.46066,-2.46056 9.71461,-1.65435 17.11473,-2.0679c13.17306,-0.73616 26.80474,-0.53122 40.45133,-0.53122c5.03278,0 14.86623,-0.60835 18.41658,-0.41906c6.18039,0.3295 9.7634,1.71381 15.75349,2.12486c4.39544,0.30162 9.02747,0.12307 14.158,0.79683c0.38951,0.05115 0.77893,0.1023 1.16848,0.15345c13.50255,0 27.00509,0 40.50767,0z" data-paper-data="{&quot;index&quot;:null}" fill="#000000" fill-rule="nonzero" stroke="none" stroke-width="1" stroke-linecap="butt"/><path d="M267.36687,360.7091c-0.01312,0.0401 -0.0194,0.08192 -0.0194,0.12553c0,1.06242 4.06497,1.06425 4.06497,1.06425c17.86598,0 35.82718,0.02113 53.69325,0.02113c4.59742,0 16.04748,-0.47706 19.43827,0.15838c1.95312,0.36602 3.35461,0.33156 5.85725,0.37952c0.28252,0.00541 0.7967,0.01728 1.25075,0.02441c-2.42008,0.45376 -1.238,4.65733 -1.238,5.82942c0,4.95802 -0.00842,9.94551 -0.00842,14.90354c0,0.88533 -0.00694,1.77503 -0.00694,2.66037c0,0.35414 0.7084,1.36485 -0.00305,1.06401c-2.70682,-1.14452 -7.99407,-0.52689 -14.16274,-0.52893c-12.1598,-0.00404 -25.21499,-0.33344 -37.15777,0.24112c-21.8084,1.14556 -45.47019,-0.6744 -67.10454,0.60194c-18.22104,1.19643 -40.12111,1.28575 -58.89401,1.28575c-4.71933,0 -9.44689,-0.00333 -14.16625,-0.00333c-0.71012,0 -1.82653,-0.02579 -2.98079,-0.05332c1.16119,-0.54501 -0.06212,-1.86676 -0.06212,-2.60719c0,-2.76609 -3.54933,-7.55595 0.78469,-10.04113c3.82992,-3.01773 6.26098,-5.94337 12.50843,-8.95293c4.60962,-2.22058 11.81566,-4.20478 15.62961,-6.41056c1.84901,-1.31465 3.51684,-0.37911 9.53823,-0.68335c13.32377,-0.67324 26.77366,-0.54611 40.53797,-0.54611c5.01707,0 11.37472,0.26489 16.23689,-0.00266c1.02625,-0.05648 2.97122,-0.26641 4.41701,-0.43836c-2.64451,0.53658 3.4137,1.0563 5.94925,1.38928c1.98698,0.26093 3.96388,0.41163 5.89763,0.51928z" data-paper-data="{&quot;noHover&quot;:false,&quot;origItem&quot;:[&quot;Path&quot;,{&quot;applyMatrix&quot;:true,&quot;segments&quot;:[[[579.60736,595.76373],[0.95609,-0.20262],[0.00646,0.07548]],[[579.61718,596],[0,-0.08208],[0,2]],[[577.61718,598],[0,0],[-8.83333,0]],[[551.11718,598],[8.83333,0],[-2.27308,0]],[[541.51161,598.28885],[1.67648,-1.19621],[-0.96568,0.68904]],[[538.61718,599],[1.23739,-0.09027],[-0.13966,0.01019]],[[537.99901,599.04541],[0.22447,-0.0134],[1.19653,0.85421]],[[538.61718,610],[0,-2.20646],[0,9.33333]],[[538.61718,638],[0,-9.33333],[0,1.66667]],[[538.61718,643],[0,-1.66667],[0,0.66667]],[[538.61718,645],[-0.35177,0.56631],[1.33831,-2.15456]],[[545.61718,644],[-3.04994,0.00386],[6.01206,-0.00761]],[[563.97058,644.43107],[-5.90478,-1.08158],[10.78253,2.15651]],[[597.04254,645.54479],[-10.6965,-2.40266],[9.00888,2.25222]],[[626.11718,648],[-9.28168,0],[2.33333,0]],[[633.11718,648],[-2.33333,0],[0.35109,0]],[[634.59021,647.90091],[-0.5707,0.05184],[-0.57412,-1.02596]],[[634.61718,643],[0,1.39387],[0,-5.20707]],[[634.21982,624.13246],[2.14282,4.67827],[-1.8936,-5.6808]],[[628.03948,607.31672],[3.08887,5.66543],[-2.2791,-4.1802]],[[620.32688,595.27881],[1.8857,4.15235],[-0.91417,-2.47477]],[[615.61718,594],[2.9771,0.57275],[-6.58756,-1.26734]],[[595.61718,593],[6.8054,0],[-2.48058,0]],[[587.61718,593],[2.40395,0.50364],[-0.50743,-0.10631]],[[585.44122,592.1748],[0.71481,0.32365],[1.30749,1.01011]],[[582.51161,594.78885],[1.25365,-0.62682],[-0.98239,0.4912]]],&quot;closed&quot;:true}],&quot;index&quot;:null}" fill="#484848" fill-rule="nonzero" stroke="none" stroke-width="1" stroke-linecap="butt"/><path d="M210.65898,364.60414c0,0.35905 1.39452,0.79423 0.69945,1.07854c1.7778,0.04807 3.56606,0.15303 5.15468,0.36165c6.12502,0.80436 18.58495,3.73535 19.75981,5.6731c0.09551,0.15762 -1.6365,0.18397 -1.34315,0.32373c0.97603,0.46508 8.92997,-0.34317 9.84488,-0.21109c0.20706,0.0299 0.30879,0.07647 0.34952,0.13311c-0.04258,-0.17602 -0.08163,-0.34619 -0.08163,-0.45326c0,-0.37633 0.05662,-0.78189 -0.58418,-1.11851c-5.4469,-2.96688 -14.34631,-5.78731 -29.75426,-5.78731c0,0 -1.81825,-0.00001 -3.01677,-0.32017c-0.3997,-0.05965 -0.71047,-0.12975 -0.91884,-0.21201c-0.05356,0.20268 -0.10955,0.409 -0.10955,0.53219zM245.04263,372.57236c0.27608,0.21752 0.19465,-0.14352 0.10291,-0.52124c-0.01919,0.16393 -0.29162,0.3726 -0.10291,0.52124zM251.69451,369.44118c5.02987,2.64213 -6.39091,6.50251 -16.76474,4.72486c-9.78778,-1.67723 -13.10218,-5.0481 -22.03467,-6.22113c-3.01772,-0.3963 -6.63368,-0.61263 -8.88799,-1.27197c-3.57241,-1.04484 -1.98881,-4.61271 4.84281,-4.61271c4.91922,0 7.34217,0.41903 11.92189,0.41903h2.02255c0,0 2.32175,0 3.44737,0.462c11.9824,1.0273 19.67142,3.63735 25.45274,6.49989z" data-paper-data="{&quot;index&quot;:null}" fill="#000000" fill-rule="nonzero" stroke="none" stroke-width="1" stroke-linecap="butt"/><path d="M210.61843,364.03635c0.20825,0.08224 0.51923,0.15235 0.91891,0.21201c1.19851,0.32017 3.02501,0.31789 3.02501,0.31789c15.40792,0 24.62857,2.8828 30.07543,5.84969c0.64082,0.3366 0.56654,0.74956 0.56654,1.12589c0,0.10708 0.0315,0.27968 0.0741,0.4557c-0.04068,-0.05669 -0.14141,-0.10352 -0.34853,-0.13343c-0.91496,-0.13208 -8.93778,0.69015 -9.9138,0.22508c-0.29336,-0.13979 1.24658,-0.25941 1.15096,-0.41704c-1.17481,-1.93773 -13.69489,-4.85385 -19.81998,-5.65822c-1.58864,-0.20864 -3.3872,-0.30928 -5.16501,-0.35733c0.69505,-0.28434 -0.68287,-0.72604 -0.68287,-1.0851c0,-0.12319 0.06536,-0.33245 0.11905,-0.53513z" data-paper-data="{&quot;noHover&quot;:false,&quot;origItem&quot;:[&quot;Path&quot;,{&quot;applyMatrix&quot;:true,&quot;segments&quot;:[[[607.563,601.99816],[0.02649,0.38155],[-0.10299,0.15484]],[[607.10872,602.39727],[0.1976,-0.11227],[-0.59254,0.60273]],[[605.61718,603],[0,0],[-7.618,0]],[[590.90604,613.89443],[2.69308,-5.58508],[-0.31682,0.63364]],[[590.61718,616],[0,-0.70843],[0,0.20156]],[[590.57685,616.85325],[0.02106,-0.33136],[0.02013,-0.10671]],[[590.74964,616.60263],[-0.10238,0.05628],[0.45234,-0.24865]],[[595.61718,617],[-0.48256,0.87548],[0.14503,-0.26312]],[[594.95308,616.3906],[-0.04725,0.29671],[0.58086,-3.64773]],[[604.72276,605.71115],[-3.02833,1.51416],[0.78545,-0.39273]],[[607.27135,605.03032],[-0.87898,0.0905],[-0.34365,-0.53523]],[[607.61718,603],[0,0.6759],[0,-0.23192]]],&quot;closed&quot;:true}],&quot;index&quot;:null}" fill="#ffffff" fill-rule="nonzero" stroke="none" stroke-width="1" stroke-linecap="butt"/><path d="M610.92434,191.60594c1.34214,9.00946 2.66675,18.02245 3.9715,27.04126c-0.01051,0.12966 -0.04906,0.24647 -0.11681,0.35043c-28.6976,-0.46607 -57.39286,-1.0104 -86.08813,-1.63532c-1.36316,-1.12954 -2.72516,-2.25792 -4.08831,-3.38746c-30.60276,-0.55017 -61.20668,-1.01741 -91.81177,-1.4017c-2.33618,0.97302 -4.67235,1.94721 -7.00853,2.92022c-34.34239,-0.51162 -68.68419,-1.09567 -103.02541,-1.75213c-0.97571,-0.01985 -1.9492,-0.07826 -2.92022,-0.17521c-0.11553,-0.1133 -0.19343,-0.2488 -0.23362,-0.40883c0.8708,-6.14406 1.73779,-12.28734 2.60097,-18.43048c0.37515,-0.84471 0.58358,-1.77986 0.58358,-2.76369c0.1908,-0.57217 0.18863,-1.16554 0.0435,-1.75215c1.08364,-7.54987 2.11014,-15.08587 3.07961,-22.60914c-4.17709,-0.45906 -8.34319,-0.9847 -12.49855,-1.57692c-0.12674,-0.14952 -0.20462,-0.32473 -0.23362,-0.52564c0.12374,-0.90644 0.27948,-1.80119 0.46723,-2.6866c20.32475,-12.57681 40.64949,-25.1528 60.97423,-37.72927c0.1557,-0.07791 0.31153,-0.07791 0.46723,0c15.26306,8.02091 30.52601,16.04137 45.78908,24.06263c3.63042,2.2147 7.27136,4.41421 10.92162,6.5997c0.28034,-7.0097 0.51395,-14.01824 0.70085,-21.0256c-4.24367,-3.69898 -8.4885,-7.39785 -12.73216,-11.09684c-0.00561,-0.77747 0.0139,-1.55613 0.0584,-2.33618c32.12361,-1.34015 64.24605,-2.70284 96.36732,-4.08831c0.70786,-2.18059 1.42741,-4.36105 2.16096,-6.54129c13.74139,-12.92304 27.44658,-25.88881 41.11672,-38.89735c0.07826,0.1557 0.15535,0.1557 0.23362,0c17.04124,11.55146 34.1152,23.05713 51.22069,34.51701c0.25581,0.85212 0.43102,1.72818 0.52564,2.6282c0.09578,0.35674 0.07593,0.70716 -0.05841,1.05128c-3.62107,2.35569 -7.24215,4.71125 -10.86322,7.06694c-0.17288,0.15173 -0.25114,0.34645 -0.23362,0.58404c3.52412,24.43291 7.04708,48.86465 10.5712,73.29756c0.04438,0.00218 0.08875,0.00435 0.13314,0.00651c0.03412,0.23368 0.0801,0.46351 0.1373,0.68887c-0.07068,0.00181 -0.14136,0.00363 -0.21204,0.00548z" fill="#000000" fill-rule="evenodd" stroke="none" stroke-width="1" stroke-linecap="butt"/><path d="M518.76214,113.46081c-0.08528,-0.81486 -0.12382,-1.63252 -0.11681,-2.45299c0.7102,-0.76906 1.45077,-1.52832 2.21937,-2.27777c12.90972,-12.2279 25.83579,-24.43443 38.78054,-36.61958c16.93729,11.38887 33.87457,22.77773 50.81186,34.1666c0.19974,0.09076 0.31655,0.24647 0.35042,0.46724c0.20558,0.83495 0.28384,1.67212 0.23362,2.51139c-17.01789,-11.70133 -34.07198,-23.3432 -51.16228,-34.92585c-0.1682,0.02558 -0.32356,0.08398 -0.46724,0.17521c-13.53464,13.009 -27.08447,25.9943 -40.64949,38.95576z" fill="#e4e4e4" fill-rule="evenodd" stroke="none" stroke-width="1" stroke-linecap="butt"/><path d="M558.12673,77.36686c0.46723,-0.77876 0.93447,-1.55741 1.4017,-2.33618c0.11214,-0.17078 0.24764,-0.32648 0.40883,-0.46724c17.07395,11.7004 34.14674,23.40068 51.22069,35.10106c-3.63042,2.40907 -7.27136,4.80366 -10.92162,7.18374c-0.58288,-3.92104 -1.18561,-7.83414 -1.81053,-11.73929c-13.43652,-9.24857 -26.86955,-18.49586 -40.29907,-27.7421z" fill="#c6c7c6" fill-rule="evenodd" stroke="none" stroke-width="1" stroke-linecap="butt"/><path d="M559.52843,75.03069c-0.46723,0.77876 -0.93447,1.55741 -1.4017,2.33618c-0.12265,-0.01741 -0.23946,0.00199 -0.35043,0.05841c-11.89465,11.42776 -23.79046,22.85564 -35.68511,34.28341c-1.05128,2.64771 -2.10256,5.2953 -3.15384,7.943c-1.01623,1.0549 -2.06751,2.06717 -3.15384,3.03704c0.9847,-2.91473 1.99743,-5.83495 3.03703,-8.76066c13.49142,-12.94628 26.98284,-25.89267 40.47427,-38.83895c0.06891,-0.0542 0.14718,-0.07371 0.23362,-0.05841z" fill="#cacaca" fill-rule="evenodd" stroke="none" stroke-width="1" stroke-linecap="butt"/><path d="M558.00992,77.60048c13.33022,9.14368 26.64644,18.31318 39.94863,27.50849c0.14017,0.10548 0.23712,0.24168 0.29202,0.40883c5.45848,37.72693 10.89009,75.45619 16.29484,113.18779c-27.48863,-0.46957 -54.97843,-0.95549 -82.46706,-1.4601c-1.10151,0.01519 -2.17147,-0.08293 -3.21224,-0.29203c-2.18082,-35.04383 -4.32193,-70.08649 -6.42448,-105.12798c11.87946,-11.39284 23.73556,-22.80109 35.5683,-34.225z" fill="#858585" fill-rule="evenodd" stroke="none" stroke-width="1" stroke-linecap="butt"/><path d="M518.64533,111.00782c-0.00702,0.82047 0.03154,1.63812 0.11681,2.45299c-0.73706,1.76101 -1.41805,3.55216 -2.04415,5.37321c-0.0257,-0.59023 -0.08411,-1.17428 -0.17521,-1.75213c0.681,-2.04486 1.38185,-4.06951 2.10256,-6.07407z" fill="#cecfce" fill-rule="evenodd" stroke="none" stroke-width="1" stroke-linecap="butt"/><path d="M522.03279,112.64315c2.23105,34.59411 4.41186,69.18823 6.54129,103.78469c-0.03855,0.13667 -0.07826,0.27217 -0.11681,0.40883c-1.20664,-1.01274 -2.41444,-2.0243 -3.62107,-3.03704c-0.08761,-0.1028 -0.14601,-0.2196 -0.17521,-0.35043c-0.94031,-15.68158 -1.81638,-31.35384 -2.6282,-47.01557c0.48709,-0.33057 0.97302,-0.66231 1.46011,-0.99288c0.00467,-0.89943 -0.05374,-1.79535 -0.17521,-2.6866c-0.53966,-0.11565 -1.08516,-0.15535 -1.63532,-0.11681c-0.76978,-14.15606 -1.58743,-28.30945 -2.45299,-42.46003c0.89943,-2.52389 1.8339,-5.03527 2.80342,-7.53417z" fill="#c0c1bc" fill-rule="evenodd" stroke="none" stroke-width="1" stroke-linecap="butt"/><path d="M513.85617,117.54912c0.81766,0 1.63532,0 2.45299,0c0.1063,0.68929 0.1063,1.37075 0,2.04416c-32.08389,1.31211 -64.16661,2.61651 -96.2505,3.91309c0,-0.66195 0,-1.3238 0,-1.98575c31.28726,-1.25651 62.55232,-2.58042 93.79752,-3.9715z" fill="#e4e5e4" fill-rule="evenodd" stroke="none" stroke-width="1" stroke-linecap="butt"/><path d="M514.79064,119.8853c0.51162,-0.03808 1.01857,0.00093 1.51852,0.11681c-0.37028,1.05128 -0.7394,2.10256 -1.10969,3.15384c-0.20208,0.08749 -0.41701,0.14589 -0.64245,0.17521c-27.21647,1.04824 -54.43293,2.09953 -81.6494,3.15385c-0.15185,2.62189 -0.30721,5.25009 -0.46724,7.8846c-4.03224,-3.5455 -8.082,-7.06927 -12.14811,-10.5712c31.51971,-1.2724 63.01838,-2.5768 94.49838,-3.91309z" fill="#c5c6c5" fill-rule="evenodd" stroke="none" stroke-width="1" stroke-linecap="butt"/><path d="M518.87895,120.11891c0.89826,14.15303 1.75564,28.32615 2.5698,42.51843c-26.82749,0.37845 -53.65499,0.74757 -80.48131,1.10969c-2.94008,-1.77199 -5.87899,-3.54282 -8.81907,-5.3148c0.23011,-10.55601 0.56185,-21.10725 0.99288,-31.6552c27.41037,-1.07371 54.82191,-2.1445 82.23345,-3.21224c1.22766,-1.09088 2.39574,-2.23946 3.50426,-3.44586z" fill="#b6b6b1" fill-rule="evenodd" stroke="none" stroke-width="1" stroke-linecap="butt"/><path d="M374.85361,125.25851c19.64012,11.90329 39.26401,23.83719 58.87167,35.80192c2.0243,0.89592 4.04977,1.79068 6.07407,2.6866c-0.1904,0.05724 -0.38547,0.07709 -0.58404,0.05841c0,0.77911 0,1.55707 0,2.33618c-1.97524,-0.6775 -3.92128,-1.43675 -5.84045,-2.27777c-19.21518,-11.8853 -38.41073,-23.7998 -57.58678,-35.74351c-0.35417,-0.25779 -0.7436,-0.43301 -1.16808,-0.52564c-20.38034,12.55228 -40.70509,25.20618 -60.97423,37.96288c-0.03893,-0.11681 -0.07787,-0.23361 -0.11681,-0.35042c0.10999,-0.62142 0.20734,-1.24402 0.29203,-1.86895c0.05992,-0.23595 0.19621,-0.41116 0.40883,-0.52564c20.25454,-12.46234 40.46247,-24.98039 60.6238,-37.55405z" fill="#e4e4e4" fill-rule="evenodd" stroke="none" stroke-width="1" stroke-linecap="butt"/><path d="M374.50319,127.8283c1.31153,0.61733 2.55741,1.35708 3.73788,2.21937c-17.10806,10.75459 -34.24007,21.48116 -51.3959,32.18085c-0.32099,1.68204 -0.59362,3.37578 -0.81766,5.08119c-4.09111,-0.4579 -8.17942,-0.94498 -12.26493,-1.46011c20.27405,-12.6469 40.52088,-25.32066 60.74062,-38.02128z" fill="#c8c9c8" fill-rule="evenodd" stroke="none" stroke-width="1" stroke-linecap="butt"/><path d="M380.69406,128.52915c0.007,-0.06342 0.04591,-0.10233 0.11681,-0.11681c13.58873,7.14486 27.17758,14.28923 40.7663,21.43443c3.34891,2.0243 6.69665,4.04977 10.04556,6.07407c0.16237,0.11213 0.24063,0.26749 0.23362,0.46723c-0.12265,0.67866 -0.1425,1.35966 -0.05841,2.04416c2.52074,1.62131 5.07184,3.19822 7.65098,4.73076c-0.11681,0.07826 -0.23361,0.07826 -0.35042,0c-1.73812,-0.81065 -3.49025,-1.58977 -5.2564,-2.33618c-17.70262,-10.79197 -35.41867,-21.55813 -53.14803,-32.29765z" fill="#3d3e3d" fill-rule="evenodd" stroke="none" stroke-width="1" stroke-linecap="butt"/><path d="M378.47469,130.28129c0.53124,0.18772 1.03738,0.44083 1.51852,0.75926c15.77889,9.80728 31.56748,19.59936 47.366,29.37743c-0.63428,18.30044 -1.31527,36.60089 -2.04415,54.90017c-35.1201,-0.64829 -70.24056,-1.27088 -105.3616,-1.86893c2.30978,-16.98635 4.68497,-33.96218 7.12534,-50.92866c17.13948,-10.74875 34.27149,-21.49517 51.3959,-32.23925z" fill="#858585" fill-rule="evenodd" stroke="none" stroke-width="1" stroke-linecap="butt"/><path d="M427.65122,160.65159c2.12242,1.3141 4.26469,2.599 6.42449,3.85469c0.03855,0.44738 0.07826,0.89592 0.11681,1.34331c-0.50812,15.47601 -0.97535,30.95319 -1.4017,46.43153c-2.37355,0.92396 -4.72959,1.89698 -7.06694,2.92022c0.61792,-18.18247 1.26036,-36.36611 1.92735,-54.54975z" fill="#dddedd" fill-rule="evenodd" stroke="none" stroke-width="1" stroke-linecap="butt"/><path d="M518.52852,162.87096c1.51852,0 3.03704,0 4.55555,0c0.06425,0.77678 0.10396,1.5559 0.11681,2.33618c-27.91732,0.34575 -55.83464,0.69618 -83.75196,1.05128c0.00702,-0.74174 0.04556,-1.48114 0.11681,-2.21937c26.34156,-0.31656 52.66211,-0.70552 78.96279,-1.16809z" fill="#e4e5e4" fill-rule="evenodd" stroke="none" stroke-width="1" stroke-linecap="butt"/><path d="M434.54295,164.7399c2.42379,0.88074 4.83705,1.79535 7.24214,2.745c26.63242,-0.2196 53.26484,-0.51162 79.89727,-0.87606c0.88191,15.6921 1.77783,31.38304 2.6866,47.07397c-30.44857,-0.4941 -60.89714,-0.99988 -91.34454,-1.51852c0.49644,-15.80891 1.00339,-31.61665 1.51852,-47.4244z" fill="#b6b5b1" fill-rule="evenodd" stroke="none" stroke-width="1" stroke-linecap="butt"/><path d="M520.16385,165.44075c0.89593,-0.01985 1.79185,0 2.6866,0.05841c-0.38897,0.27217 -0.77912,0.54549 -1.16809,0.81766c-26.59387,0.36093 -53.18658,0.67165 -79.78046,0.93447c-0.56769,-0.18923 -1.11319,-0.42285 -1.63532,-0.70085c26.65228,-0.3329 53.2847,-0.70319 79.89727,-1.10969z" fill="#c5c6c5" fill-rule="evenodd" stroke="none" stroke-width="1" stroke-linecap="butt"/><path d="M328.24025,213.7737l8.6334,-44.75735l77.92777,-0.90878l-2.95353,47.0293z" fill="#e5e5e5" fill-rule="nonzero" stroke="#000000" stroke-width="0.5" stroke-linecap="round"/><path d="M489.94605,213.26251l1.81756,-42.4854l21.12911,-0.45439l0.45439,43.62138z" fill="#e5e5e5" fill-rule="nonzero" stroke="#000000" stroke-width="0.5" stroke-linecap="round"/><path d="M606.21293,200.31242l-67.93121,2.04475l-3.46471,-42.03102l62.93292,-0.90878z" fill="#f3f3f3" fill-rule="nonzero" stroke="#000000" stroke-width="0.5" stroke-linecap="round"/><path d="M588.26454,159.19018l7.95181,41.80382l-47.25649,1.36317l-4.3167,-41.80382z" fill="#000000" fill-rule="nonzero" stroke="#000000" stroke-width="0.5" stroke-linecap="round"/><path d="M533.11304,142.66178l-2.04475,-33.85201l59.29781,-2.72633l5.73666,34.93118z" fill="#f3f3f3" fill-rule="nonzero" stroke="#000000" stroke-width="0.5" stroke-linecap="round"/><path d="M543.1096,142.66176l-3.40792,-34.0792l40.66785,-2.27195l5.22548,34.98798z" fill="#000000" fill-rule="nonzero" stroke="#000000" stroke-width="0.5" stroke-linecap="round"/><path d="M472.28167,156.23665l-33.62481,0.2272l1.13598,-23.62824l34.30639,-1.13598z" fill="#f3f3f3" fill-rule="nonzero" stroke="#000000" stroke-width="0.5" stroke-linecap="round"/><path d="M466.829,131.69963l-1.36317,24.30983l-19.99313,0.22719l2.27195,-23.62824z" fill="#000000" fill-rule="nonzero" stroke="#000000" stroke-width="0.5" stroke-linecap="round"/><path d="M482.50543,201.84598l-44.98454,-0.90878l2.27195,-29.08092h45.66613z" fill="#f3f3f3" fill-rule="nonzero" stroke="#000000" stroke-width="0.5" stroke-linecap="round"/><path d="M443.42794,200.9372l3.63511,-29.08092l28.39934,-0.22719l2.04475,0.68158l-3.63511,29.5353z" fill="#000000" fill-rule="nonzero" stroke="#000000" stroke-width="0.5" stroke-linecap="round"/><path d="M389.49106,158.33383l-25.86524,0.17476l0.87382,-18.17558l26.38953,-0.87382z" fill="#f3f3f3" fill-rule="nonzero" stroke="#000000" stroke-width="0.5" stroke-linecap="round"/><path d="M385.29669,139.45919l-1.04859,18.69987l-15.37933,0.17476l1.74765,-18.17558z" fill="#000000" fill-rule="nonzero" stroke="#000000" stroke-width="0.5" stroke-linecap="round"/><path d="M514.77588,146.36374c-0.44861,0.39529 -0.88827,0.01209 -0.88827,0.01209l-0.72598,-0.91522c0.68905,-0.62913 1.59053,-1.41146 2.02381,-2.26111c-0.01934,-0.12738 -0.12126,-0.79847 -0.14061,-0.92585c-0.00172,-0.01127 -0.00302,-0.02251 -0.00394,-0.03373c-0.4416,0.38793 -0.83597,0.95836 -1.21501,1.56064c-0.93079,0.85863 -1.95651,1.63573 -2.99927,2.33116c-0.69428,0.46304 -1.10666,1.29017 -1.76834,1.75747c-0.35188,0.24849 -0.92635,0.11087 -1.2888,0.34722c-1.06388,0.69376 -2.24437,1.8829 -3.64491,2.20884c-1.56554,0.36433 -3.30295,0.46197 -4.90123,0.6835c-3.28054,0.45471 -6.31791,-0.48363 -8.96718,-1.93951c-0.497,-0.27311 -1.139,-0.38218 -1.52859,-0.76576c-0.95835,-0.94357 -2.77461,-2.94709 -4.18201,-3.37195c0.06255,0.45899 0.06796,0.9318 0.12292,1.29369c0.39518,2.60212 0.86303,4.94199 2.57007,7.11705c1.17869,0.95794 2.79082,2.67426 4.35695,3.08793c5.09318,1.34529 9.86416,0.87423 15.1717,0.20994c2.03229,-1.31881 3.95782,-1.85996 5.52208,-3.69476c0.71205,-0.8352 0.78153,-1.50612 1.056,-2.45232c0.35561,-1.22593 1.03251,-2.45132 1.41268,-3.692c0.16795,-0.54808 0.28295,-1.10237 0.39565,-1.65539c-0.2395,0.17041 -0.49034,0.27132 -0.74198,0.27682l0.3732,0.04279c0,0 0.43968,0.38321 -0.00893,0.77849zM516.26685,140.41758c0.58122,0.37814 0.65363,1.29796 0.42299,2.2557l0.12362,0.19999l-0.03874,0.019c0.03935,0.05561 0.07562,0.11303 0.10828,0.17262c0.27249,0.49725 -0.50927,2.48579 -0.64737,3.01353c-0.87899,3.35906 -1.86258,7.36064 -5.00641,9.68792c-1.14402,0.84688 -2.77033,1.27546 -4.01517,2.01253c-5.47192,0.81708 -10.80147,1.34421 -16.04155,-0.18272c-1.83253,-0.53398 -3.51798,-2.27229 -4.89393,-3.40234c-2.10687,-2.67148 -2.53477,-5.56451 -3.02057,-8.76339c-0.08691,-0.57229 -1.44342,-2.22857 -0.7279,-2.59208c1.641,-0.83369 1.87026,0.65036 2.51697,1.2239c1.59087,0.52322 3.62566,2.50306 4.67042,3.66136c0.44057,0.48845 0.62599,0.20151 1.20987,0.5202c2.42209,1.32198 5.11969,2.21491 8.13085,1.79754c1.56398,-0.21678 3.20698,-0.33828 4.75032,-0.65427c1.28838,-0.26378 2.328,-1.49383 3.33182,-2.08924c0.33335,-0.19773 0.86581,-0.02919 1.16064,-0.26986c1.52458,-1.24451 3.14281,-2.54416 4.51572,-3.86025c0.52999,-0.83565 1.18161,-2.05236 2.15135,-2.47684c0.40012,-0.17516 0.94765,-0.50177 1.29881,-0.27331z" data-paper-data="{&quot;index&quot;:null}" fill="#000000" fill-rule="nonzero" stroke="none" stroke-width="0.5" stroke-linecap="butt"/><path d="M514.03123,146.38686c0,0 0.37944,0.40018 0.82805,0.00491c0.44859,-0.39528 0.00947,-0.777 0.00947,-0.777l-0.37306,-0.04248c0.25162,-0.0055 0.5615,-0.12659 0.801,-0.29699c-0.11268,0.55302 -0.22666,1.11027 -0.39461,1.65835c-0.38017,1.24068 -1.05625,2.47424 -1.41186,3.70018c-0.27446,0.9462 -0.34529,1.62355 -1.05734,2.45874c-1.56426,1.83479 -3.50037,2.38967 -5.53266,3.70849c-5.30754,0.66429 -10.12288,1.13146 -15.21605,-0.21383c-1.56612,-0.41368 -3.18379,-2.13991 -4.36248,-3.09785c-1.70704,-2.17505 -2.17452,-4.5295 -2.56969,-7.13162c-0.05496,-0.36189 -0.001,-0.81819 -0.06356,-1.27718c1.40741,0.42485 3.22522,2.42363 4.18357,3.36719c0.38959,0.38359 1.03189,0.4911 1.52888,0.76422c2.64926,1.45589 5.68164,2.37534 8.96216,1.92064c1.59828,-0.22153 3.27836,-0.30556 4.8439,-0.66989c1.40054,-0.32593 2.58212,-1.50436 3.64601,-2.19814c0.36244,-0.23637 0.9369,-0.09878 1.28877,-0.34728c0.66169,-0.46731 1.07541,-1.2912 1.76969,-1.75422c1.04275,-0.69544 2.06957,-1.4706 3.00036,-2.32923c0.37904,-0.60227 0.77431,-1.17133 1.21592,-1.55927c0.00092,0.01122 0.05587,-0.00736 0.05758,0.00391c0.01934,0.12738 0.1222,0.79989 0.14154,0.92727c-0.43327,0.84966 -1.33348,1.63436 -2.02253,2.26349l0.72695,0.91757z" data-paper-data="{&quot;noHover&quot;:false,&quot;origItem&quot;:[&quot;Path&quot;,{&quot;applyMatrix&quot;:true,&quot;segments&quot;:[[[335.05452,196.05278],[-0.8,-0.6],[0.8,0.6]],[335.25452,197.45278],[[334.67777,197.62303],[0,0],[0.39709,-0.05292]],[[335.91092,197.9364],[-0.4174,-0.24717],[-0.30935,-0.96798]],[[334.89322,195.05344],[0.39507,0.9453],[-0.8943,-2.13983]],[[331.78941,188.756],[0.85214,2.11941],[-0.6577,-1.6358]],[[329.54272,184.60246],[1.31945,1.32661],[-2.89861,-2.91434]],[[319.97477,179.32603],[3.51152,1.86809],[-8.50665,0.12855]],[[296.1621,183.49195],[7.68946,-3.69474],[-2.36447,1.13611]],[[290.04685,190.14173],[1.62509,-2.01973],[-2.16539,4.34394]],[[287.70452,203.60278],[0,-4.78566],[0,0.66556]],[[287.82019,205.96369],[-0.01125,-0.84235],[2.11215,-1.11663]],[[293.59245,198.84598],[-1.28196,1.93885],[0.52114,-0.78817]],[[295.81377,197.08503],[-0.71646,0.61603],[3.81915,-3.28379]],[[309.45452,191.35278],[-5.26839,0],[2.56678,0]],[[317.3267,191.36027],[-2.54939,-0.2654],[2.28068,0.23742]],[[323.5872,194.4289],[-1.83903,-0.98403],[0.62653,0.33525]],[[325.69722,194.73258],[-0.61279,-0.35975],[1.15235,0.67651]],[[328.89834,197.45666],[-1.2026,-0.66068],[1.80621,0.99229]],[[334.17258,200.9068],[-1.66909,-1.31419],[0.74004,0.99021]],[[336.45639,203.41452],[-0.78723,-0.5885],[-0.00124,-0.02042]],[[336.45452,203.35278],[0,0.02073],[0,-0.23425]],[[336.45452,201.65002],[0,0.23425],[-0.88443,-1.42225]],[[332.73127,198.08253],[1.23405,0.96116],[0,0]],[333.65452,196.25278]],&quot;closed&quot;:true}],&quot;index&quot;:null}" fill="#ff9090" fill-rule="nonzero" stroke="none" stroke-width="0.5" stroke-linecap="butt"/><path d="M517.17761,140.76815l-0.2287,0.17804c-0.33965,1.53983 -1.17385,1.71256 -2.69358,2.38638l-0.18935,-0.07713l-0.0118,0.07775l-0.62268,-0.08631c-0.05275,-0.00731 -0.10311,-0.02014 -0.15039,-0.03771c-0.54946,0.07294 -1.48142,-0.18847 -2.029,-0.26437c-3.97686,-0.55122 -7.73592,-2.73355 -9.10132,-6.17019c-0.62893,-1.63492 -2.13041,-5.52742 -0.17339,-6.88907c0.75117,-0.52265 2.10614,-0.87169 2.95836,-1.37583l0.86725,0.07795c0,0 0.46302,0.06418 0.53757,0.43051c1.06842,-0.19237 2.15301,-0.46242 3.16239,-0.46001c3.06551,0.00734 7.202,1.99176 8.26305,4.66747c0.21071,0.53135 0.16719,1.12265 0.40789,1.6447c-0.2264,1.71462 0.00353,3.71449 -0.85464,5.30293c0.17095,0.32243 -0.14167,0.5949 -0.14167,0.5949zM515.61481,140.59804l0.0469,-0.04373l0.18492,-0.36622c1.15573,-1.45516 0.80163,-3.51155 1.08156,-5.20338c-0.2197,-0.47715 -0.19087,-1.01478 -0.37593,-1.50241c-0.83276,-2.1942 -4.60913,-3.80795 -7.05388,-3.82354c-1.84172,-0.01173 -3.71055,0.71968 -5.54561,0.6011c-0.40561,0.15627 -0.81284,0.29821 -1.21155,0.5167c-0.33118,0.18147 -0.27746,0.95998 -0.3183,1.22884c-0.20906,1.37663 0.39059,3.1109 0.91561,4.43727c1.16089,3.04687 4.5951,4.9318 8.07874,5.41466c0.39853,0.05523 1.28527,0.33532 1.66689,0.25954c0.56637,-0.11247 1.01876,-0.47914 1.54308,-0.69293c0,0 0.20598,-0.08394 0.43004,-0.03991c0.14443,-0.11838 0.2694,-0.23706 0.3642,-0.35397l0.1887,-0.37372c0.00287,-0.01957 0.00442,-0.039 0.00462,-0.0583z" data-paper-data="{&quot;index&quot;:null}" fill="#000000" fill-rule="nonzero" stroke="none" stroke-width="0.5" stroke-linecap="butt"/><path d="M515.6335,140.67532l-0.18984,0.37474c-0.0948,0.11691 -0.22125,0.23677 -0.36567,0.35514c-0.22407,-0.04404 -0.4311,0.04066 -0.4311,0.04066c-0.52431,0.21379 -0.98234,0.58348 -1.54869,0.69595c-0.38163,0.07579 -1.27389,-0.20255 -1.67242,-0.25779c-3.48364,-0.48286 -6.95727,-2.39033 -8.11816,-5.4372c-0.52502,-1.32638 -1.12111,-3.07892 -0.91204,-4.45555c0.04083,-0.26887 -0.01003,-1.051 0.32114,-1.23248c0.39871,-0.21848 0.80924,-0.36344 1.21484,-0.5197c1.83506,0.11858 3.7254,-0.61957 5.56712,-0.60783c2.44475,0.01559 6.25027,1.64796 7.08303,3.84216c0.18507,0.48763 0.15795,1.03146 0.37764,1.50862c-0.27993,1.69183 0.0677,3.76845 -1.08804,5.2236l-0.18601,0.36735l-0.04708,0.04388c-0.00018,0.0193 -0.00188,0.03886 -0.00474,0.05843z" data-paper-data="{&quot;noHover&quot;:false,&quot;origItem&quot;:[&quot;Path&quot;,{&quot;applyMatrix&quot;:true,&quot;segments&quot;:[[[335.50583,170.03655],[0.00432,0.03481],[0,0]],[335.56916,169.94609],[[335.77254,169.24026],[0,0],[1.47021,-2.9096]],[[336.23079,159.59779],[-0.03618,3.11725],[-0.45952,-0.80461]],[[335.28064,156.98546],[0.40756,0.83214],[-1.83391,-3.74434]],[[323.27264,151.8595],[3.84895,-0.58229],[-2.89956,0.43866]],[[314.6938,154.32672],[2.91459,-0.24455],[-0.60064,0.38274]],[[312.91163,155.55989],[0.57493,-0.49309],[-0.47754,0.40956]],[[312.70452,157.85278],[0,-0.49449],[0,2.53181]],[[315.20452,165.61671],[-1.14259,-2.25803],[2.55369,5.19827]],[[329.20452,173.35278],[-5.59458,0],[0.64002,0]],[[331.88829,173.4041],[-0.58215,0.23178],[0.86394,-0.34398]],[[334.14982,171.77073],[-0.77361,0.51598],[0,0]],[[334.81669,171.59148],[-0.36294,-0.02337],[0.19888,-0.24928]],[[335.30497,170.86298],[-0.12119,0.23424],[0,0]],[[335.51251,170.14271],[0,0],[-0.00016,-0.03595]]],&quot;closed&quot;:true}],&quot;index&quot;:null}" fill="#ffffff" fill-rule="nonzero" stroke="none" stroke-width="0.5" stroke-linecap="butt"/><path d="M485.55706,131.48419c0.32771,-0.36473 0.6681,-0.71895 0.95957,-1.08934c0.09368,-0.11905 0.21026,-0.35417 0.3358,-0.62118c-0.34848,0.26471 -0.7036,0.48412 -0.85803,0.58795c-0.27505,0.18495 -0.38489,0.6433 -0.43736,1.12258zM484.41077,133.17947c-0.25754,-0.18806 -0.20905,-0.50736 -0.20905,-0.50736l0.02064,-0.13593c0.15115,-0.99534 0.49432,-2.13886 1.10013,-3.06442c-0.02846,-0.28456 0.25878,-0.47088 0.25878,-0.47088c0.06439,-0.04104 0.12987,-0.08198 0.19638,-0.12275c0.59639,-0.66058 1.37935,-1.11952 2.38753,-1.17632c2.1595,-0.82738 4.6886,-1.18266 6.77673,-0.14888c1.13834,0.56357 2.24817,2.2423 2.79015,3.21132c0.46056,0.82346 0.97871,1.67475 1.08722,2.58499c0.60783,1.01542 0.35067,2.34014 0.17284,3.45483c-0.7601,4.76418 -6.9793,6.95174 -11.59832,4.14676c-2.57636,-2.04296 -4.19043,-4.79741 -2.983,-7.77136zM488.60879,128.72254c0.01243,0.45276 -0.02618,0.91642 -0.21296,1.2366c-1.39021,2.38303 -4.89494,5.04036 -2.2748,8.04703c0.68017,0.78051 1.20943,1.43583 2.04065,2.09073c3.79788,2.38922 9.03229,0.41203 9.58504,-3.46547c0.13452,-0.94369 0.43803,-2.13729 -0.12293,-2.97072c-0.20421,-1.47454 -1.27281,-3.22443 -2.45133,-4.12029c-0.38846,-0.29529 -0.46584,-0.87687 -0.92141,-1.08365c-1.72074,-0.7811 -3.84302,-0.44019 -5.64226,0.26577z" data-paper-data="{&quot;index&quot;:null}" fill="#000000" fill-rule="nonzero" stroke="none" stroke-width="0.5" stroke-linecap="butt"/><path d="M494.2618,128.43116c0.45555,0.2068 0.53835,0.79075 0.92681,1.08603c1.17852,0.89587 2.26179,2.66441 2.466,4.13893c0.56095,0.83343 0.25611,2.04177 0.12158,2.98547c-0.55275,3.87748 -5.83176,5.86831 -9.62965,3.47909c-0.83122,-0.6549 -1.37068,-1.31829 -2.05084,-2.09879c-2.62012,-3.00669 0.89296,-5.70329 2.28319,-8.08632c0.18679,-0.32018 0.22898,-0.78548 0.21655,-1.23824c1.79923,-0.70596 3.94561,-1.04727 5.66637,-0.26617z" data-paper-data="{&quot;noHover&quot;:false,&quot;origItem&quot;:[&quot;Path&quot;,{&quot;applyMatrix&quot;:true,&quot;segments&quot;:[[[290.19278,155.38846],[2.6613,-1.72077],[0.1277,0.81243]],[[290.1532,157.66901],[0.21731,-0.62334],[-1.61739,4.63945]],[[288.49741,172.73146],[-4.83926,-4.76156],[1.25623,1.23606]],[[292.20645,175.98787],[-1.46381,-0.9721],[6.5442,3.35534]],[[306.45452,167.35278],[0.05679,7.12221],[-0.01382,-1.7334]],[[305.55158,162.03255],[1.08137,1.36114],[-0.67341,-2.60498]],[[300.71182,155.22298],[2.06763,1.31943],[-0.68152,-0.4349]],[[299.00373,153.50111],[0.76593,0.25874],[-2.89306,-0.97732]]],&quot;closed&quot;:true}],&quot;index&quot;:null}" fill="#ffffff" fill-rule="nonzero" stroke="none" stroke-width="0.5" stroke-linecap="butt"/><path d="M490.96864,134.16521c0.10261,-0.67566 0.81305,-1.13646 1.58683,-1.02921c0.77377,0.10725 1.31785,0.74192 1.21524,1.41759c-0.10261,0.67566 -0.81305,1.13646 -1.58683,1.02921c-0.77377,-0.10725 -1.31785,-0.74192 -1.21524,-1.41759z" data-paper-data="{&quot;index&quot;:null}" fill="#000000" fill-rule="nonzero" stroke="none" stroke-width="0.5" stroke-linecap="butt"/><path d="M508.0081,135.00025c0.10261,-0.67566 0.81305,-1.13646 1.58683,-1.02921c0.77377,0.10725 1.31785,0.74192 1.21524,1.41759c-0.10261,0.67566 -0.81305,1.13646 -1.58683,1.02921c-0.77377,-0.10725 -1.31785,-0.74192 -1.21524,-1.41759z" data-paper-data="{&quot;index&quot;:null}" fill="#000000" fill-rule="nonzero" stroke="none" stroke-width="0.5" stroke-linecap="butt"/><path d="M537.44431,110.67264c0.2767,0.50029 -0.2872,0.73009 -0.2872,0.73009l-0.58038,0.23177c-2.14997,0.57257 -4.17432,1.8895 -6.23749,2.71592c-1.73718,0.69582 -3.58986,1.43063 -5.20761,2.28926c-1.79164,0.95092 -3.4543,2.29717 -5.53229,2.85109c-2.26178,1.81496 -5.55183,3.28999 -8.32359,4.41378c-2.67397,1.08415 -4.94859,2.88723 -7.79863,3.68372c0,0 -0.59387,0.16597 -0.79849,-0.35897c-0.20462,-0.52492 0.38926,-0.6909 0.38926,-0.6909c2.78056,-0.77708 5.00802,-2.54638 7.61546,-3.61781c2.80335,-1.15194 5.93429,-2.59092 8.27224,-4.3895c2.07138,-0.60215 3.69873,-1.87941 5.50408,-2.83653c3.50899,-1.8603 7.8013,-3.97938 11.70784,-5.10995l0.43621,-0.18248c0,0 0.5639,-0.2298 0.8406,0.27049z" data-paper-data="{&quot;index&quot;:null}" fill="#000000" fill-rule="nonzero" stroke="none" stroke-width="0.5" stroke-linecap="butt"/><path d="M475.61991,109.85843c0.59387,-0.16597 0.79849,0.35897 0.79849,0.35897l0.13358,0.42941c1.85445,1.01063 3.47171,2.58751 5.10793,3.85828c5.71258,4.43666 11.42516,8.87334 17.13775,13.31001c0,0 0.47604,0.36973 0.06626,0.77764c-0.4098,0.40792 -0.88584,0.0382 -0.88584,0.0382c-5.71258,-4.43666 -11.42516,-8.87334 -17.13775,-13.31001c-1.74092,-1.35209 -3.43141,-2.7972 -5.28574,-4.02723l-0.32394,-0.74437c0,0 -0.20462,-0.52492 0.38926,-0.6909z" data-paper-data="{&quot;index&quot;:null}" fill="#000000" fill-rule="nonzero" stroke="none" stroke-width="0.5" stroke-linecap="butt"/><path d="M16.15429,345.97974l23.53816,-22.81861l65.76844,-0.20374l-13.84598,23.02236z" data-paper-data="{&quot;index&quot;:null}" fill="#cedce9" fill-rule="nonzero" stroke="#000000" stroke-width="1" stroke-linecap="round"/><path d="M9.89847,344.78325c-2.27152,-0.32205 -7.67736,-0.82407 -5.30829,-1.34303c-1.29523,0.16631 -3.02326,0.36936 -3.94273,0.42397c-4.35581,0.25877 -10.00083,0 -14.49557,0c-12.33102,0 -24.30255,-0.13735 -36.23884,0.51377c-5.39435,0.29426 -6.87724,-0.61444 -8.53369,0.65702c-3.41677,2.13336 -9.84524,4.03705 -13.97477,6.18471c-5.59686,2.91073 -7.76731,5.72079 -11.19839,8.63939c-3.88262,2.40354 -0.71998,7.01829 -0.71998,9.69353c0,0.71611 1.08916,1.99082 0.04892,2.51793c1.03409,0.02662 2.03288,0.05092 2.66901,0.05092c4.22789,0 8.45572,0 12.68363,0c16.81783,0 36.35796,-0.10428 52.68152,-1.26139c19.38139,-1.2344 40.38712,0.53575 59.92444,-0.57219c10.69911,-0.55567 22.36179,-0.22536 33.25529,-0.22145c5.52628,0.00198 10.25867,-0.59317 12.68359,0.51377c0.63737,0.29097 0,-0.68502 0,-1.02752c0,-0.85626 0,-1.71257 0,-2.56884c0,-4.79517 0,-9.59034 0,-14.38551c0,-1.13361 -1.04799,-5.18926 1.12007,-5.62811c-0.40668,-0.00689 -0.86697,-0.01809 -1.12007,-0.02333c-2.2421,-0.04638 -3.49477,-0.01135 -5.24455,-0.36535c-3.03772,-0.61457 -13.28606,-0.14841 -17.40473,-0.14841c-16.00551,0 -32.01095,0 -48.01646,0c0,0 -3.62387,0 -3.62387,-1.02752c0,-0.04219 0.00607,-0.08263 0.0178,-0.12139c-1.73242,-0.10412 -3.48234,-0.24851 -5.26233,-0.50087zM66.78338,344.37803c9.66174,0 22.01022,-0.48782 28.60838,1.59554c3.78099,1.19383 1.28859,5.02157 1.28859,6.62477c0,4.79516 0,9.59032 0,14.38549c0,0.54756 1.24819,3.26382 0,3.59638c-12.60738,3.35889 -36.37019,0.73964 -51.76522,1.72287c-19.10432,1.08339 -41.10528,-0.9811 -59.58803,0.55074c-16.82407,1.1926 -37.09257,1.32277 -54.43938,1.32277c-2.48821,0 -17.41015,0.53432 -19.02537,0c-4.63187,-1.53225 -3.62387,-2.81042 -3.62387,-4.62392c0,-3.28023 -2.05075,-7.19028 1.09193,-10.34342c3.51666,-2.99138 5.98284,-5.9916 11.59169,-8.90858c2.26254,-1.17666 4.70641,-2.75059 7.63033,-3.81334c1.91325,-0.69539 5.57128,-1.26041 6.02832,-2.16439c3.1003,-2.37975 8.70299,-1.60002 15.33246,-1.99998c11.80125,-0.71199 24.01333,-0.51377 36.23882,-0.51377c4.50869,0 13.3181,-0.58834 16.49875,-0.40528c5.53679,0.31869 8.74666,1.65753 14.11297,2.05507c3.93773,0.29172 8.08737,0.11903 12.68363,0.77066c0.34894,0.04947 0.6978,0.09894 1.04676,0.14841c12.09641,0 24.19289,0 36.28934,0z" data-paper-data="{&quot;index&quot;:null}" fill="#000000" fill-rule="nonzero" stroke="none" stroke-width="1" stroke-linecap="butt"/><path d="M15.2112,345.23485c-0.01175,0.03877 -0.0174,0.07923 -0.0174,0.12141c0,1.02752 3.64167,1.02929 3.64167,1.02929c16.00545,0 32.09624,0.02043 48.1018,0.02043c4.11864,0 14.37632,-0.46138 17.41402,0.15318c1.74975,0.35401 3.00526,0.3207 5.2473,0.36707c0.25307,0.00523 0.71373,0.01669 1.12049,0.02359c-2.16806,0.43887 -1.10907,4.50435 -1.10907,5.63796c0,4.79518 -0.00754,9.61887 -0.00754,14.41404c0,0.85628 -0.0062,1.71674 -0.0062,2.573c0,0.34251 0.63464,1.32002 -0.00272,1.02908c-2.42492,-1.10694 -7.16162,-0.50958 -12.68786,-0.51157c-10.89353,-0.00391 -22.58919,-0.32249 -33.28827,0.2332c-19.53734,1.10795 -40.73507,-0.65224 -60.11649,0.58216c-16.32356,1.15712 -35.94302,1.24351 -52.76096,1.24351c-4.2279,0 -8.46313,-0.00323 -12.69101,-0.00323c-0.63617,0 -1.63632,-0.02495 -2.67038,-0.05158c1.04025,-0.52712 -0.05567,-1.80545 -0.05567,-2.52156c0,-2.67523 -3.17971,-7.30777 0.703,-9.71132c3.4311,-2.91862 5.60897,-5.74817 11.20583,-8.6589c4.12958,-2.14766 10.58517,-4.06667 14.00198,-6.20001c1.65644,-1.27146 3.15056,-0.36666 8.54491,-0.66092c11.93626,-0.65112 23.98553,-0.52817 36.31647,-0.52817c4.49467,0 10.19019,0.25618 14.54603,-0.00258c0.91938,-0.05464 2.6618,-0.25767 3.95703,-0.42396c-2.36913,0.51896 3.05817,1.0216 5.32972,1.34364c1.78006,0.25235 3.5511,0.39811 5.28346,0.50222z" data-paper-data="{&quot;noHover&quot;:false,&quot;origItem&quot;:[&quot;Path&quot;,{&quot;applyMatrix&quot;:true,&quot;segments&quot;:[[[579.60736,595.76373],[0.95609,-0.20262],[0.00646,0.07548]],[[579.61718,596],[0,-0.08208],[0,2]],[[577.61718,598],[0,0],[-8.83333,0]],[[551.11718,598],[8.83333,0],[-2.27308,0]],[[541.51161,598.28885],[1.67648,-1.19621],[-0.96568,0.68904]],[[538.61718,599],[1.23739,-0.09027],[-0.13966,0.01019]],[[537.99901,599.04541],[0.22447,-0.0134],[1.19653,0.85421]],[[538.61718,610],[0,-2.20646],[0,9.33333]],[[538.61718,638],[0,-9.33333],[0,1.66667]],[[538.61718,643],[0,-1.66667],[0,0.66667]],[[538.61718,645],[-0.35177,0.56631],[1.33831,-2.15456]],[[545.61718,644],[-3.04994,0.00386],[6.01206,-0.00761]],[[563.97058,644.43107],[-5.90478,-1.08158],[10.78253,2.15651]],[[597.04254,645.54479],[-10.6965,-2.40266],[9.00888,2.25222]],[[626.11718,648],[-9.28168,0],[2.33333,0]],[[633.11718,648],[-2.33333,0],[0.35109,0]],[[634.59021,647.90091],[-0.5707,0.05184],[-0.57412,-1.02596]],[[634.61718,643],[0,1.39387],[0,-5.20707]],[[634.21982,624.13246],[2.14282,4.67827],[-1.8936,-5.6808]],[[628.03948,607.31672],[3.08887,5.66543],[-2.2791,-4.1802]],[[620.32688,595.27881],[1.8857,4.15235],[-0.91417,-2.47477]],[[615.61718,594],[2.9771,0.57275],[-6.58756,-1.26734]],[[595.61718,593],[6.8054,0],[-2.48058,0]],[[587.61718,593],[2.40395,0.50364],[-0.50743,-0.10631]],[[585.44122,592.1748],[0.71481,0.32365],[1.30749,1.01011]],[[582.51161,594.78885],[1.25365,-0.62682],[-0.98239,0.4912]]],&quot;closed&quot;:true}],&quot;index&quot;:null}" fill="#484848" fill-rule="nonzero" stroke="none" stroke-width="1" stroke-linecap="butt"/><path d="M-35.59132,349.00196c0,0.34726 1.24929,0.76814 0.62661,1.04311c1.59266,0.04648 3.19474,0.14799 4.61788,0.34978c5.48716,0.77795 16.64956,3.61268 17.7021,5.48677c0.08558,0.15243 -1.46608,0.17789 -1.2033,0.31308c0.87437,0.4498 7.99999,-0.3319 8.81966,-0.20416c0.18548,0.0289 0.27659,0.07394 0.31308,0.12875c-0.03815,-0.17024 -0.07308,-0.33482 -0.07308,-0.43838c0,-0.36397 0.05072,-0.75622 -0.52335,-1.08177c-4.87969,-2.86944 -12.8523,-5.59721 -26.6557,-5.59721c0,0 -1.6289,-0.00001 -2.7026,-0.30966c-0.35805,-0.05767 -0.6365,-0.12552 -0.82316,-0.20505c-0.04796,0.19603 -0.09817,0.39556 -0.09817,0.51471zM-4.78831,356.70843c0.24732,0.21038 0.17437,-0.13881 0.09219,-0.50412c-0.01719,0.15854 -0.26125,0.36036 -0.09219,0.50412zM1.1708,353.6801c4.50609,2.55535 -5.72536,6.28892 -15.01887,4.56967c-8.76849,-1.62214 -11.73771,-4.8823 -19.74004,-6.01681c-2.70346,-0.38328 -5.94288,-0.59251 -7.96243,-1.23017c-3.20038,-1.01054 -1.78168,-4.4612 4.3385,-4.4612c4.40697,0 6.57757,0.40528 10.68038,0.40528h1.81193c0,0 2.08002,0 3.08837,0.44682c10.73455,0.99356 17.6229,3.51788 22.80217,6.2864z" data-paper-data="{&quot;index&quot;:null}" fill="#000000" fill-rule="nonzero" stroke="none" stroke-width="1" stroke-linecap="butt"/><path d="M-35.62763,348.45278c0.18658,0.07956 0.46515,0.14735 0.82323,0.20503c1.07369,0.30966 2.70999,0.30746 2.70999,0.30746c13.80339,0 22.0638,2.78811 26.94346,5.65756c0.57405,0.32555 0.50754,0.72493 0.50754,1.0889c0,0.10356 0.02822,0.27051 0.06639,0.44076c-0.03642,-0.05484 -0.12667,-0.10013 -0.31224,-0.12905c-0.81966,-0.12772 -8.00703,0.66749 -8.88141,0.21769c-0.2628,-0.13519 1.11677,-0.25089 1.03111,-0.40335c-1.05251,-1.87408 -12.26875,-4.69444 -17.75599,-5.47237c-1.4232,-0.20177 -3.03445,-0.29911 -4.62714,-0.3456c0.62267,-0.27499 -0.61176,-0.7022 -0.61176,-1.04945c0,-0.11915 0.05855,-0.32154 0.10666,-0.51757z" data-paper-data="{&quot;noHover&quot;:false,&quot;origItem&quot;:[&quot;Path&quot;,{&quot;applyMatrix&quot;:true,&quot;segments&quot;:[[[607.563,601.99816],[0.02649,0.38155],[-0.10299,0.15484]],[[607.10872,602.39727],[0.1976,-0.11227],[-0.59254,0.60273]],[[605.61718,603],[0,0],[-7.618,0]],[[590.90604,613.89443],[2.69308,-5.58508],[-0.31682,0.63364]],[[590.61718,616],[0,-0.70843],[0,0.20156]],[[590.57685,616.85325],[0.02106,-0.33136],[0.02013,-0.10671]],[[590.74964,616.60263],[-0.10238,0.05628],[0.45234,-0.24865]],[[595.61718,617],[-0.48256,0.87548],[0.14503,-0.26312]],[[594.95308,616.3906],[-0.04725,0.29671],[0.58086,-3.64773]],[[604.72276,605.71115],[-3.02833,1.51416],[0.78545,-0.39273]],[[607.27135,605.03032],[-0.87898,0.0905],[-0.34365,-0.53523]],[[607.61718,603],[0,0.6759],[0,-0.23192]]],&quot;closed&quot;:true}],&quot;index&quot;:null}" fill="#ffffff" fill-rule="nonzero" stroke="none" stroke-width="1" stroke-linecap="butt"/><path d="M271.03821,349.44327l-13.84598,-23.02234l65.7684,0.20374l23.53819,22.81861z" fill="#cedce9" fill-rule="nonzero" stroke="#000000" stroke-width="1" stroke-linecap="round"/><path d="M365.537,346.28893l-135.69065,-1.41336l-32.23379,-95.81229l-10.02437,-6.71399l-14.03999,-3.28776l-15.17475,5.05155l-29.60276,99.82025l-128.76767,-0.47113l40.15336,-142.27875l261.56282,1.62015z" fill="#ff0000" fill-rule="nonzero" stroke="#000000" stroke-width="1" stroke-linecap="round"/><path d="M352.75469,348.24692c-1.77998,0.25236 -3.52995,0.39676 -5.26234,0.50087c0.01173,0.03877 0.0178,0.07921 0.0178,0.12139c0,1.02752 -3.62387,1.02752 -3.62387,1.02752c-16.00554,0 -32.01098,0 -48.01646,0c-4.11866,0 -14.36703,-0.46617 -17.40474,0.14841c-1.74977,0.354 -3.00243,0.31897 -5.24455,0.36535c-0.25305,0.00524 -0.71336,0.01643 -1.12007,0.02333c2.16803,0.43886 1.12007,4.49451 1.12007,5.62811c0,4.79517 0,9.59034 0,14.38551c0,0.85627 0,1.71257 0,2.56884c0,0.3425 -0.63737,1.31848 0,1.02752c2.42492,-1.10694 7.15729,-0.51179 12.68358,-0.51377c10.8935,-0.00391 22.55617,-0.33423 33.25526,0.22146c19.53732,1.10793 40.54302,-0.66221 59.92444,0.5722c16.32357,1.15711 35.86369,1.26139 52.68152,1.26139c4.22792,0 8.45574,0 12.68363,0c0.63612,0 1.63492,-0.02429 2.66903,-0.05092c-1.04025,-0.52711 0.04889,-1.80182 0.04889,-2.51793c0,-2.67523 3.16267,-7.28999 -0.71998,-9.69353c-3.43111,-2.91863 -5.60152,-5.72867 -11.19838,-8.63939c-4.12951,-2.14766 -10.55801,-4.05137 -13.97477,-6.18471c-1.65645,-1.27147 -3.13936,-0.36276 -8.5337,-0.65702c-11.93632,-0.65112 -23.90786,-0.51377 -36.23884,-0.51377c-4.49476,0 -10.13974,0.25877 -14.49557,0c-0.91947,-0.05464 -2.64749,-0.25767 -3.94273,-0.42397c2.36905,0.51898 -3.03677,1.021 -5.30829,1.34303zM295.86956,347.84159c12.09646,0 24.19289,0 36.28933,0c0.34898,-0.04947 0.69786,-0.09894 1.0468,-0.14841c4.59626,-0.65163 8.74592,-0.47894 12.68363,-0.77066c5.36631,-0.39755 8.57619,-1.73639 14.11297,-2.05507c3.18063,-0.18309 11.99006,0.40528 16.49874,0.40528c12.22547,0 24.43758,-0.19821 36.23884,0.51377c6.6295,0.39997 12.23218,-0.37977 15.33246,1.99998c0.45705,0.90399 4.11506,1.469 6.02832,2.1644c2.92391,1.06274 5.36777,2.63668 7.63033,3.81334c5.60885,2.91697 8.07503,5.91721 11.59169,8.90856c3.14271,3.15316 1.09196,7.06318 1.09196,10.34341c0,1.81352 1.008,3.09168 -3.62387,4.62392c-1.61518,0.53432 -16.53717,0 -19.02537,0c-17.34681,0 -37.61534,-0.13018 -54.43939,-1.32277c-18.48272,-1.53185 -40.48367,0.53263 -59.588,-0.55075c-15.39505,-0.98324 -39.15784,1.63602 -51.76522,-1.72287c-1.24819,-0.33255 0,-3.04882 0,-3.59638c0,-4.79517 0,-9.59034 0,-14.38551c0,-1.6032 -2.49244,-5.43092 1.28859,-6.62477c6.59812,-2.08335 18.94661,-1.59554 28.60838,-1.59554z" data-paper-data="{&quot;index&quot;:null}" fill="#000000" fill-rule="nonzero" stroke="none" stroke-width="1" stroke-linecap="butt"/><path d="M347.44183,348.69836c1.73237,-0.10411 3.5034,-0.24986 5.28346,-0.50222c2.27151,-0.32203 7.69883,-0.82467 5.32972,-1.34364c1.29522,0.1663 3.03765,0.36932 3.95703,0.42396c4.35583,0.25875 10.05141,0.00256 14.54603,0.00256c12.33095,0 24.38019,-0.12295 36.31647,0.52817c5.39435,0.29426 6.8885,-0.61055 8.54495,0.66091c3.41678,2.13333 9.87239,4.05235 14.00198,6.20001c5.59686,2.91071 7.77475,5.74027 11.20583,8.65888c3.88268,2.40357 0.70297,7.0361 0.70297,9.71134c0,0.71611 -1.09593,1.99445 -0.05566,2.52156c-1.03405,0.02663 -2.03421,0.05158 -2.67038,0.05158c-4.22789,0 -8.46312,0.00323 -12.69101,0.00323c-16.81794,0 -36.4374,-0.08638 -52.76096,-1.24351c-19.38141,-1.23441 -40.57915,0.52577 -60.11649,-0.58216c-10.69911,-0.55569 -22.39477,-0.2371 -33.28827,-0.23319c-5.52626,0.00198 -10.26295,-0.59537 -12.68786,0.51157c-0.63735,0.29094 -0.00272,-0.68657 -0.00272,-1.02908c0,-0.85628 -0.00621,-1.71674 -0.00621,-2.573c0,-4.79518 -0.00754,-9.61887 -0.00754,-14.41404c0,-1.13361 1.05899,-5.1991 -1.10907,-5.63796c0.40675,-0.0069 0.86741,-0.01837 1.12049,-0.02361c2.24203,-0.04638 3.49758,-0.01307 5.2473,-0.36707c3.03771,-0.61457 13.29538,-0.15318 17.41403,-0.15318c16.00554,0 32.09631,-0.02043 48.10178,-0.02043c0,0 3.64167,-0.00176 3.64167,-1.02929c0,-0.04218 -0.00565,-0.08263 -0.0174,-0.12141z" data-paper-data="{&quot;noHover&quot;:false,&quot;origItem&quot;:[&quot;Path&quot;,{&quot;applyMatrix&quot;:true,&quot;segments&quot;:[[[579.60736,595.76373],[0.95609,-0.20262],[0.00646,0.07548]],[[579.61718,596],[0,-0.08208],[0,2]],[[577.61718,598],[0,0],[-8.83333,0]],[[551.11718,598],[8.83333,0],[-2.27308,0]],[[541.51161,598.28885],[1.67648,-1.19621],[-0.96568,0.68904]],[[538.61718,599],[1.23739,-0.09027],[-0.13966,0.01019]],[[537.99901,599.04541],[0.22447,-0.0134],[1.19653,0.85421]],[[538.61718,610],[0,-2.20646],[0,9.33333]],[[538.61718,638],[0,-9.33333],[0,1.66667]],[[538.61718,643],[0,-1.66667],[0,0.66667]],[[538.61718,645],[-0.35177,0.56631],[1.33831,-2.15456]],[[545.61718,644],[-3.04994,0.00386],[6.01206,-0.00761]],[[563.97058,644.43107],[-5.90478,-1.08158],[10.78253,2.15651]],[[597.04254,645.54479],[-10.6965,-2.40266],[9.00888,2.25222]],[[626.11718,648],[-9.28168,0],[2.33333,0]],[[633.11718,648],[-2.33333,0],[0.35109,0]],[[634.59021,647.90091],[-0.5707,0.05184],[-0.57412,-1.02596]],[[634.61718,643],[0,1.39387],[0,-5.20707]],[[634.21982,624.13246],[2.14282,4.67827],[-1.8936,-5.6808]],[[628.03948,607.31672],[3.08887,5.66543],[-2.2791,-4.1802]],[[620.32688,595.27881],[1.8857,4.15235],[-0.91417,-2.47477]],[[615.61718,594],[2.9771,0.57275],[-6.58756,-1.26734]],[[595.61718,593],[6.8054,0],[-2.48058,0]],[[587.61718,593],[2.40395,0.50364],[-0.50743,-0.10631]],[[585.44122,592.1748],[0.71481,0.32365],[1.30749,1.01011]],[[582.51161,594.78885],[1.25365,-0.62682],[-0.98239,0.4912]]],&quot;closed&quot;:true}],&quot;index&quot;:null}" fill="#484848" fill-rule="nonzero" stroke="none" stroke-width="1" stroke-linecap="butt"/><path d="M398.24449,352.46544c0,-0.11915 -0.05019,-0.31869 -0.09815,-0.51471c-0.18666,0.07955 -0.46507,0.14736 -0.82314,0.20504c-1.07372,0.30965 -2.70261,0.30966 -2.70261,0.30966c-13.80341,0 -21.77605,2.72778 -26.65573,5.59721c-0.57407,0.32555 -0.52336,0.71781 -0.52336,1.08177c0,0.10356 -0.03495,0.26814 -0.07311,0.43838c0.03649,-0.05479 0.12763,-0.09983 0.31311,-0.12875c0.81962,-0.12773 7.94528,0.65396 8.81966,0.20416c0.26279,-0.13518 -1.28888,-0.16065 -1.2033,-0.31309c1.05251,-1.8741 12.21491,-4.70883 17.70209,-5.48676c1.42318,-0.20178 3.02524,-0.30328 4.6179,-0.34978c-0.62269,-0.27497 0.62661,-0.69585 0.62661,-1.04311zM367.34924,359.66786c-0.08218,0.3653 -0.15514,0.7145 0.09218,0.50412c0.16907,-0.14376 -0.07497,-0.34558 -0.09218,-0.50412zM361.48224,357.1436c5.17928,-2.76851 12.06759,-5.29283 22.80217,-6.2864c1.0084,-0.44682 3.08837,-0.44682 3.08837,-0.44682h1.81193c4.1028,0 6.27342,-0.40527 10.68038,-0.40527c6.12021,0 7.5389,3.45067 4.3385,4.4612c-2.01955,0.63766 -5.25897,0.8469 -7.96242,1.23017c-8.00228,1.13451 -10.97153,4.39465 -19.74004,6.0168c-9.29352,1.71927 -19.52497,-2.01432 -15.0189,-4.56967z" data-paper-data="{&quot;index&quot;:null}" fill="#000000" fill-rule="nonzero" stroke="none" stroke-width="1" stroke-linecap="butt"/><path d="M398.28097,351.91633c0.04809,0.19602 0.10665,0.39841 0.10665,0.51757c0,0.34725 -1.23444,0.77445 -0.61176,1.04945c-1.59267,0.04649 -3.20394,0.14381 -4.62714,0.3456c-5.48725,0.77795 -16.70352,3.59829 -17.75599,5.47238c-0.08568,0.15244 1.29389,0.26815 1.03109,0.40334c-0.87437,0.44979 -8.06174,-0.34543 -8.88141,-0.21769c-0.18555,0.02893 -0.27579,0.07422 -0.31223,0.12905c0.03817,-0.17026 0.06639,-0.33718 0.06639,-0.44074c0,-0.36396 -0.06656,-0.76337 0.50753,-1.08891c4.87965,-2.86944 13.14009,-5.65756 26.94346,-5.65756c0,0 1.6363,0.0022 2.70999,-0.30746c0.35808,-0.05769 0.63669,-0.12551 0.82323,-0.20504z" data-paper-data="{&quot;noHover&quot;:false,&quot;origItem&quot;:[&quot;Path&quot;,{&quot;applyMatrix&quot;:true,&quot;segments&quot;:[[[607.563,601.99816],[0.02649,0.38155],[-0.10299,0.15484]],[[607.10872,602.39727],[0.1976,-0.11227],[-0.59254,0.60273]],[[605.61718,603],[0,0],[-7.618,0]],[[590.90604,613.89443],[2.69308,-5.58508],[-0.31682,0.63364]],[[590.61718,616],[0,-0.70843],[0,0.20156]],[[590.57685,616.85325],[0.02106,-0.33136],[0.02013,-0.10671]],[[590.74964,616.60263],[-0.10238,0.05628],[0.45234,-0.24865]],[[595.61718,617],[-0.48256,0.87548],[0.14503,-0.26312]],[[594.95308,616.3906],[-0.04725,0.29671],[0.58086,-3.64773]],[[604.72276,605.71115],[-3.02833,1.51416],[0.78545,-0.39273]],[[607.27135,605.03032],[-0.87898,0.0905],[-0.34365,-0.53523]],[[607.61718,603],[0,0.6759],[0,-0.23192]]],&quot;closed&quot;:true}],&quot;index&quot;:null}" fill="#ffffff" fill-rule="nonzero" stroke="none" stroke-width="1" stroke-linecap="butt"/><path d="M40.58095,204.71183c0,0.20514 0,0.41043 0,0.61557c2.05185,0 4.10385,0 6.15569,0c-2.02522,0.12789 -4.07722,0.20483 -6.15569,0.23084c0.62388,0.29871 0.57247,0.42705 -0.15389,0.38473c-0.04709,-0.44398 0.00416,-0.85441 0.15389,-1.23113z" data-paper-data="{&quot;index&quot;:null}" fill="#666666" fill-rule="evenodd" stroke="none" stroke-width="1" stroke-linecap="butt"/><path d="M47.5061,205.01961c0.64865,0.29794 1.36672,0.40058 2.15449,0.30779c-0.73945,0.15189 -1.50891,0.20329 -2.30838,0.15389c-0.03647,-0.19868 0.01477,-0.35257 0.15389,-0.46168z" data-paper-data="{&quot;index&quot;:null}" fill="#7d7d7d" fill-rule="evenodd" stroke="none" stroke-width="1" stroke-linecap="butt"/><path d="M195.38806,204.96143c0,0.87154 0,1.74308 0,2.61462c8.83218,0 17.66261,0 26.49479,0c-8.86006,0.17414 -17.74976,0.23218 -26.66909,0.17431c-0.05577,-0.96323 0.00174,-1.89298 0.17431,-2.78892z" data-paper-data="{&quot;index&quot;:null}" fill="#787878" fill-rule="evenodd" stroke="none" stroke-width="1" stroke-linecap="butt"/><path d="M119.73847,208.44759c5.89666,-0.17396 11.82312,-0.23218 17.77939,-0.17431c0,0.23235 0,0.46488 0,0.69723c-0.15757,-0.12359 -0.21562,-0.29789 -0.17431,-0.52292c-5.86842,0 -11.73666,0 -17.60509,0z" data-paper-data="{&quot;index&quot;:null}" fill="#6a6a6a" fill-rule="evenodd" stroke="none" stroke-width="1" stroke-linecap="butt"/><path d="" fill="#000000" fill-rule="nonzero" stroke="none" stroke-width="1" stroke-linecap="butt" opacity="0.936"/><path d="M187.70916,104.95604c-0.04482,-0.29619 -0.06489,-0.59358 -0.05958,-0.89223c0.16282,0.12392 0.33203,0.2399 0.50702,0.34733c-0.15007,0.18205 -0.29922,0.36366 -0.44745,0.54489z" fill="#000000" fill-rule="nonzero" stroke="none" stroke-width="1" stroke-linecap="butt" opacity="0.936"/><path d="M61.16669,128.94779c-0.38448,3.5291 -0.78538,7.05619 -1.20273,10.58229c-0.12528,-0.00799 -0.20877,-0.07387 -0.25057,-0.19967c-0.03338,-0.19967 -0.06685,-0.39933 -0.10023,-0.599c-0.01864,0.25357 -0.06876,0.48619 -0.15034,0.69883c-0.01654,-0.3015 0.0002,-0.60099 0.05011,-0.8985c0.06685,-0.06689 0.13361,-0.13278 0.20046,-0.19967c0.03338,-0.79866 0.06685,-1.59733 0.10022,-2.39599c0.28735,-0.593 0.40432,-1.22495 0.3508,-1.89683c0,-0.16672 0,-0.33244 0,-0.49916c0.07236,-0.04193 0.12248,-0.10782 0.15034,-0.19967c0.05001,-0.43128 0.06675,-0.86356 0.05011,-1.29783c-0.10544,0.01498 -0.20567,-0.002 -0.30068,-0.04992c0.16227,-0.02396 0.2625,-0.10682 0.30068,-0.24958c0.26801,-0.69883 0.36823,-1.43061 0.30068,-2.19632c0.09752,-0.17471 0.23123,-0.32445 0.40091,-0.44925c-0.12147,-0.11081 -0.0881,-0.16073 0.10023,-0.14975z" fill="#8dc3ed" fill-rule="evenodd" stroke="none" stroke-width="1" stroke-linecap="butt" opacity="0.381"/><path d="M59.96397,139.53008c-0.43776,3.49732 -0.86706,6.99777 -1.28798,10.50064c-0.07211,-0.28236 -0.17513,-0.56715 -0.30906,-0.85644c0.29777,-1.79411 0.47929,-3.61086 0.54466,-5.45121c0.10594,-0.60199 0.22291,-1.20099 0.3508,-1.797c0,-0.06689 0,-0.13278 0,-0.19967c0.18121,-0.74975 0.24806,-1.51546 0.20045,-2.29616c0.08159,-0.21265 0.1317,-0.44526 0.15034,-0.69883c0.03338,0.19967 0.06685,0.39933 0.10023,0.599c0.04179,0.12579 0.12528,0.19168 0.25057,0.19967z" fill="#a6c6df" fill-rule="evenodd" stroke="none" stroke-width="1" stroke-linecap="butt" opacity="0.309"/><path d="M249.16295,77.40343c0.44699,-1.76617 0.91563,-3.52693 1.407,-5.28242c0.00649,-0.05854 0.04221,-0.09444 0.10823,-0.10781c16.15879,11.3529 32.28513,22.74428 48.37898,34.17404c-2.55965,2.53201 -5.13986,5.04751 -7.73847,7.54632c-0.28248,-2.26066 -0.62557,-4.50655 -1.02819,-6.73779c-13.72578,-9.84589 -27.43532,-19.71001 -41.12755,-29.59234z" fill="#c6c7c6" fill-rule="evenodd" stroke="none" stroke-width="1" stroke-linecap="butt"/><path d="M250.56995,72.12101c-0.49137,1.75549 -0.96,3.51626 -1.407,5.28242c-0.37447,0.1009 -0.68077,0.31652 -0.91996,0.64683c-11.18345,13.08025 -22.36797,26.1606 -33.55142,39.24085c-0.03572,-0.0359 -0.07252,-0.07191 -0.10823,-0.10781c-0.10282,-0.96916 -0.13962,-1.93941 -0.10823,-2.91072c12.01682,-14.07119 24.04879,-28.12168 36.09483,-42.15158z" fill="#cbcbcb" fill-rule="evenodd" stroke="none" stroke-width="1" stroke-linecap="butt"/><path d="M249.05472,77.61904c13.67166,9.84352 27.34441,19.68964 41.01932,29.53845c2.70576,19.26187 5.41152,38.52287 8.11728,57.78323c-27.30977,0.67162 -54.61954,1.31845 -81.9304,1.94049c-0.82363,-16.02838 -1.68948,-32.05568 -2.59753,-48.08083c0.03572,-0.25151 0.07252,-0.50312 0.10823,-0.75464c0.37123,-0.04387 0.71432,-0.15168 1.02819,-0.32341c11.40099,-13.38566 22.8193,-26.75342 34.25492,-40.10329z" fill="#606060" fill-rule="evenodd" stroke="none" stroke-width="1" stroke-linecap="butt"/><path d="M136.60335,86.02779c10.31436,9.86013 20.61356,19.74224 30.89978,29.64625c0.2446,0.37861 0.51517,0.73803 0.81173,1.07804c-0.18832,0.69642 -0.27923,1.41515 -0.27057,2.15609c-9.03182,-8.92395 -18.06907,-17.85373 -27.11172,-26.78943c-1.45786,-1.34432 -2.88326,-2.72789 -4.2751,-4.15047c-0.07252,0.1437 -0.14395,0.1437 -0.21646,0c-9.91066,11.94647 -19.79599,23.91277 -29.65513,35.89891c-0.00292,-0.71787 0.03312,-1.43661 0.10823,-2.15609c9.92851,-11.88286 19.83105,-23.77726 29.70924,-35.6833z" fill="#e4e4e4" fill-rule="evenodd" stroke="none" stroke-width="1" stroke-linecap="butt" opacity="0.993"/><path d="M136.60335,88.29169c10.35008,10.11185 20.68608,20.24548 31.008,30.40088c0.2078,0.2362 0.35175,0.48771 0.43293,0.75463c-9.16387,-8.98367 -18.32665,-17.96746 -27.49052,-26.95113c-0.07252,0.1437 -0.14395,0.1437 -0.21646,0c-9.2721,11.17577 -18.54343,22.35144 -27.81521,33.52721c-0.03604,0.39532 -0.07219,0.79053 -0.10823,1.18585c-1.86654,-0.97444 -3.72453,-1.96269 -5.57387,-2.96463c9.9441,-11.97062 19.86569,-23.95493 29.76335,-35.95282z" fill="#cbcbcb" fill-rule="evenodd" stroke="none" stroke-width="1" stroke-linecap="butt"/><path d="M140.49964,92.81948c9.89983,9.66263 19.78452,19.34714 29.65513,29.05333c0.10282,0.05207 0.21105,0.06996 0.32469,0.0539c0.14828,15.30814 0.29222,30.61649 0.43292,45.92473c-20.23908,0.47218 -40.47816,0.93898 -60.71724,1.40146c0,0.39564 0,0.79021 0,1.18585c-2.70717,0.05175 -5.41293,0.1229 -8.11728,0.21561c0.06375,-0.97132 0.13582,-1.94156 0.21646,-2.91072c2.77849,-0.0539 5.55644,-0.12506 8.33374,-0.21561c0.69224,-13.80114 1.43178,-27.60055 2.21872,-41.39694c9.19969,-11.12165 18.41756,-22.22552 27.65286,-33.31161z" fill="#606060" fill-rule="evenodd" stroke="none" stroke-width="1" stroke-linecap="butt"/><path d="M213.01401,112.65552c0.32469,0 0.64938,0 0.97407,0c0.07901,0.75204 0.11472,1.50667 0.10823,2.26389c-15.26265,1.42453 -30.52314,2.86189 -45.78145,4.31218c0,-0.71873 0,-1.43736 0,-2.15609c14.91956,-1.42927 29.81964,-2.90264 44.69915,-4.41999z" fill="#e5e5e5" fill-rule="evenodd" stroke="none" stroke-width="1" stroke-linecap="butt" opacity="0.997"/><path d="M234.44362,86.45902c0.07252,0.21561 0.14394,0.43122 0.21646,0.64683c-6.88345,8.07909 -13.8102,16.12842 -20.78023,24.14822c0.09957,0.35123 0.13529,0.71054 0.10823,1.07804c-12.26142,1.22854 -24.52826,2.41439 -36.79833,3.55755c0.00866,-0.13476 0.08009,-0.22456 0.21646,-0.26951c3.56294,-0.43564 7.13455,-0.81296 10.71481,-1.13195c3.39194,-0.31339 6.7828,-0.5829 10.17365,-0.80853c0.06061,-0.04129 0.09633,-0.09519 0.10823,-0.16171c0.28898,0 0.57687,0 0.86585,0c0.70999,0.01757 1.39509,-0.05434 2.05638,-0.21561c0.03572,0 0.07251,0 0.10823,0c0.0855,-0.03051 0.15801,-0.08441 0.21646,-0.16171c2.73498,-0.2348 5.47646,-0.45041 8.22551,-0.64683c1.12018,-0.15255 2.2382,-0.35026 3.35514,-0.59293c0.12338,-0.57482 0.33985,-1.11384 0.64938,-1.61707c0.54115,-0.62882 1.0639,-1.27565 1.56934,-1.94049c0.10931,-0.09023 0.23594,-0.12614 0.37881,-0.10781c0,-0.1437 0,-0.28751 0,-0.43122c0.25218,-0.09843 0.48704,-0.24224 0.7035,-0.43122c0.64397,-1.05584 1.4557,-1.99018 2.43518,-2.80292c0.33443,-0.38821 0.60501,-0.81942 0.81173,-1.29365c1.1808,-0.93056 2.15487,-2.04462 2.92222,-3.34194c0.23161,-0.26078 0.50219,-0.44049 0.81173,-0.53902c-0.01623,-0.11341 0.00217,-0.22121 0.05411,-0.32341c0.26733,-0.19383 0.44807,-0.44545 0.54115,-0.75463c0.10931,-0.09023 0.23594,-0.12614 0.37881,-0.10781c0.01191,-0.24612 0.10173,-0.46173 0.27057,-0.64683c0.36041,-0.50312 0.79333,-0.93434 1.29877,-1.29365c0.55197,-0.70838 1.07581,-1.42701 1.56934,-2.15609c0.11364,0.01606 0.22187,-0.00183 0.32469,-0.0539c0.15152,-0.27285 0.33227,-0.52436 0.54115,-0.75463c0.10282,-0.05207 0.21105,-0.06997 0.32469,-0.0539c0.25326,-0.50452 0.50543,-1.00765 0.75761,-1.50926c0.11364,0.01606 0.22187,-0.00184 0.32469,-0.0539c0.30196,-0.42626 0.66237,-0.80358 1.0823,-1.13195c0.74896,-1.12365 1.6332,-2.12979 2.65164,-3.01852c0.18074,-0.32341 0.3604,-0.64682 0.54115,-0.97024c0.07252,-0.08107 0.16234,-0.11708 0.27057,-0.10781z" fill="#64a7ff" fill-rule="evenodd" stroke="none" stroke-width="1" stroke-linecap="butt" opacity="0.098"/><path d="M213.98808,115.13502c0.1407,0.18575 0.21321,0.41936 0.21646,0.70073c0.06494,0.62753 0.10173,1.25636 0.10823,1.88658c-0.31928,-0.02986 -0.62557,0.00603 -0.91996,0.1078c-0.06277,0.3978 -0.04437,0.79301 0.05411,1.18585c-0.02273,0.16106 -0.09524,0.28686 -0.21646,0.37731c-13.81453,1.25097 -27.6323,2.43682 -41.45224,3.55755c-0.35067,-0.41192 -0.67536,-0.84314 -0.97407,-1.29366c-0.17425,-0.07762 -0.3366,-0.05973 -0.48703,0.0539c-0.59527,-0.73663 -1.19053,-1.47336 -1.7858,-2.20999c15.16957,-1.44706 30.32182,-2.90242 45.45676,-4.36608z" fill="#c6c7c6" fill-rule="evenodd" stroke="none" stroke-width="1" stroke-linecap="butt"/><path d="M177.18974,115.88965c-1.81719,0.25636 -3.6571,0.43607 -5.51975,0.53902c0.68834,-0.17076 1.40916,-0.29657 2.16461,-0.37732c1.11694,-0.08528 2.23604,-0.13918 3.35514,-0.16171z" fill="#67abff" fill-rule="evenodd" stroke="none" stroke-width="1" stroke-linecap="butt" opacity="0.149"/><path d="M280.00862,150.92613c0.05303,0.24903 0.08983,0.50021 0.10823,0.75463c-16.03541,0.64575 -32.07191,1.29258 -48.10841,1.94049c-0.41452,-0.03558 -0.83013,-0.07223 -1.24465,-0.1078c-0.16992,-0.25873 -0.25975,-0.54549 -0.27057,-0.86244c-0.73488,-10.49337 -1.4741,-20.98631 -2.21872,-31.47893c0.00325,-0.29851 0.07576,-0.55013 0.21646,-0.75463c15.71722,-1.28805 31.39222,-2.6176 47.02611,-3.98877c1.45462,11.3833 2.86161,22.77468 4.22099,34.17404c0.02598,0.17464 0.11581,0.28245 0.27058,0.32341z" fill="#000000" fill-rule="evenodd" stroke="none" stroke-width="1" stroke-linecap="butt"/><path d="M274.59709,116.75209c0.25218,0 0.50544,0 0.75761,0c1.35288,11.13869 2.70576,22.27856 4.05864,33.41941c0.05736,0.45924 0.18291,0.89046 0.37881,1.29365c-16.30815,0.64036 -32.61414,1.26994 -48.92014,1.88658c-0.81173,-10.86411 -1.60506,-21.73437 -2.38107,-32.61087c15.38603,-1.30702 30.75475,-2.63658 46.10614,-3.98877z" fill="#485c8f" fill-rule="evenodd" stroke="none" stroke-width="1" stroke-linecap="butt"/><path d="M280.00862,150.92613c-0.15477,-0.04097 -0.2446,-0.14877 -0.27058,-0.32341c-1.35937,-11.39936 -2.76637,-22.79074 -4.22099,-34.17404c-15.63388,1.37117 -31.30889,2.70072 -47.02611,3.98877c0.08226,-0.0828 0.19048,-0.13669 0.32469,-0.16171c6.66374,-0.56123 13.2658,-1.13615 19.80616,-1.72487c0.05411,-0.0539 0.10823,-0.10781 0.16235,-0.16171c0.25002,0.05336 0.53899,0.08927 0.86584,0.10781c0.92212,-0.06911 1.84208,-0.1589 2.75988,-0.26951c0.05411,-0.0539 0.10823,-0.10781 0.16235,-0.16171c0.25002,0.05336 0.53899,0.08926 0.86584,0.1078c0.92212,-0.06911 1.84208,-0.1589 2.75988,-0.26951c6.44079,-0.50485 12.93462,-1.06177 19.48147,-1.67097c0.1775,0.32967 0.26733,0.68909 0.27057,1.07804c1.37128,11.21037 2.72416,22.42205 4.05864,33.63502z" fill="#555555" fill-rule="evenodd" stroke="none" stroke-width="1" stroke-linecap="butt"/><path d="M212.68931,119.66281c0.25218,0 0.50544,0 0.75761,0c0.88208,15.8822 1.74792,31.76569 2.59753,47.64961c-14.64898,0.27598 -29.29688,0.59939 -43.94154,0.97024c0.11797,13.87229 0.2446,27.74242 0.37881,41.61255c-0.3063,0.15309 -0.59527,0.33204 -0.86584,0.53902c-0.22187,-15.3449 -0.34742,-30.68872 -0.37881,-46.03254c0.34417,0.17141 0.70458,0.27921 1.0823,0.32341c-0.15152,-13.79898 -0.29546,-27.59786 -0.43292,-41.39695c13.61863,-1.19728 27.21994,-2.41903 40.80285,-3.66535z" fill="#ff0000" fill-rule="evenodd" stroke="none" stroke-width="1" stroke-linecap="butt"/><path d="M170.80415,122.14232c0.4221,0.33161 0.69268,0.76282 0.81173,1.29366c0.12122,12.12812 0.24784,24.25602 0.37881,36.38403c-0.03572,1.52759 -0.07251,3.0541 -0.10823,4.5817c-0.23161,-0.11859 -0.46647,-0.22639 -0.7035,-0.32341c-0.1775,-13.97794 -0.30305,-27.95685 -0.37881,-41.93597z" fill="#ff0000" fill-rule="evenodd" stroke="none" stroke-width="1" stroke-linecap="butt"/><path d="M107.70584,125.48427c0.32664,-0.01779 0.65133,0.00022 0.97407,0.0539c0.93641,0.43025 1.8384,0.91537 2.70576,1.45536c-28.27096,2.59098 -56.53717,5.17828 -84.79851,7.76193c-0.03247,-0.51078 0.02164,-1.01379 0.16234,-1.50926c0.17079,-0.08603 0.3511,-0.13993 0.54115,-0.1617c26.82534,-2.49277 53.63043,-5.02617 80.41518,-7.60022z" fill="#e5e5e5" fill-rule="evenodd" stroke="none" stroke-width="1" stroke-linecap="butt" opacity="0.999"/><path d="M155.97659,126.5623c0.32469,0 0.64938,0 0.97407,0c-0.11148,10.02345 -0.18399,20.04949 -0.21646,30.07747c-11.47242,0.46679 -22.94484,0.93466 -34.41726,1.40146c-0.36073,-0.03558 -0.72157,-0.07223 -1.0823,-0.1078c-0.16289,-0.14446 -0.23507,-0.32449 -0.21646,-0.53902c0.10823,0 0.21646,0 0.32469,0c0.40586,-9.30676 0.80264,-18.61354 1.19054,-27.92137c11.16505,-0.94167 22.31278,-1.91192 33.44319,-2.91072z" fill="#000000" fill-rule="evenodd" stroke="none" stroke-width="1" stroke-linecap="butt"/><path d="M155.32721,126.88572c0.43292,0 0.86584,0 1.29876,0c-0.04113,9.84697 -0.11364,19.69265 -0.21646,29.53845c-11.54602,0.42691 -23.09096,0.8937 -34.63372,1.40146c-0.14427,-0.03558 -0.28865,-0.07223 -0.43292,-0.1078c0.08929,-0.09595 0.19752,-0.13152 0.32469,-0.1078c0.36982,-9.30676 0.73055,-18.61397 1.0823,-27.92137c10.87932,-0.884 21.73807,-1.81823 32.57735,-2.80292z" fill="#485c8f" fill-rule="evenodd" stroke="none" stroke-width="1" stroke-linecap="butt"/><path d="M111.92682,127.20913c0.27393,0.0636 0.45435,0.22531 0.54115,0.48512c-0.11948,1.30853 -0.19157,2.62019 -0.21646,3.93486c-21.61274,1.73706 -43.22278,3.51583 -64.83,5.33633c-0.18399,0.97994 -0.34634,1.96819 -0.48703,2.96463c-6.54263,-1.67863 -13.09057,-3.3496 -19.64382,-5.01291c28.23222,-2.52866 56.44431,-5.09807 84.63616,-7.70802z" fill="#c6c7c6" fill-rule="evenodd" stroke="none" stroke-width="1" stroke-linecap="butt"/><path d="M91.14659,126.77791c-19.54241,1.89704 -39.09595,3.72971 -58.66087,5.49803c0.00617,-0.11956 0.04221,-0.22735 0.10823,-0.32341c0.68834,-0.1023 1.37377,-0.22812 2.05638,-0.37732c2.67578,-0.10823 5.3455,-0.25194 8.00905,-0.43122c0.46582,-0.11923 0.93478,-0.22704 1.407,-0.32341c3.29735,-0.29851 6.5803,-0.62193 9.84896,-0.97024c4.59232,-0.40621 9.17404,-0.76552 13.74526,-1.07804c0.79019,-0.1436 1.58384,-0.28729 2.38106,-0.43122c3.79564,-0.24191 7.58371,-0.60123 11.36419,-1.07804c2.92157,-0.26455 5.84379,-0.46216 8.76666,-0.59293c0.14308,-0.01833 0.26939,0.01757 0.37881,0.10781c0.07327,-0.23598 0.19957,-0.27189 0.37881,-0.10781c0.12154,-0.19286 0.26582,-0.22876 0.43292,-0.1078c-0.03744,0.12893 -0.09156,0.12893 -0.16235,0c-0.05022,0.06403 -0.06829,0.13594 -0.05411,0.21561z" fill="#68adff" fill-rule="evenodd" stroke="none" stroke-width="1" stroke-linecap="butt" opacity="0.244"/><path d="M111.60214,131.84473c0.22772,-0.03224 0.44417,0.00367 0.64938,0.10781c-0.66334,11.70973 -1.29465,23.42485 -1.89403,35.14428c-0.47773,0.14015 -0.98284,0.21237 -1.51522,0.21561c-2.18366,0.06145 -4.36634,0.13368 -6.54794,0.21561c0.68997,-11.60731 1.39346,-23.21463 2.11049,-34.82086c0.1933,-0.17238 0.42783,-0.26229 0.7035,-0.26951c2.1842,-0.16322 4.34881,-0.36082 6.49382,-0.59293z" fill="#606160" fill-rule="evenodd" stroke="none" stroke-width="1" stroke-linecap="butt"/><path d="M103.80954,132.49155c0.10823,0 0.21646,0 0.32469,0c-0.69917,11.68062 -1.42064,23.36017 -2.16461,35.03648c-14.17883,0.33743 -28.35701,0.69642 -42.53454,1.07804c1.09691,-10.89041 2.21537,-21.77867 3.35515,-32.66478c13.69244,-1.10963 27.36551,-2.25947 41.01932,-3.44975z" fill="#b6b5b1" fill-rule="evenodd" stroke="none" stroke-width="1" stroke-linecap="butt"/><path d="M62.79023,162.1378c-0.11386,0.01617 -0.22209,-0.00216 -0.32469,-0.0539c0.15564,-0.16925 0.31798,-0.33096 0.48703,-0.48512c0.75869,-7.75546 1.57042,-15.49906 2.43518,-23.23188c11.14448,-0.89672 22.29221,-1.74126 33.44319,-2.53341c-0.5273,8.4357 -1.1046,16.86279 -1.73169,25.28016c-11.4708,0.47757 -22.94322,0.87322 -34.41726,1.18585c0.06017,-0.04097 0.09622,-0.09487 0.10823,-0.1617z" fill="#000000" fill-rule="evenodd" stroke="none" stroke-width="1" stroke-linecap="butt"/><path d="M62.24907,135.9413c0.13691,0.10931 0.209,0.27102 0.21646,0.48512c-1.12917,10.72655 -2.24751,21.4531 -3.35515,32.17965c-5.12947,0.15201 -10.25245,0.25981 -15.36871,0.32341c1.31608,-10.5228 2.59677,-21.05099 3.84218,-31.58673c0.11548,-0.0745 0.24179,-0.12839 0.37881,-0.16171c4.78173,-0.37882 9.54386,-0.79215 14.28641,-1.23975z" fill="#606160" fill-rule="evenodd" stroke="none" stroke-width="1" stroke-linecap="butt"/><path d="M62.79023,162.1378c0.11559,-0.10026 0.25986,-0.13692 0.43292,-0.10781c0.75101,-7.7684 1.54467,-15.53032 2.38107,-23.28578c0.13302,-0.0842 0.27728,-0.1381 0.43292,-0.16171c10.8238,-0.84454 21.64684,-1.68897 32.46911,-2.53341c-0.50522,8.26753 -1.04637,16.5329 -1.62346,24.79504c-11.36246,0.45278 -22.72665,0.884 -34.09257,1.29366z" fill="#485c8f" fill-rule="evenodd" stroke="none" stroke-width="1" stroke-linecap="butt"/><path d="M292.88803,121.27989c0.32793,2.89099 0.74354,5.76571 1.24465,8.62436c0.03572,0.71873 0.07252,1.43736 0.10823,2.15609c0.1342,0.72854 0.31495,1.44728 0.54115,2.15609c0.03572,0.75463 0.07251,1.50926 0.10823,2.26389c0.1775,0.90955 0.33985,1.80789 0.48704,2.69512c0,0.32341 0,0.64682 0,0.97024c0.08442,0.48253 0.21105,0.94965 0.37881,1.40146c-0.03355,0.80788 0.11147,1.56209 0.43292,2.26389c0.02706,0.9379 0.08117,1.87257 0.16235,2.80292c0,0.07223 0,0.14338 0,0.21561c0.24352,1.21172 0.40586,2.43315 0.48703,3.66535c0.09633,0.39996 0.20456,0.7956 0.32469,1.18585c0.23594,1.93941 0.4524,3.87989 0.64938,5.82145c0.092,0.18219 0.18183,0.36222 0.27058,0.53902c-0.21646,0 -0.43293,0 -0.64938,0c-1.67541,-12.29295 -3.37138,-24.58267 -5.08683,-36.86915c0.12771,0.02361 0.23594,-0.01229 0.32469,-0.1078c-0.10931,-0.0966 -0.10931,-0.1684 0,-0.21561c0.07252,0.15621 0.14503,0.29992 0.21646,0.43122z" fill="#67b3fd" fill-rule="evenodd" stroke="none" stroke-width="1" stroke-linecap="butt" opacity="0.22"/><path d="M295.91848,165.26413c0.75761,0 1.51522,0 2.27284,0c2.34535,16.88974 4.68962,33.77947 7.03498,50.66814c-28.7882,-1.16429 -57.57749,-2.31456 -86.36785,-3.44975c-0.88208,-15.1239 -1.71112,-30.25319 -2.4893,-45.38571c5.62798,-0.12721 11.25596,-0.23502 16.88394,-0.32341c0.82796,11.82293 1.67649,23.64585 2.54342,35.46769c0.00433,0.38702 0.09416,0.746 0.27057,1.07804c0.28248,0.0884 0.57038,0.14231 0.86584,0.16171c17.20863,0.47541 34.41727,0.92496 51.62589,1.34755c0,-0.28784 0,-0.5746 0,-0.86244c-0.10823,0 -0.21646,0 -0.32469,0c-1.55094,-12.79316 -3.10296,-25.58525 -4.65391,-38.37842c4.13115,-0.06576 8.24391,-0.17356 12.33826,-0.32341z" fill="#ff0000" fill-rule="evenodd" stroke="none" stroke-width="1" stroke-linecap="butt"/><path d="M278.60162,165.80316c1.59531,-0.06899 3.16466,0.00323 4.70802,0.21561c1.55094,12.57756 3.10297,25.15403 4.65391,37.73159c0.0671,0.17464 0.17533,0.31802 0.32469,0.43122c0.05303,0.13907 0.07143,0.28353 0.05411,0.43122c-17.3883,-0.47865 -34.77767,-0.94545 -52.16705,-1.40146c-0.89182,-12.07627 -1.79338,-24.15038 -2.70576,-36.22233c0.57362,-0.08948 1.15157,-0.14338 1.73169,-0.16171c14.48556,-0.30616 28.95163,-0.64683 43.40039,-1.02414z" fill="#495d90" fill-rule="evenodd" stroke="none" stroke-width="1" stroke-linecap="butt"/><path d="M297.43371,158.04123c0.21646,0 0.43293,0 0.64938,0c0.08334,1.73026 0.2998,3.45513 0.64938,5.17462c0.15152,1.6742 0.31387,3.3635 0.48703,5.06682c0.09308,0.17141 0.16559,0.35036 0.21646,0.53902c0.02381,1.12764 0.13204,2.24126 0.32469,3.34194c0.09416,0.47973 0.21971,0.9476 0.37881,1.40146c-0.20564,-0.15632 -0.38638,-0.33527 -0.54115,-0.53902c-0.7403,-4.98165 -1.46219,-9.97731 -2.16461,-14.98483z" fill="#8ac0ed" fill-rule="evenodd" stroke="none" stroke-width="1" stroke-linecap="butt" opacity="0.353"/><path d="M214.0963,167.52803c0.64938,0 1.29877,0 1.94815,0c0.82579,14.69807 1.65593,29.39507 2.4893,44.09206c-5.23077,-0.1768 -10.46263,-0.35684 -15.6934,-0.53902c-0.54007,-13.11442 -1.06282,-26.231 -1.56934,-39.34866c-1.49141,-0.38486 -2.98824,-0.76218 -4.49156,-1.13195c-1.79121,-0.39672 -3.59433,-0.46787 -5.41152,-0.21561c-1.99036,0.50452 -3.97422,1.02522 -5.95267,1.56317c0.32469,12.79209 0.59527,25.58525 0.81173,38.37842c-0.06061,0.05606 -0.13312,0.09271 -0.21646,0.10781c-4.4158,-0.22962 -8.83485,-0.40966 -13.25822,-0.53902c-0.11364,-13.79898 -0.25759,-27.59796 -0.43293,-41.39694c13.94441,-0.28676 27.86932,-0.61017 41.77693,-0.97024z" fill="#ff0000" fill-rule="evenodd" stroke="none" stroke-width="1" stroke-linecap="butt"/><path d="M100.67086,167.74364c0.43292,0 0.86585,0 1.29877,0c-0.05855,0.96916 -0.09459,1.93941 -0.10823,2.91072c-14.25124,0.25226 -28.5015,0.5401 -42.751,0.86244c0.08799,-0.89694 0.16018,-1.79495 0.21646,-2.69512c13.80024,-0.29862 27.58165,-0.65869 41.344,-1.07804z" fill="#b6b6b1" fill-rule="evenodd" stroke="none" stroke-width="1" stroke-linecap="butt"/><path d="M108.46345,208.06254c0.70057,-12.86324 1.386,-25.72755 2.05638,-38.59402c3.19345,-0.03989 6.38624,-0.11212 9.57839,-0.21561c0.451,0.03558 0.90188,0.07223 1.35288,0.10781c-0.44072,10.05925 -0.89171,20.12064 -1.35288,30.18527c-0.34948,0.37085 -0.25932,0.64036 0.27057,0.80853c12.2322,0.31371 24.46223,0.65437 36.6901,1.02415c0.08767,-10.99606 0.16018,-21.99213 0.21646,-32.98819c4.54568,-0.06899 9.09135,-0.14015 13.63703,-0.21561c0.10823,14.09114 0.25326,28.17688 0.43293,42.25938c-0.27057,0.03558 -0.54115,0.07223 -0.81173,0.1078c-20.68824,-0.86783 -41.37864,-1.69469 -62.07013,-2.4795z" fill="#ff0000" fill-rule="evenodd" stroke="none" stroke-width="1" stroke-linecap="butt"/><path d="M153.05437,168.60607c1.29877,0 2.59753,0 3.89629,0c-0.01948,10.81603 -0.0552,21.63314 -0.10823,32.44917c-12.23436,-0.27059 -24.4644,-0.62958 -36.6901,-1.07804c0.08031,-0.08516 0.17046,-0.15632 0.27058,-0.21561c0.42686,-10.13363 0.84182,-20.26725 1.24465,-30.40088c10.48103,-0.21561 20.94258,-0.46787 31.38681,-0.75464z" fill="#495d90" fill-rule="evenodd" stroke="none" stroke-width="1" stroke-linecap="butt"/><path d="M58.67747,168.82169c0.15996,-0.02803 0.30424,0.00755 0.43292,0.10781c-0.12392,0.8592 -0.23215,1.72164 -0.32469,2.58731c-5.12352,0.08732 -10.24639,0.19512 -15.36871,0.32341c0.12587,-0.8592 0.2341,-1.72164 0.32469,-2.58731c4.99699,-0.10565 9.9756,-0.24903 14.93579,-0.43122z" fill="#606160" fill-rule="evenodd" stroke="none" stroke-width="1" stroke-linecap="butt"/><path d="M193.20785,170.43876c2.4525,0.12613 4.83357,0.61126 7.14321,1.45536c0.21321,0.0539 0.42967,0.07115 0.64939,0.0539c0.51842,12.97212 1.02386,25.94425 1.51522,38.91744c-0.10823,0 -0.21646,0 -0.32469,0c-0.54331,-12.86216 -1.04875,-25.72648 -1.51522,-38.59402c-2.38215,-0.84519 -4.83573,-1.34755 -7.35967,-1.50926c-2.51311,0.18219 -4.91258,0.79236 -7.19732,1.83268c0.27274,12.5409 0.57903,25.0818 0.91996,37.62379c-0.14395,0 -0.28897,0 -0.43292,0c-0.33768,-12.64763 -0.62557,-25.29634 -0.86585,-37.9472c1.50116,-0.47973 3.01638,-0.92927 4.54568,-1.34756c0.98057,-0.21884 1.95464,-0.38055 2.92222,-0.48512z" fill="#5f3b22" fill-rule="evenodd" stroke="none" stroke-width="1" stroke-linecap="butt"/><path d="M39.62892,203.31914c1.27831,-10.41823 2.54103,-20.83862 3.78807,-31.26331c22.24936,-0.41505 44.4907,-0.88292 66.72403,-1.40146c-0.58942,11.71188 -1.18469,23.427 -1.7858,35.14428c-1.08101,-0.06576 -2.16331,-0.10241 -3.24691,-0.1078c0.55566,-10.91521 1.16899,-21.8218 1.83992,-32.71868c-0.03604,-0.10781 -0.07219,-0.21561 -0.10823,-0.32341c-18.0025,0.26089 -36.00479,0.56598 -54.00696,0.91634c-1.06639,10.0269 -2.1487,20.05272 -3.24691,30.07747c-3.31791,-0.13907 -6.63701,-0.24687 -9.9572,-0.32341z" fill="#ff0000" fill-rule="evenodd" stroke="none" stroke-width="1" stroke-linecap="butt"/><path d="M192.55846,171.08559c2.65056,-0.01833 5.21238,0.44846 7.68436,1.40146c0.08117,0.09487 0.13528,0.20267 0.16234,0.32341c0.49245,12.68536 0.97949,25.36964 1.46111,38.055c-4.86929,-0.21022 -9.73965,-0.38918 -14.6111,-0.53902c-0.2814,-12.5409 -0.57038,-25.08288 -0.86585,-37.62379c2.00984,-0.7611 4.06621,-1.30012 6.16913,-1.61707z" fill="#603b22" fill-rule="evenodd" stroke="none" stroke-width="1" stroke-linecap="butt"/><path d="M100.88732,172.91826c1.91211,0 3.8241,0 5.73621,0c-0.61334,10.92384 -1.22658,21.84875 -1.83992,32.77258c-1.26511,-0.04636 -2.52783,-0.13584 -3.78806,-0.26952c-16.09094,-0.57783 -32.18112,-1.17076 -48.27075,-1.77878c-0.97321,0.09595 -1.94728,0.1132 -2.92222,0.0539c1.13772,-9.96545 2.25607,-19.93737 3.35515,-29.91576c15.92827,-0.24472 31.83814,-0.53148 47.7296,-0.86244z" fill="#b6b6b6" fill-rule="evenodd" stroke="none" stroke-width="1" stroke-linecap="butt"/><path d="M103.05193,176.04459c0.09708,0.11859 0.18724,0.11859 0.27057,0c0.04924,0.74817 -0.00487,1.48447 -0.16235,2.20999c-1.33632,0.08948 -2.67112,0.07223 -4.00452,-0.0539c-0.1236,-0.17464 -0.19579,-0.37193 -0.21646,-0.59293c0.07187,-0.48296 0.10801,-0.96808 0.10823,-1.45536c1.35407,0.03558 2.68898,0 4.00452,-0.10781z" fill="#000000" fill-rule="evenodd" stroke="none" stroke-width="1" stroke-linecap="butt"/><path d="M85.95153,176.1524c1.3348,0 2.66972,0 4.00453,0c-0.0052,0.72229 -0.05932,1.44027 -0.16235,2.15609c-0.62286,0.07115 -1.25417,0.10673 -1.89404,0.1078c-0.66811,-0.00432 -1.31749,-0.07654 -1.94814,-0.21561c-0.11115,-0.68133 -0.11115,-1.3648 0,-2.04829z" fill="#000000" fill-rule="evenodd" stroke="none" stroke-width="1" stroke-linecap="butt"/><path d="M94.71819,176.1524c1.3348,0 2.66972,0 4.00453,0c0.01775,0.72229 -0.01829,1.44135 -0.10823,2.15609c-1.30071,0.03558 -2.59948,0 -3.89629,-0.10781c-0.11743,-0.13799 -0.18962,-0.29969 -0.21646,-0.48512c0.05465,-0.52932 0.12685,-1.05001 0.21646,-1.56317z" fill="#000000" fill-rule="evenodd" stroke="none" stroke-width="1" stroke-linecap="butt"/><path d="M81.62231,176.2602c1.3348,0 2.66972,0 4.00453,0c-0.01212,0.72014 -0.04827,1.43919 -0.10823,2.15609c-1.26478,0.03558 -2.5274,0.00001 -3.78807,-0.1078c-0.12089,-0.15632 -0.19308,-0.33635 -0.21646,-0.53902c0.07912,-0.50021 0.11515,-1.00366 0.10823,-1.50926z" fill="#000000" fill-rule="evenodd" stroke="none" stroke-width="1" stroke-linecap="butt"/><path d="M75.1285,176.36801c0.68543,0 1.37095,0 2.05638,0c-0.03333,0.68887 -0.10542,1.37127 -0.21646,2.04829c-0.59527,0.03558 -1.19053,0.07223 -1.7858,0.1078c-0.65014,-0.00539 -1.28145,-0.07654 -1.89404,-0.21561c-0.0407,-0.6037 -0.0407,-1.21496 0,-1.83268c0.63401,0.0345 1.24736,-0.00107 1.83992,-0.1078z" fill="#000000" fill-rule="evenodd" stroke="none" stroke-width="1" stroke-linecap="butt"/><path d="M58.02809,176.47581c1.01076,-0.01833 2.02099,0.00001 3.03045,0.0539c-0.10087,0.663 -0.17306,1.36372 -0.21646,2.10219c-1.1927,0.03558 -2.38324,0 -3.57161,-0.10781c-0.09903,-0.08948 -0.17111,-0.19728 -0.21646,-0.32341c0.07933,-0.53902 0.15152,-1.07804 0.21646,-1.61707c0.27696,0.03234 0.52957,-0.00323 0.75761,-0.10781z" fill="#000000" fill-rule="evenodd" stroke="none" stroke-width="1" stroke-linecap="butt"/><path d="M61.275,176.47581c1.19054,0 2.38106,0 3.5716,0c-0.01115,0.68564 -0.06526,1.36804 -0.16234,2.04829c-0.56864,0.07115 -1.14594,0.10673 -1.73169,0.10781c-0.61431,-0.00539 -1.20958,-0.07762 -1.7858,-0.21561c-0.03604,-0.0539 -0.07219,-0.10781 -0.10823,-0.16171c0.09708,-0.58969 0.16928,-1.18262 0.21646,-1.77878z" fill="#000000" fill-rule="evenodd" stroke="none" stroke-width="1" stroke-linecap="butt"/><path d="M69.17582,176.47581c1.29877,0 2.59753,0 3.89629,0c-0.06602,0.68133 -0.10206,1.36372 -0.10823,2.04829c-1.26316,0.01833 -2.52588,0 -3.78807,-0.0539c0.03604,-0.03558 0.07219,-0.07223 0.10823,-0.10781c-0.10823,-0.03558 -0.21646,-0.07223 -0.32469,-0.1078c0.10109,-0.5843 0.17328,-1.17723 0.21646,-1.77878z" fill="#000000" fill-rule="evenodd" stroke="none" stroke-width="1" stroke-linecap="butt"/><path d="M299.59831,173.02606c0.15477,0.20375 0.33551,0.3827 0.54115,0.53902c-0.0184,0.39672 0,0.79236 0.05411,1.18585c0.36149,1.62785 0.54224,3.28157 0.54115,4.95901c0.04545,0.12613 0.11797,0.23393 0.21646,0.32341c0.11256,0.71474 0.18508,1.43272 0.21646,2.15609c0.1288,0.20267 0.23702,0.41828 0.32469,0.64682c0.03572,0.71906 0.07252,1.43704 0.10823,2.15609c0.04437,0.15092 0.09849,0.29431 0.16234,0.43122c-0.18074,0 -0.3604,0 -0.54115,0c-0.55089,-4.13107 -1.09205,-8.2643 -1.62346,-12.39752z" fill="#a7c6df" fill-rule="evenodd" stroke="none" stroke-width="1" stroke-linecap="butt" opacity="0.268"/><path d="M94.50173,178.52409c1.37096,0 2.7418,0 4.11275,0c-0.05401,0.75356 -0.09005,1.50819 -0.10823,2.2639c-1.30071,0.03558 -2.59948,0 -3.89629,-0.10781c-0.13248,-0.28353 -0.20466,-0.58861 -0.21646,-0.91634c0.01938,-0.41613 0.05552,-0.82902 0.10823,-1.23975z" fill="#000000" fill-rule="evenodd" stroke="none" stroke-width="1" stroke-linecap="butt"/><path d="M98.93918,178.52409c1.44304,0 2.88618,0 4.32921,0c-0.09102,0.75032 -0.12706,1.50496 -0.10823,2.2639c-1.37279,0.03558 -2.74374,0 -4.11275,-0.10781c-0.24568,-0.69965 -0.28172,-1.41871 -0.10823,-2.15609z" fill="#000000" fill-rule="evenodd" stroke="none" stroke-width="1" stroke-linecap="butt"/><path d="M81.51409,178.6319c1.33535,-0.01833 2.67015,0 4.00452,0.0539c-0.08929,0.73523 -0.16148,1.50818 -0.21646,2.3178c-1.26478,0.03558 -2.5274,0.00001 -3.78807,-0.1078c-0.11743,-0.13799 -0.18962,-0.29969 -0.21646,-0.48512c0.05758,-0.60047 0.12966,-1.1934 0.21646,-1.77878z" fill="#000000" fill-rule="evenodd" stroke="none" stroke-width="1" stroke-linecap="butt"/><path d="M85.73507,178.6319c1.3348,0 2.66972,0 4.00453,0c0.00227,0.79236 -0.03388,1.58365 -0.10823,2.3717c-1.26478,0.03558 -2.5274,0.00001 -3.78807,-0.1078c-0.12771,-0.21022 -0.19979,-0.44416 -0.21646,-0.70073c0.06397,-0.51962 0.10001,-1.04032 0.10823,-1.56317z" fill="#000000" fill-rule="evenodd" stroke="none" stroke-width="1" stroke-linecap="butt"/><path d="M63.43961,178.7397c0.39688,0 0.79365,0 1.19054,0c-0.03128,0.72014 -0.08539,1.43811 -0.16235,2.15609c-0.67049,0.16063 -1.35591,0.23286 -2.05638,0.21561c-0.50684,-0.00647 -0.99388,-0.0787 -1.46111,-0.21561c-0.05812,-0.68133 -0.02208,-1.36372 0.10823,-2.04829c0.81379,0.0345 1.60744,-0.00108 2.38107,-0.10781z" fill="#000000" fill-rule="evenodd" stroke="none" stroke-width="1" stroke-linecap="butt"/><path d="M68.95936,178.73971c1.29877,0 2.59753,0 3.89629,0c-0.04913,0.71798 -0.08518,1.43704 -0.10823,2.15609c-1.26478,0.03558 -2.5274,0.00001 -3.78807,-0.1078c-0.07219,-0.07223 -0.14427,-0.14338 -0.21646,-0.21561c0.10769,-0.60479 0.17988,-1.21603 0.21646,-1.83268z" fill="#000000" fill-rule="evenodd" stroke="none" stroke-width="1" stroke-linecap="butt"/><path d="M73.18035,178.73971c1.26272,0 2.52534,0 3.78806,0c-0.05996,0.7169 -0.09611,1.43596 -0.10823,2.15609c-1.22874,0.03558 -2.45531,0.00001 -3.67983,-0.1078c-0.11299,-0.12074 -0.18508,-0.2652 -0.21646,-0.43122c0.05942,-0.54657 0.13161,-1.08559 0.21646,-1.61707z" fill="#000000" fill-rule="evenodd" stroke="none" stroke-width="1" stroke-linecap="butt"/><path d="M57.05402,178.84751c1.22658,0 2.45326,0 3.67983,0c-0.0052,0.72229 -0.05932,1.44027 -0.16235,2.15609c-0.58672,0.07115 -1.18198,0.10673 -1.7858,0.10781c-0.63218,-0.00539 -1.24552,-0.07654 -1.83992,-0.21561c-0.08593,-0.68887 -0.0499,-1.37235 0.10823,-2.04829z" fill="#000000" fill-rule="evenodd" stroke="none" stroke-width="1" stroke-linecap="butt"/><path d="M304.53611,185.73553c0.8924,0 1.78588,0 2.67829,0c0,0.07149 0,0.14192 0,0.21342c-0.92883,0 -1.85659,0 -2.78542,0c0.03535,-0.07149 0.07178,-0.14192 0.10713,-0.21342z" fill="#000000" fill-rule="evenodd" stroke="none" stroke-width="1" stroke-linecap="butt" opacity="0.004"/><path d="M179.24038,163.91187c0.17127,2.99528 0.22779,6.01926 0.17127,9.07211c-1.2314,0.05361 -2.43024,-0.00149 -3.59656,-0.16494c1.14233,0 2.28296,0 3.42529,0c0,-2.96906 0,-5.9381 0,-8.90716z" data-paper-data="{&quot;index&quot;:null}" fill="#b4b4b4" fill-rule="evenodd" stroke="none" stroke-width="1" stroke-linecap="butt"/><path d="M181.95329,129.04134c0.18131,-0.20824 0.24957,-0.40488 0.25243,-0.58022c0.31542,0.02926 0.6362,0.07109 0.95104,0.12526c0.95195,0.16377 1.81075,1.47411 2.52468,2.00939c3.86919,2.83179 3.59073,8.56658 0.40236,11.65956c-2.03922,1.97818 -5.89397,1.06285 -8.26516,0.86866c-3.41435,-1.48184 -5.33843,-7.19524 -4.20904,-10.45883c0.34504,-0.99707 0.68593,-2.04555 1.32125,-2.91276c0.77974,-1.06433 4.76886,-1.28348 5.55972,-0.56492c0,0 0.8157,0.5971 1.46272,-0.1461z" data-paper-data="{&quot;noHover&quot;:false,&quot;origItem&quot;:[&quot;Path&quot;,{&quot;applyMatrix&quot;:true,&quot;segments&quot;:[[[241.70461,4.64853],[0.02273,0.18258],[-0.30009,0.06369]],[[240.80946,4.87737],[0.29669,-0.08959],[-0.89707,0.27087]],[[238.62678,7.22738],[0.62577,-0.6333],[-3.39928,3.36008]],[[239.55917,19.35148],[-3.41956,-2.89062],[2.18706,1.84876]],[[247.55908,19.38755],[-2.25884,0.45177],[3.11557,-1.90435]],[[250.39804,8.10832],[1.45833,3.28499],[-0.44554,-1.00361]],[[248.80832,5.22311],[0.70998,0.83766],[-0.87137,-1.02807]],[[243.42678,5.22738],[0.67888,-0.83255],[0,0]],[[242.01257,5.22738],[0.70711,0.70711],[-0.19814,-0.19814]]],&quot;closed&quot;:true}],&quot;index&quot;:null}" fill="#ffffff" fill-rule="nonzero" stroke="#000000" stroke-width="1.5" stroke-linecap="butt"/><path d="M207.21219,126.90878c0,0 0.43708,0.11346 0.8118,-0.07509c1.81615,0.3417 2.45716,1.59857 2.82599,4.48371c-0.47002,3.06128 -0.47525,6.37676 -3.08156,8.67144c-0.38583,0.33967 -2.07811,0.26635 -2.55523,0.31444c-3.26183,0.32875 -9.31121,-0.47706 -10.29434,-3.86894c-0.16948,-1.48154 -0.91903,-3.80516 -0.51009,-5.23898c1.08001,-3.78669 4.66455,-5.00146 8.31855,-4.93224c0.21406,0.75093 1.11159,0.66186 1.11159,0.66186l0.82733,-0.08175c0.66807,-0.06733 1.27119,-0.10612 1.79845,-0.11604c0.25173,0.05582 0.5039,0.11799 0.74748,0.1816z" data-paper-data="{&quot;noHover&quot;:false,&quot;origItem&quot;:[&quot;Path&quot;,{&quot;applyMatrix&quot;:true,&quot;segments&quot;:[[[216.70435,5.65341],[0.38194,0.15726],[-1.70813,0.54728]],[[214.51218,10.59809],[0.02601,-3.04779],[0.801,3.14331]],[[218.43957,19.26604],[-2.76866,-2.11926],[0.40985,0.31371]],[[220.91968,19.32027],[-0.46445,0],[3.17519,0]],[[230.32308,14.23779],[-0.55919,3.64084],[-0.0058,-1.56297]],[[230.21837,8.75346],[0.55678,1.4524],[-1.47044,-3.83575]],[[221.70586,4.51461],[3.5071,-0.45627],[-0.12034,0.80567]],[220.71968,5.32027],[[219.91968,5.32027],[0,0],[-0.65032,0]],[[218.18577,5.38345],[0.50832,-0.04508],[-0.23579,0.0847]],[[217.49107,5.64875],[0.22708,-0.09195],[0,0]]],&quot;closed&quot;:true}],&quot;index&quot;:null}" fill="#ffffff" fill-rule="nonzero" stroke="#000000" stroke-width="1.5" stroke-linecap="butt"/><path d="M181.75681,137.40455c-1.00387,0.10118 -1.90661,-0.56743 -2.0163,-1.49335c-0.10969,-0.92593 0.6152,-1.75857 1.61906,-1.85975c1.00388,-0.10118 1.90661,0.56743 2.0163,1.49335c0.10969,0.92593 -0.6152,1.75857 -1.61906,1.85975z" data-paper-data="{&quot;index&quot;:null}" fill="#000000" fill-rule="nonzero" stroke="none" stroke-width="1.5" stroke-linecap="butt"/><path d="M202.6947,134.69646c-1.00387,0.10118 -1.9066,-0.56743 -2.01628,-1.49335c-0.10969,-0.92593 0.61518,-1.75857 1.61906,-1.85975c1.00388,-0.10118 1.90661,0.56743 2.0163,1.49335c0.10969,0.92593 -0.6152,1.75857 -1.61906,1.85975z" data-paper-data="{&quot;index&quot;:null}" fill="#000000" fill-rule="nonzero" stroke="none" stroke-width="1.5" stroke-linecap="butt"/><path d="M153.94768,110.97681c0.3185,-0.52655 0.86521,-0.2198 0.86521,-0.2198l0.74871,0.42044c4.23205,2.03689 8.57203,3.90156 12.76276,5.9983c4.73428,2.73434 9.71243,5.02037 14.672,7.34583c1.517,0.7113 3.03641,1.41805 4.55108,2.13393c0.26113,0.12342 0.55975,0.24947 0.80069,0.42085c0.04105,-0.06572 0.10124,-0.1309 0.18667,-0.1926c0.50618,-0.36563 0.88581,0.12188 0.88581,0.12188l0.3758,0.48258c0.08177,0.10267 0.13038,0.23115 0.13038,0.37055c0,0.33655 -0.28328,0.60938 -0.63272,0.60938c-0.03412,0 -0.0676,-0.0026 -0.10026,-0.00761l-0.87504,-0.12039l0.03326,-0.22426c-2.06784,-0.32494 -4.00025,-1.60326 -5.9096,-2.49852c-4.98053,-2.3353 -9.98241,-4.62962 -14.73546,-7.37776c-4.18653,-2.09221 -8.52108,-3.95387 -12.74715,-5.99002l-0.78393,-0.43949c0,0 -0.54671,-0.30675 -0.22822,-0.83329z" data-paper-data="{&quot;index&quot;:null}" fill="#000000" fill-rule="nonzero" stroke="none" stroke-width="0.5" stroke-linecap="butt"/><path d="M215.3034,99.64002c0.4474,0.4309 0,0.86179 0,0.86179l-0.04638,0.02739c-2.36053,3.42998 -4.38326,6.97134 -7.26913,10.02334c-2.98777,3.15912 -6.37078,6.2976 -8.94512,9.78209c-1.74436,2.36105 -3.19993,4.40114 -5.54733,6.28601c0,0 -0.48607,0.39012 -0.89113,-0.07803c-0.40506,-0.46814 0.08101,-0.85826 0.08101,-0.85826c2.26682,-1.81848 3.64342,-3.77837 5.32638,-6.05633c2.60454,-3.52534 6.01816,-6.69907 9.04058,-9.89611c2.83968,-3.00315 4.82952,-6.49697 7.14959,-9.87553l0.20671,-0.21637c0,0 0.4474,-0.4309 0.8948,0z" data-paper-data="{&quot;index&quot;:null}" fill="#000000" fill-rule="nonzero" stroke="none" stroke-width="0.5" stroke-linecap="butt"/><path d="M209.29575,142.01612c0.56854,0.42641 0.14214,0.99495 0.14214,0.99495l-0.49539,0.63708c-0.12094,0.5135 -0.31905,1.01013 -0.55366,1.48265c-0.61141,1.75699 -2.11369,3.16976 -3.34143,4.55248c-1.12293,1.26468 -2.0571,2.88653 -3.28209,4.0414c-0.90785,0.85588 -2.25536,1.53861 -3.26229,2.30817c-1.84809,1.41241 -2.97929,3.19099 -5.39229,3.73182c-1.52417,0.34161 -2.99482,0.15239 -4.52325,-0.01159c-1.4322,-0.43032 -2.73624,-0.4031 -4.18587,-0.68497c-2.42184,-0.47091 -4.52793,-1.72047 -6.53226,-3.05911c-0.66874,-0.44663 -1.56192,-0.58541 -2.10517,-1.17834c-0.92266,-1.00703 -0.93931,-2.76196 -1.1962,-4.00556c-0.41977,-2.03207 -0.72352,-3.85494 -0.31843,-5.91611c0,0 0.13938,-0.69688 0.83625,-0.5575c0.69688,0.13938 0.5575,0.83625 0.5575,0.83625c-0.38003,1.86274 -0.06265,3.51488 0.31663,5.34973c0.17629,0.85284 0.15855,2.60777 0.82193,3.30092c0.48952,0.51149 1.28969,0.59785 1.87909,0.99009c1.84655,1.22885 3.77842,2.41131 6.01162,2.84434c1.44084,0.27939 2.76829,0.25864 4.19507,0.68679c1.31872,0.13641 2.60757,0.31511 3.92204,0.02044c2.14209,-0.48018 3.19019,-2.20302 4.84144,-3.4697c0.97931,-0.75124 2.30071,-1.40905 3.18117,-2.24016c1.18007,-1.11393 2.07447,-2.69678 3.16136,-3.91817c1.1074,-1.24445 2.59847,-2.57058 3.10203,-4.16514c0.2483,-0.49291 0.44335,-1.01572 0.58342,-1.54957l0.64169,-0.87903c0,0 0.42641,-0.56854 0.99495,-0.14214z" fill="#000000" fill-rule="nonzero" stroke="none" stroke-width="0.5" stroke-linecap="butt"/></g></g></svg>